<?xml version="1.0" encoding="UTF-8"?>
<svg width="24px" height="22px" viewBox="0 0 24 22" version="1.1" xmlns="http://www.w3.org/2000/svg" xmlns:xlink="http://www.w3.org/1999/xlink">
    <!-- Generator: Sketch 50.2 (55047) - http://www.bohemiancoding.com/sketch -->
    <title>food travel white</title>
    <desc>Created with Sketch.</desc>
    <defs></defs>
    <g id="00-CHANNEL" stroke="none" stroke-width="1" fill="none" fill-rule="evenodd">
        <g id="0-menu-copy" transform="translate(-179.000000, -545.000000)" fill="#FFFFFF">
            <path d="M186.714178,549.065702 L195.285614,549.065702 L195.285614,546.793321 L186.714178,546.793321 L186.714178,549.065702 Z M199.571384,549.065702 L197.000026,549.065702 L197.000026,545.896824 C197.000026,545.401028 196.616587,545 196.142768,545 L185.857024,545 C185.383413,545 185.000078,545.401028 185.000078,545.896824 L185.000078,549.065702 L179,549.065702 L179,563.41314 C179,565.393934 180.535003,567 182.428616,567 L186.777444,567 L186.962151,563.615719 C185.602402,562.907346 184.612483,560.73582 184.612483,558.165983 C184.612483,555.021015 186.094817,552.471501 187.923294,552.471501 C189.751875,552.471501 191.234105,555.021015 191.234105,558.165983 C191.234105,560.73582 190.244186,562.907346 188.884437,563.615719 L189.069144,567 L194.059981,567 L194.212899,564.198459 C193.124186,563.986099 192.297158,562.985378 192.297158,561.785664 L192.297158,554.423712 C192.297158,554.003557 192.622733,553.662955 193.024352,553.662955 C193.425971,553.662955 193.751546,554.003557 193.751546,554.423712 L193.751546,558.698078 L194.47874,558.698078 L194.47874,552.931107 C194.47874,552.510843 194.804316,552.17035 195.205934,552.17035 C195.607553,552.17035 195.933128,552.510843 195.933128,552.931107 L195.933128,558.698078 L196.660322,558.698078 L196.660322,554.423712 C196.660322,554.003557 196.985898,553.662955 197.387517,553.662955 C197.789135,553.662955 198.114711,554.003557 198.114711,554.423712 L198.114711,561.785664 C198.114711,562.985378 197.287683,563.986099 196.198866,564.198459 L196.351888,567 L199.571384,567 C201.46479,567 203,565.393934 203,563.41314 L203,552.652561 C203,550.671659 201.46479,549.065702 199.571384,549.065702 Z" id="food-travel-white"></path>
        </g>
    </g>
</svg>