<?xml version="1.0" encoding="UTF-8"?>
<svg width="838px" height="499px" viewBox="0 0 838 499" version="1.1" xmlns="http://www.w3.org/2000/svg" xmlns:xlink="http://www.w3.org/1999/xlink">
    <!-- Generator: Sketch 52.5 (67469) - http://www.bohemiancoding.com/sketch -->
    <title>Group 58</title>
    <desc>Created with Sketch.</desc>
    <defs>
        <filter x="-3.7%" y="-3.8%" width="107.3%" height="107.7%" filterUnits="objectBoundingBox" id="filter-1">
            <feOffset dx="2" dy="3" in="SourceAlpha" result="shadowOffsetOuter1"></feOffset>
            <feColorMatrix values="0 0 0 0 1   0 0 0 0 1   0 0 0 0 1  0 0 0 1 0" type="matrix" in="shadowOffsetOuter1" result="shadowMatrixOuter1"></feColorMatrix>
            <feMerge>
                <feMergeNode in="shadowMatrixOuter1"></feMergeNode>
                <feMergeNode in="SourceGraphic"></feMergeNode>
            </feMerge>
        </filter>
        <polygon id="path-2" points="0 0.561940508 23.4468935 0.561940508 23.4468935 20.4519859 0 20.4519859"></polygon>
        <polygon id="path-4" points="0.92160442 0.122572831 42.3765 0.122572831 42.3765 54.9510263 0.92160442 54.9510263"></polygon>
        <path d="M0,0 L266,0 L266,480 C266,481.656854 264.656854,483 263,483 L3,483 C1.34314575,483 2.02906125e-16,481.656854 0,480 L0,0 Z" id="path-6"></path>
        <filter x="-6.6%" y="-2.6%" width="113.2%" height="107.2%" filterUnits="objectBoundingBox" id="filter-7">
            <feOffset dx="0" dy="5" in="SourceAlpha" result="shadowOffsetOuter1"></feOffset>
            <feGaussianBlur stdDeviation="5" in="shadowOffsetOuter1" result="shadowBlurOuter1"></feGaussianBlur>
            <feColorMatrix values="0 0 0 0 0   0 0 0 0 0   0 0 0 0 0  0 0 0 0.5 0" type="matrix" in="shadowBlurOuter1"></feColorMatrix>
        </filter>
        <path d="M7.89101693,3.47400422 L3.59322872,7.77179243 C3.51983195,7.8451892 3.43234894,7.88151689 3.33226245,7.88151689 C3.23069319,7.88151689 3.14395156,7.8451892 3.07129618,7.77179243 L2.10972445,6.81022071 C2.03632769,6.73682394 2,6.65008231 2,6.54925444 C2,6.44842656 2.03632769,6.36168493 2.10972445,6.28828817 L5.18497467,3.21303795 L2.10972445,0.137787738 C2.03632769,0.0643909757 2,-0.0223506529 2,-0.123178529 C2,-0.224006405 2.03632769,-0.310748033 2.10972445,-0.384144796 L3.07129618,-1.34571652 C3.14395156,-1.41911329 3.23069319,-1.45544098 3.33226245,-1.45544098 C3.43234894,-1.45544098 3.51983195,-1.41911329 3.59322872,-1.34571652 L7.89101693,2.95207169 C7.96441369,3.02546845 8,3.11221008 8,3.21303795 C8,3.31386583 7.96441369,3.40060746 7.89101693,3.47400422" id="path-8"></path>
        <path d="M7.89101693,3.47400422 L3.59322872,7.77179243 C3.51983195,7.8451892 3.43234894,7.88151689 3.33226245,7.88151689 C3.23069319,7.88151689 3.14395156,7.8451892 3.07129618,7.77179243 L2.10972445,6.81022071 C2.03632769,6.73682394 2,6.65008231 2,6.54925444 C2,6.44842656 2.03632769,6.36168493 2.10972445,6.28828817 L5.18497467,3.21303795 L2.10972445,0.137787738 C2.03632769,0.0643909757 2,-0.0223506529 2,-0.123178529 C2,-0.224006405 2.03632769,-0.310748033 2.10972445,-0.384144796 L3.07129618,-1.34571652 C3.14395156,-1.41911329 3.23069319,-1.45544098 3.33226245,-1.45544098 C3.43234894,-1.45544098 3.51983195,-1.41911329 3.59322872,-1.34571652 L7.89101693,2.95207169 C7.96441369,3.02546845 8,3.11221008 8,3.21303795 C8,3.31386583 7.96441369,3.40060746 7.89101693,3.47400422" id="path-10"></path>
        <path d="M7.89101693,3.47400422 L3.59322872,7.77179243 C3.51983195,7.8451892 3.43234894,7.88151689 3.33226245,7.88151689 C3.23069319,7.88151689 3.14395156,7.8451892 3.07129618,7.77179243 L2.10972445,6.81022071 C2.03632769,6.73682394 2,6.65008231 2,6.54925444 C2,6.44842656 2.03632769,6.36168493 2.10972445,6.28828817 L5.18497467,3.21303795 L2.10972445,0.137787738 C2.03632769,0.0643909757 2,-0.0223506529 2,-0.123178529 C2,-0.224006405 2.03632769,-0.310748033 2.10972445,-0.384144796 L3.07129618,-1.34571652 C3.14395156,-1.41911329 3.23069319,-1.45544098 3.33226245,-1.45544098 C3.43234894,-1.45544098 3.51983195,-1.41911329 3.59322872,-1.34571652 L7.89101693,2.95207169 C7.96441369,3.02546845 8,3.11221008 8,3.21303795 C8,3.31386583 7.96441369,3.40060746 7.89101693,3.47400422" id="path-12"></path>
        <path d="M7.89101693,3.47400422 L3.59322872,7.77179243 C3.51983195,7.8451892 3.43234894,7.88151689 3.33226245,7.88151689 C3.23069319,7.88151689 3.14395156,7.8451892 3.07129618,7.77179243 L2.10972445,6.81022071 C2.03632769,6.73682394 2,6.65008231 2,6.54925444 C2,6.44842656 2.03632769,6.36168493 2.10972445,6.28828817 L5.18497467,3.21303795 L2.10972445,0.137787738 C2.03632769,0.0643909757 2,-0.0223506529 2,-0.123178529 C2,-0.224006405 2.03632769,-0.310748033 2.10972445,-0.384144796 L3.07129618,-1.34571652 C3.14395156,-1.41911329 3.23069319,-1.45544098 3.33226245,-1.45544098 C3.43234894,-1.45544098 3.51983195,-1.41911329 3.59322872,-1.34571652 L7.89101693,2.95207169 C7.96441369,3.02546845 8,3.11221008 8,3.21303795 C8,3.31386583 7.96441369,3.40060746 7.89101693,3.47400422" id="path-14"></path>
        <path d="M7.89101693,3.47400422 L3.59322872,7.77179243 C3.51983195,7.8451892 3.43234894,7.88151689 3.33226245,7.88151689 C3.23069319,7.88151689 3.14395156,7.8451892 3.07129618,7.77179243 L2.10972445,6.81022071 C2.03632769,6.73682394 2,6.65008231 2,6.54925444 C2,6.44842656 2.03632769,6.36168493 2.10972445,6.28828817 L5.18497467,3.21303795 L2.10972445,0.137787738 C2.03632769,0.0643909757 2,-0.0223506529 2,-0.123178529 C2,-0.224006405 2.03632769,-0.310748033 2.10972445,-0.384144796 L3.07129618,-1.34571652 C3.14395156,-1.41911329 3.23069319,-1.45544098 3.33226245,-1.45544098 C3.43234894,-1.45544098 3.51983195,-1.41911329 3.59322872,-1.34571652 L7.89101693,2.95207169 C7.96441369,3.02546845 8,3.11221008 8,3.21303795 C8,3.31386583 7.96441369,3.40060746 7.89101693,3.47400422" id="path-16"></path>
        <path d="M7.89101693,3.47400422 L3.59322872,7.77179243 C3.51983195,7.8451892 3.43234894,7.88151689 3.33226245,7.88151689 C3.23069319,7.88151689 3.14395156,7.8451892 3.07129618,7.77179243 L2.10972445,6.81022071 C2.03632769,6.73682394 2,6.65008231 2,6.54925444 C2,6.44842656 2.03632769,6.36168493 2.10972445,6.28828817 L5.18497467,3.21303795 L2.10972445,0.137787738 C2.03632769,0.0643909757 2,-0.0223506529 2,-0.123178529 C2,-0.224006405 2.03632769,-0.310748033 2.10972445,-0.384144796 L3.07129618,-1.34571652 C3.14395156,-1.41911329 3.23069319,-1.45544098 3.33226245,-1.45544098 C3.43234894,-1.45544098 3.51983195,-1.41911329 3.59322872,-1.34571652 L7.89101693,2.95207169 C7.96441369,3.02546845 8,3.11221008 8,3.21303795 C8,3.31386583 7.96441369,3.40060746 7.89101693,3.47400422" id="path-18"></path>
        <path d="M7.89101693,3.47400422 L3.59322872,7.77179243 C3.51983195,7.8451892 3.43234894,7.88151689 3.33226245,7.88151689 C3.23069319,7.88151689 3.14395156,7.8451892 3.07129618,7.77179243 L2.10972445,6.81022071 C2.03632769,6.73682394 2,6.65008231 2,6.54925444 C2,6.44842656 2.03632769,6.36168493 2.10972445,6.28828817 L5.18497467,3.21303795 L2.10972445,0.137787738 C2.03632769,0.0643909757 2,-0.0223506529 2,-0.123178529 C2,-0.224006405 2.03632769,-0.310748033 2.10972445,-0.384144796 L3.07129618,-1.34571652 C3.14395156,-1.41911329 3.23069319,-1.45544098 3.33226245,-1.45544098 C3.43234894,-1.45544098 3.51983195,-1.41911329 3.59322872,-1.34571652 L7.89101693,2.95207169 C7.96441369,3.02546845 8,3.11221008 8,3.21303795 C8,3.31386583 7.96441369,3.40060746 7.89101693,3.47400422" id="path-20"></path>
        <path d="M7.89101693,3.47400422 L3.59322872,7.77179243 C3.51983195,7.8451892 3.43234894,7.88151689 3.33226245,7.88151689 C3.23069319,7.88151689 3.14395156,7.8451892 3.07129618,7.77179243 L2.10972445,6.81022071 C2.03632769,6.73682394 2,6.65008231 2,6.54925444 C2,6.44842656 2.03632769,6.36168493 2.10972445,6.28828817 L5.18497467,3.21303795 L2.10972445,0.137787738 C2.03632769,0.0643909757 2,-0.0223506529 2,-0.123178529 C2,-0.224006405 2.03632769,-0.310748033 2.10972445,-0.384144796 L3.07129618,-1.34571652 C3.14395156,-1.41911329 3.23069319,-1.45544098 3.33226245,-1.45544098 C3.43234894,-1.45544098 3.51983195,-1.41911329 3.59322872,-1.34571652 L7.89101693,2.95207169 C7.96441369,3.02546845 8,3.11221008 8,3.21303795 C8,3.31386583 7.96441369,3.40060746 7.89101693,3.47400422" id="path-22"></path>
        <path d="M12.7313463,0 C12.8993799,0 13.0599453,0.0326732013 13.2130426,0.0980196039 C13.4538908,0.193238648 13.6452624,0.342601854 13.7871574,0.546109222 C13.9290525,0.74961659 14,0.975528439 14,1.22384477 L14,15.3246649 C14,15.5729813 13.9290525,15.7988931 13.7871574,16.0024005 C13.6452624,16.2059078 13.4538908,16.3552711 13.2130426,16.4504901 C13.0748816,16.5083683 12.9143162,16.5373075 12.7313463,16.5373075 C12.3812763,16.5373075 12.0788158,16.4206175 11.8239648,16.1872374 L7,11.5481096 L2.17603521,16.1872374 C1.91371608,16.4280856 1.61125558,16.5485097 1.26865373,16.5485097 C1.10062012,16.5485097 0.940054678,16.5158365 0.786957391,16.4504901 C0.546109222,16.3552711 0.354737614,16.2059078 0.212842569,16.0024005 C0.0709475228,15.7988931 2.61128109e-17,15.5729813 0,15.3246649 L0,1.22384477 C0,0.975528439 0.0709475228,0.74961659 0.212842569,0.546109222 C0.354737614,0.342601854 0.546109222,0.193238648 0.786957391,0.0980196039 C0.940054678,0.0326732013 1.10062012,6.21849264e-16 1.26865373,6.21849264e-16 L12.7327465,6.21849264e-16 L12.7313463,0 Z" id="path-24"></path>
        <path d="M76.5,153 C118.749783,153 153,118.749783 153,76.5 C153,34.2502166 118.749783,-4.97379915e-13 76.5,-4.97379915e-13 C34.2502166,-4.97379915e-13 0,34.2502166 0,76.5 C0,118.749783 34.2502166,153 76.5,153 Z" id="path-26"></path>
        <filter x="-12.4%" y="-11.1%" width="124.8%" height="124.8%" filterUnits="objectBoundingBox" id="filter-28">
            <feMorphology radius="6" operator="dilate" in="SourceAlpha" result="shadowSpreadOuter1"></feMorphology>
            <feOffset dx="0" dy="2" in="shadowSpreadOuter1" result="shadowOffsetOuter1"></feOffset>
            <feMorphology radius="1" operator="erode" in="SourceAlpha" result="shadowInner"></feMorphology>
            <feOffset dx="0" dy="2" in="shadowInner" result="shadowInner"></feOffset>
            <feComposite in="shadowOffsetOuter1" in2="shadowInner" operator="out" result="shadowOffsetOuter1"></feComposite>
            <feGaussianBlur stdDeviation="4" in="shadowOffsetOuter1" result="shadowBlurOuter1"></feGaussianBlur>
            <feColorMatrix values="0 0 0 0 0   0 0 0 0 0   0 0 0 0 0  0 0 0 0.5 0" type="matrix" in="shadowBlurOuter1"></feColorMatrix>
        </filter>
        <polygon id="path-29" points="1.92008951 2.37176471 30.029645 2.37176471 30.029645 24.6777176 1.92008951 24.6777176 1.92008951 2.37176471"></polygon>
        <polygon id="path-31" points="1.25384439 2.37176471 29.3618045 2.37176471 29.3618045 24.6777176 1.25384439 24.6777176 1.25384439 2.37176471"></polygon>
        <polygon id="path-33" points="6.81289203e-20 0.131682353 6.81289203e-20 21.9667412 34.0445351 21.9667412 34.0445351 0.131682353 0 0.131682353"></polygon>
        <polygon id="path-35" points="1.60261622 22.2352941 29.5704811 22.2352941 29.5704811 0.171211765 1.60261622 0.171211765"></polygon>
        <path d="M0,0 L399,0 L399,940.5 C399,942.985281 396.985281,945 394.5,945 L4.5,945 C2.01471863,945 3.04359188e-16,942.985281 0,940.5 L0,0 Z" id="path-37"></path>
        <filter x="-6.6%" y="-2.0%" width="113.3%" height="105.6%" filterUnits="objectBoundingBox" id="filter-38">
            <feOffset dx="0" dy="8" in="SourceAlpha" result="shadowOffsetOuter1"></feOffset>
            <feGaussianBlur stdDeviation="7.5" in="shadowOffsetOuter1" result="shadowBlurOuter1"></feGaussianBlur>
            <feColorMatrix values="0 0 0 0 0   0 0 0 0 0   0 0 0 0 0  0 0 0 0.5 0" type="matrix" in="shadowBlurOuter1"></feColorMatrix>
        </filter>
        <path d="M19.0970194,0 C19.3490698,0 19.589918,0.049009802 19.8195639,0.147029406 C20.1808362,0.289857972 20.4678936,0.513902781 20.6807361,0.819163833 C20.8935787,1.12442488 21,1.46329266 21,1.83576715 L21,22.9869974 C21,23.3594719 20.8935787,23.6983397 20.6807361,24.0036007 C20.4678936,24.3088618 20.1808362,24.5329066 19.8195639,24.6757351 C19.6123225,24.7625525 19.3714743,24.8059612 19.0970194,24.8059612 C18.5719144,24.8059612 18.1182236,24.6309262 17.7359472,24.2808562 L10.5,17.3221644 L3.26405281,24.2808562 C2.87057411,24.6421284 2.41688338,24.8227646 1.9029806,24.8227646 C1.65093019,24.8227646 1.41008202,24.7737548 1.18043609,24.6757351 C0.819163833,24.5329066 0.532106421,24.3088618 0.319263853,24.0036007 C0.106421284,23.6983397 3.91692163e-17,23.3594719 0,22.9869974 L0,1.83576715 C0,1.46329266 0.106421284,1.12442488 0.319263853,0.819163833 C0.532106421,0.513902781 0.819163833,0.289857972 1.18043609,0.147029406 C1.41008202,0.049009802 1.65093019,9.32773895e-16 1.9029806,9.32773895e-16 L19.0991198,9.32773895e-16 L19.0970194,0 Z" id="path-39"></path>
    </defs>
    <g id="ONBOARDING" stroke="none" stroke-width="1" fill="none" fill-rule="evenodd">
        <g id="onboarding3d-copy" transform="translate(-86.000000, -130.000000)">
            <g id="Group-58" transform="translate(86.000000, 130.000000)">
                <g id="Group-40" transform="translate(539.000000, 364.000000)"></g>
                <g id="Group-62" transform="translate(10.000000, 1.000000)">
                    <path d="M569.445657,121.876033 C490.860123,133.969449 443.151915,172.668487 426.321035,237.973145 C401.074714,335.930132 461.51556,416.218166 546.580174,436.133722 C631.644787,456.049278 766.263632,438.393206 805.401354,365.8874 C844.539076,293.381595 829.510321,208.072442 764.732357,164.870756 C699.954392,121.669069 503.905987,147.077338 426.321035,173.667556" id="outline" stroke="#FFFFFF" stroke-width="2" stroke-linecap="round" stroke-linejoin="round" fill-rule="nonzero" transform="translate(623.676621, 282.815908) scale(-1, 1) translate(-623.676621, -282.815908) "></path>
                    <g id="Group-57" transform="translate(189.000000, 244.000000)">
                        <g id="orange-guy" filter="url(#filter-1)" transform="translate(109.338380, 106.944819) scale(-1, 1) rotate(-17.000000) translate(-109.338380, -106.944819) translate(20.838380, 22.444819)">
                            <path d="M37.926099,140.140132 C38.0684413,138.521936 27.321595,117.080843 34.0828559,114.767811 C40.8410224,112.457867 63.1609194,119.307406 68.941256,116.870848 C74.7246869,114.43429 91.2425866,101.497988 95.1136792,102.165031 C98.9847718,102.828985 86.7928414,120.551934 76.0924111,126.808546 C65.3950752,133.06207 37.926099,140.140132 37.926099,140.140132" id="Fill-1" fill="#FAA61A"></path>
                            <g id="Group-5" transform="translate(0.154861, 119.539857)">
                                <mask id="mask-3" fill="white">
                                    <use xlink:href="#path-2"></use>
                                </mask>
                                <g id="Clip-4"></g>
                                <path d="M18.9378125,9.692 C18.9378125,9.692 -0.1028125,23.266 0.0003125,19.922 C0.1034375,16.5717143 10.0784375,1.03028571 19.4159375,0.577714286 C28.7565625,0.122 18.9378125,9.692 18.9378125,9.692" id="Fill-3" fill="#CC6633" mask="url(#mask-3)"></path>
                            </g>
                            <path d="M0.0742180498,139.079452 C0.0742180498,139.079452 10.8074033,121.909996 18.5027792,125.188306 C26.1981552,128.466617 19.062054,120.079452 19.062054,120.079452 C19.062054,120.079452 2.65054924,125.71617 0.0742180498,139.079452" id="Fill-6" fill="#FAA61A"></path>
                            <path d="M18.6312345,147.3004 C18.6312345,147.3004 1.5505738,162.998731 1.38371122,159.721525 C1.2198825,156.44432 9.50840203,139.994393 18.3733559,138.34514 C27.2383098,136.69893 18.6312345,147.3004 18.6312345,147.3004" id="Fill-8" fill="#CC6633"></path>
                            <path d="M18.3936655,137.814826 C18.3936655,137.814826 1.30997101,153.51743 1.14614229,150.236925 C0.982313575,146.959463 9.2708331,130.508246 18.135787,128.861907 C27.0007409,127.212525 18.3936655,137.814826 18.3936655,137.814826" id="Fill-10" fill="#CC6633"></path>
                            <path d="M0.187448745,150.395276 C0.187448745,150.395276 9.57377969,131.389581 17.5878767,133.694821 C25.6019737,136.00006 17.7319926,128.395276 17.7319926,128.395276 C17.7319926,128.395276 1.67873497,136.382178 0.187448745,150.395276" id="Fill-12" fill="#FAA61A"></path>
                            <path d="M1.38132243,160.171506 C1.38132243,160.171506 10.7676534,141.165385 18.7817504,143.470296 C26.7958473,145.775207 18.9258662,138.171506 18.9258662,138.171506 C18.9258662,138.171506 2.87260865,146.160403 1.38132243,160.171506" id="Fill-14" fill="#FCEE21"></path>
                            <path d="M15.9208899,137.660708 C15.9208899,137.660708 13.9142993,126.047694 20.4085818,120.233377 C26.9028643,114.419059 29.3529518,111.25727 33.9522933,114.781477 C38.5578375,118.308809 41.6530113,140.822497 34.0174222,146.483724 C26.3849345,152.151199 1.59563157,173.312066 2.68421474,162.055222 C2.78345879,161.046074 10.4903796,152.922901 15.2137761,150.070417 C19.940274,147.214809 15.9208899,137.660708 15.9208899,137.660708" id="Fill-16" fill="#FAA61A"></path>
                            <path d="M18.3241718,122.985951 C18.3241718,122.985951 15.6420054,134.137036 17.9224794,140.406023 C20.1997905,146.6719 31.3491261,137.821932 33.5948079,131.714645 C35.8373267,125.604248 34.7303005,121.552418 34.7303005,121.552418 L18.3241718,122.985951 Z" id="Fill-18" fill="#CC6633"></path>
                            <path d="M31.6316197,126.525904 C31.6316197,126.525904 19.5442732,133.938024 16.8665968,119.294412 C16.8665968,119.294412 6.41105788,124.298148 5.64555744,116.806805 C4.880057,109.315462 17.7738566,111.863279 22.2377007,109.99995 C26.704695,108.136621 31.499311,110.586201 34.7030721,117.909591 C37.903683,125.23615 31.6316197,126.525904 31.6316197,126.525904" id="Fill-20" fill="#FAA61A"></path>
                            <path d="M31.7878115,124.336986 C31.7878115,124.336986 24.666604,130.282404 20.7914701,124.141371 C20.7914701,124.141371 17.9698596,120.501647 19.023383,118.298571 C20.0799601,116.095495 25.8300603,124.285677 31.7878115,124.336986" id="Fill-22" fill="#FCEE21"></path>
                            <path d="M12.6331213,119.187098 C12.6331213,119.187098 7.2236029,120.006005 7.65794379,116.376564 C8.09532203,112.74427 12.6331213,119.187098 12.6331213,119.187098" id="Fill-24" fill="#FCEE21"></path>
                            <path d="M4.00711004,163.444937 C4.00711004,163.444937 2.00070205,160.569418 6.82290365,158.608837 C11.6482063,156.645144 29.9043484,147.464646 34.5932029,142.444937 C34.5932029,142.444937 21.4135522,154.693899 16.6006539,157.202198 C11.7846545,159.707385 4.00711004,163.444937 4.00711004,163.444937" id="Fill-26" fill="#FCEE21"></path>
                            <path d="M170.407959,88.5304852 C172.680276,114.962241 91.6703269,112.071936 91.6703269,112.071936 C91.6703269,112.071936 84.7329682,105.639863 91.2380927,102.905543 C97.7463046,100.174282 127.172191,100.223218 139.148165,92.0172014 C151.124139,83.8081258 160.367776,77.165014 160.367776,77.165014" id="Fill-28" fill="#FAA61A"></path>
                            <path d="M77.2937158,106.679238 C77.2937158,106.679238 74.6694575,139.196719 101.647699,168.003034 C101.647699,168.003034 123.235237,154.683587 128.22411,139.89758 C128.22411,139.89758 92.9341719,108.754034 92.207787,97.0030335 C92.207787,97.0030335 77.1886219,99.6119655 77.2937158,106.679238" id="Fill-30" fill="#FAA61A"></path>
                            <path d="M76.819905,106.952104 C76.819905,106.952104 76.6282222,109.593913 76.937388,113.935562 C82.2612243,112.88927 88.6949661,111.55149 92.1050656,110.591111 C92.1050656,110.591111 106.833728,135.993593 126.292628,143.336042 C126.861493,142.222248 127.374708,141.099249 127.761165,139.963977 C127.761165,139.963977 92.463698,109.014004 91.7371582,97.336042 C91.7371582,97.336042 76.7147886,99.9287581 76.819905,106.952104" id="Fill-32" fill="#CC6633"></path>
                            <path d="M89.0653589,104.057595 C86.4395816,110.590053 96.120955,110.170087 96.120955,110.170087 C96.120955,110.170087 96.8482386,109.492625 98.0572297,108.327756 C96.523952,102.178479 98.318548,94.4964805 100.613742,88.1755384 C95.27718,95.1218308 90.2617563,101.081051 89.0653589,104.057595" id="Fill-34" fill="#CC6633"></path>
                            <path d="M81.3983057,125.187859 C79.716574,138.671032 100.247328,161.518376 100.854362,162.576666 C100.854362,162.576666 102.619716,164.60377 104.357195,166.566081 C107.726853,164.221181 113.292363,160.031216 118.300393,154.847754 C114.032573,149.037957 104.406749,133.441289 100.690215,126.80152 C96.0941012,118.600543 83.0800374,111.704686 81.3983057,125.187859" id="Fill-36" fill="#FCEE21"></path>
                            <polygon id="Fill-38" fill="#CC6633" points="77.8053839 125.910764 75.0774687 113.136911 77.4967855 111.910764 79.0774687 124.269103"></polygon>
                            <path d="M147.337471,78.5476829 C147.337471,78.5476829 108.873077,98.3359398 120.633491,109.303742 C132.393905,120.277706 156.397694,106.503256 156.397694,106.503256 L147.337471,78.5476829 Z" id="Fill-40" fill="#006699"></path>
                            <path d="M160.968301,58.2142191 C160.968301,58.2142191 144.751043,64.6473789 141.211823,67.1386364 C137.681982,69.6205749 137.619452,73.8513638 138.469865,77.6659077 C139.314026,81.4773452 135.95927,82.4806821 135.931131,88.6653374 C135.899866,94.8437802 146.157977,107.741163 149.715957,107.197559 C153.289569,106.666381 161.190284,100.4693 162.009432,99.2423096 C162.844213,98.0308502 167.93106,72.9287909 167.93106,72.9287909 L160.968301,58.2142191 Z" id="Fill-42" fill="#005499"></path>
                            <g id="Group-46" transform="translate(133.631941, 56.215672)">
                                <mask id="mask-5" fill="white">
                                    <use xlink:href="#path-4"></use>
                                </mask>
                                <g id="Clip-45"></g>
                                <path d="M41.8887571,19.9142222 C41.8887571,19.9142222 43.7838286,13.1164444 40.1042571,11.0755556 C36.4216143,9.02533333 31.8728286,12.4475556 25.8497571,7.71866667 C19.8297571,2.99288889 10.0534,-2.05955556 7.80204286,1.11377778 C5.56297143,4.28711111 1.02032857,7.71244444 7.53175714,12.6217778 C14.0309,17.5404444 18.8591857,19.4631111 18.8591857,19.4631111 C18.8591857,19.4631111 4.19618571,14.1991111 2.24275714,18.0786667 C0.301614286,21.952 0.3569,24.8795556 3.3669,27.2377778 C6.37382857,29.6022222 16.0979714,31.7333333 16.0979714,31.7333333 C16.0979714,31.7333333 2.26425714,30.2897778 1.76668571,34.7417778 C1.26911429,39.1937778 14.8479,42.8524444 14.8479,42.8524444 C14.8479,42.8524444 -1.63952857,42.6813333 1.60082857,47.4568889 C4.84118571,52.2355556 11.9761143,53.9155556 17.5292571,53.8035556 C23.0946857,53.6946667 31.1203286,57.4715556 33.1321143,51.884 C35.1500429,46.2933333 32.1308286,43.9226667 35.1070429,38.7208889 C38.0863286,33.5097778 41.8887571,19.9142222 41.8887571,19.9142222" id="Fill-44" fill="#0082C6" mask="url(#mask-5)"></path>
                            </g>
                            <path d="M157.194621,109.920617 C157.194621,109.920617 168.267233,111.258779 167.109817,108.832759 C165.937563,106.397112 162.889701,104.288786 162.889701,104.288786 L157.194621,109.920617 Z" id="Fill-47" fill="#00A9E9"></path>
                            <path d="M148.235767,99.7651032 C148.235767,99.7651032 134.657855,96.1351847 135.152323,91.7181665 C135.649863,87.3011484 149.482687,88.7333611 149.482687,88.7333611 C149.482687,88.7333611 139.762241,86.6189953 136.755506,84.270043 C133.742628,81.9334373 133.690417,79.0288851 135.631435,75.1859867 C137.581667,71.336915 152.246795,76.5595528 152.246795,76.5595528 C152.246795,76.5595528 147.415749,74.6519936 140.920095,69.7719757 C134.409085,64.9012177 138.951436,61.5027991 141.190363,58.3544004 C142.882612,55.9931014 148.81623,58.2371071 154.218525,61.4811924 C152.596915,61.5027991 151.313141,61.8917189 150.766462,62.9103185 C148.530605,67.0186701 151.770754,73.3092942 154.669996,74.454447 C157.563096,75.5872532 163.309369,79.0196251 163.309369,79.0196251 C163.309369,79.0196251 150.677396,76.3280529 148.174343,79.1832184 C145.665147,82.0352972 150.640541,85.5386624 152.246795,86.1714288 C153.862262,86.8103686 162.953106,91.1749134 162.953106,91.1749134 C162.953106,91.1749134 146.973491,87.5388216 145.9477,91.37246 C144.931123,95.1999251 157.676731,100.620109 157.676731,100.620109 C157.676731,100.620109 148.300263,101.135583 148.361688,105.006261 C148.413899,107.892293 154.335232,110.327672 157.357323,111.374052 C155.152179,111.028345 152.88254,110.596212 150.916952,110.630165 C145.361095,110.741285 138.229697,109.074486 134.989548,104.330281 C131.749399,99.5953366 148.235767,99.7651032 148.235767,99.7651032" id="Fill-49" fill="#006699"></path>
                            <path d="M173.789275,78.2554476 C173.789275,78.2554476 177.41119,74.6414178 175.05663,71.8102216 C172.714711,68.972837 170.796297,72.0825115 167.284999,70.3497576 C163.754738,68.6139094 159.364825,69.2327501 163.57775,73.1623886 C167.787516,77.1013096 169.784942,74.7899396 168.574476,80.0964986 C167.351369,85.3999635 161.311683,79.2363101 162.585358,83.9611588 C163.849552,88.6798192 165.5973,87.0460798 165.33498,90.7993486 C165.07266,94.5557117 161.41914,96.2203932 163.018345,101.081387 C164.62071,105.92691 167.101691,108.433215 167.101691,108.433215 C167.101691,108.433215 164.09607,102.266467 166.437989,96.9939441 C168.767266,91.7307039 171.368344,82.7203832 171.368344,82.7203832 L173.789275,78.2554476 Z" id="Fill-51" fill="#00A9E9"></path>
                            <path d="M117.159807,42.0431585 C126.741909,69.7236642 111.863449,99.8576552 83.9218887,109.350233 C55.9772091,118.842811 25.5559054,104.100269 15.9738029,76.4197633 C6.39170049,48.7361675 21.2763987,18.6021765 49.2210783,9.10959851 C77.1626387,-0.38297947 107.580823,14.3626527 117.159807,42.0431585" id="Fill-53" fill="#FAA61A"></path>
                            <path d="M61.8334199,21.3992241 C61.8334199,21.3992241 56.9105778,-1.60130867 34.0947883,0.567766822 C34.0947883,0.567766822 41.256262,3.17169898 45.7281567,10.116386 C45.7281567,10.116386 31.8615251,3.17169898 16.2018409,14.8893937 C16.2018409,14.8893937 27.8352093,10.5486388 33.6492093,15.3242504 C33.6492093,15.3242504 17.9895251,14.454537 10.8334199,29.6458772 C10.8334199,29.6458772 37.6755251,14.454537 61.8334199,21.3992241" id="Fill-15" fill="#FAA61A"></path>
                            <path d="M59.4032632,54.4106705 C62.2746054,62.699759 59.508237,71.1478415 53.231421,73.2789719 C46.9576926,75.4101024 39.5416021,70.4170808 36.6733473,62.1310499 C33.802005,53.8419613 36.565286,45.3969365 42.8390145,43.2627484 C49.1158305,41.131618 56.5319209,46.121582 59.4032632,54.4106705" id="Fill-55" fill="#FFFFFF"></path>
                            <path d="M56.7749256,55.6627936 C58.7475422,61.2589461 56.6469552,67.025139 52.0868399,68.5463937 C47.5267245,70.0676484 42.2299992,66.7670419 40.2573825,61.1739259 C38.2847659,55.5808098 40.3853529,49.808544 44.9454683,48.2872893 C49.5055836,46.7660346 54.8023089,50.0696775 56.7749256,55.6627936" id="Fill-57" fill="#021A23"></path>
                            <path d="M51.7818574,55.2809373 C52.6123136,57.6934691 51.8734519,60.133347 50.1301045,60.7258454 C48.383704,61.3213822 46.2922978,59.8507709 45.4648947,57.4352006 C44.6313854,55.0257073 45.3733003,52.5827909 47.1197008,51.9902926 C48.8630482,51.3947557 50.9544544,52.8684055 51.7818574,55.2809373" id="Fill-59" fill="#FFFFFF"></path>
                            <path d="M92.0265676,43.4713703 C94.8982017,51.7607346 92.1346399,60.2090981 85.8571861,62.3402994 C79.5828202,64.4684431 72.1659762,59.4783131 69.2974299,51.1889488 C66.4257959,42.8995846 69.1893577,34.4573364 75.4637236,32.3230774 C81.7411774,30.191876 89.1549336,35.1820061 92.0265676,43.4713703" id="Fill-61" fill="#FFFFFF"></path>
                            <path d="M89.3990192,44.7231062 C91.3712995,50.3192587 89.2710707,56.0854516 84.7117328,57.6067063 C80.1492742,59.127961 74.853452,55.8273545 72.8811717,50.2342385 C70.9088914,44.6411224 73.0091202,38.8688566 77.5715788,37.3476019 C82.1309166,35.8263472 87.4267389,39.1299901 89.3990192,44.7231062" id="Fill-63" fill="#021A23"></path>
                            <path d="M84.4072159,44.341246 C85.2370929,46.7537751 84.4926444,49.1936501 82.7505131,49.7861478 C81.0083817,50.381684 78.9184343,48.9110743 78.0885574,46.4985453 C77.2556294,44.0860162 77.9970269,41.6461412 79.7452602,41.050605 C81.4843406,40.4550689 83.577339,41.928717 84.4072159,44.341246" id="Fill-65" fill="#FFFFFF"></path>
                            <path d="M29.5792456,79.9797035 C29.5792456,79.9797035 37.2504412,87.2900277 69.8545707,76.7161659 C107.597596,64.479454 104.378047,51.9505778 104.378047,51.9505778 C104.378047,51.9505778 119.116773,75.6065631 98.9729188,92.0703332 C83.2869024,104.891374 70.8204355,104.406505 70.8204355,104.406505 C70.8204355,104.406505 46.8409837,110.76885 29.5792456,79.9797035" id="Fill-67" fill="#510D3A"></path>
                            <path d="M72.0629454,83.4087747 C100.207056,73.8746246 104.517192,63.6751593 103.247324,56.48182 C100.824997,61.1481822 93.1934285,68.7169057 69.8136411,76.1727088 C50.3423288,82.3833347 39.7879012,82.3070371 34.4427139,81.2449743 C38.1688965,85.6580284 47.9385394,91.5787234 72.0629454,83.4087747" id="Fill-69" fill="#FFFFFF"></path>
                            <path d="M89.4662227,84.7452298 C80.432137,85.4923181 78.4303705,89.2962429 78.3565727,92.3997723 C76.4193793,89.9966382 72.5296181,88.2378677 64.9376652,93.2589239 C60.2023038,96.3966949 57.6532034,99.9204616 56.2910182,103.148506 C64.8607925,105.813121 71.2842796,104.104156 71.2842796,104.104156 C71.2842796,104.104156 83.6638674,104.586651 99.2475115,91.74607 C100.806491,90.4635684 102.131777,89.1312609 103.291018,87.7740504 C100.191509,85.753799 95.7513388,84.2284937 89.4662227,84.7452298" id="Fill-71" fill="#ED125F"></path>
                        </g>
                    </g>
                    <g id="Group-10">
                        <g id="skyscrapper-kiri" transform="translate(25.000000, 314.000000)" fill="#9B9B9B" font-family="Roboto-Regular, Roboto" font-size="13" font-weight="normal">
                            <text id="120x600-px">
                                <tspan x="0" y="12">120x600 px</tspan>
                            </text>
                        </g>
                        <g id="dropdown-kategori">
                            <g id="Group-46">
                                <g id="Rectangle-19">
                                    <use fill="black" fill-opacity="1" filter="url(#filter-7)" xlink:href="#path-6"></use>
                                    <use fill="#FFFFFF" fill-rule="evenodd" xlink:href="#path-6"></use>
                                </g>
                                <g id="Group-25" transform="translate(243.000000, 207.000000)">
                                    <g id="icon/icons/chevron-kecil-kanan">
                                        <g id="color/grey-b3" transform="translate(10.000000, 10.500000) rotate(-90.000000) translate(-10.000000, -10.500000) translate(5.000000, 7.000000)">
                                            <mask id="mask-9" fill="white">
                                                <use xlink:href="#path-8"></use>
                                            </mask>
                                            <use id="Mask" fill="#FFFFFF" transform="translate(5.000000, 3.213038) rotate(-270.000000) translate(-5.000000, -3.213038) " xlink:href="#path-8"></use>
                                            <g id="color/grey3-b3" mask="url(#mask-9)" fill="#B3B3B3">
                                                <g transform="translate(-10.000000, -12.000000)" id="Rectangle-3">
                                                    <rect x="0" y="0" width="30" height="30"></rect>
                                                </g>
                                            </g>
                                        </g>
                                    </g>
                                    <g id="icon/icons/chevron-kecil-kanan" transform="translate(0.000000, 122.000000)">
                                        <g id="color/grey-b3" transform="translate(10.000000, 10.500000) rotate(-90.000000) translate(-10.000000, -10.500000) translate(5.000000, 7.000000)">
                                            <mask id="mask-11" fill="white">
                                                <use xlink:href="#path-10"></use>
                                            </mask>
                                            <use id="Mask" fill="#FFFFFF" transform="translate(5.000000, 3.213038) rotate(-270.000000) translate(-5.000000, -3.213038) " xlink:href="#path-10"></use>
                                            <g id="color/grey3-b3" mask="url(#mask-11)" fill="#B3B3B3">
                                                <g transform="translate(-10.000000, -12.000000)" id="Rectangle-3">
                                                    <rect x="0" y="0" width="30" height="30"></rect>
                                                </g>
                                            </g>
                                        </g>
                                    </g>
                                    <g id="icon/icons/chevron-kecil-kanan" transform="translate(0.000000, 30.000000)">
                                        <g id="color/grey-b3" transform="translate(10.000000, 10.500000) rotate(-90.000000) translate(-10.000000, -10.500000) translate(5.000000, 7.000000)">
                                            <mask id="mask-13" fill="white">
                                                <use xlink:href="#path-12"></use>
                                            </mask>
                                            <use id="Mask" fill="#FFFFFF" transform="translate(5.000000, 3.213038) rotate(-270.000000) translate(-5.000000, -3.213038) " xlink:href="#path-12"></use>
                                            <g id="color/grey3-b3" mask="url(#mask-13)" fill="#B3B3B3">
                                                <g transform="translate(-10.000000, -12.000000)" id="Rectangle-3">
                                                    <rect x="0" y="0" width="30" height="30"></rect>
                                                </g>
                                            </g>
                                        </g>
                                    </g>
                                    <g id="icon/icons/chevron-kecil-kanan" transform="translate(0.000000, 155.000000)">
                                        <g id="color/grey-b3" transform="translate(10.000000, 10.500000) rotate(-90.000000) translate(-10.000000, -10.500000) translate(5.000000, 7.000000)">
                                            <mask id="mask-15" fill="white">
                                                <use xlink:href="#path-14"></use>
                                            </mask>
                                            <use id="Mask" fill="#FFFFFF" transform="translate(5.000000, 3.213038) rotate(-270.000000) translate(-5.000000, -3.213038) " xlink:href="#path-14"></use>
                                            <g id="color/grey3-b3" mask="url(#mask-15)" fill="#B3B3B3">
                                                <g transform="translate(-10.000000, -12.000000)" id="Rectangle-3">
                                                    <rect x="0" y="0" width="30" height="30"></rect>
                                                </g>
                                            </g>
                                        </g>
                                    </g>
                                </g>
                                <g id="icon/icons/chevron-kecil-kanan" transform="translate(243.000000, 143.000000)">
                                    <g id="color/grey-b3" transform="translate(10.000000, 10.500000) rotate(-90.000000) translate(-10.000000, -10.500000) translate(5.000000, 7.000000)">
                                        <mask id="mask-17" fill="white">
                                            <use xlink:href="#path-16"></use>
                                        </mask>
                                        <use id="Mask" fill="#FFFFFF" transform="translate(5.000000, 3.213038) rotate(-270.000000) translate(-5.000000, -3.213038) " xlink:href="#path-16"></use>
                                        <g id="color/grey3-b3" mask="url(#mask-17)" fill="#B3B3B3">
                                            <g transform="translate(-10.000000, -12.000000)" id="Rectangle-3">
                                                <rect x="0" y="0" width="30" height="30"></rect>
                                            </g>
                                        </g>
                                    </g>
                                </g>
                                <g id="icon/icons/chevron-kecil-kanan" transform="translate(243.000000, 99.000000)">
                                    <g id="color/grey-b3" transform="translate(10.000000, 10.500000) rotate(-90.000000) translate(-10.000000, -10.500000) translate(5.000000, 7.000000)">
                                        <mask id="mask-19" fill="white">
                                            <use xlink:href="#path-18"></use>
                                        </mask>
                                        <use id="Mask" fill="#FFFFFF" transform="translate(5.000000, 3.213038) rotate(-270.000000) translate(-5.000000, -3.213038) " xlink:href="#path-18"></use>
                                        <g id="color/grey3-b3" mask="url(#mask-19)" fill="#B3B3B3">
                                            <g transform="translate(-10.000000, -12.000000)" id="Rectangle-3">
                                                <rect x="0" y="0" width="30" height="30"></rect>
                                            </g>
                                        </g>
                                    </g>
                                </g>
                                <g id="icon/icons/chevron-kecil-kanan" transform="translate(133.000000, 466.000000) rotate(-270.000000) translate(-133.000000, -466.000000) translate(123.000000, 456.000000)">
                                    <g id="color/grey-b3" transform="translate(10.000000, 10.500000) rotate(-90.000000) translate(-10.000000, -10.500000) translate(5.000000, 7.000000)">
                                        <mask id="mask-21" fill="white">
                                            <use xlink:href="#path-20"></use>
                                        </mask>
                                        <use id="Mask" fill="#FFFFFF" transform="translate(5.000000, 3.213038) rotate(-270.000000) translate(-5.000000, -3.213038) " xlink:href="#path-20"></use>
                                        <g id="color/grey3-b3" mask="url(#mask-21)" fill="#B3B3B3">
                                            <g transform="translate(-10.000000, -12.000000)" id="Rectangle-3">
                                                <rect x="0" y="0" width="30" height="30"></rect>
                                            </g>
                                        </g>
                                    </g>
                                </g>
                                <g id="icon/icons/chevron-kecil-kanan" transform="translate(243.000000, 174.000000)">
                                    <g id="color/grey-b3" transform="translate(10.000000, 10.500000) rotate(-90.000000) translate(-10.000000, -10.500000) translate(5.000000, 7.000000)">
                                        <mask id="mask-23" fill="white">
                                            <use xlink:href="#path-22"></use>
                                        </mask>
                                        <use id="Mask" fill="#FFFFFF" transform="translate(5.000000, 3.213038) rotate(-270.000000) translate(-5.000000, -3.213038) " xlink:href="#path-22"></use>
                                        <g id="color/grey3-b3" mask="url(#mask-23)" fill="#B3B3B3">
                                            <g transform="translate(-10.000000, -12.000000)" id="Rectangle-3">
                                                <rect x="0" y="0" width="30" height="30"></rect>
                                            </g>
                                        </g>
                                    </g>
                                </g>
                                <g id="Stacked-Group" transform="translate(44.000000, 146.000000)" fill="#484848" font-family="Roboto-Regular, Roboto" font-size="13" font-weight="normal">
                                    <g id="font/13px/grey-1/regular" transform="translate(0.000000, 30.000000)">
                                        <text id="Type-something">
                                            <tspan x="0" y="12">Anime &amp; Manga Haven</tspan>
                                        </text>
                                    </g>
                                    <g id="font/13px/grey-1/regular">
                                        <text id="Type-something">
                                            <tspan x="0" y="12">All About Design</tspan>
                                        </text>
                                    </g>
                                </g>
                                <text id="Berita-dan-Politik-B" font-family="Roboto-Regular, Roboto" font-size="13" font-weight="normal" line-spacing="31" fill="#484848">
                                    <tspan x="44" y="213">Berita dan Politik</tspan>
                                    <tspan x="44" y="244">Bisnis</tspan>
                                    <tspan x="44" y="275">Buku</tspan>
                                    <tspan x="44" y="306">Can You Solve This Game?</tspan>
                                    <tspan x="44" y="337">Computer Stuff</tspan>
                                    <tspan x="44" y="368">Cooking &amp; Resto Guide</tspan>
                                    <tspan x="44" y="399">Deals</tspan>
                                    <tspan x="44" y="430">Debate Club</tspan>
                                </text>
                            </g>
                        </g>
                        <path d="M0,122.5 L266,122.5" id="Line-3" stroke="#F2F2F2" stroke-linecap="square"></path>
                        <g id="search-bar" transform="translate(10.000000, 54.000000)">
                            <rect id="Rectangle-4" fill="#F2F2F2" x="0" y="0" width="245" height="30" rx="3"></rect>
                            <path d="M232.007318,12.195472 L231.371755,12.195472 L231.150829,12.4147847 C231.931275,13.3248528 232.405946,14.5046595 232.405946,15.7973243 C232.405946,18.6708021 230.076615,21 227.202973,21 C224.329331,21 222,18.6708021 222,15.7973243 C222,12.9238465 224.329331,10.5946487 227.202973,10.5946487 C228.495712,10.5946487 229.674786,11.0684924 230.584906,11.8480933 L230.805832,11.6287805 L230.805832,10.9948545 L234.806518,7 L236,8.19341376 L232.007318,12.195472 L232.007318,12.195472 Z M227.202973,12.195472 C225.213036,12.195472 223.600915,13.807501 223.600915,15.7973243 C223.600915,17.7863473 225.213036,19.3991767 227.202973,19.3991767 C229.19211,19.3991767 230.805031,17.7863473 230.805031,15.7973243 C230.805031,13.807501 229.19211,12.195472 227.202973,12.195472 L227.202973,12.195472 Z" id="Shape" fill="#B3B3B3" transform="translate(229.000000, 14.000000) scale(1, -1) translate(-229.000000, -14.000000) "></path>
                            <text id="Cari-Kategori" font-family="Roboto-Regular, Roboto" font-size="12" font-weight="normal" fill="#9E9E9E">
                                <tspan x="10.225" y="19">Cari Kategori</tspan>
                            </text>
                        </g>
                        <g id="icon/icons/subscribed" transform="translate(12.000000, 98.000000)">
                            <g id="color/grey-b3" transform="translate(3.000000, 2.000000)">
                                <mask id="mask-25" fill="white">
                                    <use xlink:href="#path-24"></use>
                                </mask>
                                <use id="Mask" fill="#F8C31C" fill-rule="nonzero" xlink:href="#path-24"></use>
                                <g id="color/orange1" mask="url(#mask-25)" fill="#F8C31C">
                                    <g transform="translate(-3.000000, -2.000000)" id="Rectangle-3">
                                        <rect x="0" y="0" width="20" height="20"></rect>
                                    </g>
                                </g>
                            </g>
                        </g>
                        <rect id="Rectangle" fill="#EBEBEB" fill-rule="nonzero" x="133" y="0" width="133" height="42"></rect>
                        <text id="Jual-Beli" font-family="Roboto-Medium, Roboto" font-size="13" font-weight="400" fill="#40C1B9">
                            <tspan x="174" y="27">Jual Beli</tspan>
                        </text>
                        <text id="Forum" font-family="Roboto-Medium, Roboto" font-size="13" font-weight="400" fill="#1998ED">
                            <tspan x="47" y="27">Forum</tspan>
                        </text>
                        <text id="Subscribed-Forum" font-family="Roboto-Medium, Roboto" font-size="13" font-weight="400" fill="#484848">
                            <tspan x="44" y="113">Subscribed Forum</tspan>
                        </text>
                    </g>
                    <g id="Group-49" transform="translate(339.000000, 37.000000)">
                        <g id="Header" transform="translate(14.000000, 12.000000)">
                            <mask id="mask-27" fill="white">
                                <use xlink:href="#path-26"></use>
                            </mask>
                            <g id="Mask" fill-rule="nonzero">
                                <use fill="black" fill-opacity="1" filter="url(#filter-28)" xlink:href="#path-26"></use>
                                <path stroke="#FFFFFF" stroke-width="6" d="M76.5,156 C32.5933624,156 -3,120.406638 -3,76.5 C-3,32.5933624 32.5933624,-3 76.5,-3 C120.406638,-3 156,32.5933624 156,76.5 C156,120.406638 120.406638,156 76.5,156 Z"></path>
                            </g>
                            <g mask="url(#mask-27)">
                                <g transform="translate(-159.000000, -64.000000)">
                                    <g id="Top-Header" transform="translate(6.000000, 0.000000)">
                                        <rect id="Mask" fill="#FFFFFF" x="0" y="0" width="2097" height="112"></rect>
                                        <text id="Jual-Beli" font-family="Roboto-Medium, Roboto" font-size="22.5" font-weight="400" fill="#6E6E6E">
                                            <tspan x="543.18125" y="83.0133333">JUAL </tspan>
                                            <tspan x="543.18125" y="109.013333">BELI</tspan>
                                        </text>
                                        <text id="Forum" font-family="Roboto-Medium, Roboto" font-size="22.5" font-weight="400" fill="#6E6E6E">
                                            <tspan x="425.225" y="83.0133333">FORU</tspan>
                                            <tspan x="425.225" y="109.013333">M</tspan>
                                        </text>
                                        <g id="Logo-KASKUS" transform="translate(161.643750, 60.900000)">
                                            <g id="Page-1">
                                                <g id="Group-3" transform="translate(65.351351, 0.099021)">
                                                    <mask id="mask-30" fill="white">
                                                        <use xlink:href="#path-29"></use>
                                                    </mask>
                                                    <g id="Clip-2"></g>
                                                    <path d="M29.8718514,15.7934824 C29.4646622,13.4637176 28.0721757,11.2327765 24.0782027,10.9363059 C23.9801757,10.9264235 10.5429324,10.9363059 10.5177973,10.9363059 C10.0879865,10.9363059 9.69336486,10.7954824 9.37917568,10.5558353 C9.02728378,10.3137176 8.77593243,9.96042353 8.68795946,9.48854118 C8.66031081,9.36007059 8.64522973,9.2316 8.64522973,9.09571765 C8.64522973,8.08030588 9.48222973,7.25512941 10.5177973,7.25512941 L18.9129324,7.25512941 C21.4113649,7.25512941 22.0322027,7.68007059 22.1779865,8.66336471 C22.2433378,9.1476 22.6605811,9.51818824 23.1657973,9.51818824 C23.1758514,9.51818824 23.1833919,9.51571765 23.1934459,9.51571765 L23.2135541,9.51571765 L29.0323378,9.51571765 L29.0323378,8.82395294 C29.0323378,4.99454118 28.2958784,2.37077647 20.4461757,2.37077647 C20.4461757,2.37077647 8.89155405,2.37324706 8.32601351,2.37324706 C8.05958108,2.37324706 7.10695946,2.41030588 6.7047973,2.49183529 C4.51552703,2.94642353 2.3162027,4.68818824 2.02966216,7.52195294 C2.00955405,7.72701176 1.92158108,8.44595294 1.92158108,9.35512941 C1.90398649,10.0147765 2.04725676,11.0623059 2.07741892,11.2574824 C2.11512162,11.4724235 2.16287838,11.6848941 2.21817568,11.8973647 C2.30112162,12.2556 2.41674324,12.5940706 2.56755405,12.9103059 C3.32160811,14.6421882 5.42541892,15.8997176 7.87609459,16.1171294 C7.97412162,16.1171294 21.2605541,16.0998353 21.4339865,16.1171294 C22.464527,16.2036 23.2990135,16.7990118 23.2990135,17.9503059 C23.2990135,18.7384235 22.8666892,19.1658353 22.4620135,19.4474824 C21.989473,19.7884235 21.3083108,19.7933647 21.3083108,19.7933647 L11.7066892,19.7933647 C10.0176081,19.7933647 9.08006757,19.6599529 8.82871622,18.1430118 L8.82871622,18.1405412 C8.76336486,17.6637176 8.34863514,17.2906588 7.84341892,17.2906588 C7.83085135,17.2906588 7.82582432,17.2931294 7.81577027,17.2931294 L7.78812162,17.2931294 C7.78309459,17.2931294 7.77806757,17.2906588 7.77555405,17.2906588 L1.95425676,17.2906588 L1.95425676,18.8001882 C1.95425676,23.5338353 4.44012162,24.6777176 10.6334189,24.6777176 L23.6257703,24.6777176 C23.8896892,24.6777176 24.8423108,24.6381882 25.2469865,24.5566588 C27.4337432,24.1020706 29.6355811,22.3627765 29.9246351,19.5265412 C29.9397162,19.3239529 30.0302027,18.6025412 30.0276892,17.6958353 C30.0477973,17.0337176 29.9070405,15.9861882 29.8718514,15.7934824" id="Fill-1" fill="#0D80C2" mask="url(#mask-30)"></path>
                                                </g>
                                                <g id="Group-6" transform="translate(155.837838, 0.099021)">
                                                    <mask id="mask-32" fill="white">
                                                        <use xlink:href="#path-31"></use>
                                                    </mask>
                                                    <g id="Clip-5"></g>
                                                    <path d="M29.2040108,15.7934824 C28.7968216,13.4637176 27.4018216,11.2327765 23.4103622,10.9363059 C23.3123351,10.9264235 9.87509189,10.9363059 9.84995676,10.9363059 C9.42014595,10.9363059 9.02552432,10.7954824 8.70882162,10.5558353 C8.35944324,10.3137176 8.10557838,9.96042353 8.02011892,9.48854118 C7.99247027,9.36007059 7.97738919,9.2316 7.97738919,9.09571765 C7.97738919,8.08030588 8.81438919,7.25512941 9.84995676,7.25512941 L18.2450919,7.25512941 C20.7435243,7.25512941 21.3643622,7.68007059 21.5101459,8.66336471 C21.5754973,9.1476 21.990227,9.51818824 22.4979568,9.51818824 C22.5080108,9.51818824 22.5155514,9.51571765 22.5256054,9.51571765 L22.5457135,9.51571765 L28.3644973,9.51571765 L28.3644973,8.82395294 C28.3644973,4.99454118 27.6280378,2.37077647 19.7783351,2.37077647 C19.7783351,2.37077647 8.22371351,2.37324706 7.65817297,2.37324706 C7.38922703,2.37324706 6.43911892,2.41030588 6.03444324,2.49183529 C3.84768649,2.94642353 1.64836216,4.68818824 1.36182162,7.52195294 C1.3392,7.72701176 1.25374054,8.44595294 1.25625405,9.35512941 C1.23363243,10.0147765 1.3769027,11.0623059 1.40957838,11.2574824 C1.44728108,11.4724235 1.49503784,11.6848941 1.54782162,11.8973647 C1.63579459,12.2556 1.74638919,12.5940706 1.89971351,12.9103059 C2.65376757,14.6421882 4.75506486,15.8997176 7.20574054,16.1171294 C7.30628108,16.1171294 20.5927135,16.0998353 20.7661459,16.1171294 C21.7966865,16.2036 22.631173,16.7990118 22.631173,17.9503059 C22.631173,18.7384235 22.1988486,19.1658353 21.794173,19.4474824 C21.3216324,19.7884235 20.6404703,19.7933647 20.6404703,19.7933647 L11.0388486,19.7933647 C9.35228108,19.7933647 8.41222703,19.6599529 8.16087568,18.1430118 L8.15836216,18.1405412 C8.09552432,17.6637176 7.68079459,17.2906588 7.17306486,17.2906588 C7.16301081,17.2906588 7.15798378,17.2931294 7.14792973,17.2931294 L7.12279459,17.2931294 C7.12279459,17.2931294 7.11022703,17.2906588 7.1052,17.2906588 L1.28641622,17.2906588 L1.28641622,18.8001882 C1.28641622,23.5338353 3.76976757,24.6777176 9.96557838,24.6777176 L22.9579297,24.6777176 C23.2218486,24.6777176 24.1769838,24.6381882 24.5791459,24.5566588 C26.7633892,24.1020706 28.9677405,22.3627765 29.2542811,19.5265412 C29.2718757,19.3239529 29.3623622,18.6025412 29.3598486,17.6958353 C29.3799568,17.0337176 29.2392,15.9861882 29.2040108,15.7934824" id="Fill-4" fill="#FAA61C" mask="url(#mask-32)"></path>
                                                </g>
                                                <g id="Group-9" transform="translate(0.000000, 2.569609)">
                                                    <mask id="mask-34" fill="white">
                                                        <use xlink:href="#path-33"></use>
                                                    </mask>
                                                    <g id="Clip-8"></g>
                                                    <path d="M23.1559946,11.7088588 C22.9699946,11.5334471 22.8518595,11.2789765 22.8518595,11.0022706 C22.8518595,10.7280353 22.9649676,10.4785059 23.1534811,10.3006235 L34.0445351,0.131682353 L25.3930216,0.131682353 C25.1064811,0.131682353 24.8551297,0.245329412 24.6741568,0.433094118 L24.6741568,0.435564706 L17.2165622,7.86215294 C16.7942919,8.22532941 16.2463459,8.44768235 15.6481297,8.46744706 L13.3834541,8.46744706 C13.1069676,8.46744706 12.8782378,8.24015294 12.8782378,7.96591765 L12.8782378,7.95850588 L12.8732108,1.07791765 C12.8531027,0.576388235 12.448427,0.173682353 11.9406973,0.141564706 L6.27021081,0.141564706 L6.27021081,8.46744706 L-0.00100540541,8.46744706 L-0.00100540541,11.1900353 C0.00150810811,11.1949765 0.00150810811,11.1974471 0.00150810811,11.1974471 C0.00150810811,12.5513294 1.11248108,13.6458 2.48485946,13.6458 L6.27021081,13.6458 L6.27021081,21.9667412 L11.8627784,21.9642706 L11.8828865,21.9642706 C12.4232919,21.9642706 12.8681838,21.5343882 12.8757243,21.0007412 L12.8732108,14.1275647 L12.8782378,14.1275647 C12.8908054,13.8632118 13.1094811,13.6507412 13.3809405,13.6507412 C13.3809405,13.6507412 15.5702108,13.6458 15.5802649,13.6458 C16.2362919,13.6458 16.8319946,13.8978 17.2768865,14.3079176 L24.6892378,21.6850941 C24.8727243,21.8580353 25.1165351,21.9667412 25.3930216,21.9667412 L34.0194,21.9667412 L23.1610216,11.7113294 L23.1559946,11.7088588 Z" id="Fill-7" fill="#0D80C2" mask="url(#mask-34)"></path>
                                                </g>
                                                <path d="M97.365973,24.5370918 L102.958541,24.5346212 L102.976135,24.5346212 C103.521568,24.5346212 103.963946,24.1022682 103.971486,23.5686212 L103.971486,16.6979153 L103.974,16.6954447 C103.986568,16.4335624 104.205243,16.2210918 104.476703,16.2210918 L106.676027,16.2210918 C107.334568,16.2210918 107.927757,16.4681506 108.372649,16.8757976 L115.787514,24.2554447 C115.968486,24.4283859 116.214811,24.5370918 116.48627,24.5370918 L125.117676,24.5370918 L114.256784,14.28168 L114.25427,14.2792094 C114.065757,14.1013271 113.947622,13.8493271 113.947622,13.5701506 C113.947622,13.2959153 114.06073,13.0463859 114.249243,12.8685035 L125.140297,2.70203294 L116.48627,2.70203294 C116.204757,2.70203294 115.950892,2.81815059 115.769919,3.00097412 L115.767405,3.00097412 L108.312324,10.4325035 L108.309811,10.4325035 C107.890054,10.79568 107.342108,11.0180329 106.743892,11.0328565 L104.48173,11.0328565 C104.20273,11.0328565 103.974,10.8080329 103.974,10.5362682 L103.974,10.5288565 L103.971486,10.5288565 L103.971486,3.64826824 C103.948865,3.14673882 103.544189,2.74403294 103.036459,2.71191529 L97.365973,2.71191529 L97.365973,24.5370918 Z" id="Fill-10" fill="#FAA61C"></path>
                                                <path d="M59.4154378,24.0086329 C59.5788162,24.3174565 59.9005459,24.5274565 60.277573,24.5348682 L66.9358703,24.5348682 L55.9141135,3.24086824 C55.7507351,2.91969176 55.4139243,2.70228 55.0268432,2.70228 L51.0630324,2.70228 L50.8544108,2.70228 L46.8629514,2.70228 C46.4884378,2.70228 46.1667081,2.90239765 45.9932757,3.19886824 L34.9589514,24.5348682 L41.594627,24.5348682 C41.9817081,24.5348682 42.3185189,24.3174565 42.4844108,23.9987506 L44.0327351,20.9994565 L44.0352486,20.9994565 C44.1156811,20.8314565 44.2891135,20.7128682 44.4927081,20.7128682 L57.3996,20.7128682 C57.6031946,20.7128682 57.776627,20.8289859 57.859573,20.9969859 L59.4154378,24.0086329 Z M46.5713838,16.10028 L50.9474108,7.63851529 L55.3259514,16.10028 L46.5713838,16.10028 Z" id="Fill-12" fill="#0D80C2"></path>
                                                <g id="Group-16" transform="translate(125.675676, 2.569609)">
                                                    <mask id="mask-36" fill="white">
                                                        <use xlink:href="#path-35"></use>
                                                    </mask>
                                                    <g id="Clip-15"></g>
                                                    <path d="M23.5732378,0.171211765 C23.0227784,0.171211765 22.5778865,0.610976471 22.5778865,1.14709412 L22.5778865,14.2115647 C22.5653189,15.5382706 21.469427,16.6129765 20.1171568,16.6278 L11.0584541,16.6278 C9.70115676,16.6154471 8.60777838,15.5382706 8.59521081,14.2115647 L8.59521081,12.8650941 C8.5926973,12.8305059 8.5926973,12.8033294 8.5926973,12.7736824 L8.5926973,1.11497647 C8.57258919,0.591211765 8.13523784,0.171211765 7.60237297,0.171211765 L1.60261622,0.171211765 L1.60261622,15.9953294 L1.60512973,15.9953294 C1.66796757,19.3726235 4.41021081,22.1100353 7.8311027,22.2310941 L7.8311027,22.2360353 L23.1132649,22.2360353 C26.6397243,22.2310941 29.5026162,19.4467412 29.5679676,15.9953294 L29.5704811,15.9953294 L29.5704811,0.171211765 L23.5732378,0.171211765 Z" id="Fill-14" fill="#FAA61C" mask="url(#mask-36)"></path>
                                                </g>
                                            </g>
                                        </g>
                                    </g>
                                    <g id="Bar-channel" transform="translate(0.000000, 106.000000)">
                                        <rect id="bottom-header" fill="#1998ED" x="0" y="0" width="2109" height="76"></rect>
                                        <g id="Group-10" transform="translate(142.000000, 74.000000)">
                                            <g id="skyscrapper-kiri" transform="translate(0.000000, 31.500000)" fill="#DBDBDB">
                                                <rect id="Rectangle-2" x="0" y="0" width="180" height="900"></rect>
                                            </g>
                                            <g id="dropdown-kategori" transform="translate(1.500000, 0.000000)">
                                                <g id="Group-46">
                                                    <g id="Rectangle-19">
                                                        <use fill="black" fill-opacity="1" filter="url(#filter-38)" xlink:href="#path-37"></use>
                                                        <use fill="#FFFFFF" fill-rule="evenodd" xlink:href="#path-37"></use>
                                                    </g>
                                                    <text id="All-About-Design-Ani" font-family="Roboto-Regular, Roboto" font-size="19.5" font-weight="normal" line-spacing="45" fill="#484848">
                                                        <tspan x="66" y="214.5">All About Design</tspan>
                                                        <tspan x="66" y="259.5">Anime &amp; Manga Haven</tspan>
                                                        <tspan x="66" y="304.5">Berita dan Politik</tspan>
                                                    </text>
                                                    <path d="M399,0 L399,943.591654" id="Line-2" stroke="#F2F2F2" stroke-width="1.5" stroke-linecap="square"></path>
                                                </g>
                                            </g>
                                            <g id="search-bar" transform="translate(16.500000, 81.000000)">
                                                <g>
                                                    <rect id="Rectangle-4" fill="#F2F2F2" x="0" y="0" width="368" height="45" rx="4.5"></rect>
                                                    <text id="Cari-Kategori" font-family="Roboto-Medium, Roboto" font-size="18" font-weight="400" fill="#9E9E9E">
                                                        <tspan x="141.430176" y="29">Cari forum</tspan>
                                                    </text>
                                                </g>
                                            </g>
                                            <g id="icon/icons/subscribed" transform="translate(19.500000, 148.500000)">
                                                <g id="color/grey-b3" transform="translate(4.500000, 3.000000)">
                                                    <mask id="mask-40" fill="white">
                                                        <use xlink:href="#path-39"></use>
                                                    </mask>
                                                    <use id="Mask" fill="#F8C31C" fill-rule="nonzero" xlink:href="#path-39"></use>
                                                    <g id="color/orange1" mask="url(#mask-40)" fill="#F8C31C">
                                                        <g transform="translate(-4.500000, -3.000000)" id="Rectangle-3">
                                                            <rect x="0" y="0" width="45" height="45"></rect>
                                                        </g>
                                                    </g>
                                                </g>
                                            </g>
                                            <rect id="Rectangle" fill="#EBEBEB" fill-rule="nonzero" x="201" y="0" width="199.5" height="63"></rect>
                                            <text id="Jual-Beli" font-family="Roboto-Medium, Roboto" font-size="19.5" font-weight="400" fill="#484848">
                                                <tspan x="262.5" y="40.5">Jual Beli</tspan>
                                            </text>
                                            <text id="Forum" font-family="Roboto-Medium, Roboto" font-size="19.5" font-weight="400" fill="#1998ED">
                                                <tspan x="72" y="40.5">Forum</tspan>
                                            </text>
                                            <text id="Subscribed-Forum" font-family="Roboto-Medium, Roboto" font-size="19.5" font-weight="400" fill="#484848">
                                                <tspan x="67.5" y="169.5">Subscribed Forum</tspan>
                                            </text>
                                        </g>
                                        <g id="kategori" transform="translate(193.856250, 24.850000)" fill="#FFFFFF">
                                            <text id="Kategori" font-family="Roboto-Bold, Roboto" font-size="18" font-weight="bold">
                                                <tspan x="0" y="17">Kategori</tspan>
                                            </text>
                                            <g id="white-arrow" transform="translate(80.093750, 7.250000)">
                                                <g id="expand-more">
                                                    <polygon id="Shape" points="11.8268519 0 6.74768519 4.66216216 1.66851852 0 0.122685185 1.41891892 6.74768519 7.5 13.3726852 1.41891892"></polygon>
                                                </g>
                                            </g>
                                        </g>
                                        <g id="Stacked-Group" transform="translate(383.168750, 14.850000)" fill="#FFFFFF" font-family="Roboto-Medium, Roboto" font-size="18" font-weight="400">
                                            <text id="Story">
                                                <tspan x="0" y="17">STOR</tspan>
                                                <tspan x="0" y="38">Y</tspan>
                                            </text>
                                            <text id="Hobby">
                                                <tspan x="104" y="17">HOBB</tspan>
                                                <tspan x="104" y="38">Y</tspan>
                                            </text>
                                            <text id="Game">
                                                <tspan x="211" y="17">GAM</tspan>
                                                <tspan x="211" y="38">E</tspan>
                                            </text>
                                        </g>
                                    </g>
                                </g>
                            </g>
                        </g>
                    </g>
                </g>
            </g>
        </g>
    </g>
</svg>