<?xml version="1.0" encoding="UTF-8"?>
<svg width="24px" height="25px" viewBox="0 0 24 25" version="1.1" xmlns="http://www.w3.org/2000/svg" xmlns:xlink="http://www.w3.org/1999/xlink">
    <!-- Generator: Sketch 50.2 (55047) - http://www.bohemiancoding.com/sketch -->
    <title>tech white</title>
    <desc>Created with Sketch.</desc>
    <defs></defs>
    <g id="00-CHANNEL" stroke="none" stroke-width="1" fill="none" fill-rule="evenodd">
        <g id="0-menu-copy" transform="translate(-19.000000, -483.000000)" fill="#FFFFFF">
            <path d="M36.3773319,498.581533 C36.3797225,498.344643 36.574614,498.125542 36.8228958,498.125542 C37.0594522,498.125542 37.2756314,498.341429 37.2756314,498.581533 C37.2756314,498.833344 37.0722021,499.037525 36.8228958,499.037525 C36.5817858,499.037525 36.3748275,498.825654 36.3773319,498.581533 Z M33.9771612,486.312804 C33.9771612,486.564615 33.7735041,486.768681 33.5243116,486.768681 C33.2750053,486.768681 33.0714621,486.564615 33.0714621,486.312804 C33.0714621,486.060993 33.2750053,485.856813 33.5243116,485.856813 C33.7735041,485.856813 33.9771612,486.060993 33.9771612,486.312804 Z M38.9575952,494.423438 C38.9575952,494.675249 38.7540519,494.879314 38.5047456,494.879314 C38.2555532,494.879314 38.05201,494.675249 38.05201,494.423438 C38.05201,494.394285 38.06328,494.369035 38.0688581,494.34126 C38.1084739,494.130079 38.2844682,493.967446 38.5047456,493.967446 C38.7402775,493.967446 38.9575952,494.181268 38.9575952,494.423438 Z M41.7493703,496.339107 C41.7493703,496.812544 41.3678975,497.197605 40.8979723,497.197605 L39.988175,497.197605 C39.5182497,497.197605 39.1366631,496.812544 39.1366631,496.339107 L39.1366631,495.268623 C39.3950765,495.072247 39.5731199,494.77533 39.5731199,494.423438 C39.5731199,493.828342 39.0948844,493.346871 38.5047456,493.346871 C37.9146069,493.346871 37.4364852,493.828342 37.4364852,494.423438 C37.4364852,494.780954 37.6205621,495.081888 37.8861473,495.277919 L37.8861473,496.339107 C37.8861473,497.507491 38.8292992,498.458497 39.988175,498.458497 L40.621117,498.458497 L40.621117,499.971888 C40.621117,500.601416 40.1896692,501.494346 39.6983422,501.882048 L37.8770402,503.318656 L37.8770402,503.037004 C37.8770402,501.868849 37.0120953,500.917729 35.9498684,500.917729 C35.5827392,500.917729 35.2723017,500.645374 35.2723017,500.322863 C35.2723017,499.457018 34.8317467,498.430722 34.2455923,497.935823 C33.7969548,497.556729 32.9636571,496.896557 32.3938954,496.468341 C32.0306368,496.195985 31.6258271,495.390167 31.6258271,494.719321 L31.6258271,486.274355 C31.6258271,484.576984 33.101174,484.277542 33.8671932,484.277542 C33.8671932,484.277542 36.1941658,484.084724 36.9195446,485.247026 L37.9960014,487.037019 C37.2624262,487.213425 36.549228,487.56899 36.1422554,488.011553 C35.9366631,488.236163 35.4117538,488.249591 35.0088794,487.941312 C34.6394735,487.658742 34.4236357,487.348397 34.2899893,487.059515 C34.4755461,486.865779 34.592572,486.603638 34.592572,486.312804 C34.592572,485.717823 34.1144504,485.236238 33.5243116,485.236238 C32.9340591,485.236238 32.4560512,485.717823 32.4560512,486.312804 C32.4560512,486.724034 32.6924938,487.068811 33.0282035,487.250381 C33.2094344,487.766514 33.5542512,488.371595 34.2437709,488.938342 C35.1236286,489.662557 36.3783565,489.608269 37.058883,488.868101 C37.361238,488.540425 38.2137745,488.173153 38.902725,488.173153 C39.5577517,488.173153 40.621117,488.05861 40.621117,489.031652 L40.621117,491.114085 L35.1695055,491.114085 C34.0106297,491.114085 33.0673639,492.065091 33.0673639,493.233361 C33.0673639,494.287432 33.0338954,495.983197 34.2618712,496.429433 C34.9537816,496.68067 35.4428317,497.475699 35.8568623,498.135297 C35.7941373,498.271762 35.7545215,498.420966 35.7545215,498.581533 C35.7545215,499.176629 36.232757,499.6581 36.8228958,499.6581 C37.4130345,499.6581 37.8911562,499.176629 37.8911562,498.581533 C37.8911562,498.032691 37.4781501,497.597817 36.9516471,497.531135 L36.4464319,496.775702 C36.0649591,496.204708 35.3179509,495.473836 34.6974173,495.248652 C34.5680968,495.172214 34.3178798,494.685119 34.3178798,494.063396 L34.3178798,493.233361 C34.3178798,492.759924 34.6994664,492.374862 35.1695055,492.374862 L40.8979723,492.374862 C41.3678975,492.374862 41.7493703,492.759924 41.7493703,493.233361 L41.7493703,496.339107 Z M36.6265244,504.260939 C36.6265244,504.826653 36.2519957,505.372856 35.8145144,505.694563 C35.3322946,506.048522 34.70254,506.20599 34.1408609,506.377231 C33.5558449,506.556161 32.9646816,506.739338 32.3460832,506.739338 C31.9553895,506.739338 31.6258271,506.346357 31.6258271,505.880724 L31.6258271,502.6252 C31.8977873,502.430317 32.0866453,502.12571 32.0866453,501.763603 C32.0866453,501.168736 31.6084098,500.687036 31.0182711,500.687036 C30.4281323,500.687036 29.9498968,501.168736 29.9498968,501.763603 C29.9498968,502.110331 30.1229313,502.404837 30.3751974,502.601098 L30.3751974,505.880724 C30.3751974,506.346357 30.0444966,506.739338 29.6538029,506.739338 C28.9966133,506.739338 27.8814514,506.484428 27.2190253,506.182806 C26.3725222,505.797055 25.373248,505.374004 25.373248,504.260939 L25.373248,503.037004 C25.373248,502.571487 25.6836855,502.17862 26.0510423,502.17862 C27.1132693,502.17862 27.9781003,501.34606 27.9781003,500.322863 C27.9781003,499.889022 28.3728922,499.091353 28.8998506,498.673351 L30.2257275,497.623297 C30.5096407,497.398228 30.7701032,497.085932 30.9887869,496.733121 C31.179011,497.03371 31.4019068,497.295162 31.6470011,497.479257 C32.1995731,497.894849 33.007371,498.534362 33.4428033,498.901519 C33.7166987,499.132901 34.0217858,499.789859 34.0217858,500.322863 C34.0217858,501.34606 34.8866169,502.17862 35.9498684,502.17862 C36.317339,502.17862 36.6265244,502.571487 36.6265244,503.037004 L36.6265244,504.260939 Z M31.0182711,502.219594 C30.7689648,502.219594 30.5654216,502.015529 30.5654216,501.763603 C30.5654216,501.741566 30.5750978,501.723088 30.5777161,501.702085 C30.6092494,501.480574 30.7909356,501.307611 31.0182711,501.307611 C31.2646176,501.307611 31.4649733,501.50766 31.4695269,501.755339 C31.4695269,501.758438 31.4710068,501.760504 31.4710068,501.763603 C31.4710068,502.015529 31.2675774,502.219594 31.0182711,502.219594 Z M27.9923301,486.312804 C27.9923301,486.060993 28.1958734,485.856813 28.4450658,485.856813 C28.6943721,485.856813 28.8979153,486.060993 28.8979153,486.312804 C28.8979153,486.564615 28.6943721,486.768681 28.4450658,486.768681 C28.1958734,486.768681 27.9923301,486.564615 27.9923301,486.312804 Z M25.783408,498.581533 C25.783408,498.833344 25.5798648,499.037525 25.3305585,499.037525 C25.0812522,499.037525 24.8778228,498.833344 24.8778228,498.581533 C24.8778228,498.329722 25.0812522,498.125542 25.3305585,498.125542 C25.5798648,498.125542 25.783408,498.329722 25.783408,498.581533 Z M23.042291,494.423438 C23.042291,494.390498 23.0545856,494.361805 23.0611882,494.331046 C23.1049022,494.124914 23.2785059,493.967446 23.4951405,493.967446 C23.7149626,493.967446 23.890957,494.12962 23.9311419,494.339768 C23.9362647,494.368002 23.9478762,494.393597 23.9478762,494.423438 C23.9478762,494.675249 23.7444468,494.879314 23.4951405,494.879314 C23.2458342,494.879314 23.042291,494.675249 23.042291,494.423438 Z M24.1229598,503.037004 L24.1229598,503.318656 L22.3026823,501.882048 C21.8112416,501.494346 21.3797937,500.601416 21.3797937,499.971888 L21.3797937,498.458497 L22.0126218,498.458497 C23.1716115,498.458497 24.1148773,497.507491 24.1148773,496.339107 L24.1148773,495.276886 C24.3798933,495.081429 24.5636286,494.78038 24.5636286,494.423438 C24.5636286,493.828342 24.0852793,493.346871 23.4951405,493.346871 C22.9050018,493.346871 22.4267663,493.828342 22.4267663,494.423438 C22.4267663,494.775789 22.6053789,495.07328 22.8643614,495.269312 L22.8643614,496.339107 C22.8643614,496.812544 22.4817503,497.197605 22.0126218,497.197605 L21.1020277,497.197605 C20.6330132,497.197605 20.2505158,496.812544 20.2505158,496.339107 L20.2505158,493.233361 C20.2505158,492.759924 20.6330132,492.374862 21.1020277,492.374862 L26.8314052,492.374862 C27.3004198,492.374862 27.6830309,492.759924 27.6830309,493.233361 L27.6830309,494.063396 C27.6830309,494.685119 27.4317894,495.172214 27.3147634,495.243488 C26.6665671,495.479001 25.8800569,496.334516 25.4385912,497.057812 L25.1419281,497.543415 C24.6454785,497.636266 24.262412,498.054268 24.262412,498.581533 C24.262412,499.176629 24.7405336,499.6581 25.3305585,499.6581 C25.9208111,499.6581 26.3990466,499.176629 26.3990466,498.581533 C26.3990466,498.384469 26.3323372,498.20967 26.2408111,498.050595 C26.6227392,497.361271 27.0771825,496.668848 27.7380149,496.429433 C28.9640555,495.984689 28.9335468,494.290531 28.9335468,493.233361 C28.9335468,492.065091 27.9903949,491.114085 26.8314052,491.114085 L21.3797937,491.114085 L21.3797937,489.031652 C21.3797937,488.065496 22.4400854,488.173153 23.097275,488.173153 C23.7871363,488.173153 24.6397866,488.540425 24.9410032,488.868101 C25.6115119,489.597481 26.8516684,489.607236 27.7399502,488.934784 C28.3397652,488.481317 28.6679616,487.860742 28.8571612,487.305817 C29.2422768,487.143184 29.5134401,486.760532 29.5134401,486.312804 C29.5134401,485.717823 29.0352046,485.236238 28.4450658,485.236238 C27.8549271,485.236238 27.3768054,485.717823 27.3768054,486.312804 C27.3768054,486.603638 27.4937175,486.865205 27.679502,487.058596 C27.5492707,487.357579 27.3355959,487.674007 26.9667592,487.944755 C26.5556884,488.246952 26.0632231,488.234097 25.8577446,488.011553 C25.4516827,487.56899 24.7384845,487.213425 24.0038847,487.036445 L25.0804554,485.247485 C25.8892778,484.035487 28.1337175,484.277542 28.1337175,484.277542 C28.8998506,484.277542 30.3751974,484.659161 30.3751974,486.274355 L30.3751974,494.719321 C30.3751974,495.349193 29.9437496,496.243157 29.4534472,496.632465 L28.1276841,497.682405 C27.3299039,498.314343 26.7275845,499.449443 26.7275845,500.322863 C26.7275845,500.645374 26.4182853,500.917729 26.0510423,500.917729 C24.9877908,500.917729 24.1229598,501.868849 24.1229598,503.037004 Z M41.8288296,491.343516 C41.8534187,491.276259 41.871519,491.206362 41.871519,491.131531 L41.871519,489.031652 C41.871519,487.863267 40.9283671,486.912376 39.7694913,486.912376 L39.3838065,486.912376 L37.9878051,484.592937 C36.6825329,482.804436 33.8671932,483.01688 33.8671932,483.01688 C33.0431163,483.01688 31.8638634,483.265707 31.3011597,483.727208 C31.190281,483.818452 31.0914692,483.937012 31.0000569,484.06682 C30.9084169,483.937012 30.8108573,483.817993 30.6998648,483.726749 C30.1361366,483.265707 28.9568837,483.01688 28.1337175,483.01688 C28.1337175,483.01688 25.3357951,482.722374 24.0119673,484.593626 L22.6160797,486.912376 L22.2315333,486.912376 C21.0726574,486.912376 20.1293917,487.863267 20.1293917,489.031652 L20.1293917,491.131531 C20.1293917,491.206362 20.1477197,491.276259 20.1710566,491.343516 C19.4801708,491.690588 19,492.403555 19,493.233361 L19,496.339107 C19,497.151582 19.4619566,497.850661 20.1293917,498.206112 L20.1293917,499.971888 C20.1293917,500.978903 20.7450302,502.253911 21.5325649,502.87506 L24.2429456,505.013847 C24.4902028,505.832979 25.1007186,506.601267 25.8373675,506.936747 C26.2184988,507.110398 26.603842,507.280146 26.9954465,507.431417 L28.4892351,507.879489 C28.8694557,507.955239 29.2569619,508 29.6538029,508 C30.1757524,508 30.6469299,507.776882 31.0000569,507.420513 C31.3529562,507.776882 31.8251583,508 32.3460832,508 C32.6048381,508 32.9086731,507.971422 33.2292423,507.921036 L34.8331128,507.516693 C34.9978371,507.458044 35.1541373,507.396181 35.2956386,507.331679 L36.1636571,506.936747 C36.8991676,506.601267 37.5107079,505.832979 37.7569406,505.013847 L40.4684596,502.87506 C41.2549698,502.253911 41.871519,500.978903 41.871519,499.971888 L41.871519,498.206112 C42.5389541,497.850661 43,497.151582 43,496.339107 L43,493.233361 C43,492.403555 42.5196016,491.690588 41.8288296,491.343516 Z" id="tech-white"></path>
        </g>
    </g>
</svg>