<?xml version="1.0" encoding="UTF-8"?>
<svg width="20px" height="10px" viewBox="0 0 20 10" version="1.1" xmlns="http://www.w3.org/2000/svg" xmlns:xlink="http://www.w3.org/1999/xlink">
    <!-- Generator: Sketch 48.2 (47327) - http://www.bohemiancoding.com/sketch -->
    <title>icons/chat</title>
    <desc>Created with Sketch.</desc>
    <defs>
        <path d="M13.1199643,4.21750744 L13.1282266,4.22993197 L13.7862609,3.88452998 L13.7679658,3.85657478 L13.1199643,4.21750744 Z M16.9141369,2.24324928 L13.7862609,3.88452998 L16.6497428,8.18466056 C16.5081031,8.88851031 16.0011512,8.54559322 16.0011512,8.54559322 L13.1282266,4.22993197 L11.9874371,4.8281732 C11.7673055,4.93999399 11.6911742,4.93999399 11.5147147,4.8281732 L7.77365704,2.24324928 C7.47739407,2.05626007 7.26257391,2.16994454 7.50926299,1.81957274 C7.67450927,1.5853703 7.58657464,1.43938205 7.83975555,1.43938205 C7.95188695,1.43938205 8.0581167,1.4685797 8.14664149,1.5244901 L11.947896,3.92739462 L16.6898741,1.5244901 C16.7996448,1.4685797 16.9170877,1.43938205 17.0298093,1.43938205 C17.2829902,1.43938205 17.3119083,1.5853703 17.3856789,1.81957274 C17.4954497,2.16994454 17.2841705,2.05626007 16.9141369,2.24324928 L16.9141369,2.24324928 Z M6.62401508,8.63070127 C6.62401508,8.63070127 5.99371856,8.98045185 6.10053848,8.26293511 L10.2842201,4.03983663 L10.8076967,4.40698156 L6.62401508,8.63070127 Z M18.4633207,0 L6.96926176,0 C6.60571995,0 6.25044046,0.309992077 6.17548947,0.692046441 L6.14952219,0.826852615 L1.80295492,0.826852615 C1.54092154,0.826852615 1.32846204,1.04925174 1.32846204,1.32507636 C1.32846204,1.60027974 1.54092154,1.82330009 1.80295492,1.82330009 L5.95417749,1.82330009 L5.71102939,3.06575331 L3.13141696,3.06575331 C2.86879341,3.06575331 2.65692408,3.28877366 2.65692408,3.56397705 C2.65692408,3.83918044 2.86879341,4.06220079 3.13141696,4.06220079 L5.51627485,4.06220079 L5.26191362,5.36304931 L0.474492883,5.36304931 C0.211869335,5.36304931 0,5.58606966 0,5.86127305 C0,6.13647643 0.211869335,6.35949679 0.474492883,6.35949679 L5.06656891,6.35949679 L4.82106015,7.61437454 C4.80099453,7.6112684 4.78328958,7.60195 4.76204363,7.60195 L3.18099085,7.60195 C2.9183673,7.60195 2.7059078,7.82497036 2.7059078,8.10017374 C2.7059078,8.37537713 2.9183673,8.59901871 3.18099085,8.59901871 L4.62866627,8.59901871 L4.54191198,9.04071083 C4.46755115,9.42276519 4.70184677,9.73213604 5.06479841,9.73213604 L16.5594475,9.73213604 C16.9229893,9.73213604 17.2776787,9.42276519 17.3526297,9.04071083 L18.9862071,0.692046441 C19.060568,0.309992077 18.8268625,0 18.4633207,0 L18.4633207,0 Z" id="path-1"></path>
    </defs>
    <g id="qr-code-profile-3-rev" stroke="none" stroke-width="1" fill="none" fill-rule="evenodd" transform="translate(-1015.000000, -434.000000)">
        <g id="Group-22" transform="translate(991.000000, 420.000000)">
            <g id="Group-20" transform="translate(24.000000, 9.000000)">
                <g id="icon/icons/pm" transform="translate(0.650000, 0.000000)">
                    <g id="color/grey-b3" transform="translate(0.000000, 5.000000)">
                        <mask id="mask-2" fill="white">
                            <use xlink:href="#path-1"></use>
                        </mask>
                        <use id="Mask" fill="#1998ED" xlink:href="#path-1"></use>
                        <g id="color/blue1" mask="url(#mask-2)" fill="#1998ED">
                            <g transform="translate(-4.750000, -10.000000)" id="Rectangle-3">
                                <rect x="0" y="0" width="29" height="30"></rect>
                            </g>
                        </g>
                    </g>
                </g>
            </g>
        </g>
    </g>
</svg>