<svg id="Layer_1" data-name="Layer 1" xmlns="http://www.w3.org/2000/svg" viewBox="0 0 20 20"><defs><style>.cls-1{fill:#fff;fill-rule:evenodd;}</style></defs><title>Untitled-1</title><g id="WA_Logo" data-name="WA Logo"><path class="cls-1" d="M16.7,3.26A9.42,9.42,0,0,0,1.88,14.62L.55,19.5l5-1.31A9.41,9.41,0,0,0,10,19.34h0A9.42,9.42,0,0,0,16.7,3.26ZM10,17.75h0a7.81,7.81,0,0,1-4-1.09l-.29-.17-3,.78.79-2.89-.19-.3A7.83,7.83,0,1,1,10,17.75Zm4.29-5.86c-.24-.12-1.39-.69-1.61-.77s-.37-.12-.53.12-.61.77-.74.92-.27.18-.51.06A6.43,6.43,0,0,1,9,11.05,7.09,7.09,0,0,1,7.74,9.42c-.14-.24,0-.36.1-.48s.24-.27.35-.41a1.61,1.61,0,0,0,.24-.39.43.43,0,0,0,0-.41C8.35,7.61,7.88,6.45,7.69,6s-.38-.4-.53-.4H6.71a.86.86,0,0,0-.63.29,2.64,2.64,0,0,0-.82,2,4.58,4.58,0,0,0,1,2.43,10.49,10.49,0,0,0,4,3.55,13.52,13.52,0,0,0,1.34.5,3.22,3.22,0,0,0,1.48.09,2.42,2.42,0,0,0,1.59-1.12,2,2,0,0,0,.14-1.12C14.72,12.06,14.57,12,14.33,11.89Z"/></g></svg>