<?xml version="1.0" encoding="UTF-8"?>
<svg width="20px" height="20px" viewBox="0 0 20 20" version="1.1" xmlns="http://www.w3.org/2000/svg" xmlns:xlink="http://www.w3.org/1999/xlink">
    <!-- Generator: Sketch 49.1 (51147) - http://www.bohemiancoding.com/sketch -->
    <title>chat white</title>
    <desc>Created with Sketch.</desc>
    <defs>
        <path d="M15,5.33333333 C15,6.29973333 14.6668444,7.19288889 14.0005333,8.0128 C13.3342222,8.83271111 12.4286222,9.47982222 11.2837333,9.95413333 C10.1388444,10.4284444 8.88871111,10.6659556 7.53333333,10.6666667 C7.14435556,10.6666667 6.74151111,10.6446222 6.3248,10.6005333 C5.22471111,11.5726222 3.94684444,12.2449778 2.4912,12.6176 C2.21884444,12.6951111 1.90204444,12.7562667 1.5408,12.8010667 C1.44622222,12.8124444 1.3616,12.7875556 1.28693333,12.7264 C1.21226667,12.6652444 1.16355556,12.5845333 1.1408,12.4842667 L1.1408,12.4757333 C1.12444444,12.4536889 1.12302222,12.4202667 1.13653333,12.3754667 C1.15004444,12.3306667 1.15573333,12.3029333 1.1536,12.2922667 C1.15146667,12.2816 1.16391111,12.2552889 1.19093333,12.2133333 L1.24106667,12.1386667 C1.24106667,12.1386667 1.26062222,12.1152 1.29973333,12.0682667 C1.33884444,12.0213333 1.36088889,11.9964444 1.36586667,11.9936 C1.40497778,11.9495111 1.49102222,11.8535111 1.624,11.7056 C1.75697778,11.5576889 1.85297778,11.4520889 1.912,11.3888 C1.97102222,11.3255111 2.05706667,11.2156444 2.17013333,11.0592 C2.2832,10.9027556 2.37351111,10.7612444 2.44106667,10.6346667 C2.50862222,10.5080889 2.58364444,10.3441778 2.66613333,10.1429333 C2.74862222,9.94168889 2.8208,9.73048889 2.88266667,9.50933333 C2.01013333,9.01511111 1.32248889,8.40391111 0.819733333,7.67573333 C0.316977778,6.94755556 0.0656,6.16711111 0.0656,5.3344 C0.0656,4.61191111 0.262933333,3.92177778 0.6576,3.264 C1.05226667,2.60622222 1.58275556,2.03804444 2.24906667,1.55946667 C2.91537778,1.08088889 3.70968889,0.701866667 4.632,0.4224 C5.55431111,0.142933333 6.52106667,0.00248888889 7.53226667,0.00106666667 C8.88764444,0.00106666667 10.1377778,0.238577778 11.2826667,0.7136 C12.4275556,1.18862222 13.3331556,1.83573333 13.9994667,2.65493333 C14.6657778,3.47413333 14.9989333,4.36728889 14.9989333,5.3344 L15,5.33333333 Z" id="path-1"></path>
    </defs>
    <g id="chat-white" stroke="none" stroke-width="1" fill="none" fill-rule="evenodd">
        <g id="color/grey-b3" transform="translate(3.000000, 4.000000)">
            <mask id="mask-2" fill="white">
                <use xlink:href="#path-1"></use>
            </mask>
            <use id="Mask" fill="#FFFFFF" fill-rule="nonzero" xlink:href="#path-1"></use>
        </g>
    </g>
</svg>