<?xml version="1.0" encoding="UTF-8"?>
<svg width="11px" height="10px" viewBox="0 0 11 10" version="1.1" xmlns="http://www.w3.org/2000/svg" xmlns:xlink="http://www.w3.org/1999/xlink">
    <!-- Generator: Sketch 50 (54983) - http://www.bohemiancoding.com/sketch -->
    <title>icon quote</title>
    <desc>Created with Sketch.</desc>
    <defs>
        <path d="M10.5,6.5625 C10.5,7.211 10.252,8.09175 9.756,9.20475 C9.7445,9.23225 9.724,9.279 9.6945,9.345 C9.665,9.411 9.63875,9.4695 9.61575,9.5205 C9.59275,9.5715 9.56725,9.6145 9.53925,9.6495 C9.49225,9.716 9.4375,9.74925 9.375,9.74925 C9.3165,9.74925 9.2705,9.72975 9.237,9.69075 C9.2035,9.65175 9.187,9.603 9.1875,9.5445 C9.1875,9.5095 9.1925,9.45775 9.2025,9.38925 C9.2125,9.32075 9.2175,9.27475 9.2175,9.25125 C9.237,8.98575 9.24675,8.7455 9.24675,8.5305 C9.24675,8.136 9.2125,7.7825 9.144,7.47 C9.0755,7.1575 8.98075,6.887 8.85975,6.6585 C8.73875,6.43 8.5825,6.23275 8.391,6.06675 C8.1995,5.90075 7.9935,5.765 7.773,5.6595 C7.5525,5.554 7.29275,5.471 6.99375,5.4105 C6.69475,5.35 6.394,5.308 6.0915,5.2845 C5.789,5.261 5.44625,5.24925 5.06325,5.24925 L3.75075,5.24925 L3.75075,6.74925 C3.75075,6.85075 3.71375,6.93875 3.63975,7.01325 C3.56575,7.08775 3.47775,7.12475 3.37575,7.12425 C3.27375,7.12375 3.18575,7.08675 3.11175,7.01325 L0.11175,4.01325 C0.03775,3.93925 0.00075,3.85125 0.00075,3.74925 C0.00075,3.64725 0.03775,3.55925 0.11175,3.48525 L3.11175,0.48525 C3.18575,0.41125 3.27375,0.37425 3.37575,0.37425 C3.47775,0.37425 3.56575,0.41125 3.63975,0.48525 C3.71375,0.55925 3.75075,0.64725 3.75075,0.74925 L3.75075,2.24925 L5.06325,2.24925 C7.84825,2.24925 9.55725,3.03625 10.19025,4.61025 C10.39725,5.13375 10.50075,5.78425 10.50075,6.56175 L10.5,6.5625 Z" id="path-1"></path>
    </defs>
    <g id="Ancurlah" stroke="none" stroke-width="1" fill="none" fill-rule="evenodd">
        <g id="Nested-Copy" transform="translate(-167.000000, -4099.000000)">
            <g id="Group-8" transform="translate(165.000000, 4096.000000)">
                <g id="icons/reply" transform="translate(7.500000, 7.500000) scale(-1, 1) translate(-7.500000, -7.500000) ">
                    <g id="color/grey-b3" transform="translate(2.250000, 3.000000)">
                        <mask id="mask-2" fill="white">
                            <use xlink:href="#path-1"></use>
                        </mask>
                        <use id="Mask" fill="#B3B3B3" fill-rule="nonzero" xlink:href="#path-1"></use>
                        <g id="color/grey3-b3" mask="url(#mask-2)" fill="#B3B3B3">
                            <g transform="translate(-2.250000, -3.000000)" id="Rectangle-3">
                                <rect x="0" y="0" width="15" height="15"></rect>
                            </g>
                        </g>
                    </g>
                </g>
            </g>
        </g>
    </g>
</svg>