<?xml version="1.0" encoding="UTF-8" standalone="no"?>
<!-- Created with Inkscape (http://www.inkscape.org/) -->
<svg xmlns:rdf="http://www.w3.org/1999/02/22-rdf-syntax-ns#" xmlns="http://www.w3.org/2000/svg" height="20mm" width="20mm" version="1.1" xmlns:cc="http://creativecommons.org/ns#" xmlns:dc="http://purl.org/dc/elements/1.1/" viewBox="0 0 20 20">
 <metadata>
  <rdf:RDF>
   <cc:Work rdf:about="">
    <dc:format>image/svg+xml</dc:format>
    <dc:type rdf:resource="http://purl.org/dc/dcmitype/StillImage"/>
    <dc:title/>
   </cc:Work>
  </rdf:RDF>
 </metadata>
 <g transform="translate(198.99 -55.679)">
  <g fill-rule="evenodd" transform="matrix(.31031 0 0 .31031 -235.18 34.973)">
   <path id="Oval" d="m181.1 98.953a32.226 32.226 0 0 1 -32.23 32.227 32.226 32.226 0 0 1 -32.23 -32.227 32.226 32.226 0 0 1 32.23 -32.226 32.226 32.226 0 0 1 32.23 32.226z" fill="#faa61a"/>
   <path d="m175.26 98.953a26.39 26.39 0 0 1 -26.39 26.387 26.39 26.39 0 0 1 -26.39 -26.387 26.39 26.39 0 0 1 26.39 -26.389 26.39 26.39 0 0 1 26.39 26.389z" fill="#fff"/>
   <path d="m151.11 99.543c-0.16404-0.1614-0.26723-0.38365-0.26723-0.635 0-0.24606 0.10054-0.46302 0.26723-0.62442l9.5488-9.0726-7.7391 0.02381s-0.32015 0.01852-0.59267 0.35719c-0.27516 0.34396-6.4267 6.5167-6.4267 6.5167-0.37041 0.32279-0.84931 0.52388-1.3732 0.53446h-1.9817c-0.24607 0-0.4445-0.19579-0.4445-0.44186v-0.0053h-0.003l-0.003-6.1383c-0.0185-0.44979-0.37571-0.80962-0.81757-0.83873h-4.154-0.008-0.80963v0.86519 0.0079 6.5537h-5.5536v2.4315 0.01323c0 1.2012 0.97631 2.1775 2.1828 2.1775h3.3682v6.5511 0.008 0.86255h0.80433c0.0212 0.003 0.0423 0.003 0.0662 0.003h0.0159 4.0164 0.0132c0.4789 0 0.86784-0.38364 0.87578-0.85989l0.003-6.133c0.008-0.23548 0.20108-0.42863 0.43921-0.42863h1.9262c0.57943 0 1.098 0.22754 1.4922 0.59002l6.0854 6.1595s0.21961 0.27517 0.46832 0.4736c0.2487 0.19844 0.61118 0.19844 0.61118 0.19844h7.5168l-9.5224-9.1519c0 0.0026 0 0.0026-0.005 0.0026z" fill="#0a82c5"/>
   <g id="+" aria-label="+" transform="matrix(.26458 0 0 .26458 112.85 62.877)" stroke="#0a82c5" stroke-width=".59780" fill="#0a82c5">
    <path d="m205.9 136.52h-14.669v-14.669h-4.9606v14.669h-14.669v4.9606h14.669v14.669h4.9606v-14.669h14.669z"/>
   </g>
  </g>
 </g>
</svg>
