<?xml version="1.0" encoding="UTF-8" standalone="no"?>
<!-- Created with Inkscape (http://www.inkscape.org/) -->
<svg xmlns:rdf="http://www.w3.org/1999/02/22-rdf-syntax-ns#" xmlns="http://www.w3.org/2000/svg" height="19.995mm" width="20mm" version="1.1" xmlns:cc="http://creativecommons.org/ns#" xmlns:dc="http://purl.org/dc/elements/1.1/" viewBox="0 0 20 19.994513">
 <metadata>
  <rdf:RDF>
   <cc:Work rdf:about="">
    <dc:format>image/svg+xml</dc:format>
    <dc:type rdf:resource="http://purl.org/dc/dcmitype/StillImage"/>
    <dc:title/>
   </cc:Work>
  </rdf:RDF>
 </metadata>
 <g transform="translate(-113.96 -157.56)">
  <g transform="matrix(.31018 0 0 .31018 78.114 107.31)">
   <g fill-rule="evenodd">
    <path fill="#faa61a" d="m180.03 194.23a32.226 32.226 0 0 1 -32.226 32.226 32.226 32.226 0 0 1 -32.226 -32.226 32.226 32.226 0 0 1 32.226 -32.226 32.226 32.226 0 0 1 32.226 32.226z"/>
    <path fill="#fff" d="m174.19 194.23a26.39 26.39 0 0 1 -26.39 26.39 26.39 26.39 0 0 1 -26.39 -26.39 26.39 26.39 0 0 1 26.39 -26.39 26.39 26.39 0 0 1 26.39 26.39z"/>
    <path fill="#0a82c5" d="m150.04 194.82c-0.16404-0.1614-0.26722-0.38365-0.26722-0.635 0-0.24606 0.10053-0.46302 0.26722-0.62442l9.5488-9.0726-7.7391 0.0238s-0.32015 0.0185-0.59266 0.35719c-0.27517 0.34395-6.4267 6.5167-6.4267 6.5167-0.37041 0.3228-0.84931 0.52388-1.3732 0.53446h-1.9817c-0.24607 0-0.4445-0.19579-0.4445-0.44185v-0.005h-0.003l-0.003-6.1383c-0.0185-0.4498-0.37571-0.80963-0.81757-0.83873h-4.154-0.008-0.80963v0.86518 0.008 6.5537h-5.5536v2.4315 0.0132c0 1.2012 0.97631 2.1775 2.1828 2.1775h3.3682v6.5511 0.008 0.86255h0.80433c0.0212 0.003 0.0423 0.003 0.0662 0.003h0.0159 4.0164 0.0132c0.4789 0 0.86784-0.38364 0.87578-0.85989l0.003-6.133c0.008-0.23548 0.20108-0.42863 0.43921-0.42863h1.9262c0.57943 0 1.098 0.22754 1.4922 0.59002l6.0854 6.1595s0.21961 0.27517 0.46831 0.47361c0.2487 0.19843 0.61119 0.19843 0.61119 0.19843h7.5168l-9.5224-9.1519c0 0.003 0 0.003-0.005 0.003z"/>
    <g aria-label="+" transform="matrix(.26458 0 0 .26458 111.78 158.16)" stroke="#0a82c5" stroke-width=".59780" fill="#0a82c5">
     <path d="m205.9 136.52h-14.669v-14.669h-4.9606v14.669h-14.669v4.9606h14.669v14.669h4.9606v-14.669h14.669z"/>
    </g>
   </g>
   <g fill="#a0a0a0">
    <path style="color-rendering:auto;color:#000000;isolation:auto;mix-blend-mode:normal;shape-rendering:auto;solid-color:#000000;image-rendering:auto" d="m542.72 855.12c-21.853-2.9739-43.114-12.036-60.448-25.765-4.86-3.8493-15.153-14.132-18.848-18.828-14.476-18.401-23.115-39.091-26.076-62.451-0.75448-5.9519-0.75934-21.389-0.009-27.779 3.057-26.028 14.252-50.339 31.862-69.189 19.857-21.256 45.219-34.212 74.765-38.193 6.1812-0.83295 23.113-0.83295 29.294 0 25.946 3.4965 49.1 14.132 67.432 30.976 22.004 20.218 35.266 45.909 39.181 75.901 0.90248 6.9142 0.76827 23.121-0.25096 30.305-2.6537 18.702-9.0731 35.86-19.16 51.21-19.369 29.475-51.007 49.197-86.344 53.823-7.366 0.96437-24.282 0.95962-31.398-0.009zm23.27-21.453c38.89-3.1258 71.506-27.313 85.793-63.621 9.9336-25.243 8.7291-54.364-3.2768-79.223-5.2993-10.973-11.737-19.879-20.529-28.402-16.259-15.761-37.07-25.422-59.694-27.711-36.387-3.6809-72.899 13.76-92.999 44.423-30.938 47.198-17.148 109.84 30.802 139.92 11.059 6.937 24.482 11.841 37.881 13.839 4.805 0.71654 6.9254 0.90699 13.437 1.207 1.1403 0.0525 5.0041-0.14007 8.5863-0.42799z" transform="scale(.26458)"/>
    <path style="color-rendering:auto;color:#000000;isolation:auto;mix-blend-mode:normal;shape-rendering:auto;solid-color:#000000;image-rendering:auto" d="m511.13 756.7v-13.844l-7.743-0.1716c-7.6372-0.16926-7.7691-0.19149-9.65-1.6271-2.7171-2.0738-3.3151-3.9038-3.3151-10.145v-5.3195h20.708v-28.284h9.5283c8.8748 0 9.6196 0.0718 10.859 1.0468l1.3308 1.0468v12.489c0 9.0404 0.16736 12.657 0.60609 13.095 0.76216 0.76216 9.3581 0.82059 11.357 0.0772 0.78201-0.2909 7.4601-6.5549 14.84-13.92l13.418-13.391 14.74-0.30153c8.1068-0.16584 14.74-0.18904 14.74-0.0516 0 0.13749-7.9714 7.8203-17.714 17.073-9.7428 9.2526-18.066 17.359-18.495 18.015-0.64701 0.98745-0.67427 1.4302-0.15874 2.5782 0.34232 0.76229 8.5787 9 18.303 18.306l17.681 16.92-14.581 0.15522-14.581 0.15522-12.627-12.842c-6.9448-7.0631-13.422-13.326-14.395-13.917-1.4922-0.90716-2.5589-1.075-6.8438-1.0766-3.2769-0.001-5.2908 0.21293-5.6821 0.60421-0.43784 0.43784-0.60609 3.982-0.60609 12.767 0 10.189-0.12749 12.343-0.78626 13.284-0.7678 1.0962-1.0227 1.1225-10.859 1.1225h-10.073z" transform="scale(.26458)"/>
    <path style="color-rendering:auto;color:#000000;isolation:auto;mix-blend-mode:normal;shape-rendering:auto;solid-color:#000000;image-rendering:auto" d="m608.61 746.56v-7.3236h-14.647v-5.0508h14.647v-14.647h5.0508v14.647h14.647v5.0508h-14.647v14.647h-5.0508z" transform="scale(.26458)"/>
   </g>
  </g>
 </g>
</svg>
