<?xml version="1.0" encoding="UTF-8"?>
<svg width="22px" height="23px" viewBox="0 0 22 23" version="1.1" xmlns="http://www.w3.org/2000/svg" xmlns:xlink="http://www.w3.org/1999/xlink">
    <!-- Generator: sketchtool 50.2 (55047) - http://www.bohemiancoding.com/sketch -->
    <title>1E37BF64-4440-4451-947E-0AB9F37D3B52</title>
    <desc>Created with sketchtool.</desc>
    <defs>
        <polygon id="path-1" points="0.0760773219 0.0138887722 13.2963543 0.0138887722 13.2963543 13.437769 0.0760773219 13.437769"></polygon>
        <polygon id="path-3" points="9.06437768e-06 0.028716348 13.2390765 0.028716348 13.2390765 13.4716212 9.06437768e-06 13.4716212"></polygon>
    </defs>
    <g id="00-CHANNEL" stroke="none" stroke-width="1" fill="none" fill-rule="evenodd">
        <g id="0-menu" transform="translate(-21.000000, -304.000000)">
            <g id="all-channel" transform="translate(21.000000, 304.000000)">
                <g id="Group-3" transform="translate(7.795365, 8.648890)">
                    <mask id="mask-2" fill="white">
                        <use xlink:href="#path-1"></use>
                    </mask>
                    <g id="Clip-2"></g>
                    <path d="M11.4039208,0.0138887722 L11.4039208,9.30841342 C11.4039208,10.5277537 10.4304972,11.5162588 9.22973912,11.5162588 L0.0760773219,11.5162588 C0.214399725,12.6002089 1.12636676,13.437769 2.23158633,13.437769 L11.1221093,13.437769 C12.322958,13.437769 13.2963815,12.449264 13.2963815,11.2300157 L13.2963815,2.20258991 C13.2963815,1.08035135 12.4715232,0.154341167 11.4039208,0.0138887722" id="Fill-1" fill="#1998ED" mask="url(#mask-2)"></path>
                </g>
                <path d="M15.4767813,5.07457907 L15.4767813,14.1773853 C15.4767813,15.3967256 14.5033578,16.3852306 13.302509,16.3852306 L4.33765823,16.3852306 C4.37790407,17.5685835 5.33473978,18.5155787 6.51002699,18.5155787 L15.4004593,18.5155787 C16.601308,18.5155787 17.5748222,17.5271657 17.5748222,16.3078254 L17.5748222,7.28039957 C17.5748222,6.08710646 16.6421884,5.11544464 15.4767813,5.07457907" id="Fill-4" fill="#1998ED"></path>
                <g id="Group-8" transform="translate(0.000000, 0.641447)">
                    <mask id="mask-4" fill="white">
                        <use xlink:href="#path-3"></use>
                    </mask>
                    <g id="Clip-7"></g>
                    <path d="M11.0648043,13.4716212 L2.17428134,13.4716212 C0.973432584,13.4716212 9.06437768e-06,12.4832082 9.06437768e-06,11.2638679 L9.06437768e-06,0.0286887362 L11.0648043,0.0286887362 C12.2655624,0.0286887362 13.2390765,1.01719379 13.2390765,2.23653411 L13.2390765,11.2638679 C13.2390765,12.4832082 12.2655624,13.4716212 11.0648043,13.4716212" id="Fill-6" fill="#1998ED" mask="url(#mask-4)"></path>
                </g>
            </g>
        </g>
    </g>
</svg>