<?xml version="1.0" encoding="UTF-8"?>
<svg width="24px" height="20px" viewBox="0 0 24 20" version="1.1" xmlns="http://www.w3.org/2000/svg" xmlns:xlink="http://www.w3.org/1999/xlink">
    <!-- Generator: Sketch 50.2 (55047) - http://www.bohemiancoding.com/sketch -->
    <title>news whit</title>
    <desc>Created with Sketch.</desc>
    <defs></defs>
    <g id="00-CHANNEL" stroke="none" stroke-width="1" fill="none" fill-rule="evenodd">
        <g id="0-menu-copy" transform="translate(-178.000000, -427.000000)" fill="#FFFFFF">
            <g id="news-whit" transform="translate(178.000000, 427.000000)">
                <path d="M3,2.60869565 C1.35013501,2.60869565 0,4.0318365 0,5.77078084 L0,16.8383527 C0,18.577297 1.35013501,20 3,20 C4.64976113,20 6,18.577297 6,16.8383527 L6,5.77078084 C6,4.0318365 4.64976113,2.60869565 3,2.60869565 M3,3.13970528 C4.37641072,3.13970528 5.49629578,4.31994562 5.49629578,5.77078084 L5.49629578,16.8383527 C5.49629578,18.288969 4.37641072,19.4690998 3,19.4690998 C1.62348543,19.4690998 0.503704217,18.288969 0.503704217,16.8383527 L0.503704217,5.77078084 C0.503704217,4.31994562 1.62348543,3.13970528 3,3.13970528" id="Fill-1"></path>
                <path d="M13.7142349,6.16341776 L21.0532611,6.16341776 L21.0532611,4.62838107 L13.7142349,4.62838107 L13.7142349,6.16341776 Z M13.7142349,9.23274731 L21.0532611,9.23274731 L21.0532611,7.6980294 L13.7142349,7.6980294 L13.7142349,9.23274731 Z M7.84333913,12.3025019 L21.0532611,12.3025019 L21.0532611,10.7675715 L7.84333913,10.7675715 L7.84333913,12.3025019 Z M7.84333913,15.372044 L21.0532611,15.372044 L21.0532611,13.8373261 L7.84333913,13.8373261 L7.84333913,15.372044 Z M7.84333913,9.23274731 L12.2468158,9.23274731 L12.2468158,4.62827481 L7.84333913,4.62827481 L7.84333913,9.23274731 Z M23.9804776,6.1391904 L23.9772257,4.60457876 L23.96747,0 L19.5642982,0.0104135121 L12.225272,0.0273089041 L7.8217953,0.0377224161 C5.40014733,0.0434604738 3.42319645,2.11989353 3.42858241,4.65207712 L3.43498458,7.72193798 L3.4513457,15.3954212 L3.46110139,20 L7.86427322,19.989799 L9.33209879,19.9863987 L19.6067761,19.9624901 C22.0284241,19.956752 24.005375,17.880319 23.999989,15.3478166 L23.9804776,6.1391904 Z" id="Fill-3"></path>
            </g>
        </g>
    </g>
</svg>