<?xml version="1.0" encoding="UTF-8"?>
<svg width="26px" height="22px" viewBox="0 0 26 22" version="1.1" xmlns="http://www.w3.org/2000/svg" xmlns:xlink="http://www.w3.org/1999/xlink">
    <!-- Generator: sketchtool 50.2 (55047) - http://www.bohemiancoding.com/sketch -->
    <title>8B1E1FA1-109F-448F-9922-2891C55D66CA</title>
    <desc>Created with sketchtool.</desc>
    <defs></defs>
    <g id="00-CHANNEL" stroke="none" stroke-width="1" fill="none" fill-rule="evenodd">
        <g id="0-menu" transform="translate(-17.000000, -426.000000)" fill="#E5AD52">
            <path d="M39.1431867,440.366785 C37.6946998,439.9615 37.7305238,438.377887 37.7305238,438.377887 L41.2317357,439.502749 C41.2317357,439.502749 40.5918766,440.772281 39.1431867,440.366785 Z M38.145392,445.572601 L31.5207945,443.453185 C31.5207945,443.453185 32.728053,441.050404 35.4691468,441.813905 C38.210545,442.576883 38.145392,445.572601 38.145392,445.572601 Z M32.4530303,436.682312 L35.9543437,437.807174 C35.9543437,437.807174 35.3146875,439.076811 33.8656932,438.67121 C32.4172063,438.265925 32.4530303,436.682312 32.4530303,436.682312 Z M31.7997752,432.000767 L31.4595994,433.130347 L31.8742647,434.844897 C31.8849206,434.889032 31.8925319,434.933167 31.8969972,434.977092 C32.4627728,437.757483 31.2286209,440.552445 29.0032709,442.007847 C28.9443085,444.419644 30.4301416,446.691803 32.763877,447.441571 L33.7280803,447.751353 C36.5076367,448.644429 39.4827535,447.054841 40.400071,444.215219 L40.4054497,444.217001 L40.4379247,444.108813 L40.4908996,443.932798 L43,435.599173 L31.7997752,432.000767 Z M24.3869483,432.674636 C24.3869483,432.674636 24.4395172,431.033784 25.9617833,430.702301 C27.4839479,430.370818 28.0737753,431.723273 28.0737753,431.723273 L24.3869483,432.674636 Z M24.7781707,438.801833 C21.8990581,439.429051 20.7835416,436.870802 20.7835416,436.870802 L27.7568395,435.071442 C27.7568395,435.071442 27.6570803,438.175244 24.7781707,438.801833 Z M18.8295608,434.108652 C18.8295608,434.108652 18.8822313,432.467695 20.4044973,432.136212 C21.9267634,431.804834 22.5163878,433.157289 22.5163878,433.157289 L18.8295608,434.108652 Z M30.9829272,435.07574 L30.9884074,435.074377 L30.9608036,434.960843 L30.916049,434.775392 L28.7940101,426 L17,429.043313 L19.1220389,437.818705 L19.1667935,438.004051 L19.1942958,438.11769 L19.1996745,438.116223 C19.9872949,441.110578 22.9756047,442.936147 25.9027194,442.180822 L26.9177664,441.918948 C29.8448811,441.163624 31.6508976,438.101022 30.9829272,435.07574 Z" id="entertainment"></path>
        </g>
    </g>
</svg>