<?xml version="1.0" encoding="UTF-8"?>
<svg width="40px" height="20px" viewBox="0 0 40 20" version="1.1" xmlns="http://www.w3.org/2000/svg" xmlns:xlink="http://www.w3.org/1999/xlink">
    <!-- Generator: Sketch 50.2 (55047) - http://www.bohemiancoding.com/sketch -->
    <title>action/cendol</title>
    <desc>Created with Sketch.</desc>
    <defs>
        <path d="M15.678036,9.37451032 C15.678036,10.1535371 15.0667833,10.787468 14.3123292,10.787468 L13.4024152,10.787468 C13.2068366,10.787468 13.0224021,10.7431331 12.855241,10.6671305 L12.855241,6.20197699 C13.0224021,6.12482282 13.2068366,6.08163951 13.4024152,6.08163951 L14.3123292,6.08163951 C15.0656689,6.08163951 15.678036,6.71499463 15.678036,7.49402141 L15.678036,9.37451032 Z M0.401176365,2.05522833 C0.401176365,2.05522833 0.376659393,1.58596977 0.934420508,1.05164837 C1.04920451,0.947432666 1.17736141,0.857611395 1.31666239,0.787942333 C1.52784267,0.681999296 1.76465433,0.621542672 2.0159533,0.621542672 L11.2159471,0.621542672 C11.609333,0.621542672 11.9653863,0.771244789 12.2478887,1.01076818 C12.2478887,1.01076818 12.6357026,1.25777667 12.8218087,1.97864994 C12.8435397,2.08862342 12.855241,2.20090001 12.855241,2.31605548 L12.855241,4.44009822 C13.0324318,4.4049758 13.2157519,4.38539937 13.4024152,4.38539937 L14.3123292,4.38539937 C15.9688964,4.38539937 17.3178871,5.78050795 17.3178871,7.49286986 L17.3178871,9.37451032 C17.3178871,11.0880238 15.9688964,12.481405 14.3123292,12.481405 L13.4024152,12.481405 C13.2140803,12.481405 13.0324318,12.460677 12.855241,12.427282 L12.855241,15.0223106 C12.855241,15.9567973 12.1191746,16.7168234 11.2159471,16.7168234 L2.0159533,16.7168234 C1.11161135,16.7168234 0.376659393,15.9567973 0.376659393,15.0223106 L0.376659393,2.31605548 C0.376659393,2.22680999 0.390032287,2.14101916 0.401176365,2.05522833 Z M11.7625641,3.95601328 L11.7625641,1.84552105 C11.7625641,1.79387534 11.51628,1.75179366 11.2159471,1.75179366 L2.0159533,1.75179366 C1.71394878,1.75179366 1.46933626,1.79387534 1.46933626,1.84552105 L1.46933626,3.95601328 C1.46933626,4.00794591 1.71394878,4.04983632 2.0159533,4.04983632 L11.2159471,4.04983632 C11.51628,4.04983632 11.7625641,4.00794591 11.7625641,3.95601328 Z M7.42528886,13.6462027 C7.42528886,13.3180096 7.16841786,13.0520004 6.85081163,13.0520004 C6.5332054,13.0520004 6.2757772,13.3180096 6.2757772,13.6462027 C6.2757772,13.97382 6.5332054,14.2398291 6.85081163,14.2398291 C7.16841786,14.2398291 7.42528886,13.97382 7.42528886,13.6462027 Z M5.37410983,5.75287063 C5.37410983,5.20876101 4.94673443,4.76771555 4.42073394,4.76771555 C3.89361904,4.76771555 3.46680084,5.20876101 3.46680084,5.75287063 C3.46680084,6.29698025 3.89361904,6.7386015 4.42073394,6.7386015 C4.94673443,6.7386015 5.37410983,6.29698025 5.37410983,5.75287063 Z M10.6493264,5.75315852 C10.6493264,5.43417786 10.3985847,5.17450226 10.0898937,5.17450226 C9.78008831,5.17450226 9.52990376,5.43417786 9.52990376,5.75315852 C9.52990376,6.07271496 9.78008831,6.33181478 10.0898937,6.33181478 C10.3985847,6.33181478 10.6493264,6.07271496 10.6493264,5.75315852 Z" id="path-1"></path>
        <path d="M0.669949611,5.74824238 L0.161475034,5.25276197 C-0.0538250115,5.04296395 -0.0538250115,4.7037161 0.161475034,4.49614998 L4.61177279,0.15734851 C4.82707284,-0.0524495034 5.17521759,-0.0524495034 5.38822721,0.15734851 L9.83852497,4.49391809 C10.053825,4.7037161 10.053825,5.04296395 9.83852497,5.25053007 L9.33005039,5.74601049 C9.11245992,5.9580404 8.75744388,5.95357661 8.54443426,5.73708291 L5.91731562,3.04988283 L5.91731562,9.4643455 C5.91731562,9.76118737 5.67224004,10 5.36761338,10 L4.63467705,10 C4.33005039,10 4.08497481,9.76118737 4.08497481,9.4643455 L4.08497481,3.04988283 L1.45556574,5.73931481 C1.24255612,5.9580404 0.887540082,5.96250418 0.669949611,5.74824238 Z" id="path-3"></path>
    </defs>
    <g id="action/cendol" stroke="none" stroke-width="1" fill="none" fill-rule="evenodd">
        <g id="icons/cendol">
            <g id="color/grey3-b3" transform="translate(1.000000, 2.000000)">
                <mask id="mask-2" fill="white">
                    <use xlink:href="#path-1"></use>
                </mask>
                <use id="Mask" fill="#B3B3B3" xlink:href="#path-1"></use>
                <g mask="url(#mask-2)" fill="#B3B3B3" id="Rectangle-3">
                    <g transform="translate(-2.117647, -4.235294)">
                        <rect x="0" y="0" width="21" height="21"></rect>
                    </g>
                </g>
            </g>
        </g>
        <g id="arrow-up" transform="translate(20.000000, 0.000000)">
            <g>
                <rect id="Rectangle" x="0" y="0" width="20" height="20"></rect>
                <g id="color/grey-b3" transform="translate(5.000000, 5.000000)">
                    <mask id="mask-4" fill="white">
                        <use xlink:href="#path-3"></use>
                    </mask>
                    <use id="Mask" fill="#B3B3B3" fill-rule="nonzero" xlink:href="#path-3"></use>
                    <g id="color/grey3-b3" mask="url(#mask-4)" fill="#B3B3B3">
                        <g transform="translate(-5.750000, -14.000000)" id="Rectangle-3">
                            <rect x="0" y="0" width="31" height="31"></rect>
                        </g>
                    </g>
                </g>
            </g>
        </g>
    </g>
</svg>