<?xml version="1.0" encoding="UTF-8"?>
<svg width="20px" height="10px" viewBox="0 0 20 10" version="1.1" xmlns="http://www.w3.org/2000/svg" xmlns:xlink="http://www.w3.org/1999/xlink">
    <!-- Generator: Sketch 50.2 (55047) - http://www.bohemiancoding.com/sketch -->
    <title>pm</title>
    <desc>Created with Sketch.</desc>
    <defs>
        <path d="M13.8104887,4.21750744 L13.8191859,4.22993197 L14.5118536,3.88452998 L14.4925955,3.85657478 L13.8104887,4.21750744 Z M17.8043546,2.24324928 L14.5118536,3.88452998 L17.5260451,8.18466056 C17.3769507,8.88851031 16.843317,8.54559322 16.843317,8.54559322 L13.8191859,4.22993197 L12.6183549,4.8281732 C12.3866373,4.93999399 12.3064991,4.93999399 12.1207524,4.8281732 L8.18279688,2.24324928 C7.87094112,2.05626007 7.64481464,2.16994454 7.90448736,1.81957274 C8.07843081,1.5853703 7.98586805,1.43938205 8.25237426,1.43938205 C8.37040732,1.43938205 8.48222811,1.4685797 8.5754121,1.5244901 L12.5767327,3.92739462 L17.5682885,1.5244901 C17.6838366,1.4685797 17.8074607,1.43938205 17.926115,1.43938205 C18.1926212,1.43938205 18.2230613,1.5853703 18.3007146,1.81957274 C18.4162628,2.16994454 18.1938637,2.05626007 17.8043546,2.24324928 L17.8043546,2.24324928 Z M6.97264745,8.63070127 C6.97264745,8.63070127 6.30917743,8.98045185 6.42161945,8.26293511 L10.8254949,4.03983663 L11.3765229,4.40698156 L6.97264745,8.63070127 Z M19.4350744,0 L7.33606501,0 C6.95338942,0 6.57941101,0.309992077 6.50051523,0.692046441 L6.47318126,0.826852615 L1.89784729,0.826852615 C1.62202267,0.826852615 1.39838109,1.04925174 1.39838109,1.32507636 C1.39838109,1.60027974 1.62202267,1.82330009 1.89784729,1.82330009 L6.26755525,1.82330009 L6.01160989,3.06575331 L3.29622838,3.06575331 C3.01978254,3.06575331 2.79676219,3.28877366 2.79676219,3.56397705 C2.79676219,3.83918044 3.01978254,4.06220079 3.29622838,4.06220079 L5.80660511,4.06220079 L5.53885644,5.36304931 L0.499466193,5.36304931 C0.223020352,5.36304931 0,5.58606966 0,5.86127305 C0,6.13647643 0.223020352,6.35949679 0.499466193,6.35949679 L5.33323043,6.35949679 L5.07480016,7.61437454 C5.05367846,7.6112684 5.03504166,7.60195 5.0126775,7.60195 L3.34841142,7.60195 C3.07196558,7.60195 2.848324,7.82497036 2.848324,8.10017374 C2.848324,8.37537713 3.07196558,8.59901871 3.34841142,8.59901871 L4.87228029,8.59901871 L4.78095998,9.04071083 C4.70268542,9.42276519 4.94931239,9.73213604 5.33136675,9.73213604 L17.4309974,9.73213604 C17.813673,9.73213604 18.1870302,9.42276519 18.265926,9.04071083 L19.9854812,0.692046441 C20.0637558,0.309992077 19.81775,0 19.4350744,0 L19.4350744,0 Z" id="path-1"></path>
    </defs>
    <g id="WAP" stroke="none" stroke-width="1" fill="none" fill-rule="evenodd">
        <g id="WAP-FOLLOW-PROFILE" transform="translate(-118.000000, -310.000000)">
            <g id="Group-3" transform="translate(-1.000000, 295.000000)">
                <g id="Group-2" transform="translate(10.000000, 0.000000)">
                    <g id="icon/icons/pm" transform="translate(109.000000, 10.000000)">
                        <g id="color/grey-b3" transform="translate(0.000000, 5.000000)">
                            <mask id="mask-2" fill="white">
                                <use xlink:href="#path-1"></use>
                            </mask>
                            <use id="Mask" fill="#1998ED" xlink:href="#path-1"></use>
                            <g id="color/grey3-b3" mask="url(#mask-2)" fill="#B3B3B3">
                                <g transform="translate(-5.000000, -10.000000)" id="Rectangle-3">
                                    <rect x="0" y="0" width="30" height="30"></rect>
                                </g>
                            </g>
                        </g>
                    </g>
                </g>
            </g>
        </g>
    </g>
</svg>