<?xml version="1.0" encoding="UTF-8"?>
<svg width="20px" height="20px" viewBox="0 0 20 20" version="1.1" xmlns="http://www.w3.org/2000/svg" xmlns:xlink="http://www.w3.org/1999/xlink">
    <!-- Generator: Sketch 49.1 (51147) - http://www.bohemiancoding.com/sketch -->
    <title>question</title>
    <desc>Created with Sketch.</desc>
    <defs></defs>
    <g id="question" stroke="none" stroke-width="1" fill="none" fill-rule="evenodd">
        <g id="Group-2" transform="translate(1.000000, 1.000000)">
            <g id="Group-3">
                <path d="M9,0 C4.0304264,0 0,4.0304264 0,9 C0,13.9695736 4.0304264,18 9,18 C13.9695736,18 18,13.9695736 18,9 C18,4.0304264 13.9695736,0 9,0" id="Fill-1" fill="#F7941E"></path>
                <path d="M7.59768634,13.4935649 C7.59768634,13.1183378 7.69955794,12.8330973 7.89990543,12.6412391 C8.10025292,12.4493809 8.39398272,12.3526029 8.77769909,12.3526029 C9.14953045,12.3526029 9.43816667,12.4527766 9.64021202,12.6480305 C9.84395523,12.8449823 9.94752469,13.1268271 9.94752469,13.4935649 C9.94752469,13.8467198 9.84225737,14.1251688 9.6368163,14.328912 C9.43137523,14.5326552 9.14443687,14.6345268 8.77769909,14.6345268 C8.40416988,14.6345268 8.11213794,14.5343531 7.90669687,14.3357035 C7.7012558,14.1370538 7.59768634,13.8569069 7.59768634,13.4935649 Z M7.81161671,11.198058 L7.81161671,10.700585 C7.81161671,10.2727243 7.90499901,9.89919506 8.08667004,9.57999737 C8.27003893,9.26419539 8.60621523,8.92632123 9.09350107,8.56807276 C9.56380831,8.23189646 9.87451671,7.95854099 10.0239284,7.74800634 C10.1733401,7.53916955 10.2497438,7.303167 10.2497438,7.0433944 C10.2497438,6.75306033 10.1410807,6.53064066 9.92545251,6.38122897 C9.71152214,6.22842156 9.41100091,6.15201786 9.02728453,6.15201786 C8.35493193,6.15201786 7.5908949,6.37104181 6.7317777,6.80908971 L6,5.33874288 C6.99664387,4.78014691 8.05610856,4.5 9.17499835,4.5 C10.0969364,4.5 10.8287141,4.72241967 11.3737272,5.16556115 C11.9170424,5.60700477 12.1887,6.19786008 12.1887,6.93812708 C12.1887,7.42880864 12.0766412,7.85497152 11.8525237,8.21322 C11.6284062,8.57146848 11.2039412,8.97216346 10.5774308,9.42039852 C10.1478722,9.73789835 9.87621457,9.98069235 9.76076008,10.1436869 C9.64700346,10.3100772 9.59097407,10.5274033 9.59097407,10.7956652 L9.59097407,11.198058 L7.81161671,11.198058 Z" id="Fill-4" fill="#FFFFFF"></path>
            </g>
        </g>
    </g>
</svg>