<?xml version="1.0" encoding="UTF-8"?>
<svg width="13px" height="11px" viewBox="0 0 13 11" version="1.1" xmlns="http://www.w3.org/2000/svg" xmlns:xlink="http://www.w3.org/1999/xlink">
    <!-- Generator: Sketch 50.2 (55047) - http://www.bohemiancoding.com/sketch -->
    <title>blocked</title>
    <desc>Created with Sketch.</desc>
    <defs></defs>
    <g id="WAP" stroke="none" stroke-width="1" fill="none" fill-rule="evenodd">
        <g id="WAP-BLOCKED-PROFILE-1" transform="translate(-43.000000, -310.000000)" fill="#B3B3B3" fill-rule="nonzero">
            <g id="blocked" transform="translate(43.000000, 310.000000)">
                <path d="M5,6 C4.172,6 3.465,5.707 2.879,5.121 C2.293,4.535 2,3.828 2,3 C2,2.172 2.293,1.465 2.879,0.879 C3.465,0.293 4.172,6.66133815e-16 5,0 C5.828,-5.55111512e-16 6.535,0.293 7.121,0.879 C7.707,1.465 8,2.172 8,3 C8,3.828 7.707,4.535 7.121,5.121 C6.535,5.707 5.828,6 5,6 Z M7.3541756,11 L2.03512331,11 C1.42048927,11 0.927481222,10.8341794 0.556099172,10.5025381 C0.184717121,10.1708968 -0.000648700782,9.71435164 1.70561117e-06,9.13290263 C1.70561117e-06,8.87817259 0.00878219192,8.6292878 0.0263431645,8.38624827 C0.0439041371,8.14320874 0.0793512856,7.88109522 0.13268461,7.59990771 C0.186017934,7.3187202 0.253334996,7.05783726 0.334635795,6.81725888 C0.415936594,6.57668051 0.525204868,6.34225504 0.662440617,6.11398246 C0.799676366,5.88570989 0.957074713,5.69097062 1.13463566,5.52976465 C1.3121966,5.36855868 1.52943234,5.23996308 1.78634286,5.14397785 C2.04325339,5.04799262 2.32650537,5 2.63609882,5 C2.73235896,5 2.83154594,5.04091678 2.93365974,5.12275035 C3.33496049,5.41624365 3.72748074,5.63620981 4.11122052,5.78264882 C4.49496029,5.92908783 4.9128464,6.00230734 5.36487884,6.00230734 C5.81691128,6.00230734 6.23479739,5.92908783 6.61853716,5.78264882 C6.64197181,5.77370592 6.6654392,5.76448881 6.68893934,5.75499748 C6.25409931,6.39507784 6,7.16786488 6,8 C6,9.19469253 6.52375489,10.2670555 7.3541756,11 Z" id="Shape"></path>
                <path d="M12.125,7.99800665 C12.125,7.58006659 12.0116667,7.19717636 11.785,6.84933595 L8.8395,9.78106251 C9.19616667,10.0119594 9.58283333,10.1274079 9.9995,10.1274079 C10.2885,10.1274079 10.5638333,10.0709295 10.8255,9.95797274 C11.0871667,9.84501597 11.313,9.69385323 11.503,9.50448453 C11.693,9.31511582 11.844,9.08870394 11.956,8.82524888 C12.068,8.56179383 12.124,8.28604641 12.124,7.99800665 L12.125,7.99800665 Z M8.2225,9.16212584 L11.1715,6.22641258 C10.8198333,5.99020003 10.4291667,5.87209376 9.9995,5.87209376 C9.61416667,5.87209376 9.25866667,5.96677811 8.933,6.15614682 C8.60733333,6.34551552 8.3495,6.60382108 8.1595,6.93106349 C7.9695,7.25830591 7.8745,7.61395362 7.8745,7.99800665 C7.8745,8.41860451 7.99033333,8.80664424 8.222,9.16212584 L8.2225,9.16212584 Z M13,7.99800665 C13,8.4056477 12.9205,8.79501634 12.7615,9.16611255 C12.6025,9.53720877 12.3896667,9.85647776 12.123,10.1239195 C11.8563333,10.3913613 11.5373333,10.6041519 11.166,10.7622914 C10.7946667,10.9204309 10.406,10.9996667 10,10.999999 C9.594,11.0003312 9.20533333,10.9210953 8.834,10.7622914 C8.46266667,10.6034875 8.14366667,10.3906968 7.877,10.1239195 C7.61033333,9.85714221 7.3975,9.53787322 7.2385,9.16611255 C7.0795,8.79435188 7,8.40498325 7,7.99800665 C7,7.59103004 7.0795,7.20232586 7.2385,6.83189409 C7.3975,6.46146233 7.61033333,6.14285779 7.877,5.87608047 C8.14366667,5.60930315 8.46266667,5.39651253 8.834,5.2377086 C9.20533333,5.07890467 9.594,4.99966881 10,5.00000104 C10.406,5.00033327 10.7946667,5.07956912 11.166,5.2377086 C11.5373333,5.39584808 11.8563333,5.6086387 12.123,5.87608047 C12.3896667,6.14352224 12.6025,6.46212678 12.7615,6.83189409 C12.9205,7.20166141 13,7.59036559 13,7.99800665 Z" id="Shape"></path>
            </g>
        </g>
    </g>
</svg>