<?xml version="1.0" encoding="UTF-8"?>
<svg width="16px" height="12px" viewBox="0 0 16 12" version="1.1" xmlns="http://www.w3.org/2000/svg" xmlns:xlink="http://www.w3.org/1999/xlink">
    <!-- Generator: Sketch 50.2 (55047) - http://www.bohemiancoding.com/sketch -->
    <title>follow</title>
    <desc>Created with Sketch.</desc>
    <defs></defs>
    <g id="WAP" stroke="none" stroke-width="1" fill="none" fill-rule="evenodd">
        <g id="WAP-FOLLOW-PROFILE" transform="translate(-40.000000, -310.000000)" fill="#B3B3B3" fill-rule="nonzero">
            <g id="Group-3" transform="translate(-1.000000, 295.000000)">
                <g id="Group-2" transform="translate(10.000000, 0.000000)">
                    <path d="M37.0526327,20.7 C36.2682117,20.7 35.5984223,20.42165 35.0432645,19.86495 C34.4881066,19.30825 34.2105277,18.6366 34.2105277,17.85 C34.2105277,17.0634 34.4881066,16.39175 35.0432645,15.83505 C35.5984223,15.27835 36.2682117,15 37.0526327,15 C37.8370536,15 38.506843,15.27835 39.0620009,15.83505 C39.6171587,16.39175 39.8947376,17.0634 39.8947376,17.85 C39.8947376,18.6366 39.6171587,19.30825 39.0620009,19.86495 C38.506843,20.42165 37.8370536,20.7 37.0526327,20.7 Z M44.157895,21.65 L46.7631579,21.65 C46.827579,21.65 46.8831579,21.6734333 46.9298947,21.7203 C46.9766316,21.7671667 47,21.8229 47,21.8875 L47,23.3125 C47,23.3771 46.9766316,23.4328333 46.9298947,23.4797 C46.8831579,23.5265667 46.827579,23.55 46.7631579,23.55 L44.157895,23.55 L44.157895,26.1625 C44.157895,26.2271 44.1345266,26.2828333 44.0877898,26.3297 C44.041053,26.3765667 43.985474,26.4 43.921053,26.4 L42.5000005,26.4 C42.4355794,26.4 42.3800005,26.3765667 42.3332637,26.3297 C42.2865268,26.2828333 42.2631584,26.2271 42.2631584,26.1625 L42.2631584,23.55 L39.6578955,23.55 C39.5934745,23.55 39.5378956,23.5265667 39.4911587,23.4797 C39.4444219,23.4328333 39.4210535,23.3771 39.4210535,23.3125 L39.4210535,21.8875 C39.4210535,21.8229 39.4444219,21.7671667 39.4911587,21.7203 C39.5378956,21.6734333 39.5934745,21.65 39.6578955,21.65 L42.2631584,21.65 L42.2631584,19.0375 C42.2631584,18.9729 42.2865268,18.9171667 42.3332637,18.8703 C42.3800005,18.8234333 42.4355794,18.8 42.5000005,18.8 L43.921053,18.8 C43.985474,18.8 44.041053,18.8234333 44.0877898,18.8703 C44.1345266,18.9171667 44.157895,18.9729 44.157895,19.0375 L44.157895,21.65 Z M38.7105272,23.3125 C38.7105272,23.5696333 38.8043167,23.79225 38.9918956,23.98035 C39.1794745,24.16845 39.4014745,24.2625 39.6578955,24.2625 L41.5526322,24.2625 L41.5526322,26.02855 C41.2172638,26.2761833 40.7953691,26.4 40.2869481,26.4 L33.8183172,26.4 C33.2214752,26.4 32.7427384,26.2293167 32.3821069,25.88795 C32.0214753,25.5465833 31.8414753,25.07665 31.8421069,24.47815 C31.8421069,24.21595 31.8506332,23.9597667 31.8676859,23.7096 C31.8847385,23.4594333 31.9191595,23.1896333 31.970949,22.9002 C32.0227385,22.6107667 32.0881069,22.3422333 32.1670543,22.0946 C32.2460016,21.8469667 32.3521069,21.6056667 32.48537,21.3707 C32.6186332,21.1357333 32.7714752,20.9352833 32.9438963,20.76935 C33.1163173,20.6034167 33.3272647,20.47105 33.5767383,20.37225 C33.826212,20.27345 34.1012646,20.22405 34.4018961,20.22405 C34.4953698,20.22405 34.5916856,20.2661667 34.6908435,20.3504 C35.0805276,20.6525 35.4616855,20.8789167 35.834317,21.02965 C36.2069485,21.1803833 36.612738,21.25575 37.0516853,21.25575 C37.4906326,21.25575 37.896422,21.1803833 38.2690536,21.02965 C38.6416851,20.8789167 39.022843,20.6525 39.4125271,20.3504 C39.5110534,20.2661667 39.6073692,20.22405 39.7014745,20.22405 C40.3526323,20.22405 40.8878954,20.46155 41.3072638,20.93655 L39.6569482,20.93655 C39.4005271,20.93655 39.1785272,21.0306 38.9909482,21.2187 C38.8033693,21.4068 38.7095799,21.6294167 38.7095799,21.88655 L38.7095799,23.31155 L38.7105272,23.3125 Z" id="follow"></path>
                </g>
            </g>
        </g>
    </g>
</svg>