<?xml version="1.0" encoding="UTF-8"?>
<svg width="20px" height="12px" viewBox="0 0 20 12" version="1.1" xmlns="http://www.w3.org/2000/svg" xmlns:xlink="http://www.w3.org/1999/xlink">
    <!-- Generator: Sketch 49.3 (51167) - http://www.bohemiancoding.com/sketch -->
    <title>Shape</title>
    <desc>Created with Sketch.</desc>
    <defs>
        <linearGradient x1="100%" y1="0%" x2="0%" y2="100%" id="linearGradient-1">
            <stop stop-color="#FE5080" offset="0%"></stop>
            <stop stop-color="#A803FF" offset="100%"></stop>
        </linearGradient>
    </defs>
    <g id="wap" stroke="none" stroke-width="1" fill="none" fill-rule="evenodd">
        <path d="M17.3913043,0 L2.60869565,0 C1.13041205,0 0,1.13041205 0,2.60869565 L0,8.69565217 C0,10.1739358 1.13041205,11.3043478 2.60869565,11.3043478 L17.3913043,11.3043478 C18.869588,11.3043478 20,10.1739358 20,8.69565217 L20,2.60869565 C20,1.13041205 18.869588,0 17.3913043,0 Z M7.82608696,3.47826087 L5.2173913,3.47826087 C4.69565217,3.47826087 4.34782609,3.82608696 4.34782609,4.34782609 L4.34782609,6.95652174 C4.34782609,7.47826087 4.69565217,7.82608696 5.2173913,7.82608696 L6.95652174,7.82608696 L6.95652174,6.08695652 L5.2173913,6.08695652 L5.2173913,5.2173913 L7.82608696,5.2173913 L7.82608696,6.08695652 L7.82608696,8 L7.82608696,8.69565217 L5.2173913,8.69565217 C4.26084683,8.69565217 3.47826087,7.91302074 3.47826087,6.95652174 L3.47826087,4.34782609 C3.47826087,3.39128161 4.26084683,2.60869565 5.2173913,2.60869565 L7.82608696,2.60869565 L7.82608696,3.47826087 Z M11.3043478,3.47826087 L10.4347826,3.47826087 L10.4347826,7.82608696 L11.3043478,7.82608696 L11.3043478,8.69565217 L8.69565217,8.69565217 L8.69565217,7.82608696 L9.56521739,7.82608696 L9.56521739,3.47826087 L8.69565217,3.47826087 L8.69565217,2.60869565 L11.3043478,2.60869565 L11.3043478,3.47826087 Z M16.5217391,3.47826087 L13.0434783,3.47826087 L13.0434783,5.2173913 L15.6521739,5.2173913 L15.6521739,6.08695652 L13.0434783,6.08695652 L13.0434783,8.69565217 L12.173913,8.69565217 L12.173913,2.60869565 L16.5217391,2.60869565 L16.5217391,3.47826087 Z" id="Shape" fill="url(#linearGradient-1)" fill-rule="nonzero"></path>
    </g>
</svg>