<?xml version="1.0" encoding="UTF-8"?>
<svg width="20px" height="20px" viewBox="0 0 20 20" version="1.1" xmlns="http://www.w3.org/2000/svg" xmlns:xlink="http://www.w3.org/1999/xlink">
    <!-- Generator: Sketch 49.1 (51147) - http://www.bohemiancoding.com/sketch -->
    <title>waiting verification</title>
    <desc>Created with Sketch.</desc>
    <defs>
        <polygon id="path-1" points="1.39911409e-21 0 12 0 12 12 0 12"></polygon>
    </defs>
    <g id="waiting-verification" stroke="none" stroke-width="1" fill="none" fill-rule="evenodd">
        <g id="Pending" transform="translate(1.000000, 1.000000)">
            <g id="Group-10">
                <circle id="Oval" fill="#636363" cx="9" cy="9" r="9"></circle>
                <g id="Page-1" transform="translate(3.000000, 3.000000)">
                    <g id="Group-3">
                        <mask id="mask-2" fill="white">
                            <use xlink:href="#path-1"></use>
                        </mask>
                        <g id="Clip-2"></g>
                        <path d="M11.6094511,4.00859701 C11.5150931,3.76355317 11.2368194,3.64005371 10.9876067,3.73288143 C10.7386263,3.82548063 10.6131167,4.09941887 10.7074231,4.3444881 C11.1709803,5.54903942 11.1419709,6.86436955 10.6257889,8.04843073 C10.0958765,9.26374763 9.11673087,10.2034251 7.86842216,10.6942745 C6.62019086,11.1850985 5.25236021,11.168417 4.01700766,10.6472005 C3.65877736,10.4960762 3.32444628,10.3078309 3.01770513,10.0868827 C2.26624739,9.54527763 1.68169709,8.80646449 1.32744139,7.9345035 C0.828474072,6.70654212 0.845353223,5.36097189 1.37518823,4.14545187 C1.90504904,2.93010958 2.88440113,1.9904067 4.13268404,1.49945574 C5.32707755,1.02983282 6.63090164,1.02615119 7.82348851,1.48333277 L7.48169861,2.05119159 C7.38783091,2.2071909 7.45999315,2.311292 7.64179245,2.28234682 L9.26546871,2.02448077 C9.44737125,1.99556097 9.54596201,1.8319699 9.48414921,1.6612187 L8.93338303,0.136493012 C8.87172509,-0.0342835778 8.74435718,-0.0465471955 8.65059273,0.109528287 L8.32103633,0.656973135 C6.86013806,0.0534406442 5.24748229,0.0392219569 3.77453117,0.618430337 C2.28715276,1.20340236 1.12024594,2.32309859 0.488748894,3.77144962 C-0.142670726,5.21974986 -0.162930869,6.82344004 0.431710784,8.28679686 C0.853973462,9.32600516 1.55035459,10.2062435 2.44605939,10.8516195 C2.81146462,11.1149445 3.21013778,11.3392443 3.63681381,11.5191869 C5.10906809,12.1402642 6.73893853,12.1602973 8.22636856,11.575503 C9.71400505,10.990658 10.8808086,9.87073323 11.5121508,8.42230603 C12.1272591,7.01153296 12.1618175,5.44387192 11.6094511,4.00859701" id="Fill-1" fill="#FFFFFF" mask="url(#mask-2)"></path>
                    </g>
                    <path d="M5.37832094,2 C5.16945417,2 5,2.17010067 5,2.38009499 L5,6.16710222 L8.44792726,7.9575933 C8.503395,7.98643329 8.56276397,8.00012475 8.62123267,7.99999914 C8.75822646,7.99999914 8.89044373,7.92516088 8.95771524,7.79442629 C9.05357088,7.60792099 8.98099768,7.37868326 8.79518828,7.282215 L5.75681695,5.70430579 L5.75681695,2.38009499 C5.75679194,2.17010067 5.58746281,2 5.37832094,2" id="Fill-4" fill="#FFFFFF"></path>
                </g>
            </g>
        </g>
    </g>
</svg>