<?xml version="1.0" encoding="UTF-8"?>
<svg width="15px" height="15px" viewBox="0 0 15 15" version="1.1" xmlns="http://www.w3.org/2000/svg" xmlns:xlink="http://www.w3.org/1999/xlink">
    <!-- Generator: Sketch 50 (54983) - http://www.bohemiancoding.com/sketch -->
    <title>chevron/down</title>
    <desc>Created with Sketch.</desc>
    <defs>
        <polygon id="path-1" points="0 0 7.5 0 7.5 9 0 9"></polygon>
    </defs>
    <g id="Symbols" stroke="none" stroke-width="1" fill="none" fill-rule="evenodd">
        <g id="post/nested-1st" transform="translate(-824.000000, -12.000000)">
            <g id="nested">
                <g id="chevron/down" transform="translate(824.000000, 12.000000)">
                    <g id="Group-16-Copy-8">
                        <rect id="Rectangle-7" fill="#C7C7C7" x="0" y="0" width="15" height="15" rx="1"></rect>
                        <g id="Page-1" transform="translate(3.750000, 3.000000)">
                            <mask id="mask-2" fill="white">
                                <use xlink:href="#path-1"></use>
                            </mask>
                            <g id="Clip-2"></g>
                            <path d="M6.8894769,4.28389508 C6.79533548,4.18344512 6.6413584,4.18344512 6.54641917,4.28389508 L4.37478393,6.58158225 L4.37478393,0.256611646 C4.37478393,0.114799947 4.26548414,0 4.13145228,0 L3.36874717,0 C3.23471532,0 3.12541553,0.114799947 3.12541553,0.256611646 L3.12541553,6.58158225 L0.954578092,4.28389508 C0.859638859,4.18344512 0.704863974,4.18344512 0.60992474,4.28389508 L0.0706060687,4.85451834 C-0.0235353562,4.95496829 -0.0235353562,5.11788292 0.0706060687,5.21833288 L3.57617743,8.92569587 C3.62324815,8.97718702 3.68787065,9.0008223 3.75009973,8.99997819 C3.81312661,9.0008223 3.8761535,8.97718702 3.92402202,8.92569587 L7.42879557,5.21833288 C7.52373481,5.11788292 7.52373481,4.95496829 7.42879557,4.85451834 L6.8894769,4.28389508 Z" id="Fill-1" fill="#FFFFFF" mask="url(#mask-2)"></path>
                        </g>
                    </g>
                </g>
            </g>
        </g>
    </g>
</svg>