<?xml version="1.0" encoding="UTF-8"?>
<svg width="120px" height="85px" viewBox="0 0 120 85" version="1.1" xmlns="http://www.w3.org/2000/svg" xmlns:xlink="http://www.w3.org/1999/xlink">
    <!-- Generator: Sketch 49.3 (51167) - http://www.bohemiancoding.com/sketch -->
    <title>KTP</title>
    <desc>Created with Sketch.</desc>
    <defs>
        <path d="M0,0 L119.195402,0 L119.195402,85 L0,85 L0,0 Z" id="path-1"></path>
        <mask id="mask-2" maskContentUnits="userSpaceOnUse" maskUnits="objectBoundingBox" x="0" y="0" width="119.195402" height="85" fill="white">
            <use xlink:href="#path-1"></use>
        </mask>
    </defs>
    <g id="DAY" stroke="none" stroke-width="1" fill="none" fill-rule="evenodd">
        <g id="05a-account-setting---profile---kyc1" transform="translate(-11.000000, -456.000000)">
            <g id="KTP" transform="translate(11.000000, 456.000000)">
                <use id="Image" stroke="#B3B3B3" mask="url(#mask-2)" stroke-width="2" fill="#D9D9D9" stroke-dasharray="3,2,3,2" xlink:href="#path-1"></use>
                <g id="Group-2" transform="translate(22.471264, 17.586207)">
                    <g id="image">
                        <path d="M64.8115934,49.5362419 L9.41644208,49.5362419 C4.2519125,49.5362419 0.0644124301,45.3554822 0.0644124301,40.1972763 L0.0644124301,9.53837191 C0.0644124301,4.38016608 4.2519125,0.197793437 9.41644208,0.197793437 L64.8115934,0.197793437 C69.9761229,0.197793437 74.163623,4.38016608 74.163623,9.53837191 L74.163623,40.1972763 C74.163623,45.3554822 69.9761229,49.5362419 64.8115934,49.5362419" id="Fill-58" fill="#B3B3B3"></path>
                        <path d="M9.97795144,48.5139558 C5.28982468,48.5139558 1.48829165,44.7170776 1.48829165,40.0346912 L1.48829165,9.24997691 C1.48829165,4.56759057 5.28982468,0.770712358 9.97795144,0.770712358 L64.701294,0.770712358 C69.3894208,0.770712358 73.1909538,4.56759057 73.1909538,9.24997691 L73.1909538,40.0346912 C73.1909538,44.7170776 69.3894208,48.5139558 64.701294,48.5139558 L9.97795144,48.5139558 Z" id="Fill-60" fill="#FFFFFF"></path>
                        <polygon id="Fill-62" fill-opacity="0.5" fill="#EBEBEB" points="43.3336959 29.0931724 64.2978349 29.0931724 64.2978349 8.14905023 43.3336959 8.14905023"></polygon>
                        <path d="M61.8293117,17.7576293 C61.8293117,22.1996865 58.2247995,25.7981722 53.7789114,25.7981722 C49.3330234,25.7981722 45.7268963,22.1996865 45.7268963,17.7576293 C45.7268963,13.3171851 49.3330234,9.71869943 53.7789114,9.71869943 C58.2247995,9.71869943 61.8293117,13.3171851 61.8293117,17.7576293" id="Fill-64" fill="#C7C7C7"></path>
                        <path d="M53.0182819,16.7322787 C53.0182819,18.0758639 52.199515,19.1662163 51.190187,19.1662163 C50.1808589,19.1662163 49.363707,18.0758639 49.363707,16.7322787 C49.363707,15.3886935 50.1808589,14.298341 51.190187,14.298341 C52.199515,14.298341 53.0182819,15.3886935 53.0182819,16.7322787" id="Fill-65" fill="#FEFEFE"></path>
                        <path d="M52.5609351,16.8661533 C52.5609351,17.7774686 51.9731025,18.5178115 51.2480013,18.5178115 C50.5229,18.5178115 49.9350674,17.7774686 49.9350674,16.8661533 C49.9350674,15.9532251 50.5229,15.2128822 51.2480013,15.2128822 C51.9731025,15.2128822 52.5609351,15.9532251 52.5609351,16.8661533" id="Fill-66" fill="#B3B3B3"></path>
                        <path d="M58.1926625,16.7322787 C58.1926625,18.0758639 57.3755105,19.1662163 56.3661825,19.1662163 C55.3568545,19.1662163 54.5397025,18.0758639 54.5397025,16.7322787 C54.5397025,15.3886935 55.3568545,14.298341 56.3661825,14.298341 C57.3755105,14.298341 58.1926625,15.3886935 58.1926625,16.7322787" id="Fill-68" fill="#FEFEFE"></path>
                        <path d="M57.7369307,16.8661533 C57.7369307,17.7774686 57.1490981,18.5178115 56.4239968,18.5178115 C55.6972806,18.5178115 55.109448,17.7774686 55.109448,16.8661533 C55.109448,15.9532251 55.6972806,15.2128822 56.4239968,15.2128822 C57.1490981,15.2128822 57.7369307,15.9532251 57.7369307,16.8661533" id="Fill-69" fill="#B3B3B3"></path>
                        <path d="M47.5364195,18.8965315 C47.5364195,18.8965315 48.279285,20.3159252 53.4744981,20.4094762 C59.4868632,20.5175437 59.6402811,18.5723291 59.6402811,18.5723291 C59.6402811,18.5723291 60.5947017,22.6724414 56.8997537,24.0321561 C54.0203427,25.0902496 52.2552299,24.4095858 52.2552299,24.4095858 C52.2552299,24.4095858 48.5053744,24.1386106 47.5364195,18.8965315" id="Fill-71" fill="#B3B3B3"></path>
                        <path d="M53.4362244,21.5711209 C57.956399,21.5711209 59.0852314,20.3017313 59.2612582,19.1936364 C58.6798853,19.7533292 57.2070739,20.4759296 53.4733677,20.4097988 C50.3662523,20.3533456 48.8514528,19.8226859 48.1376561,19.4049325 C48.4525664,20.2307616 49.5620198,21.5711209 53.4362244,21.5711209" id="Fill-72" fill="#FEFEFE"></path>
                        <path d="M55.828574,22.5492122 C54.4865715,22.2088803 54.0117836,22.6524409 53.8486762,23.0911626 C53.6871837,22.6524409 53.2123958,22.2088803 51.8703933,22.5492122 C51.0322473,22.7637342 50.4912475,23.137938 50.137579,23.5298842 C51.2438025,24.3331321 52.2547454,24.4089406 52.2547454,24.4089406 C52.2547454,24.4089406 54.0198582,25.0896044 56.8992692,24.0315109 C57.1867258,23.9266693 57.4434989,23.8008594 57.677663,23.6653718 C57.3288392,23.2250372 56.7620006,22.7863155 55.828574,22.5492122" id="Fill-73" fill="#D9D9D9"></path>
                        <path d="M51.4301648,28.2133997 C51.3494185,28.5343762 51.2719022,28.876321 51.1943858,29.2376213 L51.7192363,29.2376213 C51.8613497,28.4585677 52.090669,27.834357 52.4475674,27.5085416 C54.0964057,26.0004358 55.8534439,27.4907992 55.7387842,28.7021227 C55.722635,28.8682563 55.7113305,29.0505194 55.7032559,29.2376213 L56.3556855,29.2376213 C56.2943184,28.8698693 56.2442557,28.5166338 56.2071124,28.1795278 C56.4461213,28.5069561 56.6657511,28.8618045 56.8450077,29.2376213 L59.1898786,29.2376213 C58.2580669,27.3988612 56.9984256,26.2278614 56.0714587,25.5520364 C56.0827632,24.8068547 56.1328259,24.368133 56.1328259,24.368133 L52.628439,24.553622 C52.628439,24.553622 52.5234689,24.7762087 52.3603615,25.1988009 C51.0022097,26.1665694 49.4454222,27.3907965 48.3198196,29.2376213 L50.6905292,29.2376213 C50.9117739,28.8650304 51.168547,28.5198597 51.4301648,28.2133997" id="Fill-74" fill="#C7C7C7"></path>
                        <path d="M52.4474059,27.5077352 C52.0905075,27.8335505 51.8611882,28.4593741 51.7190748,29.2368148 L55.7030944,29.2368148 C55.711169,29.0497129 55.7224735,28.8690628 55.7386227,28.7013162 C55.8532824,27.4899927 54.0962442,25.9996293 52.4474059,27.5077352" id="Fill-75" fill="#D9D9D9"></path>
                        <polygon id="Fill-76" fill="#C7C7C7" points="9.48168504 10.4122668 31.2363373 10.4122668 31.2363373 8.29285392 9.48168504 8.29285392"></polygon>
                        <polygon id="Fill-77" fill="#C7C7C7" points="9.48168504 16.6882452 24.5214799 16.6882452 24.5214799 14.5688323 9.48168504 14.5688323"></polygon>
                        <polygon id="Fill-78" fill="#C7C7C7" points="9.48168504 41.785707 21.856854 41.785707 21.856854 39.667907 9.48168504 39.667907"></polygon>
                        <polygon id="Fill-79" fill="#C7C7C7" points="9.48168504 22.9626106 26.7888344 22.9626106 26.7888344 20.8431977 9.48168504 20.8431977"></polygon>
                        <polygon id="Fill-80" fill="#C7C7C7" points="9.48168504 29.2369761 29.8006692 29.2369761 29.8006692 27.1175632 9.48168504 27.1175632"></polygon>
                        <polygon id="Fill-81" fill="#C7C7C7" points="9.36944777 35.8797638 36.1852745 35.8797638 36.1852745 33.7603509 9.36944777 33.7603509"></polygon>
                        <path d="M57.5655702,16.0227979 C57.5655702,16.6143117 57.2184793,17.0918864 56.7937177,17.0918864 C56.366529,17.0918864 56.0194381,16.6143117 56.0194381,16.0227979 C56.0194381,15.4312841 56.366529,14.9512852 56.7937177,14.9512852 C57.2184793,14.9512852 57.5655702,15.4312841 57.5655702,16.0227979" id="Fill-70" fill="#FEFEFE"></path>
                        <path d="M52.4370334,16.0227979 C52.4370334,16.6143117 52.0899425,17.0918864 51.6651809,17.0918864 C51.2379921,17.0918864 50.8909013,16.6143117 50.8909013,16.0227979 C50.8909013,15.4312841 51.2379921,14.9512852 51.6651809,14.9512852 C52.0899425,14.9512852 52.4370334,15.4312841 52.4370334,16.0227979" id="Fill-70" fill="#FEFEFE"></path>
                    </g>
                </g>
                <g id="add" transform="translate(95.747126, 6.839080)">
                    <path d="M-1.137e-13,8.21039799 C-1.137e-13,12.7261169 3.6946791,16.420796 8.21039799,16.420796 C12.7261169,16.420796 16.420796,12.7261169 16.420796,8.21039799 C16.420796,3.6946791 12.7261169,7.82e-14 8.21039799,7.82e-14 C3.6946791,7.82e-14 -1.137e-13,3.6946791 -1.137e-13,8.21039799 Z" id="Shape" fill="#0082C6"></path>
                    <polygon id="Path" fill="#FFFFFF" points="12.0741147 8.98314133 8.98314133 8.98314133 8.98314133 12.0741147 7.43765465 12.0741147 7.43765465 8.98314133 4.34668129 8.98314133 4.34668129 7.43765465 7.43765465 7.43765465 7.43765465 4.34668129 8.98314133 4.34668129 8.98314133 7.43765465 12.0741147 7.43765465"></polygon>
                </g>
            </g>
        </g>
    </g>
</svg>