<?xml version="1.0" encoding="UTF-8"?>
<svg width="120px" height="85px" viewBox="0 0 120 85" version="1.1" xmlns="http://www.w3.org/2000/svg" xmlns:xlink="http://www.w3.org/1999/xlink">
    <!-- Generator: Sketch 49.3 (51167) - http://www.bohemiancoding.com/sketch -->
    <title>Wajah + KTP</title>
    <desc>Created with Sketch.</desc>
    <defs>
        <path d="M0,0 L119.73913,0 L119.73913,84.6323697 L0,84.6323697 L0,0 Z" id="path-1"></path>
        <mask id="mask-2" maskContentUnits="userSpaceOnUse" maskUnits="objectBoundingBox" x="0" y="0" width="119.73913" height="84.6323697" fill="white">
            <use xlink:href="#path-1"></use>
        </mask>
    </defs>
    <g id="DAY" stroke="none" stroke-width="1" fill="none" fill-rule="evenodd">
        <g id="05a-account-setting---profile---kyc1" transform="translate(-11.000000, -627.000000)">
            <g id="Wajah-+-KTP" transform="translate(11.000000, 627.000000)">
                <use id="Image" stroke="#B3B3B3" mask="url(#mask-2)" stroke-width="2" fill="#D9D9D9" stroke-dasharray="3,2,3,2" xlink:href="#path-1"></use>
                <g id="Group-3" transform="translate(22.255179, 15.515934)">
                    <g id="image">
                        <polygon id="Fill-1" points="0 68.9597086 68.9597086 68.9597086 68.9597086 0 0 0"></polygon>
                        <path d="M15.1408921,34.4354246 C16.8648849,33.4532413 19.1149416,33.856163 19.0518928,35.6501006 C18.9888439,37.4460084 17.8766223,37.8922762 16.2245447,39.9177214 C14.5724671,41.9451368 17.8244099,54.1963216 24.6819604,50.3858052 C31.5395109,46.5762738 38.0158126,46.8304396 38.0158126,46.8304396 C38.0158126,46.8304396 39.5398222,51.5295512 35.4761251,51.5295512 C31.412428,51.5295512 23.9608389,60.1357228 17.7958409,57.0985402 C11.630843,54.0613576 8.78576242,44.006047 8.02227993,43.224832 C7.25879744,42.4426319 4.57922019,39.8576279 2.67100654,36.6480461 C-0.444987148,31.4071082 5.25206992,35.6343383 5.25206992,35.6343383 C4.05512641,34.3881379 6.91695432,34.254159 6.91695432,34.254159 C4.86392528,31.3076092 8.84585588,33.5675174 8.84585588,33.5675174 C8.84585588,33.5675174 6.51797315,24.3013028 7.90307815,23.4875782 C9.31872245,22.6561212 11.0092205,27.2458824 11.4712505,30.4259101 C11.9352508,33.6039675 13.4178846,35.4176078 15.1408921,34.4354246 Z" id="Fill-2" fill="#C7C7C7"></path>
                        <path d="M14.6820145,34.6326493 C14.7086133,34.6267385 14.7302863,34.6129466 14.7549148,34.6060506 C13.2003659,35.1301444 11.900968,33.3637907 11.4714475,30.425122 C11.0084323,27.2460794 9.31891948,22.6563182 7.90327518,23.4877753 C6.91518107,24.0670368 7.81559783,28.9474139 8.41456216,31.6979212 C7.74663813,28.9956857 4.21491591,28.6676345 5.55667481,31.7461929 C4.43263156,29.7808413 3.08791724,32.5441553 4.53607112,34.6966833 C3.58245686,33.4701857 -0.444790121,31.4073052 2.67120357,36.6482431 C3.41104273,37.8924733 4.26614312,39.041145 5.08085282,40.0292391 C5.08183796,40.028254 7.70920286,38.5830555 9.57505554,38.5623676 C11.4428785,38.5426648 10.792687,35.5458729 14.6820145,34.6326493" id="Fill-4" fill="#B3B3B3"></path>
                        <path d="M9.46481852,24.8630289 C9.2579394,24.5536953 9.05303055,23.7064761 8.29841431,23.9340431 C7.54576835,24.160625 7.90238855,26.3496032 8.01173895,27.513052 C8.19793016,29.4862848 9.48649157,33.5066358 10.7937706,32.5638581 C11.2400385,32.2427029 10.8361316,26.9190133 9.46481852,24.8630289" id="Fill-6" fill="#C7C7C7"></path>
                        <path d="M7.28766201,29.9637815 C7.28766201,29.9637815 6.15376737,29.3342779 5.96757616,29.7283334 C5.78335522,30.1214037 5.22182617,31.3262283 5.80010258,32.2739317 C6.37936413,33.2216352 7.61571319,36.6075569 8.68951437,36.3967372 C9.76331555,36.1849324 10.3031716,35.4184945 9.77316693,34.5180777 C9.24316232,33.6176609 8.02848631,30.5331917 7.28766201,29.9637815" id="Fill-8" fill="#C7C7C7"></path>
                        <path d="M5.38092606,32.0061711 C5.38092606,32.0061711 4.48740527,31.2515548 4.35047099,32.0140522 C4.21353671,32.7755644 4.31697627,34.3714891 4.78984285,35.308356 C5.26369456,36.2442377 6.53058292,37.837207 7.11477017,36.8057668 C7.69994255,35.7743266 5.38092606,32.0061711 5.38092606,32.0061711" id="Fill-10" fill="#C7C7C7"></path>
                        <path d="M3.86657086,34.719243 C3.86657086,34.719243 2.63514749,33.4858494 2.08051441,33.7695693 C1.52391105,34.0523041 2.03322775,35.3211628 2.26177993,35.6501991 C2.49131724,35.9782503 3.30602695,38.4174537 4.28426967,38.1366891 C5.26251239,37.8559246 5.2270474,36.4491466 3.86657086,34.719243" id="Fill-12" fill="#C7C7C7"></path>
                        <path d="M33.5641679,47.2422276 C33.9424612,48.4273494 34.0064952,50.1109515 32.1101032,51.3384343 C28.8719523,53.4338243 24.1157027,58.5506347 18.8796905,56.4542595 C17.8216516,56.0296647 16.6828312,55.7518556 15.5390852,55.5735455 C16.2365634,56.1774356 16.9872391,56.6995591 17.7960379,57.0985402 C23.9610359,60.1357228 31.4116398,51.5295512 35.475337,51.5295512 C39.5390341,51.5295512 38.0160097,46.8304396 38.0160097,46.8304396 C38.0160097,46.8304396 36.2388195,46.762465 33.5641679,47.2422276" id="Fill-14" fill="#B3B3B3"></path>
                        <path d="M47.6321455,68.3581829 C44.6678632,56.5483403 47.2085358,44.2902595 47.2085358,44.2902595 L38.4319352,43.6627261 C38.4319352,43.6627261 33.0875578,54.0451028 30.1538148,68.9591175 L47.777946,68.9591175 C47.7306594,68.7542087 47.6814024,68.5532404 47.6321455,68.3581829" id="Fill-16" fill="#C7C7C7"></path>
                        <path d="M47.2089299,44.2906535 L38.4323293,43.6621351 C38.4323293,43.6621351 37.4422649,45.2225948 36.0808032,48.1839217 C38.6155651,49.5384874 41.974888,50.5590911 46.3351119,50.5384031 C46.6139061,46.7081839 47.2089299,44.2906535 47.2089299,44.2906535" id="Fill-18" fill="#B3B3B3"></path>
                        <path d="M64.8490204,26.9728019 C64.8490204,38.117676 55.8152986,47.1504127 44.6723948,47.1504127 C33.5275207,47.1504127 24.4928138,38.117676 24.4928138,26.9728019 C24.4928138,15.828913 33.5275207,6.79519117 44.6723948,6.79519117 C55.8152986,6.79519117 64.8490204,15.828913 64.8490204,26.9728019" id="Fill-20" fill="#C7C7C7"></path>
                        <path d="M43.6560272,9.20759881 C54.117215,9.20759881 62.7499854,16.5685551 64.0651455,26.0958315 C63.6050858,15.7804442 55.1003834,7.55650636 44.6717052,7.55650636 C39.1174932,7.55650636 34.1120035,9.8922702 30.5724002,13.6308715 C34.129736,10.8685426 38.6869876,9.20759881 43.6560272,9.20759881" id="Fill-22" fill="#D9D9D9"></path>
                        <path d="M42.7641811,24.398339 C42.7641811,27.7694836 40.7131224,30.5032435 38.1842713,30.5032435 C35.6554203,30.5032435 33.6053467,27.7694836 33.6053467,24.398339 C33.6053467,21.0252241 35.6554203,18.2924493 38.1842713,18.2924493 C40.7131224,18.2924493 42.7641811,21.0252241 42.7641811,24.398339" id="Fill-24" fill="#FEFEFE"></path>
                        <path d="M41.6193515,24.7322025 C41.6193515,27.0236351 40.145584,28.8816067 38.3280031,28.8816067 C36.5104222,28.8816067 35.0356696,27.0236351 35.0356696,24.7322025 C35.0356696,22.4397847 36.5104222,20.5818132 38.3280031,20.5818132 C40.145584,20.5818132 41.6193515,22.4397847 41.6193515,24.7322025" id="Fill-26" fill="#B3B3B3"></path>
                        <path d="M39.9492458,23.7537627 C39.9492458,24.7408717 39.3719546,25.5417895 38.6616696,25.5417895 C37.9503994,25.5417895 37.3740933,24.7408717 37.3740933,23.7537627 C37.3740933,22.7656686 37.9503994,21.9647509 38.6616696,21.9647509 C39.3719546,21.9647509 39.9492458,22.7656686 39.9492458,23.7537627" id="Fill-28" fill="#FEFEFE"></path>
                        <path d="M55.7374726,24.398339 C55.7374726,27.7694836 53.687399,30.5032435 51.158548,30.5032435 C48.6296969,30.5032435 46.5796233,27.7694836 46.5796233,24.398339 C46.5796233,21.0252241 48.6296969,18.2924493 51.158548,18.2924493 C53.687399,18.2924493 55.7374726,21.0252241 55.7374726,24.398339" id="Fill-30" fill="#FEFEFE"></path>
                        <path d="M54.5926429,24.7322025 C54.5926429,27.0236351 53.1198606,28.8816067 51.3012946,28.8816067 C49.4827285,28.8816067 48.008961,27.0236351 48.008961,24.7322025 C48.008961,22.4397847 49.4827285,20.5818132 51.3012946,20.5818132 C53.1198606,20.5818132 54.5926429,22.4397847 54.5926429,24.7322025" id="Fill-32" fill="#B3B3B3"></path>
                        <path d="M52.9253942,23.7537627 C52.9253942,24.7408717 52.3471178,25.5417895 51.6368328,25.5417895 C50.9255627,25.5417895 50.3492565,24.7408717 50.3492565,23.7537627 C50.3492565,22.7656686 50.9255627,21.9647509 51.6368328,21.9647509 C52.3471178,21.9647509 52.9253942,22.7656686 52.9253942,23.7537627" id="Fill-34" fill="#FEFEFE"></path>
                        <path d="M29.0251414,29.829113 C29.0251414,29.829113 30.8860684,33.3913746 43.9076316,33.6258376 C58.9822239,33.8977359 59.3624875,29.0153885 59.3624875,29.0153885 C59.3624875,29.0153885 61.7563745,39.3031919 52.4911451,42.7147272 C45.2779595,45.3716462 40.8546868,43.6624306 40.8546868,43.6624306 C40.8546868,43.6624306 31.451538,42.9846552 29.0251414,29.829113" id="Fill-36" fill="#B3B3B3"></path>
                        <path d="M43.8128613,36.5432273 C55.1439265,36.5432273 57.9722597,33.3553185 58.414587,30.5752571 C56.9575669,31.9780946 53.2632968,33.7946904 43.9084197,33.6262316 C36.1159727,33.4853568 32.3222035,32.1534493 30.5312214,31.1062469 C31.3213026,33.1760233 34.1003789,36.5432273 43.8128613,36.5432273" id="Fill-38" fill="#FEFEFE"></path>
                        <path d="M49.8112723,38.9974048 C46.4480088,38.1432896 45.2579612,39.254526 44.8501138,40.3559111 C44.4432515,39.254526 43.2522188,38.1432896 39.8879702,38.9974048 C37.7886396,39.53135 36.4340739,40.4741277 35.5444937,41.4602516 C38.3206145,43.4758453 40.8543913,43.6620365 40.8543913,43.6620365 C40.8543913,43.6620365 45.277664,45.3722373 52.4918347,42.7143331 C53.2139413,42.4493308 53.8562518,42.138027 54.4433944,41.797169 C53.5695764,40.6898731 52.1480213,39.5924286 49.8112723,38.9974048" id="Fill-40" fill="#D9D9D9"></path>
                        <path d="M44.8720824,54.9578338 C45.5400064,51.9777893 41.6349167,47.7190347 37.062888,50.9571856 C34.2956334,52.9185967 33.2730594,62.9246505 32.8977216,68.9596101 L44.030774,68.9596101 C43.8711815,64.3304434 44.1972624,57.9733434 44.8720824,54.9578338" id="Fill-42" fill="#D9D9D9"></path>
                        <path d="M16.2241506,39.9181154 C16.2655265,39.8668882 16.304932,39.8215719 16.3463078,39.7742852 C15.0065192,40.6707614 13.3317834,41.583985 11.9092432,41.7288004 C12.6884879,41.7514586 13.9297626,41.911051 14.3139667,42.6725632 C14.7740265,43.5887422 16.7108092,47.5430889 18.648577,49.1124149 C16.1049489,46.0673512 15.2143835,41.1584051 16.2241506,39.9181154 M11.9092432,41.7288004 C11.5270094,41.7169787 11.2551111,41.7386518 11.2551111,41.7386518 C11.4649456,41.7573694 11.6846315,41.7514586 11.9092432,41.7288004" id="Fill-44" fill="#B3B3B3"></path>
                        <path d="M24.3005147,50.8941367 C24.3005147,50.8941367 31.9195774,47.2116883 32.6820747,47.9732005 C33.4435869,48.7356979 29.6340556,51.0212196 26.9672851,51.9098147 C24.3005147,52.799395 19.3777766,54.0278629 17.4360683,50.4547649 C17.4360683,50.4547649 21.5066614,52.9264779 24.3005147,50.8941367" id="Fill-46" fill="#D9D9D9"></path>
                        <path d="M46.6883826,47.1940543 C46.5268199,48.3417409 46.3682125,49.7908799 46.2765946,51.4715265 C49.0290722,52.6418713 53.2888119,55.3776014 54.7773564,59.1487124 C55.5763039,61.1731724 56.3328904,66.1431971 56.9436764,68.9597086 L65.5055168,68.9597086 C60.2566979,51.7365288 51.8682419,48.6185649 46.6883826,47.1940543" id="Fill-48" fill="#C7C7C7"></path>
                        <path d="M47.2775941,51.9353298 C47.7061294,50.0172648 48.519854,48.8203213 49.294173,48.0834375 C48.2972126,47.6785455 47.4105878,47.3938404 46.6884811,47.1948424 C46.5269184,48.342529 46.3683111,49.791668 46.2766932,51.4723146 C46.5929227,51.6072786 46.9268847,51.7599751 47.2775941,51.9353298 Z" id="Fill-50" fill="#B3B3B3"></path>
                        <path d="M49.9516545,49.3702257 C46.9036354,52.164079 55.1581125,53.6880886 59.7301412,58.7674637 C61.5930385,60.8392104 63.0145936,65.957991 64.0430784,68.9597086 L65.0439793,68.9597086 C60.4305748,52.7669839 50.8481308,49.8854532 49.9516545,49.3702257" id="Fill-52" fill="#D9D9D9"></path>
                        <path d="M10.3599155,34.2525828 C9.57081945,34.2525828 8.93047929,33.6132278 8.93047929,32.8231466 L8.93047929,23.2781378 C8.93047929,22.4900268 9.57081945,21.8496867 10.3599155,21.8496867 L26.1053873,21.8496867 C26.8944834,21.8496867 27.5338384,22.4900268 27.5338384,23.2781378 L27.5338384,32.8231466 C27.5338384,33.6132278 26.8944834,34.2525828 26.1053873,34.2525828 L10.3599155,34.2525828 Z" id="Fill-54" fill="#B3B3B3"></path>
                        <path d="M25.9235307,33.994772 L10.6548661,33.994772 C9.89926469,33.994772 9.28749356,33.3830009 9.28749356,32.6273995 L9.28749356,23.3601998 C9.28749356,22.6055836 9.89926469,21.9928273 10.6548661,21.9928273 L25.9235307,21.9928273 C26.6781469,21.9928273 27.2909032,22.6055836 27.2909032,23.3601998 L27.2909032,32.6273995 C27.2909032,33.3830009 26.6781469,33.994772 25.9235307,33.994772" id="Fill-56" fill="#FFFFFF"></path>
                        <polygon id="Fill-58" fill-opacity="0.5" fill="#EBEBEB" points="19.8160648 29.1492688 25.080646 29.1492688 25.080646 23.8846877 19.8160648 23.8846877"></polygon>
                        <path d="M24.4371534,26.2636991 C24.4371534,27.3798612 23.5327961,28.2852037 22.416634,28.2852037 C21.2994867,28.2852037 20.3951294,27.3798612 20.3951294,26.2636991 C20.3951294,25.1475369 21.2994867,24.2421945 22.416634,24.2421945 C23.5327961,24.2421945 24.4371534,25.1475369 24.4371534,26.2636991" id="Fill-60" fill="#C7C7C7"></path>
                        <path d="M22.2254185,26.0058883 C22.2254185,26.3437909 22.0195246,26.6176594 21.7663439,26.6176594 C21.5131633,26.6176594 21.3072693,26.3437909 21.3072693,26.0058883 C21.3072693,25.6679857 21.5131633,25.3941172 21.7663439,25.3941172 C22.0195246,25.3941172 22.2254185,25.6679857 22.2254185,26.0058883" id="Fill-61" fill="#FEFEFE"></path>
                        <path d="M22.1109454,26.03958 C22.1109454,26.2681322 21.9631746,26.4553086 21.780924,26.4553086 C21.5986733,26.4553086 21.4509025,26.2681322 21.4509025,26.03958 C21.4509025,25.8100427 21.5986733,25.6238515 21.780924,25.6238515 C21.9631746,25.6238515 22.1109454,25.8100427 22.1109454,26.03958" id="Fill-62" fill="#B3B3B3"></path>
                        <path d="M21.9435704,25.9414602 C21.9435704,26.0409592 21.8854472,26.1207555 21.8145172,26.1207555 C21.7435872,26.1207555 21.685464,26.0409592 21.685464,25.9414602 C21.685464,25.8419612 21.7435872,25.762165 21.8145172,25.762165 C21.8854472,25.762165 21.9435704,25.8419612 21.9435704,25.9414602" id="Fill-63" fill="#FEFEFE"></path>
                        <path d="M23.525112,26.0058883 C23.525112,26.3437909 23.319218,26.6176594 23.0660374,26.6176594 C22.8128568,26.6176594 22.6069628,26.3437909 22.6069628,26.0058883 C22.6069628,25.6679857 22.8128568,25.3941172 23.0660374,25.3941172 C23.319218,25.3941172 23.525112,25.6679857 23.525112,26.0058883" id="Fill-64" fill="#FEFEFE"></path>
                        <path d="M23.4106389,26.03958 C23.4106389,26.2681322 23.2628681,26.4553086 23.0806174,26.4553086 C22.8983668,26.4553086 22.750596,26.2681322 22.750596,26.03958 C22.750596,25.8100427 22.8983668,25.6238515 23.0806174,25.6238515 C23.2628681,25.6238515 23.4106389,25.8100427 23.4106389,26.03958" id="Fill-65" fill="#B3B3B3"></path>
                        <path d="M23.2432638,25.9414602 C23.2432638,26.0409592 23.1851407,26.1207555 23.1142107,26.1207555 C23.0432807,26.1207555 22.9851575,26.0409592 22.9851575,25.9414602 C22.9851575,25.8419612 23.0432807,25.762165 23.1142107,25.762165 C23.1851407,25.762165 23.2432638,25.8419612 23.2432638,25.9414602" id="Fill-66" fill="#FEFEFE"></path>
                        <path d="M20.8486872,26.5494878 C20.8486872,26.5494878 21.0348784,26.906108 22.3401872,26.9307365 C23.8504048,26.9573352 23.8878401,26.4687064 23.8878401,26.4687064 C23.8878401,26.4687064 24.1272288,27.4991615 23.2002133,27.8410047 C22.4771215,28.1069921 22.0338091,27.935578 22.0338091,27.935578 C22.0338091,27.935578 21.0920165,27.8676034 20.8486872,26.5494878" id="Fill-67" fill="#B3B3B3"></path>
                        <path d="M22.3302373,27.2229286 C23.4651171,27.2229286 23.7478519,26.9037437 23.7921831,26.6249494 C23.6473677,26.7648391 23.2769556,26.9470898 22.3400887,26.9303424 C21.5598588,26.9155654 21.1795953,26.7835568 20.9993149,26.6781469 C21.078126,26.8850261 21.3579054,27.2229286 22.3302373,27.2229286" id="Fill-68" fill="#FEFEFE"></path>
                        <path d="M22.931566,27.4682282 C22.5936634,27.3825211 22.4754467,27.4938418 22.4340709,27.6051624 C22.3936802,27.4938418 22.2744785,27.3825211 21.9365759,27.4682282 C21.7267413,27.5224108 21.5917773,27.615999 21.5021297,27.7145128 C21.7799388,27.9164663 22.0341046,27.936169 22.0341046,27.936169 C22.0341046,27.936169 22.477417,28.106598 23.1995237,27.8406106 C23.272424,27.814997 23.336458,27.7824874 23.3955663,27.7489927 C23.3078889,27.637672 23.1650438,27.5283216 22.931566,27.4682282" id="Fill-69" fill="#D9D9D9"></path>
                        <path d="M21.827127,28.8920491 C21.8064391,28.9728305 21.7867363,29.0585376 21.7670335,29.1491703 L21.8990421,29.1491703 C21.9345071,28.9531277 21.9926303,28.7964907 22.0822779,28.713739 C22.4970213,28.3364309 22.9373783,28.7097985 22.9088093,29.0142063 C22.9048687,29.0565673 22.9019133,29.1028688 22.899943,29.1491703 L23.063476,29.1491703 C23.0477138,29.0575524 23.0358922,28.9679048 23.0260408,28.8831829 C23.0861342,28.9659345 23.141302,29.0555821 23.1866184,29.1491703 L23.7757313,29.1491703 C23.5402832,28.6871403 23.2250388,28.3925838 22.9925461,28.2221548 C22.9955015,28.0359636 23.0073231,27.9256281 23.0073231,27.9256281 L22.1275943,27.9719296 C22.1275943,27.9719296 22.1009955,28.0280825 22.0596197,28.1334923 C21.7197469,28.3778067 21.3286468,28.68517 21.045912,29.1491703 L21.6409358,29.1491703 C21.6961035,29.0555821 21.7611227,28.9688899 21.827127,28.8920491" id="Fill-70" fill="#C7C7C7"></path>
                        <path d="M22.0820809,28.7140346 C21.9924332,28.7967862 21.9352952,28.9534233 21.8988451,29.1484807 L22.899746,29.1484807 C22.9017163,29.1031643 22.9046717,29.0568628 22.9086122,29.0145019 C22.9371813,28.710094 22.4968243,28.3357413 22.0820809,28.7140346" id="Fill-71" fill="#D9D9D9"></path>
                        <polygon id="Fill-72" fill="#C7C7C7" points="11.2946151 24.4176477 16.7562241 24.4176477 16.7562241 23.8846877 11.2946151 23.8846877"></polygon>
                        <polygon id="Fill-73" fill="#C7C7C7" points="11.2946151 25.9948547 15.0706518 25.9948547 15.0706518 25.4618947 11.2946151 25.4618947"></polygon>
                        <polygon id="Fill-74" fill="#C7C7C7" points="11.2946151 32.3036829 14.4017426 32.3036829 14.4017426 31.7707229 11.2946151 31.7707229"></polygon>
                        <polygon id="Fill-75" fill="#C7C7C7" points="11.2946151 27.5720618 15.6400619 27.5720618 15.6400619 27.0391018 11.2946151 27.0391018"></polygon>
                        <polygon id="Fill-76" fill="#C7C7C7" points="11.2946151 29.1492688 16.3966484 29.1492688 16.3966484 28.6163088 11.2946151 28.6163088"></polygon>
                        <polygon id="Fill-77" fill="#C7C7C7" points="11.2946151 30.7264759 18.0280381 30.7264759 18.0280381 30.1935159 11.2946151 30.1935159"></polygon>
                        <path d="M14.4395719,40.8994121 C16.1615943,40.0659848 16.8886267,39.2956063 18.6057234,37.9558177 C20.0223529,36.8514772 25.6967518,35.7973788 22.636911,33.9866939 C19.5770702,32.1769941 17.7663853,35.2368349 15.8079296,35.5530644 C15.1498569,35.6752216 14.6188671,35.3048095 13.1145604,35.691969 C11.1226099,36.2042411 10.1414118,38.0838857 9.92074071,38.9675551 C9.79365782,39.4798272 12.7175495,41.7338246 14.4395719,40.8994121" id="Fill-78" fill="#C7C7C7"></path>
                        <path d="M18.5089828,34.79037 C18.5089828,34.79037 20.3452814,33.277197 21.6890105,33.9057155 C23.0327397,34.534234 23.4868886,35.3558396 22.4426416,35.6247825 C21.3993798,35.8917551 20.5817146,34.4682297 18.5089828,34.79037" id="Fill-79" fill="#D9D9D9"></path>
                    </g>
                </g>
                <g id="add" transform="translate(96.365582, 6.447075)">
                    <path d="M0.208090794,8.55279503 C0.208090794,13.1423824 3.9632077,16.8974993 8.55279503,16.8974993 C13.1423824,16.8974993 16.8974993,13.1423824 16.8974993,8.55279503 C16.8974993,3.9632077 13.1423824,0.208090794 8.55279503,0.208090794 C3.9632077,0.208090794 0.208090794,3.9632077 0.208090794,8.55279503 Z" id="Shape" fill="#0082C6"></path>
                    <polygon id="Path" fill="#FFFFFF" points="12.7251471 9.38726545 9.38726545 9.38726545 9.38726545 12.7251471 7.71832461 12.7251471 7.71832461 9.38726545 4.38044291 9.38726545 4.38044291 7.71832461 7.71832461 7.71832461 7.71832461 4.38044291 9.38726545 4.38044291 9.38726545 7.71832461 12.7251471 7.71832461"></polygon>
                </g>
            </g>
        </g>
    </g>
</svg>