<?xml version="1.0" encoding="UTF-8"?>
<svg width="12px" height="13px" viewBox="0 0 12 13" version="1.1" xmlns="http://www.w3.org/2000/svg" xmlns:xlink="http://www.w3.org/1999/xlink">
    <!-- Generator: Sketch 48.2 (47327) - http://www.bohemiancoding.com/sketch -->
    <title>Shape</title>
    <desc>Created with Sketch.</desc>
    <defs></defs>
    <g id="qr-code-profile-3-rev" stroke="none" stroke-width="1" fill="none" fill-rule="evenodd" transform="translate(-1168.000000, -255.000000)">
        <g id="ban" transform="translate(1168.000000, 255.000000)" fill="#000000" fill-rule="nonzero">
            <path d="M10.25,6.977 C10.25,6.13833333 10.0233333,5.37 9.57,4.672 L3.679,10.555 C4.39233333,11.0183333 5.16566667,11.25 5.999,11.25 C6.577,11.25 7.12766667,11.1366667 7.651,10.91 C8.17433333,10.6833333 8.626,10.38 9.006,10 C9.386,9.62 9.688,9.16566667 9.912,8.637 C10.136,8.10833333 10.248,7.555 10.248,6.977 L10.25,6.977 Z M2.445,9.313 L8.343,3.422 C7.63966667,2.948 6.85833333,2.711 5.999,2.711 C5.22833333,2.711 4.51733333,2.901 3.866,3.281 C3.21466667,3.661 2.699,4.17933333 2.319,4.836 C1.939,5.49266667 1.749,6.20633333 1.749,6.977 C1.749,7.821 1.98066667,8.59966667 2.444,9.313 L2.445,9.313 Z M12,6.977 C12,7.795 11.841,8.57633333 11.523,9.321 C11.205,10.0656667 10.7793333,10.7063333 10.246,11.243 C9.71266667,11.7796667 9.07466667,12.2066667 8.332,12.524 C7.58933333,12.8413333 6.812,13.0003333 6,13.001 C5.188,13.0016667 4.41066667,12.8426667 3.668,12.524 C2.92533333,12.2053333 2.28733333,11.7783333 1.754,11.243 C1.22066667,10.7076667 0.795,10.067 0.477,9.321 C0.159,8.575 -5.18104078e-16,7.79366667 0,6.977 C5.18104078e-16,6.16033333 0.159,5.38033333 0.477,4.637 C0.795,3.89366667 1.22066667,3.25433333 1.754,2.719 C2.28733333,2.18366667 2.92533333,1.75666667 3.668,1.438 C4.41066667,1.11933333 5.188,0.960333333 6,0.961 C6.812,0.961666667 7.58933333,1.12066667 8.332,1.438 C9.07466667,1.75533333 9.71266667,2.18233333 10.246,2.719 C10.7793333,3.25566667 11.205,3.895 11.523,4.637 C11.841,5.379 12,6.159 12,6.977 Z" id="Shape"></path>
        </g>
    </g>
</svg>