<?xml version="1.0" encoding="UTF-8"?>
<svg width="40px" height="40px" viewBox="0 0 40 40" version="1.1" xmlns="http://www.w3.org/2000/svg" xmlns:xlink="http://www.w3.org/1999/xlink">
    <!-- Generator: Sketch 48.2 (47327) - http://www.bohemiancoding.com/sketch -->
    <title>Group 24</title>
    <desc>Created with Sketch.</desc>
    <defs>
        <rect id="path-1" x="0" y="0" width="40" height="40"></rect>
        <path d="M2.66666667,2.66666667 L14.6666667,2.66666667 L14.6666667,14.6666667 L2.66666667,14.6666667 L2.66666667,2.66666667 Z M5.33333333,5.33333333 L5.33333333,12 L12,12 L12,5.33333333 L5.33333333,5.33333333 Z M6.66666667,6.66666667 L10.6666667,6.66666667 L10.6666667,10.6666667 L6.66666667,10.6666667 L6.66666667,6.66666667 Z M17.3333333,2.66666667 L29.3333333,2.66666667 L29.3333333,14.6666667 L17.3333333,14.6666667 L17.3333333,2.66666667 Z M20,5.33333333 L20,12 L26.6666667,12 L26.6666667,5.33333333 L20,5.33333333 Z M21.3333333,6.66666667 L25.3333333,6.66666667 L25.3333333,10.6666667 L21.3333333,10.6666667 L21.3333333,6.66666667 Z M2.66666667,17.3333333 L14.6666667,17.3333333 L14.6666667,29.3333333 L2.66666667,29.3333333 L2.66666667,17.3333333 Z M5.33333333,20 L5.33333333,26.6666667 L12,26.6666667 L12,20 L5.33333333,20 Z M6.66666667,21.3333333 L10.6666667,21.3333333 L10.6666667,25.3333333 L6.66666667,25.3333333 L6.66666667,21.3333333 Z M17.3333333,17.3333333 L21.3333333,17.3333333 L21.3333333,21.3333333 L17.3333333,21.3333333 L17.3333333,17.3333333 Z M21.3333333,21.3333333 L25.3333333,21.3333333 L25.3333333,25.3333333 L21.3333333,25.3333333 L21.3333333,21.3333333 Z M25.3333333,17.3333333 L29.3333333,17.3333333 L29.3333333,21.3333333 L25.3333333,21.3333333 L25.3333333,17.3333333 Z M17.3333333,25.3333333 L21.3333333,25.3333333 L21.3333333,29.3333333 L17.3333333,29.3333333 L17.3333333,25.3333333 Z M25.3333333,25.3333333 L29.3333333,25.3333333 L29.3333333,29.3333333 L25.3333333,29.3333333 L25.3333333,25.3333333 Z" id="path-2"></path>
    </defs>
    <g id="qr-code-profile-3-rev" stroke="none" stroke-width="1" fill="none" fill-rule="evenodd" transform="translate(-159.000000, -420.000000)">
        <g id="Group-24" transform="translate(159.000000, 420.000000)">
            <g id="Group-25">
                <g id="Rectangle-6">
                    <use fill="#FFFFFF" fill-rule="evenodd" xlink:href="#path-1"></use>
                    <rect stroke="#CCCCCC" stroke-width="1" x="0.5" y="0.5" width="39" height="39"></rect>
                </g>
                <g id="icon" transform="translate(4.000000, 4.000000)" opacity="0.401664402">
                    <g id="1-Library/Icon">
                        <g id="Color/9-Guide/Magenta"></g>
                        <g id="Icon/QR">
                            <mask id="mask-3" fill="white">
                                <use xlink:href="#path-2"></use>
                            </mask>
                            <g id="Shape"></g>
                            <g id="Color/2-Text/B0-(FF-000)-100%" mask="url(#mask-3)" fill="#000000" fill-rule="evenodd">
                                <rect id="color" x="0" y="0" width="32" height="32"></rect>
                            </g>
                        </g>
                    </g>
                </g>
            </g>
        </g>
    </g>
</svg>