<?xml version="1.0" encoding="UTF-8"?>
<svg width="68px" height="54px" viewBox="0 0 68 54" version="1.1" xmlns="http://www.w3.org/2000/svg" xmlns:xlink="http://www.w3.org/1999/xlink">
    <!-- Generator: Sketch 50.2 (55047) - http://www.bohemiancoding.com/sketch -->
    <title>blueguy subscribe</title>
    <desc>Created with Sketch.</desc>
    <defs></defs>
    <g id="LANDING-FORUM" stroke="none" stroke-width="1" fill="none" fill-rule="evenodd">
        <g id="1-Landing-Forum-after-subscribe-Copy" transform="translate(-11.000000, -267.000000)" fill-rule="nonzero">
            <g id="blueguy-subscribe" transform="translate(9.000000, 266.000000)">
                <circle id="Oval" fill="#B6E3F3" cx="43.5" cy="27.5" r="26.5"></circle>
                <rect id="Rectangle-path" fill="#80999F" opacity="0" transform="translate(34.000000, 29.000000) rotate(-0.572939) translate(-34.000000, -29.000000) " x="1" y="1" width="66" height="56"></rect>
                <path d="M18.9147142,39 C18.9147142,39 28.762418,45.3306958 31.5965323,44.9717834 C34.4306467,44.612871 37.6949391,39.5708004 40.1663543,39.4367488 C41.5371125,39.3061226 42.9056339,39.7090164 44,40.565377 C44,40.565377 37.7033739,45.1144835 34.0257732,48.8117136 C31.1621368,51.687337 17,48.4398285 17,48.4398285 L18.9147142,39 Z" id="Shape" fill="#80999F"></path>
                <path d="M19.9130895,40 C19.4903301,40.097292 19.0735345,40.2169448 18.6646226,40.3584071 L17,48.0800885 C17,48.0800885 19.3804103,48.589823 22.3684078,49 C18.3400212,46.789823 25.1150351,44.8464602 24.9985115,42.7199115 C22.9926413,41.7482301 21.0575175,40.6570796 19.9130895,40 Z M44,41.0465819 C42.8847291,40.2691013 41.4900659,39.9033184 40.0931232,40.0219125 C39.3251714,40.1242109 38.6018718,40.4145333 38,40.8620629 C38.5752906,42.1787052 38.6717296,43.6294489 38.2750716,45 C41.2234957,42.8250312 43.987106,41.042656 43.987106,41.042656 L44,41.0465819 Z" id="Shape" fill="#80999F"></path>
                <path d="M48.3202697,40 C48.3202697,40 53.8591334,46.6307592 55,51.0723556 C55,51.0723556 51.6296537,52.9873459 50.5366861,53 C50.5366861,53 49.4741997,45.555159 47.0182884,42.6868916 C47.0182884,42.6953277 46.7439579,40.0168722 48.3202697,40 Z" id="Shape" fill="#80999F"></path>
                <path d="M50,41.5579357 C49.1133531,40.6037001 48.497626,40 48.497626,40 C46.7144805,40 47.0198811,42.4926972 47.0198811,42.4926972 C47.4835194,42.958098 47.8784964,43.4638019 48.1971512,44 C48.698527,43.1425025 49.3022109,42.3247774 50,41.5579357 Z" id="Shape" fill="#80999F"></path>
                <path d="M41.748093,39.2163147 C41.748093,39.2163147 36.5950986,45.3163901 37.0255397,53.4930868 C39.219348,54.5166263 41.5961377,55.0300935 43.9945854,54.9986373 C45.5405509,54.9813736 47.0770275,54.7412049 48.5613601,54.2847987 C47.4012189,49.2273603 46.3312654,41.8813122 49,39 L41.748093,39.2163147 Z" id="Shape" fill="#80999F"></path>
                <path d="M41,40.5032898 C42.6128713,41.3016691 45.0366337,42.0338413 48.4405941,41.9987905 C48.6130725,40.8872409 49.1553247,39.8444716 50,39 L42.1183168,39.2064103 C41.7193527,39.6209615 41.3460469,40.0538734 41,40.5032898 Z" id="Shape" fill="#80999F"></path>
                <path d="M45.542666,54.9514907 C46.4306365,46.8266643 46.3684786,42.353928 42.1816974,43.0757529 C38.4522211,43.7202394 38.9361651,52.025522 39.1359584,54.2898179 C40.8657233,54.7805993 42.6613324,55.0195281 44.4637818,54.9987531 C44.8278497,54.9944565 45.1919176,54.9772702 45.542666,54.9514907 Z" id="Shape" fill="#80999F"></path>
                <circle id="Oval" fill="#80999F" transform="translate(45.000000, 24.000000) rotate(-0.660000) translate(-45.000000, -24.000000) " cx="45" cy="24" r="16"></circle>
                <ellipse id="Oval" fill="#80999F" transform="translate(39.500000, 22.000000) rotate(-0.660000) translate(-39.500000, -22.000000) " cx="39.5" cy="22" rx="3.5" ry="5"></ellipse>
                <ellipse id="Oval" fill="#80999F" transform="translate(39.500000, 22.500000) rotate(-0.660000) translate(-39.500000, -22.500000) " cx="39.5" cy="22.5" rx="2.5" ry="3.5"></ellipse>
                <ellipse id="Oval" fill="#80999F" transform="translate(40.000000, 21.500000) rotate(-0.660000) translate(-40.000000, -21.500000) " cx="40" cy="21.5" rx="1" ry="1.5"></ellipse>
                <ellipse id="Oval" fill="#80999F" transform="translate(49.500000, 22.000000) rotate(-0.660000) translate(-49.500000, -22.000000) " cx="49.5" cy="22" rx="3.5" ry="5"></ellipse>
                <ellipse id="Oval" fill="#80999F" transform="translate(50.500000, 22.500000) rotate(-0.660000) translate(-50.500000, -22.500000) " cx="50.5" cy="22.5" rx="2.5" ry="3.5"></ellipse>
                <ellipse id="Oval" fill="#80999F" transform="translate(50.000000, 21.500000) rotate(-0.660000) translate(-50.000000, -21.500000) " cx="50" cy="21.5" rx="1" ry="1.5"></ellipse>
                <path d="M32,26.9087784 C32,26.9087784 33.4899173,29.6764218 43.6917123,29.7425148 C55.5034458,29.8210002 55.755904,26 55.755904,26 C55.755904,26 57.7217671,34.0220349 50.4956681,36.7731551 C44.8670915,38.917046 41.3906178,37.5993172 41.3906178,37.5993172 C41.3906178,37.5993172 34.015527,37.190367 32,26.9087784 Z" id="Shape" fill="#80999F"></path>
                <path d="M44.5288097,31.9977999 C53.4730857,31.8901815 55.6747536,29.2685965 56,27 C54.8616376,28.1579743 51.9636088,29.6689371 44.5788476,29.621585 C38.4283548,29.5785376 35.4052312,28.5324865 34,27.6930627 C34.6421531,29.3719102 36.8646702,32.0881994 44.5288097,31.9977999 Z" id="Shape" fill="#80999F"></path>
                <path d="M49.3013699,33.1998686 C46.6259435,32.6146218 45.6908023,33.4240865 45.376293,34.2183499 C45.0450098,33.4316871 44.0889013,32.641224 41.4260554,33.2834752 C40.1090223,33.5598921 38.9148455,34.190413 38,35.0924196 C39.2427822,35.9274756 40.7009587,36.4599872 42.2353928,36.6391431 C42.2353928,36.6391431 45.7620911,37.8324384 51.4610008,35.8790824 C51.9948773,35.6948923 52.5098583,35.4685368 53,35.2026284 C52.0516062,34.1761645 50.7481804,33.4703764 49.3013699,33.1998686 Z" id="Shape" fill="#80999F"></path>
                <rect id="Rectangle-path" fill="#80999F" transform="translate(18.000000, 30.500000) rotate(-0.660000) translate(-18.000000, -30.500000) " x="16" y="12" width="4" height="37"></rect>
                <path d="M16,19.1841911 L16.189011,34.4884249 C17.367033,35.1105815 18.4659341,35.2129098 20,34.5293562 L19.8065934,19 C19.3318681,19.3192646 18.0967033,19.8963967 16,19.1841911 Z" id="Shape" fill="#80999F"></path>
                <ellipse id="Oval" fill="#80999F" transform="translate(18.000000, 12.500000) rotate(-0.660000) translate(-18.000000, -12.500000) " cx="18" cy="12.5" rx="2" ry="1"></ellipse>
                <ellipse id="Oval" fill="#80999F" transform="translate(18.000000, 49.500000) rotate(-0.660000) translate(-18.000000, -49.500000) " cx="18" cy="49.5" rx="2" ry="1"></ellipse>
                <path d="M20.5150573,38 C21.2670143,38.03236 21.9997814,38.283632 22.6455957,38.7305796 C23.7165012,39.4742053 21.9391738,41.8616352 22.7658377,42.7966032 C23.5925016,43.7315712 21.4055998,45.7493626 21.0674191,44.7100261 C20.7292384,43.6706896 19.2224555,39.6264094 20.5150573,38 Z" id="Shape" fill="#80999F"></path>
                <path d="M14.3147845,40.5646766 C14.3147845,40.5646766 13.7675345,39.0395914 14.116153,38.5837236 C14.4647715,38.1278557 14.991753,37.9413643 16.3132603,38.0159609 C17.6347677,38.0905575 20.1034731,37.7921712 20.5534342,38.5961563 C21.0033953,39.4001415 19.8764657,41.1282951 19.8764657,41.1282951 C20.2860713,41.7029868 20.5099805,42.3940655 20.5169509,43.1051039 C20.4399305,44.0997247 20.0021305,44.2820718 20.0021305,44.2820718 C20.0021305,44.2820718 20.8128712,44.9948834 20.6345083,45.7159834 L20.4642527,46.4412277 C20.4642527,46.4412277 21.4493027,47.8709951 20.748012,48.2398336 C20.0467213,48.6086722 16.4429788,49.4831096 15.3728011,48.654259 C14.3026233,47.8254083 14.8336585,47.5808974 14.7282622,46.3169001 C14.6228659,45.0529029 13.5364734,41.9239917 14.3147845,40.5646766 Z" id="Shape" fill="#80999F"></path>
                <path d="M19.6981601,38.0439342 C19.9687003,37.946716 21.2339961,37.9340354 21.7001577,38.8470409 C22.1663193,39.7600464 21.0924828,41.2436803 21.0924828,41.2436803 C21.5032555,41.6088341 21.7116527,42.1553018 21.6502118,42.7061798 C21.5347785,43.217549 21.253304,43.6746134 20.8510776,44.0038311 C20.8510776,44.0038311 21.9374007,44.1729062 21.8583197,45.0013741 C21.7965469,45.5285902 21.6171885,46.0345552 21.3338879,46.4807812 C21.3338879,46.4807812 22.4368595,47.8460625 21.8042116,48.1292633 C20.6156208,48.4828469 19.409745,48.7734841 18.1914592,49 C18.1914592,49 20.172646,47.9644151 19.7148087,47.6051305 C19.2569715,47.2458459 18.0832431,47.347291 18.0832431,47.347291 C18.0832431,47.347291 20.251727,46.9541914 19.7897276,46.1299504 C19.3277281,45.3057093 18.6825938,44.2109481 18.1248647,44.4011576 C18.1248647,44.4011576 19.3984848,44.7562153 19.748106,43.7375378 C20.0977272,42.7188604 18,41.2774953 18,41.2774953 C18,41.2774953 19.6315656,41.5311079 19.8937815,40.6096487 C20.1559974,39.6881895 19.6981601,38.0439342 19.6981601,38.0439342 Z" id="Shape" fill="#80999F"></path>
                <path d="M14.0672283,38.5158618 C14.0672283,38.5158618 13.7590546,39.7201787 14.4623227,39.9522031 C15.1655909,40.1842275 15.1655909,39.5249836 15.805644,38.9762276 C16.4456971,38.4274716 18.1208977,38.6521301 18.5713054,39.0683008 C19.0217131,39.4844714 19.1402415,38.1623009 18.816264,38.0444472 C18.4922865,37.9265936 14.513685,38.0297155 14.0672283,38.5158618 Z" id="Shape" fill="#80999F"></path>
                <path d="M14.0728868,41.8391984 C14.0728868,41.8391984 13.7139624,41.2968571 14.5890926,41.1208656 C15.4642228,40.944874 16.9563803,40.9412824 17.7508534,41.2429822 C18.5453264,41.544682 19.2591423,42.4785147 18.9082837,42.7155645 C18.557425,42.9526144 18.2831906,41.7853235 17.0572018,41.8751151 C15.8312129,41.9649067 15.3190399,42.9095144 14.6173226,42.9957144 C13.9156053,43.0819143 14.0728868,41.8391984 14.0728868,41.8391984 Z" id="Shape" fill="#80999F"></path>
                <path d="M15.3684382,45.9492295 C15.3684382,45.9492295 14.6985631,44.6512692 15.1653148,44.1713512 C15.6320665,43.6914331 17.8015975,44.3731349 18.5492646,44.3622277 C19.2969317,44.3513204 20.1569649,45.4038681 19.9754503,45.8837861 C19.7939358,46.3637042 19.5000551,45.2020843 18.6529872,45.2020843 C17.5462238,45.3589853 16.4489535,45.6085843 15.3684382,45.9492295 Z" id="Shape" fill="#80999F"></path>
                <path d="M15,47.4350635 C15.4795077,47.161957 16.012544,47.0129229 16.556051,47 C17.4529103,47 18.9955084,47.2820741 18.9999927,47.5928338 C19.004477,47.9035934 16.9506691,47.3059787 16.0762312,47.8366606 C15.2017934,48.3673424 15,47.4350635 15,47.4350635 Z" id="Shape" fill="#80999F"></path>
                <circle id="Oval" fill="#80999F" transform="translate(17.000000, 19.000000) rotate(-0.660000) translate(-17.000000, -19.000000) " cx="17" cy="19" r="15"></circle>
                <path d="M54.402365,41 C54.402365,41 50.3910512,43.3909304 49.5693504,44.1879071 C48.7476495,44.9848839 48.9420304,46.0614285 49.3617163,46.9919302 C49.7814022,47.9224319 48.9199416,48.3313519 49.2291839,49.9127875 C49.5384261,51.4942231 52.9135845,54.2815556 53.8368935,53.9769519 C54.7602025,53.6723482 56.5670608,51.7320644 56.7260997,51.3815615 C56.8851386,51.0310586 57,44.4215757 57,44.4215757 L54.402365,41 Z" id="Shape" fill="#80999F"></path>
                <path d="M56.9997328,42.9920273 C56.9997328,42.9920273 55.2366189,39.8586202 56.2264372,36.8505493 C57.2162556,33.8424785 55.2095536,33.5374936 53.7480249,34.4608042 C52.2864963,35.3841148 51.466803,39.6455485 52.3908912,40.7276184 C53.3149794,41.8096883 53.9800136,42.7455326 53.6668289,44.1701883 C53.3536442,45.5948441 52.8548686,51.3812026 54.962099,50.9801265 C57.0693294,50.5790503 56.9997328,42.9920273 56.9997328,42.9920273 Z" id="Shape" fill="#80999F"></path>
                <path d="M59.9895948,44.4432705 C59.9895948,44.4432705 60.1655742,42.6844205 59.0701025,42.3528672 C57.9746308,42.0213139 56.9099555,43.0685372 55.044574,42.1830472 C53.1791925,41.2975572 50.2799321,40.5091072 49.8311847,41.3743805 C49.3824372,42.2396539 48.3221614,43.3070938 50.3283264,44.2047138 C51.4080733,44.7168318 52.5515167,45.1064985 53.7335276,45.3651505 C53.7335276,45.3651505 49.5012233,44.7465205 49.162463,45.7897005 C48.8237027,46.8328804 48.9864836,47.5485504 49.9191744,47.9892737 C50.8518651,48.4299971 53.5883446,48.5068204 53.5883446,48.5068204 C53.5883446,48.5068204 49.7695919,48.7898537 49.8575816,49.9058137 C49.9455713,51.0217737 53.8171178,51.2967203 53.8171178,51.2967203 C53.8171178,51.2967203 49.3428419,52.0123903 50.4559115,53.039397 C51.5689811,54.0664036 53.5839451,54.1472703 55.0841694,53.8480636 C56.5843937,53.548857 58.9469169,54.1230103 59.2152855,52.6593236 C59.4836541,51.195637 58.5509633,50.746827 59.1008989,49.3316604 C59.6508345,47.9164937 59.9895948,44.4432705 59.9895948,44.4432705 Z" id="Shape" fill="#80999F"></path>
                <path d="M56,54 C56,54 58.3385078,53.8245614 57.9581708,53.1779449 C57.7073717,52.7565834 57.4315907,52.3626725 57.1334796,52 L56,54 Z" id="Shape" fill="#80999F"></path>
                <path d="M53.6144655,51.2863252 C53.6144655,51.2863252 49.916939,51.0120472 49.8199686,49.8988015 C49.7229981,48.7855558 53.3952279,48.5032108 53.3952279,48.5032108 C53.3952279,48.5032108 50.7728089,48.4265743 49.8789941,47.986923 C48.9851792,47.5472716 48.8333994,46.8333422 49.1538236,45.7926995 C49.4742477,44.7520567 53.5343595,45.3651486 53.5343595,45.3651486 C52.4016165,45.1071257 51.3058335,44.7184067 50.2710921,44.2075343 C48.348547,43.3040306 49.3646289,42.2553208 49.7946719,41.384085 C50.1193122,40.7225912 51.7678103,41.0049361 53.3277702,41.5575255 C52.9061594,41.6381954 52.5941674,41.7914684 52.4845486,42.0697798 C52.1008828,43.1870591 53.243448,44.5947503 54.0487246,44.7439897 C54.8833114,44.942327 55.7053841,45.1860779 56.5109315,45.474053 C56.5109315,45.474053 53.1043165,45.3893496 52.5899513,46.2081499 C52.0755862,47.0269502 53.5343595,47.664243 53.9812669,47.7489465 C54.4281743,47.83365 57,48.4951438 57,48.4951438 C57,48.4951438 52.6784896,48.3297704 52.5941674,49.3260446 C52.5098453,50.3223189 56.0808885,51.0725497 56.0808885,51.0725497 C56.0808885,51.0725497 53.6692749,51.6291726 53.8716481,52.5851119 C54.023428,53.2950077 55.6761422,53.6257546 56.5109315,53.7467596 C55.9465432,53.7415763 55.3826179,53.7793413 54.8244884,53.8596976 C53.3867957,54.1420425 51.4516023,54.057339 50.3891431,53.0529978 C49.326684,52.0486565 53.6144655,51.2863252 53.6144655,51.2863252 Z" id="Shape" fill="#80999F"></path>
                <path d="M58.6461331,44.9410323 C58.6461331,44.9410323 59.4423337,43.842656 58.6461331,43.2240303 C57.8499324,42.6054046 57.5061185,43.4933639 56.4656291,43.2240303 C55.4251397,42.9546967 54.2625058,43.3039887 55.6060943,44.1204063 C56.9496829,44.936824 57.3704025,44.2466565 57.3115923,45.6690748 C57.252782,47.0914931 55.3029952,45.7869083 55.891098,46.9315763 C56.4792007,48.0762443 56.8637294,47.5838687 56.9858738,48.5644115 C57.1080182,49.5449543 56.2032448,50.1425383 56.8863487,51.3166647 C57.2483902,51.9672808 57.7522,52.5405778 58.3656533,53 C58.3656533,53 57.2346865,51.5523317 57.6011198,50.0878299 C57.8753163,48.7980398 58.0776524,47.4959256 58.2073179,46.1867004 L58.6461331,44.9410323 Z" id="Shape" fill="#80999F"></path>
                <path d="M16.9273664,39 C16.9273664,39 26.7792877,45.3306958 29.6091846,44.9717834 C32.4390815,44.612871 35.7075914,39.5708004 38.1663543,39.4367488 C39.5371125,39.3061226 40.9056339,39.7090164 42,40.565377 C42,40.565377 35.7033739,45.1144835 32.0257732,48.8117136 C29.1621368,51.687337 15,48.4398285 15,48.4398285 L16.9273664,39 Z" id="Shape" fill="#FFFFFF"></path>
                <path d="M47.3197798,40 C47.3197798,40 52.8510892,46.6307592 54,51.0723556 C54,51.0723556 50.6316023,52.9873459 49.5392667,53 C49.5392667,53 48.4773945,45.555159 46.0229032,42.6868916 C46.0185513,42.6953277 45.7313236,40.0168722 47.3197798,40 Z" id="Shape" fill="#FFFFFF"></path>
                <path d="M49,41.5579357 C48.1133531,40.6037001 47.497626,40 47.497626,40 C45.7144805,40 46.0198811,42.4926972 46.0198811,42.4926972 C46.4835194,42.958098 46.8784964,43.4638019 47.1971512,44 C47.698527,43.1425025 48.3022109,42.3247774 49,41.5579357 Z" id="Shape" fill="#FFFFFF"></path>
                <path d="M39.7521809,39.2163147 C39.7521809,39.2163147 34.5950788,45.3163901 35.0255205,53.4930868 C37.2193323,54.5166263 39.5961258,55.0300935 41.9945774,54.9986373 C43.5405454,54.9813736 45.0770244,54.7412049 46.5613594,54.2847987 C45.4012164,49.2273603 44.3312612,41.8813122 47,39 L39.7521809,39.2163147 Z" id="Shape" fill="#FFFFFF"></path>
                <path d="M39,40.5032898 C40.6128713,41.3016691 43.0366337,42.0338413 46.4405941,41.9987905 C46.6130725,40.8872409 47.1553247,39.8444716 48,39 L40.1227723,39.2064103 C39.7222865,39.6208659 39.3474919,40.0537795 39,40.5032898 Z" id="Shape" fill="#FFFFFF"></path>
                <path d="M44.542666,54.9514907 C45.4306365,46.8266643 45.3684786,42.353928 41.1816974,43.0757529 C37.4522211,43.7202394 37.9361651,52.025522 38.1359584,54.2898179 C39.8657233,54.7805993 41.6613324,55.0195281 43.4637818,54.9987531 C43.8145301,54.9944565 44.1785981,54.9772702 44.542666,54.9514907 Z" id="Shape" fill="#FFFFFF"></path>
                <circle id="Oval" fill="#FFFFFF" transform="translate(43.000000, 24.000000) rotate(-0.660000) translate(-43.000000, -24.000000) " cx="43" cy="24" r="16"></circle>
                <ellipse id="Oval" fill="#FFFFFF" transform="translate(37.500000, 22.000000) rotate(-0.660000) translate(-37.500000, -22.000000) " cx="37.5" cy="22" rx="3.5" ry="5"></ellipse>
                <ellipse id="Oval" fill="#FFFFFF" transform="translate(37.500000, 22.500000) rotate(-0.660000) translate(-37.500000, -22.500000) " cx="37.5" cy="22.5" rx="2.5" ry="3.5"></ellipse>
                <ellipse id="Oval" fill="#FFFFFF" transform="translate(38.000000, 21.500000) rotate(-0.660000) translate(-38.000000, -21.500000) " cx="38" cy="21.5" rx="1" ry="1.5"></ellipse>
                <ellipse id="Oval" fill="#FFFFFF" transform="translate(47.500000, 22.000000) rotate(-0.660000) translate(-47.500000, -22.000000) " cx="47.5" cy="22" rx="3.5" ry="5"></ellipse>
                <ellipse id="Oval" fill="#FFFFFF" transform="translate(48.500000, 22.500000) rotate(-0.660000) translate(-48.500000, -22.500000) " cx="48.5" cy="22.5" rx="2.5" ry="3.5"></ellipse>
                <ellipse id="Oval" fill="#FFFFFF" transform="translate(48.000000, 21.500000) rotate(-0.660000) translate(-48.000000, -21.500000) " cx="48" cy="21.5" rx="1" ry="1.5"></ellipse>
                <path d="M31,26.9087784 C31,26.9087784 32.4899173,29.6764218 42.6917123,29.7425148 C54.5034458,29.8210002 54.755904,26 54.755904,26 C54.755904,26 56.7217671,34.0220349 49.4956681,36.7731551 C43.8670915,38.917046 40.3906178,37.5993172 40.3906178,37.5993172 C40.3906178,37.5993172 33.0362203,37.190367 31,26.9087784 Z" id="Shape" fill="#FFFFFF"></path>
                <path d="M42.5288097,31.9977999 C51.4730857,31.8901815 53.6747536,29.2685965 54,27 C52.8658074,28.1579743 49.9469295,29.6603276 42.5788476,29.621585 C36.4283548,29.5785376 33.4052312,28.5324865 32,27.6930627 C32.6421531,29.3719102 34.8646702,32.0881994 42.5288097,31.9977999 Z" id="Shape" fill="#FFFFFF"></path>
                <path d="M47.3013699,33.1998686 C44.6259435,32.6146218 43.6908023,33.4240865 43.376293,34.2183499 C43.0450098,33.4316871 42.0889013,32.641224 39.4260554,33.2834752 C38.1090223,33.5598921 36.9148455,34.190413 36,35.0924196 C37.2427822,35.9274756 38.7009587,36.4599872 40.2353928,36.6391431 C40.2353928,36.6391431 43.7620911,37.8324384 49.4610008,35.8790824 C49.9948688,35.6948743 50.509848,35.4685196 51,35.2026284 C50.0516062,34.1761645 48.7481804,33.4703764 47.3013699,33.1998686 Z" id="Shape" fill="#FFFFFF"></path>
                <path d="M18.5150573,38 C19.2670143,38.03236 19.9997814,38.283632 20.6455957,38.7305796 C21.7165012,39.4742053 19.9391738,41.8616352 20.7658377,42.7966032 C21.5925016,43.7315712 19.4055998,45.7493626 19.0674191,44.7100261 C18.7292384,43.6706896 17.2224555,39.6264094 18.5150573,38 Z" id="Shape" fill="#FFFFFF"></path>
                <path d="M17.7064844,38.0439173 C17.9770246,37.9467365 19.2423204,37.9340608 19.708482,38.8467155 C20.1746436,39.7593703 19.1008071,41.2424343 19.1008071,41.2424343 C19.5097969,41.6100573 19.715113,42.1579718 19.6502118,42.7085974 C19.5347785,43.2197701 19.253304,43.6766589 18.8510776,44.0057502 C18.8510776,44.0057502 19.9374007,44.1747604 19.8583197,45.0029101 C19.7965469,45.5299237 19.6171885,46.0356943 19.3338879,46.4817488 C19.3338879,46.4817488 20.4368595,47.8465058 19.8042116,48.1295978 C18.6156208,48.4830455 17.409745,48.7735711 16.1914592,49 C16.1914592,49 18.172646,47.9648129 17.7148087,47.6056663 C17.2569715,47.2465197 16.0832431,47.3479258 16.0832431,47.3479258 C16.0832431,47.3479258 18.251727,46.9549772 17.7897276,46.1310528 C17.3277281,45.3071283 16.6825938,44.2127876 16.1248647,44.4029241 C16.1248647,44.4029241 17.3984848,44.7578454 17.748106,43.7395592 C18.0977272,42.7212731 16,41.2804616 16,41.2804616 C16,41.2804616 17.6315656,41.5339768 17.8937815,40.6128716 C18.1559974,39.6917663 17.7064844,38.0439173 17.7064844,38.0439173 Z" id="Shape" fill="#FFFFFF"></path>
                <path d="M52.402365,41 C52.402365,41 48.3910512,43.3909304 47.5693504,44.1879071 C46.7476495,44.9848839 46.9420304,46.0614285 47.3617163,46.9919302 C47.7814022,47.9224319 46.9199416,48.3313519 47.2291839,49.9127875 C47.5384261,51.4942231 50.9135845,54.2815556 51.8368935,53.9769519 C52.7602025,53.6723482 54.5670608,51.7320644 54.7260997,51.3815615 C54.8851386,51.0310586 55,44.4215757 55,44.4215757 L52.402365,41 Z" id="Shape" fill="#FFFFFF"></path>
                <path d="M54.999638,42.9920273 C54.999638,42.9920273 53.2343225,39.8586202 54.2253768,36.8505493 C55.2164311,33.8424785 53.2227086,33.5374936 51.7516124,34.4608042 C50.2805162,35.3841148 49.4675419,39.6455485 50.392784,40.7276184 C51.3180261,41.8096883 51.9838907,42.7455326 51.670315,44.1701883 C51.3567392,45.5948441 50.8573407,51.3812026 52.9672024,50.9801265 C55.0770641,50.5790503 54.999638,42.9920273 54.999638,42.9920273 Z" id="Shape" fill="#FFFFFF"></path>
                <path d="M57.9895948,44.4432705 C57.9895948,44.4432705 58.1655742,42.6844205 57.0701025,42.3528672 C55.9746308,42.0213139 54.9099555,43.0685372 53.044574,42.1830472 C51.1791925,41.2975572 48.2799321,40.5091072 47.8311847,41.3743805 C47.3824372,42.2396539 46.3221614,43.3070938 48.3283264,44.2047138 C49.4080733,44.7168318 50.5515167,45.1064985 51.7335276,45.3651505 C51.7335276,45.3651505 47.5012233,44.7465205 47.162463,45.7897005 C46.8237027,46.8328804 46.9864836,47.5485504 47.9191744,47.9892737 C48.8518651,48.4299971 51.5883446,48.5068204 51.5883446,48.5068204 C51.5883446,48.5068204 47.7695919,48.7898537 47.8575816,49.9058137 C47.9455713,51.0217737 51.8171178,51.2967203 51.8171178,51.2967203 C51.8171178,51.2967203 47.3428419,52.0123903 48.4559115,53.039397 C49.5689811,54.0664036 51.5839451,54.1472703 53.0841694,53.8480636 C54.5843937,53.548857 56.9469169,54.1230103 57.2152855,52.6593236 C57.4836541,51.195637 56.5509633,50.746827 57.0964994,49.3316604 C57.6420355,47.9164937 57.9895948,44.4432705 57.9895948,44.4432705 Z" id="Shape" fill="#FFFFFF"></path>
                <path d="M51.6144655,52.0732372 C51.6144655,52.0732372 47.916939,51.777861 47.8199686,50.5789809 C47.7229981,49.3801009 51.3952279,49.0760371 51.3952279,49.0760371 C51.3952279,49.0760371 48.7728089,48.9935055 47.8789941,48.5200348 C46.9851792,48.0465641 46.8333994,47.2777171 47.1538236,46.1570249 C47.4742477,45.0363327 51.5343595,45.7009292 51.5343595,45.7009292 C50.4016165,45.4230585 49.3058335,45.004438 48.2710921,44.4542678 C46.348547,43.4812637 47.3646289,42.3518839 47.7946719,41.41363 C48.1193122,40.701252 49.7678103,41.0053158 51.3277702,41.600412 C50.9061594,41.6872874 50.5941674,41.8523506 50.4845486,42.1520706 C50.1008828,43.3552944 51.243448,44.8712695 52.0487246,45.0319889 C52.8833114,45.2455829 53.7053841,45.5080838 54.5109315,45.818211 C54.5109315,45.818211 51.1043165,45.7269918 50.5899513,46.6087768 C50.0755862,47.4905617 51.5343595,48.1768771 51.9812669,48.2680962 C52.4281743,48.3593154 55,49.0716934 55,49.0716934 C55,49.0716934 50.6784896,48.8935989 50.5941674,49.9665096 C50.5098453,51.0394204 54.0808885,51.8473612 54.0808885,51.8473612 C54.0808885,51.8473612 51.6692749,52.4468013 51.8716481,53.4762743 C52.023428,54.2407775 53.6761422,54.5969665 54.5109315,54.7272796 C53.9465432,54.7216976 53.3826179,54.7623676 52.8244884,54.8489051 C51.3867957,55.1529689 49.4516023,55.0617497 48.3891431,53.9801514 C47.326684,52.8985532 51.6144655,52.0732372 51.6144655,52.0732372 Z" id="Shape" fill="#FFFFFF"></path>
                <path d="M56.6461331,44.9410323 C56.6461331,44.9410323 57.4423337,43.842656 56.6461331,43.2240303 C55.8499324,42.6054046 55.5061185,43.4933639 54.4656291,43.2240303 C53.4251397,42.9546967 52.2625058,43.3039887 53.6060943,44.1204063 C54.9496829,44.936824 55.3704025,44.2466565 55.3115923,45.6690748 C55.252782,47.0914931 53.3029952,45.7869083 53.891098,46.9315763 C54.4792007,48.0762443 54.8637294,47.5838687 54.9858738,48.5644115 C55.1080182,49.5449543 54.2032448,50.1425383 54.8863487,51.3166647 C55.2483902,51.9672808 55.7522,52.5405778 56.3656533,53 C56.3656533,53 55.2346865,51.5523317 55.6011198,50.0878299 C55.8753163,48.7980398 56.0776524,47.4959256 56.2073179,46.1867004 L56.6461331,44.9410323 Z" id="Shape" fill="#FFFFFF"></path>
                <path d="M18.9104967,39 C18.9104967,39 28.7582006,45.3306958 31.5923149,44.9717834 C34.4264292,44.612871 37.6949391,39.5708004 40.1663543,39.4367488 C41.5371125,39.3061226 42.9056339,39.7090164 44,40.565377 C44,40.565377 37.7033739,45.1144835 34.0257732,48.8117136 C31.1621368,51.687337 17,48.4398285 17,48.4398285 L18.9104967,39 Z" id="Shape" fill="#0082C6"></path>
                <path d="M19.908471,40 C19.4863818,40.097292 19.070247,40.2169448 18.6619834,40.3584071 L17,48.0800885 C17,48.0800885 19.3766363,48.589823 22.3598965,49 C18.3586714,46.7938053 25.1229439,44.8464602 24.9982951,42.7199115 C22.9831403,41.7482301 21.0510846,40.6570796 19.908471,40 Z M44,41.0465819 C42.8847291,40.2691013 41.4900659,39.9033184 40.0931232,40.0219125 C39.3251714,40.1242109 38.6018718,40.4145333 38,40.8620629 C38.5752906,42.1787052 38.6717296,43.6294489 38.2750716,45 C41.2191977,42.8250312 43.987106,41.042656 43.987106,41.042656 L44,41.0465819 Z" id="Shape" fill="#006699"></path>
                <path d="M48.3207498,40 C48.3207498,40 53.8548613,46.6264591 55,51.0736057 C55,51.0736057 51.6298959,52.9873541 50.5370069,53 C50.5370069,53 49.4745968,45.559987 47.0188621,42.6935798 C47.0145079,42.6935798 46.7532596,40.0168612 48.3207498,40 Z" id="Shape" fill="#0082C6"></path>
                <path d="M50,41.5579357 C49.1133531,40.6037001 48.497626,40 48.497626,40 C46.7144805,40 47.0198811,42.4926972 47.0198811,42.4926972 C47.4835194,42.958098 47.8784964,43.4638019 48.1971512,44 C48.6985004,43.1424915 49.3021857,42.3247644 50,41.5579357 Z" id="Shape" fill="#006699"></path>
                <path d="M41.748093,39.2163147 C41.748093,39.2163147 36.5950986,45.3163901 37.0255397,53.4930868 C39.219348,54.5166263 41.5961377,55.0300935 43.9945854,54.9986373 C45.5405509,54.9813736 47.0770275,54.7412049 48.5613601,54.2847987 C47.4012189,49.2273603 46.3312654,41.8813122 49,39 L41.748093,39.2163147 Z" id="Shape" fill="#0082C6"></path>
                <path d="M41,40.5032898 C42.6128713,41.3016691 45.0366337,42.0338413 48.4405941,41.9987905 C48.6130725,40.8872409 49.1553247,39.8444716 50,39 L42.1183168,39.2064103 C41.7193527,39.6209615 41.3460469,40.0538734 41,40.5032898 Z" id="Shape" fill="#006699"></path>
                <path d="M45.542666,54.9514907 C46.4306365,46.8266643 46.3684786,42.353928 42.1816974,43.0757529 C38.4522211,43.7202394 38.9361651,52.025522 39.1359584,54.2898179 C40.8657233,54.7805993 42.6613324,55.0195281 44.4637818,54.9987531 C44.81897,54.9944565 45.1830379,54.9772702 45.542666,54.9514907 Z" id="Shape" fill="#00A9E9"></path>
                <circle id="Oval" fill="#0082C6" transform="translate(44.000000, 24.000000) rotate(-0.660000) translate(-44.000000, -24.000000) " cx="44" cy="24" r="16"></circle>
                <ellipse id="Oval" fill="#FFFFFF" transform="translate(39.500000, 22.000000) rotate(-0.660000) translate(-39.500000, -22.000000) " cx="39.5" cy="22" rx="3.5" ry="5"></ellipse>
                <ellipse id="Oval" fill="#021A23" transform="translate(39.500000, 22.500000) rotate(-0.660000) translate(-39.500000, -22.500000) " cx="39.5" cy="22.5" rx="2.5" ry="3.5"></ellipse>
                <ellipse id="Oval" fill="#FFFFFF" transform="translate(40.000000, 21.500000) rotate(-0.660000) translate(-40.000000, -21.500000) " cx="40" cy="21.5" rx="1" ry="1.5"></ellipse>
                <ellipse id="Oval" fill="#FFFFFF" transform="translate(49.500000, 22.000000) rotate(-0.660000) translate(-49.500000, -22.000000) " cx="49.5" cy="22" rx="3.5" ry="5"></ellipse>
                <ellipse id="Oval" fill="#021A23" transform="translate(49.500000, 22.500000) rotate(-0.660000) translate(-49.500000, -22.500000) " cx="49.5" cy="22.5" rx="2.5" ry="3.5"></ellipse>
                <ellipse id="Oval" fill="#FFFFFF" transform="translate(50.000000, 21.500000) rotate(-0.572939) translate(-50.000000, -21.500000) " cx="50" cy="21.5" rx="1" ry="1.5"></ellipse>
                <path d="M32,26.9087784 C32,26.9087784 33.4899173,29.6764218 43.6917123,29.7425148 C55.5034458,29.8210002 55.755904,26 55.755904,26 C55.755904,26 57.7217671,34.0220349 50.4956681,36.7731551 C44.8670915,38.917046 41.3906178,37.5993172 41.3906178,37.5993172 C41.3906178,37.5993172 34.0196657,37.190367 32,26.9087784 Z" id="Shape" fill="#510D3A"></path>
                <path d="M43.5288097,31.9977999 C52.4730857,31.8901815 54.6747536,29.2685965 55,27 C53.8616376,28.1579743 50.9636088,29.6689371 43.5788476,29.621585 C37.4283548,29.5785376 34.4052312,28.5324865 33,27.6930627 C33.6379833,29.3719102 35.8605004,32.0881994 43.5288097,31.9977999 Z" id="Shape" fill="#FFFFFF"></path>
                <path d="M48.3128492,33.1998686 C45.6396648,32.6146218 44.7053073,33.4240865 44.3910615,34.2183499 C44.0600559,33.4316871 43.1047486,32.641224 40.4441341,33.2834752 C39.1211767,33.5552911 37.9202535,34.1847206 37,35.0886193 C38.2449268,35.9268298 39.7064879,36.4607517 41.2444134,36.6391431 C41.2444134,36.6391431 44.7681564,37.8324384 50.4622905,35.8790824 C50.9957196,35.6948923 51.5102691,35.4685368 52,35.2026284 C51.0545497,34.1776211 49.7554178,33.471968 48.3128492,33.1998686 Z" id="Shape" fill="#ED125F"></path>
                <rect id="Rectangle-path" fill="#999999" transform="translate(18.000000, 30.500000) rotate(-0.660000) translate(-18.000000, -30.500000) " x="16" y="12" width="4" height="37"></rect>
                <path d="M16,19.1841911 L16.189011,34.4884249 C17.367033,35.1105815 18.4659341,35.2129098 20,34.5293562 L19.8065934,19 C19.3362637,19.3192646 18.1054945,19.8963967 16,19.1841911 Z" id="Shape" fill="#666666"></path>
                <ellipse id="Oval" fill="#CCCCCC" transform="translate(18.000000, 12.500000) rotate(-0.660000) translate(-18.000000, -12.500000) " cx="18" cy="12.5" rx="2" ry="1"></ellipse>
                <ellipse id="Oval" fill="#999999" transform="translate(18.005627, 49.523005) rotate(-0.660000) translate(-18.005627, -49.523005) " cx="18.0056268" cy="49.5230047" rx="2" ry="1"></ellipse>
                <path d="M20.5136909,38 C21.2660614,38.03236 21.9992314,38.283632 22.6454008,38.7305796 C23.7168952,39.4742053 21.9385904,41.8616352 22.7657089,42.7966032 C23.5928274,43.7315712 21.4047231,45.7493626 21.0663564,44.7100261 C20.7279897,43.6706896 19.2241379,39.6264094 20.5136909,38 Z" id="Shape" fill="#0D5474"></path>
                <path d="M13.3147845,40.5646766 C13.3147845,40.5646766 12.7675345,39.0395914 13.116153,38.5837236 C13.4647715,38.1278557 13.991753,37.9413643 15.3132603,38.0159609 C16.6347677,38.0905575 19.1034731,37.7921712 19.5534342,38.5961563 C20.0033953,39.4001415 18.8764657,41.1282951 18.8764657,41.1282951 C19.2860713,41.7029868 19.5099805,42.3940655 19.5169509,43.1051039 C19.4399305,44.0997247 19.0021305,44.2820718 19.0021305,44.2820718 C19.0021305,44.2820718 19.8128712,44.9948834 19.6345083,45.7159834 L19.4642527,46.4412277 C19.4642527,46.4412277 20.4493027,47.8709951 19.748012,48.2398336 C19.0467213,48.6086722 15.4429788,49.4831096 14.3728011,48.654259 C13.3026233,47.8254083 13.8296048,47.5808974 13.7282622,46.3169001 C13.6269196,45.0529029 12.5364734,41.9239917 13.3147845,40.5646766 Z" id="Shape" fill="#0082C6"></path>
                <path d="M19.7148087,38.0439173 C19.985349,37.9467365 21.2506447,37.9340608 21.7168063,38.8467155 C22.1829679,39.7593703 21.0924828,41.2466596 21.0924828,41.2466596 C21.5032555,41.6116732 21.7116527,42.1579309 21.6502118,42.7085974 C21.5347785,43.2197701 21.253304,43.6766589 20.8510776,44.0057502 C20.8510776,44.0057502 21.9374007,44.1747604 21.8583197,45.0029101 C21.7965469,45.5299237 21.6171885,46.0356943 21.3338879,46.4817488 C21.3338879,46.4817488 22.4368595,47.8465058 21.8042116,48.1295978 C20.6156208,48.4830455 19.409745,48.7735711 18.1914592,49 C18.1914592,49 20.172646,47.9648129 19.7148087,47.6056663 C19.2569715,47.2465197 18.0832431,47.3479258 18.0832431,47.3479258 C18.0832431,47.3479258 20.251727,46.9549772 19.7897276,46.1310528 C19.3277281,45.3071283 18.6825938,44.2127876 18.1248647,44.4029241 C18.1248647,44.4029241 19.3984848,44.7578454 19.748106,43.7395592 C20.0977272,42.7212731 18,41.2804616 18,41.2804616 C18,41.2804616 19.6315656,41.5339768 19.8937815,40.6128716 C20.1559974,39.6917663 19.7148087,38.0439173 19.7148087,38.0439173 Z" id="Shape" fill="#006699"></path>
                <path d="M14.0672427,38.5158618 C14.0672427,38.5158618 13.7590027,39.7201787 14.4624222,39.9522031 C15.1658417,40.1842275 15.1658417,39.5249836 15.8060325,38.9762276 C16.4462233,38.4274716 18.1257362,38.6521301 18.5722891,39.0683008 C19.0188419,39.4844714 19.1413475,38.1623009 18.8173003,38.0444472 C18.4932532,37.9265936 14.5098438,38.0297155 14.0672427,38.5158618 Z" id="Shape" fill="#00A9E9"></path>
                <path d="M14.0728868,41.8391984 C14.0728868,41.8391984 13.7139624,41.2968571 14.5890926,41.1208656 C15.4642228,40.944874 16.9563803,40.9412824 17.7508534,41.2429822 C18.5453264,41.544682 19.2591423,42.4785147 18.9082837,42.7155645 C18.557425,42.9526144 18.2831906,41.7853235 17.0572018,41.8751151 C15.8312129,41.9649067 15.3190399,42.9095144 14.6173226,42.9957144 C13.9156053,43.0819143 14.0728868,41.8391984 14.0728868,41.8391984 Z" id="Shape" fill="#00A9E9"></path>
                <path d="M14.3684382,45.9492295 C14.3684382,45.9492295 13.6985631,44.6512692 14.1653148,44.1713512 C14.6320665,43.6914331 16.8015975,44.3731349 17.5492646,44.3622277 C18.2969317,44.3513204 19.1569649,45.4038681 18.9754503,45.8837861 C18.7939358,46.3637042 18.4957333,45.2020843 17.6616307,45.2020843 C16.5519602,45.3584907 15.451789,45.6080928 14.3684382,45.9492295 Z" id="Shape" fill="#00A9E9"></path>
                <path d="M15,47.4350635 C15.4795077,47.161957 16.012544,47.0129229 16.556051,47 C17.4529103,47 18.9955084,47.2820741 18.9999927,47.5928338 C19.004477,47.9035934 16.9506691,47.3059787 16.0762312,47.8366606 C15.2017934,48.3673424 15,47.4350635 15,47.4350635 Z" id="Shape" fill="#00A9E9"></path>
                <circle id="Oval" fill="#F15A24" transform="translate(17.000000, 19.000000) rotate(-0.660000) translate(-17.000000, -19.000000) " cx="17" cy="19" r="15"></circle>
                <path d="M54.402365,41 C54.402365,41 50.3910512,43.3909304 49.5693504,44.1879071 C48.7476495,44.9848839 48.9420304,46.0614285 49.3617163,46.9919302 C49.7814022,47.9224319 48.9199416,48.3313519 49.2291839,49.9127875 C49.5384261,51.4942231 52.9135845,54.2815556 53.8368935,53.9769519 C54.7602025,53.6723482 56.5670608,51.7320644 56.7260997,51.3815615 C56.8851386,51.0310586 57,44.4215757 57,44.4215757 L54.402365,41 Z" id="Shape" fill="#115573"></path>
                <path d="M56.9997328,42.9920273 C56.9997328,42.9920273 55.2366189,39.8586202 56.2264372,36.8505493 C57.2162556,33.8424785 55.2095536,33.5374936 53.7480249,34.4608042 C52.2864963,35.3841148 51.466803,39.6455485 52.3908912,40.7276184 C53.3149794,41.8096883 53.9800136,42.7455326 53.6668289,44.1701883 C53.3536442,45.5948441 52.8548686,51.3812026 54.962099,50.9801265 C57.0693294,50.5790503 56.9997328,42.9920273 56.9997328,42.9920273 Z" id="Shape" fill="#006699"></path>
                <path d="M58.9895948,44.4432705 C58.9895948,44.4432705 59.1655742,42.6844205 58.0701025,42.3528672 C56.9746308,42.0213139 55.9099555,43.0685372 54.044574,42.1830472 C52.1791925,41.2975572 49.2799321,40.5091072 48.8311847,41.3743805 C48.3824372,42.2396539 47.3221614,43.3070938 49.3283264,44.2047138 C50.4080733,44.7168318 51.5515167,45.1064985 52.7335276,45.3651505 C52.7335276,45.3651505 48.5012233,44.7465205 48.162463,45.7897005 C47.8237027,46.8328804 47.9864836,47.5485504 48.9191744,47.9892737 C49.8518651,48.4299971 52.5883446,48.5068204 52.5883446,48.5068204 C52.5883446,48.5068204 48.7695919,48.7898537 48.8575816,49.9058137 C48.9455713,51.0217737 52.8171178,51.2967203 52.8171178,51.2967203 C52.8171178,51.2967203 48.3428419,52.0123903 49.4559115,53.039397 C50.5689811,54.0664036 52.5839451,54.1472703 54.0841694,53.8480636 C55.5843937,53.548857 57.9469169,54.1230103 58.2152855,52.6593236 C58.4836541,51.195637 57.5509633,50.746827 58.1008989,49.3316604 C58.6508345,47.9164937 58.9895948,44.4432705 58.9895948,44.4432705 Z" id="Shape" fill="#0082C6"></path>
                <path d="M56,54 C56,54 58.3385078,53.8245614 57.9581708,53.1779449 C57.7073717,52.7565834 57.4315907,52.3626725 57.1334796,52 L56,54 Z" id="Shape" fill="#00A9E9"></path>
                <path d="M52.6144655,51.2822917 C52.6144655,51.2822917 48.916939,51.0080137 48.8199686,49.894768 C48.7229981,48.7815223 52.3952279,48.4991773 52.3952279,48.4991773 C52.3952279,48.4991773 49.7728089,48.4225409 48.8789941,47.9828895 C47.9851792,47.5432381 47.8333994,46.8293087 48.1538236,45.788666 C48.4742477,44.7480232 52.5343595,45.3651486 52.5343595,45.3651486 C51.4016165,45.1071257 50.3058335,44.7184067 49.2710921,44.2075343 C47.348547,43.3040306 48.3646289,42.2553208 48.7946719,41.384085 C49.1193122,40.7225912 50.7678103,41.0049361 52.3277702,41.5575255 C51.9061594,41.6381954 51.5941674,41.7914684 51.4845486,42.0697798 C51.1008828,43.1870591 52.243448,44.5947503 53.0487246,44.7439897 C53.8833114,44.942327 54.7053841,45.1860779 55.5109315,45.474053 C55.5109315,45.474053 52.1043165,45.3893496 51.5899513,46.2081499 C51.0755862,47.0269502 52.5343595,47.664243 52.9812669,47.7489465 C53.4281743,47.83365 56,48.4951438 56,48.4951438 C56,48.4951438 51.6784896,48.3297704 51.5941674,49.3260446 C51.5098453,50.3223189 55.0808885,51.0725497 55.0808885,51.0725497 C55.0808885,51.0725497 52.6692749,51.6291726 52.8716481,52.5851119 C53.023428,53.2950077 54.6761422,53.6257546 55.5109315,53.7467596 C54.9465432,53.7415763 54.3826179,53.7793413 53.8244884,53.8596976 C52.3867957,54.1420425 50.4516023,54.057339 49.3891431,53.0529978 C48.326684,52.0486565 52.6144655,51.2822917 52.6144655,51.2822917 Z" id="Shape" fill="#006699"></path>
                <path d="M58.6461331,44.9410323 C58.6461331,44.9410323 59.4423337,43.842656 58.6461331,43.2240303 C57.8499324,42.6054046 57.5061185,43.4933639 56.4656291,43.2240303 C55.4251397,42.9546967 54.2625058,43.3039887 55.6060943,44.1204063 C56.9496829,44.936824 57.3704025,44.2466565 57.3115923,45.6690748 C57.252782,47.0914931 55.3029952,45.7869083 55.891098,46.9315763 C56.4792007,48.0762443 56.8637294,47.5838687 56.9858738,48.5644115 C57.1080182,49.5449543 56.2032448,50.1425383 56.8863487,51.3166647 C57.2483902,51.9672808 57.7522,52.5405778 58.3656533,53 C58.3656533,53 57.2346865,51.5523317 57.6011198,50.0878299 C57.8752924,48.798036 58.0776283,47.495923 58.2073179,46.1867004 L58.6461331,44.9410323 Z" id="Shape" fill="#00A9E9"></path>
                <path d="M21.0897506,13.0042388 C21.2075087,13.0044455 21.3239953,13.0289621 21.432129,13.0762981 C21.6008492,13.1392984 21.7465469,13.2531901 21.8496635,13.4026844 C21.9487639,13.5468028 22.0012909,13.718628 21.9999759,13.8943833 L21.9999759,24.1140896 C22.0012909,24.2898449 21.9487639,24.4616701 21.8496635,24.6057885 C21.6759578,24.8531781 21.3931282,24.9975346 21.093926,24.9915178 C20.8538989,24.9950155 20.6218957,24.9038433 20.4467475,24.7371908 L17.0020877,21.3758357 L13.5574279,24.7371908 C13.3833557,24.9065543 13.151356,25.0007642 12.9102494,24.9999953 C12.7924913,24.9997886 12.6760047,24.975272 12.567871,24.927936 C12.3991508,24.8649357 12.2534531,24.751044 12.1503365,24.6015497 C12.0512361,24.4574313 11.9987091,24.2856061 12.0000241,24.1098509 L12.0000241,13.8901445 C11.9987091,13.7143892 12.0512361,13.542564 12.1503365,13.3984456 C12.2534531,13.2489513 12.3991508,13.1350596 12.567871,13.0720593 C12.6760047,13.0247233 12.7924913,13.0002067 12.9102494,13 L21.093926,13 L21.0897506,13.0042388 Z" id="Shape" fill="#FFFFFF"></path>
            </g>
        </g>
    </g>
</svg>