<?xml version="1.0" encoding="UTF-8"?>
<svg width="18px" height="20px" viewBox="0 0 18 20" version="1.1" xmlns="http://www.w3.org/2000/svg" xmlns:xlink="http://www.w3.org/1999/xlink">
    <!-- Generator: Sketch 50.2 (55047) - http://www.bohemiancoding.com/sketch -->
    <title>icon/icons/cendol ijo coklat abu</title>
    <desc>Created with Sketch.</desc>
    <defs></defs>
    <g id="Symbols" stroke="none" stroke-width="1" fill="none" fill-rule="evenodd">
        <g id="Card-HT" transform="translate(-17.000000, -328.000000)">
            <g id="icon/icons/cendol-ijo-coklat-abu" transform="translate(15.000000, 328.000000)">
                <g id="Group-3-Copy" transform="translate(2.000000, 0.000000)">
                    <polyline id="Fill-16" fill="#B3B3B3" points="13 0.29687006 11.5557445 3 11 0"></polyline>
                    <polyline id="Fill-19" fill="#B3B3B3" points="17 2.66744061 14 4 15.5989206 1"></polyline>
                    <polyline id="Fill-21" fill="#B3B3B3" points="17.8865913 7 15 5.83549784 18 5"></polyline>
                    <path d="M0.611976038,13.3645937 C1.95316685,12.2657098 3.97568137,12.2180356 6.67951958,13.2215712 C9.38335778,14.2251067 11.4662381,13.4838781 12.9281606,10.9978854 C13.3151207,16.9230776 11.1825414,19.8856737 6.53042265,19.8856737 C1.87830388,19.8856737 -0.0945116569,17.7119804 0.611976038,13.3645937 Z" id="Path-3" fill="#B3B3B3"></path>
                    <path d="M0.611976038,10.3645937 C1.95316685,9.26570978 3.97568137,9.21803562 6.67951958,10.2215712 C9.38335778,11.2251067 11.4662381,10.4838781 12.9281606,7.99788537 C13.3151207,13.9230776 11.1825414,16.8856737 6.53042265,16.8856737 C1.87830388,16.8856737 -0.0945116569,14.7119804 0.611976038,10.3645937 Z" id="Path-3" fill="#B3B3B3"></path>
                    <path d="M0.9051349,5.94111742 L0.9051349,15.7583838 C0.9051349,17.5785049 2.3289121,19.0588826 4.07944299,19.0588826 L8.92010444,19.0588826 C10.6706353,19.0588826 12.0948651,17.5785049 12.0948651,15.7583838 L12.0948651,5.94111742 L0.9051349,5.94111742 Z M8.92010444,20 L4.07944299,20 C1.83018277,20 0,18.0970606 0,15.7583838 L0,5 L13,5 L13,15.7583838 C13,18.0970606 11.1698172,20 8.92010444,20 Z" id="Fill-1" fill="#B3B3B3"></path>
                    <path d="M12.9374197,9.01482055 C14.4253798,9.10122763 15.1693599,10.0756347 15.1693599,11.9380418 C15.1693599,13.8004488 14.4253798,14.8128441 12.9374197,14.9752275" id="Path-4" stroke="#B3B3B3"></path>
                </g>
            </g>
        </g>
    </g>
</svg>