<?xml version="1.0" encoding="UTF-8"?>
<svg width="8px" height="9px" viewBox="0 0 8 9" version="1.1" xmlns="http://www.w3.org/2000/svg" xmlns:xlink="http://www.w3.org/1999/xlink">
    <!-- Generator: Sketch 52.6 (67491) - http://www.bohemiancoding.com/sketch -->
    <title>ic-editor-polling</title>
    <desc>Created with Sketch.</desc>
    <g id="Page-1" stroke="none" stroke-width="1" fill="none" fill-rule="evenodd">
        <g id="ic-editor-polling" fill="#1998ED" fill-rule="nonzero">
            <path d="M0.9375,2.55 C0.69578125,2.55 0.5,2.35421875 0.5,2.1125 L0.5,1.2375 C0.5,0.99578125 0.69578125,0.8 0.9375,0.8 L4.4375,0.8 C4.67921875,0.8 4.875,0.99578125 4.875,1.2375 L4.875,2.1125 C4.875,2.35421875 4.67921875,2.55 4.4375,2.55 L0.9375,2.55 Z M0.9375,5.55 C0.69578125,5.55 0.5,5.35421875 0.5,5.1125 L0.5,4.2375 C0.5,3.99578125 0.69578125,3.8 0.9375,3.8 L7.0625,3.8 C7.3042187,3.8 7.5,3.99578125 7.5,4.2375 L7.5,5.1125 C7.5,5.35421875 7.3042187,5.55 7.0625,5.55 L0.9375,5.55 Z M0.9375,8.55 C0.69578125,8.55 0.5,8.3542187 0.5,8.1125 L0.5,7.2375 C0.5,6.99578125 0.69578125,6.8 0.9375,6.8 L2.6875,6.8 C2.92921875,6.8 3.125,6.99578125 3.125,7.2375 L3.125,8.1125 C3.125,8.3542187 2.92921875,8.55 2.6875,8.55 L0.9375,8.55 Z" id="Combined-Shape"></path>
        </g>
    </g>
</svg>