<svg xmlns="http://www.w3.org/2000/svg" width="16" height="16" viewBox="0 0 16 16">
    <g fill="none" fill-rule="evenodd">
        <path fill="#F84D34" d="M7.655 16.12A8 8 0 0 1 8.345.135a8 8 0 0 1-.69 15.985z"/>
        <path fill="#FFF" d="M10 8.143h1.385V6.857H10v1.286zm0 1.714h1.385V8.43H10v1.428zm0 1.572h1.385v-1.286H10v1.286zM9.585 6.1a.133.133 0 0 1-.045-.1V4.715c0-.039.014-.072.045-.1a.154.154 0 0 1 .109-.043H10c.042 0 .078.014.108.043.03.028.046.061.046.1v1.286a.134.134 0 0 1-.046.1.155.155 0 0 1-.108.042h-.307a.156.156 0 0 1-.11-.042zm-1.43 2.042h1.539V6.857H8.155v1.286zm0 1.714h1.539V8.43H8.155v1.428zm0 1.572h1.539v-1.286H8.155v1.286zM6.309 8.143h1.539V6.857h-1.54v1.286zm0 1.714h1.539V8.43h-1.54v1.428zm0 1.572h1.539v-1.286h-1.54v1.286zM5.892 6.1a.134.134 0 0 1-.046-.1V4.715c0-.039.015-.072.046-.1A.154.154 0 0 1 6 4.572h.307c.042 0 .079.014.11.043.03.028.044.061.044.1v1.286a.133.133 0 0 1-.045.1.156.156 0 0 1-.109.042H6a.156.156 0 0 1-.108-.042zM4.616 8.143H6V6.857H4.616v1.286zm0 1.714H6V8.43H4.616v1.428zm0 1.572H6v-1.286H4.616v1.286zm7.201-6.116a.612.612 0 0 0-.432-.17h-.615v-.428a.663.663 0 0 0-.227-.505A.772.772 0 0 0 10 4h-.307a.77.77 0 0 0-.543.21.663.663 0 0 0-.227.505v.428H7.077v-.428a.663.663 0 0 0-.226-.505.773.773 0 0 0-.544-.21H6a.772.772 0 0 0-.543.21.665.665 0 0 0-.226.505v.428h-.616a.612.612 0 0 0-.432.17.53.53 0 0 0-.183.402v5.714a.53.53 0 0 0 .183.401c.121.114.266.17.432.17h6.77c.166 0 .31-.056.432-.17A.53.53 0 0 0 12 11.43V5.715a.53.53 0 0 0-.183-.402z"/>
    </g>
</svg>
