<?xml version="1.0" encoding="UTF-8"?>
<svg width="11px" height="12px" viewBox="0 0 11 12" version="1.1" xmlns="http://www.w3.org/2000/svg" xmlns:xlink="http://www.w3.org/1999/xlink">
    <!-- Generator: Sketch 52.6 (67491) - http://www.bohemiancoding.com/sketch -->
    <title>ic-editor-bold</title>
    <desc>Created with Sketch.</desc>
    <g id="Page-1" stroke="none" stroke-width="1" fill="none" fill-rule="evenodd">
        <g id="ic-editor-bold" fill="#1998ED" fill-rule="nonzero">
            <path d="M4.336,10.883 C4.72133333,11.0496667 5.086,11.133 5.43,11.133 C7.388,11.133 8.367,10.2606667 8.367,8.516 C8.367,7.922 8.26033333,7.45333333 8.047,7.11 C7.90633333,6.88066667 7.74633333,6.688 7.567,6.532 C7.38766667,6.376 7.212,6.255 7.04,6.169 C6.868,6.083 6.65833333,6.018 6.411,5.974 C6.16366667,5.93 5.945,5.90266667 5.755,5.892 C5.565,5.88133333 5.319,5.876 5.017,5.876 C4.637,5.876 4.374,5.902 4.228,5.954 C4.228,6.23 4.22666667,6.644 4.224,7.196 C4.22133333,7.748 4.22,8.15933333 4.22,8.43 C4.22,8.47133333 4.21733333,8.647 4.212,8.957 C4.20666667,9.267 4.20533333,9.51833333 4.208,9.711 C4.21066667,9.90366667 4.22233333,10.121 4.243,10.363 C4.26366667,10.605 4.295,10.7783333 4.337,10.883 L4.336,10.883 Z M4.227,5.055 C4.44566667,5.09166667 4.72966667,5.11 5.079,5.11 C5.50633333,5.11 5.87866667,5.076 6.196,5.008 C6.51333333,4.94 6.79966667,4.824 7.055,4.66 C7.31033333,4.496 7.50433333,4.263 7.637,3.961 C7.76966667,3.659 7.836,3.28933333 7.836,2.852 C7.836,2.48733333 7.76033333,2.16833333 7.609,1.895 C7.45766667,1.62166667 7.252,1.408 6.992,1.254 C6.732,1.1 6.45066667,0.986666667 6.148,0.914 C5.84533333,0.841333333 5.52233333,0.805 5.179,0.805 C4.91833333,0.805 4.57966667,0.839 4.163,0.907 C4.163,1.16766667 4.17333333,1.561 4.194,2.087 C4.21466667,2.613 4.225,3.00866667 4.225,3.274 C4.225,3.41466667 4.22366667,3.623 4.221,3.899 C4.21833333,4.175 4.217,4.38066667 4.217,4.516 C4.217,4.75533333 4.21966667,4.935 4.225,5.055 L4.227,5.055 Z M0,12 L0.016,11.266 C0.094,11.2453333 0.315333333,11.2036667 0.68,11.141 C1.04466667,11.0783333 1.32066667,11.008 1.508,10.93 C1.54466667,10.8673333 1.57733333,10.797 1.606,10.719 C1.63466667,10.641 1.65666667,10.5536667 1.672,10.457 C1.68733333,10.3603333 1.70166667,10.2756667 1.715,10.203 C1.72833333,10.1303333 1.736,10.0326667 1.738,9.91 C1.74,9.78733333 1.74133333,9.69866667 1.742,9.644 L1.742,9.132 C1.742,4.01733333 1.68466667,1.348 1.57,1.124 C1.54933333,1.08266667 1.492,1.045 1.398,1.011 C1.304,0.977 1.188,0.948333333 1.05,0.925 C0.912,0.901666667 0.783,0.883333333 0.663,0.87 C0.543,0.856666667 0.416666667,0.845 0.284,0.835 C0.151333333,0.825 0.072,0.817333333 0.046,0.812 L0.015,0.164 C0.525666667,0.153333333 1.411,0.123333333 2.671,0.074 C3.931,0.0246666667 4.90233333,0 5.585,0 C5.705,0 5.88333333,0.00133333333 6.12,0.004 C6.35666667,0.00666666667 6.53233333,0.008 6.647,0.008 C7.01166667,0.008 7.367,0.042 7.713,0.11 C8.059,0.178 8.39366667,0.287333333 8.717,0.438 C9.04033333,0.588666667 9.32166667,0.773666667 9.561,0.993 C9.80033333,1.21233333 9.993,1.48433333 10.139,1.809 C10.285,2.13366667 10.358,2.49166667 10.358,2.883 C10.358,3.15366667 10.315,3.40233333 10.229,3.629 C10.143,3.85566667 10.0413333,4.04333333 9.924,4.192 C9.80666667,4.34066667 9.63866667,4.49033333 9.42,4.641 C9.20133333,4.79166667 9.01133333,4.909 8.85,4.993 C8.68866667,5.077 8.47,5.181 8.194,5.305 C8.996,5.487 9.664,5.836 10.198,6.352 C10.732,6.868 10.999,7.51366667 10.999,8.289 C10.999,8.80966667 10.908,9.277 10.726,9.691 C10.544,10.105 10.3006667,10.445 9.996,10.711 C9.69133333,10.977 9.332,11.1996667 8.918,11.379 C8.504,11.5583333 8.07833333,11.6846667 7.641,11.758 C7.20366667,11.8313333 6.74533333,11.8676667 6.266,11.867 C6.03666667,11.867 5.693,11.8593333 5.235,11.844 C4.777,11.8286667 4.43333333,11.821 4.204,11.821 C3.652,11.821 2.85266667,11.8496667 1.806,11.907 C0.759333333,11.9643333 0.157666667,11.9956667 0.001,12.001 L0,12 Z" id="Shape"></path>
        </g>
    </g>
</svg>