<?xml version="1.0" encoding="UTF-8"?>
<svg width="14px" height="14px" viewBox="0 0 14 14" version="1.1" xmlns="http://www.w3.org/2000/svg" xmlns:xlink="http://www.w3.org/1999/xlink">
    <!-- Generator: Sketch 52.6 (67491) - http://www.bohemiancoding.com/sketch -->
    <title>Combined Shape</title>
    <desc>Created with Sketch.</desc>
    <g id="Symbols" stroke="none" stroke-width="1" fill="none" fill-rule="evenodd">
        <g id="toolbar" transform="translate(-642.000000, -8.000000)" fill="#1998ED">
            <g id="Group-5">
                <g id="Group-27" transform="translate(25.000000, 5.000000)">
                    <path d="M629.684738,13.0035867 C629.684738,14.4843495 628.484324,15.6847378 627.003587,15.6847378 L621.081151,15.6847378 C619.600388,15.6847378 618.4,14.4843495 618.4,13.0035867 L618.4,7.08115111 C618.4,5.60041398 619.600388,4.4 621.081151,4.4 L627.003587,4.4 C628.484324,4.4 629.684738,5.60041398 629.684738,7.08115111 L629.684738,13.0035867 Z M627.673722,3 C629.510775,3 631,4.48922453 631,6.32627799 L631,13.673722 C631,15.5107755 629.510775,17 627.673722,17 L620.326278,17 C618.489225,17 617,15.5107755 617,13.673722 L617,6.32627799 C617,4.48922453 618.489225,3 620.326278,3 L627.673722,3 Z M621.846154,7.84615385 C621.846154,7.25137891 621.364,6.76923077 620.76929,6.76923077 C620.174485,6.76923077 619.692308,7.25137891 619.692308,7.84615385 C619.692308,8.44099941 620.174485,8.92307692 620.76929,8.92307692 C621.364,8.92307692 621.846154,8.44099941 621.846154,7.84615385 Z M628.307692,12.6923077 L625.222764,7.84615385 L623.425287,10.4913184 L622.448517,9.44846028 L619.692308,12.6923077 L628.307692,12.6923077 Z" id="Combined-Shape"></path>
                </g>
            </g>
        </g>
    </g>
</svg>