<?xml version="1.0" encoding="UTF-8"?>
<svg width="15px" height="15px" viewBox="0 0 15 15" version="1.1" xmlns="http://www.w3.org/2000/svg" xmlns:xlink="http://www.w3.org/1999/xlink">
    <!-- Generator: Sketch 52.6 (67491) - http://www.bohemiancoding.com/sketch -->
    <title>Shape</title>
    <desc>Created with Sketch.</desc>
    <g id="Symbols" stroke="none" stroke-width="1" fill="none" fill-rule="evenodd">
        <g id="toolbar" transform="translate(-676.000000, -8.000000)" fill="#6E6E6E" fill-rule="nonzero">
            <g id="Group-5">
                <g id="Group-27" transform="translate(25.000000, 5.000000)">
                    <path d="M662.074404,12.2472088 C661.833611,13.0345776 661.384519,13.6690552 660.727129,14.1506416 C660.069738,14.632228 659.327779,14.8730212 658.50125,14.8730212 C657.674721,14.8730212 656.932761,14.632228 656.275371,14.1506416 C655.61798,13.6690552 655.168889,13.0345776 654.928095,12.2472088 C654.876437,12.0847359 654.889352,11.9268455 654.966839,11.7735377 C655.044326,11.62023 655.168055,11.517747 655.338027,11.466089 C655.5005,11.4144309 655.65839,11.4273454 655.811698,11.5048325 C655.965006,11.5823196 656.067489,11.706049 656.119147,11.8760207 C656.28162,12.3967672 656.58282,12.8183636 657.022746,13.1408099 C657.462673,13.4632561 657.955924,13.6244793 658.5025,13.6244793 C659.049075,13.6244793 659.542326,13.4632561 659.982253,13.1408099 C660.42218,12.8183636 660.723379,12.3967672 660.885852,11.8760207 C660.93751,11.7068822 661.04166,11.5831528 661.1983,11.5048325 C661.354941,11.4265122 661.514498,11.4135977 661.676971,11.466089 C661.839443,11.5185802 661.95984,11.6210632 662.03816,11.7735377 C662.116481,11.9260123 662.129395,12.0839027 662.076904,12.2472088 L662.074404,12.2472088 Z M657.251458,8.0004166 C657.251458,8.34535911 657.129395,8.63989335 656.885269,8.88401933 C656.641143,9.12814531 656.346609,9.2502083 656.001666,9.2502083 C655.656724,9.2502083 655.36219,9.12814531 655.118064,8.88401933 C654.873938,8.63989335 654.751875,8.34535911 654.751875,8.0004166 C654.751875,7.65547409 654.873938,7.36093984 655.118064,7.11681386 C655.36219,6.87268789 655.656724,6.7506249 656.001666,6.7506249 C656.346609,6.7506249 656.641143,6.87268789 656.885269,7.11681386 C657.129395,7.36093984 657.251458,7.65547409 657.251458,8.0004166 Z M662.250625,8.0004166 C662.250625,8.34535911 662.128562,8.63989335 661.884436,8.88401933 C661.64031,9.12814531 661.345776,9.2502083 661.000833,9.2502083 C660.655891,9.2502083 660.361356,9.12814531 660.11723,8.88401933 C659.873104,8.63989335 659.751041,8.34535911 659.751041,8.0004166 C659.751041,7.65547409 659.873104,7.36093984 660.11723,7.11681386 C660.361356,6.87268789 660.655891,6.7506249 661.000833,6.7506249 C661.345776,6.7506249 661.64031,6.87268789 661.884436,7.11681386 C662.128562,7.36093984 662.250625,7.65547409 662.250625,8.0004166 Z M664.750208,10.5 C664.750208,9.65347442 664.584403,8.84485919 664.252791,8.07415431 C663.92118,7.30344943 663.477087,6.63939343 662.920513,6.08198634 C662.363939,5.52457924 661.699883,5.08048659 660.928345,4.74970838 C660.156807,4.41893018 659.348192,4.25312448 658.5025,4.25229128 C657.656807,4.25145809 656.848192,4.41726379 656.076654,4.74970838 C655.305116,5.08215297 654.64106,5.52624563 654.084486,6.08198634 C653.527912,6.63772705 653.083819,7.30178304 652.752208,8.07415431 C652.420597,8.84652558 652.254791,9.65514081 652.254791,10.5 C652.254791,11.3448592 652.420597,12.1534744 652.752208,12.9258457 C653.083819,13.698217 653.527912,14.362273 654.084486,14.9180137 C654.64106,15.4737544 655.305116,15.917847 656.076654,16.2502916 C656.848192,16.5827362 657.656807,16.7485419 658.5025,16.7477087 C659.348192,16.7468755 660.156807,16.5810698 660.928345,16.2502916 C661.699883,15.9195134 662.363939,15.4754208 662.920513,14.9180137 C663.477087,14.3606066 663.92118,13.6965506 664.252791,12.9258457 C664.584403,12.1551408 664.750208,11.3465256 664.750208,10.5 Z M666,10.5 C666,11.8606066 665.664639,13.1153974 664.993918,14.2643726 C664.323196,15.4133478 663.413348,16.3231961 662.264373,16.9939177 C661.115397,17.6646392 659.860607,18 658.5,18 C657.139393,18 655.884603,17.6646392 654.735627,16.9939177 C653.586652,16.3231961 652.676804,15.4133478 652.006082,14.2643726 C651.335361,13.1153974 651,11.8606066 651,10.5 C651,9.13939343 651.335361,7.88460257 652.006082,6.7356274 C652.676804,5.58665222 653.586652,4.67680387 654.735627,4.00608232 C655.884603,3.33536077 657.139393,3 658.5,3 C659.860607,3 661.115397,3.33536077 662.264373,4.00608232 C663.413348,4.67680387 664.323196,5.58665222 664.993918,6.7356274 C665.664639,7.88460257 666,9.13939343 666,10.5 Z" id="Shape"></path>
                </g>
            </g>
        </g>
    </g>
</svg>