<?xml version="1.0" encoding="UTF-8"?>
<svg width="21px" height="14px" viewBox="0 0 21 14" version="1.1" xmlns="http://www.w3.org/2000/svg" xmlns:xlink="http://www.w3.org/1999/xlink">
    <!-- Generator: Sketch 52.3 (67297) - http://www.bohemiancoding.com/sketch -->
    <title>Page 1 Copy 10</title>
    <desc>Created with Sketch.</desc>
    <g id="Symbols" stroke="none" stroke-width="1" fill="none" fill-rule="evenodd">
        <g id="toolbar" transform="translate(-430.000000, -8.000000)" fill="#6E6E6E">
            <g id="Group-5">
                <g id="Group-27" transform="translate(25.000000, 5.000000)">
                    <g id="Group-5-Copy-2" transform="translate(373.000000, 3.000000)">
                        <g id="Page-1-Copy-10" transform="translate(32.749000, 0.000000)">
                            <path d="M6.675,4.7527 L7.617,4.7527 L7.617,3.8257 L6.675,3.8257 L6.675,4.7527 Z M8.577,2.8677 L8.566,2.8677 L7.618,2.8677 L6.675,2.8677 L5.725,2.8677 L5.717,2.8677 L5.717,7.5967 L6.675,7.5967 L6.675,5.7117 L8.566,5.7117 L8.566,5.7087 L8.577,5.7087 L8.577,2.8677 Z" id="Fill-1"></path>
                            <path d="M10.478,6.6807 L11.415,6.6807 L11.415,3.8267 L10.478,3.8267 L10.478,6.6807 Z M12.383,3.8257 L12.383,2.8677 L12.374,2.8677 L11.415,2.8677 L10.478,2.8677 L9.542,2.8677 L9.519,2.8677 L9.519,7.5967 L9.542,7.5967 L9.542,7.6397 L12.383,7.6397 L12.383,6.6807 L12.374,6.6807 L12.374,3.8257 L12.383,3.8257 Z" id="Fill-2"></path>
                            <polygon id="Fill-3" points="13.332 7.5967 14.291 7.5967 14.291 2.8677 13.332 2.8677"></polygon>
                            <polygon id="Fill-4" points="16.208 6.6382 16.208 2.8672 15.249 2.8672 15.249 6.6382 15.245 6.6382 15.245 7.5962 15.249 7.5962 16.208 7.5962 18.087 7.5962 18.087 6.6382"></polygon>
                            <polygon id="Fill-5" points="4.7754 4.7422 3.8174 4.7422 3.8174 4.7502 2.8754 4.7502 2.8754 3.8262 4.7584 3.8262 4.7584 2.8672 2.8754 2.8672 1.9174 2.8672 1.9174 3.8262 1.9174 4.7502 1.9174 5.7092 2.8754 5.7092 3.8174 5.7092 3.8174 6.6332 1.9174 6.6332 1.9174 7.5922 4.7584 7.5922 4.7584 7.5842 4.7754 7.5842"></polygon>
                            <polygon id="Fill-6" points="0.956 0.9577 19.041 0.9577 19.041 -0.0003 0.956 -0.0003"></polygon>
                            <polygon id="Fill-7" points="12.3741 9.5279 12.3741 10.4859 12.3831 10.4859 12.3831 13.3279 13.3411 13.3279 13.3411 10.4859 19.0411 10.4859 19.0411 9.5279"></polygon>
                            <polygon id="Fill-8" points="0 9.5247 0.958 9.5247 0.958 0.9607 0 0.9607"></polygon>
                            <polygon id="Fill-9" points="19.041 9.5247 19.999 9.5247 19.999 0.9607 19.041 0.9607"></polygon>
                            <polygon id="Fill-10" points="0.9558 9.5279 0.9558 10.4859 10.4668 10.4859 10.4668 11.4379 11.4148 11.4379 11.4148 12.3859 12.3738 12.3859 12.3738 11.4269 11.4258 11.4269 11.4258 10.4799 10.4778 10.4799 10.4778 9.5279"></polygon>
                        </g>
                    </g>
                </g>
            </g>
        </g>
    </g>
</svg>