<?xml version="1.0" encoding="UTF-8"?>
<svg width="12px" height="12px" viewBox="0 0 12 12" version="1.1" xmlns="http://www.w3.org/2000/svg" xmlns:xlink="http://www.w3.org/1999/xlink">
    <!-- Generator: Sketch 52.3 (67297) - http://www.bohemiancoding.com/sketch -->
    <title>underline</title>
    <desc>Created with Sketch.</desc>
    <g id="Symbols" stroke="none" stroke-width="1" fill="none" fill-rule="evenodd">
        <g id="toolbar" transform="translate(-85.000000, -10.000000)" fill="#6E6E6E" fill-rule="nonzero">
            <g id="Group-5">
                <g id="Group-27" transform="translate(25.000000, 5.000000)">
                    <g id="Group-14-Copy-5" transform="translate(0.000000, 4.000000)">
                        <g id="underline" transform="translate(60.000000, 0.000000)">
                            <path d="M0.375,1.742 C0.182333333,1.73133333 0.065,1.721 0.023,1.711 L-1.24896702e-16,1.023 C0.068,1.01766667 0.172,1.015 0.312,1.015 C0.624666667,1.015 0.916333333,1.02533333 1.187,1.046 C1.87433333,1.08266667 2.30666667,1.101 2.484,1.101 C2.932,1.101 3.36966667,1.09333333 3.797,1.078 C4.401,1.05733333 4.78133333,1.04433333 4.938,1.039 C5.23,1.039 5.454,1.03366667 5.61,1.023 L5.602,1.132 L5.618,1.632 L5.618,1.702 C5.30533333,1.74866667 4.98233333,1.772 4.649,1.772 C4.33633333,1.772 4.13066667,1.837 4.032,1.967 C3.964,2.03966667 3.93,2.38333333 3.93,2.998 C3.93,3.066 3.93133333,3.15066667 3.934,3.252 C3.93666667,3.35333333 3.938,3.41966667 3.938,3.451 L3.946,5.24 L4.055,7.428 C4.08633333,8.074 4.219,8.6 4.453,9.006 C4.635,9.31333333 4.885,9.553 5.203,9.725 C5.66166667,9.96966667 6.12266667,10.092 6.586,10.092 C7.128,10.092 7.62533333,10.019 8.078,9.873 C8.37,9.779 8.62766667,9.64633333 8.851,9.475 C9.101,9.28766667 9.27033333,9.121 9.359,8.975 C9.54633333,8.683 9.68433333,8.386 9.773,8.084 C9.88233333,7.704 9.937,7.10766667 9.937,6.295 C9.937,5.88366667 9.928,5.55033333 9.91,5.295 C9.892,5.03966667 9.86333333,4.72066667 9.824,4.338 C9.78466667,3.95533333 9.74966667,3.54 9.719,3.092 L9.688,2.631 C9.662,2.28233333 9.59966667,2.053 9.501,1.943 C9.32366667,1.761 9.123,1.67233333 8.899,1.677 L8.118,1.693 L8.009,1.67 L8.025,0.998 L8.681,0.998 L10.283,1.076 C10.679,1.09133333 11.1893333,1.06533333 11.814,0.998 L11.955,1.014 C11.9863333,1.212 12.002,1.34466667 12.002,1.412 C12.002,1.44866667 11.9916667,1.52933333 11.971,1.654 C11.7363333,1.71666667 11.5176667,1.75066667 11.315,1.756 C10.935,1.81333333 10.7293333,1.85766667 10.698,1.889 C10.62,1.967 10.581,2.07366667 10.581,2.209 C10.581,2.24566667 10.585,2.316 10.593,2.42 C10.601,2.524 10.605,2.60466667 10.605,2.662 C10.6463333,2.76066667 10.7036667,3.792 10.777,5.756 C10.8083333,6.77133333 10.7693333,7.563 10.66,8.131 C10.582,8.527 10.4753333,8.84466667 10.34,9.084 C10.142,9.42266667 9.85033333,9.743 9.465,10.045 C9.07433333,10.3416667 8.60033333,10.5733333 8.043,10.74 C7.475,10.912 6.811,10.998 6.051,10.998 C5.181,10.998 4.44133333,10.8783333 3.832,10.639 C3.212,10.3943333 2.746,10.0766667 2.434,9.686 C2.116,9.29 1.9,8.78233333 1.786,8.163 C1.70266667,7.74633333 1.661,7.129 1.661,6.311 L1.661,3.709 C1.661,2.72966667 1.61666667,2.175 1.528,2.045 C1.398,1.85766667 1.01533333,1.756 0.38,1.74 L0.375,1.742 Z M12,12.75 L12,12.25 C12,12.1773333 11.9766667,12.1173333 11.93,12.07 C11.8833333,12.0226667 11.8233333,11.9993333 11.75,12 L0.25,12 C0.177333333,12 0.117333333,12.0233333 0.07,12.07 C0.0226666667,12.1166667 -0.000666666667,12.1766667 5.08219768e-21,12.25 L5.08219768e-21,12.75 C5.08219768e-21,12.8226667 0.0233333333,12.8826667 0.07,12.93 C0.116666667,12.9773333 0.176666667,13.0006667 0.25,13 L11.75,13 C11.8226667,13 11.8826667,12.9766667 11.93,12.93 C11.9773333,12.8833333 12.0006667,12.8233333 12,12.75 Z" id="Shape"></path>
                        </g>
                    </g>
                </g>
            </g>
        </g>
    </g>
</svg>