<?xml version="1.0" encoding="UTF-8"?>
<svg width="14px" height="11px" viewBox="0 0 14 11" version="1.1" xmlns="http://www.w3.org/2000/svg" xmlns:xlink="http://www.w3.org/1999/xlink">
    <!-- Generator: Sketch 52.3 (67297) - http://www.bohemiancoding.com/sketch -->
    <title>align-left</title>
    <desc>Created with Sketch.</desc>
    <g id="Symbols" stroke="none" stroke-width="1" fill="none" fill-rule="evenodd">
        <g id="toolbar" transform="translate(-139.000000, -10.000000)" fill="#6E6E6E" fill-rule="nonzero">
            <g id="Group-5">
                <g id="Group-27" transform="translate(25.000000, 5.000000)">
                    <g id="Group-16-Copy-4" transform="translate(114.000000, 5.000000)">
                        <g id="align-left">
                            <path d="M14,9.5 L14,10.5 C14,10.6353333 13.9506667,10.7526667 13.852,10.852 C13.7533333,10.9513333 13.636,11.0006667 13.5,11 L0.5,11 C0.364666667,11 0.247333333,10.9506667 0.148,10.852 C0.0486666667,10.7533333 -0.000666666667,10.636 2.77521875e-17,10.5 L2.77521875e-17,9.5 C2.77521875e-17,9.36466667 0.0493333333,9.24733333 0.148,9.148 C0.246666667,9.04866667 0.364,8.99933333 0.5,9 L13.5,9 C13.6353333,9 13.7526667,9.04933333 13.852,9.148 C13.9513333,9.24666667 14.0006667,9.364 14,9.5 Z M11,6.5 L11,7.5 C11,7.63533333 10.9506667,7.75266667 10.852,7.852 C10.7533333,7.95133333 10.636,8.00066667 10.5,8 L0.5,8 C0.364666667,8 0.247333333,7.95066667 0.148,7.852 C0.0486666667,7.75333333 -0.000666666667,7.636 2.77513405e-17,7.5 L2.77513405e-17,6.5 C2.77513405e-17,6.36466667 0.0493333333,6.24733333 0.148,6.148 C0.246666667,6.04866667 0.364,5.99933333 0.5,6 L10.5,6 C10.6353333,6 10.7526667,6.04933333 10.852,6.148 C10.9513333,6.24666667 11.0006667,6.364 11,6.5 Z M13,3.5 L13,4.5 C13,4.63533333 12.9506667,4.75266667 12.852,4.852 C12.7533333,4.95133333 12.636,5.00066667 12.5,5 L0.5,5 C0.364666667,5 0.247333333,4.95066667 0.148,4.852 C0.0486666667,4.75333333 -0.000666666667,4.636 2.77521875e-17,4.5 L2.77521875e-17,3.5 C2.77521875e-17,3.36466667 0.0493333333,3.24733333 0.148,3.148 C0.246666667,3.04866667 0.364,2.99933333 0.5,3 L12.5,3 C12.6353333,3 12.7526667,3.04933333 12.852,3.148 C12.9513333,3.24666667 13.0006667,3.364 13,3.5 Z M10,0.5 L10,1.5 C10,1.63533333 9.95066667,1.75266667 9.852,1.852 C9.75333333,1.95133333 9.636,2.00066667 9.5,2 L0.5,2 C0.364666667,2 0.247333333,1.95066667 0.148,1.852 C0.0486666667,1.75333333 -0.000666666667,1.636 2.77513405e-17,1.5 L2.77513405e-17,0.5 C2.77513405e-17,0.364666667 0.0493333333,0.247333333 0.148,0.148 C0.246666667,0.0486666667 0.364,-0.000666666667 0.5,1.66529219e-16 L9.5,1.66529219e-16 C9.63533333,1.66529219e-16 9.75266667,0.0493333333 9.852,0.148 C9.95133333,0.246666667 10.0006667,0.364 10,0.5 Z" id="Shape"></path>
                        </g>
                    </g>
                </g>
            </g>
        </g>
    </g>
</svg>