<?xml version="1.0" encoding="UTF-8"?>
<svg width="8px" height="12px" viewBox="0 0 8 12" version="1.1" xmlns="http://www.w3.org/2000/svg" xmlns:xlink="http://www.w3.org/1999/xlink">
    <!-- Generator: Sketch 52.6 (67491) - http://www.bohemiancoding.com/sketch -->
    <title>italic</title>
    <desc>Created with Sketch.</desc>
    <g id="Symbols" stroke="none" stroke-width="1" fill="none" fill-rule="evenodd">
        <g id="toolbar" transform="translate(-57.000000, -9.000000)" fill="#1998ED" fill-rule="nonzero">
            <g id="Group-5">
                <g id="Group-27" transform="translate(25.000000, 5.000000)">
                    <g id="Group-14-Copy-5" transform="translate(0.000000, 4.000000)">
                        <g id="italic" transform="translate(31.000000, 0.000000)">
                            <path d="M1,11.984 L1.133,11.32 C1.16433333,11.3093333 1.37666667,11.2533333 1.77,11.152 C2.16333333,11.0506667 2.45366667,10.953 2.641,10.859 C2.787,10.677 2.89366667,10.414 2.961,10.07 C2.96633333,10.0333333 3.12766667,9.28066667 3.445,7.812 C3.76233333,6.34333333 4.05933333,4.928 4.336,3.566 C4.61266667,2.204 4.748,1.432 4.742,1.25 L4.742,1.055 C4.61733333,0.987 4.47533333,0.938666667 4.316,0.91 C4.15666667,0.881333333 3.97566667,0.860666667 3.773,0.848 C3.57033333,0.835333333 3.41933333,0.821 3.32,0.805 L3.468,8.8817842e-16 C3.64,0.0106666667 3.95233333,0.0276666667 4.405,0.051 C4.85766667,0.0743333333 5.247,0.0926666667 5.573,0.106 C5.899,0.119333333 6.21266667,0.126 6.514,0.126 C6.764,0.126 7.02066667,0.119333333 7.284,0.106 C7.54733333,0.0926666667 7.86233333,0.0743333333 8.229,0.051 C8.59566667,0.0276666667 8.85233333,0.0106666667 8.999,8.8817842e-16 C8.973,0.203333333 8.92366667,0.435 8.851,0.695 C8.695,0.747 8.43066667,0.821333333 8.058,0.918 C7.68533333,1.01466667 7.40266667,1.102 7.21,1.18 C7.16866667,1.27866667 7.13233333,1.38933333 7.101,1.512 C7.06966667,1.63466667 7.04633333,1.73866667 7.031,1.824 C7.01566667,1.90933333 6.996,2.02766667 6.972,2.179 C6.948,2.33033333 6.931,2.43966667 6.921,2.507 C6.78033333,3.27766667 6.55233333,4.37 6.237,5.784 C5.92166667,7.198 5.72,8.12366667 5.632,8.561 C5.62133333,8.60766667 5.58733333,8.75866667 5.53,9.014 C5.47266667,9.26933333 5.42066667,9.50366667 5.374,9.717 C5.32733333,9.93033333 5.28566667,10.1476667 5.249,10.369 C5.21233333,10.5903333 5.19666667,10.74 5.202,10.818 L5.21,10.959 C5.29866667,10.9796667 5.78033333,11.0603333 6.655,11.201 C6.63966667,11.4303333 6.598,11.688 6.53,11.974 C6.47266667,11.974 6.388,11.978 6.276,11.986 C6.164,11.994 6.07933333,11.998 6.022,11.998 C5.87066667,11.998 5.644,11.972 5.342,11.92 C5.04,11.868 4.816,11.842 4.67,11.842 C3.95133333,11.8313333 3.415,11.826 3.061,11.826 C2.79566667,11.826 2.42333333,11.8493333 1.944,11.896 C1.46466667,11.9426667 1.14966667,11.9713333 0.999,11.982 L1,11.984 Z" id="Shape"></path>
                        </g>
                    </g>
                </g>
            </g>
        </g>
    </g>
</svg>