<?xml version="1.0" encoding="UTF-8"?>
<svg width="30px" height="30px" viewBox="0 0 30 30" version="1.1" xmlns="http://www.w3.org/2000/svg" xmlns:xlink="http://www.w3.org/1999/xlink">
    <!-- Generator: Sketch 52.3 (67297) - http://www.bohemiancoding.com/sketch -->
    <title>Group 14</title>
    <desc>Created with Sketch.</desc>
    <defs>
        <polygon id="path-1" points="1.14942529e-05 0.00263358779 29.9973563 0.00263358779 29.9973563 29.8854962 1.14942529e-05 29.8854962"></polygon>
    </defs>
    <g id="WEB-Update-10.10.2018" stroke="none" stroke-width="1" fill="none" fill-rule="evenodd">
        <g id="Create-Thread---Smiley" transform="translate(-974.000000, -160.000000)">
            <g id="Group-30" transform="translate(955.000000, 150.000000)">
                <g id="Group-14" transform="translate(19.000000, 10.000000)">
                    <g id="Group-3" transform="translate(0.000000, 0.111870)">
                        <mask id="mask-2" fill="white">
                            <use xlink:href="#path-1"></use>
                        </mask>
                        <g id="Clip-2"></g>
                        <path d="M6.7484023,0.00263358779 L23.2472529,0.00263358779 C26.9756437,0.00263358779 29.9973678,3.01282443 29.9973678,6.72549618 L29.9973678,23.161145 C29.9973678,26.8751908 26.9756437,29.8854962 23.2472529,29.8854962 L6.7484023,29.8854962 C3.02127586,29.8854962 1.14942529e-05,26.8751908 1.14942529e-05,23.161145 L1.14942529e-05,6.72549618 C1.14942529e-05,3.01282443 3.02127586,0.00263358779 6.7484023,0.00263358779" id="Fill-1" fill="#19A89E" mask="url(#mask-2)"></path>
                    </g>
                    <path d="M14.9986207,2.60473282 C17.0662069,2.60473282 18.7483908,4.28049618 18.7483908,6.34019084 L11.2488506,6.34019084 C11.2488506,4.28049618 12.9310345,2.60473282 14.9986207,2.60473282 M14.9986207,1.98217557 C12.5826437,1.98217557 10.624023,3.93332061 10.624023,6.34019084 L10.624023,6.96263359 L19.3732184,6.96263359 L19.3732184,6.34019084 C19.3732184,3.93332061 17.4145977,1.98217557 14.9986207,1.98217557" id="Fill-4" fill="#F9A61D"></path>
                    <path d="M25.6226667,21.9041107 C25.6226667,23.9585382 23.9354253,25.6395687 21.8728966,25.6395687 L8.12427586,25.6395687 C6.06186207,25.6395687 4.37450575,23.9585382 4.37450575,21.9041107 L4.37450575,8.20773664 C4.37450575,6.15319466 6.06186207,4.47250763 8.12427586,4.47250763 L21.8728966,4.47250763 C23.9354253,4.47250763 25.6226667,6.15319466 25.6226667,8.20773664 L25.6226667,21.9041107 Z" id="Fill-6" fill="#F9A61D"></path>
                    <path d="M14.9986207,5.09497328 C17.0662069,5.09497328 18.7483908,6.77073664 18.7483908,8.8304313 L11.2488506,8.8304313 C11.2488506,6.77073664 12.9310345,5.09497328 14.9986207,5.09497328 M14.9986207,4.47241603 C12.5826437,4.47241603 10.624023,6.42356107 10.624023,8.8304313 L10.624023,9.45287405 L19.3732184,9.45287405 L19.3732184,8.8304313 C19.3732184,6.42356107 17.4145977,4.47241603 14.9986207,4.47241603" id="Fill-8" fill="#FEFEFE"></path>
                    <path d="M24.3728391,21.9041107 L24.3728391,10.0755229 C24.3728391,8.70582824 23.2478966,7.58529389 21.872954,7.58529389 L9.37410345,7.58529389 L8.12410345,7.58529389 L5.62433333,7.58529389 L5.62433333,10.0755229 L5.62433333,11.3205229 L5.62433333,21.9041107 C5.62433333,23.2738053 6.74927586,24.3943397 8.12410345,24.3943397 L21.872954,24.3943397 C23.2478966,24.3943397 24.3728391,23.2738053 24.3728391,21.9041107" id="Fill-10" fill="#FEFEFE"></path>
                    <path d="M17.2512184,16.2341565 C17.1815632,16.1682023 17.1382299,16.0752252 17.1382299,15.9719427 C17.1382299,15.8700344 17.1809885,15.7772863 17.2497241,15.7117901 L21.2481149,11.943126 L18.0713333,11.943126 C17.9676552,11.943126 17.874092,11.9857214 17.8076552,12.0545382 C17.8074253,12.0546527 17.8067356,12.0548817 17.8063908,12.0553397 L15.0704138,14.808355 C15.0701839,14.8084695 15.069954,14.8084695 15.069954,14.8089275 C14.9147816,14.9430115 14.7142069,15.0255687 14.4943218,15.0315229 L13.663977,15.0315229 C13.5608736,15.0315229 13.4773103,14.9486221 13.4773103,14.8469427 L13.4773103,14.8447672 L13.4765057,14.8443092 L13.476046,12.2939656 C13.4683448,12.1082405 13.3196092,11.958355 13.1334023,11.9473626 L11.0515632,11.9473626 L11.0515632,15.0326679 L8.74903448,15.0326679 L8.74903448,16.0416756 L8.74903448,16.0462557 C8.74903448,16.5465229 9.15845977,16.9522099 9.6625977,16.9522099 L11.0515632,16.9522099 L11.0515632,16.9528969 L11.0515632,20.0364847 L13.104092,20.0364847 C13.1067356,20.0357977 13.1090345,20.0357977 13.1113333,20.0357977 C13.3115632,20.0357977 13.4738621,19.8758359 13.4765057,19.6774008 L13.476046,17.1307214 L13.4768506,17.1302634 C13.4817931,17.0329351 13.5623678,16.9541565 13.6627126,16.9541565 C13.6627126,16.9541565 14.4652414,16.9528969 14.4692644,16.9528969 C14.7101839,16.9528969 14.9291494,17.0457595 15.0928276,17.1977061 L17.8145517,19.9319427 C17.8806437,19.9966374 17.9712184,20.0364847 18.0713333,20.0364847 L21.2394943,20.0364847 L17.2517931,16.2350725 C17.2514483,16.2348435 17.2512184,16.2343855 17.2512184,16.2341565" id="Fill-12" fill="#1380C2"></path>
                </g>
            </g>
        </g>
    </g>
</svg>