<svg xmlns="http://www.w3.org/2000/svg" xmlns:xlink="http://www.w3.org/1999/xlink" width="28" height="28" viewBox="0 0 28 28">
    <defs>
        <path id="a" d="M0 0h28v28H0z"/>
    </defs>
    <g fill="none" fill-rule="evenodd">
        <g>
            <mask id="b" fill="#fff">
                <use xlink:href="#a"/>
            </mask>
            <path fill="#F2814F" d="M28 14c0 7.731-6.269 14-14 14S0 21.731 0 14C0 6.268 6.269 0 14 0s14 6.268 14 14" mask="url(#b)"/>
        </g>
        <path fill="#FFF" d="M21.39 10.821c0 .537-.324 1.093-.974 1.671-.65.577-1.46.966-2.428 1.165.508-1.113.764-2.389.764-3.826h2.638v.99zM7.846 12.492c-.65-.578-.974-1.134-.974-1.67V9.83h2.64c0 1.437.254 2.713.762 3.826-.968-.2-1.778-.588-2.428-1.165zm14.576-3.691a.955.955 0 0 0-.701-.29h-2.97v-.99a1.59 1.59 0 0 0-.484-1.164 1.594 1.594 0 0 0-1.166-.485h-5.94a1.59 1.59 0 0 0-1.164.485 1.588 1.588 0 0 0-.484 1.165v.99h-2.97a.953.953 0 0 0-.702.289.953.953 0 0 0-.288.7v1.32c0 .488.142.98.427 1.475.286.494.671.942 1.155 1.34.485.4 1.08.733 1.784 1.005a7.017 7.017 0 0 0 2.222.46c.288.37.615.697.98.979.261.234.442.482.541.748.1.264.15.572.15.923 0 .37-.105.683-.314.937-.21.254-.546.382-1.006.382-.515 0-.975.157-1.377.47-.402.312-.602.706-.602 1.18v.66a.318.318 0 0 0 .33.33h8.578a.324.324 0 0 0 .238-.093.327.327 0 0 0 .093-.238v-.66c0-.473-.202-.867-.605-1.18a2.182 2.182 0 0 0-1.377-.47c-.46 0-.795-.127-1.004-.381-.21-.254-.315-.567-.315-.937 0-.351.05-.659.15-.923.1-.266.28-.514.541-.748.365-.282.691-.609.979-.98a7.018 7.018 0 0 0 2.223-.459c.705-.272 1.3-.605 1.784-1.005.484-.4.87-.846 1.155-1.34.285-.495.428-.987.428-1.475v-1.32a.953.953 0 0 0-.289-.7z"/>
    </g>
</svg>
