<svg xmlns="http://www.w3.org/2000/svg" xmlns:xlink="http://www.w3.org/1999/xlink" width="20" height="20" viewBox="0 0 20 20">
    <defs>
        <path id="a" d="M13.81 4.334l.01.012.692-.355-.02-.028-.682.37zm3.994-2.029l-3.292 1.686 3.014 4.419c-.149.723-.683.37-.683.37L13.82 4.347l-1.2.615c-.232.115-.313.115-.498 0L8.183 2.305c-.312-.192-.538-.075-.279-.435.174-.241.082-.391.348-.391.118 0 .23.03.323.087l4.002 2.47 4.991-2.47a.81.81 0 0 1 .358-.087c.267 0 .297.15.375.39.115.36-.107.244-.497.436zM6.973 8.868s-.664.36-.551-.378l4.403-4.339.552.377-4.404 4.34zM19.435 0H7.336c-.383 0-.757.319-.835.711L6.473.85H1.898c-.276 0-.5.228-.5.512 0 .282.224.511.5.511h4.37L6.012 3.15H3.296c-.276 0-.5.23-.5.512 0 .283.224.512.5.512h2.51L5.54 5.511H.499C.223 5.51 0 5.74 0 6.023c0 .282.223.512.5.512h4.833l-.258 1.289c-.021-.003-.04-.013-.062-.013H3.348c-.276 0-.5.23-.5.512 0 .283.224.513.5.513h1.524l-.091.454c-.078.392.168.71.55.71h12.1c.383 0 .756-.318.835-.71L19.986.71C20.063.32 19.817 0 19.435 0z"/>
    </defs>
    <g fill="none" fill-rule="evenodd" transform="translate(0 5)">
        <mask id="b" fill="#fff">
            <use xlink:href="#a"/>
        </mask>
        <use fill="#1998ED" xlink:href="#a"/>
        <g fill="#B3B3B3" mask="url(#b)">
            <path d="M-5-10h30v30H-5z"/>
        </g>
    </g>
</svg>
