<?xml version="1.0" encoding="UTF-8"?>
<svg width="16px" height="16px" viewBox="0 0 16 16" version="1.1" xmlns="http://www.w3.org/2000/svg" xmlns:xlink="http://www.w3.org/1999/xlink">
    <!-- Generator: sketchtool 50.2 (55047) - http://www.bohemiancoding.com/sketch -->
    <title>8E2E4854-26A6-45FC-8999-16D570F3AC27</title>
    <desc>Created with sketchtool.</desc>
    <defs></defs>
    <g id="Symbols" stroke="none" stroke-width="1" fill="none" fill-rule="evenodd">
        <g id="icon/title/Top-Kreator">
            <g id="Page-1">
                <path d="M16,8 C16,12.4184 12.4184,16 8,16 C3.5816,16 0,12.4184 0,8 C0,3.5816 3.5816,0 8,0 C12.4184,0 16,3.5816 16,8" id="Fill-1" fill="#2F94BC"></path>
                <path d="M15.1664,8 C15.1664,11.9768 11.9496,15.2 7.9832,15.2 C4.016,15.2 0.8,11.9768 0.8,8 C0.8,4.0232 4.016,0.8 7.9832,0.8 C11.9496,0.8 15.1664,4.0232 15.1664,8" id="Fill-3" fill="#2F94BC"></path>
                <path d="M8,14.25624 C4.5496,14.25624 1.7424,11.44184 1.7424,7.98344 C1.7424,4.52424 4.5496,1.71064 8,1.71064 C11.4504,1.71064 14.2576,4.52424 14.2576,7.98344 C14.2576,11.44184 11.4504,14.25624 8,14.25624 M8,2.13064 C4.7808,2.13064 2.1608,4.75624 2.1608,7.98344 C2.1608,11.20984 4.7808,13.83624 8,13.83624 C11.2192,13.83624 13.8392,11.20984 13.8392,7.98344 C13.8392,4.75624 11.2192,2.13064 8,2.13064" id="Fill-5" fill="#FFFFFF"></path>
                <path d="M9.70232,3.32928 C10.01912,3.60528 10.05272,4.12768 9.77992,4.46128 C9.74872,4.49888 9.71432,4.53408 9.67992,4.56928 C8.61112,5.64128 7.53912,6.70928 6.47512,7.78608 C6.20632,8.05888 5.90952,8.17968 5.52712,8.07408 C5.51112,8.13168 5.49592,8.18688 5.48152,8.24288 C5.34472,8.75328 5.20792,9.26368 5.07032,9.77328 C5.05912,9.81648 5.06392,9.84528 5.09752,9.87808 C5.37992,10.15808 5.65992,10.44048 5.94072,10.72208 C5.96632,10.74848 5.98792,10.76528 6.03032,10.75488 C6.59112,10.60208 7.15192,10.45248 7.71352,10.30128 C7.71912,10.29968 7.72472,10.29568 7.73352,10.29008 C7.72232,10.23088 7.70792,10.17168 7.70232,10.11248 C7.67512,9.83568 7.76392,9.60288 7.95912,9.40608 C8.72152,8.64368 9.48312,7.87968 10.24472,7.11568 C10.58632,6.77328 10.92712,6.42928 11.27112,6.08768 C11.58792,5.77248 12.07272,5.75408 12.40952,6.04128 C12.42952,6.05888 12.45032,6.07888 12.47512,6.10288 C12.45512,6.12368 12.43912,6.14288 12.42152,6.16048 C10.97672,7.60928 9.53112,9.05968 8.08472,10.50688 C8.05272,10.53728 8.00952,10.56288 7.96712,10.57488 C6.84792,10.87728 5.72792,11.17808 4.60872,11.47968 C4.41992,11.52928 4.29352,11.40208 4.34392,11.21248 C4.64472,10.08608 4.94632,8.95968 5.24872,7.83168 C5.25752,7.79968 5.27512,7.76608 5.29912,7.74288 C6.75272,6.28288 8.20872,4.82368 9.66392,3.36448 C9.67512,3.35248 9.68712,3.34288 9.70232,3.32928" id="Fill-7" fill="#FFFFFF"></path>
                <path d="M10.57496,4.47576 C10.88136,4.49336 11.14696,4.65256 11.28856,4.98056 C11.42936,5.30776 11.37016,5.61256 11.13896,5.88296 C11.12616,5.89896 11.11096,5.91416 11.09496,5.92856 C9.99656,7.03096 8.89736,8.13336 7.79816,9.23576 C7.49976,9.53416 7.07416,9.58536 6.73416,9.36456 C6.29336,9.07896 6.21976,8.46216 6.58216,8.08136 C6.70056,7.95816 6.82296,7.83896 6.94376,7.71816 C7.93176,6.72616 8.92136,5.73576 9.90856,4.74376 C10.08056,4.57096 10.28296,4.47656 10.57496,4.47576" id="Fill-9" fill="#FFFFFF"></path>
            </g>
        </g>
    </g>
</svg>