<?xml version="1.0" encoding="UTF-8"?>
<svg width="300px" height="130px" viewBox="0 0 300 130" version="1.1" xmlns="http://www.w3.org/2000/svg" xmlns:xlink="http://www.w3.org/1999/xlink">
    <!-- Generator: Sketch 50.2 (55047) - http://www.bohemiancoding.com/sketch -->
    <title>pop up following</title>
    <desc>Created with Sketch.</desc>
    <defs></defs>
    <g id="WEB" stroke="none" stroke-width="1" fill="none" fill-rule="evenodd">
        <g id="web-profile-1---FOLLOWERS-Copy-2" transform="translate(-570.000000, -173.000000)">
            <g id="Group-35-Copy-2" transform="translate(520.000000, 163.000000)">
                <g id="Group-35-Copy-3">
                    <g id="Group-39" transform="translate(50.000000, 10.000000)">
                        <g id="Group-34" transform="translate(146.328057, 59.996621) rotate(-90.000000) translate(-146.328057, -59.996621) translate(95.828057, -75.503379)">
                            <g id="Group-35" transform="translate(33.000000, 159.000000)">
                                <path d="M11.5001964,4 C5.1491775,4 0,9.14887257 0,15.5 C0,21.8511274 5.1491775,27 11.5001964,27 C17.8512154,27 23,21.8511274 23,15.5 C23,9.14887257 17.8512154,4 11.5001964,4" id="Fill-12" fill="#B0E5EF" opacity="0.5"></path>
                                <path d="M25,11.5 C25,17.8511274 19.8512154,23 13.5001964,23 C7.1491775,23 2,17.8511274 2,11.5 C2,5.1469081 7.1491775,0 13.5001964,0 C19.8512154,0 25,5.1469081 25,11.5" id="Fill-45" fill="#F55065"></path>
                                <path d="M11.8461546,12.5 C11.1328008,12.5 10.5236931,12.207 10.0188315,11.621 C9.51396998,11.035 9.26153921,10.328 9.26153921,9.5 C9.26153921,8.672 9.51396998,7.965 10.0188315,7.379 C10.5236931,6.793 11.1328008,6.5 11.8461546,6.5 C12.5595084,6.5 13.1686161,6.793 13.6734777,7.379 C14.1783392,7.965 14.43077,8.672 14.43077,9.5 C14.43077,10.328 14.1783392,11.035 13.6734777,11.621 C13.1686161,12.207 12.5595084,12.5 11.8461546,12.5 Z M18.3076931,13.5 L20.6769238,13.5 C20.7355084,13.5 20.786052,13.5246667 20.8285546,13.574 C20.8710572,13.6233333 20.8923084,13.682 20.8923084,13.75 L20.8923084,15.25 C20.8923084,15.318 20.8710572,15.3766667 20.8285546,15.426 C20.786052,15.4753333 20.7355084,15.5 20.6769238,15.5 L18.3076931,15.5 L18.3076931,18.25 C18.3076931,18.318 18.2864418,18.3766667 18.2439392,18.426 C18.2014367,18.4753333 18.1508931,18.5 18.0923084,18.5 L16.8000008,18.5 C16.7414161,18.5 16.6908725,18.4753333 16.64837,18.426 C16.6058674,18.3766667 16.5846161,18.318 16.5846161,18.25 L16.5846161,15.5 L14.2153854,15.5 C14.1568008,15.5 14.1062572,15.4753333 14.0637546,15.426 C14.021252,15.3766667 14.0000008,15.318 14.0000008,15.25 L14.0000008,13.75 C14.0000008,13.682 14.021252,13.6233333 14.0637546,13.574 C14.1062572,13.5246667 14.1568008,13.5 14.2153854,13.5 L16.5846161,13.5 L16.5846161,10.75 C16.5846161,10.682 16.6058674,10.6233333 16.64837,10.574 C16.6908725,10.5246667 16.7414161,10.5 16.8000008,10.5 L18.0923084,10.5 C18.1508931,10.5 18.2014367,10.5246667 18.2439392,10.574 C18.2864418,10.6233333 18.3076931,10.682 18.3076931,10.75 L18.3076931,13.5 Z M13.3538469,15.25 C13.3538469,15.5206667 13.4391392,15.755 13.6097238,15.953 C13.7803084,16.151 13.9821956,16.25 14.2153854,16.25 L15.9384623,16.25 L15.9384623,18.109 C15.6334777,18.3696667 15.2498059,18.5 14.7874469,18.5 L8.90486229,18.5 C8.36209306,18.5 7.92672896,18.3203333 7.59876998,17.961 C7.27081101,17.6016667 7.1071187,17.107 7.10769306,16.477 C7.10769306,16.201 7.11544691,15.9313333 7.1309546,15.668 C7.14646229,15.4046667 7.17776486,15.1206667 7.22486229,14.816 C7.27195973,14.5113333 7.33140588,14.2286667 7.40320075,13.968 C7.47499562,13.7073333 7.57148793,13.4533333 7.69267768,13.206 C7.81386742,12.9586667 7.95286229,12.7476667 8.10966229,12.573 C8.26646229,12.3983333 8.45829819,12.259 8.68516998,12.155 C8.91204178,12.051 9.16217511,11.999 9.43556998,11.999 C9.52057511,11.999 9.60816486,12.0433333 9.69833921,12.132 C10.0527187,12.45 10.3993443,12.6883333 10.7382161,12.847 C11.0770879,13.0056667 11.4461136,13.085 11.8452931,13.085 C12.2444725,13.085 12.6134982,13.0056667 12.95237,12.847 C13.2912418,12.6883333 13.6378674,12.45 13.9922469,12.132 C14.0818469,12.0433333 14.1694367,11.999 14.2550161,11.999 C14.8471802,11.999 15.3339495,12.249 15.7153238,12.749 L14.2145238,12.749 C13.9813341,12.749 13.7794469,12.848 13.6088623,13.046 C13.4382777,13.244 13.3529854,13.4783333 13.3529854,13.749 L13.3529854,15.249 L13.3538469,15.25 Z" id="Shape" fill="#FFFFFF" fill-rule="nonzero" transform="translate(14.000000, 12.500000) rotate(-270.000000) translate(-14.000000, -12.500000) "></path>
                            </g>
                            <g id="Group-35-Copy" transform="translate(75.000000, 244.000000)">
                                <path d="M11.5001964,4 C5.1491775,4 0,9.14887257 0,15.5 C0,21.8511274 5.1491775,27 11.5001964,27 C17.8512154,27 23,21.8511274 23,15.5 C23,9.14887257 17.8512154,4 11.5001964,4" id="Fill-12" fill="#B0E5EF" opacity="0.5"></path>
                                <path d="M25,11.5 C25,17.8511274 19.8512154,23 13.5001964,23 C7.1491775,23 2,17.8511274 2,11.5 C2,5.1469081 7.1491775,0 13.5001964,0 C19.8512154,0 25,5.1469081 25,11.5" id="Fill-45" fill="#F55065"></path>
                            </g>
                            <g id="Group-35" transform="translate(0.000000, 208.000000)">
                                <path d="M11.5001964,4 C5.1491775,4 0,9.14887257 0,15.5 C0,21.8511274 5.1491775,27 11.5001964,27 C17.8512154,27 23,21.8511274 23,15.5 C23,9.14887257 17.8512154,4 11.5001964,4" id="Fill-12" fill="#B0E5EF" opacity="0.5"></path>
                                <path d="M25,11.5 C25,17.8511274 19.8512154,23 13.5001964,23 C7.1491775,23 2,17.8511274 2,11.5 C2,5.1469081 7.1491775,0 13.5001964,0 C19.8512154,0 25,5.1469081 25,11.5" id="Fill-45" fill="#30C436"></path>
                            </g>
                            <g id="Group-41" transform="translate(28.000000, 105.000000)">
                                <path d="M9.5000972,5 C4.2532613,5 0,9.2532613 0,14.5000972 C0,19.7467387 4.2532613,24 9.5000972,24 C14.7467387,24 19,19.7467387 19,14.5000972 C19,9.2532613 14.7467387,5 9.5000972,5" id="Fill-18" fill="#B0E5EF" opacity="0.5"></path>
                                <path d="M21,9.4999028 C21,14.7467387 16.7467387,19 11.5000972,19 C6.2534557,19 2,14.7467387 2,9.4999028 C2,4.2532613 6.2534557,0 11.5000972,0 C16.7467387,0 21,4.2532613 21,9.4999028" id="Fill-60" fill="#FFCA6A"></path>
                                <path d="M10.3762026,10.5 C9.83840065,10.5 9.37919057,10.2791055 8.99857231,9.83731643 C8.61795406,9.39552738 8.42764493,8.86251569 8.42764493,8.23828133 C8.42764493,7.61404698 8.61795406,7.08103528 8.99857231,6.63924624 C9.37919057,6.19745719 9.83840065,5.97656267 10.3762026,5.97656267 C10.9140045,5.97656267 11.3732145,6.19745719 11.7538328,6.63924624 C12.134451,7.08103528 12.3247602,7.61404698 12.3247602,8.23828133 C12.3247602,8.86251569 12.134451,9.39552738 11.7538328,9.83731643 C11.3732145,10.2791055 10.9140045,10.5 10.3762026,10.5 Z M15.2475966,11.2539062 L17.0337744,11.2539062 C17.0779417,11.2539062 17.1160469,11.2725026 17.1480898,11.3096953 C17.1801327,11.346888 17.1961542,11.3911172 17.1961542,11.4423828 L17.1961542,12.5732421 C17.1961542,12.6245077 17.1801327,12.6687369 17.1480898,12.7059296 C17.1160469,12.7431223 17.0779417,12.7617187 17.0337744,12.7617187 L15.2475966,12.7617187 L15.2475966,14.8349608 C15.2475966,14.8862264 15.2315751,14.9304556 15.1995322,14.9676483 C15.1674892,15.004841 15.1293841,15.0234373 15.0852168,15.0234373 L14.110938,15.0234373 C14.0667707,15.0234373 14.0286656,15.004841 13.9966226,14.9676483 C13.9645797,14.9304556 13.9485582,14.8862264 13.9485582,14.8349608 L13.9485582,12.7617187 L12.1623804,12.7617187 C12.1182131,12.7617187 12.0801079,12.7431223 12.048065,12.7059296 C12.016022,12.6687369 12.0000006,12.6245077 12.0000006,12.5732421 L12.0000006,11.4423828 C12.0000006,11.3911172 12.016022,11.346888 12.048065,11.3096953 C12.0801079,11.2725026 12.1182131,11.2539062 12.1623804,11.2539062 L13.9485582,11.2539062 L13.9485582,9.18066411 C13.9485582,9.12939849 13.9645797,9.08516932 13.9966226,9.04797662 C14.0286656,9.01078391 14.0667707,8.99218756 14.110938,8.99218756 L15.0852168,8.99218756 C15.1293841,8.99218756 15.1674892,9.01078391 15.1995322,9.04797662 C15.2315751,9.08516932 15.2475966,9.12939849 15.2475966,9.18066411 L15.2475966,11.2539062 Z M11.5128612,12.5732421 C11.5128612,12.7772994 11.5771636,12.9539648 11.7057684,13.1032382 C11.8343732,13.2525116 11.9865772,13.3271483 12.1623804,13.3271483 L13.4614188,13.3271483 L13.4614188,14.72866 C13.231489,14.9251782 12.9422364,15.0234373 12.5936611,15.0234373 L8.15874398,15.0234373 C7.74954688,15.0234373 7.42132317,14.8879855 7.17407286,14.6170819 C6.92682255,14.3461782 6.8034139,13.973246 6.80384691,13.498285 C6.80384691,13.2902069 6.80969259,13.0869036 6.82138393,12.8883749 C6.83307528,12.6898463 6.85667447,12.4757369 6.89218152,12.2460468 C6.92768857,12.0163567 6.9725054,11.8032526 7.026632,11.6067343 C7.0807586,11.4102161 7.15350475,11.2187239 7.24487045,11.0322578 C7.33623616,10.8457917 7.44102525,10.6867174 7.55923775,10.5550352 C7.67745025,10.4233529 7.82207652,10.3183086 7.99311658,10.2399024 C8.16415664,10.1614961 8.35273371,10.122293 8.55884781,10.122293 C8.6229337,10.122293 8.68896816,10.1557162 8.75695117,10.2225625 C9.02412007,10.4623047 9.2854433,10.6419857 9.54092085,10.7616055 C9.79639841,10.8812252 10.0746091,10.9410351 10.375553,10.9410351 C10.6764969,10.9410351 10.9547077,10.8812252 11.2101852,10.7616055 C11.4656628,10.6419857 11.726986,10.4623047 11.9941549,10.2225625 C12.0617049,10.1557162 12.1277393,10.122293 12.1922583,10.122293 C12.6386945,10.122293 13.0056728,10.3107695 13.2931933,10.6877226 L12.1617309,10.6877226 C11.9859277,10.6877226 11.8337237,10.7623594 11.7051188,10.9116328 C11.576514,11.0609062 11.5122116,11.2375716 11.5122116,11.4416289 L11.5122116,12.5724882 L11.5128612,12.5732421 Z" id="Shape" fill="#FFFFFF" fill-rule="nonzero" transform="translate(12.000000, 10.500000) rotate(-270.000000) translate(-12.000000, -10.500000) "></path>
                            </g>
                            <g id="Group-41-Copy" transform="translate(63.000000, 202.000000)">
                                <path d="M9.5000972,5 C4.2532613,5 0,9.2532613 0,14.5000972 C0,19.7467387 4.2532613,24 9.5000972,24 C14.7467387,24 19,19.7467387 19,14.5000972 C19,9.2532613 14.7467387,5 9.5000972,5" id="Fill-18" fill="#B0E5EF" opacity="0.5"></path>
                                <path d="M21,9.4999028 C21,14.7467387 16.7467387,19 11.5000972,19 C6.2534557,19 2,14.7467387 2,9.4999028 C2,4.2532613 6.2534557,0 11.5000972,0 C16.7467387,0 21,4.2532613 21,9.4999028" id="Fill-60" fill="#FFCA6A"></path>
                            </g>
                            <g id="Group-41-Copy-2" transform="translate(64.000000, 0.000000)">
                                <path d="M9.5000972,5 C4.2532613,5 0,9.2532613 0,14.5000972 C0,19.7467387 4.2532613,24 9.5000972,24 C14.7467387,24 19,19.7467387 19,14.5000972 C19,9.2532613 14.7467387,5 9.5000972,5" id="Fill-18" fill="#B0E5EF" opacity="0.5"></path>
                                <path d="M21,9.4999028 C21,14.7467387 16.7467387,19 11.5000972,19 C6.2534557,19 2,14.7467387 2,9.4999028 C2,4.2532613 6.2534557,0 11.5000972,0 C16.7467387,0 21,4.2532613 21,9.4999028" id="Fill-60" fill="#30C436"></path>
                            </g>
                            <g id="Group-40" transform="translate(77.000000, 70.000000)">
                                <path d="M22,14.9998989 C22,8.92474838 17.0742647,4 11,4 C4.92573529,4 0,8.92474838 0,14.9998989 C0,21.0750494 4.92573529,26 11,26 C17.0742647,26 22,21.0750494 22,14.9998989" id="Fill-23" fill="#B0E5EF" opacity="0.5"></path>
                                <path d="M24,10.9998989 C24,17.0750494 19.0742647,22 13,22 C6.92573529,22 2,17.0750494 2,10.9998989 C2,4.92474838 6.92573529,0 13,0 C19.0742647,0 24,4.92474838 24,10.9998989" id="Fill-87" fill="#30C436"></path>
                            </g>
                            <g id="Group-36" transform="translate(3.000000, 56.000000)">
                                <path d="M6.99990209,4 C3.13395717,4 0,7.13395717 0,11.0000979 C0,14.8660428 3.13395717,18 6.99990209,18 C10.8660428,18 14,14.8660428 14,11.0000979 C14,7.13395717 10.8660428,4 6.99990209,4" id="Fill-14" fill="#B0E5EF" opacity="0.5"></path>
                                <path d="M15,7.00009791 C15,10.8660428 11.8660428,14 8.00009791,14 C4.13395717,14 1,10.8660428 1,7.00009791 C1,3.13395717 4.13395717,0 8.00009791,0 C11.8660428,0 15,3.13395717 15,7.00009791" id="Fill-49" fill="#F55065"></path>
                            </g>
                            <g id="Group-36-Copy-2" transform="translate(59.000000, 50.000000)">
                                <path d="M6.99990209,4 C3.13395717,4 0,7.13395717 0,11.0000979 C0,14.8660428 3.13395717,18 6.99990209,18 C10.8660428,18 14,14.8660428 14,11.0000979 C14,7.13395717 10.8660428,4 6.99990209,4" id="Fill-14" fill="#B0E5EF" opacity="0.5"></path>
                                <path d="M15,7.00009791 C15,10.8660428 11.8660428,14 8.00009791,14 C4.13395717,14 1,10.8660428 1,7.00009791 C1,3.13395717 4.13395717,0 8.00009791,0 C11.8660428,0 15,3.13395717 15,7.00009791" id="Fill-49" fill="#F55065"></path>
                            </g>
                            <g id="Group-36-Copy" transform="translate(36.000000, 226.000000)">
                                <path d="M6.99990209,4 C3.13395717,4 0,7.13395717 0,11.0000979 C0,14.8660428 3.13395717,18 6.99990209,18 C10.8660428,18 14,14.8660428 14,11.0000979 C14,7.13395717 10.8660428,4 6.99990209,4" id="Fill-14" fill="#B0E5EF" opacity="0.5"></path>
                                <path d="M15,7.00009791 C15,10.8660428 11.8660428,14 8.00009791,14 C4.13395717,14 1,10.8660428 1,7.00009791 C1,3.13395717 4.13395717,0 8.00009791,0 C11.8660428,0 15,3.13395717 15,7.00009791" id="Fill-49" fill="#558DFF"></path>
                            </g>
                            <g id="Group-36" transform="translate(86.000000, 174.000000)">
                                <path d="M6.99990209,4 C3.13395717,4 0,7.13395717 0,11.0000979 C0,14.8660428 3.13395717,18 6.99990209,18 C10.8660428,18 14,14.8660428 14,11.0000979 C14,7.13395717 10.8660428,4 6.99990209,4" id="Fill-14" fill="#B0E5EF" opacity="0.5"></path>
                                <path d="M8.00009791,14 C4.13395717,14 1,10.8660428 1,7.00009791 C1,3.13395717 4.13395717,0 8.00009791,0 C11.8660428,0 15,3.13395717 15,7.00009791 C15,10.8660428 11.8660428,14 8.00009791,14 Z" id="Fill-49" fill="#4A90E2"></path>
                            </g>
                            <g id="Group-38" transform="translate(29.000000, 24.000000)">
                                <path d="M11,26 C17.0759003,26 22,21.0751332 22,15.0001016 C22,8.92486681 17.0759003,4 11,4 C4.92613112,4 0,8.92486681 0,15.0001016 C0,21.0751332 4.92613112,26 11,26" id="Fill-16" fill="#B0E5EF" opacity="0.5"></path>
                                <path d="M24,11.0001016 C24,17.0751332 19.0759003,22 13,22 C6.92613112,22 2,17.0751332 2,11.0001016 C2,4.92486681 6.92613112,0 13,0 C19.0759003,0 24,4.92486681 24,11.0001016" id="Fill-54" fill="#558DFF"></path>
                            </g>
                        </g>
                        <g id="user" transform="translate(16.000000, 12.000000)" fill="#FFFFFF" fill-rule="nonzero">
                            <path d="M210,26.4440855 C210,26.9245244 209.861818,27.3039532 209.585455,27.5823719 C209.309091,27.8607906 208.941576,28 208.482909,28 L203.517092,28 C203.05891,28 202.691395,27.8607906 202.414547,27.5823719 C202.137698,27.3039532 201.999516,26.9245244 202.000001,26.4440855 C202.000001,26.2318105 202.006547,26.0244065 202.019638,25.8218736 C202.032729,25.6193406 202.059153,25.4009127 202.09891,25.1665898 C202.138668,24.9322668 202.18885,24.7148644 202.249456,24.5143824 C202.310062,24.3139004 202.391516,24.1185459 202.493819,23.9283187 C202.596122,23.7380916 202.713456,23.5758088 202.845819,23.4414705 C202.978183,23.3071322 203.140122,23.1999692 203.331637,23.1199815 C203.523153,23.0399938 203.734304,23 203.965092,23 C203.999031,23 204.078546,23.0430703 204.203637,23.1292109 C204.328728,23.2153515 204.469819,23.3114905 204.62691,23.4176281 C204.784001,23.5237656 204.988607,23.6199046 205.240728,23.7060452 C205.492849,23.7921858 205.745698,23.8352561 205.999273,23.8352561 C206.252849,23.8352561 206.505698,23.7921858 206.757819,23.7060452 C207.00994,23.6199046 207.214546,23.5237656 207.371637,23.4176281 C207.528728,23.3114905 207.669819,23.2153515 207.794909,23.1292109 C207.92,23.0430703 207.999515,23 208.033455,23 C208.264728,23 208.475879,23.0399938 208.666909,23.1199815 C208.85794,23.1999692 209.019879,23.3071322 209.152727,23.4414705 C209.285576,23.5758088 209.402909,23.7380916 209.504727,23.9283187 C209.606546,24.1185459 209.688,24.3139004 209.749091,24.5143824 C209.810182,24.7148644 209.860364,24.9322668 209.899636,25.1665898 C209.938909,25.4009127 209.965333,25.6193406 209.978909,25.8218736 C209.992485,26.0244065 209.99903,26.2318105 209.998545,26.4440855 L210,26.4440855 Z M208,21.5 C208,22.19 207.804667,22.7791667 207.414,23.2675 C207.023333,23.7558333 206.552,24 206,24 C205.448,24 204.976667,23.7558333 204.586,23.2675 C204.195333,22.7791667 204,22.19 204,21.5 C204,20.81 204.195333,20.2208333 204.586,19.7325 C204.976667,19.2441667 205.448,19 206,19 C206.552,19 207.023333,19.2441667 207.414,19.7325 C207.804667,20.2208333 208,20.81 208,21.5 Z" id="Shape"></path>
                            <path d="M8,25.4440855 C8,25.9245244 7.8618182,26.3039532 7.58545461,26.5823719 C7.30909102,26.8607906 6.94157593,27 6.48290933,27 L1.51709194,27 C1.05891019,27 0.691395101,26.8607906 0.41454666,26.5823719 C0.137698219,26.3039532 -0.000483576952,25.9245244 1.27145561e-06,25.4440855 C1.27145561e-06,25.2318105 0.00654672496,25.0244065 0.019637632,24.8218736 C0.032728539,24.6193406 0.0591527772,24.4009127 0.0989103466,24.1665898 C0.138667916,23.9322668 0.188849726,23.7148644 0.249455777,23.5143824 C0.310061828,23.3139004 0.391516361,23.1185459 0.493819375,22.9283187 C0.596122389,22.7380916 0.713455704,22.5758088 0.845819319,22.4414705 C0.978182934,22.3071322 1.1401223,22.1999692 1.33163742,22.1199815 C1.52315254,22.0399938 1.73430403,22 1.96509187,22 C1.99903126,22 2.0785464,22.0430703 2.20363728,22.1292109 C2.32872817,22.2153515 2.46981906,22.3114905 2.62690994,22.4176281 C2.78400083,22.5237656 2.98860686,22.6199046 3.24072803,22.7060452 C3.4928492,22.7921858 3.74569765,22.8352561 3.99927336,22.8352561 C4.25284908,22.8352561 4.50569753,22.7921858 4.7578187,22.7060452 C5.00993987,22.6199046 5.2145459,22.5237656 5.37163678,22.4176281 C5.52872767,22.3114905 5.66981855,22.2153515 5.79490944,22.1292109 C5.92000033,22.0430703 5.99951547,22 6.03345486,22 C6.26472755,22 6.47587903,22.0399938 6.6669093,22.1199815 C6.85793958,22.1999692 7.01987894,22.3071322 7.15272741,22.4414705 C7.28557587,22.5758088 7.40290919,22.7380916 7.50472735,22.9283187 C7.60654552,23.1185459 7.68800005,23.3139004 7.74909095,23.5143824 C7.81018185,23.7148644 7.86036366,23.9322668 7.89963638,24.1665898 C7.9389091,24.4009127 7.96533334,24.6193406 7.97890909,24.8218736 C7.99248485,25.0244065 7.9990303,25.2318105 7.99854545,25.4440855 L8,25.4440855 Z M6,20.5 C6,21.19 5.80466667,21.7791667 5.414,22.2675 C5.02333333,22.7558333 4.552,23 4,23 C3.448,23 2.97666667,22.7558333 2.586,22.2675 C2.19533333,21.7791667 2,21.19 2,20.5 C2,19.81 2.19533333,19.2208333 2.586,18.7325 C2.97666667,18.2441667 3.448,18 4,18 C4.552,18 5.02333333,18.2441667 5.414,18.7325 C5.80466667,19.2208333 6,19.81 6,20.5 Z" id="Shape-Copy-9"></path>
                            <path d="M231,55.7898443 C231,56.163519 230.896364,56.4586303 230.689091,56.6751782 C230.481818,56.8917261 230.206182,57 229.862182,57 L226.137819,57 C225.794183,57 225.518546,56.8917261 225.31091,56.6751782 C225.103274,56.4586303 224.999637,56.163519 225.000001,55.7898443 C225.000001,55.6247415 225.00491,55.4634273 225.014728,55.3059017 C225.024546,55.148376 225.044365,54.9784876 225.074183,54.7962365 C225.104001,54.6139853 225.141637,54.4448945 225.187092,54.2889641 C225.232546,54.1330337 225.293637,53.9810912 225.370365,53.8331368 C225.447092,53.6851823 225.535092,53.5589624 225.634364,53.4544771 C225.733637,53.3499917 225.855092,53.2666427 225.998728,53.2044301 C226.142364,53.1422174 226.300728,53.1111111 226.473819,53.1111111 C226.499273,53.1111111 226.55891,53.1446102 226.652728,53.2116085 C226.746546,53.2786067 226.852364,53.3533815 226.970182,53.4359329 C227.088001,53.5184843 227.241455,53.5932592 227.430546,53.6602574 C227.619637,53.7272556 227.809273,53.7607548 227.999455,53.7607548 C228.189637,53.7607548 228.379273,53.7272556 228.568364,53.6602574 C228.757455,53.5932592 228.910909,53.5184843 229.028728,53.4359329 C229.146546,53.3533815 229.252364,53.2786067 229.346182,53.2116085 C229.44,53.1446102 229.499637,53.1111111 229.525091,53.1111111 C229.698546,53.1111111 229.856909,53.1422174 230.000182,53.2044301 C230.143455,53.2666427 230.264909,53.3499917 230.364546,53.4544771 C230.464182,53.5589624 230.552182,53.6851823 230.628546,53.8331368 C230.704909,53.9810912 230.766,54.1330337 230.811818,54.2889641 C230.857636,54.4448945 230.895273,54.6139853 230.924727,54.7962365 C230.954182,54.9784876 230.974,55.148376 230.984182,55.3059017 C230.994364,55.4634273 230.999273,55.6247415 230.998909,55.7898443 L231,55.7898443 Z M229.5,51.9444444 C229.5,52.4811111 229.3535,52.9393519 229.0605,53.3191667 C228.7675,53.6989815 228.414,53.8888889 228,53.8888889 C227.586,53.8888889 227.2325,53.6989815 226.9395,53.3191667 C226.6465,52.9393519 226.5,52.4811111 226.5,51.9444444 C226.5,51.4077778 226.6465,50.949537 226.9395,50.5697222 C227.2325,50.1899074 227.586,50 228,50 C228.414,50 228.7675,50.1899074 229.0605,50.5697222 C229.3535,50.949537 229.5,51.4077778 229.5,51.9444444 Z" id="Shape-Copy-4"></path>
                            <path d="M179,5.7898443 C179,6.163519 178.896364,6.4586303 178.689091,6.67517818 C178.481818,6.89172606 178.206182,7 177.862182,7 L174.137819,7 C173.794183,7 173.518546,6.89172606 173.31091,6.67517818 C173.103274,6.4586303 172.999637,6.163519 173.000001,5.7898443 C173.000001,5.62474149 173.00491,5.46342728 173.014728,5.30590166 C173.024546,5.14837603 173.044365,4.97848764 173.074183,4.79623648 C173.104001,4.61398531 173.141637,4.44489452 173.187092,4.28896409 C173.232546,4.13303366 173.293637,3.98109123 173.370365,3.83313678 C173.447092,3.68518234 173.535092,3.55896244 173.634364,3.45447709 C173.733637,3.34999174 173.855092,3.26664274 173.998728,3.20443009 C174.142364,3.14221744 174.300728,3.11111111 174.473819,3.11111111 C174.499273,3.11111111 174.55891,3.14461023 174.652728,3.21160847 C174.746546,3.27860671 174.852364,3.35338153 174.970182,3.43593293 C175.088001,3.51848434 175.241455,3.59325916 175.430546,3.6602574 C175.619637,3.72725564 175.809273,3.76075476 175.999455,3.76075476 C176.189637,3.76075476 176.379273,3.72725564 176.568364,3.6602574 C176.757455,3.59325916 176.910909,3.51848434 177.028728,3.43593293 C177.146546,3.35338153 177.252364,3.27860671 177.346182,3.21160847 C177.44,3.14461023 177.499637,3.11111111 177.525091,3.11111111 C177.698546,3.11111111 177.856909,3.14221744 178.000182,3.20443009 C178.143455,3.26664274 178.264909,3.34999174 178.364546,3.45447709 C178.464182,3.55896244 178.552182,3.68518234 178.628546,3.83313678 C178.704909,3.98109123 178.766,4.13303366 178.811818,4.28896409 C178.857636,4.44489452 178.895273,4.61398531 178.924727,4.79623648 C178.954182,4.97848764 178.974,5.14837603 178.984182,5.30590166 C178.994364,5.46342728 178.999273,5.62474149 178.998909,5.7898443 L179,5.7898443 Z M177.5,1.94444444 C177.5,2.48111111 177.3535,2.93935185 177.0605,3.31916667 C176.7675,3.69898148 176.414,3.88888889 176,3.88888889 C175.586,3.88888889 175.2325,3.69898148 174.9395,3.31916667 C174.6465,2.93935185 174.5,2.48111111 174.5,1.94444444 C174.5,1.40777778 174.6465,0.949537037 174.9395,0.569722222 C175.2325,0.189907407 175.586,7.19588997e-16 176,0 C176.414,-7.91547897e-16 176.7675,0.189907407 177.0605,0.569722222 C177.3535,0.949537037 177.5,1.40777778 177.5,1.94444444 Z" id="Shape-Copy-5"></path>
                            <path d="M55,32.7898443 C55,33.163519 54.8963637,33.4586303 54.689091,33.6751782 C54.4818183,33.8917261 54.2061819,34 53.862182,34 L50.137819,34 C49.7941826,34 49.5185463,33.8917261 49.31091,33.6751782 C49.1032737,33.4586303 48.9996373,33.163519 49.000001,32.7898443 C49.000001,32.6247415 49.00491,32.4634273 49.0147282,32.3059017 C49.0245464,32.148376 49.0443646,31.9784876 49.0741828,31.7962365 C49.1040009,31.6139853 49.1416373,31.4448945 49.1870918,31.2889641 C49.2325464,31.1330337 49.2936373,30.9810912 49.3703645,30.8331368 C49.4470918,30.6851823 49.5350918,30.5589624 49.6343645,30.4544771 C49.7336372,30.3499917 49.8550917,30.2666427 49.9987281,30.2044301 C50.1423644,30.1422174 50.300728,30.1111111 50.4738189,30.1111111 C50.4992734,30.1111111 50.5589098,30.1446102 50.652728,30.2116085 C50.7465461,30.2786067 50.8523643,30.3533815 50.9701825,30.4359329 C51.0880006,30.5184843 51.2414551,30.5932592 51.430546,30.6602574 C51.6196369,30.7272556 51.8092732,30.7607548 51.999455,30.7607548 C52.1896368,30.7607548 52.3792731,30.7272556 52.568364,30.6602574 C52.7574549,30.5932592 52.9109094,30.5184843 53.0287276,30.4359329 C53.1465457,30.3533815 53.2523639,30.2786067 53.3461821,30.2116085 C53.4400002,30.1446102 53.4996366,30.1111111 53.5250911,30.1111111 C53.6985457,30.1111111 53.8569093,30.1422174 54.000182,30.2044301 C54.1434547,30.2666427 54.2649092,30.3499917 54.3645456,30.4544771 C54.4641819,30.5589624 54.5521819,30.6851823 54.6285455,30.8331368 C54.7049091,30.9810912 54.766,31.1330337 54.8118182,31.2889641 C54.8576364,31.4448945 54.8952727,31.6139853 54.9247273,31.7962365 C54.9541818,31.9784876 54.974,32.148376 54.9841818,32.3059017 C54.9943636,32.4634273 54.9992727,32.6247415 54.9989091,32.7898443 L55,32.7898443 Z M53.5,28.9444444 C53.5,29.4811111 53.3535,29.9393519 53.0605,30.3191667 C52.7675,30.6989815 52.414,30.8888889 52,30.8888889 C51.586,30.8888889 51.2325,30.6989815 50.9395,30.3191667 C50.6465,29.9393519 50.5,29.4811111 50.5,28.9444444 C50.5,28.4077778 50.6465,27.949537 50.9395,27.5697222 C51.2325,27.1899074 51.586,27 52,27 C52.414,27 52.7675,27.1899074 53.0605,27.5697222 C53.3535,27.949537 53.5,28.4077778 53.5,28.9444444 Z" id="Shape-Copy-7"></path>
                            <path d="M61,89.7898443 C61,90.163519 60.8963637,90.4586303 60.689091,90.6751782 C60.4818183,90.8917261 60.2061819,91 59.862182,91 L56.137819,91 C55.7941826,91 55.5185463,90.8917261 55.31091,90.6751782 C55.1032737,90.4586303 54.9996373,90.163519 55.000001,89.7898443 C55.000001,89.6247415 55.00491,89.4634273 55.0147282,89.3059017 C55.0245464,89.148376 55.0443646,88.9784876 55.0741828,88.7962365 C55.1040009,88.6139853 55.1416373,88.4448945 55.1870918,88.2889641 C55.2325464,88.1330337 55.2936373,87.9810912 55.3703645,87.8331368 C55.4470918,87.6851823 55.5350918,87.5589624 55.6343645,87.4544771 C55.7336372,87.3499917 55.8550917,87.2666427 55.9987281,87.2044301 C56.1423644,87.1422174 56.300728,87.1111111 56.4738189,87.1111111 C56.4992734,87.1111111 56.5589098,87.1446102 56.652728,87.2116085 C56.7465461,87.2786067 56.8523643,87.3533815 56.9701825,87.4359329 C57.0880006,87.5184843 57.2414551,87.5932592 57.430546,87.6602574 C57.6196369,87.7272556 57.8092732,87.7607548 57.999455,87.7607548 C58.1896368,87.7607548 58.3792731,87.7272556 58.568364,87.6602574 C58.7574549,87.5932592 58.9109094,87.5184843 59.0287276,87.4359329 C59.1465457,87.3533815 59.2523639,87.2786067 59.3461821,87.2116085 C59.4400002,87.1446102 59.4996366,87.1111111 59.5250911,87.1111111 C59.6985457,87.1111111 59.8569093,87.1422174 60.000182,87.2044301 C60.1434547,87.2666427 60.2649092,87.3499917 60.3645456,87.4544771 C60.4641819,87.5589624 60.5521819,87.6851823 60.6285455,87.8331368 C60.7049091,87.9810912 60.766,88.1330337 60.8118182,88.2889641 C60.8576364,88.4448945 60.8952727,88.6139853 60.9247273,88.7962365 C60.9541818,88.9784876 60.974,89.148376 60.9841818,89.3059017 C60.9943636,89.4634273 60.9992727,89.6247415 60.9989091,89.7898443 L61,89.7898443 Z M59.5,85.9444444 C59.5,86.4811111 59.3535,86.9393519 59.0605,87.3191667 C58.7675,87.6989815 58.414,87.8888889 58,87.8888889 C57.586,87.8888889 57.2325,87.6989815 56.9395,87.3191667 C56.6465,86.9393519 56.5,86.4811111 56.5,85.9444444 C56.5,85.4077778 56.6465,84.949537 56.9395,84.5697222 C57.2325,84.1899074 57.586,84 58,84 C58.414,84 58.7675,84.1899074 59.0605,84.5697222 C59.3535,84.949537 59.5,85.4077778 59.5,85.9444444 Z" id="Shape-Copy-7"></path>
                            <path d="M256,12.9254474 C256,13.5660326 255.81,14.0719377 255.43,14.4431626 C255.05,14.8143875 254.544667,15 253.914,15 L247.086001,15 C246.456002,15 245.950668,14.8143875 245.570002,14.4431626 C245.189335,14.0719377 244.999335,13.5660326 245.000002,12.9254474 C245.000002,12.642414 245.009002,12.3658753 245.027002,12.0958314 C245.045002,11.8257875 245.081335,11.5345502 245.136002,11.2221197 C245.190668,10.9096891 245.259668,10.6198192 245.343002,10.3525099 C245.426335,10.0852006 245.538335,9.82472782 245.679002,9.57109163 C245.819668,9.31745543 245.981002,9.10107847 246.163002,8.92196072 C246.345002,8.74284298 246.567668,8.59995898 246.831001,8.49330872 C247.094335,8.38665846 247.384668,8.33333333 247.702001,8.33333333 C247.748668,8.33333333 247.858001,8.3907604 248.030001,8.50561452 C248.202001,8.62046865 248.396001,8.74865405 248.612001,8.89017074 C248.828001,9.03168743 249.109334,9.15987284 249.456001,9.27472697 C249.802668,9.38958109 250.150334,9.44700815 250.499001,9.44700815 C250.847667,9.44700815 251.195334,9.38958109 251.542001,9.27472697 C251.888667,9.15987284 252.170001,9.03168743 252.386001,8.89017074 C252.602001,8.74865405 252.796001,8.62046865 252.968,8.50561452 C253.14,8.3907604 253.249334,8.33333333 253.296,8.33333333 C253.614,8.33333333 253.904334,8.38665846 254.167,8.49330872 C254.429667,8.59995898 254.652334,8.74284298 254.835,8.92196072 C255.017667,9.10107847 255.179,9.31745543 255.319,9.57109163 C255.459,9.82472782 255.571,10.0852006 255.655,10.3525099 C255.739,10.6198192 255.808,10.9096891 255.862,11.2221197 C255.916,11.5345502 255.952333,11.8257875 255.971,12.0958314 C255.989667,12.3658753 255.998667,12.642414 255.998,12.9254474 L256,12.9254474 Z M253.25,6.33333333 C253.25,7.25333333 252.981417,8.03888889 252.44425,8.69 C251.907083,9.34111111 251.259,9.66666667 250.5,9.66666667 C249.741,9.66666667 249.092917,9.34111111 248.55575,8.69 C248.018583,8.03888889 247.75,7.25333333 247.75,6.33333333 C247.75,5.41333333 248.018583,4.62777778 248.55575,3.97666667 C249.092917,3.32555556 249.741,3 250.5,3 C251.259,3 251.907083,3.32555556 252.44425,3.97666667 C252.981417,4.62777778 253.25,5.41333333 253.25,6.33333333 Z" id="Shape-Copy-2"></path>
                            <path d="M35,58.9254474 C35,59.5660326 34.81,60.0719377 34.4300001,60.4431626 C34.0500002,60.8143875 33.5446669,61 32.9140003,61 L26.0860014,61 C25.4560015,61 24.9506683,60.8143875 24.5700017,60.4431626 C24.1893351,60.0719377 23.9993351,59.5660326 24.0000017,58.9254474 C24.0000017,58.642414 24.0090017,58.3658753 24.0270017,58.0958314 C24.0450017,57.8257875 24.0813351,57.5345502 24.1360017,57.2221197 C24.1906684,56.9096891 24.2596684,56.6198192 24.3430017,56.3525099 C24.426335,56.0852006 24.538335,55.8247278 24.6790016,55.5710916 C24.8196683,55.3174554 24.9810016,55.1010785 25.1630016,54.9219607 C25.3450015,54.742843 25.5676682,54.599959 25.8310015,54.4933087 C26.0943347,54.3866585 26.384668,54.3333333 26.7020013,54.3333333 C26.748668,54.3333333 26.8580013,54.3907604 27.0300013,54.5056145 C27.2020012,54.6204686 27.3960012,54.7486541 27.6120012,54.8901707 C27.8280011,55.0316874 28.1093344,55.1598728 28.456001,55.274727 C28.8026677,55.3895811 29.1503343,55.4470082 29.4990009,55.4470082 C29.8476675,55.4470082 30.1953341,55.3895811 30.5420007,55.274727 C30.8886673,55.1598728 31.1700006,55.0316874 31.3860006,54.8901707 C31.6020005,54.7486541 31.7960005,54.6204686 31.9680005,54.5056145 C32.1400005,54.3907604 32.2493338,54.3333333 32.2960004,54.3333333 C32.6140004,54.3333333 32.9043337,54.3866585 33.1670003,54.4933087 C33.4296669,54.599959 33.6523335,54.742843 33.8350002,54.9219607 C34.0176668,55.1010785 34.1790001,55.3174554 34.3190001,55.5710916 C34.4590001,55.8247278 34.5710001,56.0852006 34.6550001,56.3525099 C34.739,56.6198192 34.808,56.9096891 34.862,57.2221197 C34.916,57.5345502 34.9523333,57.8257875 34.971,58.0958314 C34.9896667,58.3658753 34.9986667,58.642414 34.998,58.9254474 L35,58.9254474 Z M32.25,52.3333333 C32.25,53.2533333 31.9814167,54.0388889 31.44425,54.69 C30.9070833,55.3411111 30.259,55.6666667 29.5,55.6666667 C28.741,55.6666667 28.0929167,55.3411111 27.55575,54.69 C27.0185833,54.0388889 26.75,53.2533333 26.75,52.3333333 C26.75,51.4133333 27.0185833,50.6277778 27.55575,49.9766667 C28.0929167,49.3255556 28.741,49 29.5,49 C30.259,49 30.9070833,49.3255556 31.44425,49.9766667 C31.9814167,50.6277778 32.25,51.4133333 32.25,52.3333333 Z" id="Shape-Copy-6"></path>
                            <path d="M81,10.9254474 C81,11.5660326 80.81,12.0719377 80.4300001,12.4431626 C80.0500002,12.8143875 79.5446669,13 78.9140003,13 L72.0860014,13 C71.4560015,13 70.9506683,12.8143875 70.5700017,12.4431626 C70.1893351,12.0719377 69.9993351,11.5660326 70.0000017,10.9254474 C70.0000017,10.642414 70.0090017,10.3658753 70.0270017,10.0958314 C70.0450017,9.82578749 70.0813351,9.53455024 70.1360017,9.22211967 C70.1906684,8.90968911 70.2596684,8.61981917 70.3430017,8.35250987 C70.426335,8.08520057 70.538335,7.82472782 70.6790016,7.57109163 C70.8196683,7.31745543 70.9810016,7.10107847 71.1630016,6.92196072 C71.3450015,6.74284298 71.5676682,6.59995898 71.8310015,6.49330872 C72.0943347,6.38665846 72.384668,6.33333333 72.7020013,6.33333333 C72.748668,6.33333333 72.8580013,6.3907604 73.0300013,6.50561452 C73.2020012,6.62046865 73.3960012,6.74865405 73.6120012,6.89017074 C73.8280011,7.03168743 74.1093344,7.15987284 74.456001,7.27472697 C74.8026677,7.38958109 75.1503343,7.44700815 75.4990009,7.44700815 C75.8476675,7.44700815 76.1953341,7.38958109 76.5420007,7.27472697 C76.8886673,7.15987284 77.1700006,7.03168743 77.3860006,6.89017074 C77.6020005,6.74865405 77.7960005,6.62046865 77.9680005,6.50561452 C78.1400005,6.3907604 78.2493338,6.33333333 78.2960004,6.33333333 C78.6140004,6.33333333 78.9043337,6.38665846 79.1670003,6.49330872 C79.4296669,6.59995898 79.6523335,6.74284298 79.8350002,6.92196072 C80.0176668,7.10107847 80.1790001,7.31745543 80.3190001,7.57109163 C80.4590001,7.82472782 80.5710001,8.08520057 80.6550001,8.35250987 C80.739,8.61981917 80.808,8.90968911 80.862,9.22211967 C80.916,9.53455024 80.9523333,9.82578749 80.971,10.0958314 C80.9896667,10.3658753 80.9986667,10.642414 80.998,10.9254474 L81,10.9254474 Z M78.25,4.33333333 C78.25,5.25333333 77.9814167,6.03888889 77.44425,6.69 C76.9070833,7.34111111 76.259,7.66666667 75.5,7.66666667 C74.741,7.66666667 74.0929167,7.34111111 73.55575,6.69 C73.0185833,6.03888889 72.75,5.25333333 72.75,4.33333333 C72.75,3.41333333 73.0185833,2.62777778 73.55575,1.97666667 C74.0929167,1.32555556 74.741,1 75.5,1 C76.259,1 76.9070833,1.32555556 77.44425,1.97666667 C77.9814167,2.62777778 78.25,3.41333333 78.25,4.33333333 Z" id="Shape-Copy-8"></path>
                            <path d="M220,88.9254474 C220,89.5660326 219.81,90.0719377 219.43,90.4431626 C219.05,90.8143875 218.544667,91 217.914,91 L211.086001,91 C210.456002,91 209.950668,90.8143875 209.570002,90.4431626 C209.189335,90.0719377 208.999335,89.5660326 209.000002,88.9254474 C209.000002,88.642414 209.009002,88.3658753 209.027002,88.0958314 C209.045002,87.8257875 209.081335,87.5345502 209.136002,87.2221197 C209.190668,86.9096891 209.259668,86.6198192 209.343002,86.3525099 C209.426335,86.0852006 209.538335,85.8247278 209.679002,85.5710916 C209.819668,85.3174554 209.981002,85.1010785 210.163002,84.9219607 C210.345002,84.742843 210.567668,84.599959 210.831001,84.4933087 C211.094335,84.3866585 211.384668,84.3333333 211.702001,84.3333333 C211.748668,84.3333333 211.858001,84.3907604 212.030001,84.5056145 C212.202001,84.6204686 212.396001,84.7486541 212.612001,84.8901707 C212.828001,85.0316874 213.109334,85.1598728 213.456001,85.274727 C213.802668,85.3895811 214.150334,85.4470082 214.499001,85.4470082 C214.847667,85.4470082 215.195334,85.3895811 215.542001,85.274727 C215.888667,85.1598728 216.170001,85.0316874 216.386001,84.8901707 C216.602001,84.7486541 216.796001,84.6204686 216.968,84.5056145 C217.14,84.3907604 217.249334,84.3333333 217.296,84.3333333 C217.614,84.3333333 217.904334,84.3866585 218.167,84.4933087 C218.429667,84.599959 218.652334,84.742843 218.835,84.9219607 C219.017667,85.1010785 219.179,85.3174554 219.319,85.5710916 C219.459,85.8247278 219.571,86.0852006 219.655,86.3525099 C219.739,86.6198192 219.808,86.9096891 219.862,87.2221197 C219.916,87.5345502 219.952333,87.8257875 219.971,88.0958314 C219.989667,88.3658753 219.998667,88.642414 219.998,88.9254474 L220,88.9254474 Z M217.25,82.3333333 C217.25,83.2533333 216.981417,84.0388889 216.44425,84.69 C215.907083,85.3411111 215.259,85.6666667 214.5,85.6666667 C213.741,85.6666667 213.092917,85.3411111 212.55575,84.69 C212.018583,84.0388889 211.75,83.2533333 211.75,82.3333333 C211.75,81.4133333 212.018583,80.6277778 212.55575,79.9766667 C213.092917,79.3255556 213.741,79 214.5,79 C215.259,79 215.907083,79.3255556 216.44425,79.9766667 C216.981417,80.6277778 217.25,81.4133333 217.25,82.3333333 Z" id="Shape-Copy-3"></path>
                        </g>
                        <g id="Group" transform="translate(103.000000, 26.000000)">
                            <path d="M53.1546969,70 L39.8453031,70 C39.8453031,70 33.4433711,30.1935311 39.8453031,23.7704208 C42.198081,21.4098597 50.801919,21.4098597 53.1546969,23.7704208 C59.5566289,30.1935311 53.1546969,70 53.1546969,70" id="Fill-2" fill="#384D5B"></path>
                            <path d="M13.2398159,6.08538621 L10,21 L40,21 L40,6.82568199 C40,4.00982572 38.0831608,1.53511136 35.3178319,0.82332657 C30.4320826,-0.434126896 22.2665246,-0.217918553 17.5739062,1.24445766 C15.3270765,1.94475885 13.6538114,3.79995315 13.2398159,6.08538621" id="Fill-3" fill="#384D5B"></path>
                            <path d="M80.7601841,6.08538621 L84,21 L54,21 L54,6.82568199 C54,4.00982572 55.9168392,1.53511136 58.6821681,0.82332657 C63.5679174,-0.434126896 71.7334754,-0.217918553 76.4260938,1.24445766 C78.6729235,1.94475885 80.3461886,3.79995315 80.7601841,6.08538621" id="Fill-4" fill="#384D5B"></path>
                            <path d="M5.38016595,19.2086829 L0,69 L40,69 L40,19.6149584 C40,16.1960671 37.7142173,13.1666221 34.3866683,12.2841807 C27.6555768,10.4993008 17.6535823,10.5929501 10.9940961,12.4532641 C7.87837083,13.3234302 5.62769268,16.0050067 5.38016595,19.2086829" id="Fill-5" fill="#61727D"></path>
                            <path d="M88.6198341,19.2086829 L94,69 L54,69 L54,19.6149584 C54,16.1960671 56.2857827,13.1666221 59.6133317,12.2841807 C66.3444232,10.4993008 76.3464177,10.5929501 83.0059039,12.4532641 C86.1216292,13.3234302 88.3723073,16.0050067 88.6198341,19.2086829" id="Fill-6" fill="#61727D"></path>
                            <path d="M55,70.5 C55,74.6423323 51.6423323,78 47.5,78 C43.3576677,78 40,74.6423323 40,70.5 C40,66.3576677 43.3576677,63 47.5,63 C51.6423323,63 55,66.3576677 55,70.5" id="Fill-7" fill="#61727D"></path>
                            <path d="M54,68.9999003 C54,80.0456007 62.9542445,89 74,89 C85.0455561,89 94,80.0456007 94,68.9999003 C94,57.9541998 85.0455561,49 74,49 C62.9542445,49 54,57.9541998 54,68.9999003" id="Fill-8" fill="#384D5B"></path>
                            <path d="M73.9999003,84 C65.7286532,84 59,77.2715015 59,69 C59,60.7286979 65.7286532,54 73.9999003,54 C82.2715463,54 89,60.7286979 89,69 C89,77.2715015 82.2715463,84 73.9999003,84" id="Fill-9" fill="#4DB693"></path>
                            <path d="M81.9654545,69 C82.5368193,69 83,68.5368119 83,67.9656295 C83,61.919483 78.0805955,57 72.034737,57 C71.4631807,57 71,57.4629966 71,58.0343705 C71,58.6059359 71.4631807,59.0689325 72.034737,59.0689325 C76.9403552,59.0689325 80.9311005,63.059933 80.9311005,67.9656295 C80.9311005,68.5368119 81.3942812,69 81.9654545,69" id="Fill-10" fill="#E0E5E3"></path>
                            <path d="M40,68.9999003 C40,80.0456007 31.0457555,89 20,89 C8.95444391,89 0,80.0456007 0,68.9999003 C0,57.9541998 8.95444391,49 20,49 C31.0457555,49 40,57.9541998 40,68.9999003" id="Fill-11" fill="#384D5B"></path>
                            <path d="M19.9999003,84 C11.7286532,84 5,77.2715015 5,69 C5,60.7286979 11.7286532,54 19.9999003,54 C28.2713468,54 35,60.7286979 35,69 C35,77.2715015 28.2713468,84 19.9999003,84" id="Fill-12" fill="#4DB693"></path>
                            <path d="M11.0345455,69 C10.4631807,69 10,68.5368119 10,67.9656295 C10,61.919483 14.9194045,57 20.965263,57 C21.5368193,57 22,57.4629966 22,58.0343705 C22,58.6059359 21.5368193,59.0689325 20.965263,59.0689325 C16.0596448,59.0689325 12.0688995,63.059933 12.0688995,67.9656295 C12.0688995,68.5368119 11.6057188,69 11.0345455,69" id="Fill-13" fill="#E0E5E3"></path>
                        </g>
                    </g>
                </g>
            </g>
        </g>
    </g>
</svg>