<?xml version="1.0" encoding="UTF-8"?>
<svg width="380px" height="400px" viewBox="0 0 380 400" version="1.1" xmlns="http://www.w3.org/2000/svg" xmlns:xlink="http://www.w3.org/1999/xlink">
    <!-- Generator: Sketch 50.2 (55047) - http://www.bohemiancoding.com/sketch -->
    <title>web HT</title>
    <desc>Created with Sketch.</desc>
    <defs>
        <path d="M3,0 L380,0 L380,500 L3,500 C1.34314575,500 2.02906125e-16,498.656854 0,497 L0,3 C-2.02906125e-16,1.34314575 1.34314575,3.04359188e-16 3,0 Z" id="path-1"></path>
        <polygon id="path-3" points="0 0.795166901 39.661421 0.795166901 39.661421 16.3813573 0 16.3813573"></polygon>
        <polygon id="path-5" points="0.833261835 0.0495105634 19.2564296 0.0495105634 19.2564296 11.9642412 0.833261835 11.9642412"></polygon>
        <polygon id="path-7" points="0 0.494833099 39.661421 0.494833099 39.661421 16.0810235 0 16.0810235"></polygon>
        <polygon id="path-9" points="0.0736466291 0.0594126761 35.6085423 0.0594126761 35.6085423 12.5531055 0.0736466291 12.5531055"></polygon>
        <polygon id="path-11" points="0.435420423 0.881833099 6.53811972 0.881833099 6.53811972 7.31911479 0.435420423 7.31911479"></polygon>
        <filter x="-8.1%" y="-7.5%" width="116.2%" height="116.7%" filterUnits="objectBoundingBox" id="filter-13">
            <feOffset dx="0" dy="2" in="SourceAlpha" result="shadowOffsetOuter1"></feOffset>
            <feGaussianBlur stdDeviation="6" in="shadowOffsetOuter1" result="shadowBlurOuter1"></feGaussianBlur>
            <feColorMatrix values="0 0 0 0 1   0 0 0 0 0.698039216   0 0 0 0 0.666666667  0 0 0 0.5 0" type="matrix" in="shadowBlurOuter1" result="shadowMatrixOuter1"></feColorMatrix>
            <feMerge>
                <feMergeNode in="shadowMatrixOuter1"></feMergeNode>
                <feMergeNode in="SourceGraphic"></feMergeNode>
            </feMerge>
        </filter>
        <polygon id="path-14" points="0.000448 7.95807864e-15 56 7.95807864e-15 56 55.999552 0.000448 55.999552"></polygon>
    </defs>
    <g id="ONBOARDING" stroke="none" stroke-width="1" fill="none" fill-rule="evenodd">
        <g id="web-4">
            <g id="Group-60-Copy-+-Oval-+-Oval-+-Oval-+-Group-2-Mask">
                <g id="Group-60-Copy" transform="translate(0.000000, -8.000000)">
                    <g id="4" transform="translate(0.000000, 8.000000)">
                        <g id="Group-4">
                            <mask id="mask-2" fill="white">
                                <use xlink:href="#path-1"></use>
                            </mask>
                            <use id="Mask" fill="#F9E1DE" xlink:href="#path-1"></use>
                            <g id="Group" opacity="0.297488839" style="mix-blend-mode: color-burn;" mask="url(#mask-2)">
                                <g transform="translate(-5.000000, -93.000000)">
                                    <path d="M61.1111155,343.885475 C62.3720451,342.628179 62.3720451,340.590524 61.1111155,339.333228 L43.9341296,322.199848 L34.8069254,322.199848 L56.5479676,343.885475 C57.8079887,345.14277 59.8510944,345.14277 61.1111155,343.885475" id="Fill-4" fill="#333333"></path>
                                    <path d="M283.957435,332.240136 C285.218364,333.497432 287.26147,333.497432 288.521491,332.240136 C289.781512,330.983749 289.781512,328.945185 288.521491,327.687889 L283.019005,322.199939 L273.891801,322.199939 L283.957435,332.240136 Z" id="Fill-6" fill="#333333"></path>
                                    <path d="M211.414466,381.023666 C211.760586,379.280349 210.623206,377.586089 208.874438,377.240877 L170.885755,369.746159 C169.136987,369.401856 167.440001,370.535603 167.093882,372.279828 C166.747762,374.024054 167.884234,375.717406 169.633001,376.062617 L207.621685,383.557335 C209.370452,383.901638 211.068346,382.767892 211.414466,381.023666" id="Fill-8" fill="#333333"></path>
                                    <path d="M83.8685324,369.992349 L47.3033915,382.711568 C45.6200324,383.297518 44.7315676,385.133497 45.3184268,386.811406 C45.9061944,388.490223 47.745807,389.375962 49.4291662,388.79092 L85.994307,376.070793 C87.6767577,375.485751 88.5652225,373.65068 87.9783634,371.971863 C87.3915042,370.293046 85.5518915,369.407307 83.8685324,369.992349" id="Fill-10" fill="#333333"></path>
                                    <path d="M35.7925035,487.547506 C36.9380599,488.910182 38.9729894,489.088238 40.3392993,487.946315 L70.0156585,463.131076 C71.3810599,461.988245 71.5600246,459.957858 70.4153768,458.59609 C69.2707289,457.233414 67.2339824,457.055358 65.868581,458.19728 L36.1922218,483.01252 C34.8268204,484.155351 34.6469472,486.18483 35.7925035,487.547506" id="Fill-12" fill="#333333"></path>
                                    <path d="M94.7105282,324.054813 C95.7761408,325.479264 97.7974437,325.772694 99.2264366,324.709806 L102.598606,322.199757 L94.0727958,322.199757 C94.0864225,322.846574 94.2926408,323.496116 94.7105282,324.054813" id="Fill-16" fill="#333333"></path>
                                    <path d="M233.540237,322.199757 L231.63885,359.683342 C231.549822,361.458454 232.918857,362.970116 234.69942,363.060961 C236.479075,363.149989 237.99528,361.78368 238.085216,360.008567 L240.002956,322.199757 L233.540237,322.199757 Z" id="Fill-22" fill="#333333"></path>
                                    <path d="M164.19547,403.019892 C162.415815,402.929956 160.899611,404.296265 160.809674,406.072287 L158.852871,444.649646 C158.763843,446.425667 160.132878,447.937329 161.912533,448.027265 C163.693096,448.117202 165.209301,446.750892 165.299237,444.97578 L167.25604,406.397512 C167.345977,404.622399 165.976033,403.109829 164.19547,403.019892" id="Fill-24" fill="#333333"></path>
                                    <path d="M262.140446,377.534489 C260.457087,378.119531 259.568622,379.95551 260.155481,381.633418 L272.907404,418.106806 C273.494263,419.784714 275.333875,420.671362 277.017235,420.085411 C278.700594,419.500369 279.589058,417.665299 279.002199,415.986482 L266.249368,379.514003 C265.663418,377.835186 263.823805,376.948538 262.140446,377.534489" id="Fill-26" fill="#333333"></path>
                                    <path d="M75.3580754,423.629459 C74.6440331,425.258311 75.3889627,427.156065 77.022357,427.86829 L112.50735,443.337389 C114.139836,444.049614 116.042132,443.305593 116.755265,441.676741 C117.469308,440.047889 116.724378,438.150135 115.090984,437.438818 L79.6078077,421.968811 C77.9744134,421.257494 76.0712092,422.000607 75.3580754,423.629459" id="Fill-28" fill="#333333"></path>
                                    <path d="M147.772407,324.923746 C147.98771,326.687958 149.597485,327.945254 151.366238,327.729951 L189.80733,323.060514 C190.521372,322.974211 191.15002,322.65807 191.634224,322.199303 L148.759893,322.199303 C148.043125,322.877915 147.643407,323.870852 147.772407,324.923746" id="Fill-32" fill="#333333"></path>
                                    <path d="M4.38354718,461.041458 C2.63477958,460.697155 0.937793662,461.830901 0.591673944,463.575127 L0.000272535211,466.55757 L0.000272535211,499.736915 L6.92357535,464.824246 C7.26878662,463.080021 6.13231479,461.386669 4.38354718,461.041458" id="Fill-34" fill="#333333"></path>
                                    <path d="M263.323067,474.889971 L294.359377,451.789887 C295.787461,450.726091 296.082708,448.70933 295.016187,447.28488 C293.950574,445.85952 291.927454,445.566999 290.49937,446.629887 L259.46306,469.729971 C258.034067,470.793767 257.739729,472.810527 258.80625,474.234978 C259.871863,475.660337 261.894074,475.952858 263.323067,474.889971" id="Fill-36" fill="#333333"></path>
                                    <path d="M131.978265,354.547779 C130.229497,354.202568 128.532511,355.337223 128.186392,357.080539 L120.673504,394.973835 C120.327385,396.717152 121.463856,398.411413 123.212624,398.756624 C124.960483,399.100927 126.658377,397.966272 127.003589,396.222955 L134.518293,358.329659 C134.864413,356.586342 133.727032,354.892082 131.978265,354.547779" id="Fill-38" fill="#333333"></path>
                                    <g id="Group-42" stroke-width="1" fill="none" transform="translate(0.000000, 407.894366)">
                                        <mask id="mask-4" fill="white">
                                            <use xlink:href="#path-3"></use>
                                        </mask>
                                        <g id="Clip-41"></g>
                                        <path d="M39.5647542,13.9395401 C39.9962683,12.2143923 38.9424655,10.46835 37.2136838,10.0386528 L-9.08450706e-05,0.795166901 L-9.08450706e-05,7.42958239 L35.6538739,16.2851599 C37.3835641,16.714857 39.1341486,15.664688 39.5647542,13.9395401" id="Fill-40" fill="#333333" mask="url(#mask-4)"></path>
                                    </g>
                                    <path d="M4.86439014,348.859696 C3.42631268,347.808619 1.40682676,348.119309 0.353023944,349.552844 L0.000545070423,350.033415 L0.000545070423,360.922105 L5.55935493,353.359253 C6.6122493,351.925718 6.30155915,349.910774 4.86439014,348.859696" id="Fill-43" fill="#333333"></path>
                                    <path d="M203.706898,436.422353 C204.35644,438.07755 206.227849,438.894247 207.888496,438.246522 L243.949447,424.168261 C245.609187,423.520536 246.427701,421.65367 245.779067,419.997564 C245.129525,418.342367 243.257208,417.52567 241.597468,418.173395 L205.536518,432.251656 C203.876778,432.899381 203.056447,434.766247 203.706898,436.422353" id="Fill-45" fill="#333333"></path>
                                    <path d="M318.32685,505.249849 C320.075618,505.59506 321.773512,504.460405 322.119632,502.717088 L322.709216,499.73737 L322.709216,466.558025 L315.786822,501.467968 C315.441611,503.211285 316.578082,504.905546 318.32685,505.249849" id="Fill-57" fill="#333333"></path>
                                    <path d="M322.345745,408.599233 C320.616055,408.169536 318.864562,409.219705 318.433956,410.944853 C318.003351,412.670001 319.056245,414.416043 320.785935,414.84574 L322.709125,415.323585 L322.709125,408.690078 L322.345745,408.599233 Z" id="Fill-61" fill="#333333"></path>
                                    <path d="M300.862249,385.204901 C302.299418,386.255979 304.318904,385.945289 305.372706,384.511754 L322.70958,360.922923 L322.70958,350.033324 L300.167284,380.705345 C299.113481,382.13888 299.42508,384.153824 300.862249,385.204901" id="Fill-63" fill="#333333"></path>
                                    <path d="M161.083299,481.04418 C160.758074,479.29632 159.071989,478.143496 157.319588,478.468722 L119.249144,485.539194 C117.496743,485.864419 116.341194,487.545053 116.667327,489.292912 C116.99437,491.040771 118.678637,492.193595 120.431039,491.86837 L158.501482,484.797898 C160.253884,484.471764 161.409433,482.792039 161.083299,481.04418" id="Fill-72" fill="#333333"></path>
                                    <path d="M215.641851,465.378311 L189.618372,493.982698 C188.420125,495.299951 188.520055,497.335789 189.840034,498.530402 C191.159104,499.725015 193.200393,499.625994 194.397731,498.309649 L220.422118,469.704353 C221.619456,468.388008 221.520435,466.35217 220.200456,465.157557 C218.880477,463.962944 216.839189,464.061965 215.641851,465.378311" id="Fill-81" fill="#333333"></path>
                                    <path d="M30.0978803,358.512894 C28.3155,358.512894 26.8701549,359.953696 26.8701549,361.731535 C26.8701549,363.509373 28.3155,364.950175 30.0978803,364.950175 C31.8802606,364.950175 33.3246972,363.509373 33.3246972,361.731535 C33.3246972,359.953696 31.8802606,358.512894 30.0978803,358.512894" id="Fill-88" fill="#333333"></path>
                                    <path d="M33.3244246,452.757114 C35.1068049,452.757114 36.55215,451.316311 36.55215,449.538473 C36.55215,447.760635 35.1068049,446.318924 33.3244246,446.318924 C31.5429528,446.318924 30.0976077,447.760635 30.0976077,449.538473 C30.0976077,451.316311 31.5429528,452.757114 33.3244246,452.757114" id="Fill-106" fill="#333333"></path>
                                    <path d="M205.019882,349.257598 C206.802262,349.257598 208.246699,347.816795 208.246699,346.038957 C208.246699,344.261119 206.802262,342.820316 205.019882,342.820316 C203.237501,342.820316 201.792156,344.261119 201.792156,346.038957 C201.792156,347.816795 203.237501,349.257598 205.019882,349.257598" id="Fill-108" fill="#333333"></path>
                                    <path d="M100.760901,346.038594 C100.760901,347.816432 102.206246,349.257235 103.988626,349.257235 C105.771006,349.257235 107.214535,347.816432 107.214535,346.038594 C107.214535,344.260756 105.771006,342.819953 103.988626,342.819953 C102.206246,342.819953 100.760901,344.260756 100.760901,346.038594" id="Fill-110" fill="#333333"></path>
                                    <path d="M305.272323,424.990863 C303.489942,424.990863 302.045506,426.431666 302.045506,428.209504 C302.045506,429.987342 303.489942,431.429054 305.272323,431.429054 C307.054703,431.429054 308.500048,429.987342 308.500048,428.209504 C308.500048,426.431666 307.054703,424.990863 305.272323,424.990863" id="Fill-112" fill="#333333"></path>
                                    <path d="M231.29482,493.81309 C231.29482,492.035252 229.850383,490.594449 228.067094,490.594449 C226.284714,490.594449 224.841186,492.035252 224.841186,493.81309 C224.841186,495.590928 226.284714,497.031731 228.067094,497.031731 C229.850383,497.031731 231.29482,495.590928 231.29482,493.81309" id="Fill-124" fill="#333333"></path>
                                    <path d="M188.884253,460.759747 C187.101873,460.759747 185.657436,462.20055 185.657436,463.978388 C185.657436,465.756226 187.101873,467.197937 188.884253,467.197937 C190.666633,467.197937 192.111978,465.756226 192.111978,463.978388 C192.111978,462.20055 190.666633,460.759747 188.884253,460.759747" id="Fill-126" fill="#333333"></path>
                                    <path d="M245.903706,447.561957 C245.903706,449.339795 247.349051,450.780598 249.131432,450.780598 C250.913812,450.780598 252.358249,449.339795 252.358249,447.561957 C252.358249,445.784119 250.913812,444.343316 249.131432,444.343316 C247.349051,444.343316 245.903706,445.784119 245.903706,447.561957" id="Fill-128" fill="#333333"></path>
                                    <path d="M89.602219,402.028954 C89.602219,403.806792 91.0475641,405.247595 92.8299444,405.247595 C94.6123246,405.247595 96.0567613,403.806792 96.0567613,402.028954 C96.0567613,400.251116 94.6123246,398.810313 92.8299444,398.810313 C91.0475641,398.810313 89.602219,400.251116 89.602219,402.028954" id="Fill-130" fill="#333333"></path>
                                    <path d="M130.21905,456.083497 C130.21905,457.861335 131.664395,459.302138 133.446775,459.302138 C135.229156,459.302138 136.672684,457.861335 136.672684,456.083497 C136.672684,454.305659 135.229156,452.864856 133.446775,452.864856 C131.664395,452.864856 130.21905,454.305659 130.21905,456.083497" id="Fill-132" fill="#333333"></path>
                                    <path d="M232.613163,393.951374 C232.613163,395.729212 234.058508,397.170015 235.840889,397.170015 C237.623269,397.170015 239.067706,395.729212 239.067706,393.951374 C239.067706,392.173536 237.623269,390.732733 235.840889,390.732733 C234.058508,390.732733 232.613163,392.173536 232.613163,393.951374" id="Fill-134" fill="#333333"></path>
                                    <path d="M188.884253,405.247958 C187.101873,405.247958 185.657436,406.688761 185.657436,408.466599 C185.657436,410.244437 187.101873,411.68524 188.884253,411.68524 C190.666633,411.68524 192.111978,410.244437 192.111978,408.466599 C192.111978,406.688761 190.666633,405.247958 188.884253,405.247958" id="Fill-136" fill="#333333"></path>
                                    <path d="M153.723486,376.651747 C153.723486,374.873909 152.278141,373.433106 150.495761,373.433106 C148.714289,373.433106 147.269852,374.873909 147.269852,376.651747 C147.269852,378.429585 148.714289,379.870388 150.495761,379.870388 C152.278141,379.870388 153.723486,378.429585 153.723486,376.651747" id="Fill-138" fill="#333333"></path>
                                    <path d="M280.138217,358.512894 C280.138217,356.735056 278.692872,355.294253 276.910492,355.294253 C275.128111,355.294253 273.684583,356.735056 273.684583,358.512894 C273.684583,360.290732 275.128111,361.731535 276.910492,361.731535 C278.692872,361.731535 280.138217,360.290732 280.138217,358.512894" id="Fill-140" fill="#333333"></path>
                                    <path d="M379.257002,343.885475 C380.517932,345.14277 382.561037,345.14277 383.821058,343.885475 C385.08108,342.628179 385.08108,340.590524 383.821058,339.333228 L366.644073,322.199848 L357.51596,322.199848 L379.257002,343.885475 Z" id="Fill-144" fill="#333333"></path>
                                    <g id="Group-148" stroke-width="1" fill="none" transform="translate(367.014085, 377.007042)">
                                        <mask id="mask-6" fill="white">
                                            <use xlink:href="#path-5"></use>
                                        </mask>
                                        <g id="Clip-147"></g>
                                        <path d="M1.01410352,9.80445423 C1.60096268,11.4832711 3.4414838,12.3690106 5.12393451,11.7839683 L19.2567021,6.86834155 L19.2567021,0.0495105634 L2.99906831,5.7046162 C1.31570915,6.2905669 0.427244366,8.12563732 1.01410352,9.80445423" id="Fill-146" fill="#333333" mask="url(#mask-6)"></path>
                                    </g>
                                    <path d="M358.50281,487.547506 C359.647458,488.910182 361.683296,489.088238 363.048697,487.946315 L386.270514,468.528182 L386.270514,460.12683 L358.90162,483.01252 C357.537127,484.155351 357.357254,486.18483 358.50281,487.547506" id="Fill-149" fill="#333333"></path>
                                    <path d="M329.632882,464.823792 C329.979002,463.079567 328.841622,461.386215 327.092854,461.041004 C325.344995,460.696701 323.647101,461.830447 323.300981,463.574673 L322.70958,466.558025 L322.70958,499.73737 L329.632882,464.823792 Z" id="Fill-155" fill="#333333"></path>
                                    <path d="M359.923082,417.932565 L322.709307,408.689987 L322.709307,415.323494 L358.363272,424.179072 C360.092962,424.609677 361.843546,423.5586 362.275061,421.833452 C362.705666,420.109213 361.651863,418.362262 359.923082,417.932565" id="Fill-157" fill="#333333"></path>
                                    <path d="M328.268389,353.35898 C329.322192,351.925445 329.010594,349.91141 327.573425,348.859424 C326.136256,347.809255 324.11677,348.119037 323.063875,349.552572 L322.70958,350.033142 L322.70958,360.922741 L328.268389,353.35898 Z" id="Fill-159" fill="#333333"></path>
                                    <path d="M349.580643,361.731535 C349.580643,363.509373 351.02508,364.950175 352.80746,364.950175 C354.58984,364.950175 356.034277,363.509373 356.034277,361.731535 C356.034277,359.953696 354.58984,358.512894 352.80746,358.512894 C351.02508,358.512894 349.580643,359.953696 349.580643,361.731535" id="Fill-167" fill="#333333"></path>
                                    <path d="M356.034731,446.319015 C354.252351,446.319015 352.807006,447.759818 352.807006,449.537656 C352.807006,451.315494 354.252351,452.757205 356.034731,452.757205 C357.817111,452.757205 359.261548,451.315494 359.261548,449.537656 C359.261548,447.759818 357.817111,446.319015 356.034731,446.319015" id="Fill-173" fill="#333333"></path>
                                    <path d="M35.7925035,165.655713 C36.9380599,167.018389 38.9729894,167.196446 40.3392993,166.054523 L70.0156585,141.239284 C71.3810599,140.096453 71.5600246,138.066065 70.4153768,136.704298 C69.2707289,135.341622 67.2339824,135.163565 65.868581,136.305488 L36.1922218,161.120727 C34.8268204,162.26265 34.6469472,164.293037 35.7925035,165.655713" id="Fill-188" fill="#333333"></path>
                                    <path d="M20.8004324,247.284915 C22.061362,246.027619 22.061362,243.989964 20.8004324,242.732668 L0.000545070423,221.984563 L0.000545070423,231.089056 L16.2372845,247.284915 C17.4973056,248.542211 19.5404113,248.542211 20.8004324,247.284915" id="Fill-190" fill="#333333"></path>
                                    <path d="M25.1546366,276.485791 C24.0890239,275.06134 22.0668127,274.767911 20.6378197,275.830798 L0.000545070423,291.191791 L0.000545070423,299.224312 L24.4978268,280.990798 C25.9277282,279.927911 26.2211577,277.910242 25.1546366,276.485791" id="Fill-195" fill="#333333"></path>
                                    <path d="M116.098183,255.960437 C114.318528,256.064909 112.961303,257.587473 113.065775,259.362585 C113.170246,261.136789 114.697352,262.491289 116.476099,262.386818 L155.135218,260.123867 C156.914873,260.019395 158.272099,258.496832 158.167627,256.721719 C158.062246,254.946606 156.536049,253.593015 154.757303,253.696578 L116.098183,255.960437 Z" id="Fill-197" fill="#333333"></path>
                                    <path d="M161.912806,126.135382 C163.693369,126.225319 165.209573,124.859009 165.29951,123.082988 L167.256313,84.5056289 C167.345341,82.7296077 165.976306,81.2179458 164.195742,81.1280092 C162.416087,81.0380725 160.899883,82.4043824 160.809946,84.1804035 L158.853144,122.757763 C158.763207,124.533784 160.133151,126.045446 161.912806,126.135382" id="Fill-202" fill="#333333"></path>
                                    <path d="M272.90704,96.21465 C273.493899,97.8934669 275.33442,98.7792063 277.016871,98.1941641 C278.70023,97.6082134 279.588695,95.773143 279.001836,94.0943261 L266.249913,57.6218472 C265.663054,55.9430303 263.823442,55.0563824 262.140082,55.6423331 C260.457632,56.2273754 259.568258,58.0633542 260.156026,59.7421711 L272.90704,96.21465 Z" id="Fill-204" fill="#333333"></path>
                                    <path d="M75.3580754,101.737213 C74.6440331,103.366065 75.3889627,105.263818 77.022357,105.976044 L112.50735,121.445142 C114.139836,122.157368 116.042132,121.414255 116.755265,119.785403 C117.469308,118.155642 116.724378,116.257889 115.090984,115.546572 L79.6078077,100.076565 C77.9744134,99.3652479 76.0712092,100.108361 75.3580754,101.737213" id="Fill-206" fill="#333333"></path>
                                    <path d="M297.737723,267.648746 L284.985801,231.176267 C284.398033,229.49745 282.55842,228.610802 280.875061,229.196753 C279.192611,229.781795 278.304146,231.616865 278.891913,233.295682 L291.643836,269.768161 C292.230695,271.446978 294.070308,272.333626 295.752758,271.747675 C297.436118,271.162633 298.324582,269.327563 297.737723,267.648746" id="Fill-208" fill="#333333"></path>
                                    <path d="M4.38354718,139.149575 C2.63477958,138.804363 0.937793662,139.939018 0.591673944,141.683244 L0.000272535211,144.665687 L0.000272535211,177.845032 L6.92357535,142.932363 C7.26878662,141.188138 6.13231479,139.494786 4.38354718,139.149575" id="Fill-213" fill="#333333"></path>
                                    <path d="M263.323067,152.998179 L294.359377,129.897186 C295.787461,128.834299 296.082708,126.817538 295.016187,125.392179 C293.950574,123.967728 291.927454,123.675207 290.49937,124.738094 L259.46306,147.838179 C258.034067,148.901975 257.739729,150.918735 258.80625,152.343186 C259.871863,153.768545 261.894074,154.061066 263.323067,152.998179" id="Fill-215" fill="#333333"></path>
                                    <g id="Group-221" stroke-width="1" fill="none" transform="translate(0.000000, 86.302817)">
                                        <mask id="mask-8" fill="white">
                                            <use xlink:href="#path-7"></use>
                                        </mask>
                                        <g id="Clip-220"></g>
                                        <path d="M39.5647542,13.6392063 C39.9962683,11.9140585 38.9424655,10.1671077 37.2136838,9.73831901 L-9.08450706e-05,0.494833099 L-9.08450706e-05,7.12924859 L35.6538739,15.9848261 C37.3835641,16.4145232 39.1341486,15.3643542 39.5647542,13.6392063" id="Fill-219" fill="#333333" mask="url(#mask-8)"></path>
                                    </g>
                                    <path d="M203.706898,114.530015 C204.35644,116.185213 206.227849,117.002818 207.888496,116.354185 L243.949447,102.276832 C245.609187,101.628199 246.427701,99.7613324 245.779067,98.1052268 C245.129525,96.4500296 243.257208,95.6333324 241.597468,96.2810577 L205.536518,110.359318 C203.876778,111.007044 203.056447,112.874818 203.706898,114.530015" id="Fill-224" fill="#333333"></path>
                                    <path d="M31.8437408,218.716593 L69.9141845,211.646121 C71.6665859,211.320896 72.8221352,209.640262 72.4969099,207.892403 C72.1707761,206.144544 70.4856,204.99172 68.7331986,205.316945 L30.6627549,212.387417 C28.9103535,212.713551 27.7538958,214.394185 28.0800296,216.142044 C28.4070718,217.888994 30.0913394,219.041818 31.8437408,218.716593" id="Fill-226" fill="#333333"></path>
                                    <path d="M311.56407,215.419099 C310.303141,216.676394 310.303141,218.714049 311.56407,219.971345 L322.709852,231.089873 L322.709852,221.984472 L316.127218,215.419099 C314.867197,214.161803 312.824092,214.161803 311.56407,215.419099" id="Fill-228" fill="#333333"></path>
                                    <path d="M316.171096,304.091518 L322.709216,299.224948 L322.709216,291.192427 L312.311089,298.931518 C310.883005,299.995314 310.588667,302.011166 311.65428,303.436525 C312.720801,304.860976 314.743012,305.154406 316.171096,304.091518" id="Fill-230" fill="#333333"></path>
                                    <path d="M276.548837,184.627071 L238.477485,191.697543 C236.725084,192.022768 235.569535,193.703402 235.895668,195.451261 C236.221802,197.19912 237.906978,198.351944 239.65938,198.026719 L277.729823,190.956247 C279.482225,190.630113 280.637774,188.950388 280.312549,187.20162 C279.985506,185.45467 278.301239,184.301846 276.548837,184.627071" id="Fill-232" fill="#333333"></path>
                                    <path d="M166.299805,236.01622 C167.190995,237.556044 169.16415,238.082945 170.708516,237.19448 L204.245791,217.880818 C205.789249,216.992354 206.317967,215.023741 205.425868,213.483917 C204.535587,211.944093 202.561523,211.416283 201.018065,212.305656 L167.481699,231.619318 C165.938242,232.507783 165.409523,234.476396 166.299805,236.01622" id="Fill-234" fill="#333333"></path>
                                    <path d="M318.32685,183.358056 C320.075618,183.703268 321.773512,182.568613 322.119632,180.824387 L322.709216,177.845577 L322.709216,144.666232 L315.786822,179.575268 C315.441611,181.319493 316.578082,183.012845 318.32685,183.358056" id="Fill-236" fill="#333333"></path>
                                    <path d="M69.2499254,292.842264 C70.998693,293.187475 72.6965873,292.05282 73.042707,290.308595 L80.5555944,252.416208 C80.9017141,250.671982 79.7643338,248.97863 78.0164746,248.633419 C76.2686155,248.289116 74.5698127,249.422863 74.2246014,251.167088 L66.7098972,289.059475 C66.3646859,290.803701 67.5011577,292.497961 69.2499254,292.842264" id="Fill-238" fill="#333333"></path>
                                    <path d="M322.345745,86.7069866 C320.616055,86.2772894 318.864562,87.3283669 318.433956,89.0526063 C318.003351,90.7777542 319.056245,92.5247049 320.785935,92.9544021 L322.709125,93.4322472 L322.709125,86.7978317 L322.345745,86.7069866 Z" id="Fill-240" fill="#333333"></path>
                                    <path d="M33.7281401,312.019568 C32.468119,310.76318 30.4250134,310.76318 29.1649923,312.019568 C27.9049711,313.276863 27.9049711,315.314518 29.1649923,316.571814 L34.8064711,322.199666 L43.9336754,322.199666 L33.7281401,312.019568 Z" id="Fill-244" fill="#333333"></path>
                                    <path d="M235.457341,276.786488 C237.170679,277.27796 238.95851,276.290474 239.45089,274.581678 L250.143355,237.456932 C250.634827,235.748136 249.645524,233.964847 247.932186,233.473375 C246.219756,232.982812 244.431925,233.970298 243.939545,235.679094 L233.246172,272.80384 C232.7547,274.512636 233.744003,276.295925 235.457341,276.786488" id="Fill-246" fill="#333333"></path>
                                    <path d="M167.542747,278.083937 C167.050367,279.792733 168.040578,281.575113 169.753916,282.066585 L206.972233,292.732705 C208.685571,293.223268 210.473402,292.235782 210.965782,290.526987 C211.457254,288.818191 210.467951,287.035811 208.754613,286.544339 L171.535388,275.879127 C169.822958,275.387656 168.034219,276.375142 167.542747,278.083937" id="Fill-248" fill="#333333"></path>
                                    <path d="M116.667691,167.401211 C116.993825,169.14907 118.679001,170.301894 120.431402,169.976668 L158.501846,162.906196 C160.254247,162.580063 161.409796,160.899429 161.083663,159.15157 C160.757529,157.404619 159.072353,156.251795 157.319951,156.57702 L119.249508,163.647492 C117.497106,163.972718 116.341557,165.653351 116.667691,167.401211" id="Fill-250" fill="#333333"></path>
                                    <path d="M256.575277,300.374774 C255.314347,301.63207 255.314347,303.669725 256.575277,304.92702 L273.892164,322.199394 L283.01846,322.199394 L261.138425,300.374774 C259.878404,299.117478 257.835298,299.117478 256.575277,300.374774" id="Fill-252" fill="#333333"></path>
                                    <path d="M94.0726141,322.199757 L102.598424,322.199757 L130.263473,301.608813 C131.691558,300.545926 131.984987,298.529165 130.920283,297.103806 C129.853762,295.679356 127.831551,295.385926 126.403466,296.448813 L95.3662479,319.549806 C94.497769,320.196623 94.0517197,321.195919 94.0726141,322.199757" id="Fill-254" fill="#333333"></path>
                                    <path d="M240.042201,321.430572 C240.132137,319.654551 238.762194,318.142889 236.982539,318.052952 C235.201975,317.963015 233.685771,319.329325 233.595835,321.105346 L233.540419,322.20003 L240.003137,322.20003 L240.042201,321.430572 Z" id="Fill-256" fill="#333333"></path>
                                    <path d="M215.641851,143.486518 L189.618372,172.090906 C188.420125,173.408159 188.520055,175.443089 189.840034,176.63861 C191.159104,177.833223 193.200393,177.734201 194.397731,176.417856 L220.422118,147.812561 C221.619456,146.496215 221.520435,144.460377 220.200456,143.265765 C218.880477,142.071152 216.839189,142.170173 215.641851,143.486518" id="Fill-258" fill="#333333"></path>
                                    <path d="M106.935549,188.127877 C106.108859,186.553532 104.157507,185.94487 102.579528,186.769743 C101.000641,187.594616 100.39107,189.540518 101.217761,191.114863 L119.18419,225.333475 C120.011789,226.90782 121.961324,227.515574 123.540211,226.690701 C125.120007,225.866736 125.728669,223.920835 124.901979,222.346489 L106.935549,188.127877 Z" id="Fill-260" fill="#333333"></path>
                                    <path d="M148.759802,322.199757 L191.634133,322.199757 C192.349992,321.522053 192.748802,320.529116 192.620711,319.476222 C192.405408,317.712011 190.795633,316.455623 189.02688,316.670018 L150.586696,321.339454 C149.872654,321.425757 149.244006,321.741898 148.759802,322.199757" id="Fill-262" fill="#333333"></path>
                                    <path d="M158.1282,191.326895 C156.34582,191.326895 154.900475,192.767698 154.900475,194.545536 C154.900475,196.323374 156.34582,197.764177 158.1282,197.764177 C159.91058,197.764177 161.355017,196.323374 161.355017,194.545536 C161.355017,192.767698 159.91058,191.326895 158.1282,191.326895" id="Fill-266" fill="#333333"></path>
                                    <path d="M211.47397,250.472032 C211.47397,248.694194 210.028625,247.253392 208.246244,247.253392 C206.464773,247.253392 205.020336,248.694194 205.020336,250.472032 C205.020336,252.24987 206.464773,253.690673 208.246244,253.690673 C210.028625,253.690673 211.47397,252.24987 211.47397,250.472032" id="Fill-268" fill="#333333"></path>
                                    <path d="M161.354744,301.166035 C161.354744,299.388196 159.910308,297.947394 158.127927,297.947394 C156.345547,297.947394 154.901111,299.388196 154.901111,301.166035 C154.901111,302.943873 156.345547,304.384675 158.127927,304.384675 C159.910308,304.384675 161.354744,302.943873 161.354744,301.166035" id="Fill-270" fill="#333333"></path>
                                    <path d="M103.742708,287.524194 C105.525089,287.524194 106.969525,286.083391 106.969525,284.305553 C106.969525,282.527715 105.525089,281.086912 103.742708,281.086912 C101.960328,281.086912 100.515892,282.527715 100.515892,284.305553 C100.515892,286.083391 101.960328,287.524194 103.742708,287.524194" id="Fill-272" fill="#333333"></path>
                                    <path d="M40.2966021,262.813789 C40.2966021,264.591627 41.7419472,266.03243 43.5243275,266.03243 C45.3067077,266.03243 46.7502359,264.591627 46.7502359,262.813789 C46.7502359,261.035951 45.3067077,259.595149 43.5243275,259.595149 C41.7419472,259.595149 40.2966021,261.035951 40.2966021,262.813789" id="Fill-274" fill="#333333"></path>
                                    <path d="M93.8065289,228.132957 C92.0241486,228.132957 90.5788035,229.57376 90.5788035,231.351598 C90.5788035,233.129436 92.0241486,234.571147 93.8065289,234.571147 C95.5889092,234.571147 97.0342542,233.129436 97.0342542,231.351598 C97.0342542,229.57376 95.5889092,228.132957 93.8065289,228.132957" id="Fill-276" fill="#333333"></path>
                                    <path d="M76.5938408,182.347132 C78.3762211,182.347132 79.8206577,180.90633 79.8206577,179.128492 C79.8206577,177.350654 78.3762211,175.909851 76.5938408,175.909851 C74.8114606,175.909851 73.3661155,177.350654 73.3661155,179.128492 C73.3661155,180.90633 74.8114606,182.347132 76.5938408,182.347132" id="Fill-278" fill="#333333"></path>
                                    <path d="M12.7193092,191.326895 C10.9369289,191.326895 9.4915838,192.767698 9.4915838,194.545536 C9.4915838,196.323374 10.9369289,197.764177 12.7193092,197.764177 C14.5016894,197.764177 15.9461261,196.323374 15.9461261,194.545536 C15.9461261,192.767698 14.5016894,191.326895 12.7193092,191.326895" id="Fill-280" fill="#333333"></path>
                                    <path d="M33.3244246,130.865322 C35.1068049,130.865322 36.55215,129.423611 36.55215,127.646681 C36.55215,125.868843 35.1068049,124.427132 33.3244246,124.427132 C31.5429528,124.427132 30.0976077,125.868843 30.0976077,127.646681 C30.0976077,129.423611 31.5429528,130.865322 33.3244246,130.865322" id="Fill-282" fill="#333333"></path>
                                    <path d="M302.045778,106.318075 C302.045778,108.095913 303.490215,109.536716 305.272595,109.536716 C307.054975,109.536716 308.499412,108.095913 308.499412,106.318075 C308.499412,104.540237 307.054975,103.099435 305.272595,103.099435 C303.490215,103.099435 302.045778,104.540237 302.045778,106.318075" id="Fill-288" fill="#333333"></path>
                                    <path d="M229.386528,301.166035 C229.386528,302.943873 230.831873,304.384675 232.613345,304.384675 C234.396634,304.384675 235.840162,302.943873 235.840162,301.166035 C235.840162,299.388196 234.396634,297.947394 232.613345,297.947394 C230.831873,297.947394 229.386528,299.388196 229.386528,301.166035" id="Fill-290" fill="#333333"></path>
                                    <path d="M9.31879648,312.163285 C7.5364162,312.163285 6.09197958,313.604087 6.09197958,315.381925 C6.09197958,317.159763 7.5364162,318.601475 9.31879648,318.601475 C11.1011768,318.601475 12.5465218,317.159763 12.5465218,315.381925 C12.5465218,313.604087 11.1011768,312.163285 9.31879648,312.163285" id="Fill-292" fill="#333333"></path>
                                    <path d="M60.6853246,314.297326 C58.9029444,314.297326 57.4585077,315.738129 57.4585077,317.515967 C57.4585077,319.293805 58.9029444,320.734608 60.6853246,320.734608 C62.4677049,320.734608 63.91305,319.293805 63.91305,317.515967 C63.91305,315.738129 62.4677049,314.297326 60.6853246,314.297326" id="Fill-294" fill="#333333"></path>
                                    <path d="M270.191408,213.92288 C270.191408,212.145042 268.746063,210.704239 266.963683,210.704239 C265.181303,210.704239 263.737775,212.145042 263.737775,213.92288 C263.737775,215.700718 265.181303,217.141521 266.963683,217.141521 C268.746063,217.141521 270.191408,215.700718 270.191408,213.92288" id="Fill-296" fill="#333333"></path>
                                    <path d="M291.557715,175.139848 C291.557715,176.917686 293.00306,178.358489 294.78544,178.358489 C296.56782,178.358489 298.011349,176.917686 298.011349,175.139848 C298.011349,173.36201 296.56782,171.921207 294.78544,171.921207 C293.00306,171.921207 291.557715,173.36201 291.557715,175.139848" id="Fill-298" fill="#333333"></path>
                                    <path d="M228.067367,168.702203 C226.284987,168.702203 224.84055,170.143006 224.84055,171.920844 C224.84055,173.698682 226.284987,175.139485 228.067367,175.139485 C229.850656,175.139485 231.295092,173.698682 231.295092,171.920844 C231.295092,170.143006 229.850656,168.702203 228.067367,168.702203" id="Fill-300" fill="#333333"></path>
                                    <path d="M188.884253,145.306054 C190.666633,145.306054 192.111978,143.865251 192.111978,142.087413 C192.111978,140.309575 190.666633,138.867864 188.884253,138.867864 C187.101873,138.867864 185.657436,140.309575 185.657436,142.087413 C185.657436,143.865251 187.101873,145.306054 188.884253,145.306054" id="Fill-302" fill="#333333"></path>
                                    <path d="M249.131159,128.888715 C250.913539,128.888715 252.358885,127.447912 252.358885,125.670074 C252.358885,123.892236 250.913539,122.451433 249.131159,122.451433 C247.348779,122.451433 245.903434,123.892236 245.903434,125.670074 C245.903434,127.447912 247.348779,128.888715 249.131159,128.888715" id="Fill-304" fill="#333333"></path>
                                    <path d="M130.21905,134.191705 C130.21905,135.969543 131.664395,137.410346 133.446775,137.410346 C135.229156,137.410346 136.672684,135.969543 136.672684,134.191705 C136.672684,132.413867 135.229156,130.973064 133.446775,130.973064 C131.664395,130.973064 130.21905,132.413867 130.21905,134.191705" id="Fill-308" fill="#333333"></path>
                                    <path d="M291.557715,293.179844 C293.340095,293.179844 294.78544,291.739042 294.78544,289.961204 C294.78544,288.183365 293.340095,286.742563 291.557715,286.742563 C289.775335,286.742563 288.329989,288.183365 288.329989,289.961204 C288.329989,291.739042 289.775335,293.179844 291.557715,293.179844" id="Fill-318" fill="#333333"></path>
                                    <path d="M358.50281,165.655713 C359.647458,167.018389 361.683296,167.196446 363.048697,166.054523 L386.270514,146.636389 L386.270514,138.235037 L358.90162,161.120727 C357.537127,162.26265 357.357254,164.293037 358.50281,165.655713" id="Fill-325" fill="#333333"></path>
                                    <path d="M338.947137,247.284915 C340.207158,248.542211 342.250263,248.542211 343.510285,247.284915 C344.770306,246.027619 344.770306,243.989964 343.510285,242.732668 L322.709489,221.984563 L322.709489,231.089056 L338.947137,247.284915 Z" id="Fill-327" fill="#333333"></path>
                                    <path d="M347.208315,280.990707 C348.636399,279.92782 348.930737,277.910151 347.865125,276.4857 C346.798604,275.061249 344.776392,274.76782 343.348308,275.830707 L322.709216,291.1917 L322.709216,299.224221 L347.208315,280.990707 Z" id="Fill-329" fill="#333333"></path>
                                    <path d="M329.632882,142.932 C329.979002,141.187775 328.841622,139.494423 327.092854,139.149211 C325.344995,138.804908 323.647101,139.938655 323.300981,141.68288 L322.70958,144.665324 L322.70958,144.666232 L322.70958,177.845577 L329.632882,142.932 Z" id="Fill-331" fill="#333333"></path>
                                    <path d="M322.709489,93.4320655 L358.363454,102.287643 C360.092235,102.71734 361.843728,101.667171 362.275242,99.9420232 C362.704939,98.2168754 361.652045,96.4699246 359.923263,96.0411359 L322.709489,86.79765 L322.709489,93.4320655 Z" id="Fill-333" fill="#333333"></path>
                                    <g id="Group-339" stroke-width="1" fill="none" transform="translate(350.661972, 206.218310)">
                                        <mask id="mask-10" fill="white">
                                            <use xlink:href="#path-9"></use>
                                        </mask>
                                        <g id="Clip-338"></g>
                                        <path d="M0.128727465,9.92337042 C0.453952817,11.6712296 2.14003732,12.8240535 3.89243873,12.4979197 L35.6091782,6.6084338 L35.6091782,0.0594126761 L2.71054437,6.16965211 C0.958142958,6.49487746 -0.197406338,8.17551127 0.128727465,9.92337042" id="Fill-337" fill="#333333" mask="url(#mask-10)"></path>
                                    </g>
                                    <path d="M357.516232,322.199757 L366.644345,322.199757 L356.437901,312.019658 C355.17788,310.763271 353.134775,310.763271 351.874754,312.019658 C350.613824,313.276954 350.613824,315.314609 351.874754,316.571905 L357.516232,322.199757 Z" id="Fill-340" fill="#333333"></path>
                                    <path d="M366.233453,266.032794 C368.015833,266.032794 369.461178,264.591991 369.461178,262.814153 C369.461178,261.036315 368.015833,259.595512 366.233453,259.595512 C364.451073,259.595512 363.006636,261.036315 363.006636,262.814153 C363.006636,264.591991 364.451073,266.032794 366.233453,266.032794" id="Fill-344" fill="#333333"></path>
                                    <path d="M338.65616,194.545536 C338.65616,192.767698 337.210815,191.326895 335.428435,191.326895 C333.646054,191.326895 332.202526,192.767698 332.202526,194.545536 C332.202526,196.323374 333.646054,197.764177 335.428435,197.764177 C337.210815,197.764177 338.65616,196.323374 338.65616,194.545536" id="Fill-346" fill="#333333"></path>
                                    <path d="M356.034731,124.427223 C354.252351,124.427223 352.807006,125.868025 352.807006,127.645863 C352.807006,129.423701 354.252351,130.865413 356.034731,130.865413 C357.817111,130.865413 359.261548,129.423701 359.261548,127.645863 C359.261548,125.868025 357.817111,124.427223 356.034731,124.427223" id="Fill-348" fill="#333333"></path>
                                    <path d="M332.029012,318.601384 C333.810484,318.601384 335.255829,317.160581 335.255829,315.382743 C335.255829,313.604905 333.810484,312.163194 332.029012,312.163194 C330.246632,312.163194 328.801287,313.604905 328.801287,315.382743 C328.801287,317.160581 330.246632,318.601384 332.029012,318.601384" id="Fill-350" fill="#333333"></path>
                                    <g id="Group-354" stroke-width="1" fill="none" transform="translate(379.732394, 313.415493)">
                                        <mask id="mask-12" fill="white">
                                            <use xlink:href="#path-11"></use>
                                        </mask>
                                        <g id="Clip-353"></g>
                                        <path d="M3.66314577,0.881833099 C1.88076549,0.881833099 0.435420423,2.32263592 0.435420423,4.10047394 C0.435420423,5.87831197 1.88076549,7.31911479 3.66314577,7.31911479 C4.92589225,7.31911479 6.00785704,6.58872042 6.53839225,5.53491761 L6.53839225,2.66693873 C6.00785704,1.61222746 4.92589225,0.881833099 3.66314577,0.881833099" id="Fill-352" fill="#333333" mask="url(#mask-12)"></path>
                                    </g>
                                </g>
                            </g>
                            <rect id="Rectangle-28" stroke="#FFFFFF" stroke-width="4" opacity="0.697488839" mask="url(#mask-2)" x="59" y="65" width="276" height="278"></rect>
                            <g id="Group-45" filter="url(#filter-13)" mask="url(#mask-2)">
                                <g transform="translate(79.000000, 90.000000)">
                                    <rect id="Rectangle-23-Copy-2" fill="#FFFFFF" x="0" y="0" width="235" height="227" rx="3"></rect>
                                    <path d="M218.52908,35.9428571 L207.814794,35.9428571 C206.636222,35.9428571 205.671937,34.9428571 205.671937,33.7206349 L205.671937,15.9428571 L213.171937,19.2761905 L220.671937,15.9428571 L220.671937,33.7206349 C220.671937,34.9428571 219.707651,35.9428571 218.52908,35.9428571 Z" id="Shape-Copy" fill="#F8C31C" transform="translate(213.171937, 25.942857) scale(1, -1) translate(-213.171937, -25.942857) "></path>
                                    <ellipse id="Oval-8" fill="#E9E9E9" cx="25.5434783" cy="25.4795918" rx="13.4683794" ry="13.4346939"></ellipse>
                                    <rect id="Rectangle-23-Copy-2" fill="#E9E9E9" x="0" y="50.0326531" width="235" height="113.963265"></rect>
                                    <rect id="Rectangle-26" fill="#E9E9E9" x="49.229249" y="21.3102041" width="82.6679842" height="8.33877551"></rect>
                                    <rect id="Rectangle-26-Copy" fill="#E9E9E9" x="12.0750988" y="174.187755" width="199.703557" height="8.33877551"></rect>
                                    <rect id="Rectangle-26-Copy-2" fill="#E9E9E9" x="12.0750988" y="194.571429" width="163.478261" height="8.33877551"></rect>
                                </g>
                            </g>
                            <g id="icon/title/hot-thread" mask="url(#mask-2)">
                                <g transform="translate(50.000000, 52.000000)" id="Page-1">
                                    <g>
                                        <g id="Group-3">
                                            <mask id="mask-15" fill="white">
                                                <use xlink:href="#path-14"></use>
                                            </mask>
                                            <g id="Clip-2"></g>
                                            <path d="M56.000448,27.999552 C56.000448,43.464512 43.463168,55.999552 28.000448,55.999552 C12.535488,55.999552 0.000448,43.464512 0.000448,27.999552 C0.000448,12.536832 12.535488,-0.000448 28.000448,-0.000448 C43.463168,-0.000448 56.000448,12.536832 56.000448,27.999552" id="Fill-1" fill="#D53F31" mask="url(#mask-15)"></path>
                                        </g>
                                        <path d="M24.373664,44.121504 C24.373664,44.121504 16.627744,42.441504 16.627744,35.347424 C16.627744,26.575584 22.182944,25.825184 19.987744,20.975584 C19.987744,20.975584 24.026464,22.579424 24.960544,27.153504 C24.960544,27.153504 25.679584,25.081504 24.187744,22.935584 C22.693664,20.787424 21.342944,14.994784 27.594784,9.394784 C27.594784,9.394784 25.399584,14.815584 28.127904,17.427424 C31.138464,20.312544 30.907744,22.655584 30.813664,23.775584 C30.813664,23.775584 33.053664,19.387424 37.533664,17.987424 C37.533664,17.987424 35.479584,24.147424 37.533664,28.067424 C39.910304,32.605664 42.387744,38.801504 33.239584,44.867424 C33.239584,44.867424 35.293664,40.015584 32.679584,37.121504 C30.685984,34.912864 29.787744,30.867424 29.973664,28.815584 C29.973664,28.815584 27.079584,32.133024 27.982304,35.627424 C27.982304,35.627424 25.399584,35.347424 25.213664,32.921504 C25.213664,32.921504 21.387744,38.521504 24.373664,44.121504" id="Fill-4" fill="#FFFFFF"></path>
                                    </g>
                                </g>
                            </g>
                        </g>
                    </g>
                </g>
            </g>
        </g>
    </g>
</svg>