<svg xmlns="http://www.w3.org/2000/svg" width="300" height="130" viewBox="0 0 300 130">
    <defs>
        <filter id="a" width="111.5%" height="109.4%" x="-5.8%" y="-4.7%" filterUnits="objectBoundingBox">
            <feOffset dy="2" in="SourceAlpha" result="shadowOffsetOuter1"/>
            <feGaussianBlur in="shadowOffsetOuter1" result="shadowBlurOuter1" stdDeviation="5"/>
            <feColorMatrix in="shadowBlurOuter1" result="shadowMatrixOuter1" values="0 0 0 0 0 0 0 0 0 0 0 0 0 0 0 0 0 0 0.5 0"/>
            <feMerge>
                <feMergeNode in="shadowMatrixOuter1"/>
                <feMergeNode in="SourceGraphic"/>
            </feMerge>
        </filter>
    </defs>
    <g fill="none" fill-rule="evenodd" filter="url(#a)" transform="translate(-50 -10)">
        <path fill="#069" d="M223.246 104.569c2.51-.628 27.622 11.921 30.76 25.725 3.14 13.804-13.027 12.02-27.857 9.776-14.831-2.246-2.903-35.501-2.903-35.501M174.22 104.569c-2.511-.628-27.622 11.921-30.761 25.725-3.139 13.804 13.028 12.02 27.858 9.776 14.83-2.246 2.903-35.501 2.903-35.501"/>
        <path fill="#0082C6" d="M206.597 107.498s19.667 1.674 19.667 33.463l-7.533 2.093s-2.511-28.027-11.3-26.772l-.834-8.784z"/>
        <path fill="#069" d="M206.597 107.498l.834 8.784c1.657-.239 3.089.57 4.327 2.03 2.24-2.186 4.226-3.842 5.728-4.992-5.244-5.336-10.889-5.822-10.889-5.822"/>
        <path fill="#0082C6" d="M192.786 107.498s-19.672 1.674-19.672 33.463l7.534 2.093s2.51-28.027 11.3-26.772l.838-8.784z"/>
        <path fill="#069" d="M192.786 107.498l-.838 8.784c-1.658-.239-3.09.57-4.327 2.03-2.24-2.186-4.221-3.842-5.723-4.992 5.243-5.336 10.888-5.822 10.888-5.822"/>
        <path fill="#0082C6" d="M190.275 106.66s-6.278 23.01-5.444 35.975c0 0 8.789 7.108 30.972 1.671 0 0-4.183-34.299-7.95-39.318-3.767-5.02-17.578 1.671-17.578 1.671"/>
        <path fill="#00A9E9" d="M210.953 145.324c2.315-33.034-7.087-29.413-16.493-27.367-7.97 1.729-5.326 20.65-4.179 27.116 4.159 1.192 10.89 2.01 20.672.25"/>
        <path fill="#069" d="M188.764 112.73c5.67 2.038 13.219 3.293 22.116 1.38-.982-4.323-2.022-7.777-3.026-9.122-3.767-5.02-17.578 1.671-17.578 1.671s-.658 2.402-1.512 6.072"/>
        <path fill="#0082C6" d="M242.817 66.98c0 23.77-19.28 43.033-43.06 43.033-23.783 0-43.063-19.262-43.063-43.033 0-23.77 19.28-43.038 43.063-43.038 23.78 0 43.06 19.268 43.06 43.038"/>
        <path fill="#FFF" d="M203.826 55.631c0 7.19 4.375 13.021 9.776 13.021 5.394 0 9.768-5.83 9.768-13.02 0-7.194-4.374-13.024-9.768-13.024-5.401 0-9.776 5.83-9.776 13.023"/>
        <path fill="#021A23" d="M206.269 56.343c0 4.89 3.144 8.85 7.023 8.85 3.88 0 7.024-3.96 7.024-8.85 0-4.889-3.144-8.852-7.024-8.852s-7.023 3.963-7.023 8.852"/>
        <path fill="#FFF" d="M209.834 54.256c0 2.106 1.23 3.815 2.748 3.815 1.514 0 2.747-1.71 2.747-3.815 0-2.106-1.233-3.815-2.747-3.815-1.517 0-2.748 1.71-2.748 3.815M176.14 55.631c0 7.19 4.375 13.021 9.776 13.021 5.394 0 9.768-5.83 9.768-13.02 0-7.194-4.374-13.024-9.768-13.024-5.401 0-9.776 5.83-9.776 13.023"/>
        <path fill="#021A23" d="M178.583 56.343c0 4.89 3.144 8.85 7.023 8.85 3.88 0 7.029-3.96 7.029-8.85 0-4.889-3.15-8.852-7.029-8.852-3.88 0-7.023 3.963-7.023 8.852"/>
        <path fill="#FFF" d="M183.19 54.047c0 2.105 1.231 3.814 2.748 3.814 1.519 0 2.75-1.709 2.75-3.814 0-2.106-1.231-3.815-2.75-3.815-1.517 0-2.747 1.709-2.747 3.815M184.951 61.17a1.987 1.987 0 1 1-3.975 0 1.987 1.987 0 0 1 3.975 0"/>
        <path fill="#510D3A" d="M161.373 68.577s14.17 7.083 37.508 7.083 39.179-11.249 39.179-11.249 6.25 32.078-35.844 38.325-40.843-34.159-40.843-34.159"/>
        <path fill="#ED125F" d="M216.387 87.324c-5.002-2.5-16.674 3.747-16.674 3.747l.834 5.416-4.166-5.416s-5.834-2.917-14.587-.834c-5.578 1.328-6.075 5.695-5.706 8.69 5.974 3.649 14.351 5.556 26.126 3.81 8.432-1.253 14.898-3.552 19.888-6.408-1.065-3.509-2.838-7.57-5.715-9.005"/>
        <path fill="#FFF" d="M236.422 65.463c-4.606 2.791-18.603 10.195-37.542 10.195-17.324 0-29.583-3.898-34.753-5.908.582 3.27 2.52 9.61 8.917 11.74 8.748 2.917 32.923 3.334 45.845-.833 10.77-3.473 15.162-9.26 17.533-15.194"/>
        <path fill="#0082C6" d="M237.694 109.838c-1.007 13.044 2.135 26.479-13.793 31.817-4.005 1.34-9.206 2.364-11.052-2.397-2.556-6.596 6.62-11.796 8.907-16.72 2.1-4.505 1.253-5.7 4.965-9.397 4.505-4.482 2.177-9.18 4.128-14.522 1.444-3.955 5.803-7.725 9.103-2.063 2.476 4.244-1.921 8.953-2.258 13.282"/>
        <path fill="#0082C6" d="M238.212 112.73c.407-.484.82-.956 1.263-1.402 1.835-1.843 4.889-4.36 7.458-2.069 2.19 1.953 1.67 6.817.281 9.006-1.898 2.979-5.439 4.304-8.638 5.353-3.262 1.067-5.299 3.524-8.405 4.525-2.875.926-12.154.035-8.32-4.748 1.776-2.206 4.315-2.194 6.648-3.358 2.174-1.085 4.934-2.731 6.86-4.282 1.092-.879 1.961-1.963 2.853-3.024"/>
        <path fill="#00A9E9" d="M246.883 115.25c-.776 2.327-3.081 4.101-5.467 1.616-1.18-1.247-1.044-3.998-3.455-1.977 1.226-1.832 2.212-4.182 4.63-4.533 4.24-.63 5.108 2.437 4.292 4.894"/>
        <path fill="#069" d="M233.687 120.1s-4.452 4.671-4.329 7.249c.123 2.587-8.14 12.802-11.086 10.518-2.943-2.278-.505-4.324 2.92-8.606 3.433-4.284 9.467-9.155 12.495-9.16"/>
        <path fill="#069" d="M241.363 125.186s-1.582-3.677-4.61-3.71c-3.026-.037-5.407 4.164-8.395 4.616-2.7.41-5.093-.012-6.73 2.756-3.714 6.277 7.697 4.992 10.494 3.426 3.307-1.847 6.3-4.716 9.24-7.088"/>
        <path fill="#0082C6" d="M240.06 122.417c2.896.424 5.103 3.257 5.244 6.176.316 6.646-9.776 7.798-14.587 7.173-6.192-.81-13.623-2.974-8.764-6.9 3.174-2.577 6.298-1.159 9.68-2.384 2.698-.978 4.252-3.86 7.23-4.108a5.415 5.415 0 0 1 1.198.043"/>
        <path fill="#00A9E9" d="M243.03 130.14c-.939 3.097-5.868 3.684-7.129.326-.256-.69.681-1.574.405-2.166-.59-1.308-1.477-1.958-2.833-.68.749-1.443 2.938-3.459 4.663-3.69 2.999-.399 5.467 2.917 5.008 5.745a4.17 4.17 0 0 1-.113.465"/>
        <path fill="#069" d="M238.013 136.833s-.68-3.235-3.134-3.754c-2.448-.522-5.06 2.497-7.553 2.379-2.253-.105-4.123-.836-5.901 1.14-4.03 4.485 5.426 5.3 7.95 4.482 2.976-.961 5.87-2.798 8.638-4.247"/>
        <path fill="#0082C6" d="M237.405 134.38c2.282.81 3.608 3.47 3.25 5.855-.827 5.439-9.189 4.736-12.988 3.449-4.89-1.667-10.56-4.626-5.987-7.015 2.996-1.576 5.299.083 8.237-.364 2.343-.354 4.073-2.437 6.529-2.159.336.043.658.12.959.234"/>
        <path fill="#00A9E9" d="M238.563 141.12c-1.266 2.357-5.357 2.036-5.829-.888-.103-.605.799-1.17.676-1.694-.266-1.155-.88-1.825-2.185-1.012.841-1.049 2.943-2.324 4.38-2.231 2.49.16 3.952 3.25 3.12 5.466-.044.118-.105.241-.162.36"/>
        <path fill="#069" d="M227.542 145.564s1.14-2.144.005-3.592c-1.127-1.445-4.025-.979-5.374-2.22-1.218-1.125-1.926-2.418-3.86-2.142-4.389.625.553 5.544 2.359 6.275 2.132.86 4.63 1.192 6.87 1.679"/>
        <path fill="#0082C6" d="M228.359 143.894c.899 1.534.391 3.66-.937 4.832-3.03 2.67-7.408-1.667-8.94-4.181-1.966-3.243-3.764-7.583-.057-6.774 2.43.527 2.943 2.545 4.808 3.676 1.487.909 3.443.553 4.696 1.868.168.178.312.376.43.58"/>
        <path fill="#069" d="M237.253 111.936s.962 13.44-4.42 19.587c-5.378 6.144-10.373 15.937-16.33 10.174-5.956-5.76.578-18.048 1.153-18.816.578-.768 19.597-10.945 19.597-10.945"/>
        <path fill="#0082C6" d="M159.37 109.838c1.009 13.044-2.135 26.479 13.793 31.817 4.005 1.34 9.208 2.364 11.054-2.397 2.556-6.596-6.622-11.796-8.91-16.72-2.096-4.505-1.253-5.7-4.962-9.397-4.507-4.482-2.18-9.18-4.13-14.522-1.442-3.955-5.804-7.725-9.1-2.063-2.48 4.244 1.918 8.953 2.254 13.282"/>
        <path fill="#0082C6" d="M158.854 112.73c-.409-.484-.823-.956-1.265-1.402-1.836-1.843-4.89-4.36-7.456-2.069-2.192 1.953-1.672 6.817-.284 9.006 1.899 2.979 5.44 4.304 8.641 5.353 3.26 1.067 5.296 3.524 8.402 4.525 2.876.926 12.154.035 8.32-4.748-1.776-2.206-4.317-2.194-6.647-3.358-2.172-1.085-4.935-2.731-6.86-4.282-1.093-.879-1.962-1.963-2.85-3.024"/>
        <path fill="#00A9E9" d="M150.18 115.25c.777 2.327 3.082 4.101 5.467 1.616 1.18-1.247 1.045-3.998 3.456-1.977-1.226-1.832-2.213-4.182-4.628-4.533-4.242-.63-5.11 2.437-4.294 4.894"/>
        <path fill="#069" d="M163.376 120.1s4.453 4.671 4.332 7.249c-.123 2.587 8.141 12.802 11.082 10.518 2.94-2.278.507-4.324-2.918-8.606-3.433-4.284-9.465-9.155-12.496-9.16"/>
        <path fill="#069" d="M155.7 125.186s1.585-3.677 4.611-3.71c3.026-.037 5.406 4.164 8.395 4.616 2.7.41 5.092-.012 6.73 2.756 3.713 6.277-7.697 4.992-10.494 3.426-3.308-1.847-6.303-4.716-9.241-7.088"/>
        <path fill="#0082C6" d="M157.005 122.417c-2.897.424-5.105 3.257-5.245 6.176-.317 6.646 9.773 7.798 14.587 7.173 6.195-.81 13.625-2.974 8.766-6.9-3.174-2.577-6.3-1.159-9.683-2.384-2.697-.978-4.251-3.86-7.232-4.108a5.376 5.376 0 0 0-1.193.043"/>
        <path fill="#00A9E9" d="M154.033 130.14c.937 3.097 5.866 3.684 7.13.326.255-.69-.681-1.574-.405-2.166.59-1.308 1.477-1.958 2.833-.68-.749-1.443-2.938-3.459-4.664-3.69-2.998-.399-5.466 2.917-5.007 5.745.03.156.066.314.113.465"/>
        <path fill="#069" d="M159.05 136.833s.681-3.235 3.134-3.754c2.449-.522 5.06 2.497 7.554 2.379 2.255-.105 4.123-.836 5.9 1.14 4.034 4.485-5.426 5.3-7.947 4.482-2.978-.961-5.873-2.798-8.64-4.247"/>
        <path fill="#0082C6" d="M159.659 134.38c-2.283.81-3.609 3.47-3.25 5.855.826 5.439 9.188 4.736 12.985 3.449 4.892-1.667 10.562-4.626 5.99-7.015-2.997-1.576-5.3.083-8.237-.364-2.343-.354-4.076-2.437-6.527-2.159-.339.043-.66.12-.961.234"/>
        <path fill="#00A9E9" d="M158.501 141.12c1.266 2.357 5.356 2.036 5.831-.888.1-.605-.803-1.17-.678-1.694.266-1.155.879-1.825 2.185-1.012-.839-1.049-2.943-2.324-4.38-2.231-2.49.16-3.952 3.25-3.121 5.466.045.118.106.241.163.36"/>
        <path fill="#069" d="M169.522 145.564s-1.14-2.144-.005-3.592c1.127-1.445 4.025-.979 5.373-2.22 1.218-1.125 1.924-2.418 3.862-2.142 4.385.625-.555 5.544-2.36 6.275-2.132.86-4.628 1.192-6.87 1.679"/>
        <path fill="#0082C6" d="M168.705 143.894c-.899 1.534-.394 3.66.937 4.832 3.033 2.67 7.408-1.667 8.94-4.181 1.966-3.243 3.761-7.583.057-6.774-2.428.527-2.943 2.545-4.811 3.676-1.487.909-3.443.553-4.693 1.868a3.148 3.148 0 0 0-.43.58"/>
        <path fill="#069" d="M159.81 111.936s-.96 13.44 4.42 19.587c5.38 6.144 10.374 15.937 16.33 10.174 5.956-5.76-.577-18.048-1.152-18.816-.578-.768-19.597-10.945-19.597-10.945"/>
        <path fill="#D6D6D6" d="M158.768 107.61s1.022 38.917 39.965 38.917c38.937 0 39.962-38.917 39.962-38.917h-79.927z"/>
        <path fill="#929292" d="M238.695 107.61c0 7.921-17.892 14.339-39.962 14.339-22.073 0-39.964-6.418-39.964-14.339 0-7.918 17.891-14.336 39.964-14.336 22.07 0 39.962 6.418 39.962 14.336"/>
        <path fill="#8CC63F" d="M198.733 99.164c-19.26 0-35.326 4.887-39.113 11.392 3.787 6.506 19.853 11.392 39.113 11.392 19.255 0 35.321-4.886 39.108-11.392-3.787-6.505-19.853-11.392-39.108-11.392"/>
        <path fill="#D9E021" d="M224.35 106.716c0 3.32-10.322 6.013-23.058 6.013-12.731 0-23.052-2.693-23.052-6.013s10.32-6.014 23.052-6.014c12.736 0 23.057 2.693 23.057 6.014"/>
        <path fill="#FFF" d="M198.733 119.135c-20.099 0-36.396-5.16-36.396-11.525 0-6.363 16.297-11.523 36.396-11.523s36.391 5.16 36.391 11.523c0 6.365-16.292 11.525-36.391 11.525m0-25.861c-22.073 0-39.964 6.417-39.964 14.336 0 7.92 17.891 14.338 39.964 14.338 22.07 0 39.962-6.417 39.962-14.338 0-7.919-17.892-14.336-39.962-14.336"/>
        <path fill="#090" d="M180.258 111.618a2.202 2.202 0 0 0 2.887-1.192c.251-.718 1.462-2.39 2.182-2.749.184-.115.252-.133.272-.135l.007.002c.013 0 .023.003.03.005.015.028.048.086.093.206.241.487.394 1.772 1.537 3.095 1.168 1.197 2.614 1.9 4.354 1.945.829.002 1.851-.226 2.682-.994.841-.763 1.213-1.925 1.193-2.974 0-.226-.01-.42-.028-.585v-.003a2.215 2.215 0 0 0-2.428-1.965 2.209 2.209 0 0 0-1.969 1.948c-.238-.108-.467-.249-.534-.354-.1-.053-.302-.64-.691-1.742-.276-1.051-1.71-2.856-3.76-2.974a3.353 3.353 0 0 0-.479-.028c-2.051.066-3.342 1.21-4.357 2.264-1.014 1.102-1.742 2.294-2.184 3.338a2.206 2.206 0 0 0 1.193 2.891"/>
        <path fill="#360" d="M219.383 108.348a2.205 2.205 0 0 0-2.29 2.131c.043.053-.296.853-1.085 1.46-.75.628-1.797 1.02-2.29 1.005-.304-.013-.329-.06-.346-.073a2.213 2.213 0 0 0-3.127.143 2.204 2.204 0 0 0 .151 3.125c.982.898 2.255 1.242 3.368 1.22 1.933-.046 3.626-.877 5.032-1.993 1.363-1.15 2.581-2.618 2.717-4.731.002-.038.002-.073.002-.108a2.21 2.21 0 0 0-2.132-2.179"/>
        <path fill="#6C0" d="M217.179 108.444a2.211 2.211 0 0 0 .974-2.975c-1.328-2.517-3.962-4.62-7.322-4.417a2.204 2.204 0 0 0-2.014 2.382 2.211 2.211 0 0 0 2.388 2.018c.891-.16 2.438.823 3.008 2.023a2.21 2.21 0 0 0 2.253 1.192c.243-.03.487-.106.713-.223"/>
        <path fill="#360" d="M173.278 113.85c.696.068 1.424.05 2.152-.08a1.81 1.81 0 0 0 1.477-2.098 1.805 1.805 0 0 0-2.1-1.476 4.768 4.768 0 0 1-1.175.045c-1.795-.216-3.123-1.4-3.279-3.355a1.815 1.815 0 0 0-1.926-1.697 1.817 1.817 0 0 0-1.693 1.93c.221 3.717 3.117 6.395 6.467 6.729l.077.002"/>
        <path fill="#6C0" d="M194.883 104.382a2.219 2.219 0 0 0 2.8 1.398c.354-.118.937-.21 1.615-.21 1.946-.06 4.62.868 5.258 1.62a2.21 2.21 0 0 0 3.121-.02 2.203 2.203 0 0 0-.012-3.124c-2.21-2.06-5.41-2.836-8.367-2.896-1.04.007-2.042.12-3.006.434a2.214 2.214 0 0 0-1.522 2.098c0 .231.045.467.113.7"/>
        <path fill="#FF0" d="M229.28 106.14a2.118 2.118 0 1 0 .003 4.236 2.118 2.118 0 0 0-.002-4.236M187.207 113.753c-.994 0-1.803.805-1.803 1.799 0 .989.809 1.795 1.803 1.795a1.796 1.796 0 0 0 0-3.594M197.453 112.968a2.577 2.577 0 0 0-2.579 2.578 2.578 2.578 0 1 0 5.155 0 2.577 2.577 0 0 0-2.576-2.578M174.912 104.387a.924.924 0 0 0-.927.919c0 .51.417.92.927.92s.916-.41.916-.92a.916.916 0 0 0-.916-.919"/>
        <path fill="#6C0" d="M197.082 113.926c.804 2.217 2.966 2.834 4.49 2.801a7.596 7.596 0 0 0 4.06-1.18c1.209-.757 2.422-2.163 2.434-4.09 0-.324-.038-.615-.09-.879a2.214 2.214 0 0 0-4.342.858l.013.02c-.028 0 .037.069-.402.372-.415.284-1.16.495-1.673.482a1.607 1.607 0 0 1-.401-.04 2.204 2.204 0 0 0-2.707-1.147 2.216 2.216 0 0 0-1.502 2.093c0 .236.035.475.12.71"/>
        <path fill="#090" d="M166.24 126.392c-.459-1.202-.713-2.259-.798-3.162-.08-.904.015-1.604.264-2.121a1.63 1.63 0 0 1 1.215-.931c.56-.108 1.27-.003 2.124.311.35.13.751.321 1.213.557.455.234.9.495 1.319.798a5.39 5.39 0 0 1 1.105 1.072c.318.412.512.866.59 1.358.065.421.012.765-.146 1.006-.16.241-.39.319-.69.214-.184-.066-.458-.251-.82-.545a22.19 22.19 0 0 0-.923-.715c-.254-.194-.585-.36-.985-.517-.497-.201-.899-.246-1.205-.133-.301.115-.507.343-.62.707-.116.367-.143.846-.078 1.434.065.59.226 1.247.475 1.982.504 1.479 1.248 2.831 2.144 4.059.896 1.227 1.748 2.06 2.536 2.5.33.183.565.263.713.255.151-.005.324-.04.533-.108.206-.065.404-.067.567.008.307.138.618.427.934.858.317.44.548.821.691 1.145.294.667.372 1.094.246 1.305-.13.208-.354.26-.688.158a4.106 4.106 0 0 1-1.03-.514c-.786-.512-1.712-1.316-2.82-2.435a31.16 31.16 0 0 1-3.322-3.91c-1.072-1.504-1.94-3.057-2.543-4.636M177.737 137.566c-2.208-4.937-2.353-8.049-3.061-13.171-.083-.608-.026-1.054.178-1.348.2-.294.547-.376 1.042-.258 1.923.461 2.925.67 4.974 1.026.473.08.842.301 1.118.655.276.359.427.76.457 1.212.02.299-.02.555-.12.786-.096.228-.244.409-.45.53-.201.12-.455.155-.756.095a59.53 59.53 0 0 1-3.46-.743c.15 1.4.23 2.116.427 3.559 1.21.321 1.83.477 3.103.75.452.098.824.334 1.098.718.286.387.447.828.497 1.323.048.457-.04.843-.236 1.134-.206.294-.515.39-.937.286a48.262 48.262 0 0 1-2.97-.785c.293 1.496.46 2.236.901 3.662 1.215.406 1.846.6 3.147.936.404.105.75.351 1.042.728.288.374.49.773.605 1.217.065.25.085.492.065.718-.02.225-.095.386-.228.481-.123.096-.312.098-.55.028-1.668-.497-2.464-.778-3.96-1.405-.322-.136-.658-.404-1.025-.801a4.947 4.947 0 0 1-.901-1.333M185.204 140.03c-1.243-5.286-1.208-8.632-1.504-14.088-.028-.585.088-1.01.366-1.285.28-.274.65-.382 1.115-.324.224.028.472.128.751.311.279.186.492.394.633.615 2.875 4.32 4.234 6.82 6.998 11.324h.043c-.09-3.872-.06-5.958-.073-9.67 0-.6.15-1.044.46-1.355.309-.314.703-.46 1.185-.444.5.015.904.183 1.208.512.306.328.46.793.457 1.4-.025 5.602-.108 9.018-.013 14.449.01.592-.12 1.037-.381 1.338-.274.3-.628.431-1.065.406-.183-.007-.397-.098-.648-.256a2.36 2.36 0 0 1-.64-.574c-2.76-4.056-4.211-6.508-7.019-11.131l-.04-.005c.17 3.81.264 5.817.871 9.319.098.582.06 1.003-.118 1.262-.175.258-.45.339-.843.25-.372-.082-.724-.308-1.048-.67-.326-.363-.56-.817-.695-1.385M201.997 128.654c-.048 4.398-.088 6.865-.254 11.164.844-.035 1.26-.06 2.085-.12.856-.063 1.577-.354 2.182-.876.602-.522 1.077-1.21 1.424-2.056.341-.843.554-1.802.62-2.876.065-1.102-.03-2.066-.292-2.896-.266-.829-.71-1.454-1.34-1.878-.626-.421-1.434-.597-2.411-.544-.804.04-1.208.055-2.014.082m-3.425 12.763c.027-5.359.098-8.71.128-14.238.002-.562.17-1.01.495-1.353a1.633 1.633 0 0 1 1.215-.53 81.72 81.72 0 0 0 3.679-.12c1.235-.058 2.333.07 3.282.404.949.339 1.732.856 2.345 1.561.615.713 1.052 1.611 1.31 2.708.255 1.104.322 2.364.192 3.785a12.923 12.923 0 0 1-.872 3.682 10.788 10.788 0 0 1-1.705 2.889 8.267 8.267 0 0 1-2.305 1.932c-.856.477-1.753.77-2.722.851-1.343.11-2.029.14-3.438.173a1.721 1.721 0 0 1-.738-.155c-.243-.108-.444-.29-.618-.553-.168-.258-.253-.607-.248-1.036M217.321 137.412c.5-.166.99-.462 1.467-.884a8.42 8.42 0 0 0 1.358-1.55c.42-.606.796-1.26 1.11-1.974a12.3 12.3 0 0 0 .726-2.216c.233-1.019.296-1.915.19-2.685-.105-.773-.389-1.333-.843-1.694-.457-.362-1.078-.447-1.848-.269-.766.18-1.467.57-2.087 1.205-.61.627-1.1 1.413-1.477 2.341-.371.93-.612 1.926-.75 2.975-.219 1.654-.149 2.956.193 3.877.339.924.967 1.205 1.961.874m-1.228 3.117c-.992.379-1.753.336-2.38-.146-.628-.484-1.09-1.353-1.382-2.615-.29-1.265-.381-2.79-.213-4.523a15.89 15.89 0 0 1 .811-3.774c.42-1.187.974-2.227 1.662-3.143a9.452 9.452 0 0 1 2.383-2.233 8.6 8.6 0 0 1 2.87-1.18c.985-.21 1.861-.21 2.607.01.744.218 1.331.623 1.753 1.235.42.612.67 1.398.738 2.372.068.976-.063 2.08-.397 3.298a16.355 16.355 0 0 1-1.474 3.601 20.141 20.141 0 0 1-2.194 3.21 18.263 18.263 0 0 1-2.456 2.455c-.816.667-1.58 1.15-2.328 1.433M222.912 135.804c2.818-4.924 3.154-8.042 4.164-13.104a3.326 3.326 0 0 1 .622-1.398c.307-.394.643-.652 1.01-.79.372-.14.633-.116.786.082.156.204.168.583.043 1.137-.452 1.93-.84 3.883-1.414 5.783-.623 2.076-1.572 3.943-2.521 5.875.828-.374 1.652-1.423 2.204-2.145.437-.578.987-1.489 1.46-.46.366.8-.169 1.175-.736 1.664-1.849 1.604-3.762 3.168-5.804 4.525-.283.191-.394.171-.354-.035.04-.208.224-.582.54-1.134"/>
        <path fill="#FFF" d="M217.387 60.125c0 .981-.796 1.777-1.778 1.777a1.778 1.778 0 1 1 1.778-1.777"/>
        <g fill-rule="nonzero" stroke="#F8C31C" stroke-linecap="round" stroke-width="2">
            <path d="M257.781 98L277 85"/>
            <path stroke-linejoin="round" d="M265 111.384l12-3.821M286 104.792l8.092-2.317M269 125.101h25.952M300.93 125.51H307"/>
        </g>
        <g fill-rule="nonzero" stroke="#F8C31C" stroke-linecap="round" stroke-linejoin="round" stroke-width="2">
            <path d="M142.319 90.96l-8.718-8.014M134.553 100l-5.201-2.217M122.333 94.697L108.98 88M130.09 109.553L110 105.359M126.504 122.255H103M97 122.5h-6"/>
        </g>
    </g>
</svg>
