<?xml version="1.0" encoding="UTF-8"?>
<svg width="210px" height="100px" viewBox="0 0 210 100" version="1.1" xmlns="http://www.w3.org/2000/svg" xmlns:xlink="http://www.w3.org/1999/xlink">
    <!-- Generator: Sketch 50.2 (55047) - http://www.bohemiancoding.com/sketch -->
    <title>popup qrcode</title>
    <desc>Created with Sketch.</desc>
    <defs></defs>
    <g id="WAP" stroke="none" stroke-width="1" fill="none" fill-rule="evenodd">
        <g id="PROFILE---pop-up-qr-code" transform="translate(-55.000000, -93.000000)">
            <g id="Group-35-Copy-2" transform="translate(15.000000, 83.000000)">
                <g id="Group-35-Copy-3">
                    <g id="Group-39" transform="translate(40.000000, 10.000000)">
                        <g id="Group-35" transform="translate(39.000000, 4.000000)">
                            <g id="Group-2-Copy" opacity="0.5" transform="translate(48.725610, 29.556213)" fill="#484848">
                                <path d="M1.99929801,29.9526525 L11.7976519,29.9526525 L11.7976519,20.154597 L1.99929801,20.154597 L1.99929801,29.9526525 Z M0,31.9526627 L13.7971175,31.9526627 L13.7971175,18.154922 L0,18.154922 L0,31.9526627 Z" id="Fill-19"></path>
                                <polygon id="Fill-20" points="4.35698448 28.3216783 10.1662971 28.3216783 10.1662971 22.5121033 4.35698448 22.5121033"></polygon>
                                <path d="M1.99929801,11.7982576 L11.7976519,11.7982576 L11.7976519,1.99981833 L1.99929801,1.99981833 L1.99929801,11.7982576 Z M0,13.7977407 L13.7971175,13.7977407 L13.7971175,0 L0,0 L0,13.7977407 Z" id="Fill-21"></path>
                                <polygon id="Fill-22" points="4.35698448 9.44055944 10.1662971 9.44055944 10.1662971 3.6309844 4.35698448 3.6309844"></polygon>
                                <path d="M25.1206153,20.6282795 L30.7940188,20.6282795 L30.7940188,14.9548446 L25.1206153,14.9548446 L25.1206153,20.6282795 Z M23.9634146,21.7859064 L31.9512195,21.7859064 L31.9512195,13.7977407 L23.9634146,13.7977407 L23.9634146,21.7859064 Z" id="Fill-23"></path>
                                <polygon id="Fill-24" points="26.868071 18.8811189 29.0465632 18.8811189 29.0465632 16.7025282 26.868071 16.7025282"></polygon>
                                <polyline id="Fill-25" points="31.9512195 11.6191501 29.7730012 11.6191501 29.7730012 7.7146443 27.594235 7.7146443 27.594235 5.80957504 31.9512195 5.80957504 31.9512195 11.6191501"></polyline>
                                <polygon id="Fill-26" points="26.1419069 26.1430877 28.3203991 26.1430877 28.3203991 23.964497 26.1419069 23.964497"></polygon>
                                <polygon id="Fill-27" points="29.7727273 31.9526627 31.9512195 31.9526627 31.9512195 23.964497 29.7727273 23.964497"></polygon>
                                <polygon id="Fill-28" points="15.9756098 31.9526627 18.154102 31.9526627 18.154102 28.3216783 15.9756098 28.3216783"></polygon>
                                <polygon id="Fill-29" points="15.9756098 26.1430877 18.154102 26.1430877 18.154102 23.964497 15.9756098 23.964497"></polygon>
                                <polygon id="Fill-30" points="18.154102 24.6906939 20.3325942 24.6906939 20.3325942 22.5121033 18.154102 22.5121033"></polygon>
                                <polyline id="Fill-31" points="19.6064302 23.964497 19.6064302 26.1291119 21.7841915 26.1291119 21.7841915 28.3216783 23.9634146 28.3216783 23.9634146 23.964497 19.6064302 23.964497"></polyline>
                                <polygon id="Fill-32" points="19.6064302 30.500269 21.7849224 30.500269 21.7849224 28.3216783 19.6064302 28.3216783"></polygon>
                                <polygon id="Fill-33" points="15.9756098 2.17859064 18.154102 2.17859064 18.154102 0 15.9756098 0"></polygon>
                                <polygon id="Fill-34" points="18.154102 3.6309844 20.3325942 3.6309844 20.3325942 1.45239376 18.154102 1.45239376"></polygon>
                                <polygon id="Fill-35" points="19.6064302 5.80957504 21.7849224 5.80957504 21.7849224 3.6309844 19.6064302 3.6309844"></polygon>
                                <polygon id="Fill-36" points="26.1419069 12.345347 28.3203991 12.345347 28.3203991 10.1667563 26.1419069 10.1667563"></polygon>
                                <polygon id="Fill-37" points="26.1419069 3.6309844 28.3203991 3.6309844 28.3203991 1.45239376 26.1419069 1.45239376"></polygon>
                                <polyline id="Fill-38" points="21.7849224 0 21.7849224 2.07970075 23.8185568 2.07970075 23.8185568 6.04609418 21.7852633 6.04609418 21.7852633 8.12562275 23.8185568 8.12562275 23.8185568 10.1667563 25.8515094 10.1667563 25.8515094 2.05404669 31.9512195 2.05404669 31.9512195 0 21.7849224 0"></polyline>
                                <polygon id="Fill-39" points="27.594235 5.80957504 29.7727273 5.80957504 29.7727273 3.6309844 27.594235 3.6309844"></polygon>
                                <polyline id="Fill-40" points="20.3314991 7.72084731 20.3314991 5.80957504 18.1549233 5.80957504 18.1549233 7.74548955 15.9756098 7.74548955 15.9759748 11.6191501 18.1527331 11.6191501 18.1527331 9.68256957 18.1549233 9.68256957 18.1549233 9.70721181 20.3325942 9.70721181 20.3325942 7.72084731 20.3314991 7.72084731"></polyline>
                                <polygon id="Fill-41" points="23.9634146 30.500269 26.1419069 30.500269 26.1419069 28.3216783 23.9634146 28.3216783"></polygon>
                                <polygon id="Fill-42" points="27.594235 30.500269 29.7727273 30.500269 29.7727273 28.3216783 27.594235 28.3216783"></polygon>
                                <polygon id="Fill-43" points="26.1419069 31.9526627 28.3203991 31.9526627 28.3203991 29.7740721 26.1419069 29.7740721"></polygon>
                                <polyline id="Fill-44" points="17.8376049 24.6906939 15.9756098 24.6906939 15.9756098 18.8811189 19.6064302 18.8811189 19.6064302 20.8843685 17.8376049 20.8843685 17.8376049 24.6906939"></polyline>
                                <polygon id="Fill-45" points="15.9756098 18.8811189 18.154102 18.8811189 18.154102 16.7025282 15.9756098 16.7025282"></polygon>
                                <polygon id="Fill-46" points="18.154102 17.4287251 20.3325942 17.4287251 20.3325942 15.2501345 18.154102 15.2501345"></polygon>
                                <polygon id="Fill-47" points="19.6064302 18.8811189 21.7849224 18.8811189 21.7849224 16.7025282 19.6064302 16.7025282"></polygon>
                            </g>
                            <g id="Group" transform="translate(20.768293, 3.195266)">
                                <path d="M52.6535219,10.8246085 C60.4866601,13.322227 67.4878065,18.5512171 72.0684025,26.1194769 C76.938513,34.1656833 78.3831848,43.6265881 76.1361109,52.7591947 C73.8884569,61.8912213 68.2182651,69.6021691 60.1704568,74.4715392 C52.1214882,79.3409093 42.6574374,80.7846094 33.522354,78.5387248 C24.3895914,76.2852998 16.6742317,70.6224457 11.8041212,62.5762393 C1.75001773,45.9664379 7.08834113,24.2755546 23.7026471,14.2241771 C32.7472209,8.75273354 43.2944854,7.84092296 52.6535219,10.8246085 M63.6832054,80.2063157 L66.0839211,84.2107227 C65.9902567,84.3151248 65.8787789,84.4079266 65.7512115,84.4856482 L66.1264436,84.2820641 L66.6137281,85.0946604 L68.3123285,84.0570196 C68.5134483,84.1817221 68.6875606,84.3505055 68.8162773,84.5593097 C69.1495615,85.0998805 69.0857778,85.7541335 68.7082472,86.2239429 L69.3771142,85.8602757 C69.6885626,85.6909123 70.0241453,85.6097107 70.3430639,85.6097107 C70.8613783,85.6097107 71.3342972,85.824895 71.5825365,86.225683 C71.5825365,86.225683 75.6790595,91.9590975 83.2336939,104.229823 C91.7824348,117.887356 95.668644,124.997718 95.668644,124.997718 C96.0932941,125.651391 95.7623084,126.538809 94.9279485,126.979617 L86.2022222,131.562289 C85.8879007,131.726432 85.5482956,131.804734 85.2242054,131.804734 C84.6806073,131.804734 84.1801063,131.583749 83.916352,131.175421 L60.0451554,92.4602275 C59.6480874,91.8140946 59.9957374,90.931317 60.8203286,90.4881881 L61.4891956,90.1280009 C61.4225387,90.1361211 61.3558819,90.1396012 61.2897996,90.1396012 C60.7324105,90.1396012 60.1922601,89.8704758 59.8963267,89.3879062 C59.455587,88.6681118 59.7250876,87.7476334 60.4979622,87.330605 L61.3719714,86.8584756 C61.1507397,86.9640377 60.9139929,87.0144987 60.6801193,87.0144987 C60.1623795,87.0144987 59.6607292,86.7650937 59.3854824,86.3155848 C59.0728848,85.8040145 59.1441387,85.1851422 59.511326,84.7449134 L58.4007103,82.9204754 C48.9289282,86.968363 38.5470767,87.2628078 29.1720933,84.2735029 C19.8403257,81.2985179 11.506484,75.0730326 6.04922177,66.0570124 C-5.92472871,46.274435 0.431827232,20.4409619 20.2197696,8.47025787 C29.8056602,2.67167621 41.076421,0.95130077 51.9561342,3.6269892 C62.8433897,6.30383769 72.0225675,13.0548322 77.8233019,22.6375438 C89.7902941,42.4095832 83.4463037,68.2260734 63.6832048,80.2063147 Z" id="Combined-Shape" fill="#A5CED5"></path>
                                <polyline id="Fill-90" fill="#DEDEDE" points="67.0572234 85.4733728 62.304878 77.3248032 67.1378986 74.2899408 71.8902439 82.4391083 67.0572234 85.4733728"></polyline>
                                <path d="M44.1112154,75.0887574 C41.4527608,75.0887574 38.7770361,74.7670494 36.1295193,74.1161518 C35.2550731,73.900337 34.3938674,73.6511427 33.5487805,73.3702957 L43.0882458,8.78813326 C43.1009106,8.78813326 43.114151,8.78755775 43.1273915,8.78698225 C45.4559859,9.03790298 47.7425561,9.52017723 49.950835,10.2251724 C57.5807953,12.6589884 64.3507013,17.7481904 68.7212052,25.1129441 C73.4290531,32.958821 74.7191347,42.1674968 72.2805869,51.0228118 C69.8098015,59.8700696 63.8107207,67.2797128 55.3656084,71.881461 C53.1176082,73.0929017 50.772895,74.0712623 48.3665849,74.8119389 C46.9584905,74.9961009 45.5377313,75.0887574 44.1112154,75.0887574" id="Fill-91" fill="#CDE5E9" opacity="0.437890625"></path>
                                <path d="M54.12029,10.4830211 C61.566482,12.8569449 68.2211564,17.8278927 72.5750837,25.021707 C77.2050541,32.6704362 78.5782962,41.6635756 76.4420126,50.3447235 C74.3057291,59.0258714 68.9162041,66.3556373 61.2654496,70.9838011 C53.614114,75.612546 44.6185935,76.9854246 35.935147,74.8502875 C27.253444,72.7081785 19.9194128,67.3253091 15.2906046,59.6771608 C5.7331183,43.8876041 10.8070824,23.2688611 26.6008198,13.7144857 C35.198257,8.51346603 45.224145,7.64662942 54.12029,10.4830211 M76.7442073,22.5002118 C71.4406915,13.7388873 63.0478168,7.56645284 53.0939906,5.11932428 C43.1471381,2.67277671 32.8423012,4.24551579 24.0786569,9.54704669 C5.98649687,20.4923114 0.174480532,44.1112851 11.1220622,62.1980751 C16.1117604,70.4411568 23.7311331,76.1331127 32.2629011,78.8533064 C42.4520905,82.1016198 53.9407167,81.1087084 63.7870314,75.1518211 C81.8791914,64.2065564 87.6912078,40.5875827 76.7442073,22.5002118" id="Fill-106" fill="#FFFFFF"></path>
                                <path d="M55.0498634,8.42815877 C62.8830015,10.9257773 69.884148,16.1547674 74.4647439,23.7230272 C79.3348544,31.7692336 80.7795262,41.2301384 78.5324524,50.362745 C76.2847983,59.4947716 70.6146065,67.2057194 62.5667983,72.0750895 C54.5178296,76.9444596 45.0537788,78.3881597 35.9186955,76.1422751 C26.7859329,73.8888501 19.0705732,68.225996 14.2004627,60.1797896 C4.14635919,43.5699882 9.48468259,21.8791049 26.0989885,11.8277274 C35.1435623,6.35628384 45.6908269,5.44447326 55.0498634,8.42815877 M80.2196434,20.2410941 C74.418909,10.6583825 65.2397312,3.90738799 54.3524756,1.2305395 C43.4727625,-1.44514893 32.2020017,0.275226501 22.6161111,6.07380817 C2.8281687,18.0445122 -3.52838724,43.8779853 8.44556324,63.6605627 C13.9028255,72.6765829 22.2366672,78.9020682 31.5684348,81.8770532 C42.7121341,85.4303303 55.278458,84.3439301 66.0479351,77.8290087 C85.8358775,65.8571446 92.1930137,40.0236715 80.2196434,20.2410941" id="Fill-107" fill="#62829E"></path>
                                <path d="M66.9040117,85.4733728 L66.3901884,84.6095873 L66.9131005,84.322892 C67.1809188,84.1761532 67.4735799,84.1058666 67.7619995,84.1058666 C68.0928338,84.1058666 68.4182148,84.1977325 68.695122,84.3703662 L66.9040117,85.4733728 M66.34535,84.5337518 L63.1036585,79.0828402 L64.9244591,82.0872845 C64.9977759,82.0774197 65.0716985,82.0724873 65.1450153,82.0724873 C65.6903466,82.0724873 66.2199239,82.3388366 66.5119791,82.8185119 C66.8549318,83.3808048 66.7658611,84.0639413 66.34535,84.5337518" id="Fill-109" fill="#B9C6CB"></path>
                                <path d="M48.4112337,75.0887574 C50.8349481,74.3450986 53.1966201,73.3627987 55.4608796,72.1464803 C63.9670735,67.5262039 70.0095443,60.0867269 72.4982004,51.2038468 C74.9543856,42.3128772 73.6549732,33.0671241 68.9130745,25.1896568 C64.5109597,17.79525 57.6920885,12.6855571 50.0069423,10.2419417 C47.7826914,9.53410798 45.4795829,9.04989192 43.1341463,8.79796089 C43.4258038,8.79044919 43.7174613,8.78698225 44.0091188,8.78698225 C47.4846557,8.78698225 50.9341,9.32666936 54.2298878,10.3736855 C61.6593263,12.7346721 68.2990282,17.6785297 72.6431594,24.8331397 C77.2627127,32.4401856 78.6328651,41.3843149 76.501388,50.0181531 C74.3699109,58.6519912 68.992512,65.941812 61.3589712,70.5447537 C57.3354893,72.9710344 52.9380132,74.4982218 48.4112337,75.0887574" id="Fill-124" fill="#ABCCD5"></path>
                                <path d="M43.9391752,77.4852071 C42.1931615,77.4852071 40.4401916,77.3543616 38.6906998,77.0909338 C41.9195498,76.9276665 45.1217342,76.3654941 48.2213142,75.4125223 C52.7469214,74.8208229 57.1432585,73.2906257 61.1656984,70.8595633 C68.7972621,66.2475501 74.1732682,58.9433625 76.3041933,50.2925087 C78.4351183,41.641655 77.0653208,32.6798985 72.4469639,25.0578606 C68.1039578,17.8891502 61.4659756,12.9355493 54.0384613,10.5699096 C50.7435272,9.52083004 47.2949763,8.98007931 43.8203396,8.98007931 C43.5287576,8.98007931 43.2371757,8.98355309 42.9455937,8.9910796 C41.6888349,8.85618139 40.421062,8.78786385 39.1457532,8.78786385 C36.2270352,8.78786385 33.2741156,9.14566251 30.3536585,9.87689182 C34.707099,8.06358209 39.2825591,7.18934911 43.8174411,7.18934911 C47.4787367,7.18934911 51.1127871,7.75904795 54.5845254,8.86486583 C62.4108635,11.3578772 69.4059322,16.5772218 73.9825516,24.1315211 C78.8484343,32.1628852 80.291852,41.6063383 78.0467288,50.7220987 C75.801026,59.8372802 70.1357566,67.5340042 62.0949347,72.3943921 C56.5282119,75.7587417 50.282677,77.4852071 43.9391752,77.4852071" id="Fill-125" fill="#D4E3E9"></path>
                                <path d="M41.5143637,83.8757396 C38.4451231,83.667252 35.4077934,83.1249532 32.4644555,82.2638589 C32.1563711,82.1731871 31.849447,82.0796275 31.5436833,81.9826028 C29.8303625,81.4391489 28.150693,80.7859648 26.5168591,80.0270929 C23.649527,78.6947358 20.9220223,77.0366529 18.3958458,75.0661273 C17.3619353,74.2587431 16.3605158,73.3988039 15.3985496,72.4886197 C13.9207886,71.0904244 12.5341185,69.5726808 11.252464,67.9371214 C10.7738017,67.3260968 10.3090641,66.6989014 9.86115227,66.0555351 C9.36102271,65.3388229 8.88061984,64.6013196 8.42052385,63.8447579 C8.13796806,63.3798478 7.8658558,62.9120501 7.6030267,62.4402098 C12.2126895,69.0298044 19.2661409,73.7337701 27.7184465,75.8163362 C30.8253998,76.5798282 33.9868917,76.9575315 37.13794,76.9575315 C37.798784,76.9575315 38.4590479,76.9407832 39.1175711,76.9078641 C40.8686048,77.1706394 42.6231196,77.3011607 44.3706721,77.3011607 C50.7197646,77.3011607 56.9708039,75.5789721 62.5424329,72.2229568 C70.5903414,67.3746091 76.2606038,59.6969517 78.5082858,50.6043506 C80.7553877,41.5111719 79.3106979,32.0911124 74.4405267,24.0796438 C69.8598737,16.5440582 62.8586401,11.3376431 55.0254044,8.85080751 C51.5506063,7.74772899 47.9133532,7.17944142 44.2488308,7.17944142 C39.709952,7.17944142 35.1304594,8.05150873 30.7731821,9.86032648 C27.5594726,10.6625129 24.3834758,11.9163262 21.3380233,13.6425575 C10.5620299,19.6436511 3.76850667,30.000461 2.39634146,40.8458597 C2.42999287,39.8819654 2.49729569,38.9203813 2.59708952,37.9634173 C2.73517634,36.6426108 2.9359244,35.3287345 3.19817331,34.0281414 C3.22718315,33.8837594 3.25677318,33.74111 3.2875236,33.596728 C5.42264748,23.5610236 11.2350581,14.3217304 20.1857526,8.06883457 C20.9637964,7.52538071 21.7667887,7.00329538 22.5912482,6.50662128 C22.8291288,6.36339433 23.0675897,6.22305503 23.3072109,6.08502583 C24.3620085,5.47688883 25.437113,4.91726418 26.528463,4.40615188 C27.9830162,3.72524635 29.4671593,3.13154755 30.9745104,2.62505548 C31.188603,2.553442 31.4026955,2.48356111 31.6173683,2.41541281 C34.3721423,1.87195894 37.1599874,1.59763314 39.9507336,1.59763314 C43.3222566,1.59763314 46.6978411,1.99901511 50.0154058,2.81044197 C60.834914,5.4578304 69.8964261,12.1484925 75.5840944,21.6603789 C87.1085416,40.5547855 81.2630598,64.8421488 62.0916201,76.9956484 L63.5415316,79.3357919 C61.7284169,80.2684996 59.8735281,81.0568254 57.9907897,81.7036568 L56.8298161,79.8238031 C51.8975639,82.0588365 46.7100252,83.3894611 41.5143637,83.8757396" id="Fill-126" fill="#517490"></path>
                                <path d="M89.8355376,129.616188 C89.8355376,129.616188 85.8142517,124.290977 77.4166909,110.297738 C70.1474876,98.183614 67.2660846,91.6769989 67.2660846,91.6769989 C66.8794004,91.0412556 67.1807951,90.1553461 67.9386041,89.6986207 L75.8359533,84.9408736 C76.5937623,84.4841483 77.521574,84.6293135 77.9082583,85.2656306 C77.9082583,85.2656306 81.2333973,89.2642726 89.4914981,103.146199 C97.9276697,117.327063 100.477711,123.204246 100.477711,123.204246 C100.864396,123.839989 100.563577,124.725899 99.8051918,125.182624 L91.9084189,129.940945 C91.1500337,130.39767 90.2222219,130.251931 89.8355376,129.616188" id="Fill-127" fill="#FF9054"></path>
                                <path d="M67.1917295,89.8743854 L66.417361,88.6072897 C66.1828311,88.2229433 66.306994,87.7233524 66.6944781,87.4910812 L73.8647342,83.1943616 C74.2522183,82.9620904 74.7566675,83.0850575 74.9911974,83.4688099 L75.7655658,84.7359055 C76.0000957,85.1202519 75.8759328,85.6198429 75.4884487,85.8521141 L68.3181926,90.1488337 C67.9307085,90.3811049 67.4262593,90.2581378 67.1917295,89.8743854" id="Fill-128" fill="#999999"></path>
                                <path d="M66.2974833,85.9225018 L65.6060829,84.7925858 C65.3963771,84.45005 65.5072297,84.0046404 65.8535014,83.7977623 L70.8858678,80.7850299 C71.2321394,80.5781518 71.6824068,80.6878085 71.8915411,81.029779 L72.5829415,82.1602603 C72.7926473,82.5022308 72.6817946,82.9476404 72.335523,83.1550838 L67.3031566,86.167251 C66.956885,86.3746943 66.5066176,86.2650376 66.2974833,85.9225018" id="Fill-129" fill="#B3B3B3"></path>
                            </g>
                            <g id="Group" transform="translate(65.500000, 44.334320) rotate(-7.000000) translate(-65.500000, -44.334320) translate(4.792683, 7.189349)" fill="#62829E">
                                <g id="Group-34">
                                    <polyline id="Fill-48" points="2.00299037 14.3786982 0 14.3786982 0 0 14.2918562 0 14.2918562 2.00056149 2.00299037 2.00056149 2.00299037 14.3786982"></polyline>
                                    <polyline id="Fill-49" points="120.529979 14.3786982 118.527307 14.3786982 118.527307 2.00056149 106.237805 2.00056149 106.237805 0 120.529979 0 120.529979 14.3786982"></polyline>
                                    <polyline id="Fill-50" points="14.5010131 74.2899408 0 74.2899408 0 59.9112426 2.03230352 59.9112426 2.03230352 72.260424 14.5010131 72.260424 14.5010131 74.2899408"></polyline>
                                    <polyline id="Fill-51" points="120.739141 74.2899408 106.237805 74.2899408 106.237805 72.260424 118.70716 72.260424 118.70716 59.9112426 120.739141 59.9112426 120.739141 74.2899408"></polyline>
                                </g>
                            </g>
                        </g>
                    </g>
                </g>
            </g>
        </g>
    </g>
</svg>