<?xml version="1.0" encoding="UTF-8"?>
<svg width="24px" height="24px" viewBox="0 0 24 24" version="1.1" xmlns="http://www.w3.org/2000/svg" xmlns:xlink="http://www.w3.org/1999/xlink">
    <!-- Generator: Sketch 50.2 (55047) - http://www.bohemiancoding.com/sketch -->
    <title>otomotif white</title>
    <desc>Created with Sketch.</desc>
    <defs></defs>
    <g id="00-CHANNEL" stroke="none" stroke-width="1" fill="none" fill-rule="evenodd">
        <g id="0-menu-copy" transform="translate(-19.000000, -544.000000)" fill="#FFFFFF">
            <path d="M38.9516345,557.401736 C39.0315459,556.945605 39.0812266,556.479026 39.0812266,556 C39.0812266,555.027276 38.9005089,554.098899 38.5855311,553.235206 L40.7434739,552.41975 C41.1543677,553.537404 41.3901009,554.739749 41.3901009,556 C41.3901009,556.615399 41.3263051,557.214793 41.2237206,557.800961 L38.9516345,557.401736 Z M38.3402396,563.352999 L36.713558,561.714974 C37.7019482,560.726801 38.4265973,559.480332 38.7984801,558.0896 L41.0266649,558.686771 C40.5477519,560.477285 39.6137104,562.081635 38.3402396,563.352999 Z M37.6761632,548.043494 C38.830378,549.012883 39.7630859,550.231455 40.4083792,551.612741 L38.3176777,552.587687 C37.8157582,551.51349 37.0903311,550.565551 36.1926331,549.811557 L37.6761632,548.043494 Z M35.5823496,552.246923 C34.7775668,553.455381 32.241295,556.391335 31.8162861,556.816345 C31.3654921,557.267141 30.6345079,557.267141 30.1836028,556.816345 C29.7328088,556.365549 29.7328088,555.634562 30.1836028,555.183655 C30.6087228,554.758755 33.5446631,552.22236 34.7531155,551.417685 C35.2977137,551.055025 35.9448965,551.702322 35.5823496,552.246923 Z M34.463367,562.3496 C34.463367,563.305986 33.688148,564.08132 32.7316557,564.08132 L29.2683443,564.08132 C28.3119631,564.08132 27.536633,563.305986 27.536633,562.3496 C27.536633,561.393104 28.3119631,560.617881 29.2683443,560.617881 L34.463367,560.617881 L34.463367,562.3496 Z M25.8089229,547.008641 C26.5859201,546.559068 27.4259351,546.210635 28.313408,545.973233 L28.9103543,548.201428 C28.2201594,548.386037 27.5667526,548.657003 26.9624709,549.006882 L25.8089229,547.008641 Z M24.8115301,550.807287 L23.0435864,549.323639 C23.6266399,548.629551 24.3003858,548.015819 25.0440402,547.493892 L26.3675251,549.384212 C25.7891395,549.790106 25.2651026,550.267466 24.8115301,550.807287 Z M23.6530918,563.346887 C23.439476,563.133381 23.2379746,562.907761 23.0435864,562.67625 L24.8115301,561.192602 C24.9629062,561.372653 25.119506,561.548148 25.2857751,561.714307 L23.6530918,563.346887 Z M22.4939867,561.956043 C22.3207156,561.708972 22.1604481,561.453121 22.0087386,561.191157 L24.0067473,560.037492 C24.1247806,560.241329 24.2495936,560.440386 24.3842983,560.632441 L22.4939867,561.956043 Z M20.9732239,558.686771 L23.2014087,558.0896 C23.32411,558.548065 23.4848221,558.989747 23.6823223,559.412313 L21.5916208,560.387259 C21.3377713,559.843881 21.1309351,559.276274 20.9732239,558.686771 Z M20.6098991,556 L22.9187734,556 C22.9187734,556.479138 22.9683429,556.945827 23.0483655,557.402069 L20.7765017,557.802629 C20.6736949,557.216016 20.6098991,556.616066 20.6098991,556 Z M20.9732239,553.31334 L23.2014087,553.9104 C23.081486,554.358862 22.9954617,554.820439 22.9542278,555.296131 L20.6555787,555.094962 C20.7082602,554.483454 20.8190693,553.889839 20.9732239,553.31334 Z M22.4939867,550.044068 L24.3842983,551.367559 C23.9821848,551.940724 23.6569818,552.569349 23.4131352,553.238652 L21.245523,552.449648 C21.5589449,551.589401 21.9769518,550.781058 22.4939867,550.044068 Z M30.9999444,545.609795 C31.6160073,545.609795 32.2160656,545.673703 32.8026758,545.776399 L32.402007,548.048384 C31.9458782,547.968361 31.4791909,547.918792 30.9999444,547.918792 C30.5209203,547.918792 30.0540106,547.968361 29.5978818,548.048384 L29.1972131,545.776399 C29.7838232,545.673703 30.3838816,545.609795 30.9999444,545.609795 Z M33.686592,545.973233 C34.8734828,546.290546 35.9766832,546.807028 36.9559598,547.493892 L35.6324749,549.384212 C34.8708154,548.850059 34.0126841,548.448277 33.0895345,548.201428 L33.686592,545.973233 Z M30.9999444,544 C24.3725172,544 19,549.372542 19,556 C19,562.627458 24.3725172,568 30.9999444,568 C37.6273716,568 43,562.627458 43,556 C43,549.372542 37.6273716,544 30.9999444,544 Z" id="otomotif-white"></path>
        </g>
    </g>
</svg>