<?xml version="1.0" encoding="UTF-8"?>
<svg width="24px" height="17px" viewBox="0 0 24 17" version="1.1" xmlns="http://www.w3.org/2000/svg" xmlns:xlink="http://www.w3.org/1999/xlink">
    <!-- Generator: sketchtool 50.2 (55047) - http://www.bohemiancoding.com/sketch -->
    <title>0D94FACA-E7E9-4606-AE7D-F8B89E234553</title>
    <desc>Created with sketchtool.</desc>
    <defs></defs>
    <g id="00-CHANNEL" stroke="none" stroke-width="1" fill="none" fill-rule="evenodd">
        <g id="0-menu" transform="translate(-19.000000, -607.000000)" fill="#ED83A5">
            <g id="female" transform="translate(19.000000, 607.000000)">
                <path d="M21.9972795,0 L11.1256954,10.6050901 C11.0512319,10.6852151 10.9727334,10.7618986 10.890475,10.8346111 L10.8854313,10.8394645 L10.8853396,10.839288 C10.2784435,11.3735135 9.47044079,11.6995728 8.58320597,11.6995728 C7.89175888,11.6995728 7.24873143,11.5010252 6.71125512,11.1609352 C6.64220212,11.1994093 6.55095678,11.2216466 6.42935746,11.2221761 C6.42651464,11.2221761 6.42367182,11.2225291 6.42092071,11.223235 L0.519502354,12.6490716 C0.517118053,12.6496893 0.514458642,12.6499541 0.511982637,12.6499541 C0.228892829,12.6519837 0,12.8734746 0,13.1463231 L0,14.1726819 C0,15.7342369 1.31549184,17 2.9381916,17 L11.1758574,17 C12.3350859,17 13.3859204,16.3441752 13.8586538,15.32567 L17.0426117,8.46536447 C17.5153451,7.44685931 18.5661796,6.79094623 19.7254998,6.79094623 L19.9088158,6.79094623 L19.9088158,13.4318787 L22.2069145,13.4318787 L24,2.68003987 C24,1.43342556 23.1610931,0.37609331 21.9972795,0 Z M19.9088158,17 L22.2070062,17 L22.2070062,14.6212231 L19.9088158,14.6212231 L19.9088158,17 Z" id="Fill-1"></path>
            </g>
        </g>
    </g>
</svg>