<?xml version="1.0" encoding="UTF-8"?>
<svg width="320px" height="136px" viewBox="0 0 320 136" version="1.1" xmlns="http://www.w3.org/2000/svg" xmlns:xlink="http://www.w3.org/1999/xlink">
    <!-- Generator: Sketch 52.6 (67491) - http://www.bohemiancoding.com/sketch -->
    <title>Desktop HD</title>
    <desc>Created with Sketch.</desc>
    <g id="Project-Bola-Widget" stroke="none" stroke-width="1" fill="none" fill-rule="evenodd">
        <g id="Desktop-HD" transform="translate(-560.000000, -444.000000)">
            <g id="Group" transform="translate(510.000000, 410.000000)">
                <g id="lines-deco" transform="translate(301.000000, 0.000000)">
                    <polygon id="Fill-1" fill="#1A1A1A" points="57 49.2051472 57 60 158 29.7949338 158 19"></polygon>
                    <polygon id="Fill-2" fill="#1A1A1A" points="11 72 38 63.999509 38 58 11 66.000491"></polygon>
                    <polygon id="Fill-3" fill="#1A1A1A" points="32 53 30 53.5011536 30 55 32 54.4988464"></polygon>
                    <polygon id="Fill-4" fill="#1A1A1A" points="32 69 30 69.501172 30 71 32 70.4989013"></polygon>
                    <polygon id="Fill-5" fill="#1A1A1A" points="34 66 32 66.501172 32 68 34 67.4989013"></polygon>
                    <polygon id="Fill-6" fill="#1A1A1A" points="33 45 31 45.5011903 31 47 33 46.4989562"></polygon>
                    <polygon id="Fill-7" fill="#B3B3B3" points="46 38 42 39.2527299 42 43 46 41.7470926"></polygon>
                    <polygon id="Fill-8" fill="#FFFFFF" points="28 57 22 59.4544637 22 61 28 58.5456335"></polygon>
                    <polygon id="Fill-9" fill="#000000" points="20 49 14 51.4542317 14 53 20 50.5454766"></polygon>
                    <polygon id="Fill-10" fill="#000000" points="48 53 42 55.4542317 42 57 48 54.5456711"></polygon>
                    <polygon id="Fill-11" fill="#CCCCCC" points="37 59 31 61.4542693 31 63 37 60.5454391"></polygon>
                    <polygon id="Fill-13" fill="#B3B3B3" points="92 52 57 62.6743075 57 68 92 57.3256089"></polygon>
                    <polygon id="Fill-14" fill="#B3B3B3" points="0 74.6715067 0 78 23 71.3284933 23 68"></polygon>
                    <polygon id="Fill-17" fill="#1A1A1A" points="37 65 58 58.6856553 58 56 37 62.3141831"></polygon>
                    <polygon id="Fill-18" fill="#000000" points="16 57 40 49.8385687 40 48 16 55.1614313"></polygon>
                    <polygon id="Fill-19" fill="#1A1A1A" points="52 46 80 38.0016919 80 33 52 40.9983081"></polygon>
                    <polygon id="Fill-20" fill="#000000" points="59 39 124 19.8461324 124 15 59 34.153629"></polygon>
                    <polygon id="Fill-22" fill="#000000" points="88 32 37 47.5759814 37 51 88 35.4239355"></polygon>
                </g>
                <g id="lines-deco" transform="translate(0.000000, 107.000000)">
                    <polygon id="Fill-1" fill="#1A1A1A" points="57 49.2051472 57 60 158 29.7949338 158 19"></polygon>
                    <polygon id="Fill-12" fill="#000000" points="96 39 128 29.1847688 128 23 96 32.8153129"></polygon>
                    <polygon id="Fill-13" fill="#B3B3B3" points="92 52 57 62.6743075 57 68 92 57.3256089"></polygon>
                    <polygon id="Fill-15" fill="#1A1A1A" points="94 52 115 45.6856553 115 43 94 49.3143447"></polygon>
                    <polygon id="Fill-16" fill="#CCCCCC" points="69 52 90 45.6858169 90 43 69 49.3143447"></polygon>
                    <polygon id="Fill-17" fill="#1A1A1A" points="37 65 58 58.6856553 58 56 37 62.3141831"></polygon>
                    <polygon id="Fill-19" fill="#1A1A1A" points="52 46 80 38.0016919 80 33 52 40.9983081"></polygon>
                    <polygon id="Fill-20" fill="#000000" points="59 39 124 19.8461324 124 15 59 34.153629"></polygon>
                    <polygon id="Fill-21" fill="#B3B3B3" points="96 39 128 29.1847688 128 23 96 32.8153129"></polygon>
                    <polygon id="Fill-22" fill="#000000" points="88 32 37 47.5759814 37 51 88 35.4239355"></polygon>
                    <polygon id="Fill-23" fill="#000000" points="105.034317 7.86005687 105 10 132.965602 2.14002555 133 0"></polygon>
                </g>
            </g>
        </g>
    </g>
</svg>