<?xml version="1.0" encoding="UTF-8"?>
<svg width="18px" height="18px" viewBox="0 0 18 18" version="1.1" xmlns="http://www.w3.org/2000/svg" xmlns:xlink="http://www.w3.org/1999/xlink">
    <!-- Generator: Sketch 50.2 (55047) - http://www.bohemiancoding.com/sketch -->
    <title>feedback positif</title>
    <desc>Created with Sketch.</desc>
    <defs>
        <polygon id="path-1" points="6.42857143e-05 0.0707142857 17.9289643 0.0707142857 17.9289643 18 6.42857143e-05 18"></polygon>
    </defs>
    <g id="WAP" stroke="none" stroke-width="1" fill="none" fill-rule="evenodd">
        <g id="PROFILE---JUAL-BELI-EXPAND" transform="translate(-25.000000, -786.000000)">
            <g id="Group-11" transform="translate(0.000000, 665.000000)">
                <g id="Group-10" transform="translate(10.000000, 13.000000)">
                    <g id="Group" transform="translate(0.000000, 55.000000)">
                        <g id="feedback-positif" transform="translate(15.000000, 52.000000)">
                            <g id="Group-3" transform="translate(0.000000, 0.929382)">
                                <mask id="mask-2" fill="white">
                                    <use xlink:href="#path-1"></use>
                                </mask>
                                <g id="Clip-2"></g>
                                <path d="M17.9290286,9.03545357 C17.9290286,13.9860964 13.9156714,18.0000964 8.96438571,18.0000964 C4.01342143,18.0000964 6.42857143e-05,13.9860964 6.42857143e-05,9.03545357 C6.42857143e-05,4.08416786 4.01342143,0.0704892857 8.96438571,0.0704892857 C13.9156714,0.0704892857 17.9290286,4.08416786 17.9290286,9.03545357" id="Fill-1" fill="#57CD81" mask="url(#mask-2)"></path>
                            </g>
                            <path d="M8.73048214,8.07927143 C8.73048214,9.73141429 7.60966071,11.0711286 6.226875,11.0711286 C4.84473214,11.0711286 3.72358929,9.73141429 3.72358929,8.07927143 C3.72358929,6.42648571 4.84473214,5.08677143 6.226875,5.08677143 C7.60966071,5.08677143 8.73048214,6.42648571 8.73048214,8.07927143" id="Fill-4" fill="#FFFFFF"></path>
                            <path d="M8.36717143,7.96754286 C8.36717143,9.17547143 7.54817143,10.1548643 6.5376,10.1548643 C5.52735,10.1548643 4.70802857,9.17547143 4.70802857,7.96754286 C4.70802857,6.75993571 5.52735,5.78086429 6.5376,5.78086429 C7.54817143,5.78086429 8.36717143,6.75993571 8.36717143,7.96754286" id="Fill-6" fill="#231F20"></path>
                            <path d="M9.564525,8.07927143 C9.564525,9.73141429 10.6853464,11.0711286 12.0678107,11.0711286 C13.450275,11.0711286 14.5710964,9.73141429 14.5710964,8.07927143 C14.5710964,6.42648571 13.450275,5.08677143 12.0678107,5.08677143 C10.6853464,5.08677143 9.564525,6.42648571 9.564525,8.07927143" id="Fill-8" fill="#FFFFFF"></path>
                            <path d="M9.92783571,7.96754286 C9.92783571,9.17547143 10.7468357,10.1548643 11.7570857,10.1548643 C12.7676571,10.1548643 13.5869786,9.17547143 13.5869786,7.96754286 C13.5869786,6.75993571 12.7676571,5.78086429 11.7570857,5.78086429 C10.7468357,5.78086429 9.92783571,6.75993571 9.92783571,7.96754286" id="Fill-10" fill="#231F20"></path>
                            <path d="M10.3263429,7.33394286 C10.3263429,7.86140714 10.6840929,8.28922857 11.1254143,8.28922857 C11.5670571,8.28922857 11.9251286,7.86140714 11.9251286,7.33394286 C11.9251286,6.80615714 11.5670571,6.37833571 11.1254143,6.37833571 C10.6840929,6.37833571 10.3263429,6.80615714 10.3263429,7.33394286" id="Fill-12" fill="#F1F2F2"></path>
                            <path d="M5.42799643,7.33394286 C5.42799643,7.86140714 5.785425,8.28922857 6.22706786,8.28922857 C6.66838929,8.28922857 7.02646071,7.86140714 7.02646071,7.33394286 C7.02646071,6.80615714 6.66838929,6.37833571 6.22706786,6.37833571 C5.785425,6.37833571 5.42799643,6.80615714 5.42799643,7.33394286" id="Fill-14" fill="#F1F2F2"></path>
                            <path d="M2.44035,12.4151179 C2.44035,12.4151179 2.47474286,12.4704036 2.53999286,12.5687607 C2.60556429,12.6674393 2.71163571,12.8056536 2.84599286,12.9766536 C2.98356429,13.1454036 3.15970714,13.3411536 3.37056429,13.5504036 C3.47856429,13.6529393 3.58817143,13.7651179 3.71995714,13.8663679 C3.84627857,13.9724393 3.97452857,14.086225 4.12399286,14.1868321 C4.19631429,14.2389036 4.26992143,14.2922607 4.34513571,14.3465821 C4.42452857,14.3941536 4.50552857,14.4426893 4.58813571,14.4918679 C4.74724286,14.5963321 4.92370714,14.6850464 5.10467143,14.7734393 C5.46370714,14.9540821 5.86099286,15.1025821 6.28077857,15.2211893 C6.70088571,15.3375464 7.14413571,15.4285107 7.60442143,15.4725464 C7.71885,15.4850821 7.83295714,15.503725 7.94899286,15.5120821 L8.30095714,15.5223679 L8.65388571,15.5361893 L8.74195714,15.5400464 L8.76413571,15.5410107 C8.77185,15.5410107 8.71527857,15.541975 8.74195714,15.5413321 L8.74806429,15.5410107 L8.75963571,15.5403679 L8.80688571,15.5377964 L8.99524286,15.5281536 C9.24177857,15.5136893 9.50888571,15.5169036 9.73774286,15.4892607 C9.96113571,15.4561536 10.1851714,15.4326893 10.4079214,15.406975 C10.6329214,15.3568321 10.8576,15.3105464 11.0806714,15.2677964 C11.3002071,15.2128321 11.5120286,15.1408321 11.7264214,15.085225 C11.9376,15.0202964 12.1352786,14.9306179 12.3384214,14.862475 C12.5380286,14.7856536 12.7218857,14.6866536 12.9108857,14.6062964 C13.0960286,14.5188679 13.2654214,14.4140821 13.4396357,14.3260107 C13.6087071,14.2308679 13.7652429,14.1270464 13.9211357,14.0328679 C14.2197429,13.8271536 14.4907071,13.6285107 14.7250286,13.4398321 C14.9519571,13.244725 15.1522071,13.071475 15.3097071,12.918475 C15.4627071,12.763225 15.5877429,12.6414036 15.6664929,12.5523679 C15.7458857,12.4626893 15.7879929,12.4151179 15.7879929,12.4151179 C15.7879929,12.4151179 15.7159929,12.6635821 15.4990286,13.0618321 C15.4418143,13.1598679 15.3784929,13.2685107 15.3097071,13.386475 C15.2361,13.5021893 15.1489929,13.6217607 15.0580286,13.7529036 C14.95935,13.8782607 14.8542429,14.0113321 14.74335,14.1517964 C14.6237786,14.284225 14.4945643,14.4224393 14.3557071,14.5635464 C14.2104214,14.695975 14.0622429,14.8412607 13.8989571,14.9804393 C13.7302071,15.1115821 13.5563143,15.251725 13.3679571,15.3812607 C13.1747786,15.5027607 12.9780643,15.6355107 12.7662429,15.751225 C12.55185,15.8601893 12.3326357,15.9768679 12.10185,16.0758679 C11.86785,16.1668321 11.62935,16.2626179 11.3834571,16.3436179 C11.13435,16.4133679 10.8807429,16.4808679 10.6239214,16.545475 C10.3561714,16.5888679 10.0855286,16.6348321 9.81295714,16.671475 C9.54456429,16.7045821 9.30606429,16.7039393 9.05085,16.720975 L8.86217143,16.7283679 L8.81524286,16.729975 L8.76381429,16.7315821 L8.73874286,16.7302964 L8.63877857,16.7251536 L8.23924286,16.7042607 L7.84163571,16.6801536 C7.70985,16.6650464 7.57838571,16.6390107 7.44788571,16.6190821 C7.18624286,16.5753679 6.92652857,16.540975 6.67645714,16.4586893 C6.42638571,16.3828321 6.17438571,16.3310821 5.94199286,16.2217964 C5.46788571,16.0401893 5.02977857,15.8094036 4.64856429,15.5445464 C4.4586,15.4101893 4.27281429,15.2841893 4.11499286,15.1318321 C4.03463571,15.0591893 3.95524286,14.9878321 3.87777857,14.9180821 C3.8061,14.8419036 3.73570714,14.7670107 3.66692143,14.6940464 C3.3876,14.407975 3.1806,14.1032607 3.01281429,13.8313321 C2.84149286,13.5606893 2.72867143,13.3048321 2.64156429,13.0955821 C2.47217143,12.6729036 2.44035,12.4151179 2.44035,12.4151179" id="Fill-16" fill="#366942"></path>
                        </g>
                    </g>
                </g>
            </g>
        </g>
    </g>
</svg>