<?xml version="1.0" encoding="UTF-8"?>
<svg width="16px" height="15px" viewBox="0 0 16 15" version="1.1" xmlns="http://www.w3.org/2000/svg" xmlns:xlink="http://www.w3.org/1999/xlink">
    <!-- Generator: Sketch 50.2 (55047) - http://www.bohemiancoding.com/sketch -->
    <title>podcast list image off</title>
    <desc>Created with Sketch.</desc>
    <defs></defs>
    <g id="00-CHANNEL" stroke="none" stroke-width="1" fill="none" fill-rule="evenodd">
        <g id="13-Home-Landing-video-image-off" transform="translate(-11.000000, -433.000000)" fill="#1998ED">
            <g id="podcast-list-image-off" transform="translate(11.000000, 433.000000)">
                <path d="M10.7491477,4.45694517 C10.3724933,4.0852592 9.92707204,3.81021158 9.41210256,3.63141107 C8.89713309,3.4530018 8.33254212,3.36379717 7.71872039,3.36379717 C7.10450794,3.36379717 6.53991697,3.4530018 6.02533822,3.63141107 C5.51036874,3.81021158 5.06455678,4.0852592 4.68829304,4.45694517 C4.31163858,4.82863115 4.01742613,5.30751918 3.80448352,5.89243552 C3.69078388,6.20386924 3.60990476,6.55208031 3.55715751,6.9304175 L6.33244444,6.9304175 C6.59735287,6.9304175 6.81224908,7.14599537 6.81224908,7.41165302 C6.81224908,7.67691943 6.59735287,7.89210605 6.33244444,7.89210605 L3.48878144,7.89210605 C3.48839072,7.93044839 3.48487424,7.96605199 3.48487424,8.00439434 L3.48487424,8.85340335 L6.33244444,8.85340335 C6.59735287,8.85340335 6.81224908,9.06898121 6.81224908,9.33463887 C6.81224908,9.60029653 6.59735287,9.81509189 6.33244444,9.81509189 L3.48487424,9.81509189 L3.48487424,10.0126723 C3.48487424,10.28146 3.50089377,10.5326414 3.524337,10.7767804 L6.33244444,10.7767804 C6.59735287,10.7767804 6.81224908,10.9919671 6.81224908,11.2576247 C6.81224908,11.5232824 6.59735287,11.7380777 6.33244444,11.7380777 L3.69000244,11.7380777 C3.72477656,11.8683634 3.76072283,11.9966929 3.80448352,12.1175887 C4.01742613,12.7079825 4.31163858,13.1884355 4.68829304,13.5605127 C5.06455678,13.93259 5.51036874,14.2076376 6.02533822,14.3860468 C6.53991697,14.5644561 7.10450794,14.6536607 7.71872039,14.6536607 C8.33254212,14.6536607 8.89713309,14.5644561 9.41210256,14.3860468 C9.92707204,14.2076376 10.3724933,13.93259 10.7491477,13.5605127 C11.1254115,13.1884355 11.4200147,12.7079825 11.6329573,12.1175887 C11.8458999,11.5275861 11.9521758,10.8260777 11.9521758,10.0126723 L11.9521758,8.00439434 C11.9521758,7.18199022 11.8458999,6.47774311 11.6329573,5.89243552 C11.4200147,5.30751918 11.1254115,4.82863115 10.7491477,4.45694517" id="Fill-1"></path>
                <path d="M13.8037607,5.95010553 C13.7596093,5.15195882 13.6252015,4.42345431 13.393895,3.78611068 C13.0844444,2.93749292 12.6343346,2.21720463 12.0548962,1.64519949 C11.4746764,1.07162934 10.7823199,0.642821107 9.99697192,0.370120978 C9.28742369,0.124416988 8.51496947,0 7.6991453,0 C6.88371184,0 6.11086691,0.124416988 5.40210012,0.370120978 C4.61714286,0.642429858 3.9243956,1.0712381 3.3437851,1.64519949 C2.76473748,2.21720463 2.31423687,2.93788417 2.00517705,3.78689318 C1.91335775,4.03729215 1.83521368,4.30960103 1.76761905,4.61790476 L1.6402442,5.41331274 L1.63242979,5.41487773 L1.5367033,5.94345431 C1.5367033,5.94345431 0,6.23180438 0,8.20252252 C0,10.1732407 1.39213675,10.4134672 1.39213675,10.4134672 L1.6804884,10.8461879 L2.35213675,10.8461879 L2.35213675,5.82216731 L2.5217094,4.76227542 C2.57758242,4.50874646 2.64673993,4.26930245 2.72605617,4.05020335 C2.99643468,3.30878764 3.38481074,2.68396396 3.88258852,2.19255598 C4.38192918,1.69997426 4.97738706,1.33102703 5.65372405,1.09706049 C6.281221,0.879526384 6.96967033,0.769194337 7.6991453,0.769194337 C8.42901099,0.769194337 9.11746032,0.879526384 9.74573871,1.09706049 C10.421685,1.33141828 11.0175336,1.69997426 11.5160928,2.19255598 C12.0130891,2.68396396 12.4022466,3.30878764 12.6722344,4.0498121 C12.8074237,4.42110682 12.9047131,4.83152638 12.9684005,5.27207207 L12.9601954,5.27050708 L12.9601954,10.8461879 L13.6326252,10.8461879 L13.9201954,10.4134672 C13.9201954,10.4134672 15.3123321,10.1732407 15.3123321,8.20252252 C15.3123321,6.38126126 14.0030281,5.99783784 13.8037607,5.95010553" id="Fill-3"></path>
            </g>
        </g>
    </g>
</svg>