<?xml version="1.0" encoding="UTF-8"?>
<svg width="16px" height="16px" viewBox="0 0 16 16" version="1.1" xmlns="http://www.w3.org/2000/svg" xmlns:xlink="http://www.w3.org/1999/xlink">
    <!-- Generator: sketchtool 50.2 (55047) - http://www.bohemiancoding.com/sketch -->
    <title>EEDD933B-E261-4224-8A9D-1FE5FE3BA715</title>
    <desc>Created with sketchtool.</desc>
    <defs>
        <polygon id="path-1" points="0.000192 6.4e-05 16 6.4e-05 16 16 0.000192 16"></polygon>
    </defs>
    <g id="Symbols" stroke="none" stroke-width="1" fill="none" fill-rule="evenodd">
        <g id="icon/title/group">
            <g id="Page-1">
                <g id="Group-14">
                    <g id="Group-3">
                        <mask id="mask-2" fill="white">
                            <use xlink:href="#path-1"></use>
                        </mask>
                        <g id="Clip-2"></g>
                        <path d="M16.000192,8.000064 C16.000192,12.417984 12.418112,16.000064 8.000192,16.000064 C3.581632,16.000064 0.000192,12.417984 0.000192,8.000064 C0.000192,3.581504 3.581632,6.4e-05 8.000192,6.4e-05 C12.418112,6.4e-05 16.000192,3.581504 16.000192,8.000064" id="Fill-1" fill="#1998ED" mask="url(#mask-2)"></path>
                    </g>
                </g>
            </g>
            <path d="M6.08846077,8.5 C5.52583161,8.51671429 5.06586228,8.731 4.70855276,9.14285714 L4.01059929,9.14285714 C3.7257294,9.14285714 3.48618981,9.07514286 3.29198053,8.93971429 C3.09777126,8.80428571 3.00044441,8.60585714 3,8.34442857 C3,7.16242857 3.21531898,6.57142857 3.64595694,6.57142857 C3.66684443,6.57142857 3.74239495,6.60657143 3.87260849,6.67685714 C4.00282203,6.74714286 4.17214408,6.81828571 4.38057463,6.89028571 C4.58900518,6.96228571 4.79565807,6.99828571 5.0005333,6.99828571 C5.23296225,6.99828571 5.46383574,6.95971429 5.69315379,6.88257143 C5.67582161,7.00642857 5.66715552,7.117 5.66715552,7.21428571 C5.66715552,7.67971429 5.80781281,8.10828571 6.08912739,8.5 L6.08846077,8.5 Z M11.6660889,11.6995 C11.6660889,12.1010714 11.5394307,12.4182143 11.2861143,12.6509286 C11.0327978,12.8836429 10.6959314,13 10.275515,13 L5.72381841,13 C5.30384641,13 4.96697998,12.8836429 4.71321912,12.6509286 C4.45945826,12.4182143 4.33280004,12.1010714 4.33324445,11.6995 C4.33324445,11.5220714 4.33924405,11.3487143 4.35124325,11.1794286 C4.36324245,11.0101429 4.38746306,10.8275714 4.42390507,10.6317143 C4.46034709,10.4358571 4.50634402,10.2541429 4.56189587,10.0865714 C4.61744773,9.919 4.69210941,9.75571429 4.78588094,9.59671429 C4.87965247,9.43771429 4.98720085,9.30207143 5.1085261,9.18978571 C5.22985134,9.0775 5.37828589,8.98792857 5.55382974,8.92107143 C5.7293736,8.85421429 5.92291625,8.82078571 6.1344577,8.82078571 C6.16912206,8.82078571 6.24378375,8.85678571 6.35844277,8.92878571 C6.47310179,9.00078571 6.59976002,9.08114286 6.73841744,9.16985714 C6.87707486,9.25857143 7.06284026,9.33892857 7.29571362,9.41092857 C7.52858698,9.48292857 7.7630158,9.51892857 7.99900007,9.51892857 C8.23498433,9.51892857 8.46941315,9.48292857 8.70228651,9.41092857 C8.93515988,9.33892857 9.12092527,9.25857143 9.25958269,9.16985714 C9.39824012,9.08114286 9.52489834,9.00078571 9.63955736,8.92878571 C9.75421639,8.85678571 9.82887807,8.82078571 9.86354243,8.82078571 C10.0755283,8.82078571 10.269071,8.85421429 10.4441704,8.92107143 C10.6192698,8.98792857 10.7677044,9.0775 10.889474,9.18978571 C11.0112437,9.30207143 11.1187921,9.43771429 11.2121192,9.59671429 C11.3054463,9.75571429 11.380108,9.919 11.4361043,10.0865714 C11.4921005,10.2541429 11.5380975,10.4358571 11.5740951,10.6317143 C11.6100927,10.8275714 11.6343133,11.0101429 11.6467569,11.1794286 C11.6592005,11.3487143 11.6652001,11.5220714 11.6647557,11.6995 L11.6660889,11.6995 Z M6.33311113,5.28571429 C6.33311113,5.64057143 6.20289758,5.94357143 5.9424705,6.19471429 C5.68204342,6.44585714 5.36784214,6.57142857 4.99986668,6.57142857 C4.63189121,6.57142857 4.31768993,6.44585714 4.05726285,6.19471429 C3.79683577,5.94357143 3.66662223,5.64057143 3.66662223,5.28571429 C3.66662223,4.93085714 3.79683577,4.62785714 4.05726285,4.37671429 C4.31768993,4.12557143 4.63189121,4 4.99986668,4 C5.36784214,4 5.68204342,4.12557143 5.9424705,4.37671429 C6.20289758,4.62785714 6.33311113,4.93085714 6.33311113,5.28571429 Z M9.99953336,7.21428571 C9.99953336,7.74657143 9.80421305,8.20107143 9.41357243,8.57778571 C9.0229318,8.9545 8.55162989,9.14285714 7.99966669,9.14285714 C7.44770349,9.14285714 6.97640157,8.9545 6.58576095,8.57778571 C6.19512033,8.20107143 5.99980001,7.74657143 5.99980001,7.21428571 C5.99980001,6.682 6.19512033,6.2275 6.58576095,5.85078571 C6.97640157,5.47407143 7.44770349,5.28571429 7.99966669,5.28571429 C8.55162989,5.28571429 9.0229318,5.47407143 9.41357243,5.85078571 C9.80421305,6.2275 9.99953336,6.682 9.99953336,7.21428571 Z M12.9993334,8.34442857 C12.9993334,8.60542857 12.9020065,8.80385714 12.7073528,8.93971429 C12.5126992,9.07557143 12.2731596,9.14328571 11.9887341,9.14285714 L11.2907806,9.14285714 C10.9330267,8.731 10.4730574,8.51671429 9.91087261,8.5 C10.1921872,8.10828571 10.3328445,7.67971429 10.3328445,7.21428571 C10.3328445,7.117 10.3241784,7.00642857 10.3068462,6.88257143 C10.5361643,6.95971429 10.7670378,6.99828571 10.9994667,6.99828571 C11.2043419,6.99828571 11.4109948,6.96228571 11.6194254,6.89028571 C11.8278559,6.81828571 11.997178,6.74714286 12.1273915,6.67685714 C12.257605,6.60657143 12.3331556,6.57142857 12.3540431,6.57142857 C12.784681,6.57142857 13,7.16242857 13,8.34442857 L12.9993334,8.34442857 Z M12.3327112,5.28571429 C12.3327112,5.64057143 12.2024976,5.94357143 11.9420705,6.19471429 C11.6816434,6.44585714 11.3674422,6.57142857 10.9994667,6.57142857 C10.6314912,6.57142857 10.31729,6.44585714 10.0568629,6.19471429 C9.79643579,5.94357143 9.66622225,5.64057143 9.66622225,5.28571429 C9.66622225,4.93085714 9.79643579,4.62785714 10.0568629,4.37671429 C10.31729,4.12557143 10.6314912,4 10.9994667,4 C11.3674422,4 11.6816434,4.12557143 11.9420705,4.37671429 C12.2024976,4.62785714 12.3327112,4.93085714 12.3327112,5.28571429 Z" id="Shape" fill="#FFFFFF" fill-rule="nonzero"></path>
        </g>
    </g>
</svg>