<svg xmlns="http://www.w3.org/2000/svg" width="20" height="20" viewBox="0 0 20 20">
    <g fill="none" fill-rule="evenodd">
        <path fill="#DC3F4D" d="M20 10c0 5.523-4.478 10-10 10-5.523 0-10-4.477-10-10C0 4.478 4.477 0 10 0c5.522 0 10 4.478 10 10"/>
        <path fill="#FFF" d="M15.037 5.77c1.533 1.345 1.614 3.76.24 5.22l-4.725 5.017a.75.75 0 0 1-1.106 0L4.722 10.99C3.35 9.53 3.43 7.115 4.964 5.77c1.338-1.173 3.33-.963 4.555.34l.481.51.481-.51c1.228-1.303 3.218-1.513 4.556-.34z"/>
    </g>
</svg>
