<svg xmlns="http://www.w3.org/2000/svg" width="20" height="20" viewBox="0 0 20 20">
    <g fill="none" fill-rule="evenodd">
        <path fill="#50AE5E" d="M15 .297L13.556 3 13 0M19 2.667L16 4l1.599-3M19.887 7L17 5.835 20 5M2.612 13.365c1.341-1.1 3.364-1.147 6.068-.143 2.703 1.003 4.786.262 6.248-2.224.387 5.925-1.745 8.888-6.398 8.888-4.652 0-6.625-2.174-5.918-6.521z"/>
        <path fill="#50AE5E" d="M2.612 10.365c1.341-1.1 3.364-1.147 6.068-.143 2.703 1.003 4.786.262 6.248-2.224.387 5.925-1.745 8.888-6.398 8.888-4.652 0-6.625-2.174-5.918-6.521z"/>
        <path fill="#50AE5E" d="M2.905 5.941v9.817c0 1.82 1.424 3.3 3.174 3.3h4.841c1.75 0 3.175-1.48 3.175-3.3V5.941H2.905zM10.92 20H6.08C3.83 20 2 18.097 2 15.758V5h13v10.758C15 18.098 13.17 20 10.92 20z"/>
        <path stroke="#50AE5E" d="M14.937 9.015c1.488.086 2.232 1.06 2.232 2.923 0 1.862-.744 2.875-2.232 3.037"/>
    </g>
</svg>
