<?xml version="1.0" encoding="UTF-8"?>
<svg width="20px" height="20px" viewBox="0 0 20 20" version="1.1" xmlns="http://www.w3.org/2000/svg" xmlns:xlink="http://www.w3.org/1999/xlink">
    <!-- Generator: Sketch 50.2 (55047) - http://www.bohemiancoding.com/sketch -->
    <title>poin</title>
    <desc>Created with Sketch.</desc>
    <defs></defs>
    <g id="poin" stroke="none" stroke-width="1" fill="none" fill-rule="evenodd">
        <g id="Group-2" transform="translate(1.000000, 1.000000)" fill="#B3B3B3">
            <path d="M9,1.125 C4.65774166,1.125 1.125,4.65774166 1.125,9 C1.125,13.3423037 4.65774166,16.875 9,16.875 C13.3422583,16.875 16.875,13.3423037 16.875,9 C16.875,4.65774166 13.3422583,1.125 9,1.125 M9,18 C4.03737097,18 0,13.962629 0,9 C0,4.03737097 4.03737097,0 9,0 C13.962629,0 18,4.03737097 18,9 C18,13.962629 13.962629,18 9,18" id="Fill-6"></path>
            <path d="M5.28320312,8.84082031 L5.28320312,11.3984375 L4,11.3984375 L4,5 L6.21484375,5 C6.94433958,5 7.51489052,5.1662581 7.92651367,5.4987793 C8.33813682,5.83130049 8.54394531,6.2949189 8.54394531,6.88964844 C8.54394531,7.21777508 8.45678798,7.50121951 8.2824707,7.73999023 C8.10815343,7.97876096 7.85400558,8.17138599 7.52001953,8.31787109 C7.89795111,8.42919978 8.16967691,8.61523307 8.33520508,8.87597656 C8.50073325,9.13672005 8.58349609,9.45898246 8.58349609,9.84277344 L8.58349609,10.3129883 C8.58349609,10.4917001 8.60766577,10.6784658 8.65600586,10.873291 C8.70434594,11.0681162 8.78710879,11.2124019 8.90429688,11.3061523 L8.90429688,11.3984375 L7.58154297,11.3984375 C7.46435488,11.304687 7.38891618,11.1494151 7.35522461,10.9326172 C7.32153303,10.7158192 7.3046875,10.5063487 7.3046875,10.3041992 L7.3046875,9.8515625 C7.3046875,9.53222497 7.21753017,9.28393643 7.04321289,9.10668945 C6.86889561,8.92944247 6.62207191,8.84082031 6.30273438,8.84082031 L5.28320312,8.84082031 Z M5.28320312,7.85205078 L6.19287109,7.85205078 C6.55322446,7.85205078 6.82128818,7.77587967 6.99707031,7.62353516 C7.17285244,7.47119064 7.26074219,7.24560696 7.26074219,6.94677734 C7.26074219,6.65380713 7.17212003,6.4208993 6.99487305,6.24804688 C6.81762607,6.07519445 6.5576189,5.98876953 6.21484375,5.98876953 L5.28320312,5.98876953 L5.28320312,7.85205078 Z M13.9272461,9.15283203 C13.9272461,9.85596055 13.7646501,10.4213846 13.4394531,10.8491211 C13.1142562,11.2768576 12.6601592,11.4907227 12.0771484,11.4907227 C11.8281238,11.4907227 11.6069346,11.4445805 11.4135742,11.3522949 C11.2202139,11.2600093 11.0546882,11.1245126 10.9169922,10.9458008 L10.9169922,13.2265625 L9.63818359,13.2265625 L9.63818359,6.64355469 L10.7939453,6.64355469 L10.8686523,7.20605469 C11.009278,6.99804583 11.1784658,6.83764705 11.3762207,6.72485352 C11.5739756,6.61205998 11.8046862,6.55566406 12.0683594,6.55566406 C12.6572295,6.55566406 13.1142562,6.78564223 13.4394531,7.24560547 C13.7646501,7.70556871 13.9272461,8.31054312 13.9272461,9.06054688 L13.9272461,9.15283203 Z M12.644043,9.06054688 C12.644043,8.61230245 12.5693367,8.24902483 12.4199219,7.97070312 C12.2705071,7.69238142 12.0419937,7.55322266 11.734375,7.55322266 C11.5410147,7.55322266 11.3762214,7.59277304 11.2399902,7.671875 C11.1037591,7.75097696 10.9960941,7.8637688 10.9169922,8.01025391 L10.9169922,10.0932617 C10.9960941,10.228028 11.1037591,10.3305661 11.2399902,10.4008789 C11.3762214,10.4711918 11.5439443,10.5063477 11.7431641,10.5063477 C12.0537125,10.5063477 12.2814934,10.3847668 12.4265137,10.1416016 C12.5715339,9.89843628 12.644043,9.56884974 12.644043,9.15283203 L12.644043,9.06054688 Z" id="Rp"></path>
        </g>
    </g>
</svg>