<?xml version="1.0" encoding="UTF-8" standalone="no"?>
<svg xmlns="http://www.w3.org/2000/svg" height="59px" width="182px" version="1.1" xmlns:xlink="http://www.w3.org/1999/xlink" viewBox="0 0 182 59"><!-- Generator: Sketch 52.6 (67491) - http://www.bohemiancoding.com/sketch -->
 <title>kunci amarah</title>
 <desc>Created with Sketch.</desc>
 <g id="Page-1" fill-rule="evenodd" fill="none">
  <g id="edit-asset" transform="translate(-996 -838)">
   <g id="kunci-amarah" transform="translate(996 838)">
    <path id="kunci-amarah-gan.." fill="#4F52A3" d="m6.7637 17.285v3.965c0 1.167-0.875 1.75-2.625 1.75-1.7318 0-2.6068-0.57-2.625-1.709v-15.832c0.0182-1.1393 0.8932-1.709 2.625-1.709 1.75 0 2.625 0.5833 2.625 1.75v5.715c0.9023-1.8231 2.0143-3.5457 3.3363-5.1681 1.476-1.6953 3.235-2.4518 5.277-2.2696 1.167 0.3464 1.791 1.1029 1.873 2.2696 0.082 1.1666-0.387 1.9095-1.408 2.2285s-2.88 2.3106-5.578 5.9746c2.698 3.664 4.557 5.656 5.578 5.975s1.49 1.061 1.408 2.228-0.706 1.923-1.873 2.27c-2.042 0.182-3.801-0.575-5.277-2.27-1.322-1.622-2.434-3.345-3.3363-5.168zm21-3.035v-7c0-1.1667 0.875-1.75 2.625-1.75s2.625 0.5833 2.625 1.75v7c0 5.833-2.334 8.75-7 8.75-4.667 0-7-2.917-7-8.75v-8.791c0.018-1.1393 0.893-1.709 2.625-1.709 1.75 0 2.625 0.5833 2.625 1.75v8.75c0 2.333 0.583 3.5 1.75 3.5 1.166 0 1.75-1.167 1.75-3.5zm15.75-1.75c0-2.333-0.584-3.5-1.75-3.5-1.167 0-1.75 1.167-1.75 3.5v7c0 1.167-0.875 1.75-2.625 1.75-1.732 0-2.607-0.57-2.625-1.709v-7.041c0-5.8334 2.333-8.75 7-8.75 4.666 0 7 2.9166 7 8.75v8.75c0 1.167-0.875 1.75-2.625 1.75s-2.625-0.583-2.625-1.75v-8.75zm14.013 5.25c1.167 0 1.746-0.57 1.737-1.709 0-1.167 0.875-1.75 2.625-1.75 1.731 0 2.606 0.57 2.625 1.709v0.041c0.009 4.639-2.32 6.959-6.987 6.959v0.041h-0.013c-4.667 0-7-2.917-7-8.75v-1.75c0-5.8607 2.333-8.791 7-8.791h0.013v0.041c4.667 0 6.996 2.3197 6.987 6.959v0.041c-0.019 1.139-0.894 1.709-2.625 1.709-1.75 0-2.625-0.583-2.625-1.75 0.009-1.1393-0.57-1.709-1.737-1.709h-0.013v-0.082c-1.167 0-1.75 1.18-1.75 3.541v1.75c0 2.333 0.583 3.5 1.75 3.5h0.013zm13.987 1.75c0 1.167-0.875 1.75-2.625 1.75-1.732 0-2.607-0.57-2.625-1.709v-8.832c0.018-1.1393 0.893-1.709 2.625-1.709 1.75 0 2.625 0.5833 2.625 1.75v8.75zm-5.25-15.75c0-1.1667 0.583-1.75 1.75-1.75h1.75c1.166 0 1.75 0.5833 1.75 1.75v1.75c0 1.1667-0.584 1.75-1.75 1.75h-1.75c-1.167 0-1.75-0.5833-1.75-1.75v-1.75zm19.222 8.75h3.5c0-2.333-0.583-3.5-1.75-3.5-1.166 0-1.75 1.167-1.75 3.5zm8.75 8.75c0 1.167-0.875 1.75-2.625 1.75s-2.625-0.583-2.625-1.75v-3.5h-3.5v1.75c0 1.167-0.875 1.75-2.625 1.75-1.731 0-2.606-0.57-2.625-1.709v-7.041c0-5.8334 2.334-8.75 7-8.75 4.667 0 7 2.9166 7 8.75v8.75zm20.124 0.875c-0.58-1.75-0.87-4.958-0.87-9.625 0-2.333-0.59-3.5-1.75-3.5-1.17 0-1.75 1.167-1.75 3.5v8.75c0 1.167-0.88 1.75-2.63 1.75s-2.62-0.583-2.62-1.75v-8.75c0-2.333-0.59-3.5-1.75-3.5-1.17 0-1.75 1.167-1.75 3.5v7c0 1.167-0.88 1.75-2.629 1.75-1.731 0-2.606-0.57-2.625-1.709v-7.041c0-5.8334 2.334-8.75 7.004-8.75 1.8 0 3.26 0.4375 4.37 1.3125 1.11-0.875 2.57-1.3125 4.38-1.3125 4.66 0 7 2.9166 7 8.75 0 4.667 0.29 7.583 0.87 8.75s1.57 1.992 2.95 2.475c1.03 0.319 1.49 1.061 1.41 2.228s-0.7 1.923-1.87 2.27c-2.04 0.182-3.75-0.392-5.11-1.723-1.17-1.167-2.05-2.625-2.63-4.375zm11.38-9.625h3.5c0-2.333-0.59-3.5-1.75-3.5-1.17 0-1.75 1.167-1.75 3.5zm8.75 8.75c0 1.167-0.88 1.75-2.63 1.75s-2.62-0.583-2.62-1.75v-3.5h-3.5v1.75c0 1.167-0.88 1.75-2.63 1.75-1.73 0-2.61-0.57-2.62-1.709v-7.041c0-5.8334 2.33-8.75 7-8.75 4.66 0 7 2.9166 7 8.75v8.75zm7-13.057v2.9666c2.33 0 3.5-0.494 3.5-1.4832 0-0.989-1.17-1.4834-3.5-1.4834zm0 9.0916v3.965c0 1.167-0.88 1.75-2.63 1.75-1.73 0-2.61-0.57-2.62-1.709v-15.832c0.01-1.1302 0.88-1.6999 2.59-1.709h2.66c5.83 0 8.75 1.9733 8.75 5.9199 0 2.8621-1.53 4.6891-4.58 5.4821 2.34 3.09 3.97 4.781 4.9 5.073 1.03 0.319 1.49 1.061 1.41 2.228s-0.7 1.923-1.87 2.27c-2.04 0.182-3.8-0.575-5.28-2.27-1.32-1.622-2.43-3.345-3.33-5.168zm15.75-4.785h3.5c0-2.333-0.59-3.5-1.75-3.5-1.17 0-1.75 1.167-1.75 3.5zm8.75 8.75c0 1.167-0.88 1.75-2.63 1.75s-2.62-0.583-2.62-1.75v-3.5h-3.5v1.75c0 1.167-0.88 1.75-2.63 1.75-1.73 0-2.61-0.57-2.62-1.709v-7.041c0-5.8334 2.33-8.75 7-8.75 4.66 0 7 2.9166 7 8.75v8.75zm7-12.1c0.53-0.1003 1.12-0.1504 1.75-0.1504 4.66 0 7 2.917 7 8.75v3.5c0 1.167-0.88 1.75-2.63 1.75s-2.62-0.583-2.62-1.75v-3.5c0-2.333-0.59-3.5-1.75-3.5-1.17 0-1.75 1.167-1.75 3.5v1.75c0 1.167-0.88 1.75-2.63 1.75-1.73 0-2.61-0.57-2.62-1.709v-14.082c0.01-1.1393 0.89-1.709 2.62-1.709 1.75 0 2.63 0.5833 2.63 1.75v3.6504zm-102.36 38.641c-5.833 0-8.75-2.333-8.75-7s2.917-7 8.75-7h2.652c1.714 0.009 2.58 0.579 2.598 1.709v14c0 5.824-2.329 8.741-6.986 8.75h-0.014c-4.667 0-7-2.333-7-7 0.1-1.167 1.016-1.75 2.748-1.75 1.75 0 2.625 0.583 2.625 1.75-0.082 1.167 0.46 1.75 1.627 1.75h0.014c1.157-0.009 1.736-1.176 1.736-3.5v-1.709zm0-8.791c-2.333 0-3.5 0.583-3.5 1.75s1.167 1.75 3.5 1.75v-3.5zm12.25 3.5h3.5c0-2.333-0.583-3.5-1.75-3.5s-1.75 1.167-1.75 3.5zm8.75 8.75c0 1.167-0.875 1.75-2.625 1.75s-2.625-0.583-2.625-1.75v-3.5h-3.5v1.75c0 1.167-0.875 1.75-2.625 1.75-1.732 0-2.607-0.57-2.625-1.709v-7.041c0-5.833 2.333-8.75 7-8.75s7 2.917 7 8.75v8.75zm10.495-8.75c0-2.333-0.58-3.5-1.74-3.5-1.172 0-1.755 1.167-1.755 3.5v7c0 1.167-0.875 1.75-2.625 1.75-1.732 0-2.607-0.57-2.625-1.709v-7.041c0-5.833 2.333-8.75 7.005-8.75 4.66 0 7 2.917 7 8.75v8.75c0 1.167-0.88 1.75-2.63 1.75s-2.63-0.583-2.63-1.75v-8.75zm7 7c0-1.167 0.59-1.75 1.76-1.75h1.74c1.17 0 1.76 0.583 1.76 1.75v1.75c0 1.167-0.59 1.75-1.76 1.75h-1.74c-1.17 0-1.76-0.583-1.76-1.75v-1.75zm7 0c0-1.167 0.59-1.75 1.76-1.75h1.74c1.17 0 1.76 0.583 1.76 1.75v1.75c0 1.167-0.59 1.75-1.76 1.75h-1.74c-1.17 0-1.76-0.583-1.76-1.75v-1.75z"/>
    <path id="kunci-amarah-gan.." fill="#FFD278" d="m5.7637 15.285v3.965c0 1.167-0.875 1.75-2.625 1.75-1.7318 0-2.6068-0.57-2.625-1.709l-0.00003-15.832c0.01823-1.1393 0.89323-1.709 2.625-1.709 1.75 0 2.625 0.5833 2.625 1.75v5.7148c0.9023-1.8229 2.0143-3.5455 3.3359-5.1679 1.4764-1.6953 3.2354-2.4518 5.2774-2.2696 1.167 0.3464 1.791 1.1029 1.873 2.2696 0.082 1.1666-0.387 1.9095-1.408 2.2285s-2.88 2.3105-5.5783 5.9746c2.6983 3.664 4.5573 5.656 5.5783 5.975s1.49 1.061 1.408 2.228-0.706 1.923-1.873 2.27c-2.042 0.182-3.801-0.575-5.2774-2.27-1.3216-1.622-2.4336-3.345-3.3359-5.168zm21-3.035v-7c0-1.1667 0.875-1.75 2.625-1.75s2.625 0.5833 2.625 1.75v7c0 5.833-2.334 8.75-7 8.75-4.667 0-7-2.917-7-8.75v-8.791c0.018-1.1393 0.893-1.709 2.625-1.709 1.75 0 2.625 0.5833 2.625 1.75v8.75c0 2.333 0.583 3.5 1.75 3.5 1.166 0 1.75-1.167 1.75-3.5zm15.75-1.75c0-2.3333-0.584-3.5-1.75-3.5-1.167 0-1.75 1.1667-1.75 3.5v7c0 1.167-0.875 1.75-2.625 1.75-1.732 0-2.607-0.57-2.625-1.709v-7.041c0-5.8334 2.333-8.75 7-8.75 4.666 0 7 2.9166 7 8.75v8.75c0 1.167-0.875 1.75-2.625 1.75s-2.625-0.583-2.625-1.75v-8.75zm14.013 5.25c1.167 0 1.746-0.57 1.737-1.709 0-1.167 0.875-1.75 2.625-1.75 1.731 0 2.606 0.57 2.625 1.709v0.041c0.009 4.639-2.32 6.959-6.987 6.959v0.041h-0.013c-4.667 0-7-2.917-7-8.75v-1.75c0-5.8607 2.333-8.791 7-8.791h0.013v0.041c4.667 0 6.996 2.3197 6.987 6.959v0.041c-0.019 1.1393-0.894 1.709-2.625 1.709-1.75 0-2.625-0.5833-2.625-1.75 0.009-1.1393-0.57-1.709-1.737-1.709h-0.013v-0.082c-1.167 0-1.75 1.1803-1.75 3.541v1.75c0 2.333 0.583 3.5 1.75 3.5h0.013zm13.987 1.75c0 1.167-0.875 1.75-2.625 1.75-1.732 0-2.607-0.57-2.625-1.709v-8.832c0.018-1.1393 0.893-1.709 2.625-1.709 1.75 0 2.625 0.5833 2.625 1.75v8.75zm-5.25-15.75c0-1.1667 0.583-1.75 1.75-1.75h1.75c1.166 0 1.75 0.58333 1.75 1.75v1.75c0 1.1667-0.584 1.75-1.75 1.75h-1.75c-1.167 0-1.75-0.5833-1.75-1.75v-1.75zm19.222 8.75h3.5c0-2.3333-0.583-3.5-1.75-3.5-1.166 0-1.75 1.1667-1.75 3.5zm8.75 8.75c0 1.167-0.875 1.75-2.625 1.75s-2.625-0.583-2.625-1.75v-3.5h-3.5v1.75c0 1.167-0.875 1.75-2.625 1.75-1.731 0-2.606-0.57-2.625-1.709v-7.041c0-5.8334 2.334-8.75 7-8.75 4.667 0 7 2.9166 7 8.75v8.75zm20.124 0.875c-0.58-1.75-0.87-4.958-0.87-9.625 0-2.3333-0.59-3.5-1.75-3.5-1.17 0-1.75 1.1667-1.75 3.5v8.75c0 1.167-0.88 1.75-2.63 1.75s-2.62-0.583-2.62-1.75v-8.75c0-2.3333-0.59-3.5-1.75-3.5-1.17 0-1.75 1.1667-1.75 3.5v7c0 1.167-0.879 1.75-2.629 1.75-1.731 0-2.606-0.57-2.625-1.709v-7.041c0-5.8334 2.334-8.75 7.004-8.75 1.8 0 3.26 0.4375 4.37 1.3125 1.11-0.875 2.57-1.3125 4.38-1.3125 4.66 0 7 2.9166 7 8.75 0 4.667 0.29 7.583 0.87 8.75s1.57 1.992 2.95 2.475c1.03 0.319 1.49 1.061 1.41 2.228s-0.7 1.923-1.87 2.27c-2.04 0.182-3.75-0.392-5.11-1.723-1.17-1.167-2.05-2.625-2.63-4.375zm11.38-9.625h3.5c0-2.3333-0.59-3.5-1.75-3.5-1.17 0-1.75 1.1667-1.75 3.5zm8.75 8.75c0 1.167-0.88 1.75-2.63 1.75s-2.62-0.583-2.62-1.75v-3.5h-3.5v1.75c0 1.167-0.88 1.75-2.63 1.75-1.73 0-2.61-0.57-2.62-1.709v-7.041c0-5.8334 2.33-8.75 7-8.75 4.66 0 7 2.9166 7 8.75v8.75zm7-13.057v2.9668c2.33 0 3.5-0.4945 3.5-1.4834 0-0.989-1.17-1.4834-3.5-1.4834zm0 9.0916v3.965c0 1.167-0.88 1.75-2.63 1.75-1.73 0-2.61-0.57-2.62-1.709v-15.832c0.01-1.1302 0.88-1.6999 2.59-1.709h2.66c5.83 0 8.75 1.9733 8.75 5.9199 0 2.8621-1.53 4.6891-4.58 5.4821 2.34 3.09 3.97 4.781 4.9 5.073 1.03 0.319 1.49 1.061 1.41 2.228s-0.7 1.923-1.87 2.27c-2.04 0.182-3.8-0.575-5.28-2.27-1.32-1.622-2.43-3.345-3.33-5.168zm15.75-4.785h3.5c0-2.3333-0.59-3.5-1.75-3.5-1.17 0-1.75 1.1667-1.75 3.5zm8.75 8.75c0 1.167-0.88 1.75-2.63 1.75s-2.62-0.583-2.62-1.75v-3.5h-3.5v1.75c0 1.167-0.88 1.75-2.63 1.75-1.73 0-2.61-0.57-2.62-1.709v-7.041c0-5.8334 2.33-8.75 7-8.75 4.66 0 7 2.9166 7 8.75v8.75zm7-12.1c0.53-0.1003 1.12-0.1504 1.75-0.1504 4.66 0 7 2.9166 7 8.75v3.5c0 1.167-0.88 1.75-2.63 1.75s-2.62-0.583-2.62-1.75v-3.5c0-2.333-0.59-3.5-1.75-3.5-1.17 0-1.75 1.167-1.75 3.5v1.75c0 1.167-0.88 1.75-2.63 1.75-1.73 0-2.61-0.57-2.62-1.709v-14.082c0.01-1.1393 0.89-1.709 2.62-1.709 1.75 0 2.63 0.5833 2.63 1.75v3.6504zm-102.36 38.641c-5.833 0-8.75-2.333-8.75-7s2.917-7 8.75-7h2.652c1.714 0.009 2.58 0.579 2.598 1.709v14c0 5.824-2.329 8.741-6.986 8.75h-0.014c-4.667 0-7-2.333-7-7 0.1-1.167 1.016-1.75 2.748-1.75 1.75 0 2.625 0.583 2.625 1.75-0.082 1.167 0.46 1.75 1.627 1.75h0.014c1.157-0.009 1.736-1.176 1.736-3.5v-1.709zm0-8.791c-2.333 0-3.5 0.583-3.5 1.75s1.167 1.75 3.5 1.75v-3.5zm12.25 3.5h3.5c0-2.333-0.583-3.5-1.75-3.5s-1.75 1.167-1.75 3.5zm8.75 8.75c0 1.167-0.875 1.75-2.625 1.75s-2.625-0.583-2.625-1.75v-3.5h-3.5v1.75c0 1.167-0.875 1.75-2.625 1.75-1.732 0-2.607-0.57-2.625-1.709v-7.041c0-5.833 2.333-8.75 7-8.75s7 2.917 7 8.75v8.75zm10.495-8.75c0-2.333-0.58-3.5-1.745-3.5-1.167 0-1.75 1.167-1.75 3.5v7c0 1.167-0.875 1.75-2.625 1.75-1.732 0-2.607-0.57-2.625-1.709v-7.041c0-5.833 2.333-8.75 7-8.75 4.665 0 7.005 2.917 7.005 8.75v8.75c0 1.167-0.88 1.75-2.63 1.75s-2.63-0.583-2.63-1.75v-8.75zm7 7c0-1.167 0.59-1.75 1.76-1.75h1.74c1.17 0 1.76 0.583 1.76 1.75v1.75c0 1.167-0.59 1.75-1.76 1.75h-1.74c-1.17 0-1.76-0.583-1.76-1.75v-1.75zm7 0c0-1.167 0.59-1.75 1.76-1.75h1.74c1.17 0 1.76 0.583 1.76 1.75v1.75c0 1.167-0.59 1.75-1.76 1.75h-1.74c-1.17 0-1.76-0.583-1.76-1.75v-1.75z"/>
   </g>
  </g>
 </g>
</svg>
