<?xml version="1.0" encoding="UTF-8"?>
<svg width="22px" height="22px" viewBox="0 0 22 22" version="1.1" xmlns="http://www.w3.org/2000/svg" xmlns:xlink="http://www.w3.org/1999/xlink">
    <!-- Generator: Sketch 50.2 (55047) - http://www.bohemiancoding.com/sketch -->
    <title>k icon</title>
    <desc>Created with Sketch.</desc>
    <defs></defs>
    <g id="LANDING-FORUM" stroke="none" stroke-width="1" fill="none" fill-rule="evenodd">
        <g id="2-landing-subforum-list" transform="translate(-42.000000, -31.000000)">
            <g id="Header-day/normal" transform="translate(0.000000, 22.000000)">
                <g id="k-icon" transform="translate(42.000000, 9.000000)">
                    <path d="M17.6,0 L4.4,0 C1.9699471,-1.48797825e-16 2.9759565e-16,1.9699471 0,4.4 L0,17.6 C2.9759565e-16,20.0300529 1.9699471,22 4.4,22 L17.6,22 C20.0300529,22 22,20.0300529 22,17.6 L22,4.4 C22,1.9699471 20.0300529,1.48797825e-16 17.6,0 Z" id="Shape" fill="#FAA71D" fill-rule="nonzero"></path>
                    <path d="M17.6,1.1 C19.4225397,1.1 20.9,2.57746033 20.9,4.4 L20.9,17.6 C20.9,19.4225397 19.4225397,20.9 17.6,20.9 L4.4,20.9 C2.57746033,20.9 1.1,19.4225397 1.1,17.6 L1.1,4.4 C1.1,2.57746033 2.57746033,1.1 4.4,1.1 L17.6,1.1 Z" id="Path" fill="#FFFFFF"></path>
                    <path d="M13.398,11.187 C13.3206049,11.1142366 13.2767134,11.0127286 13.2767134,10.9065 C13.2767134,10.8002714 13.3206049,10.6987634 13.398,10.626 L17.655,6.59995729 L14.3,6.6 C14.1919067,6.59839118 14.0881173,6.64230208 14.014,6.721 L11.077,9.647 C10.9080499,9.80153117 10.6897927,9.89117251 10.461,9.9 L9.581,9.9 C9.47164762,9.9 9.383,9.81135238 9.383,9.702 L9.383,6.952 C9.36624291,6.75650676 9.20514918,6.60488913 9.009,6.6 L6.809,6.6 L6.809,9.9 L4.345,9.9 L4.345,11 C4.345,11.5346116 4.77838836,11.968 5.313,11.968 L6.798,11.968 L6.798,15.268 L8.998,15.268 C9.21062963,15.268 9.383,15.0956296 9.383,14.883 L9.383,12.1 C9.38884415,11.9949656 9.47580322,11.9128375 9.581,11.913 L10.439,11.913 C10.6845191,11.914115 10.9204413,12.0084839 11.099,12.177 L14.003,15.114 C14.0763309,15.1858704 14.1753325,15.225471 14.278,15.224 L17.6,15.224 L13.354,11.143" id="Shape" fill="#1281C5" fill-rule="nonzero"></path>
                </g>
            </g>
        </g>
    </g>
</svg>