<?xml version="1.0" encoding="UTF-8"?>
<svg width="88px" height="117px" viewBox="0 0 88 117" version="1.1" xmlns="http://www.w3.org/2000/svg" xmlns:xlink="http://www.w3.org/1999/xlink">
    <!-- Generator: Sketch 50.2 (55047) - http://www.bohemiancoding.com/sketch -->
    <title>Group</title>
    <desc>Created with Sketch.</desc>
    <defs>
        <polygon id="path-1" points="0 1.18898003 18.0335405 1.18898003 18.0335405 16.3296763 0 16.3296763"></polygon>
    </defs>
    <g id="ONBOARDING" stroke="none" stroke-width="1" fill="none" fill-rule="evenodd">
        <g id="mobile-1" transform="translate(-232.000000, -451.000000)">
            <g id="Group" transform="translate(232.000000, 451.000000)">
                <path d="M29.0382316,103.934928 C29.148793,102.681308 20.801407,86.0708392 26.0530737,84.2789278 C31.3023368,82.4894089 48.6388456,87.7957633 53.1286,85.9081557 C57.6207579,84.0205481 70.4506877,73.9987633 73.4574772,74.5155228 C76.4642667,75.0298899 66.9944421,88.7599025 58.6831088,93.6069152 C50.3741789,98.4515354 29.0382316,103.934928 29.0382316,103.934928" id="Fill-1" fill="#0082C6"></path>
                <g id="Group-5" transform="translate(0.000000, 87.181872)">
                    <mask id="mask-2" fill="white">
                        <use xlink:href="#path-1"></use>
                    </mask>
                    <g id="Clip-4"></g>
                    <path d="M14.5655035,8.13896203 C14.5655035,8.13896203 -0.0790754386,18.4717595 0.000240350877,15.9262405 C0.0795561404,13.3759367 7.75155614,1.54549367 14.9332404,1.20098734 C22.1173281,0.854088608 14.5655035,8.13896203 14.5655035,8.13896203" id="Fill-3" fill="#006699" mask="url(#mask-2)"></path>
                </g>
                <path d="M0.00120175439,103.107873 C0.00120175439,103.107873 8.44232456,89.8013165 14.4943596,92.3420506 C20.5463947,94.8827848 14.9342018,88.3826203 14.9342018,88.3826203 C14.9342018,88.3826203 2.02735965,92.7511519 0.00120175439,103.107873" id="Fill-6" fill="#0082C6"></path>
                <path d="M14.750814,109.05611 C14.750814,109.05611 1.21905965,121.398528 1.08686667,118.821908 C0.957077193,116.245287 7.52346316,103.311946 14.5465158,102.015262 C21.5695684,100.720971 14.750814,109.05611 14.750814,109.05611" id="Fill-8" fill="#006699"></path>
                <path d="M14.1523404,102.128901 C14.1523404,102.128901 0.618182456,114.473711 0.488392982,111.894699 C0.358603509,109.318078 6.92498947,96.3847367 13.9480421,95.0904456 C20.9710947,93.793762 14.1523404,102.128901 14.1523404,102.128901" id="Fill-10" fill="#006699"></path>
                <path d="M0.489354386,111.894699 C0.489354386,111.894699 7.69026667,97.3775848 13.8384421,99.1383949 C19.9866175,100.899205 13.9490035,95.0904456 13.9490035,95.0904456 C13.9490035,95.0904456 1.63342456,101.191078 0.489354386,111.894699" id="Fill-12" fill="#0082C6"></path>
                <path d="M1.08806842,118.821908 C1.08806842,118.821908 8.2889807,104.302401 14.4371561,106.063211 C20.5853316,107.824022 14.5477175,102.015262 14.5477175,102.015262 C14.5477175,102.015262 2.2321386,108.118287 1.08806842,118.821908" id="Fill-14" fill="#0082C6"></path>
                <path d="M12.0773912,101.799467 C12.0773912,101.799467 10.5223211,92.9068975 15.5552684,88.4546316 C20.5882158,84.0023658 22.4869877,81.5812519 26.0513912,84.2798848 C29.6206018,86.9809101 32.0193035,104.220581 26.1018649,108.555619 C20.1868298,112.895442 0.975584211,129.099201 1.81921579,120.479366 C1.89612807,119.706619 7.86884737,113.486366 11.5293912,111.3021 C15.1923386,109.115442 12.0773912,101.799467 12.0773912,101.799467" id="Fill-16" fill="#0082C6"></path>
                <path d="M14.375386,90.3864987 C14.375386,90.3864987 12.3372105,98.9656633 14.0701404,103.788752 C15.8006667,108.609448 24.2730351,101.800663 25.9795263,97.1019797 C27.683614,92.4009038 26.842386,89.2836 26.842386,89.2836 L14.375386,90.3864987 Z" id="Fill-18" fill="#006699"></path>
                <path d="M24.5691474,93.3231759 C24.5691474,93.3231759 15.3468842,98.9190114 13.3039018,87.8637076 C13.3039018,87.8637076 5.32665614,91.6413152 4.74260351,85.9856696 C4.15855088,80.3300241 13.9961123,82.2535177 17.4018842,80.8467835 C20.8100596,79.4400494 24.4682,81.2893785 26.9125684,86.8182266 C29.3545333,92.3494671 24.5691474,93.3231759 24.5691474,93.3231759" id="Fill-20" fill="#0082C6"></path>
                <path d="M24.6982158,91.5872468 C24.6982158,91.5872468 19.0932333,96.0227658 16.0431807,91.4413101 C16.0431807,91.4413101 13.8223386,88.7259304 14.6515491,87.0823481 C15.4831632,85.4387658 20.0089702,91.5489684 24.6982158,91.5872468" id="Fill-22" fill="#00A9E9"></path>
                <path d="M9.77242632,87.519919 C9.77242632,87.519919 5.49177719,88.2065392 5.83547895,85.1634 C6.18158421,82.1178684 9.77242632,87.519919 9.77242632,87.519919" id="Fill-24" fill="#00A9E9"></path>
                <path d="M3.01039474,121.859305 C3.01039474,121.859305 1.45532456,119.648723 5.1927807,118.141508 C8.93264035,116.6319 23.0820965,109.574305 26.7162018,105.715356 C26.7162018,105.715356 16.5012895,115.131862 12.7710439,117.060141 C9.03839474,118.986027 3.01039474,121.859305 3.01039474,121.859305" id="Fill-26" fill="#00A9E9"></path>
                <path d="M131.938451,63.6867797 C133.707433,84.3619443 70.6417667,82.1011215 70.6417667,82.1011215 C70.6417667,82.1011215 65.2410825,77.0698937 70.3052754,74.9310835 C75.3718719,72.7946658 98.279714,72.8329443 107.602925,66.4141215 C116.926135,59.9929063 124.12224,54.7966025 124.12224,54.7966025" id="Fill-28" fill="#0082C6"></path>
                <path d="M59.7509877,77.9407291 C59.7509877,77.9407291 57.7104088,103.137539 78.6882333,125.458678 C78.6882333,125.458678 95.4743386,115.137843 99.3536018,103.680615 C99.3536018,103.680615 71.9127421,79.5484253 71.3479175,70.4429316 C71.3479175,70.4429316 59.6692684,72.4645139 59.7509877,77.9407291" id="Fill-30" fill="#0082C6"></path>
                <path d="M59.7509877,77.9407291 C59.7509877,77.9407291 59.6019702,80.0005899 59.8423211,83.385843 C63.9811632,82.5700329 68.9828649,81.5269443 71.6339351,80.7781215 C71.6339351,80.7781215 83.0842509,100.584843 98.2119351,106.309868 C98.6541807,105.441425 99.0531632,104.565805 99.3536018,103.680615 C99.3536018,103.680615 71.9127421,79.5484253 71.3479175,70.4429316 C71.3479175,70.4429316 59.6692684,72.4645139 59.7509877,77.9407291" id="Fill-32" fill="#006699"></path>
                <path d="M69.3438719,75.5437785 C67.3393456,80.6419937 74.7301351,80.3142342 74.7301351,80.3142342 C74.7301351,80.3142342 75.2853456,79.7855127 76.208293,78.8763987 C75.0377842,74.0772342 76.4077842,68.0818671 78.1599421,63.1487278 C74.0859947,68.5699177 70.2572053,73.2207532 69.3438719,75.5437785" id="Fill-34" fill="#006699"></path>
                <path d="M63.2694842,91.7812709 C61.9643789,102.236081 77.8972386,119.951841 78.3683263,120.772435 C78.3683263,120.772435 79.7383263,122.344246 81.0866947,123.865815 C83.7017123,122.047587 88.0208175,118.798701 91.9072912,114.779461 C88.5952561,110.274562 81.1251509,98.1809544 78.2409404,93.0324987 C74.6741333,86.6734861 64.5745895,81.3264608 63.2694842,91.7812709" id="Fill-36" fill="#00A9E9"></path>
                <polygon id="Fill-38" fill="#006699" points="60.2969513 93 58 83.0268116 60.0371062 82.069497 61.3680684 91.7182731"></polygon>
                <path d="M90.2361316,27.7284532 C97.6197105,49.1596177 86.1549737,72.4903519 64.6243421,79.8398203 C43.091307,87.1892886 19.649886,75.7751241 12.266307,54.3439595 C4.88272807,32.9104025 16.3522719,9.57966835 37.885307,2.2302 C59.4159386,-5.11926835 82.8549561,6.29728861 90.2361316,27.7284532" id="Fill-53" fill="#0082C6"></path>
                <path d="M45.862793,37.3399405 C48.0980561,43.8257506 45.9445123,50.4359658 41.0581789,52.1034722 C36.1742491,53.7709785 30.4010211,49.864181 28.1681614,43.3807633 C25.9328982,36.8949532 28.0840386,30.2871304 32.9679684,28.6172316 C37.8543018,26.9497253 43.6275298,30.8541304 45.862793,37.3399405" id="Fill-55" fill="#FFFFFF"></path>
                <path d="M43.872207,38.7371051 C45.3912246,43.1463076 43.7736632,47.6894848 40.2621368,48.8880797 C36.7506105,50.0866747 32.6718561,47.4861304 31.1528386,43.0793203 C29.6338211,38.6725101 31.2513825,34.1245481 34.7629088,32.9259532 C38.2744351,31.7273582 42.3531895,34.3302949 43.872207,38.7371051" id="Fill-57" fill="#021A23"></path>
                <path d="M39.9948667,37.9590949 C40.6486211,39.8586646 40.0669719,41.7797658 38.6945684,42.2462848 C37.3197614,42.7151962 35.6733579,41.5572722 35.022007,39.6553101 C34.3658491,37.7581329 34.9499018,35.8346392 36.3247088,35.3681203 C37.6971123,34.8992089 39.3435158,36.0595253 39.9948667,37.9590949" id="Fill-59" fill="#FFFFFF"></path>
                <path d="M70.9258614,28.7844608 C73.1611246,35.2702709 71.0099842,41.8804861 66.1236509,43.5479924 C61.2397211,45.2131063 55.466493,41.3087013 53.2336333,34.8228911 C50.9983702,28.337081 53.1495105,21.7316506 58.0334404,20.0617519 C62.9197737,18.3942456 68.6905982,22.2986506 70.9258614,28.7844608" id="Fill-61" fill="#FFFFFF"></path>
                <path d="M68.9379193,30.1816253 C70.4569368,34.5908278 68.8393754,39.1340051 65.3278491,40.3326 C61.8139193,41.5311949 57.7351649,38.9306506 56.2161474,34.5238405 C54.6971298,30.1170304 56.3146912,25.5690684 59.8286211,24.3704734 C63.3401474,23.1718785 67.4189018,25.7748152 68.9379193,30.1816253" id="Fill-63" fill="#021A23"></path>
                <path d="M65.0673088,29.4012228 C65.7210632,31.3007924 65.134607,33.2218937 63.7622035,33.6884127 C62.3898,34.1573241 60.7433965,32.9994 60.0896421,31.0998304 C59.4334842,29.2002608 60.0175368,27.2791595 61.3947474,26.8102481 C62.7647474,26.3413367 64.4135544,27.5016532 65.0673088,29.4012228" id="Fill-65" fill="#FFFFFF"></path>
                <path d="M22.9167351,56.8461759 C22.9167351,56.8461759 28.8726298,62.4731127 54.1863842,54.3341506 C83.4899632,44.9152519 80.990314,35.2714671 80.990314,35.2714671 C80.990314,35.2714671 92.4334193,53.480062 76.7937877,66.1526316 C64.6152088,76.0213025 54.9362789,75.6480873 54.9362789,75.6480873 C54.9362789,75.6480873 36.3187,80.5453405 22.9167351,56.8461759" id="Fill-67" fill="#510D3A"></path>
                <path d="M55.9344561,60.0072608 C77.8280175,52.5333873 81.1809123,44.5379696 80.1930702,38.8990709 C78.3087193,42.5570582 72.3720526,48.4902228 54.1847018,54.3348684 C39.0377895,59.2034127 30.8274035,59.1436025 26.6693333,58.3110456 C29.5679649,61.7704633 37.1678596,66.4117291 55.9344561,60.0072608" id="Fill-69" fill="#FFFFFF"></path>
                <path d="M69.1491877,60.7711557 C62.0876789,61.3453329 60.5229947,64.2688519 60.4653105,66.6540797 C58.9511,64.807143 55.9106614,63.4554342 49.9763982,67.3143835 C46.2749947,69.7259278 44.282486,72.4341304 43.2177316,74.9150544 C49.9163105,76.9629532 54.9372404,75.6495228 54.9372404,75.6495228 C54.9372404,75.6495228 64.6137667,76.0203456 76.7947491,66.1516747 C78.0133281,65.1660038 79.0492404,64.1420544 79.9553632,63.0989658 C77.5326263,61.5462949 74.0619596,60.3740165 69.1491877,60.7711557" id="Fill-71" fill="#ED125F"></path>
            </g>
        </g>
    </g>
</svg>