<?xml version="1.0" encoding="UTF-8"?>
<svg width="172px" height="20px" viewBox="0 0 172 20" version="1.1" xmlns="http://www.w3.org/2000/svg" xmlns:xlink="http://www.w3.org/1999/xlink">
    <!-- Generator: Sketch 49 (51002) - http://www.bohemiancoding.com/sketch -->
    <title>Page 1</title>
    <desc>Created with Sketch.</desc>
    <defs>
        <polygon id="path-1" points="0.194471264 0.433913043 26.6005848 0.433913043 26.6005848 19.9999565 0.194471264 19.9999565"></polygon>
        <polygon id="path-3" points="0.252429366 0.433913043 26.658 0.433913043 26.658 19.9999565 0.252429366 19.9999565"></polygon>
    </defs>
    <g id="Page-1" stroke="none" stroke-width="1" fill="none" fill-rule="evenodd">
        <g id="Sign-in-WAP-Single-Page-Night-Mode" transform="translate(-74.000000, -50.000000)">
            <g id="Page-1" transform="translate(74.000000, 50.000000)">
                <g id="Group-3" transform="translate(62.000000, 0.000000)">
                    <mask id="mask-2" fill="white">
                        <use xlink:href="#path-1"></use>
                    </mask>
                    <g id="Clip-2"></g>
                    <path d="M26.4521842,12.2038696 C26.0694474,10.1634348 24.7616053,8.20821739 21.0076579,7.94213043 C20.9176579,7.93995652 8.29397368,7.94213043 8.26839474,7.94213043 C7.86860526,7.94213043 7.49628947,7.82082609 7.19976316,7.61082609 C6.86723684,7.39865217 6.63513158,7.09126087 6.54939474,6.67386957 C6.52381579,6.56256522 6.51292105,6.44908696 6.51292105,6.333 C6.51292105,5.43995652 7.29971053,4.71734783 8.26839474,4.71734783 L16.1580789,4.71734783 C18.5023421,4.71734783 19.0882895,5.08865217 19.2237632,5.95256522 C19.2853421,6.37343478 19.6780263,6.69691304 20.1536053,6.69691304 L20.1749211,6.69691304 L20.1967105,6.69691304 L25.6620789,6.69691304 L25.6620789,6.08908696 C25.6620789,2.73082609 24.9723947,0.433869565 17.5980789,0.433869565 L6.21307895,0.433869565 C5.96297368,0.433869565 5.06581579,0.468217391 4.68686842,0.538217391 C2.63581579,0.939521739 0.565342105,2.46256522 0.297236842,4.94995652 C0.280184211,5.12995652 0.1935,5.76213043 0.196815789,6.55473913 C0.175026316,7.1403913 0.311447368,8.0556087 0.344131579,8.22647826 C0.380131579,8.41126087 0.422289474,8.6003913 0.472026316,8.78734783 C0.554921053,9.10517391 0.662447368,9.39865217 0.801710526,9.67604348 C1.51271053,11.196913 3.48607895,12.296913 5.78439474,12.4882174 C5.88007895,12.4882174 18.3626053,12.4743043 18.5236579,12.4882174 C19.4923421,12.563 20.2758158,13.086913 20.2758158,14.0995217 C20.2758158,14.7912609 19.8712895,15.1651739 19.4890263,15.4151739 C19.0494474,15.7121304 18.4057105,15.7156087 18.4057105,15.7156087 L9.38723684,15.7156087 C7.80039474,15.7156087 6.91744737,15.5973478 6.68534211,14.2695217 L6.68534211,14.2625652 C6.62092105,13.8438696 6.23107895,13.5216957 5.75881579,13.5216957 C5.74886842,13.5216957 5.74081579,13.5225652 5.73086842,13.5225652 C5.72281579,13.5225652 5.71713158,13.5216957 5.70576316,13.5216957 L5.69439474,13.5216957 L0.226184211,13.5216957 L0.226184211,14.8438696 C0.226184211,18.993 2.56002632,19.9999565 8.37592105,19.9999565 L20.5822895,19.9999565 C20.8328684,19.9999565 21.7300263,19.966913 22.1089737,19.8934348 C24.1605,19.4956087 26.2262368,17.9677826 26.4986053,15.4803913 C26.5166053,15.3025652 26.6023421,14.6708261 26.5990263,13.8760435 C26.6165526,13.2956087 26.4810789,12.3747391 26.4521842,12.2038696" id="Fill-1" fill="#FFFFFF" mask="url(#mask-2)"></path>
                </g>
                <path d="M21.7676403,11.0282781 C21.5889567,10.8753116 21.4808934,10.6556119 21.4808934,10.4120788 C21.4808934,10.1720125 21.585165,9.95404609 21.7638486,9.79934629 L32,0.909090909 L23.8668168,0.909090909 C23.6023461,0.909090909 23.3587298,1.00875745 23.1909473,1.17212391 L23.1871556,1.17212391 L16.1843711,7.66648233 L16.1805794,7.66778233 C15.7867172,7.98324859 15.2724687,8.17868168 14.7103501,8.19124833 L12.5827359,8.19124833 C12.3182653,8.19124833 12.1068784,7.99711524 12.1068784,7.76051554 L12.1068784,7.75444888 L12.1030867,7.75444888 L12.1030867,1.73675652 C12.0817584,1.29995708 11.703063,0.944624197 11.2234137,0.919490896 L5.89418804,0.919490896 L5.89418804,8.19471499 L0,8.19471499 L0,10.5754453 L0,10.5823786 C0,11.7666771 1.04461165,12.7221759 2.33900113,12.7221759 L5.89418804,12.7221759 L5.89418804,20 L11.1518455,20 L11.169856,20 C11.6812607,20 12.0964512,19.6212671 12.1030867,19.1528344 L12.1030867,13.1438087 L12.1068784,13.1438087 C12.1173055,12.9119757 12.3211091,12.7291092 12.5789443,12.7291092 C12.5789443,12.7291092 14.6354642,12.7221759 14.6463653,12.7221759 C15.2615676,12.7221759 15.8232123,12.9427423 16.2379288,13.3015418 L23.2084839,19.7517003 C23.380532,19.9051001 23.6127733,20 23.8668168,20 L31.9786717,20 L21.7676403,11.0317447 L21.7676403,11.0282781 Z" id="Fill-4" fill="#FFFFFF"></path>
                <path d="M54.943013,19.5393568 C55.0995932,19.8067292 55.4037655,19.9887331 55.7528777,20 L62,20 L51.6619256,1.37970099 C51.5053455,1.10106169 51.190766,0.909090909 50.8236778,0.909090909 L47.1078558,0.909090909 L46.9148507,0.909090909 L43.1663881,0.909090909 C42.8163297,0.909090909 42.5135766,1.0828613 42.353212,1.34200019 L32,20 L38.2296194,20 C38.5938692,20 38.9079757,19.8067292 39.0617175,19.5302566 L40.5144596,16.9059337 C40.5929862,16.7594639 40.7576083,16.6576284 40.9458829,16.6576284 L53.0545902,16.6576284 C53.2438109,16.6576284 53.4074868,16.7594639 53.4831751,16.9046337 L54.943013,19.5371901 L54.943013,19.5393568 Z M42.891545,12.6227752 L47.0004731,5.22735011 L51.1094011,12.6227752 L42.891545,12.6227752 Z" id="Fill-6" fill="#FFFFFF"></path>
                <g id="Group-10" transform="translate(145.000000, 0.000000)">
                    <mask id="mask-4" fill="white">
                        <use xlink:href="#path-3"></use>
                    </mask>
                    <g id="Clip-9"></g>
                    <path d="M26.5090737,12.2038696 C26.1263368,10.1634348 24.8184947,8.20821739 21.0645474,7.94213043 C20.9754947,7.93995652 8.35038947,7.94213043 8.32907368,7.94213043 C7.92502105,7.94213043 7.55317895,7.82082609 7.25617895,7.61082609 C6.92744211,7.39865217 6.69154737,7.09126087 6.6096,6.67386957 C6.58449474,6.56256522 6.57028421,6.44908696 6.57028421,6.333 C6.57028421,5.43995652 7.35612632,4.71734783 8.32907368,4.71734783 L16.2144947,4.71734783 C18.5630211,4.71734783 19.1418632,5.08865217 19.2844421,5.95256522 C19.3417579,6.37343478 19.7353895,6.69691304 20.2104947,6.69691304 L20.2318105,6.69691304 L20.2536,6.69691304 L25.7218105,6.69691304 L25.7218105,6.08908696 C25.7218105,2.73082609 25.0292842,0.433869565 17.6544947,0.433869565 L6.26665263,0.433869565 C6.01938947,0.433869565 5.12602105,0.468217391 4.74754737,0.538217391 C2.69223158,0.939521739 0.622231579,2.46256522 0.353652632,4.94995652 C0.336126316,5.12995652 0.254178947,5.76213043 0.254178947,6.55473913 C0.235705263,7.1403913 0.368810526,8.0556087 0.404810526,8.22647826 C0.436073684,8.41126087 0.479178947,8.6003913 0.532231579,8.78734783 C0.611810526,9.10517391 0.718863158,9.39865217 0.861442105,9.67604348 C1.57007368,11.196913 3.54628421,12.296913 5.8446,12.4882174 C5.93744211,12.4882174 18.4194947,12.4743043 18.5814947,12.4882174 C19.5497053,12.563 20.3317579,13.086913 20.3317579,14.0995217 C20.3317579,14.7912609 19.9281789,15.1651739 19.5454421,15.4151739 C19.1025474,15.7121304 18.4630737,15.7156087 18.4630737,15.7156087 L9.4446,15.7156087 C7.85681053,15.7156087 6.97386316,15.5973478 6.74175789,14.2695217 L6.74175789,14.2625652 C6.6816,13.8438696 6.29128421,13.5216957 5.81570526,13.5216957 C5.80528421,13.5216957 5.79817895,13.5225652 5.78681053,13.5225652 C5.78017895,13.5225652 5.77354737,13.5216957 5.76217895,13.5216957 L5.75175789,13.5216957 L0.2826,13.5216957 L0.2826,14.8438696 C0.2826,18.993 2.62023158,19.9999565 8.43565263,19.9999565 L20.6396526,19.9999565 C20.8935474,19.9999565 21.7869158,19.966913 22.1653895,19.8934348 C24.2173895,19.4956087 26.2869158,17.9677826 26.5559684,15.4803913 C26.5772842,15.3025652 26.6559158,14.6708261 26.6559158,13.8760435 C26.6767579,13.2956087 26.5408105,12.3747391 26.5090737,12.2038696" id="Fill-8" fill="#FFFFFF" mask="url(#mask-4)"></path>
                </g>
                <path d="M90,20 L95.2363471,20 L95.2505084,20 C95.7636166,20 96.1771242,19.6216919 96.1837328,19.1528152 L96.1837328,13.1440864 L96.187037,13.1440864 C96.197894,12.9118148 96.4013435,12.7289442 96.6576616,12.7289442 C96.6576616,12.7289442 98.705846,12.7224441 98.7162309,12.7224441 C99.3289397,12.7224441 99.8878359,12.9430154 100.30512,13.3018231 L107.244118,19.752128 C107.415468,19.905098 107.643464,20 107.898838,20 L115.978758,20 L105.808642,11.0315412 L105.808642,11.0280744 C105.630683,10.8751045 105.520225,10.6558331 105.520225,10.4122945 C105.520225,10.1722227 105.630683,9.95381806 105.804394,9.79954809 L116,0.909090909 L107.898838,0.909090909 C107.635911,0.909090909 107.397059,1.00832637 107.22618,1.17169654 L107.22618,1.17429659 L100.248003,7.66663571 L100.244699,7.66793574 C99.8533769,7.98340917 99.3402687,8.17884669 98.7771242,8.19141363 L96.6614379,8.19141363 C96.3980392,8.19141363 96.187037,7.99684279 96.187037,7.76023772 L96.187037,7.75460427 L96.1837328,7.75460427 L96.1837328,1.73634197 C96.1620189,1.29996595 95.7848584,0.944191661 95.3109296,0.919057789 L90,0.919057789 L90,20 Z" id="Fill-11" fill="#FFFFFF"></path>
                <path d="M138.422679,0.909090909 C137.909897,0.909090909 137.499297,1.29033444 137.495547,1.75648935 L137.495547,13.0569935 C137.485704,14.2071568 136.466234,15.1381801 135.210059,15.1484724 L135.210059,15.1506166 L126.785253,15.1506166 L126.785253,15.1484724 C125.525798,15.1381801 124.510546,14.2084434 124.500703,13.0569935 L124.496953,13.0569935 L124.496953,11.8918207 L124.496953,11.8124843 L124.496953,1.72561248 C124.479611,1.27446716 124.07276,0.909090909 123.573571,0.909090909 L118,0.909090909 L118,14.6042676 C118.059996,17.5251334 120.609843,19.8902156 123.789652,19.9978558 L123.789652,20 L137.994736,20 C141.269695,19.9965692 143.933441,17.5894602 143.996719,14.6042676 L144,14.6042676 L144,0.909090909 L138.422679,0.909090909 Z" id="Fill-13" fill="#FFFFFF"></path>
            </g>
        </g>
    </g>
</svg>