<svg xmlns="http://www.w3.org/2000/svg" xmlns:xlink="http://www.w3.org/1999/xlink" width="28" height="28" viewBox="0 0 28 28">
    <defs>
        <path id="a" d="M0 0h28v28H0z"/>
    </defs>
    <g fill="none" fill-rule="evenodd">
        <g>
            <mask id="b" fill="#fff">
                <use xlink:href="#a"/>
            </mask>
            <path fill="#0082C6" d="M28 14c0 7.731-6.268 14-14 14S0 21.731 0 14C0 6.268 6.268 0 14 0s14 6.268 14 14" mask="url(#b)"/>
        </g>
        <path fill="#FFF" fill-rule="nonzero" d="M10.655 14.875c-.985.03-1.79.404-2.415 1.125H7.019c-.499 0-.918-.118-1.258-.355-.34-.237-.51-.585-.511-1.042 0-2.069.377-3.103 1.13-3.103.037 0 .17.062.397.184.228.123.524.248.889.374s.726.189 1.085.189c.407 0 .81-.067 1.212-.203a3.775 3.775 0 0 0 .693 2.83l-.001.001zm9.76 5.6c0 .702-.221 1.257-.664 1.664-.444.407-1.033.611-1.769.611h-7.965c-.735 0-1.325-.204-1.769-.61-.444-.408-.666-.963-.665-1.666 0-.31.01-.614.032-.91a8.58 8.58 0 0 1 .368-1.913c.098-.293.228-.578.392-.857.164-.278.353-.515.565-.712.212-.196.472-.353.78-.47a2.834 2.834 0 0 1 1.015-.176c.061 0 .192.063.392.19.2.125.423.266.665.421.243.155.568.296.975.422.408.126.818.19 1.231.19.413 0 .823-.064 1.231-.19.408-.126.733-.267.975-.422l.665-.422c.2-.126.332-.189.392-.189.371 0 .71.059 1.016.176.307.117.566.274.78.47.213.197.4.434.564.712.164.279.294.564.392.857.098.294.179.612.242.954.063.343.105.663.127.959.022.296.032.6.031.91h.003zM11.084 9.25a2.13 2.13 0 0 1-.684 1.59 2.29 2.29 0 0 1-1.65.66 2.29 2.29 0 0 1-1.649-.66 2.13 2.13 0 0 1-.683-1.59c0-.621.227-1.151.683-1.59A2.29 2.29 0 0 1 8.75 7c.644 0 1.194.22 1.65.66.455.439.683.969.683 1.59zm6.416 3.375c0 .931-.342 1.727-1.025 2.386-.684.66-1.509.989-2.475.989-.966 0-1.79-.33-2.474-.989-.684-.66-1.025-1.454-1.025-2.386 0-.931.341-1.727 1.025-2.386.684-.66 1.508-.989 2.474-.989.966 0 1.791.33 2.475.989.683.66 1.025 1.454 1.025 2.386zm5.25 1.978c0 .457-.17.804-.511 1.042-.34.237-.76.356-1.258.355H19.76c-.626-.72-1.431-1.096-2.415-1.125a3.775 3.775 0 0 0 .693-2.83 3.78 3.78 0 0 0 1.212.202c.359 0 .72-.063 1.085-.189s.661-.25.889-.373c.228-.123.36-.185.397-.185.753 0 1.13 1.034 1.13 3.103h-.001zM21.582 9.25a2.13 2.13 0 0 1-.683 1.59 2.29 2.29 0 0 1-1.65.66 2.29 2.29 0 0 1-1.65-.66 2.13 2.13 0 0 1-.683-1.59c0-.621.228-1.151.684-1.59A2.29 2.29 0 0 1 19.25 7c.643 0 1.193.22 1.649.66.455.439.683.969.683 1.59z"/>
    </g>
</svg>
