<?xml version="1.0" encoding="UTF-8"?>
<svg width="13px" height="12px" viewBox="0 0 13 12" version="1.1" xmlns="http://www.w3.org/2000/svg" xmlns:xlink="http://www.w3.org/1999/xlink">
    <!-- Generator: Sketch 52.6 (67491) - http://www.bohemiancoding.com/sketch -->
    <title>Page 1 Copy 6</title>
    <desc>Created with Sketch.</desc>
    <g id="Symbols" stroke="none" stroke-width="1" fill="none" fill-rule="evenodd">
        <g id="toolbar" transform="translate(-262.000000, -9.000000)" fill="#1998ED">
            <g id="Group-5">
                <g id="Group-27" transform="translate(25.000000, 5.000000)">
                    <g id="Group" transform="translate(237.000000, 4.000000)">
                        <path d="M0,12.001 L0.016,11.384 C0.136,11.348 0.282,11.314 0.454,11.286 C0.626,11.257 0.774,11.23 0.899,11.204 C1.023,11.178 1.153,11.141 1.286,11.091 C1.419,11.042 1.535,10.966 1.634,10.864 C1.733,10.762 1.813,10.63 1.876,10.469 L3.728,5.656 L5.916,0 L6.916,0 C6.958,0.073 6.986,0.127 7.002,0.164 L8.604,3.914 C8.776,4.32 9.052,4.991 9.432,5.926 C9.812,6.861 10.109,7.576 10.323,8.071 C10.401,8.248 10.552,8.625 10.776,9.2 C11,9.775 11.188,10.214 11.339,10.516 C11.443,10.751 11.534,10.899 11.612,10.961 C11.711,11.039 11.94,11.115 12.3,11.191 C12.66,11.267 12.879,11.319 12.956,11.351 C12.987,11.549 13.003,11.697 13.003,11.796 C13.003,11.816 13.002,11.851 12.999,11.898 C12.996,11.945 12.995,11.98 12.995,12 C12.667,12 12.172,11.98 11.511,11.938 C10.85,11.897 10.353,11.876 10.019,11.876 C9.623,11.876 9.063,11.895 8.339,11.931 C7.615,11.968 7.151,11.988 6.948,11.993 C6.948,11.769 6.958,11.566 6.979,11.384 L8.002,11.165 C8.008,11.165 8.04,11.158 8.1,11.145 C8.16,11.132 8.2,11.123 8.221,11.118 C8.241,11.113 8.279,11.102 8.334,11.083 C8.389,11.064 8.428,11.047 8.451,11.032 C8.475,11.017 8.503,10.996 8.537,10.97 C8.571,10.944 8.595,10.915 8.607,10.884 C8.62,10.853 8.626,10.816 8.627,10.775 C8.627,10.691 8.546,10.44 8.385,10.021 C8.224,9.602 8.036,9.14 7.822,8.634 C7.608,8.129 7.499,7.868 7.494,7.853 L3.978,7.837 C3.843,8.139 3.644,8.648 3.38,9.364 C3.117,10.08 2.985,10.503 2.985,10.634 C2.985,10.749 3.021,10.847 3.094,10.927 C3.167,11.008 3.28,11.071 3.434,11.118 C3.588,11.165 3.714,11.199 3.813,11.223 C3.912,11.246 4.06,11.269 4.258,11.289 C4.456,11.31 4.562,11.32 4.578,11.32 C4.583,11.419 4.586,11.569 4.586,11.773 C4.586,11.819 4.581,11.89 4.57,11.984 C4.268,11.984 3.813,11.958 3.207,11.906 C2.6,11.854 2.146,11.828 1.844,11.828 C1.803,11.828 1.734,11.838 1.637,11.859 C1.541,11.88 1.484,11.89 1.469,11.89 C1.052,11.963 0.562,11.999 0,11.999 L0,12.001 Z M5.664,3.368 L4.336,6.884 C4.508,6.884 4.863,6.889 5.402,6.9 C5.94,6.911 6.359,6.916 6.656,6.916 C6.755,6.916 6.903,6.911 7.101,6.9 C6.647,5.582 6.168,4.405 5.663,3.369 L5.664,3.368 Z" id="Page-1-Copy-6"></path>
                    </g>
                </g>
            </g>
        </g>
    </g>
</svg>