<?xml version="1.0" encoding="UTF-8"?>
<svg width="14px" height="11px" viewBox="0 0 14 11" version="1.1" xmlns="http://www.w3.org/2000/svg" xmlns:xlink="http://www.w3.org/1999/xlink">
    <!-- Generator: Sketch 52.6 (67491) - http://www.bohemiancoding.com/sketch -->
    <title>align-right</title>
    <desc>Created with Sketch.</desc>
    <g id="Symbols" stroke="none" stroke-width="1" fill="none" fill-rule="evenodd">
        <g id="toolbar" transform="translate(-207.000000, -10.000000)" fill="#1998ED" fill-rule="nonzero">
            <g id="Group-5">
                <g id="Group-27" transform="translate(25.000000, 5.000000)">
                    <g id="Group-16-Copy-4" transform="translate(114.000000, 5.000000)">
                        <g id="align-right" transform="translate(68.000000, 0.000000)">
                            <path d="M14,9.5 L14,10.5 C14,10.6353333 13.9506667,10.7526667 13.852,10.852 C13.7533333,10.9513333 13.636,11.0006667 13.5,11 L0.5,11 C0.364666667,11 0.247333333,10.9506667 0.148,10.852 C0.0486666667,10.7533333 -0.000666666667,10.636 2.77521875e-17,10.5 L2.77521875e-17,9.5 C2.77521875e-17,9.36466667 0.0493333333,9.24733333 0.148,9.148 C0.246666667,9.04866667 0.364,8.99933333 0.5,9 L13.5,9 C13.6353333,9 13.7526667,9.04933333 13.852,9.148 C13.9513333,9.24666667 14.0006667,9.364 14,9.5 Z M14,6.5 L14,7.5 C14,7.63533333 13.9506667,7.75266667 13.852,7.852 C13.7533333,7.95133333 13.636,8.00066667 13.5,8 L3.5,8 C3.36466667,8 3.24733333,7.95066667 3.148,7.852 C3.04866667,7.75333333 2.99933333,7.636 3,7.5 L3,6.5 C3,6.36466667 3.04933333,6.24733333 3.148,6.148 C3.24666667,6.04866667 3.364,5.99933333 3.5,6 L13.5,6 C13.6353333,6 13.7526667,6.04933333 13.852,6.148 C13.9513333,6.24666667 14.0006667,6.364 14,6.5 Z M14,3.5 L14,4.5 C14,4.63533333 13.9506667,4.75266667 13.852,4.852 C13.7533333,4.95133333 13.636,5.00066667 13.5,5 L1.5,5 C1.36466667,5 1.24733333,4.95066667 1.148,4.852 C1.04866667,4.75333333 0.999333333,4.636 1,4.5 L1,3.5 C1,3.36466667 1.04933333,3.24733333 1.148,3.148 C1.24666667,3.04866667 1.364,2.99933333 1.5,3 L13.5,3 C13.6353333,3 13.7526667,3.04933333 13.852,3.148 C13.9513333,3.24666667 14.0006667,3.364 14,3.5 Z M14,0.5 L14,1.5 C14,1.63533333 13.9506667,1.75266667 13.852,1.852 C13.7533333,1.95133333 13.636,2.00066667 13.5,2 L4.5,2 C4.36466667,2 4.24733333,1.95066667 4.148,1.852 C4.04866667,1.75333333 3.99933333,1.636 4,1.5 L4,0.5 C4,0.364666667 4.04933333,0.247333333 4.148,0.148 C4.24666667,0.0486666667 4.364,-0.000666666667 4.5,1.66529219e-16 L13.5,1.66529219e-16 C13.6353333,1.66529219e-16 13.7526667,0.0493333333 13.852,0.148 C13.9513333,0.246666667 14.0006667,0.364 14,0.5 Z" id="Shape"></path>
                        </g>
                    </g>
                </g>
            </g>
        </g>
    </g>
</svg>