<?xml version="1.0" encoding="UTF-8"?>
<svg width="16px" height="16px" viewBox="0 0 16 16" version="1.1" xmlns="http://www.w3.org/2000/svg" xmlns:xlink="http://www.w3.org/1999/xlink">
    <!-- Generator: Sketch 48.1 (47250) - http://www.bohemiancoding.com/sketch -->
    <title>icon/title/kaskus ads</title>
    <desc>Created with Sketch.</desc>
    <defs>
        <polygon id="path-1" points="0.395954699 0.120357178 3.41094723 0.120357178 3.41094723 3.135077 0.395954699 3.135077 0.395954699 0.120357178"></polygon>
    </defs>
    <g id="Symbols" stroke="none" stroke-width="1" fill="none" fill-rule="evenodd">
        <g id="icon/title/kaskus-ads">
            <g id="Page-1" fill="#F9A51C">
                <path d="M15.71992,7.85984 C15.71992,12.20064 12.20152,15.71984 7.85992,15.71984 C3.51912,15.71984 0.00072,12.20064 0.00072,7.85984 C0.00072,3.51904 3.51912,-0.00016 7.85992,-0.00016 C12.20152,-0.00016 15.71992,3.51904 15.71992,7.85984" id="Fill-1"></path>
            </g>
            <g id="Group" transform="translate(2.574341, 1.524658)">
                <g id="Page-1">
                    <path d="M10.603426,6.15897871 C10.603426,9.08684283 8.22978392,11.4604849 5.3019198,11.4604849 C2.37364207,11.4604849 0,9.08684283 0,6.15897871 C0,3.23070098 2.37364207,0.857058913 5.3019198,0.857058913 C8.22978392,0.857058913 10.603426,3.23070098 10.603426,6.15897871" id="Fill-1" fill="#FFFFFF"></path>
                    <path d="M9.72473588,6.17436457 C9.72473588,8.63982552 7.72622769,10.6383337 5.26076674,10.6383337 C2.79530579,10.6383337 0.796797604,8.63982552 0.796797604,6.17436457 C0.796797604,3.70890363 2.79530579,1.71039544 5.26076674,1.71039544 C7.72622769,1.71039544 9.72473588,3.70890363 9.72473588,6.17436457" id="Fill-3" fill="#F9A51C"></path>
                    <g id="Group-7" transform="translate(8.271971, 0.293365)">
                        <mask id="mask-2" fill="white">
                            <use xlink:href="#path-1"></use>
                        </mask>
                        <g id="Clip-6"></g>
                        <path d="M3.40441237,1.57291528 C3.38745483,1.51790667 3.34195899,1.47654682 3.28529599,1.46496606 L2.26825716,1.26312997 L2.06642107,0.246091136 C2.05484031,0.189428135 2.01348045,0.143518696 1.95805825,0.126974754 C1.9431687,0.12242517 1.92786556,0.119943579 1.91297601,0.119943579 C1.87202975,0.119943579 1.83191069,0.136073923 1.8021316,0.166266617 L0.753659275,1.21473894 C0.731324954,1.23707326 0.716435406,1.26519796 0.710645026,1.29621785 L0.398791721,2.94978485 C0.388865355,3.00065747 0.405409297,3.05277089 0.44180597,3.08958116 C0.471585065,3.11894666 0.511290526,3.135077 0.552236782,3.135077 C0.562163147,3.135077 0.571675914,3.1342498 0.581188681,3.13259541 L2.23516928,2.8211557 C2.26618917,2.81495172 2.29431387,2.80006217 2.31664819,2.77772785 L3.36553411,1.72925553 C3.40606677,1.68830928 3.42136991,1.62833749 3.40441237,1.57291528" id="Fill-5" fill="#FFFFFF" mask="url(#mask-2)"></path>
                    </g>
                    <path d="M8.25571655,4.2000519 C8.13329138,4.32289067 7.93435048,4.32289067 7.81192531,4.2000519 C7.68908654,4.07762673 7.68908654,3.87909943 7.81192531,3.75626066 L9.07009209,2.49809387 C9.19293086,2.3756687 9.39145817,2.3756687 9.51388334,2.49809387 C9.6367221,2.62051904 9.6367221,2.81904635 9.51388334,2.94188512 L8.25571655,4.2000519 Z" id="Fill-8" fill="#F9A51C"></path>
                    <path d="M8.18482576,3.38617268 C8.13478033,3.4362181 8.05330142,3.4362181 8.003256,3.38617268 C7.95279697,3.33612725 7.95279697,3.25464834 8.003256,3.20460291 L8.69024319,2.51720213 C8.74028861,2.4671567 8.82176752,2.4671567 8.87181295,2.51720213 C8.92185837,2.56766115 8.92185837,2.64914006 8.87181295,2.69918549 L8.18482576,3.38617268 Z" id="Fill-10" fill="#FFFFFF"></path>
                    <path d="M8.80865645,4.00983793 C8.75819743,4.05988335 8.67713211,4.05988335 8.62708669,4.00983793 C8.57662766,3.9597925 8.57662766,3.87872719 8.62708669,3.82826817 L9.31407388,3.14128098 C9.3641193,3.09082195 9.44559822,3.09082195 9.49564364,3.14128098 C9.54568906,3.1913264 9.54568906,3.27280532 9.49564364,3.32285074 L8.80865645,4.00983793 Z" id="Fill-12" fill="#FFFFFF"></path>
                    <path d="M6.21419411,6.25472677 C6.18110623,6.22329328 6.1604263,6.17862464 6.1604263,6.12940641 C6.1604263,6.08101538 6.18069263,6.03676034 6.21378052,6.00532685 L8.11219785,4.20906835 L6.60380395,4.20906835 C6.55458572,4.20906835 6.50991708,4.22933468 6.47848359,4.26200896 C6.47848359,4.26200896 6.47806999,4.26242256 6.47765639,4.26242256 L5.17854335,5.57435716 L5.17854335,5.57477076 C5.10450921,5.63929213 5.00938154,5.6781704 4.90474111,5.68106558 L4.51058169,5.68106558 C4.46177706,5.68106558 4.4220716,5.64177372 4.4220716,5.59296909 L4.4220716,5.5921419 L4.421658,5.5917283 L4.421658,4.37616216 C4.41752202,4.28765207 4.34721027,4.21609953 4.25870018,4.21113634 L3.26978605,4.21113634 L3.26978605,5.68147918 L2.17664508,5.68147918 L2.17664508,6.1624943 L2.17664508,6.16497589 C2.17664508,6.40320865 2.3710364,6.59677277 2.61050996,6.59677277 L3.26978605,6.59677277 L3.26978605,6.59718637 L3.26978605,8.06711561 L4.24463783,8.06711561 L4.24836021,8.06711561 C4.34348788,8.06711561 4.42041721,7.99059988 4.421658,7.89588581 L4.421658,6.68197407 L4.421658,6.68156047 C4.4241396,6.63523744 4.46260426,6.59759997 4.5097545,6.59759997 C4.5097545,6.59759997 4.89109236,6.59718637 4.89316035,6.59718637 C5.00731355,6.59718637 5.11154038,6.64144141 5.18888331,6.71382116 L6.48179238,8.01748379 C6.51322586,8.04809008 6.55624011,8.06711561 6.60380395,8.06711561 L8.10847547,8.06711561 L6.21419411,6.25472677" id="Fill-14" fill="#FFFFFF"></path>
                </g>
            </g>
        </g>
    </g>
</svg>