<svg xmlns="http://www.w3.org/2000/svg" width="28" height="28" viewBox="0 0 28 28">
    <g fill="none" fill-rule="evenodd">
        <path fill="#18A79E" d="M28 14c0 7.732-6.269 14-14 14-7.732 0-14-6.268-14-14C0 6.269 6.268 0 14 0c7.731 0 14 6.269 14 14"/>
        <path fill="#FFF" d="M15.404 19.518a1.233 1.233 0 1 0 0 2.467 1.233 1.233 0 0 0 0-2.467M7.137 12.04a.756.756 0 1 1 1.511-.001.756.756 0 0 1-1.511 0zm2.107 1.739a.756.756 0 1 1-.001 1.513.756.756 0 0 1 0-1.513zm1.35-2.496a.756.756 0 1 1 0 1.512.756.756 0 0 1 0-1.512zm1.35 2.496c.418 0 .755.338.755.756a.756.756 0 1 1-.755-.756zm1.35-2.496a.756.756 0 1 1 0 1.512.756.756 0 0 1 0-1.512zm1.35 2.496a.756.756 0 1 1 0 1.511.756.756 0 0 1 0-1.511zm1.349-2.496a.757.757 0 1 1 0 1.514.757.757 0 0 1 0-1.514zm3.995-3.14l-2.715 8.63h-.818l2.133-6.864H4.408l3.792 8.7h10.415l2.715-8.631h1.374l.584-1.835h-3.3zM11.327 19.518a1.233 1.233 0 1 0 0 2.467 1.233 1.233 0 0 0 0-2.467"/>
    </g>
</svg>
