<?xml version="1.0" encoding="UTF-8"?>
<svg width="30px" height="30px" viewBox="0 0 30 30" version="1.1" xmlns="http://www.w3.org/2000/svg" xmlns:xlink="http://www.w3.org/1999/xlink">
    <!-- Generator: Sketch 50.2 (55047) - http://www.bohemiancoding.com/sketch -->
    <title>notif_pembelian</title>
    <desc>Created with Sketch.</desc>
    <defs></defs>
    <g id="Symbols" stroke="none" stroke-width="1" fill="none" fill-rule="evenodd">
        <g id="notif---web-copy" transform="translate(-13.000000, -104.000000)">
            <g id="notif_pembelian" transform="translate(13.000000, 104.000000)">
                <g id="Group-Copy-2" fill="#F09500" fill-rule="nonzero">
                    <circle id="Oval-3-Copy-2" cx="15" cy="15" r="15"></circle>
                </g>
                <g id="Group-11" transform="translate(7.000000, 10.000000)">
                    <g id="Group-8" transform="translate(7.000000, 3.000000)">
                        <polygon id="Clip-7" points="0 0 10.86954 0 10.86954 10.6558725 0 10.6558725"></polygon>
                        <path d="M1.14488,6.18229412 L5.49318,10.4453333 L9.63424,6.3852549 L5.28594,2.12221569 L1.50942,2.47982353 L1.14488,6.18229412 Z M5.48922,11.6559804 C5.28748,11.6559804 5.09256,11.577902 4.95154,11.4394314 L0,6.58498039 L0.4367,2.15198039 C0.47388,1.77560784 0.79134,1.46437255 1.17524,1.42813725 L5.69668,1 L10.64844,5.85445098 C10.79606,5.99896078 10.87658,6.20062745 10.8691,6.40747059 C10.86206,6.60288235 10.77978,6.78772549 10.63722,6.92727451 L6.04582,11.4286471 C5.90304,11.5688431 5.71406,11.6495098 5.51342,11.655549 C5.50528,11.6557647 5.49736,11.6559804 5.48922,11.6559804 Z" id="Fill-6" fill="#FFFFFF"></path>
                    </g>
                    <path d="M7.00380504,9.63129884 L7.08161696,8.80160138 L3.41164353,8.80184111 C3.38951139,8.79800547 3.35037247,8.77379297 3.32987112,8.75245721 L1.43699141,1.19863835 L2.50608987,1.19863835 C2.70830767,2.33734478 3.70238985,3.20467948 4.8942634,3.20467948 C6.08636993,3.20467948 7.08045211,2.33734478 7.28266991,1.19863835 L7.75489971,1.19863835 C7.95711751,2.33734478 8.95096672,3.20467948 10.1430732,3.20467948 C11.3351798,3.20467948 12.329262,2.33734478 12.5314797,1.19863835 L13.5630701,1.19863835 L12.752181,4.06449252 L13.5630701,5 L14.991175,0.299899314 C15.0324107,0.134007767 14.9252446,0 14.7509831,0 L11.4041388,0 L11.4041388,0.770484729 C11.4041388,1.45203049 10.8384881,2.00604114 10.1430732,2.00604114 C9.44765836,2.00604114 8.88224063,1.45203049 8.88224063,0.770484729 L8.88224063,0 L6.15532899,0 L6.15532899,0.770484729 C6.15532899,1.45203049 5.58991126,2.00604114 4.8942634,2.00604114 C4.19884852,2.00604114 3.63343079,1.45203049 3.63343079,0.770484729 L3.63343079,0 L0.249078342,0 C0.0750498933,0 -0.0325821594,0.134487223 0.00888646698,0.299899314 L2.21487761,9.10365824 C2.34813634,9.59845615 2.87954048,10 3.40162582,10 L7.36211261,10 L7.00380504,9.63129884 Z" id="Fill-9" fill="#FFFFFF"></path>
                </g>
                <path d="M17.5666642,17.140091 C17.4650859,17.140091 17.3559748,17.1841571 17.2703752,17.2697777 C17.1909386,17.3492337 17.1452855,17.4499236 17.1416332,17.55381 C17.1393506,17.6159135 17.1516769,17.7054156 17.2233524,17.7768803 C17.3504965,17.9045122 17.5780775,17.8832783 17.7305591,17.7303027 C17.8832689,17.5775554 17.9042694,17.3499187 17.7773536,17.2229718 C17.7216567,17.1672612 17.6465573,17.140091 17.5666642,17.140091 M17.4340418,19 C17.0612836,19 16.6942322,18.8620937 16.4164326,18.5842261 C16.1340678,18.3020204 15.9863798,17.921408 16.0009888,17.5129404 C16.014913,17.1197703 16.1790362,16.7469209 16.4634554,16.4626603 C17.0610554,15.8644573 18.0126957,15.84368 18.5845016,16.4158543 C19.1563075,16.9880287 19.1353071,17.9396738 18.5377071,18.5374201 C18.230233,18.8451978 17.8289417,19 17.4340418,19" id="Fill-4" fill="#FFFFFF"></path>
                <path d="M11.6534138,11.7241481 C12.0140345,11.7241481 12.3068276,11.424963 12.3068276,11.056037 L12.3068276,8.44996296 C12.3068276,7.28485185 13.2334828,6.33674074 14.3723103,6.33674074 C15.5113793,6.33674074 16.4385172,7.28485185 16.4385172,8.44996296 L16.4385172,11.056037 C16.4385172,11.424963 16.7308276,11.7241481 17.0916897,11.7241481 C17.4523103,11.7241481 17.7448621,11.424963 17.7448621,11.056037 L17.7448621,8.44996296 C17.7453448,6.54777778 16.2323793,5 14.3723103,5 C12.5132069,5 11,6.54777778 11,8.44996296 L11,11.056037 C11,11.424963 11.2927931,11.7241481 11.6534138,11.7241481" id="Fill-1" fill="#FFFFFF"></path>
            </g>
        </g>
    </g>
</svg>