<svg xmlns="http://www.w3.org/2000/svg" xmlns:xlink="http://www.w3.org/1999/xlink" width="30" height="30" viewBox="0 0 30 30">
    <defs>
        <path id="a" d="M13.834 8.154c0 .854-.326 2.015-.98 3.481a76.875 76.875 0 0 1-.185.416.793.793 0 0 1-.1.17c-.063.088-.135.132-.217.132a.227.227 0 0 1-.182-.077.281.281 0 0 1-.065-.193c0-.046.006-.114.02-.204.013-.09.02-.151.02-.182.025-.35.038-.667.038-.95 0-.52-.045-.986-.135-1.397a4.207 4.207 0 0 0-.375-1.07 2.684 2.684 0 0 0-.618-.78 3.635 3.635 0 0 0-.814-.536 4.406 4.406 0 0 0-1.027-.328 9.827 9.827 0 0 0-1.189-.166c-.398-.031-.85-.046-1.354-.046H4.94V8.4c0 .134-.049.25-.146.348a.47.47 0 0 1-.348.146.48.48 0 0 1-.348-.146L.146 4.795A.475.475 0 0 1 0 4.447c0-.134.049-.25.146-.348L4.1.146A.475.475 0 0 1 4.447 0c.134 0 .25.049.348.146a.475.475 0 0 1 .146.348v1.977h1.73c3.67 0 5.921 1.037 6.755 3.11.273.69.41 1.547.41 2.572h-.002z"/>
    </defs>
    <g fill="none" fill-rule="evenodd">
        <circle cx="15" cy="15" r="15" fill="#1998ED" fill-rule="nonzero"/>
        <g transform="translate(8 9)">
            <mask id="b" fill="#fff">
                <use xlink:href="#a"/>
            </mask>
            <use fill="#B3B3B3" fill-rule="nonzero" xlink:href="#a"/>
            <g fill="#FFF" mask="url(#b)">
                <path d="M-2-5h21v21H-2z"/>
            </g>
        </g>
    </g>
</svg>
