<svg xmlns="http://www.w3.org/2000/svg" width="28" height="28" viewBox="0 0 28 28">
    <g fill="none" fill-rule="evenodd">
        <path fill="#B12027" d="M28.001 14c0 7.733-6.267 14.001-14 14.001s-14-6.268-14-14C.001 6.267 6.268 0 14.001 0s14 6.268 14 14"/>
        <path fill="#FFF" fill-rule="nonzero" d="M17.65 21.686c3.276-1.414 5.569-4.673 5.569-8.467 0-5.085-4.117-9.208-9.2-9.219-5.081-.01-9.19 4.05-9.237 9.132-.036 3.832 2.267 7.13 5.568 8.554.172.074.356-.074.323-.258-.066-.36-.163-.948-.216-1.31-.01-.065-.064-.142-.12-.173-2.329-1.272-3.993-3.764-3.993-6.726 0-4.232 3.424-7.656 7.656-7.656 4.231 0 7.656 3.424 7.656 7.656 0 2.915-1.622 5.431-3.992 6.726-.058.031-.112.108-.121.172-.053.363-.15.95-.216 1.311-.033.184.151.332.323.258zm.427-4.308c1.151-1.087 1.868-2.63 1.86-4.34-.013-3.287-2.73-5.955-6.016-5.913-3.243.043-5.859 2.685-5.859 5.938 0 1.7.715 3.233 1.86 4.315.135.127.354.056.392-.125.076-.372.22-.71.427-1.004.062-.088.053-.208-.02-.29-.708-.8-1.096-1.818-1.096-2.896 0-2.39 1.912-4.33 4.292-4.375 2.42-.044 4.455 1.948 4.458 4.369.001 1.08-.386 2.101-1.097 2.903-.072.08-.08.2-.019.29.207.294.351.631.427 1.003.037.18.257.252.391.125zM14 15.25c1.38 0 2.5-1.12 2.5-2.5s-1.12-2.5-2.5-2.5-2.5 1.12-2.5 2.5 1.12 2.5 2.5 2.5zM14 24c.737 0 1.496-.173 1.696-.915.301-1.119.804-3.901.804-5.189 0-1.373-1.216-1.708-2.5-1.708s-2.5.335-2.5 1.708c0 1.295.505 4.078.804 5.189.2.742.96.915 1.696.915z"/>
    </g>
</svg>
