<svg xmlns="http://www.w3.org/2000/svg" width="28" height="28" viewBox="0 0 28 28">
    <g fill="none" fill-rule="evenodd">
        <path fill="#B12027" d="M28 14c0 7.731-6.267 14-14 14C6.268 28 0 21.73 0 14 .001 6.268 6.268 0 14 0c7.733 0 14 6.268 14 14"/>
        <path fill="#FFF" d="M14.084 8.68c.825 0 1.584.119 2.276.359.693.24 1.292.609 1.798 1.108.506.5.902 1.142 1.188 1.927.286.786.43 1.731.43 2.836v2.696c0 1.092-.144 2.034-.43 2.826-.286.792-.682 1.438-1.188 1.937-.506.5-1.105.869-1.798 1.108-.692.24-1.45.36-2.276.36-.826 0-1.585-.12-2.277-.36a4.723 4.723 0 0 1-1.797-1.108c-.506-.5-.902-1.145-1.188-1.937a6.13 6.13 0 0 1-.154-.51h3.552a.646.646 0 1 0 0-1.29H8.445a10.762 10.762 0 0 1-.053-1.026v-.265h3.828a.646.646 0 1 0 0-1.291H8.392v-1.14c0-.052.005-.1.006-.151h3.822a.646.646 0 0 0 0-1.29H8.49c.07-.51.18-.976.332-1.395.286-.785.682-1.428 1.188-1.927a4.718 4.718 0 0 1 1.797-1.108 6.912 6.912 0 0 1 2.277-.36zm-.026-4.517c1.096 0 2.135.168 3.088.498a7.312 7.312 0 0 1 2.768 1.711c.778.768 1.383 1.735 1.799 2.875.312.857.5 1.832.559 2.906.295.073 2.02.604 2.02 3.023 0 2.56-1.752 2.945-1.865 2.967h-.006l-.387.582h-.903v-7.486l.014.003a8.27 8.27 0 0 0-.402-1.642c-.362-.994-.886-1.833-1.555-2.493a6.295 6.295 0 0 0-2.38-1.47 8.401 8.401 0 0 0-2.75-.441c-.981 0-1.907.148-2.75.44-.91.315-1.71.81-2.38 1.471-.67.66-1.193 1.499-1.555 2.494-.108.294-.2.616-.276.956l-.228 1.427v6.74h-.903l-.387-.58s-1.871-.323-1.871-2.968c0-2.646 2.064-3.034 2.064-3.034l.13-.71.01-.002.172-1.067c.09-.414.196-.779.318-1.116.416-1.14 1.022-2.107 1.8-2.875a7.306 7.306 0 0 1 2.768-1.711 9.415 9.415 0 0 1 3.088-.498z"/>
    </g>
</svg>
