<svg xmlns="http://www.w3.org/2000/svg" width="28" height="28" viewBox="0 0 28 28">
    <g fill="none" fill-rule="evenodd">
        <path fill="#0082C6" d="M28 14c0 7.732-6.269 14-14 14-7.732 0-14-6.268-14-14C0 6.269 6.268 0 14 0c7.731 0 14 6.269 14 14"/>
        <path fill="#FFF" fill-rule="nonzero" d="M19.062 13.578c0 .232.19.422.422.422h.282c.232 0 .421-.19.421-.422v-.281a.423.423 0 0 0-.421-.422h-.282a.423.423 0 0 0-.422.422v.281zm.422 2.672h.282c.232 0 .421-.19.421-.422v-.281a.423.423 0 0 0-.421-.422h-.282a.423.423 0 0 0-.422.422v.281c0 .232.19.422.422.422zm-1.247-4.782l-.04-.034c-.102-.052-.681-.213-3.97-.242l-1.07-.004c-4.143 0-4.909.18-5.05.242l-.04.028c-.046.044-.233.396-.253 3.18v.974c.02 2.939.228 3.168.259 3.185l.022.018c.101.057.763.248 5.061.248l1.062-.005c3.184-.027 3.834-.175 3.967-.235l.044-.03c.047-.047.253-.437.253-3.668l-.006-.929c-.033-2.24-.185-2.652-.239-2.728zM23 10.063c0-.932-.756-1.688-1.688-1.688H16.36l1.898-1.94a.84.84 0 0 0-.01-1.192.84.84 0 0 0-1.192.01L14 8.375l-3.055-3.122a.843.843 0 0 0-1.202 1.181l1.898 1.941H6.688C5.756 8.375 5 9.131 5 10.063v10.124c0 .932.756 1.688 1.688 1.688h.562V23h1.688l.376-1.125h9.372L19.062 23h1.688v-1.125h.562c.932 0 1.688-.756 1.688-1.688V10.063zm-1.688 0v10.124H6.688V10.063h14.624z"/>
    </g>
</svg>
