<svg xmlns="http://www.w3.org/2000/svg" xmlns:xlink="http://www.w3.org/1999/xlink" width="28" height="28" viewBox="0 0 28 28">
    <defs>
        <path id="a" d="M.662 12.28h18.676V.185H.662V12.28zm5.514 0l-1.245 3.735L.662 12.28h5.514zm3.914-9.997a1.51 1.51 0 0 1 1.394.946l.046.133.491 1.68c.097.332.175.625.232.874l.04.178c.053.259.233.885.262.987l.004.015s.32-.742.385-1.032c.05-.22.11-.455.181-.703l.074-.252.855-2.826h1.38c.254 0 .487.103.654.287l.079.098c.144.21.192.46.136.703l-.037.12-2.44 6.412h-2.432l-2.043-5.35H7.362v5.35H4.838v-5.35H3.246v-2.27h6.844z"/>
    </defs>
    <g fill="none" fill-rule="evenodd">
        <path fill="#0082C6" d="M28 14c0 7.732-6.269 14-14 14-7.732 0-14-6.268-14-14C0 6.269 6.268 0 14 0c7.731 0 14 6.269 14 14"/>
        <use fill="#FFF" transform="translate(4 7.9)" xlink:href="#a"/>
    </g>
</svg>
