<svg xmlns="http://www.w3.org/2000/svg" xmlns:xlink="http://www.w3.org/1999/xlink" width="28" height="28" viewBox="0 0 28 28">
    <defs>
        <path id="a" d="M0 0v28h28V0z"/>
    </defs>
    <g fill="none" fill-rule="evenodd">
        <g>
            <mask id="b" fill="#fff">
                <use xlink:href="#a"/>
            </mask>
            <path fill="#F9A51C" d="M28 14c0 7.731-6.269 14-14 14-7.732 0-14-6.269-14-14C0 6.268 6.268 0 14 0c7.731 0 14 6.268 14 14" mask="url(#b)"/>
        </g>
        <path fill="#FFF" fill-rule="nonzero" d="M20 10.976c0 1.037-.367 1.995-1.101 2.875-.734.88-1.736 1.575-3.006 2.086-1.27.51-2.651.766-4.143.766-.672 0-1.36-.06-2.062-.18a10.065 10.065 0 0 1-3.258 1.432c-.281.067-.617.127-1.008.18h-.035a.377.377 0 0 1-.24-.09.366.366 0 0 1-.135-.234.212.212 0 0 1-.012-.073c0-.027.002-.051.006-.073a.237.237 0 0 1 .024-.068l.03-.056.04-.061c.028-.041.043-.06.047-.056.004.004.022-.015.053-.056.03-.04.046-.057.046-.05.039-.045.129-.138.27-.279.141-.141.243-.251.305-.33.062-.078.15-.186.264-.324.114-.139.211-.282.292-.431.081-.149.161-.313.24-.493-.969-.537-1.73-1.197-2.284-1.98-.554-.782-.832-1.617-.833-2.505 0-1.036.367-1.994 1.101-2.874.734-.88 1.736-1.576 3.006-2.086 1.27-.51 2.651-.766 4.143-.766s2.873.255 4.143.766c1.27.51 2.272 1.206 3.006 2.086.734.88 1.101 1.838 1.101 2.874zm4.5 2.863c0 .895-.277 1.732-.832 2.511-.555.78-1.317 1.438-2.285 1.975.078.178.158.342.24.492.082.15.18.293.293.43l.264.326c.063.08.164.189.304.33a7.548 7.548 0 0 1 .316.328c.023.026.041.045.053.056.012.012.027.03.046.056a.518.518 0 0 1 .041.062l.03.055.024.068c.016.045.018.069.006.073-.012.004-.016.028-.012.073a.41.41 0 0 1-.153.246.365.365 0 0 1-.258.079 10.428 10.428 0 0 1-1.008-.18 10.065 10.065 0 0 1-3.258-1.43c-.703.118-1.39.178-2.063.178-2.117 0-3.96-.492-5.53-1.476.453.03.797.045 1.032.045a12.91 12.91 0 0 0 3.621-.504c1.156-.336 2.187-.817 3.093-1.443.977-.687 1.727-1.477 2.25-2.371a5.506 5.506 0 0 0 .515-4.54c1.008.53 1.805 1.194 2.39 1.992.587.798.88 1.655.88 2.572l.001-.003z"/>
    </g>
</svg>
