<svg xmlns="http://www.w3.org/2000/svg" xmlns:xlink="http://www.w3.org/1999/xlink" width="28" height="28" viewBox="0 0 28 28">
    <defs>
        <path id="a" d="M0 0h28v28H0z"/>
    </defs>
    <g fill="none" fill-rule="evenodd">
        <g>
            <mask id="b" fill="#fff">
                <use xlink:href="#a"/>
            </mask>
            <path fill="#0082C6" d="M28 14c0 7.73-6.268 14-14 14S0 21.73 0 14C0 6.268 6.268 0 14 0s14 6.268 14 14" mask="url(#b)"/>
        </g>
        <path fill="#FFF" d="M19.22 17.507c-2.034-.47-3.928-.88-3.011-2.614C19.002 9.62 16.948 6.8 14 6.8c-3.008 0-5.008 2.927-2.208 8.092.945 1.743-1.02 2.155-3.011 2.614-1.82.42-1.886 1.323-1.88 2.902l.002.59h14.192l.003-.572c.007-1.59-.055-2.497-1.88-2.92"/>
    </g>
</svg>
