<?xml version="1.0" encoding="utf-8"?>
<!-- Generator: Adobe Illustrator 24.1.0, SVG Export Plug-In . SVG Version: 6.00 Build 0)  -->
<svg version="1.1" id="Layer_1" xmlns="http://www.w3.org/2000/svg" xmlns:xlink="http://www.w3.org/1999/xlink" x="0px" y="0px"
	 viewBox="0 0 20 20" style="enable-background:new 0 0 20 20;" xml:space="preserve">
<style type="text/css">
	.st0{fill-rule:evenodd;clip-rule:evenodd;fill:#50AE5E;}
	.st1{fill:none;stroke:#50AE5E;}
</style>
<g>
	<path class="st0" d="M15,0.3L13.6,3L13,0 M19,2.7L16,4l1.6-3 M19.9,7L17,5.8L20,5 M2.6,13.4C4,12.3,6,12.2,8.7,13.2
		c2.7,1,4.8,0.3,6.2-2.2c0.4,5.9-1.7,8.9-6.4,8.9C3.9,19.9,1.9,17.7,2.6,13.4z"/>
	<path class="st0" d="M2.6,10.4C4,9.3,6,9.2,8.7,10.2c2.7,1,4.8,0.3,6.2-2.2c0.4,5.9-1.7,8.9-6.4,8.9C3.9,16.9,1.9,14.7,2.6,10.4z"
		/>
	<path class="st0" d="M2.9,5.9v9.8c0,1.8,1.4,3.3,3.2,3.3h4.8c1.8,0,3.2-1.5,3.2-3.3V5.9H2.9z M10.9,20H6.1C3.8,20,2,18.1,2,15.8V5
		h13v10.8C15,18.1,13.2,20,10.9,20z"/>
	<path class="st1" d="M14.9,9c1.5,0.1,2.2,1.1,2.2,2.9c0,1.9-0.7,2.9-2.2,3"/>
</g>
</svg>
