<?xml version="1.0" encoding="UTF-8"?>
<svg width="480px" height="647px" viewBox="0 0 480 647" version="1.1" xmlns="http://www.w3.org/2000/svg" xmlns:xlink="http://www.w3.org/1999/xlink">
    <!-- Generator: Sketch 52.6 (67491) - http://www.bohemiancoding.com/sketch -->
    <title>ig invalid placeholder web</title>
    <desc>Created with Sketch.</desc>
    <g id="Page-1" stroke="none" stroke-width="1" fill="none" fill-rule="evenodd">
        <g id="Desktop-HD-Copy" transform="translate(-62.000000, -189.000000)">
            <g id="ig-invalid-placeholder-web" transform="translate(62.000000, 189.000000)">
                <rect id="bg" stroke="#D7D7D7" fill="#FFFFFF" x="0.5" y="0.5" width="479" height="646" rx="2"></rect>
                <rect id="ig-image" fill="#F4F4F4" x="0" y="73" width="480" height="480"></rect>
                <circle id="avatar" fill="#F4F4F4" cx="38" cy="35" r="17"></circle>
                <rect id="follower-counts" fill="#F4F4F4" x="69" y="39" width="60" height="14" rx="2"></rect>
                <rect id="username" fill="#F4F4F4" x="69" y="19" width="100" height="14" rx="2"></rect>
                <path d="M33.4763363,562.55554 C36.6653278,565.277393 36.8329423,570.162465 33.9739731,573.112779 L24.1479895,583.258669 C23.5132361,583.913754 22.4824064,583.913754 21.8476529,583.258669 L12.0216694,573.112779 C9.16780788,570.162465 9.33542246,565.277393 12.5244139,562.55554 C15.3071632,560.184141 19.4508139,560.610665 21.9999937,563.246182 L23.0003751,564.277011 L24.0007565,563.246182 C26.5549945,560.610665 30.693587,560.184141 33.4763363,562.55554 Z" id="heart" fill="#F4F4F4"></path>
                <path d="M65.9646695,583.41317 C63.9451603,584.572495 61.5552195,585.163133 59.0191203,584.960802 C53.4209697,584.514193 48.781641,580.097719 48.0941932,574.524008 C47.1289066,566.697661 53.7204504,560.115669 61.5495043,561.097362 C66.9852401,561.778955 71.3401255,566.223066 71.9280561,571.669733 C72.2448225,574.604291 71.4976843,577.351125 70.0391982,579.573026 C69.983045,579.658564 69.9579958,579.75975 69.9694963,579.861425 L70.4413036,584.030815 L66.2653992,583.357276 C66.1613958,583.34051 66.0560434,583.360723 65.9646695,583.41317 Z" id="comment" fill="#F4F4F4"></path>
                <path d="M454,582.333333 L454,563 C454,561.895426 454.895426,561 456,561 L468,561 C469.104574,561 470,561.895426 470,563 L470,582.333333 L462,577.666667 L454,582.333333 Z" id="bookmark" fill="#F4F4F4"></path>
                <g id="Group" transform="translate(85.000000, 270.000000)" fill="#484848">
                    <path d="M155.005515,12.1779262 C162.099839,12.1779262 167.822074,17.9001607 167.822074,24.9944854 C167.822074,32.0887011 162.099839,37.8109357 155.005515,37.8109357 C147.911299,37.8109357 142.189064,32.0887011 142.189064,24.9944854 C142.189064,17.9001607 147.911299,12.1779262 155.005515,12.1779262 Z M155.005515,33.3268066 C159.590078,33.3268066 163.337945,29.5900505 163.337945,24.9944854 C163.337945,20.3988113 159.601189,16.6620553 155.005515,16.6620553 C150.40995,16.6620553 146.673193,20.3988113 146.673193,24.9944854 C146.673193,29.5900505 150.42106,33.3268066 155.005515,33.3268066 Z M171.33574,11.6536431 C171.33574,13.3157065 169.9972,14.6430262 168.346357,14.6430262 C166.684293,14.6430262 165.356974,13.3044867 165.356974,11.6536431 C165.356974,10.0027995 166.695513,8.66426003 168.346357,8.66426003 C169.9972,8.66426003 171.33574,10.0027995 171.33574,11.6536431 Z M179.824268,14.6876877 C180.058577,18.8148512 180.058577,31.1740107 179.824268,35.3011741 C179.623509,39.3056817 178.708818,42.8527895 175.786427,45.7752892 C172.863928,48.7088998 169.31682,49.6235902 165.312312,49.8132384 C161.185149,50.0474393 148.814769,50.0474393 144.687606,49.8132384 C140.683207,49.6123704 137.14721,48.6977889 134.2136,45.7752892 C131.279989,42.8527895 130.365299,39.3056817 130.175651,35.3011741 C129.94145,31.1740107 129.94145,18.8037402 130.175651,14.6765768 C130.37641,10.6720693 131.279989,7.1249614 134.2136,4.20246172 C137.14721,1.27996205 140.694318,0.36527161 144.687606,0.175732327 C148.814769,-0.0585774423 161.185149,-0.0585774423 165.312312,0.175732327 C169.31682,0.376491464 172.863928,1.2911819 175.786427,4.21357265 C178.720038,7.13607232 179.634728,10.6831802 179.824268,14.6876877 Z M174.49244,39.7295307 C175.797538,36.4500654 175.496345,28.6308074 175.496345,24.9944854 C175.496345,21.3580544 175.797538,13.5499074 174.49244,10.2593311 C173.611301,8.06187368 171.926906,6.3775884 169.740669,5.50755951 C166.461204,4.21357265 158.641946,4.50365489 155.005515,4.50365489 C151.369193,4.50365489 143.561046,4.20246172 140.270469,5.50755951 C138.073012,6.38869932 136.388727,8.07309354 135.518698,10.2593311 C134.224711,13.5387965 134.514793,21.3580544 134.514793,24.9944854 C134.514793,28.6308074 134.2136,36.4389545 135.518698,39.7295307 C136.399837,41.9269882 138.084232,43.6112734 140.270469,44.4813023 C143.549935,45.7752892 151.369193,45.4852069 155.005515,45.4852069 C158.641946,45.4852069 166.450093,45.7864001 169.740669,44.4813023 C171.938126,43.6001625 173.622412,41.9157683 174.49244,39.7295307 Z" id="instagram"></path>
                    <path d="M11.6196289,69.203125 L14.9067383,78.484375 L18.1762695,69.203125 L21.6391602,69.203125 L21.6391602,82 L18.9936523,82 L18.9936523,78.5019531 L19.2573242,72.4638672 L15.8032227,82 L13.9926758,82 L10.5473633,72.4726562 L10.8110352,78.5019531 L10.8110352,82 L8.17431641,82 L8.17431641,69.203125 L11.6196289,69.203125 Z M23.3793945,77.1572266 C23.3793945,76.2138625 23.5610333,75.3730506 23.9243164,74.6347656 C24.2875995,73.8964807 24.8105435,73.3251973 25.4931641,72.9208984 C26.1757847,72.5165995 26.9682572,72.3144531 27.8706055,72.3144531 C29.153815,72.3144531 30.2011678,72.7070273 31.0126953,73.4921875 C31.8242228,74.2773477 32.276855,75.3437433 32.3706055,76.6914062 L32.3881836,77.3417969 C32.3881836,78.8007885 31.9809611,79.971187 31.1665039,80.8530273 C30.3520467,81.7348677 29.2592842,82.1757812 27.8881836,82.1757812 C26.517083,82.1757812 25.4228556,81.7363325 24.6054688,80.8574219 C23.7880819,79.9785112 23.3793945,78.7832107 23.3793945,77.2714844 L23.3793945,77.1572266 Z M25.9194336,77.3417969 C25.9194336,78.2441451 26.0893538,78.9340796 26.4291992,79.4116211 C26.7690447,79.8891625 27.2553679,80.1279297 27.8881836,80.1279297 C28.503421,80.1279297 28.983885,79.8920922 29.3295898,79.4204102 C29.6752947,78.9487281 29.8481445,78.1943411 29.8481445,77.1572266 C29.8481445,76.2724565 29.6752947,75.5869165 29.3295898,75.1005859 C28.983885,74.6142554 28.4975617,74.3710938 27.8706055,74.3710938 C27.2495086,74.3710938 26.7690447,74.6127906 26.4291992,75.0961914 C26.0893538,75.5795923 25.9194336,76.3281199 25.9194336,77.3417969 Z M36.4311523,73.5273438 C37.1049838,72.718746 37.9516551,72.3144531 38.9711914,72.3144531 C41.0337017,72.3144531 42.0795897,73.5126833 42.1088867,75.9091797 L42.1088867,82 L39.5688477,82 L39.5688477,75.9794922 C39.5688477,75.4345676 39.4516613,75.0317396 39.2172852,74.7709961 C38.982909,74.5102526 38.5932644,74.3798828 38.0483398,74.3798828 C37.3041955,74.3798828 36.7651384,74.6669893 36.4311523,75.2412109 L36.4311523,82 L33.8911133,82 L33.8911133,68.5 L36.4311523,68.5 L36.4311523,73.5273438 Z M43.6293945,77.1572266 C43.6293945,76.2138625 43.8110333,75.3730506 44.1743164,74.6347656 C44.5375995,73.8964807 45.0605435,73.3251973 45.7431641,72.9208984 C46.4257847,72.5165995 47.2182572,72.3144531 48.1206055,72.3144531 C49.403815,72.3144531 50.4511678,72.7070273 51.2626953,73.4921875 C52.0742228,74.2773477 52.526855,75.3437433 52.6206055,76.6914062 L52.6381836,77.3417969 C52.6381836,78.8007885 52.2309611,79.971187 51.4165039,80.8530273 C50.6020467,81.7348677 49.5092842,82.1757812 48.1381836,82.1757812 C46.767083,82.1757812 45.6728556,81.7363325 44.8554688,80.8574219 C44.0380819,79.9785112 43.6293945,78.7832107 43.6293945,77.2714844 L43.6293945,77.1572266 Z M46.1694336,77.3417969 C46.1694336,78.2441451 46.3393538,78.9340796 46.6791992,79.4116211 C47.0190447,79.8891625 47.5053679,80.1279297 48.1381836,80.1279297 C48.753421,80.1279297 49.233885,79.8920922 49.5795898,79.4204102 C49.9252947,78.9487281 50.0981445,78.1943411 50.0981445,77.1572266 C50.0981445,76.2724565 49.9252947,75.5869165 49.5795898,75.1005859 C49.233885,74.6142554 48.7475617,74.3710938 48.1206055,74.3710938 C47.4995086,74.3710938 47.0190447,74.6127906 46.6791992,75.0961914 C46.3393538,75.5795923 46.1694336,76.3281199 46.1694336,77.3417969 Z M56.5405273,72.4902344 L56.6196289,73.5888672 C57.2993198,72.7392536 58.2104435,72.3144531 59.3530273,72.3144531 C60.3608449,72.3144531 61.1108374,72.6103486 61.6030273,73.2021484 C62.0952173,73.7939483 62.3471679,74.678705 62.3588867,75.8564453 L62.3588867,82 L59.8188477,82 L59.8188477,75.9179688 C59.8188477,75.3789036 59.7016613,74.9877942 59.4672852,74.7446289 C59.232909,74.5014636 58.8432644,74.3798828 58.2983398,74.3798828 C57.5834925,74.3798828 57.0473651,74.6845673 56.6899414,75.2939453 L56.6899414,82 L54.1499023,82 L54.1499023,72.4902344 L56.5405273,72.4902344 Z M71.1479492,72.4902344 L71.2270508,73.5537109 C71.9008823,72.7275349 72.812006,72.3144531 73.9604492,72.3144531 C75.1850647,72.3144531 76.0258766,72.7978467 76.4829102,73.7646484 C77.1508822,72.7978467 78.1030212,72.3144531 79.3393555,72.3144531 C80.3706106,72.3144531 81.1381811,72.6147431 81.6420898,73.215332 C82.1459986,73.815921 82.3979492,74.7197205 82.3979492,75.9267578 L82.3979492,82 L79.8491211,82 L79.8491211,75.9355469 C79.8491211,75.3964817 79.7436534,75.0024427 79.5327148,74.753418 C79.3217763,74.5043933 78.9497097,74.3798828 78.4165039,74.3798828 C77.6547813,74.3798828 77.1274429,74.7431604 76.8344727,75.4697266 L76.8432617,82 L74.3032227,82 L74.3032227,75.9443359 C74.3032227,75.3935519 74.1948253,74.9951184 73.9780273,74.7490234 C73.7612294,74.5029285 73.3920925,74.3798828 72.8706055,74.3798828 C72.1498987,74.3798828 71.6284196,74.6787079 71.3061523,75.2763672 L71.3061523,82 L68.7661133,82 L68.7661133,72.4902344 L71.1479492,72.4902344 Z M89.8598633,82 C89.7426752,81.7714832 89.6577151,81.4873064 89.6049805,81.1474609 C88.989743,81.8330112 88.1899463,82.1757812 87.2055664,82.1757812 C86.2739211,82.1757812 85.5019562,81.9062527 84.8896484,81.3671875 C84.2773407,80.8281223 83.9711914,80.1484416 83.9711914,79.328125 C83.9711914,78.3203075 84.3447228,77.5468777 85.0917969,77.0078125 C85.8388709,76.4687473 86.91845,76.1962891 88.3305664,76.1904297 L89.4995117,76.1904297 L89.4995117,75.6455078 C89.4995117,75.2060525 89.3867199,74.8544935 89.1611328,74.5908203 C88.9355457,74.3271471 88.5795923,74.1953125 88.0932617,74.1953125 C87.6655252,74.1953125 87.3300793,74.2978505 87.0869141,74.5029297 C86.8437488,74.7080088 86.722168,74.989256 86.722168,75.3466797 L84.1821289,75.3466797 C84.1821289,74.7958957 84.3520491,74.2861352 84.6918945,73.8173828 C85.03174,73.3486305 85.5122039,72.9809584 86.1333008,72.7143555 C86.7543976,72.4477526 87.4516563,72.3144531 88.2250977,72.3144531 C89.3969785,72.3144531 90.327145,72.6088838 91.015625,73.1977539 C91.704105,73.786624 92.0483398,74.6142525 92.0483398,75.6806641 L92.0483398,79.8027344 C92.0541992,80.7050826 92.1801746,81.387693 92.4262695,81.8505859 L92.4262695,82 L89.8598633,82 Z M87.7592773,80.2333984 C88.1342792,80.2333984 88.4799789,80.1499032 88.7963867,79.9829102 C89.1127946,79.8159171 89.3471672,79.5917983 89.4995117,79.3105469 L89.4995117,77.6757812 L88.550293,77.6757812 C87.2788022,77.6757812 86.6020512,78.11523 86.5200195,78.9941406 L86.5112305,79.1435547 C86.5112305,79.4599625 86.6225575,79.7207021 86.8452148,79.9257812 C87.0678722,80.1308604 87.3725567,80.2333984 87.7592773,80.2333984 Z M99.5102539,82 C99.3930658,81.7714832 99.3081057,81.4873064 99.2553711,81.1474609 C98.6401336,81.8330112 97.840337,82.1757812 96.855957,82.1757812 C95.9243117,82.1757812 95.1523468,81.9062527 94.5400391,81.3671875 C93.9277313,80.8281223 93.621582,80.1484416 93.621582,79.328125 C93.621582,78.3203075 93.9951135,77.5468777 94.7421875,77.0078125 C95.4892615,76.4687473 96.5688406,76.1962891 97.980957,76.1904297 L99.1499023,76.1904297 L99.1499023,75.6455078 C99.1499023,75.2060525 99.0371105,74.8544935 98.8115234,74.5908203 C98.5859364,74.3271471 98.2299829,74.1953125 97.7436523,74.1953125 C97.3159158,74.1953125 96.98047,74.2978505 96.7373047,74.5029297 C96.4941394,74.7080088 96.3725586,74.989256 96.3725586,75.3466797 L93.8325195,75.3466797 C93.8325195,74.7958957 94.0024397,74.2861352 94.3422852,73.8173828 C94.6821306,73.3486305 95.1625946,72.9809584 95.7836914,72.7143555 C96.4047883,72.4477526 97.1020469,72.3144531 97.8754883,72.3144531 C99.0473691,72.3144531 99.9775356,72.6088838 100.666016,73.1977539 C101.354496,73.786624 101.69873,74.6142525 101.69873,75.6806641 L101.69873,79.8027344 C101.70459,80.7050826 101.830565,81.387693 102.07666,81.8505859 L102.07666,82 L99.5102539,82 Z M97.409668,80.2333984 C97.7846698,80.2333984 98.1303695,80.1499032 98.4467773,79.9829102 C98.7631852,79.8159171 98.9975578,79.5917983 99.1499023,79.3105469 L99.1499023,77.6757812 L98.2006836,77.6757812 C96.9291929,77.6757812 96.2524418,78.11523 96.1704102,78.9941406 L96.1616211,79.1435547 C96.1616211,79.4599625 96.2729481,79.7207021 96.4956055,79.9257812 C96.7182628,80.1308604 97.0229473,80.2333984 97.409668,80.2333984 Z M104.344238,82 L104.344238,74.3535156 L102.929199,74.3535156 L102.929199,72.4902344 L104.344238,72.4902344 L104.344238,71.6816406 C104.344238,70.615229 104.650388,69.7876006 105.262695,69.1987305 C105.875003,68.6098603 106.731928,68.3154297 107.833496,68.3154297 C108.18506,68.3154297 108.61572,68.3740229 109.125488,68.4912109 L109.099121,70.4599609 C108.888183,70.4072263 108.630373,70.3808594 108.325684,70.3808594 C107.370601,70.3808594 106.893066,70.8290971 106.893066,71.7255859 L106.893066,72.4902344 L108.782715,72.4902344 L108.782715,74.3535156 L106.893066,74.3535156 L106.893066,82 L104.344238,82 Z M110.760254,85.2080078 L109.433105,84.5136719 L109.749512,83.9423828 C110.142092,83.2275355 110.344238,82.5156285 110.355957,81.8066406 L110.355957,79.8378906 L112.500488,79.8378906 L112.491699,81.5957031 C112.48584,82.246097 112.321779,82.9023404 111.999512,83.5644531 C111.677244,84.2265658 111.264163,84.7744119 110.760254,85.2080078 Z M121.658691,82 L119.109863,82 L119.109863,68.5 L121.658691,68.5 L121.658691,82 Z M126.431152,82 L123.882324,82 L123.882324,72.4902344 L126.431152,72.4902344 L126.431152,82 Z M123.73291,70.0292969 C123.73291,69.6484356 123.86035,69.3349622 124.115234,69.0888672 C124.370118,68.8427722 124.717283,68.7197266 125.156738,68.7197266 C125.590334,68.7197266 125.936034,68.8427722 126.193848,69.0888672 C126.451661,69.3349622 126.580566,69.6484356 126.580566,70.0292969 C126.580566,70.4160176 126.450197,70.7324206 126.189453,70.9785156 C125.92871,71.2246106 125.584475,71.3476562 125.156738,71.3476562 C124.729002,71.3476562 124.384767,71.2246106 124.124023,70.9785156 C123.86328,70.7324206 123.73291,70.4160176 123.73291,70.0292969 Z M130.86084,72.4902344 L130.939941,73.5888672 C131.619632,72.7392536 132.530756,72.3144531 133.67334,72.3144531 C134.681157,72.3144531 135.43115,72.6103486 135.92334,73.2021484 C136.41553,73.7939483 136.66748,74.678705 136.679199,75.8564453 L136.679199,82 L134.13916,82 L134.13916,75.9179688 C134.13916,75.3789036 134.021974,74.9877942 133.787598,74.7446289 C133.553221,74.5014636 133.163577,74.3798828 132.618652,74.3798828 C131.903805,74.3798828 131.367678,74.6845673 131.010254,75.2939453 L131.010254,82 L128.470215,82 L128.470215,72.4902344 L130.86084,72.4902344 Z M142.058105,78.1855469 L141.144043,79.0996094 L141.144043,82 L138.604004,82 L138.604004,68.5 L141.144043,68.5 L141.144043,75.9794922 L141.63623,75.3466797 L144.070801,72.4902344 L147.120605,72.4902344 L143.684082,76.4541016 L147.419434,82 L144.501465,82 L142.058105,78.1855469 Z M155.672363,82 L153.035645,82 L153.035645,69.203125 L155.672363,69.203125 L155.672363,82 Z M160.286621,72.4902344 L160.365723,73.5888672 C161.045414,72.7392536 161.956537,72.3144531 163.099121,72.3144531 C164.106939,72.3144531 164.856931,72.6103486 165.349121,73.2021484 C165.841311,73.7939483 166.093262,74.678705 166.10498,75.8564453 L166.10498,82 L163.564941,82 L163.564941,75.9179688 C163.564941,75.3789036 163.447755,74.9877942 163.213379,74.7446289 C162.979003,74.5014636 162.589358,74.3798828 162.044434,74.3798828 C161.329586,74.3798828 160.793459,74.6845673 160.436035,75.2939453 L160.436035,82 L157.895996,82 L157.895996,72.4902344 L160.286621,72.4902344 Z M173.180176,79.3720703 C173.180176,79.0615219 173.026369,78.8168954 172.71875,78.6381836 C172.411131,78.4594718 171.917484,78.2998054 171.237793,78.1591797 C168.976063,77.6845679 167.845215,76.72364 167.845215,75.2763672 C167.845215,74.432613 168.195309,73.7280302 168.895508,73.1625977 C169.595707,72.5971651 170.511225,72.3144531 171.64209,72.3144531 C172.849127,72.3144531 173.81445,72.59863 174.538086,73.1669922 C175.261722,73.7353544 175.623535,74.4736283 175.623535,75.3818359 L173.083496,75.3818359 C173.083496,75.0185529 172.96631,74.7182629 172.731934,74.480957 C172.497557,74.2436512 172.13135,74.125 171.633301,74.125 C171.205564,74.125 170.874513,74.2216787 170.640137,74.4150391 C170.405761,74.6083994 170.288574,74.8544907 170.288574,75.1533203 C170.288574,75.4345717 170.421874,75.6616202 170.688477,75.8344727 C170.955079,76.0073251 171.404782,76.1567377 172.037598,76.2827148 C172.670413,76.408692 173.203611,76.5507805 173.637207,76.7089844 C174.979011,77.2011743 175.649902,78.0537049 175.649902,79.2666016 C175.649902,80.1337934 175.277836,80.8354465 174.533691,81.371582 C173.789547,81.9077175 172.828619,82.1757812 171.650879,82.1757812 C170.854,82.1757812 170.146487,82.0336928 169.52832,81.7495117 C168.910153,81.4653306 168.425295,81.0756861 168.07373,80.5805664 C167.722166,80.0854467 167.546387,79.5507841 167.546387,78.9765625 L169.95459,78.9765625 C169.978027,79.4277366 170.145018,79.7734363 170.455566,80.0136719 C170.766115,80.2539075 171.182126,80.3740234 171.703613,80.3740234 C172.189944,80.3740234 172.557616,80.2817392 172.806641,80.097168 C173.055665,79.9125967 173.180176,79.6708999 173.180176,79.3720703 Z M180.325684,70.1523438 L180.325684,72.4902344 L181.95166,72.4902344 L181.95166,74.3535156 L180.325684,74.3535156 L180.325684,79.0996094 C180.325684,79.4511736 180.393066,79.7031242 180.527832,79.8554688 C180.662598,80.0078133 180.920408,80.0839844 181.30127,80.0839844 C181.582521,80.0839844 181.831542,80.0634768 182.04834,80.0224609 L182.04834,81.9472656 C181.55029,82.0996101 181.0376,82.1757812 180.510254,82.1757812 C178.728995,82.1757812 177.820801,81.2763762 177.785645,79.4775391 L177.785645,74.3535156 L176.396973,74.3535156 L176.396973,72.4902344 L177.785645,72.4902344 L177.785645,70.1523438 L180.325684,70.1523438 Z M188.877441,82 C188.760253,81.7714832 188.675293,81.4873064 188.622559,81.1474609 C188.007321,81.8330112 187.207524,82.1757812 186.223145,82.1757812 C185.291499,82.1757812 184.519534,81.9062527 183.907227,81.3671875 C183.294919,80.8281223 182.98877,80.1484416 182.98877,79.328125 C182.98877,78.3203075 183.362301,77.5468777 184.109375,77.0078125 C184.856449,76.4687473 185.936028,76.1962891 187.348145,76.1904297 L188.51709,76.1904297 L188.51709,75.6455078 C188.51709,75.2060525 188.404298,74.8544935 188.178711,74.5908203 C187.953124,74.3271471 187.59717,74.1953125 187.11084,74.1953125 C186.683103,74.1953125 186.347657,74.2978505 186.104492,74.5029297 C185.861327,74.7080088 185.739746,74.989256 185.739746,75.3466797 L183.199707,75.3466797 C183.199707,74.7958957 183.369627,74.2861352 183.709473,73.8173828 C184.049318,73.3486305 184.529782,72.9809584 185.150879,72.7143555 C185.771976,72.4477526 186.469234,72.3144531 187.242676,72.3144531 C188.414557,72.3144531 189.344723,72.6088838 190.033203,73.1977539 C190.721683,73.786624 191.065918,74.6142525 191.065918,75.6806641 L191.065918,79.8027344 C191.071777,80.7050826 191.197753,81.387693 191.443848,81.8505859 L191.443848,82 L188.877441,82 Z M186.776855,80.2333984 C187.151857,80.2333984 187.497557,80.1499032 187.813965,79.9829102 C188.130373,79.8159171 188.364745,79.5917983 188.51709,79.3105469 L188.51709,77.6757812 L187.567871,77.6757812 C186.29638,77.6757812 185.619629,78.11523 185.537598,78.9941406 L185.528809,79.1435547 C185.528809,79.4599625 185.640136,79.7207021 185.862793,79.9257812 C186.08545,80.1308604 186.390135,80.2333984 186.776855,80.2333984 Z M192.647949,77.1748047 C192.647949,75.715813 192.995114,74.5410201 193.689453,73.6503906 C194.383793,72.7597612 195.319818,72.3144531 196.497559,72.3144531 C197.540533,72.3144531 198.352048,72.6718714 198.932129,73.3867188 L199.037598,72.4902344 L201.340332,72.4902344 L201.340332,81.6835938 C201.340332,82.5156292 201.151369,83.2392547 200.773438,83.8544922 C200.395506,84.4697296 199.863773,84.938475 199.178223,85.2607422 C198.492672,85.5830094 197.689946,85.7441406 196.77002,85.7441406 C196.07275,85.7441406 195.39307,85.6049819 194.730957,85.3266602 C194.068844,85.0483385 193.567873,84.6894553 193.228027,84.25 L194.353027,82.703125 C194.985843,83.4121129 195.753413,83.7666016 196.655762,83.7666016 C197.329593,83.7666016 197.854002,83.5864276 198.229004,83.2260742 C198.604006,82.8657209 198.791504,82.3544955 198.791504,81.6923828 L198.791504,81.1826172 C198.205563,81.8447299 197.435063,82.1757812 196.47998,82.1757812 C195.337397,82.1757812 194.413089,81.7290084 193.707031,80.8354492 C193.000973,79.9418901 192.647949,78.7568433 192.647949,77.2802734 L192.647949,77.1748047 Z M195.187988,77.359375 C195.187988,78.2207074 195.360838,78.8959936 195.706543,79.3852539 C196.052248,79.8745142 196.526852,80.1191406 197.130371,80.1191406 C197.903812,80.1191406 198.457518,79.8291045 198.791504,79.2490234 L198.791504,75.25 C198.451658,74.669919 197.903812,74.3798828 197.147949,74.3798828 C196.538571,74.3798828 196.059572,74.6289038 195.710938,75.1269531 C195.362303,75.6250025 195.187988,76.3691357 195.187988,77.359375 Z M208.635254,74.8720703 C208.289549,74.8251951 207.984865,74.8017578 207.721191,74.8017578 C206.760249,74.8017578 206.130373,75.1269499 205.831543,75.7773438 L205.831543,82 L203.291504,82 L203.291504,72.4902344 L205.690918,72.4902344 L205.76123,73.6240234 C206.270999,72.7509722 206.977046,72.3144531 207.879395,72.3144531 C208.160646,72.3144531 208.424315,72.3525387 208.67041,72.4287109 L208.635254,74.8720703 Z M215.367676,82 C215.250488,81.7714832 215.165528,81.4873064 215.112793,81.1474609 C214.497556,81.8330112 213.697759,82.1757812 212.713379,82.1757812 C211.781734,82.1757812 211.009769,81.9062527 210.397461,81.3671875 C209.785153,80.8281223 209.479004,80.1484416 209.479004,79.328125 C209.479004,78.3203075 209.852535,77.5468777 210.599609,77.0078125 C211.346683,76.4687473 212.426262,76.1962891 213.838379,76.1904297 L215.007324,76.1904297 L215.007324,75.6455078 C215.007324,75.2060525 214.894532,74.8544935 214.668945,74.5908203 C214.443358,74.3271471 214.087405,74.1953125 213.601074,74.1953125 C213.173338,74.1953125 212.837892,74.2978505 212.594727,74.5029297 C212.351561,74.7080088 212.22998,74.989256 212.22998,75.3466797 L209.689941,75.3466797 C209.689941,74.7958957 209.859862,74.2861352 210.199707,73.8173828 C210.539552,73.3486305 211.020016,72.9809584 211.641113,72.7143555 C212.26221,72.4477526 212.959469,72.3144531 213.73291,72.3144531 C214.904791,72.3144531 215.834957,72.6088838 216.523438,73.1977539 C217.211918,73.786624 217.556152,74.6142525 217.556152,75.6806641 L217.556152,79.8027344 C217.562012,80.7050826 217.687987,81.387693 217.934082,81.8505859 L217.934082,82 L215.367676,82 Z M213.26709,80.2333984 C213.642092,80.2333984 213.987791,80.1499032 214.304199,79.9829102 C214.620607,79.8159171 214.85498,79.5917983 215.007324,79.3105469 L215.007324,77.6757812 L214.058105,77.6757812 C212.786615,77.6757812 212.109864,78.11523 212.027832,78.9941406 L212.019043,79.1435547 C212.019043,79.4599625 212.13037,79.7207021 212.353027,79.9257812 C212.575685,80.1308604 212.880369,80.2333984 213.26709,80.2333984 Z M221.88916,72.4902344 L221.968262,73.5537109 C222.642093,72.7275349 223.553217,72.3144531 224.70166,72.3144531 C225.926276,72.3144531 226.767088,72.7978467 227.224121,73.7646484 C227.892093,72.7978467 228.844232,72.3144531 230.080566,72.3144531 C231.111822,72.3144531 231.879392,72.6147431 232.383301,73.215332 C232.88721,73.815921 233.13916,74.7197205 233.13916,75.9267578 L233.13916,82 L230.590332,82 L230.590332,75.9355469 C230.590332,75.3964817 230.484864,75.0024427 230.273926,74.753418 C230.062987,74.5043933 229.690921,74.3798828 229.157715,74.3798828 C228.395992,74.3798828 227.868654,74.7431604 227.575684,75.4697266 L227.584473,82 L225.044434,82 L225.044434,75.9443359 C225.044434,75.3935519 224.936036,74.9951184 224.719238,74.7490234 C224.50244,74.5029285 224.133303,74.3798828 223.611816,74.3798828 C222.89111,74.3798828 222.369631,74.6787079 222.047363,75.2763672 L222.047363,82 L219.507324,82 L219.507324,72.4902344 L221.88916,72.4902344 Z M242.253418,82 L239.70459,82 L239.70459,72.4902344 L242.253418,72.4902344 L242.253418,82 Z M239.555176,70.0292969 C239.555176,69.6484356 239.682616,69.3349622 239.9375,69.0888672 C240.192384,68.8427722 240.539549,68.7197266 240.979004,68.7197266 C241.4126,68.7197266 241.758299,68.8427722 242.016113,69.0888672 C242.273927,69.3349622 242.402832,69.6484356 242.402832,70.0292969 C242.402832,70.4160176 242.272462,70.7324206 242.011719,70.9785156 C241.750975,71.2246106 241.40674,71.3476562 240.979004,71.3476562 C240.551267,71.3476562 240.207033,71.2246106 239.946289,70.9785156 C239.685546,70.7324206 239.555176,70.4160176 239.555176,70.0292969 Z M246.683105,72.4902344 L246.762207,73.5888672 C247.441898,72.7392536 248.353022,72.3144531 249.495605,72.3144531 C250.503423,72.3144531 251.253416,72.6103486 251.745605,73.2021484 C252.237795,73.7939483 252.489746,74.678705 252.501465,75.8564453 L252.501465,82 L249.961426,82 L249.961426,75.9179688 C249.961426,75.3789036 249.844239,74.9877942 249.609863,74.7446289 C249.375487,74.5014636 248.985843,74.3798828 248.440918,74.3798828 C247.726071,74.3798828 247.189943,74.6845673 246.83252,75.2939453 L246.83252,82 L244.29248,82 L244.29248,72.4902344 L246.683105,72.4902344 Z M257.106934,82 L254.558105,82 L254.558105,72.4902344 L257.106934,72.4902344 L257.106934,82 Z M254.408691,70.0292969 C254.408691,69.6484356 254.536132,69.3349622 254.791016,69.0888672 C255.0459,68.8427722 255.393064,68.7197266 255.83252,68.7197266 C256.266115,68.7197266 256.611815,68.8427722 256.869629,69.0888672 C257.127443,69.3349622 257.256348,69.6484356 257.256348,70.0292969 C257.256348,70.4160176 257.125978,70.7324206 256.865234,70.9785156 C256.604491,71.2246106 256.260256,71.3476562 255.83252,71.3476562 C255.404783,71.3476562 255.060548,71.2246106 254.799805,70.9785156 C254.539061,70.7324206 254.408691,70.4160176 254.408691,70.0292969 Z M266.722168,70.1523438 L266.722168,72.4902344 L268.348145,72.4902344 L268.348145,74.3535156 L266.722168,74.3535156 L266.722168,79.0996094 C266.722168,79.4511736 266.78955,79.7031242 266.924316,79.8554688 C267.059083,80.0078133 267.316893,80.0839844 267.697754,80.0839844 C267.979005,80.0839844 268.228026,80.0634768 268.444824,80.0224609 L268.444824,81.9472656 C267.946775,82.0996101 267.434085,82.1757812 266.906738,82.1757812 C265.125479,82.1757812 264.217285,81.2763762 264.182129,79.4775391 L264.182129,74.3535156 L262.793457,74.3535156 L262.793457,72.4902344 L264.182129,72.4902344 L264.182129,70.1523438 L266.722168,70.1523438 Z M272.443848,82 L269.89502,82 L269.89502,72.4902344 L272.443848,72.4902344 L272.443848,82 Z M269.745605,70.0292969 C269.745605,69.6484356 269.873046,69.3349622 270.12793,69.0888672 C270.382814,68.8427722 270.729978,68.7197266 271.169434,68.7197266 C271.60303,68.7197266 271.948729,68.8427722 272.206543,69.0888672 C272.464357,69.3349622 272.593262,69.6484356 272.593262,70.0292969 C272.593262,70.4160176 272.462892,70.7324206 272.202148,70.9785156 C271.941405,71.2246106 271.59717,71.3476562 271.169434,71.3476562 C270.741697,71.3476562 270.397462,71.2246106 270.136719,70.9785156 C269.875975,70.7324206 269.745605,70.4160176 269.745605,70.0292969 Z M274.140137,77.1748047 C274.140137,75.6923754 274.472653,74.5117231 275.137695,73.6328125 C275.802738,72.7539019 276.712397,72.3144531 277.866699,72.3144531 C278.792485,72.3144531 279.557126,72.6601528 280.160645,73.3515625 L280.160645,68.5 L282.709473,68.5 L282.709473,82 L280.415527,82 L280.29248,80.9892578 C279.659665,81.7802774 278.84522,82.1757812 277.849121,82.1757812 C276.729975,82.1757812 275.832035,81.7348677 275.155273,80.8530273 C274.478512,79.971187 274.140137,78.745125 274.140137,77.1748047 Z M276.680176,77.359375 C276.680176,78.2500045 276.835448,78.9326148 277.145996,79.4072266 C277.456545,79.8818383 277.907712,80.1191406 278.499512,80.1191406 C279.284672,80.1191406 279.838377,79.7880892 280.160645,79.1259766 L280.160645,75.3730469 C279.844237,74.7109342 279.296391,74.3798828 278.51709,74.3798828 C277.292474,74.3798828 276.680176,75.3730369 276.680176,77.359375 Z M290.188965,82 C290.071777,81.7714832 289.986817,81.4873064 289.934082,81.1474609 C289.318845,81.8330112 288.519048,82.1757812 287.534668,82.1757812 C286.603023,82.1757812 285.831058,81.9062527 285.21875,81.3671875 C284.606442,80.8281223 284.300293,80.1484416 284.300293,79.328125 C284.300293,78.3203075 284.673824,77.5468777 285.420898,77.0078125 C286.167972,76.4687473 287.247552,76.1962891 288.659668,76.1904297 L289.828613,76.1904297 L289.828613,75.6455078 C289.828613,75.2060525 289.715821,74.8544935 289.490234,74.5908203 C289.264647,74.3271471 288.908694,74.1953125 288.422363,74.1953125 C287.994627,74.1953125 287.659181,74.2978505 287.416016,74.5029297 C287.17285,74.7080088 287.05127,74.989256 287.05127,75.3466797 L284.51123,75.3466797 C284.51123,74.7958957 284.681151,74.2861352 285.020996,73.8173828 C285.360842,73.3486305 285.841305,72.9809584 286.462402,72.7143555 C287.083499,72.4477526 287.780758,72.3144531 288.554199,72.3144531 C289.72608,72.3144531 290.656247,72.6088838 291.344727,73.1977539 C292.033207,73.786624 292.377441,74.6142525 292.377441,75.6806641 L292.377441,79.8027344 C292.383301,80.7050826 292.509276,81.387693 292.755371,81.8505859 L292.755371,82 L290.188965,82 Z M288.088379,80.2333984 C288.463381,80.2333984 288.80908,80.1499032 289.125488,79.9829102 C289.441896,79.8159171 289.676269,79.5917983 289.828613,79.3105469 L289.828613,77.6757812 L288.879395,77.6757812 C287.607904,77.6757812 286.931153,78.11523 286.849121,78.9941406 L286.840332,79.1435547 C286.840332,79.4599625 286.951659,79.7207021 287.174316,79.9257812 C287.396974,80.1308604 287.701658,80.2333984 288.088379,80.2333984 Z M297.782715,78.1855469 L296.868652,79.0996094 L296.868652,82 L294.328613,82 L294.328613,68.5 L296.868652,68.5 L296.868652,75.9794922 L297.36084,75.3466797 L299.79541,72.4902344 L302.845215,72.4902344 L299.408691,76.4541016 L303.144043,82 L300.226074,82 L297.782715,78.1855469 Z M140.317871,99.8974609 L142.084473,93.4902344 L144.73877,93.4902344 L141.530762,103 L139.10498,103 L135.896973,93.4902344 L138.55127,93.4902344 L140.317871,99.8974609 Z M151.365723,103 C151.248535,102.771483 151.163574,102.487306 151.11084,102.147461 C150.495602,102.833011 149.695806,103.175781 148.711426,103.175781 C147.77978,103.175781 147.007816,102.906253 146.395508,102.367188 C145.7832,101.828122 145.477051,101.148442 145.477051,100.328125 C145.477051,99.3203075 145.850582,98.5468777 146.597656,98.0078125 C147.34473,97.4687473 148.424309,97.1962891 149.836426,97.1904297 L151.005371,97.1904297 L151.005371,96.6455078 C151.005371,96.2060525 150.892579,95.8544935 150.666992,95.5908203 C150.441405,95.3271471 150.085452,95.1953125 149.599121,95.1953125 C149.171385,95.1953125 148.835939,95.2978505 148.592773,95.5029297 C148.349608,95.7080088 148.228027,95.989256 148.228027,96.3466797 L145.687988,96.3466797 C145.687988,95.7958957 145.857908,95.2861352 146.197754,94.8173828 C146.537599,94.3486305 147.018063,93.9809584 147.63916,93.7143555 C148.260257,93.4477526 148.957516,93.3144531 149.730957,93.3144531 C150.902838,93.3144531 151.833004,93.6088838 152.521484,94.1977539 C153.209964,94.786624 153.554199,95.6142525 153.554199,96.6806641 L153.554199,100.802734 C153.560059,101.705083 153.686034,102.387693 153.932129,102.850586 L153.932129,103 L151.365723,103 Z M149.265137,101.233398 C149.640139,101.233398 149.985838,101.149903 150.302246,100.98291 C150.618654,100.815917 150.853027,100.591798 151.005371,100.310547 L151.005371,98.6757812 L150.056152,98.6757812 C148.784662,98.6757812 148.107911,99.11523 148.025879,99.9941406 L148.01709,100.143555 C148.01709,100.459963 148.128417,100.720702 148.351074,100.925781 C148.573732,101.13086 148.878416,101.233398 149.265137,101.233398 Z M158.186035,103 L155.637207,103 L155.637207,89.5 L158.186035,89.5 L158.186035,103 Z M162.958496,103 L160.409668,103 L160.409668,93.4902344 L162.958496,93.4902344 L162.958496,103 Z M160.260254,91.0292969 C160.260254,90.6484356 160.387694,90.3349622 160.642578,90.0888672 C160.897462,89.8427722 161.244627,89.7197266 161.684082,89.7197266 C162.117678,89.7197266 162.463378,89.8427722 162.721191,90.0888672 C162.979005,90.3349622 163.10791,90.6484356 163.10791,91.0292969 C163.10791,91.4160176 162.97754,91.7324206 162.716797,91.9785156 C162.456053,92.2246106 162.111819,92.3476562 161.684082,92.3476562 C161.256346,92.3476562 160.912111,92.2246106 160.651367,91.9785156 C160.390624,91.7324206 160.260254,91.4160176 160.260254,91.0292969 Z M164.654785,98.1748047 C164.654785,96.6923754 164.987301,95.5117231 165.652344,94.6328125 C166.317386,93.7539019 167.227045,93.3144531 168.381348,93.3144531 C169.307134,93.3144531 170.071774,93.6601528 170.675293,94.3515625 L170.675293,89.5 L173.224121,89.5 L173.224121,103 L170.930176,103 L170.807129,101.989258 C170.174313,102.780277 169.359868,103.175781 168.36377,103.175781 C167.244623,103.175781 166.346683,102.734868 165.669922,101.853027 C164.993161,100.971187 164.654785,99.745125 164.654785,98.1748047 Z M167.194824,98.359375 C167.194824,99.2500045 167.350096,99.9326148 167.660645,100.407227 C167.971193,100.881838 168.42236,101.119141 169.01416,101.119141 C169.79932,101.119141 170.353026,100.788089 170.675293,100.125977 L170.675293,96.3730469 C170.358885,95.7109342 169.811039,95.3798828 169.031738,95.3798828 C167.807123,95.3798828 167.194824,96.3730369 167.194824,98.359375 Z" id="Mohon-maaf,-link-Ins"></path>
                </g>
            </g>
        </g>
    </g>
</svg>