<svg xmlns="http://www.w3.org/2000/svg" width="253" height="195" viewBox="0 0 253 195">
    <g fill="none" fill-rule="evenodd">
        <path fill="#41AFAA" d="M12.18 145.17s4.87 22.887 20.453 22.887c15.582 0 24.835-2.435 28.244-18.018 3.408-15.583-48.697-4.87-48.697-4.87"/>
        <path fill="#41AFAA" d="M26.79 143.708s26.295-12.66 66.226-10.713l8.765 12.662s-38.957.973-50.644 9.739c-11.687 8.765-26.296 9.739-24.348-11.688"/>
        <path fill="#6DE2DE" d="M183.591 144.682s-22.4 18.505-27.919 20.453c-5.519 1.948-19.478-22.076-24.023-26.296-4.545-4.22-9.415-6.168-14.61-6.168-5.194 0-6.817 10.713-5.843 11.038.974.324 11.038 8.116 11.038 8.116l11.038 6.817c4.87 5.519 14.609 18.18 25.971 19.803 11.363 1.623 31.815-2.272 36.36-7.466 4.545-5.195-.65-27.92-12.012-26.297"/>
        <path fill="#41AFAA" d="M131.649 138.839c-4.545-4.22-9.415-6.168-14.61-6.168-5.194 0-6.817 10.713-5.843 11.037.974.325 11.038 8.117 11.038 8.117l1.973 1.218c.093-.201.214-.355.3-.57 2.32-5.801 5.267-9.971 7.842-12.894-.245-.271-.493-.547-.7-.74"/>
        <path fill="#6DE2DE" d="M115.523 129.393s22.275 24.36 20.814 57.381a71.34 71.34 0 0 1-29.66 6.422 72.403 72.403 0 0 1-19.524-2.663c4.718-20.502 8.933-50.248-2.583-61.768l30.953.628z"/>
        <path fill="#41AFAA" d="M119.981 135.118c-6.296 3.66-15.773 7.061-29.134 7.05-1.092-5.486-3.05-10.177-6.277-13.403l30.953.628s1.868 2.069 4.458 5.725"/>
        <path fill="#6DE2DE" d="M37.354 66.856c0 36.895 29.906 66.801 66.798 66.801 36.895 0 66.805-29.906 66.805-66.801 0-36.894-29.91-66.802-66.805-66.802-36.892 0-66.798 29.908-66.798 66.802"/>
        <path fill="#FFF" d="M110.467 58.332c0 11.162 6.79 20.213 15.164 20.213 8.37 0 15.157-9.05 15.157-20.213 0-11.166-6.787-20.215-15.157-20.215-8.373 0-15.164 9.05-15.164 20.215"/>
        <path fill="#021A23" d="M114.256 59.437c0 7.588 4.88 13.738 10.896 13.738 6.018 0 10.9-6.15 10.9-13.738 0-7.588-4.882-13.74-10.9-13.74-6.015 0-10.896 6.152-10.896 13.74"/>
        <path fill="#FFF" d="M119.787 56.198c0 3.27 1.91 5.921 4.262 5.921 2.355 0 4.264-2.651 4.264-5.921 0-3.27-1.91-5.922-4.264-5.922-2.352 0-4.262 2.652-4.262 5.922M67.519 58.332c0 11.162 6.787 20.213 15.16 20.213 8.37 0 15.157-9.05 15.157-20.213 0-11.166-6.787-20.215-15.157-20.215-8.373 0-15.16 9.05-15.16 20.215"/>
        <path fill="#021A23" d="M71.308 59.437c0 7.588 4.877 13.738 10.896 13.738 6.018 0 10.9-6.15 10.9-13.738 0-7.588-4.882-13.74-10.9-13.74-6.02 0-10.896 6.152-10.896 13.74"/>
        <path fill="#FFF" d="M76.828 56.198c0 3.27 1.914 5.921 4.265 5.921 2.355 0 4.264-2.651 4.264-5.921 0-3.27-1.91-5.922-4.264-5.922-2.351 0-4.265 2.652-4.265 5.922"/>
        <path fill="#B8F4F1" d="M102.364 193.048c-3.896-33.041-3.843-51.25 12.683-48.495 14.723 2.454 13.21 36.283 12.52 45.516a71.573 71.573 0 0 1-20.89 3.127 73.33 73.33 0 0 1-4.313-.148"/>
        <path fill="#C0C0C0" d="M195.111 193.379s-1.339 1.46-3.652 1.46-3.652-1.46-3.652-1.46v-87.822h7.304v87.822z"/>
        <path fill="#929292" d="M187.807 117.555h7.304v-11.998h-7.304z"/>
        <path fill="#27756F" d="M192.827 133.943s-7.3-1.137-12.42.106c-5.12 1.242-8.594 5.47-10.209 6.083-1.615.613.629 10.489-.15 14.094-.78 3.604-2.087 8.712 2.506 8.973 4.593.261 16.944-7.94 16.944-7.94l3.33-21.316z"/>
        <path fill="#6DE2DE" d="M205.595 174.712s2.459-7.217-.795-8.788c0 0 3.19-6.024-.082-9.594 0 0 2.813-8.02-.44-9.592 0 0 2.427-10.814-1.183-11.983-3.61-1.168-9.387-3.118-14.777-1.873-5.39 1.245-10.393 5.685-15.056 7.724 0 0-.676 5.203 2.591 8.373 0 0-3.596.43-2.469 6.018 1.128 5.587 3.264 2.77 3.264 2.77s-3.926 4.032-2.819 7.22c1.107 3.19 3.62 2.368 3.62 2.368s-4.299 2.435-2.465 6.418c1.834 3.982 6.517 4.342 14.074 3.878 7.557-.464 16.537-2.939 16.537-2.939"/>
        <path fill="#41AFAA" d="M176.734 146.673c3.52 1.17 11.294-5.493 16.705-4.34 5.41 1.154 4.338 2.062 4.338 2.062s-3.238.327-7.815 1.866c-4.578 1.538-11.857 2.799-12.1 6.099-.242 3.3.849 4.49 2.741 4.774 1.893.284 12.672-2.206 16.19-1.337 0 0-16.99 2.543-17.502 5.846-.512 3.302.309 4.495 2.471 4.776 2.163.282 14.578-.424 14.578-.424s-13.223 1.012-14.282 3.42c-1.06 2.408-1.315 4.209.318 5.694 1.633 1.486 12.435 1.693 12.435 1.693l-.298.237c-1.807.275-3.669.502-5.455.612-7.557.464-12.24.104-14.074-3.878-1.834-3.982 2.466-6.418 2.466-6.418s-2.514.821-3.62-2.368c-.976-2.809 1.948-6.264 2.66-7.049-.5.512-2.154 1.772-3.106-2.941-1.128-5.588 2.47-6.018 2.47-6.018-3.268-3.17-2.592-8.373-2.592-8.373s-.049 4.897 3.472 6.067"/>
        <path fill="#B8F4F1" d="M201.13 136.571s-9.576-4.116-12.084-2.696c-2.508 1.42-.494 5.401-.485 6.4.008 1 8.832 1.325 10.817 1.908 1.985.583 5.38-2.444 1.752-5.612M201.407 147.962s-7.579-2.134-9.732-1.316c-2.153.818-6.1 2.45-6.1 2.45s.403 4.994.775 6.39 9.886-1.683 11.326-1.695c1.44-.012 5.939-.25 5.92-2.45-.019-2.198-2.189-3.379-2.189-3.379M201.854 158.153l-8.107-.73s-6.467 1.653-7.362 2.26c-.895.608.393 3.795.226 5.396-.166 1.6 12.052-1.102 13.674-.916 1.621.186 3.588-1.43 3.39-3.427-.196-1.997-1.821-2.583-1.821-2.583M203.735 167.732s-9.178.278-11.337.496c-2.158.218-5.211 1.043-5.211 1.043s-1.22 4.808.227 5.595c1.447.788 12.78-.108 15.29-1.329 2.51-1.22 1.755-5.412 1.031-5.805"/>
        <path fill="#6DE2DE" d="M51.023 143.385s9.669 4.016 19.986.802 12.775 12.283 1.444 11.85c-11.33-.434-14.46-1.298-20.396 3.126-5.936 4.424-15.627 7.81-21.82 3.407-6.194-4.404-18.52 3.644-21.28-5.874-2.762-9.518 3.347-14.568-1.703-20.677-5.05-6.108-8.802-26.678-4.981-28.317 3.82-1.64 9.493 24.174 12.967 23.786 3.476-.388-7.937-29.807-2.973-33.152 4.965-3.344 9.969 17.57 12.212 28.966 2.243 11.396-3.988-36.8.804-39.518 4.792-2.719 10.464 23.095 10.915 43.427.45 20.33 4.925-27.604 4.602-33.756-.323-6.15 2.699-7.337 5.656-5.848 2.956 1.49 3.73 27.972 2.8 33.778-.929 5.806-1.988 16.964 1.767 18"/>
        <path fill="#41AFAA" d="M49.928 143.694s-6.458-1.783-11.995 4.043c-5.536 5.826-17.894 10.09-20.056 1.499-2.162-8.59-2.569-14.778 1.41-14.959 3.978-.181 12.856 7.066 15.396 5.529 2.54-1.538 15.245 3.888 15.245 3.888"/>
        <path fill="#B8F4F1" d="M34.64 156.376s8.063-10.909 11.365-10.67c3.302.237 12.604 3.141 11.514 5.871-1.09 2.73-8.376 10.823-14.84 11.06-6.464.236-12.259-4.395-8.04-6.261"/>
        <path fill="#510D3A" d="M127.753 104.427c0 12.55-9.303 22.725-20.777 22.725-11.475 0-20.777-10.175-20.777-22.725s9.302-22.725 20.777-22.725c11.474 0 20.777 10.174 20.777 22.725"/>
        <path fill="#FFF" d="M122.704 89.606c-3.81-4.833-9.436-7.904-15.728-7.904-5.778 0-11 2.583-14.767 6.746l30.495 1.158z"/>
        <path fill="#6DE2DE" d="M64.772 36.901s32.464 25.322 38.308 25.322c5.843 0 36.36-22.725 36.36-22.725s-7.142-17.53-22.725-19.478C101.132 18.072 64.772 36.9 64.772 36.9"/>
        <path fill="#FFF" d="M222.233 4.077h-61.495L129.99 57.333l30.748 53.257h61.495l30.747-53.257z"/>
        <path fill="#ED1C24" d="M219.316 9.13h-55.661l-27.83 48.203 27.83 48.204h55.66l27.831-48.204z"/>
        <path fill="#FFF" d="M156.028 62.228l5.167-.533c.112 1.382.34 2.434.684 3.158.56 1.171 1.358 1.757 2.398 1.757.775 0 1.372-.3 1.792-.898.42-.6.63-1.293.63-2.083 0-.75-.2-1.42-.6-2.013-.4-.592-1.327-1.15-2.782-1.677-2.381-.882-4.08-2.053-5.095-3.513-1.023-1.461-1.534-3.323-1.534-5.586 0-1.487.261-2.891.785-4.214.523-1.322 1.31-2.361 2.362-3.118 1.05-.756 2.491-1.135 4.322-1.135 2.245 0 3.958.688 5.137 2.063 1.179 1.375 1.88 3.562 2.104 6.562l-5.12.493c-.136-1.302-.421-2.25-.857-2.842-.435-.592-1.037-.888-1.804-.888-.631 0-1.107.22-1.427.661-.32.441-.479.977-.479 1.609 0 .46.132.875.396 1.243.255.382.863.737 1.822 1.066 2.374.842 4.074 1.694 5.101 2.556a7.466 7.466 0 0 1 2.242 3.207c.467 1.276.701 2.704.701 4.283 0 1.855-.312 3.566-.935 5.131-.623 1.566-1.494 2.754-2.613 3.563-1.12.809-2.53 1.213-4.232 1.213-2.99 0-5.06-.947-6.21-2.842-1.152-1.894-1.803-4.302-1.955-7.223M173.472 42.867h16.508v7.144h-5.538v21.79h-5.431V50.01h-5.539zM196.346 57.393c0 2.92.33 5.02.99 6.296.659 1.276 1.556 1.914 2.691 1.914 1.167 0 2.07-.625 2.71-1.875.639-1.25.959-3.493.959-6.73 0-2.724-.334-4.714-1.001-5.97-.668-1.257-1.573-1.885-2.716-1.885-1.095 0-1.974.638-2.637 1.914-.664 1.277-.996 3.389-.996 6.336m-5.43-.04c0-4.723.799-8.4 2.398-11.032 1.598-2.632 3.824-3.948 6.677-3.948 2.925 0 5.18 1.293 6.762 3.878 1.582 2.586 2.374 6.208 2.374 10.865 0 3.382-.346 6.155-1.038 8.32-.69 2.164-1.69 3.848-2.997 5.052-1.307 1.204-2.935 1.806-4.885 1.806-1.982 0-3.623-.52-4.922-1.56-1.298-1.039-2.351-2.684-3.159-4.934-.807-2.25-1.21-5.065-1.21-8.447M217.483 55.202h1.33c1.047 0 1.782-.3 2.206-.898.424-.598.636-1.365.636-2.3 0-.907-.184-1.677-.552-2.309-.367-.631-1.059-.947-2.074-.947h-1.546v6.454zm-5.455-12.335h9.027c1.966 0 3.44.77 4.418 2.309.979 1.54 1.469 3.73 1.469 6.572 0 2.921-.534 5.204-1.6 6.849-1.068 1.644-2.696 2.467-4.886 2.467h-2.973V71.8h-5.455V42.867z"/>
    </g>
</svg>
