<svg xmlns="http://www.w3.org/2000/svg" width="70" height="71" viewBox="0 0 70 71">
    <g fill="none" fill-rule="evenodd">
        <ellipse cx="35.357" cy="34.79" fill="#C8C7C6" rx="34.643" ry="34.79"/>
        <path fill="#A4A4A5" d="M.714 38.34c1.81 17.55 16.633 31.24 34.646 31.24a34.79 34.79 0 0 0 28.926-15.44L.714 38.34z"/>
        <path fill="#FFF" fill-rule="nonzero" d="M68.243 47.446c-1.126-1.184-.38-5.848-3.142-6.3 0 0-.203-3.134-1.878-3.022-.815.052-1.607.451-2.518.868l-.086.039-.032.014-.185-.354c5.665-10.45 2.905-23.46-6.515-30.718-9.42-7.257-22.719-6.617-31.396 1.511-1.859-1.354-4.285-1.94-6.656-2.19-1.422-.15-2.785.098-4.184.31-.13.02-.255.04-.379.063-1.447.256-2.391.662-3.566 1.7A20.221 20.221 0 0 0 4.72 12.62a17.506 17.506 0 0 0-3.024 6.921c-1.13 5.718.487 11.42 1.886 16.94 1.122 4.426 2.773 7.3 4.55 9.047 5.912 8.477 14.875 8.304 18.742 8.786 2.672.334 4.217.087 5.17-.492-1.355 6.584-2.424 15.383-2.424 15.383 12.49 3.059 17.437-.942 17.437-.942.271-4.213-.794-10.317-1.741-14.72C53.082 68.52 61.16 67.6 64.896 63.307c1.775-2.04 1.53-5.802.858-9.25.501-.466 1.029-.901 1.581-1.305 2.604-1.848 2.037-4.12.908-5.306zM17.85 15.423a10.92 10.92 0 0 0-2.487-1.89c.564-.469 1.055-1.203 1.818-1.271 1.326-.119 1.476.602 1.677 1.505a24.28 24.28 0 0 0-1.008 1.656zm2.842 32.004c-2.16-.533-3.66-1.551-4.682-2.58-.1-4.692-6.02-13.419-5.595-14.013.47-.655 1.984-.641 3.415-1.023.376.041.757-.006 1.112-.137a24.224 24.224 0 0 0 12.67 18.851c-2.196-.213-4.71-.555-6.92-1.098zm28.636 3.35l-.677-1.355a24.266 24.266 0 0 0 4.473-2.517c.475 1.23 1.191 2.558 1.657 3.512.794 1.616.232 4.447 2.194 3.709.57 3.209.904 6.126.385 6.582-.806.706-5.941-6.292-8.032-9.932z"/>
        <path fill="#0E82C6" d="M53.329 46.383c.21.112.426.213.648.3.85 3.567 3.087 13.718 2.07 14.603-1.02.885-8.647-10.081-8.912-11.82-1.242.528-2.968.493-3.699 1.975-.056.471-.08.945-.07 1.42 7.955 16.288 16.375 15.43 20.21 11.024 3.105-3.57.025-12.415-.705-15.617.103-.03.204-.069.301-.114 2.065-.996-12.86-3.551-9.843-1.771z"/>
        <path fill="#02679A" d="M53.977 46.688c.85 3.566 3.087 13.718 2.07 14.603a.506.506 0 0 1-.311.133c.529 2.236 2.47 3.923 3.247 1.783.884-2.434-1.657-14.096-1.657-14.096a7.114 7.114 0 0 0-2.369-2.876c-1.702-1.188-4.647-1.632-1.63.15.21.114.428.215.65.303zM48.012 51.352s-2.332 2.275-4.052 2.59l-.825-3.556 3.493-1.787 1.384 2.753z"/>
        <path fill="#0E82C6" d="M12.706 42.338s1.291 4.343 6.67 5.667c5.379 1.324 12.568 1.45 12.568 1.45s.903 1.505.203 3.16c-.7 1.655-1.9 2.859-6.59 2.275-4.69-.584-16.877-.202-22.025-15.462l9.174 2.91z"/>
        <path fill="#02679A" d="M31.944 49.455s.903 1.505.203 3.16c-.498 1.189-1.28 2.129-3.396 2.36.37-2.095-.665-4.346-1.543-5.792 2.71.233 4.736.272 4.736.272z"/>
        <path fill="#0E82C6" d="M42.677 48.597s3.534 12.948 3.064 20.244c0 0-4.948 4-17.438.942 0 0 2.356-19.302 4.477-22.118 2.12-2.817 9.897.932 9.897.932z"/>
        <path fill="#26A8E0" d="M31.035 70.353c-1.304-18.59 3.99-16.551 9.286-15.4 4.487.974 3 11.62 2.353 15.26-2.344.67-6.129 1.13-11.639.14z"/>
        <path fill="#02679A" d="M43.526 52.011c-3.191 1.149-7.442 1.854-12.45.778.551-2.433 1.137-4.377 1.704-5.132 2.12-2.826 9.897.94 9.897.94s.369 1.352.85 3.414z"/>
        <path fill="#0E82C6" d="M62 27.745c0 13.379-10.857 24.224-24.25 24.224S13.5 41.124 13.5 27.745c0-13.38 10.857-24.225 24.25-24.225 6.432 0 12.6 2.552 17.148 7.095A24.212 24.212 0 0 1 62 27.745z"/>
        <path fill="#FFF" d="M35.456 24.657c0 4.048-2.465 7.33-5.505 7.33s-5.502-3.285-5.502-7.33c0-4.044 2.464-7.33 5.502-7.33s5.505 3.278 5.505 7.33z"/>
        <path fill="#081C24" d="M34.081 25.056c0 2.75-1.773 4.982-3.955 4.982-2.183 0-3.957-2.232-3.957-4.982s1.771-4.983 3.957-4.983c2.185 0 3.955 2.231 3.955 4.983z"/>
        <path fill="#FFF" d="M32.073 23.88c0 1.186-.694 2.148-1.547 2.148-.852 0-1.548-.962-1.548-2.147 0-1.186.693-2.149 1.548-2.149.856 0 1.547.97 1.547 2.149zM52.452 25.589c0 4.565-2.779 8.265-6.207 8.265s-6.202-3.7-6.202-8.265 2.777-8.265 6.202-8.265 6.207 3.7 6.207 8.265z"/>
        <path fill="#081C24" d="M50.9 26.041c0 3.103-1.996 5.617-4.459 5.617-2.463 0-4.461-2.514-4.461-5.617 0-3.102 1.997-5.618 4.461-5.618 2.464 0 4.46 2.516 4.46 5.618z"/>
        <path fill="#FFF" d="M48.642 24.716c0 1.338-.785 2.422-1.746 2.422s-1.746-1.084-1.746-2.422.782-2.421 1.746-2.421 1.746 1.085 1.746 2.42z"/>
        <path fill="#056594" d="M58.376 39.636a.665.665 0 0 1-.277.895l-.34.178a.665.665 0 0 1-.895-.277l-2.466-4.678a.663.663 0 0 1 .279-.892l.339-.18a.665.665 0 0 1 .895.276l2.465 4.678z"/>
        <path fill="#056594" fill-rule="nonzero" d="M45.655 17.328a10.441 10.441 0 0 0 1.771 19.216 10.461 10.461 0 0 0 11.138-3.298 10.435 10.435 0 0 0 1.211-11.54c-2.689-5.105-9.011-7.064-14.12-4.378zm8.578 16.279c-3.89 2.045-8.704.553-10.752-3.333a7.948 7.948 0 0 1 3.336-10.74c3.89-2.046 8.704-.555 10.752 3.331a7.945 7.945 0 0 1-3.336 10.742z"/>
        <path fill="#056594" d="M56.687 38.268a1.654 1.654 0 0 1 2.233.693l4.422 8.391a1.651 1.651 0 0 1-.692 2.232 1.654 1.654 0 0 1-2.234-.693l-4.421-8.392a1.651 1.651 0 0 1 .692-2.231z"/>
        <path fill="#B3B3B3" d="M57.093 39.209a.663.663 0 0 1-.279.893l-.339.18a.665.665 0 0 1-.894-.277l-2.467-4.68a.663.663 0 0 1 .277-.892l.34-.178a.665.665 0 0 1 .895.276l2.467 4.678z"/>
        <path fill="#FEDA00" fill-rule="nonzero" d="M44.377 16.9c-5.107 2.688-7.068 9.002-4.379 14.105 2.69 5.102 9.01 7.062 14.118 4.376 5.109-2.686 7.07-9 4.382-14.103a10.45 10.45 0 0 0-6.153-5.11 10.463 10.463 0 0 0-7.968.733zm8.586 16.278a7.967 7.967 0 0 1-8.797-.92 7.947 7.947 0 0 1-2.515-8.472 7.962 7.962 0 1 1 14.647-1.348 7.943 7.943 0 0 1-3.349 10.74h.014z"/>
        <path fill="#383838" d="M55.402 37.84a1.654 1.654 0 0 1 2.233.693l4.421 8.392a1.651 1.651 0 0 1-.692 2.231 1.654 1.654 0 0 1-2.233-.693l-4.422-8.391a1.651 1.651 0 0 1 .693-2.232z"/>
        <path fill="#014C69" d="M53.702 43.325s-1.873.229-2.31 1.62c-.437 1.39 1.229 4.325 2.075 6.054.847 1.729.151 4.852 2.645 3.5 2.495-1.353 3.909-2.876 3.679-3.175-.23-.3-3.432-4.29-3.432-4.29l-2.657-3.709z"/>
        <path fill="#0B83C6" d="M63.785 41.724s-.203-3.134-1.878-3.023c-1.675.112-3.25 1.68-5.97 1.857-2.721.178-4.754 1.15-3.156 3.142l1.6 1.994s-.582.668.36 2.285c.841 1.434 3.122 1.299 3.581 2.656.273.81-.102 1.68.29 2.516.564 1.203 1.682 1.301 2.59 2.06 1.075.902 1.187 1.193 2.345.204.827-.701 1.571-1.45 2.467-2.085 2.609-1.848 2.041-4.12.913-5.306-1.128-1.185-.38-5.848-3.142-6.3z"/>
        <path fill="#02679A" d="M55.936 40.558c1.54-.1 2.711-.647 3.74-1.12-.288.524-2.26 1.203-2.762 1.58-1.104.807-1.181 1.231-1.112 2.276.07 1.044 2.84.025 3.868-.252 1.029-.276-2.657 1.117-2.887 2.391-.23 1.275.342 2.077 1.096 2.343.755.266 3.422-.644 3.422-.644s-2.71 1.857-2.547 2.79c.164.932.624 1.531 1.273 1.805.65.274 2.993-.826 2.993-.826s-2.8 2.177-2.216 3.083c.585.906 2.049.811 2.049.811.254 1.062-.461 1.968-1.693 1.505-.805-.301-1.576-1.743-2.085-2.375-.452-.56-1.137-.68-1.624-1.182-.8-.83-.525-2.086-.076-3.049a3.516 3.516 0 0 1-2.633-1.715c-.943-1.617-.362-2.285-.362-2.285l-1.6-1.994c-1.597-1.992.439-2.964 3.156-3.142z"/>
        <path fill="#26A8E0" d="M65.013 44.478s.093-1.79-1.379-1.806c-1.471-.015-5.008 2.107-4.954 2.945.055.838 1.094.663 2.447.47 1.352-.195 3.886-1.61 3.886-1.61zM66.02 48.608s.092-1.789-1.378-1.798c-1.47-.01-5.01 2.106-4.952 2.945.057.838 1.09.662 2.443.469 1.352-.193 3.887-1.616 3.887-1.616zM66.701 50.978s.32-1.491-.703-1.11c-1.025.383-3.984 1.73-3.38 2.95.604 1.22.828 1.416 1.52.739.69-.677 2.563-2.58 2.563-2.58zM62.79 40.95s.212-1.588-.829-1.415c-1.04.173-4.769.94-4.484 2.076.285 1.136 4.627.118 5.312-.66z"/>
        <path fill="#FFF" d="M52.963 33.192a7.982 7.982 0 0 1-8.814-.923 7.962 7.962 0 0 1-2.519-8.488 7.977 7.977 0 1 1 14.675-1.349 7.963 7.963 0 0 1-3.342 10.76z" opacity=".2"/>
        <path stroke="#00384C" stroke-linecap="round" stroke-linejoin="round" stroke-width="1.429" d="M28.359 43.244s5.076-5.576 10.403-5.07c5.328.508 8.373 5.324 8.373 5.324"/>
        <path fill="#FFF" d="M54.266 21.926s2.815 2.435 1.366 7.027c0 0 2.523-3.879-.946-7.796l-.42.77z"/>
        <path fill="#046799" d="M33.253 12.7s-2.121-2.824-4.95-3.53c-2.828-.706-4.948 6.59-4.948 6.59s3.535-6.355 9.898-3.06zM40.321 12.7s2.121-2.824 4.948-3.53c2.827-.706 4.95 6.59 4.95 6.59s-3.535-6.355-9.898-3.06z"/>
        <path fill="#0E82C6" d="M9.956 8.245c.124-.023.249-.042.378-.064 1.4-.212 2.763-.45 4.184-.31 3.64.383 7.414 1.543 9.062 5.116.355.777.364 1.573.364 2.408 0 .984.193 2.455-.643 3.177-1.087.94-2.946.219-3.835-.601-.848-.784-1.388-1.806-1.736-2.897-.39-1.225-.195-2.397-1.865-2.246-.765.069-1.255.802-1.818 1.271 0 0 2.12 1.053 3.887 3.532 1.767 2.478-1.054 4.237-1.054 4.237s4.242 2.117 2.12 3.883c0 0 1.179 1.882.826 3.059-.352 1.177-2.593 4.002-3.889 2.943-1.295-1.06.473-2.118.473-2.118s-.706-1.177-.943-1.648c-.236-.471-.235 1.178-1.884 2.001-1.65.823-3.889.588-4.478 1.411-.589.824 10.956 17.186 2.475 16.949-3.172-.09-7.188-2.943-9.309-11.299C.872 31.53-.74 25.834.386 20.11a17.506 17.506 0 0 1 3.023-6.917 20.221 20.221 0 0 1 2.98-3.248c1.175-1.038 2.12-1.445 3.567-1.7z"/>
        <path fill="#02679A" d="M14.622 14.95c-.753-.663-3.048-1.457-3.048-1.457s3.533-3.265 5.521-2.119c1.989 1.147 1.808 4.105 3.536 5.739 1.275 1.204 2.67-.825 3.313-1.956v.253c0 .984.193 2.455-.643 3.178-1.087.938-2.946.218-3.835-.602-.848-.784-1.388-1.806-1.736-2.897-.39-1.225-.195-2.397-1.865-2.246-.765.069-1.255.802-1.818 1.271 0 0 2.12 1.053 3.887 3.532.267.356.45.767.535 1.203-1.404-1.4-3.348-3.459-3.847-3.9z"/>
        <path fill="#02679A" d="M10.513 13.052c1.284.053 2.53.539 3.534 1.053 0 0 2.12 1.053 3.887 3.532 1.767 2.478-1.054 4.237-1.054 4.237s4.242 2.117 2.12 3.883c0 0 1.179 1.882.826 3.059-.313 1.053-2.116 3.387-3.423 3.16a.927.927 0 0 1 .125-.21c.882-.884 1.943-3.179 1.59-4.768-.352-1.588-4.418-3.707-4.418-3.707s1.944.883 3.358 1.413c1.414.53.176-1.589.176-1.589l-6.014-3.531s3.711.353 4.771.53c1.06.175 1.237-1.236.177-3.355-1.06-2.118-5.655-3.707-5.655-3.707z"/>
        <path fill="#26A8E0" d="M8.982 13.288s6.006 1.89 6.36 3.997c.354 2.106-1.178 1.764-2.944 1.412-1.767-.352-3.888-1.294-4.005-2.236-.118-.941-.002-3.29.589-3.173zM10.983 20.232s5.658 1.648 5.185 3.059c-.473 1.411-4.594-.823-5.539-1.643-.944-.82.354-1.416.354-1.416zM13.575 24.47c1.925.264 3.847 1.353 4.368 3.34.223.84-.087 1.354-.44 2.13-.15.342-.24.803-.633.958-.493.196-.568-.135-.431-.59.262-.866.861-1.397.715-2.416-.781-.2-1.304-.857-2.033-1.118-.524-.188-1.24-.179-1.796-.275-.753-.131-2.56-.265-2.816-1.204-.35-1.298 3.066-.826 3.066-.826z"/>
        <path fill="#02679A" d="M16.14 31.824s-.832-.441-.561-.998a6 6 0 0 1 .825-1.176l-.971-2.06s-2.035 2.708-3.124 2.765c0 0 2.09.56 3.012-2.06l.737 1.325s-.796.707-.883 1.265c-.087.558.964.939.964.939z"/>
        <path fill="#26A8E0" d="M15.931 8.639s3.654.882 5.25 2.06c1.597 1.178 2.358 2.646 1.944 3.761-.414 1.115-.765 2.178-1.657 1.177-.892-1-1.356-3.59-2.65-4.59-1.296-1.001-3.418-.589-5.185-.765-1.767-.176-.53-1.767.354-1.825a8.142 8.142 0 0 1 1.944.182z"/>
        <path fill="#00384C" d="M24.062 11.993s1.943 5.59-.648 6.885c0 0 2.002-.41 2.06-3.471.06-3.06-1.412-3.414-1.412-3.414zM24.71 9.933s3.3 2.824 2.12 5.061l-2.12-5.061z"/>
        <path stroke="#FFF" stroke-width=".714" d="M54.27 3.192v23.919"/>
        <path fill="#353635" d="M56.147 24.987a.654.654 0 0 1-.611.162 1.61 1.61 0 0 0-.035-.177c.35-.064.723-.21.86-.533a.132.132 0 0 0-.07-.173.13.13 0 0 0-.171.07c-.096.228-.405.338-.713.387a1.396 1.396 0 0 0-2.41-.177c-.185-.15-.36-.361-.3-.578a.132.132 0 0 0-.255-.07c-.1.371.174.682.429.883a1.386 1.386 0 0 0-.116.553.463.463 0 0 1-.452-.24.132.132 0 0 0-.24.105c.136.313.437.396.712.397.034.16.095.312.18.452-.209.21-.483.345-.778.382a.131.131 0 1 0 0 .261c.348-.036.674-.188.926-.431a1.4 1.4 0 0 0 .52.362.798.798 0 0 0 .515 1.41.8.8 0 0 0 .515-1.41c.134-.054.26-.13.37-.222.224.13.478.201.737.206.085 0 .17-.008.254-.024a.134.134 0 0 0 .104-.15.131.131 0 0 0-.15-.103 1.16 1.16 0 0 1-.746-.119 1.38 1.38 0 0 0 .315-.8c.053.007.107.011.161.012a.851.851 0 0 0 .628-.26.134.134 0 0 0 0-.186.131.131 0 0 0-.179.01z"/>
    </g>
</svg>
