<?xml version="1.0" encoding="UTF-8"?>
<svg width="74px" height="11px" viewBox="0 0 74 11" version="1.1" xmlns="http://www.w3.org/2000/svg" xmlns:xlink="http://www.w3.org/1999/xlink">
    <!-- Generator: sketchtool 50.2 (55047) - http://www.bohemiancoding.com/sketch -->
    <title>1BA372D8-0CBF-4152-91EA-2946544839A1</title>
    <desc>Created with sketchtool.</desc>
    <defs>
        <polygon id="path-1" points="0.763906578 0.96 11.9472781 0.96 11.9472781 9.9886 0.763906578 9.9886 0.763906578 0.96"></polygon>
        <polygon id="path-3" points="0.498841318 0.96 11.6815781 0.96 11.6815781 9.9886 0.498841318 9.9886 0.498841318 0.96"></polygon>
        <polygon id="path-5" points="2.71050543e-20 0.0533 2.71050543e-20 8.8913 13.5446 8.8913 13.5446 0.0533 0 0.0533"></polygon>
        <polygon id="path-7" points="0.6376 9 11.7646 9 11.7646 0.0693 0.6376 0.0693"></polygon>
    </defs>
    <g id="Symbols" stroke="none" stroke-width="1" fill="none" fill-rule="evenodd">
        <g id="Logo-KASKUS-white">
            <g id="Page-1">
                <g id="Group-3" transform="translate(26.000000, 0.040080)">
                    <mask id="mask-2" fill="white">
                        <use xlink:href="#path-1"></use>
                    </mask>
                    <g id="Clip-2"></g>
                    <path d="M11.8845,6.3926 C11.7225,5.4496 11.1685,4.5466 9.5795,4.4266 C9.5405,4.4226 4.1945,4.4266 4.1845,4.4266 C4.0135,4.4266 3.8565,4.3696 3.7315,4.2726 C3.5915,4.1746 3.4915,4.0316 3.4565,3.8406 C3.4455,3.7886 3.4395,3.7366 3.4395,3.6816 C3.4395,3.2706 3.7725,2.9366 4.1845,2.9366 L7.5245,2.9366 C8.5185,2.9366 8.7655,3.1086 8.8235,3.5066 C8.8495,3.7026 9.0155,3.8526 9.2165,3.8526 C9.2205,3.8526 9.2235,3.8516 9.2275,3.8516 L9.2355,3.8516 L11.5505,3.8516 L11.5505,3.5716 C11.5505,2.0216 11.2575,0.9596 8.1345,0.9596 C8.1345,0.9596 3.5375,0.9606 3.3125,0.9606 C3.2065,0.9606 2.8275,0.9756 2.6675,1.0086 C1.7965,1.1926 0.9215,1.8976 0.8075,3.0446 C0.7995,3.1276 0.7645,3.4186 0.7645,3.7866 C0.7575,4.0536 0.8145,4.4776 0.8265,4.5566 C0.8415,4.6436 0.8605,4.7296 0.8825,4.8156 C0.9155,4.9606 0.9615,5.0976 1.0215,5.2256 C1.3215,5.9266 2.1585,6.4356 3.1335,6.5236 C3.1725,6.5236 8.4585,6.5166 8.5275,6.5236 C8.9375,6.5586 9.2695,6.7996 9.2695,7.2656 C9.2695,7.5846 9.0975,7.7576 8.9365,7.8716 C8.7485,8.0096 8.4775,8.0116 8.4775,8.0116 L4.6575,8.0116 C3.9855,8.0116 3.6125,7.9576 3.5125,7.3436 L3.5125,7.3426 C3.4865,7.1496 3.3215,6.9986 3.1205,6.9986 C3.1155,6.9986 3.1135,6.9996 3.1095,6.9996 L3.0985,6.9996 C3.0965,6.9996 3.0945,6.9986 3.0935,6.9986 L0.7775,6.9986 L0.7775,7.6096 C0.7775,9.5256 1.7665,9.9886 4.2305,9.9886 L9.3995,9.9886 C9.5045,9.9886 9.8835,9.9726 10.0445,9.9396 C10.9145,9.7556 11.7905,9.0516 11.9055,7.9036 C11.9115,7.8216 11.9475,7.5296 11.9465,7.1626 C11.9545,6.8946 11.8985,6.4706 11.8845,6.3926" id="Fill-1" fill="#FFFFFF" mask="url(#mask-2)"></path>
                </g>
                <g id="Group-6" transform="translate(62.000000, 0.040080)">
                    <mask id="mask-4" fill="white">
                        <use xlink:href="#path-3"></use>
                    </mask>
                    <g id="Clip-5"></g>
                    <path d="M11.6188,6.3926 C11.4568,5.4496 10.9018,4.5466 9.3138,4.4266 C9.2748,4.4226 3.9288,4.4266 3.9188,4.4266 C3.7478,4.4266 3.5908,4.3696 3.4648,4.2726 C3.3258,4.1746 3.2248,4.0316 3.1908,3.8406 C3.1798,3.7886 3.1738,3.7366 3.1738,3.6816 C3.1738,3.2706 3.5068,2.9366 3.9188,2.9366 L7.2588,2.9366 C8.2528,2.9366 8.4998,3.1086 8.5578,3.5066 C8.5838,3.7026 8.7488,3.8526 8.9508,3.8526 C8.9548,3.8526 8.9578,3.8516 8.9618,3.8516 L8.9698,3.8516 L11.2848,3.8516 L11.2848,3.5716 C11.2848,2.0216 10.9918,0.9596 7.8688,0.9596 C7.8688,0.9596 3.2718,0.9606 3.0468,0.9606 C2.9398,0.9606 2.5618,0.9756 2.4008,1.0086 C1.5308,1.1926 0.6558,1.8976 0.5418,3.0446 C0.5328,3.1276 0.4988,3.4186 0.4998,3.7866 C0.4908,4.0536 0.5478,4.4776 0.5608,4.5566 C0.5758,4.6436 0.5948,4.7296 0.6158,4.8156 C0.6508,4.9606 0.6948,5.0976 0.7558,5.2256 C1.0558,5.9266 1.8918,6.4356 2.8668,6.5236 C2.9068,6.5236 8.1928,6.5166 8.2618,6.5236 C8.6718,6.5586 9.0038,6.7996 9.0038,7.2656 C9.0038,7.5846 8.8318,7.7576 8.6708,7.8716 C8.4828,8.0096 8.2118,8.0116 8.2118,8.0116 L4.3918,8.0116 C3.7208,8.0116 3.3468,7.9576 3.2468,7.3436 L3.2458,7.3426 C3.2208,7.1496 3.0558,6.9986 2.8538,6.9986 C2.8498,6.9986 2.8478,6.9996 2.8438,6.9996 L2.8338,6.9996 C2.8338,6.9996 2.8288,6.9986 2.8268,6.9986 L0.5118,6.9986 L0.5118,7.6096 C0.5118,9.5256 1.4998,9.9886 3.9648,9.9886 L9.1338,9.9886 C9.2388,9.9886 9.6188,9.9726 9.7788,9.9396 C10.6478,9.7556 11.5248,9.0516 11.6388,7.9036 C11.6458,7.8216 11.6818,7.5296 11.6808,7.1626 C11.6888,6.8946 11.6328,6.4706 11.6188,6.3926" id="Fill-4" fill="#FFFFFF" mask="url(#mask-4)"></path>
                </g>
                <g id="Group-9" transform="translate(0.000000, 1.040080)">
                    <mask id="mask-6" fill="white">
                        <use xlink:href="#path-5"></use>
                    </mask>
                    <g id="Clip-8"></g>
                    <path d="M9.2126,4.7393 C9.1386,4.6683 9.0916,4.5653 9.0916,4.4533 C9.0916,4.3423 9.1366,4.2413 9.2116,4.1693 L13.5446,0.0533 L10.1026,0.0533 C9.9886,0.0533 9.8886,0.0993 9.8166,0.1753 L9.8166,0.1763 L6.8496,3.1823 C6.6816,3.3293 6.4636,3.4193 6.2256,3.4273 L5.3246,3.4273 C5.2146,3.4273 5.1236,3.3353 5.1236,3.2243 L5.1236,3.2213 L5.1216,0.4363 C5.1136,0.2333 4.9526,0.0703 4.7506,0.0573 L2.4946,0.0573 L2.4946,3.4273 L-0.0004,3.4273 L-0.0004,4.5293 C0.0006,4.5313 0.0006,4.5323 0.0006,4.5323 C0.0006,5.0803 0.4426,5.5233 0.9886,5.5233 L2.4946,5.5233 L2.4946,8.8913 L4.7196,8.8903 L4.7276,8.8903 C4.9426,8.8903 5.1196,8.7163 5.1226,8.5003 L5.1216,5.7183 L5.1236,5.7183 C5.1286,5.6113 5.2156,5.5253 5.3236,5.5253 C5.3236,5.5253 6.1946,5.5233 6.1986,5.5233 C6.4596,5.5233 6.6966,5.6253 6.8736,5.7913 L9.8226,8.7773 C9.8956,8.8473 9.9926,8.8913 10.1026,8.8913 L13.5346,8.8913 L9.2146,4.7403 L9.2126,4.7393 Z" id="Fill-7" fill="#FFFFFF" mask="url(#mask-6)"></path>
                </g>
                <path d="M38.737,9.93168 L40.962,9.93068 L40.969,9.93068 C41.186,9.93068 41.362,9.75568 41.365,9.53968 L41.365,6.75868 L41.366,6.75768 C41.371,6.65168 41.458,6.56568 41.566,6.56568 L42.441,6.56568 C42.703,6.56568 42.939,6.66568 43.116,6.83068 L46.066,9.81768 C46.138,9.88768 46.236,9.93168 46.344,9.93168 L49.778,9.93168 L45.457,5.78068 L45.456,5.77968 C45.381,5.70768 45.334,5.60568 45.334,5.49268 C45.334,5.38168 45.379,5.28068 45.454,5.20868 L49.787,1.09368 L46.344,1.09368 C46.232,1.09368 46.131,1.14068 46.059,1.21468 L46.058,1.21468 L43.092,4.22268 L43.091,4.22268 C42.924,4.36968 42.706,4.45968 42.468,4.46568 L41.568,4.46568 C41.457,4.46568 41.366,4.37468 41.366,4.26468 L41.366,4.26168 L41.365,4.26168 L41.365,1.47668 C41.356,1.27368 41.195,1.11068 40.993,1.09768 L38.737,1.09768 L38.737,9.93168 Z" id="Fill-10" fill="#FFFFFF"></path>
                <path d="M23.6384,9.71778 C23.7034,9.84278 23.8314,9.92778 23.9814,9.93078 L26.6304,9.93078 L22.2454,1.31178 C22.1804,1.18178 22.0464,1.09378 21.8924,1.09378 L20.3154,1.09378 L20.2324,1.09378 L18.6444,1.09378 C18.4954,1.09378 18.3674,1.17478 18.2984,1.29478 L13.9084,9.93078 L16.5484,9.93078 C16.7024,9.93078 16.8364,9.84278 16.9024,9.71378 L17.5184,8.49978 L17.5194,8.49978 C17.5514,8.43178 17.6204,8.38378 17.7014,8.38378 L22.8364,8.38378 C22.9174,8.38378 22.9864,8.43078 23.0194,8.49878 L23.6384,9.71778 Z M18.5284,6.51678 L20.2694,3.09178 L22.0114,6.51678 L18.5284,6.51678 Z" id="Fill-12" fill="#FFFFFF"></path>
                <g id="Group-16" transform="translate(50.000000, 1.040080)">
                    <mask id="mask-8" fill="white">
                        <use xlink:href="#path-7"></use>
                    </mask>
                    <g id="Clip-15"></g>
                    <path d="M9.3786,0.0693 C9.1596,0.0693 8.9826,0.2473 8.9826,0.4643 L8.9826,5.7523 C8.9776,6.2893 8.5416,6.7243 8.0036,6.7303 L4.3996,6.7303 C3.8596,6.7253 3.4246,6.2893 3.4196,5.7523 L3.4196,5.2073 C3.4186,5.1933 3.4186,5.1823 3.4186,5.1703 L3.4186,0.4513 C3.4106,0.2393 3.2366,0.0693 3.0246,0.0693 L0.6376,0.0693 L0.6376,6.4743 L0.6386,6.4743 C0.6636,7.8413 1.7546,8.9493 3.1156,8.9983 L3.1156,9.0003 L9.1956,9.0003 C10.5986,8.9983 11.7376,7.8713 11.7636,6.4743 L11.7646,6.4743 L11.7646,0.0693 L9.3786,0.0693 Z" id="Fill-14" fill="#FFFFFF" mask="url(#mask-8)"></path>
                </g>
            </g>
        </g>
    </g>
</svg>