<svg xmlns="http://www.w3.org/2000/svg" xmlns:xlink="http://www.w3.org/1999/xlink" width="162" height="115" viewBox="0 0 162 115">
    <defs>
        <path id="i8qh9csdja" d="M0 0L162 0 162 114.503 0 114.503z"/>
        <mask id="yw8lcayhnb" width="162" height="114.503" x="0" y="0" fill="#fff" maskContentUnits="userSpaceOnUse" maskUnits="objectBoundingBox">
            <use xlink:href="#i8qh9csdja"/>
        </mask>
    </defs>
    <g fill="none" fill-rule="evenodd">
        <use fill="#D9D9D9" stroke="#B3B3B3" stroke-dasharray="3 2 3 2" stroke-width="2" mask="url(#yw8lcayhnb)" xlink:href="#i8qh9csdja"/>
        <g>
            <path d="M0 93.298L93.298 93.298 93.298 0 0 0z" transform="translate(30.11 20.992)"/>
            <path fill="#C7C7C7" d="M20.485 46.59c2.332-1.33 5.376-.785 5.291 1.642-.085 2.43-1.59 3.034-3.825 5.774-2.235 2.743 2.164 19.318 11.442 14.163 9.278-5.154 18.04-4.81 18.04-4.81s2.062 6.357-3.436 6.357c-5.498 0-15.58 11.644-23.92 7.535-8.341-4.11-12.19-17.713-13.223-18.77-1.033-1.059-4.659-4.556-7.24-8.898-4.216-7.091 3.492-1.372 3.492-1.372-1.62-1.686 2.252-1.867 2.252-1.867-2.777-3.987 2.61-.93 2.61-.93s-3.15-12.536-1.276-13.637c1.916-1.125 4.203 5.085 4.828 9.387.628 4.3 2.634 6.754 4.965 5.425z" transform="translate(30.11 20.992)"/>
            <path fill="#B3B3B3" d="M19.864 46.856c.036-.008.065-.027.099-.036-2.104.709-3.862-1.68-4.443-5.657-.626-4.3-2.912-10.51-4.827-9.385-1.337.783-.119 7.386.691 11.107-.903-3.656-5.681-4.1-3.866.066-1.52-2.66-3.34 1.08-1.381 3.992-1.29-1.66-6.739-4.45-2.523 2.64 1 1.683 2.158 3.237 3.26 4.574.001-.001 3.556-1.956 6.08-1.984 2.528-.027 1.648-4.082 6.91-5.317" transform="translate(30.11 20.992)"/>
            <path fill="#C7C7C7" d="M12.805 33.638c-.28-.418-.557-1.565-1.578-1.257-1.018.307-.536 3.268-.388 4.843.252 2.67 1.996 8.109 3.764 6.833.604-.435.058-7.637-1.798-10.419M9.86 40.54s-1.534-.852-1.786-.32c-.25.532-1.01 2.163-.227 3.445.784 1.282 2.457 5.863 3.91 5.578 1.452-.287 2.183-1.324 1.466-2.542-.718-1.218-2.36-5.391-3.363-6.162" transform="translate(30.11 20.992)"/>
            <path fill="#C7C7C7" d="M7.28 43.302s-1.209-1.02-1.394.011c-.185 1.03-.045 3.19.594 4.457.641 1.266 2.355 3.422 3.146 2.026.792-1.395-2.346-6.494-2.346-6.494M5.231 46.973s-1.666-1.669-2.416-1.285c-.753.383-.064 2.1.245 2.545.31.443 1.413 3.744 2.736 3.364 1.324-.38 1.276-2.283-.565-4.624" transform="translate(30.11 20.992)"/>
            <path fill="#B3B3B3" d="M45.41 63.916c.512 1.603.599 3.881-1.967 5.542-4.38 2.835-10.816 9.758-17.9 6.921-1.431-.574-2.972-.95-4.52-1.191.944.817 1.96 1.523 3.054 2.063 8.34 4.11 18.421-7.535 23.919-7.535 5.498 0 3.437-6.357 3.437-6.357s-2.404-.092-6.023.557" transform="translate(30.11 20.992)"/>
            <path fill="#C7C7C7" d="M64.443 92.485c-4.01-15.978-.573-32.563-.573-32.563l-11.874-.849s-7.23 14.047-11.2 34.225h23.845c-.064-.278-.13-.55-.198-.813" transform="translate(30.11 20.992)"/>
            <path fill="#B3B3B3" d="M63.87 59.923l-11.873-.85s-1.34 2.11-3.182 6.117c3.43 1.833 7.975 3.213 13.874 3.185.377-5.182 1.182-8.452 1.182-8.452" transform="translate(30.11 20.992)"/>
            <path fill="#C7C7C7" d="M87.737 36.493c0 15.078-12.222 27.299-27.298 27.299-15.078 0-27.302-12.221-27.302-27.3 0-15.076 12.224-27.299 27.302-27.299 15.076 0 27.298 12.223 27.298 27.3" transform="translate(30.11 20.992)"/>
            <path fill="#D9D9D9" d="M59.064 12.457c14.153 0 25.833 9.96 27.612 22.85-.622-13.957-12.128-25.083-26.238-25.083-7.514 0-14.286 3.16-19.075 8.218 4.813-3.738 10.978-5.985 17.701-5.985" transform="translate(30.11 20.992)"/>
            <path fill="#FEFEFE" d="M57.857 33.01c0 4.56-2.775 8.26-6.196 8.26s-6.195-3.7-6.195-8.26c0-4.564 2.774-8.261 6.195-8.261 3.421 0 6.196 3.697 6.196 8.26" transform="translate(30.11 20.992)"/>
            <path fill="#B3B3B3" d="M56.309 33.461c0 3.1-1.994 5.614-4.453 5.614-2.46 0-4.455-2.514-4.455-5.614 0-3.101 1.995-5.615 4.455-5.615 2.459 0 4.453 2.514 4.453 5.615" transform="translate(30.11 20.992)"/>
            <path fill="#FEFEFE" d="M54.049 32.137c0 1.336-.781 2.42-1.742 2.42-.962 0-1.742-1.084-1.742-2.42 0-1.336.78-2.42 1.742-2.42.96 0 1.742 1.084 1.742 2.42M75.41 33.01c0 4.56-2.774 8.26-6.195 8.26-3.422 0-6.196-3.7-6.196-8.26 0-4.564 2.774-8.261 6.196-8.261 3.42 0 6.195 3.697 6.195 8.26" transform="translate(30.11 20.992)"/>
            <path fill="#B3B3B3" d="M73.86 33.461c0 3.1-1.992 5.614-4.452 5.614s-4.455-2.514-4.455-5.614c0-3.101 1.994-5.615 4.455-5.615 2.46 0 4.453 2.514 4.453 5.615" transform="translate(30.11 20.992)"/>
            <path fill="#FEFEFE" d="M71.605 32.137c0 1.336-.782 2.42-1.743 2.42-.963 0-1.742-1.084-1.742-2.42 0-1.336.78-2.42 1.742-2.42.96 0 1.743 1.084 1.743 2.42" transform="translate(30.11 20.992)"/>
            <path fill="#B3B3B3" d="M39.27 40.357s2.517 4.82 20.134 5.137c20.395.368 20.91-6.238 20.91-6.238s3.239 13.919-9.297 18.535c-9.759 3.594-15.743 1.282-15.743 1.282s-12.722-.917-16.005-18.716" transform="translate(30.11 20.992)"/>
            <path fill="#FEFEFE" d="M59.276 49.44c15.33 0 19.157-4.312 19.756-8.073-1.972 1.897-6.97 4.355-19.626 4.127-10.543-.19-15.676-1.992-18.1-3.41 1.07 2.801 4.83 7.357 17.97 7.357" transform="translate(30.11 20.992)"/>
            <path fill="#D9D9D9" d="M67.392 52.761c-4.55-1.155-6.16.348-6.712 1.838-.55-1.49-2.162-2.993-6.714-1.838-2.84.723-4.673 1.998-5.876 3.332 3.756 2.727 7.184 2.98 7.184 2.98s5.984 2.313 15.744-1.283c.977-.359 1.846-.78 2.64-1.24-1.182-1.499-3.105-2.984-6.266-3.789M60.71 74.355c.903-4.032-4.38-9.794-10.566-5.413-3.744 2.654-5.128 16.191-5.635 24.356H59.57c-.216-6.263.225-14.863 1.138-18.943" transform="translate(30.11 20.992)"/>
            <path fill="#B3B3B3" d="M21.95 54.007c.056-.07.11-.13.166-.195-1.813 1.213-4.079 2.449-6.003 2.645 1.054.03 2.733.246 3.253 1.276.622 1.24 3.243 6.59 5.864 8.713-3.441-4.12-4.646-10.761-3.28-12.44m-5.837 2.45c-.518-.015-.885.014-.885.014.283.025.58.017.885-.013" transform="translate(30.11 20.992)"/>
            <path fill="#D9D9D9" d="M32.877 68.857s10.308-4.982 11.34-3.952c1.03 1.032-4.124 4.124-7.732 5.326-3.608 1.203-10.268 2.866-12.895-1.969 0 0 5.507 3.344 9.287.595" transform="translate(30.11 20.992)"/>
            <path fill="#C7C7C7" d="M63.167 63.85c-.219 1.554-.434 3.514-.557 5.788 3.723 1.583 9.487 5.285 11.5 10.387 1.081 2.739 2.105 9.463 2.931 13.273h11.584c-7.101-23.302-18.45-27.52-25.458-29.447" transform="translate(30.11 20.992)"/>
            <path fill="#B3B3B3" d="M63.964 70.265c.58-2.595 1.68-4.214 2.728-5.21-1.349-.549-2.548-.934-3.525-1.203-.219 1.553-.433 3.513-.557 5.787.427.183.88.39 1.354.626z" transform="translate(30.11 20.992)"/>
            <path fill="#D9D9D9" d="M67.582 66.795c-4.124 3.78 7.044 5.842 13.23 12.714 2.52 2.803 4.443 9.728 5.835 13.79H88C81.759 71.39 68.795 67.491 67.58 66.794" transform="translate(30.11 20.992)"/>
            <path fill="#B3B3B3" d="M14.016 46.342c-1.067 0-1.934-.865-1.934-1.934V31.494c0-1.066.867-1.933 1.934-1.933H35.32c1.068 0 1.933.867 1.933 1.933v12.914c0 1.069-.865 1.934-1.933 1.934H14.016z" transform="translate(30.11 20.992)"/>
            <path fill="#FFF" d="M35.073 45.993H14.415c-1.022 0-1.85-.828-1.85-1.85V31.605c0-1.021.828-1.85 1.85-1.85h20.658c1.021 0 1.85.829 1.85 1.85v12.538c0 1.022-.829 1.85-1.85 1.85" transform="translate(30.11 20.992)"/>
            <path fill="#EBEBEB" fill-opacity=".5" d="M26.81 39.437L33.933 39.437 33.933 32.315 26.81 32.315z" transform="translate(30.11 20.992)"/>
            <path fill="#C7C7C7" d="M33.062 35.533c0 1.51-1.224 2.735-2.734 2.735-1.511 0-2.735-1.225-2.735-2.735 0-1.51 1.224-2.735 2.735-2.735 1.51 0 2.734 1.225 2.734 2.735" transform="translate(30.11 20.992)"/>
            <path fill="#FEFEFE" d="M30.07 35.184c0 .458-.279.828-.621.828-.343 0-.622-.37-.622-.828 0-.457.279-.827.622-.827.342 0 .62.37.62.827" transform="translate(30.11 20.992)"/>
            <path fill="#B3B3B3" d="M29.915 35.23c0 .31-.2.562-.447.562-.246 0-.446-.253-.446-.562 0-.31.2-.562.446-.562.247 0 .447.251.447.562" transform="translate(30.11 20.992)"/>
            <path fill="#FEFEFE" d="M29.688 35.097c0 .135-.078.243-.174.243-.096 0-.175-.108-.175-.243 0-.134.079-.242.175-.242.096 0 .174.108.174.242M31.828 35.184c0 .458-.278.828-.621.828-.343 0-.621-.37-.621-.828 0-.457.278-.827.621-.827.343 0 .621.37.621.827" transform="translate(30.11 20.992)"/>
            <path fill="#B3B3B3" d="M31.673 35.23c0 .31-.2.562-.446.562-.247 0-.447-.253-.447-.562 0-.31.2-.562.447-.562.246 0 .446.251.446.562" transform="translate(30.11 20.992)"/>
            <path fill="#FEFEFE" d="M31.447 35.097c0 .135-.079.243-.175.243-.096 0-.174-.108-.174-.243 0-.134.078-.242.174-.242.096 0 .175.108.175.242" transform="translate(30.11 20.992)"/>
            <path fill="#B3B3B3" d="M28.207 35.92s.252.482 2.018.516c2.043.036 2.094-.625 2.094-.625s.324 1.394-.93 1.856c-.979.36-1.579.128-1.579.128s-1.274-.092-1.603-1.875" transform="translate(30.11 20.992)"/>
            <path fill="#FEFEFE" d="M30.211 36.831c1.536 0 1.918-.432 1.978-.809-.196.19-.697.436-1.964.413-1.056-.02-1.57-.198-1.814-.341.106.28.485.737 1.8.737" transform="translate(30.11 20.992)"/>
            <path fill="#D9D9D9" d="M31.025 37.163c-.457-.116-.617.035-.673.185-.055-.15-.216-.301-.673-.185-.284.073-.467.2-.588.333.376.273.72.3.72.3s.6.23 1.577-.13c.098-.034.185-.078.265-.123-.119-.15-.312-.299-.628-.38" transform="translate(30.11 20.992)"/>
            <path fill="#C7C7C7" d="M29.53 39.09c-.027.109-.054.224-.08.347h.178c.048-.265.127-.477.248-.589.561-.51 1.157-.005 1.118.407-.005.057-.01.12-.012.182h.222c-.022-.124-.038-.245-.051-.36.081.112.156.233.217.36h.797c-.318-.625-.745-1.024-1.06-1.254.005-.252.02-.401.02-.401l-1.19.062s-.036.076-.092.219c-.46.33-.989.746-1.371 1.374h.805c.075-.127.163-.244.252-.348" transform="translate(30.11 20.992)"/>
            <path fill="#D9D9D9" d="M29.876 38.848c-.122.112-.199.324-.248.588h1.354c.003-.061.007-.124.012-.181.039-.412-.557-.918-1.118-.407" transform="translate(30.11 20.992)"/>
            <path fill="#C7C7C7" d="M15.281 33.036L22.67 33.036 22.67 32.315 15.281 32.315zM15.281 35.17L20.39 35.17 20.39 34.448 15.281 34.448zM15.281 43.705L19.485 43.705 19.485 42.984 15.281 42.984zM15.281 37.303L21.16 37.303 21.16 36.582 15.281 36.582zM15.281 39.437L22.184 39.437 22.184 38.716 15.281 38.716zM15.281 41.571L24.391 41.571 24.391 40.85 15.281 40.85zM19.536 55.334c2.33-1.127 3.313-2.17 5.636-3.982 1.917-1.494 9.594-2.92 5.454-5.37-4.14-2.448-6.59 1.691-9.239 2.12-.89.164-1.609-.337-3.644.187-2.695.693-4.022 3.236-4.32 4.432-.173.693 3.783 3.742 6.113 2.613" transform="translate(30.11 20.992)"/>
            <path fill="#D9D9D9" d="M25.042 47.07s2.484-2.048 4.302-1.198c1.818.85 2.432 1.962 1.02 2.326-1.412.361-2.518-1.565-5.322-1.129" transform="translate(30.11 20.992)"/>
        </g>
        <g>
            <path fill="#0082C6" d="M.282 11.571c0 6.21 5.08 11.29 11.29 11.29 6.209 0 11.29-5.08 11.29-11.29 0-6.209-5.081-11.29-11.29-11.29-6.21 0-11.29 5.081-11.29 11.29z" transform="translate(130.377 8.723)"/>
            <path fill="#FFF" d="M17.216 12.7L12.7 12.7 12.7 17.216 10.442 17.216 10.442 12.7 5.926 12.7 5.926 10.442 10.442 10.442 10.442 5.926 12.7 5.926 12.7 10.442 17.216 10.442z" transform="translate(130.377 8.723)"/>
        </g>
    </g>
</svg>
