<svg xmlns="http://www.w3.org/2000/svg" xmlns:xlink="http://www.w3.org/1999/xlink" width="162" height="115" viewBox="0 0 162 115">
    <defs>
        <path id="uohxp6nhga" d="M0 0L162 0 162 114.503 0 114.503z"/>
        <mask id="7atu99o5nb" width="162" height="114.503" x="0" y="0" fill="#fff" maskContentUnits="userSpaceOnUse" maskUnits="objectBoundingBox">
            <use xlink:href="#uohxp6nhga"/>
        </mask>
    </defs>
    <g fill="none" fill-rule="evenodd">
        <use fill="#D9D9D9" stroke="#B3B3B3" stroke-dasharray="3 2 3 2" stroke-width="2" mask="url(#7atu99o5nb)" xlink:href="#uohxp6nhga"/>
        <g>
            <path fill="#B3B3B3" d="M87.728 67.457H12.746c-6.99 0-12.659-5.694-12.659-12.718V12.99C.087 5.965 5.755.269 12.746.269h74.982c6.99 0 12.659 5.696 12.659 12.72v41.75c0 7.024-5.668 12.718-12.659 12.718" transform="translate(30.746 23.723)"/>
            <path fill="#FFF" d="M13.506 66.065c-6.346 0-11.491-5.17-11.491-11.547V12.596C2.015 6.22 7.16 1.05 13.506 1.05h74.073c6.346 0 11.491 5.17 11.491 11.546v41.922c0 6.376-5.145 11.547-11.491 11.547H13.506z" transform="translate(30.746 23.723)"/>
            <path fill="#EBEBEB" fill-opacity=".5" d="M58.656 39.618L87.033 39.618 87.033 11.097 58.656 11.097z" transform="translate(30.746 23.723)"/>
            <path fill="#C7C7C7" d="M83.691 24.182c0 6.049-4.879 10.949-10.896 10.949-6.018 0-10.9-4.9-10.9-10.95 0-6.046 4.882-10.946 10.9-10.946 6.017 0 10.896 4.9 10.896 10.947" transform="translate(30.746 23.723)"/>
            <path fill="#FEFEFE" d="M71.765 22.785c0 1.83-1.108 3.315-2.475 3.315-1.366 0-2.472-1.485-2.472-3.315 0-1.83 1.106-3.314 2.472-3.314 1.367 0 2.475 1.485 2.475 3.314" transform="translate(30.746 23.723)"/>
            <path fill="#B3B3B3" d="M71.146 22.968c0 1.24-.796 2.249-1.777 2.249-.982 0-1.777-1.008-1.777-2.25s.795-2.25 1.777-2.25c.981 0 1.777 1.008 1.777 2.25" transform="translate(30.746 23.723)"/>
            <path fill="#FEFEFE" d="M78.769 22.785c0 1.83-1.106 3.315-2.472 3.315-1.367 0-2.473-1.485-2.473-3.315 0-1.83 1.106-3.314 2.473-3.314 1.366 0 2.472 1.485 2.472 3.314" transform="translate(30.746 23.723)"/>
            <path fill="#B3B3B3" d="M78.152 22.968c0 1.24-.796 2.249-1.777 2.249-.984 0-1.78-1.008-1.78-2.25s.796-2.25 1.78-2.25c.981 0 1.777 1.008 1.777 2.25M64.345 25.733s1.005 1.932 8.037 2.06c8.139.147 8.346-2.502 8.346-2.502s1.292 5.584-3.71 7.435c-3.897 1.441-6.286.514-6.286.514s-5.076-.369-6.387-7.507" transform="translate(30.746 23.723)"/>
            <path fill="#FEFEFE" d="M72.33 29.375c6.12 0 7.647-1.729 7.885-3.238-.787.762-2.78 1.746-7.834 1.656-4.206-.077-6.256-.8-7.222-1.368.426 1.125 1.928 2.95 7.172 2.95" transform="translate(30.746 23.723)"/>
            <path fill="#D9D9D9" d="M75.569 30.707c-1.817-.464-2.46.14-2.68.738-.219-.598-.861-1.202-2.678-.738-1.134.292-1.867.801-2.345 1.335 1.497 1.094 2.865 1.197 2.865 1.197s2.39.927 6.287-.514c.39-.143.737-.314 1.054-.498-.472-.6-1.24-1.197-2.503-1.52" transform="translate(30.746 23.723)"/>
            <path fill="#C7C7C7" d="M69.615 38.42c-.109.437-.214.903-.319 1.395h.71c.193-1.061.503-1.911.986-2.355 2.232-2.054 4.61-.024 4.455 1.626-.021.226-.037.474-.048.729h.883c-.083-.501-.15-.982-.2-1.441.323.446.62.929.863 1.44h3.174c-1.262-2.503-2.967-4.098-4.221-5.018.015-1.015.083-1.612.083-1.612l-4.744.252s-.142.303-.363.879c-1.838 1.318-3.945 2.985-5.469 5.5h3.21c.299-.508.646-.978 1-1.395" transform="translate(30.746 23.723)"/>
            <path fill="#D9D9D9" d="M70.992 37.459c-.483.444-.793 1.296-.986 2.355H75.4c.011-.255.026-.501.048-.73.155-1.65-2.223-3.679-4.455-1.625" transform="translate(30.746 23.723)"/>
            <path fill="#C7C7C7" d="M12.834 14.179L42.281 14.179 42.281 11.293 12.834 11.293zM12.834 22.725L33.192 22.725 33.192 19.839 12.834 19.839zM12.834 56.902L29.585 56.902 29.585 54.018 12.834 54.018zM12.834 31.27L36.261 31.27 36.261 28.384 12.834 28.384zM12.834 39.814L40.338 39.814 40.338 36.928 12.834 36.928zM12.682 48.86L48.98 48.86 48.98 45.974 12.682 45.974z" transform="translate(30.746 23.723)"/>
            <path fill="#FEFEFE" d="M77.92 21.82c0 .805-.47 1.455-1.045 1.455-.578 0-1.048-.65-1.048-1.456 0-.805.47-1.459 1.048-1.459.575 0 1.045.654 1.045 1.46M70.978 21.82c0 .805-.47 1.455-1.045 1.455-.578 0-1.048-.65-1.048-1.456 0-.805.47-1.459 1.048-1.459.575 0 1.045.654 1.045 1.46" transform="translate(30.746 23.723)"/>
        </g>
        <g>
            <path fill="#0082C6" d="M0 11.37c0 6.253 5.116 11.37 11.37 11.37 6.253 0 11.37-5.117 11.37-11.37C22.74 5.116 17.622 0 11.37 0 5.116 0 0 5.116 0 11.37z" transform="translate(130.32 9.72)"/>
            <path fill="#FFF" d="M16.72 12.44L12.44 12.44 12.44 16.72 10.299 16.72 10.299 12.44 6.019 12.44 6.019 10.299 10.299 10.299 10.299 6.019 12.44 6.019 12.44 10.299 16.72 10.299z" transform="translate(130.32 9.72)"/>
        </g>
    </g>
</svg>
