<?xml version="1.0" encoding="UTF-8"?>
<svg width="16px" height="12px" viewBox="0 0 16 12" version="1.1" xmlns="http://www.w3.org/2000/svg" xmlns:xlink="http://www.w3.org/1999/xlink">
    <!-- Generator: Sketch 48.2 (47327) - http://www.bohemiancoding.com/sketch -->
    <title>user-plus</title>
    <desc>Created with Sketch.</desc>
    <defs></defs>
    <g id="qr-code-profile-3-rev" stroke="none" stroke-width="1" fill="none" fill-rule="evenodd" transform="translate(-730.000000, -433.000000)">
        <g id="user-plus" transform="translate(730.000000, 433.000000)" fill="#FFFFFF" fill-rule="nonzero">
            <path d="M5.5,6 C4.672,6 3.965,5.707 3.379,5.121 C2.793,4.535 2.5,3.828 2.5,3 C2.5,2.172 2.793,1.465 3.379,0.879 C3.965,0.293 4.672,6.66133815e-16 5.5,0 C6.328,-5.55111512e-16 7.035,0.293 7.621,0.879 C8.207,1.465 8.5,2.172 8.5,3 C8.5,3.828 8.207,4.535 7.621,5.121 C7.035,5.707 6.328,6 5.5,6 Z M13,7 L15.75,7 C15.818,7 15.8766667,7.02466667 15.926,7.074 C15.9753333,7.12333333 16,7.182 16,7.25 L16,8.75 C16,8.818 15.9753333,8.87666667 15.926,8.926 C15.8766667,8.97533333 15.818,9 15.75,9 L13,9 L13,11.75 C13,11.818 12.9753333,11.8766667 12.926,11.926 C12.8766667,11.9753333 12.818,12 12.75,12 L11.25,12 C11.182,12 11.1233333,11.9753333 11.074,11.926 C11.0246667,11.8766667 11,11.818 11,11.75 L11,9 L8.25,9 C8.182,9 8.12333333,8.97533333 8.074,8.926 C8.02466667,8.87666667 8,8.818 8,8.75 L8,7.25 C8,7.182 8.02466667,7.12333333 8.074,7.074 C8.12333333,7.02466667 8.182,7 8.25,7 L11,7 L11,4.25 C11,4.182 11.0246667,4.12333333 11.074,4.074 C11.1233333,4.02466667 11.182,4 11.25,4 L12.75,4 C12.818,4 12.8766667,4.02466667 12.926,4.074 C12.9753333,4.12333333 13,4.182 13,4.25 L13,7 Z M7.25,8.75 C7.25,9.02066667 7.349,9.255 7.547,9.453 C7.745,9.651 7.97933333,9.75 8.25,9.75 L10.25,9.75 L10.25,11.609 C9.896,11.8696667 9.45066667,12 8.914,12 L2.086,12 C1.456,12 0.950666667,11.8203333 0.57,11.461 C0.189333333,11.1016667 -0.000666666667,10.607 -5.55112359e-16,9.977 C-5.55112359e-16,9.701 0.009,9.43133333 0.027,9.168 C0.045,8.90466667 0.0813333333,8.62066667 0.136,8.316 C0.190666667,8.01133333 0.259666667,7.72866667 0.343,7.468 C0.426333333,7.20733333 0.538333333,6.95333333 0.679,6.706 C0.819666667,6.45866667 0.981,6.24766667 1.163,6.073 C1.345,5.89833333 1.56766667,5.759 1.831,5.655 C2.09433333,5.551 2.38466667,5.499 2.702,5.499 C2.80066667,5.499 2.90233333,5.54333333 3.007,5.632 C3.41833333,5.95 3.82066667,6.18833333 4.214,6.347 C4.60733333,6.50566667 5.03566667,6.585 5.499,6.585 C5.96233333,6.585 6.39066667,6.50566667 6.784,6.347 C7.17733333,6.18833333 7.57966667,5.95 7.991,5.632 C8.095,5.54333333 8.19666667,5.499 8.296,5.499 C8.98333333,5.499 9.54833333,5.749 9.991,6.249 L8.249,6.249 C7.97833333,6.249 7.744,6.348 7.546,6.546 C7.348,6.744 7.249,6.97833333 7.249,7.249 L7.249,8.749 L7.25,8.75 Z" id="Shape"></path>
        </g>
    </g>
</svg>