<?xml version="1.0" encoding="UTF-8"?>
<svg width="16px" height="12px" viewBox="0 0 16 12" version="1.1" xmlns="http://www.w3.org/2000/svg" xmlns:xlink="http://www.w3.org/1999/xlink">
    <!-- Generator: Sketch 51.1 (57501) - http://www.bohemiancoding.com/sketch -->
    <title>Group 29</title>
    <desc>Created with Sketch.</desc>
    <defs></defs>
    <g id="Profile" stroke="none" stroke-width="1" fill="none" fill-rule="evenodd">
        <g id="Profile-Followed" transform="translate(-873.000000, -433.000000)" fill="#1998ED">
            <g id="Group-18-Copy-4" transform="translate(851.000000, 420.000000)">
                <g id="Group-29" transform="translate(22.000000, 13.000000)">
                    <path d="M5.2105274,5.7 C4.42610644,5.7 3.75631704,5.42165 3.2011592,4.86495 C2.64600137,4.30825 2.36842245,3.6366 2.36842245,2.85 C2.36842245,2.0634 2.64600137,1.39175 3.2011592,0.83505 C3.75631704,0.27835 4.42610644,6.32827124e-16 5.2105274,0 C5.99494837,-5.27355937e-16 6.66473777,0.27835 7.2198956,0.83505 C7.77505344,1.39175 8.05263236,2.0634 8.05263236,2.85 C8.05263236,3.6366 7.77505344,4.30825 7.2198956,4.86495 C6.66473777,5.42165 5.99494837,5.7 5.2105274,5.7 Z M9.71052691,9.2625 L9.71052691,11.02855 C9.37515853,11.2761833 8.95326384,11.4 8.44484284,11.4 L1.97621197,11.4 C1.37936993,11.4 0.900633137,11.2293167 0.540001597,10.88795 C0.179370058,10.5465833 -0.00062992264,10.07665 1.65623832e-06,9.47815 C1.65623832e-06,9.21595 0.0085279711,8.95976667 0.0255806008,8.7096 C0.0426332305,8.45943333 0.0770542794,8.18963333 0.128843747,7.9002 C0.180633215,7.61076667 0.246001629,7.34223333 0.324948989,7.0946 C0.403896349,6.84696667 0.510001601,6.60566667 0.643264744,6.3707 C0.776527887,6.13573333 0.929369976,5.93528333 1.10179101,5.76935 C1.27421204,5.60341667 1.48515939,5.47105 1.73463305,5.37225 C1.9841067,5.27345 2.2591593,5.22405 2.55979085,5.22405 C2.65326452,5.22405 2.7495803,5.26616667 2.84873819,5.3504 C3.23842236,5.6525 3.61958021,5.87891667 3.99221175,6.02965 C4.36484328,6.18038333 4.77063271,6.25575 5.20958003,6.25575 C5.64852735,6.25575 6.05431678,6.18038333 6.42694832,6.02965 C6.79957986,5.87891667 7.18073771,5.6525 7.57042188,5.3504 C7.66894819,5.26616667 7.76526397,5.22405 7.85936922,5.22405 C8.51052704,5.22405 9.04579014,5.46155 9.46515852,5.93655 L9.71052691,9.2625 Z" id="Shape" fill-rule="nonzero"></path>
                    <path d="M9.62477988,7.16826119 L13.5937559,3.51437749 L15.600493,5.53288031 L9.59723815,10.9047548 L6.50134575,7.8088624 L8.43172311,5.93463546 L9.62477988,7.16826119 Z" id="Shape" stroke="#FFFFFF" stroke-width="0.7" stroke-linecap="round" stroke-linejoin="round"></path>
                </g>
            </g>
        </g>
    </g>
</svg>