<svg xmlns="http://www.w3.org/2000/svg" xmlns:xlink="http://www.w3.org/1999/xlink" width="45" height="50" viewBox="0 0 45 50">
    <defs>
        <path id="b" d="M72.727 30.996l14.006 23.997A2 2 0 0 1 85.006 58H56.994a2 2 0 0 1-1.727-3.008l14.006-23.997a2 2 0 0 1 3.454 0z"/>
        <filter id="a" width="184.4%" height="196.4%" x="-42.2%" y="-48.2%" filterUnits="objectBoundingBox">
            <feMorphology in="SourceAlpha" operator="dilate" radius=".5" result="shadowSpreadOuter1"/>
            <feOffset in="shadowSpreadOuter1" result="shadowOffsetOuter1"/>
            <feGaussianBlur in="shadowOffsetOuter1" result="shadowBlurOuter1" stdDeviation="4"/>
            <feComposite in="shadowBlurOuter1" in2="SourceAlpha" operator="out" result="shadowBlurOuter1"/>
            <feColorMatrix in="shadowBlurOuter1" values="0 0 0 0 0.976470588 0 0 0 0 0.623529412 0 0 0 0 0.105882353 0 0 0 1 0"/>
        </filter>
    </defs>
    <g fill="none" fill-rule="nonzero" transform="rotate(90 56.5 10.5)">
        <use fill="#000" filter="url(#a)" xlink:href="#b"/>
        <path fill="#FFF" fill-rule="evenodd" stroke="#F99F1B" stroke-linejoin="square" d="M72.295 31.248a1.5 1.5 0 0 0-2.59 0L55.698 55.245a1.5 1.5 0 0 0 1.295 2.256h28.012a1.5 1.5 0 0 0 1.295-2.256L72.295 31.248z"/>
    </g>
</svg>
