<?xml version="1.0" encoding="UTF-8"?>
<svg width="13px" height="13px" viewBox="0 0 13 13" version="1.1" xmlns="http://www.w3.org/2000/svg" xmlns:xlink="http://www.w3.org/1999/xlink">
    <!-- Generator: Sketch 48.2 (47327) - http://www.bohemiancoding.com/sketch -->
    <title>search</title>
    <desc>Created with Sketch.</desc>
    <defs></defs>
    <g id="qr-code-profile-3-rev" stroke="none" stroke-width="1" fill="none" fill-rule="evenodd" transform="translate(-879.000000, -433.000000)">
        <g id="Group-18-Copy-3" transform="translate(850.000000, 420.000000)" fill="#1998ED">
            <g id="search" transform="translate(28.000000, 12.000000)">
                <g id="Group-26">
                    <path d="M10,6.5 C10,5.53666667 9.65766667,4.71233333 8.973,4.027 C8.28833333,3.34166667 7.464,2.99933333 6.5,3 C5.536,3.00066667 4.71166667,3.343 4.027,4.027 C3.34233333,4.711 3,5.53533333 3,6.5 C3,7.46466667 3.34233333,8.289 4.027,8.973 C4.71166667,9.657 5.536,9.99933333 6.5,10 C7.464,10.0006667 8.28833333,9.65833333 8.973,8.973 C9.65766667,8.28766667 10,7.46333333 10,6.5 Z M14,13 C14,13.2706667 13.901,13.505 13.703,13.703 C13.505,13.901 13.2706667,14 13,14 C12.7186667,14 12.4843333,13.901 12.297,13.703 L9.617,11.031 C8.685,11.677 7.646,12 6.5,12 C5.75533333,12 5.043,11.8553333 4.363,11.566 C3.683,11.2766667 3.097,10.886 2.605,10.394 C2.113,9.902 1.72233333,9.316 1.433,8.636 C1.14366667,7.956 0.999,7.24366667 0.999,6.499 C0.999,5.75433333 1.14366667,5.042 1.433,4.362 C1.72233333,3.682 2.113,3.096 2.605,2.604 C3.097,2.112 3.683,1.72133333 4.363,1.432 C5.043,1.14266667 5.75533333,0.998 6.5,0.998 C7.24466667,0.998 7.957,1.14266667 8.637,1.432 C9.317,1.72133333 9.903,2.112 10.395,2.604 C10.887,3.096 11.2776667,3.682 11.567,4.362 C11.8563333,5.042 12.001,5.75433333 12.001,6.499 C12.001,7.645 11.678,8.684 11.032,9.616 L13.712,12.296 C13.9046667,12.4886667 14.001,12.723 14.001,12.999 L14,13 Z" id="Shape" fill-rule="nonzero"></path>
                    <path d="M6.5,9 C5.11928813,9 4,7.88071187 4,6.5 C4,5.11928813 5.11928813,4 6.5,4 C7.88071187,4 9,5.11928813 9,6.5 C9,7.88071187 7.88071187,9 6.5,9 Z M7,7 C7.55228475,7 8,6.55228475 8,6 C8,5.44771525 7.55228475,5 7,5 C6.44771525,5 6,5.44771525 6,6 C6,6.55228475 6.44771525,7 7,7 Z" id="Combined-Shape"></path>
                </g>
            </g>
        </g>
    </g>
</svg>