<?xml version="1.0" encoding="UTF-8"?>
<svg width="15px" height="12px" viewBox="0 0 15 12" version="1.1" xmlns="http://www.w3.org/2000/svg" xmlns:xlink="http://www.w3.org/1999/xlink">
    <!-- Generator: Sketch 50.2 (55047) - http://www.bohemiancoding.com/sketch -->
    <title>following</title>
    <desc>Created with Sketch.</desc>
    <defs></defs>
    <g id="WAP" stroke="none" stroke-width="1" fill="none" fill-rule="evenodd">
        <g id="WAP-UNFOLLOW-PROFILE" transform="translate(-40.000000, -310.000000)" fill="#B3B3B3">
            <g id="Group-3" transform="translate(-1.000000, 295.000000)">
                <g id="Group-2" transform="translate(10.000000, 0.000000)">
                    <g id="following" transform="translate(31.000000, 15.000000)">
                        <path d="M6.05263267,5.7 C5.2682117,5.7 4.5984223,5.42165 4.04326446,4.86495 C3.48810663,4.30825 3.21052771,3.6366 3.21052771,2.85 C3.21052771,2.0634 3.48810663,1.39175 4.04326446,0.83505 C4.5984223,0.27835 5.2682117,6.32827124e-16 6.05263267,0 C6.83705363,-5.27355937e-16 7.50684303,0.27835 8.06200087,0.83505 C8.6171587,1.39175 8.89473762,2.0634 8.89473762,2.85 C8.89473762,3.6366 8.6171587,4.30825 8.06200087,4.86495 C7.50684303,5.42165 6.83705363,5.7 6.05263267,5.7 Z M8.89332843,11.4 L2.81831723,11.4 C2.22147519,11.4 1.7427384,11.2293167 1.38210686,10.88795 C1.02147532,10.5465833 0.841475341,10.07665 0.842106919,9.47815 C0.842106919,9.21595 0.850633234,8.95976667 0.867685864,8.7096 C0.884738494,8.45943333 0.919159543,8.18963333 0.970949011,7.9002 C1.02273848,7.61076667 1.08810689,7.34223333 1.16705425,7.0946 C1.24600161,6.84696667 1.35210686,6.60566667 1.48537001,6.3707 C1.61863315,6.13573333 1.77147524,5.93528333 1.94389627,5.76935 C2.11631731,5.60341667 2.32726465,5.47105 2.57673831,5.37225 C2.82621197,5.27345 3.10126457,5.22405 3.40189611,5.22405 C3.49536979,5.22405 3.59168557,5.26616667 3.69084345,5.3504 C4.08052762,5.6525 4.46168547,5.87891667 4.83431701,6.02965 C5.20694855,6.18038333 5.61273798,6.25575 6.0516853,6.25575 C6.49063262,6.25575 6.89642205,6.18038333 7.26905359,6.02965 C7.64168512,5.87891667 8.02284298,5.6525 8.41252714,5.3504 C8.51105345,5.26616667 8.60736923,5.22405 8.70147448,5.22405 C9.35263231,5.22405 9.8878954,5.46155 10.3072638,5.93655 L10.3598253,6.64901711 L9.55142578,7.39376185 C9.06232829,6.84596418 8.79766846,6.55382478 8.75744629,6.51734366 C8.44139593,6.23068904 8.11021687,6.23068904 7.7639091,6.51734366 C7.05029661,7.24459591 6.57263795,7.72888855 6.33093312,7.9702216 C6.08922829,8.21155466 6.10423899,8.51002597 6.37596522,8.86563554 L8.89332843,11.4 Z" id="Shape" fill-rule="nonzero"></path>
                        <polygon id="Shape" points="9.50823195 8.38940592 8.2587431 7.02023203 6.89763787 8.38940592 9.50823195 11 14.9898442 6.0949054 13.5618279 4.65352285"></polygon>
                    </g>
                </g>
            </g>
        </g>
    </g>
</svg>