<?xml version="1.0" encoding="UTF-8"?>
<svg width="15px" height="15px" viewBox="0 0 15 15" version="1.1" xmlns="http://www.w3.org/2000/svg" xmlns:xlink="http://www.w3.org/1999/xlink">
    <!-- Generator: Sketch 48.2 (47327) - http://www.bohemiancoding.com/sketch -->
    <title>Group</title>
    <desc>Created with Sketch.</desc>
    <defs></defs>
    <g id="qr-code-profile-wap" stroke="none" stroke-width="1" fill="none" fill-rule="evenodd" transform="translate(-42.000000, -240.000000)">
        <g id="chat-copy-3" transform="translate(24.000000, 240.000000)" fill="#9B9B9B" fill-rule="nonzero">
            <g id="Group" transform="translate(18.000000, 0.000000)">
                <path d="M8.24943385,8.99962942 L8.24943385,5.9991353 L5.49981128,5.9991353 L5.49981128,0 L0,0 L0,5.99975294 L5.49981128,5.99975294 L5.49981128,8.99962942 L5.49981128,9.00024706 L0,9.00024706 L0,15 L5.49981128,15 L5.49981128,12.0003294 L11,12.0003294 L11,8.99962942 L8.24943385,8.99962942 Z M3.83588389,4.18450959 L1.66354996,4.18450959 L1.66354996,1.81586099 L3.8360726,1.81586099 L3.8360726,4.18450959 L3.83588389,4.18450959 Z M3.83588389,13.1847566 L1.66354996,13.1847566 L1.66354996,10.8154904 L3.8360726,10.8154904 L3.8360726,13.1847566 L3.83588389,13.1847566 Z" id="Shape"></path>
                <polygon id="Shape" points="12.0003088 6.00810922 12.0003088 9 15 9 15 0 12.0003088 0 12.0003088 2.99189078 9 2.99189078 9 5.99532689 12.0003088 5.99532689"></polygon>
                <rect id="Rectangle-path" x="11" y="11" width="4" height="4"></rect>
            </g>
        </g>
    </g>
</svg>