<?xml version="1.0" encoding="UTF-8"?>
<svg width="18px" height="5px" viewBox="0 0 18 5" version="1.1" xmlns="http://www.w3.org/2000/svg" xmlns:xlink="http://www.w3.org/1999/xlink">
    <!-- Generator: Sketch 50.2 (55047) - http://www.bohemiancoding.com/sketch -->
    <title>elipsisi</title>
    <desc>Created with Sketch.</desc>
    <defs>
        <path d="M2.36842105,5 C1.06037822,5 0,3.88071187 0,2.5 C0,1.11928813 1.06037822,0 2.36842105,0 C3.67646388,0 4.73684211,1.11928813 4.73684211,2.5 C4.73684211,3.88071187 3.67646388,5 2.36842105,5 Z M9,5 C7.69195717,5 6.63157895,3.88071187 6.63157895,2.5 C6.63157895,1.11928813 7.69195717,0 9,0 C10.3080428,0 11.3684211,1.11928813 11.3684211,2.5 C11.3684211,3.88071187 10.3080428,5 9,5 Z M15.6315789,5 C14.3235361,5 13.2631579,3.88071187 13.2631579,2.5 C13.2631579,1.11928813 14.3235361,0 15.6315789,0 C16.9396218,0 18,1.11928813 18,2.5 C18,3.88071187 16.9396218,5 15.6315789,5 Z" id="path-1"></path>
    </defs>
    <g id="WAP" stroke="none" stroke-width="1" fill="none" fill-rule="evenodd">
        <g id="WAP-FOLLOW-PROFILE" transform="translate(-266.000000, -313.000000)">
            <g id="Group-3" transform="translate(-1.000000, 295.000000)">
                <g id="Group-2" transform="translate(10.000000, 0.000000)">
                    <g id="icons/elipsis" transform="translate(256.000000, 10.000000)">
                        <g id="color/grey3-b3" transform="translate(1.000000, 8.000000)">
                            <mask id="mask-2" fill="white">
                                <use xlink:href="#path-1"></use>
                            </mask>
                            <use id="Mask" fill-opacity="0.87" fill="#6E6E6E" xlink:href="#path-1"></use>
                            <g mask="url(#mask-2)" fill="#B3B3B3" id="Rectangle-3">
                                <g transform="translate(-3.000000, -14.000000)">
                                    <rect x="0" y="0" width="28" height="30"></rect>
                                </g>
                            </g>
                        </g>
                    </g>
                </g>
            </g>
        </g>
    </g>
</svg>