<?xml version="1.0" encoding="UTF-8"?>
<svg width="15px" height="15px" viewBox="0 0 15 15" version="1.1" xmlns="http://www.w3.org/2000/svg" xmlns:xlink="http://www.w3.org/1999/xlink">
    <!-- Generator: Sketch 50.2 (55047) - http://www.bohemiancoding.com/sketch -->
    <title>chevron/down</title>
    <desc>Created with Sketch.</desc>
    <defs></defs>
    <g id="chevron/down" stroke="none" stroke-width="1" fill="none" fill-rule="evenodd">
        <g id="Group">
            <rect id="Rectangle" fill="#FFFFFF" x="3" y="2" width="10" height="11"></rect>
            <path d="M11.3501,7.6685 L8.9831,7.6685 L8.9831,11.5817 C8.9831,11.8026 8.804,11.9817 8.5831,11.9817 L6.3831,11.9817 C6.1622,11.9817 5.9831,11.8026 5.9831,11.5817 L5.9831,7.6685 L3.65,7.6685 C3.2937,7.6685 3.1151,7.2376 3.3671,6.9856 L7.2172,3.1356 C7.3734,2.9793 7.6267,2.9793 7.7829,3.1356 L11.633,6.9856 C11.885,7.2376 11.7064,7.6685 11.3501,7.6685 M13.8,0 L1.2,0 C0.54,0 0,0.5401 0,1.2 L0,13.8 C0,14.4601 0.54,15 1.2,15 L13.8,15 C14.4601,15 15,14.4601 15,13.8 L15,1.2 C15,0.5401 14.4601,0 13.8,0" id="Fill-1" fill="#C7C7C7" transform="translate(7.500000, 7.500000) scale(1, -1) translate(-7.500000, -7.500000) "></path>
        </g>
    </g>
</svg>