<?xml version="1.0" encoding="UTF-8"?>
<svg width="24px" height="26px" viewBox="0 0 24 26" version="1.1" xmlns="http://www.w3.org/2000/svg" xmlns:xlink="http://www.w3.org/1999/xlink">
    <!-- Generator: Sketch 50.2 (55047) - http://www.bohemiancoding.com/sketch -->
    <title>video white</title>
    <desc>Created with Sketch.</desc>
    <defs></defs>
    <g id="00-CHANNEL" stroke="none" stroke-width="1" fill="none" fill-rule="evenodd">
        <g id="0-menu-copy" transform="translate(-179.000000, -602.000000)" fill="#FFFFFF">
            <g id="video-white" transform="translate(179.000000, 602.000000)">
                <path d="M15.8265624,17.7406173 L9.97864158,21.0925829 C9.53844356,21.3450095 8.98822574,21.0295942 8.98822574,20.524859 L8.98822574,13.8210458 C8.98822574,13.3163106 9.53844356,13.0008953 9.97864158,13.2532039 L15.8265624,16.6052875 C16.2667604,16.8575961 16.2667604,17.4883087 15.8265624,17.7406173 Z M0.0987207921,9.05773249 L0.0987207921,25.2881723 L18.8093347,25.2881723 C21.6160277,25.2881723 23.9124238,23.0084299 23.9124238,20.222065 L23.9124238,9.05773249 L0.0987207921,9.05773249 Z" id="Fill-3"></path>
                <path d="M9.14351287,2.34754965 L7.17515644,8.31059697 L10.8776911,7.91957168 L12.8460475,1.95664231 L9.63765149,2.29541295 L9.14351287,2.34754965 Z M3.86446337,8.66010164 L5.8328198,2.69705432 L4.56343366,2.83105273 C1.77254257,3.12582564 -0.268051485,5.63381354 0.0287405941,8.40472614 L0.0987207921,9.05773249 L3.86446337,8.66010164 Z M16.1567406,1.60713765 L14.1883842,7.57006701 L17.8909188,7.17915967 L19.8592752,1.21611235 L18.0949188,1.40236543 L16.1567406,1.60713765 Z M23.7788792,6.55741176 L23.708899,5.90440541 L23.1692554,0.866725645 L23.1694931,0.868259077 L21.2016119,6.82965501 L23.7788792,6.55741176 Z" id="Fill-1"></path>
            </g>
        </g>
    </g>
</svg>