<svg xmlns="http://www.w3.org/2000/svg" viewBox="0 0 362.36 236.06"><defs><style>.cls-1{opacity:0.3;}.cls-2{fill:#5aabae;}.cls-10,.cls-11,.cls-12,.cls-2,.cls-3,.cls-4,.cls-5,.cls-6,.cls-7,.cls-8,.cls-9{fill-rule:evenodd;}.cls-3{fill:#7fb9bc;}.cls-4{fill:#bbd9d9;}.cls-5{fill:#af2939;}.cls-6{fill:#d22340;}.cls-7{fill:#d94b54;}.cls-8{fill:#fde886;}.cls-9{fill:#ee8439;}.cls-10{fill:#acd0d2;}.cls-11{fill:#356683;}.cls-12{fill:#7195b3;}</style></defs><title>Asset 21</title><g id="Layer_2" data-name="Layer 2"><g id="Layer_1-2" data-name="Layer 1"><g class="cls-1"><path class="cls-2" d="M269.15,178.66c-.08.24-.18.5-.26.72-.2.58-.38,1.17-.53,1.76-.23.89-.77,3.34.81,3.34,1.32,0,3.26-1.77,4.46-2.56,1.2.79,3.13,2.56,4.46,2.56a1,1,0,0,0,.65-.22c.75-.61.36-2.33.16-3.12-.15-.6-.33-1.18-.53-1.76-.08-.22-.18-.48-.26-.72,1.11-.87,3.87-2.47,3.87-3.8a1,1,0,0,0-.06-.34c-.36-.91-2.15-1-3-1.09-.57,0-1.15,0-1.72,0l-.83,0c-.1-.27-.18-.56-.26-.82-.16-.52-.33-1-.52-1.55-.29-.79-1-2.54-2-2.54-1.38,0-2.29,3.61-2.76,4.91l-.79,0c-.6,0-1.2,0-1.8,0-.85.05-3,.22-3,1.44S268,177.79,269.15,178.66Z"/><path class="cls-3" d="M271.07,173.69c-.46,0-5.49-.35-5.49,1.17,0,1.19,3.14,3,3.91,3.7-.08.32-2.25,5.63-.32,5.63,1.24,0,3.44-2,4.46-2.62,1,.64,3.22,2.61,4.46,2.61,1.94,0-.24-5.3-.32-5.62.76-.64,3.92-2.52,3.92-3.7,0-1.48-4.8-1.12-5.5-1.17-.33-.8-1.26-4.9-2.56-4.9S271.45,172.76,271.07,173.69Z"/><path class="cls-4" d="M274,172.7c-.08-1.46-.27-3.08-.62-3.13-.63-.08-1.31,4.5-2.07,4.75s-4.69-.56-5.09.49,3.35,2.66,3.64,3.53-1.31,4.14-.69,4.35c.33.12,1.47-1,2.53-2.34A10,10,0,0,0,274,172.7Z"/><path class="cls-4" d="M279.65,174.18c-.74-.07-1.36.13-1.39.45s.54.63,1.28.7,1.36-.13,1.39-.45S280.38,174.25,279.65,174.18Z"/><path class="cls-5" d="M93,141.65c-.08.24-.19.5-.27.72-.2.57-.39,1.16-.54,1.75-.24.89-.81,3.33.77,3.35,1.33,0,3.28-1.74,4.49-2.52,1.19.8,3.11,2.59,4.44,2.6a1,1,0,0,0,.65-.21c.76-.6.38-2.32.19-3.12-.14-.59-.32-1.18-.52-1.76-.07-.22-.18-.48-.25-.72,1.12-.86,3.9-2.43,3.91-3.77a1,1,0,0,0-.06-.34c-.35-.91-2.14-1.06-3-1.12-.57,0-1.14,0-1.72,0-.26,0-.56,0-.83,0-.09-.27-.17-.56-.25-.83-.15-.52-.32-1-.5-1.55-.28-.79-.94-2.55-2-2.56-1.38,0-2.33,3.59-2.81,4.88l-.79,0c-.59,0-1.2,0-1.79,0-.86,0-3,.19-3,1.41S91.94,140.77,93,141.65Z"/><path class="cls-6" d="M95,136.7c-.47,0-5.49-.4-5.5,1.12,0,1.19,3.11,3.07,3.87,3.73-.08.32-2.31,5.61-.38,5.63,1.25,0,3.46-2,4.49-2.58,1,.65,3.19,2.65,4.44,2.66,1.94,0-.19-5.3-.27-5.63.77-.63,4-2.48,4-3.66,0-1.48-4.79-1.16-5.49-1.22-.32-.81-1.21-4.91-2.51-4.92S95.4,135.77,95,136.7Z"/><path class="cls-6" d="M276.72,80.13c-.47,0-5.49-.4-5.51,1.12,0,1.19,3.11,3.08,3.88,3.74-.09.32-2.31,5.6-.38,5.62,1.24,0,3.46-2,4.49-2.57,1,.64,3.19,2.64,4.44,2.65,1.93,0-.19-5.3-.27-5.62.76-.64,3.95-2.48,4-3.67,0-1.48-4.79-1.16-5.49-1.22-.32-.81-1.22-4.91-2.51-4.92S277.1,79.2,276.72,80.13Z"/><path class="cls-7" d="M98,135.73c-.07-1.45-.24-3.08-.59-3.13-.63-.08-1.35,4.48-2.12,4.73s-4.68-.61-5.09.44,3.32,2.7,3.6,3.57-1.34,4.12-.73,4.34c.33.12,1.49-1,2.55-2.32A10,10,0,0,0,98,135.73Z"/><path class="cls-7" d="M103.58,137.27c-.73-.08-1.36.12-1.39.44s.53.64,1.27.71,1.36-.11,1.4-.43S104.32,137.35,103.58,137.27Z"/><path class="cls-8" d="M9.48,67.25,3.65,65.53A17,17,0,0,1,0,75.77l5.83,1.72C8.21,74.49,9.76,71.19,9.48,67.25Z"/><path class="cls-9" d="M13.49,25.68,12,31.58a17,17,0,0,1,10.37,3.24c.5-2,1-3.93,1.49-5.89C20.77,26.67,17.42,25.25,13.49,25.68Z"/><polygon class="cls-6" points="53.43 54.49 46.27 53.13 45.83 63.99 53 65.35 53.43 54.49"/><path class="cls-8" d="M52.53,92.77q.77-2.94,1.54-5.89a16.91,16.91,0,0,1-10.34-3.33c-.52,2-1,3.92-1.55,5.88C45.25,91.72,48.59,93.16,52.53,92.77Z"/><path class="cls-8" d="M336.87,141.7l-5.6.31a15.69,15.69,0,0,1,0,10l5.6-.31C338,148.38,338.33,145,336.87,141.7Z"/><path class="cls-10" d="M355.54,62.59,351,66.67a16.93,16.93,0,0,1,6.82,8.46l4.52-4.08C361,67.46,359,64.42,355.54,62.59Z"/><path class="cls-8" d="M103.59,13l5.52-1a15.54,15.54,0,0,1-1.28-9.72h-1.28L102.34,3C101.63,6.46,101.72,9.82,103.59,13Z"/><path class="cls-9" d="M227.86,107l5.48-1.22a15.69,15.69,0,0,1-1.63-9.89l-5.48,1.21C225.66,100.55,225.88,103.9,227.86,107Z"/><path class="cls-11" d="M51.94,17l4.84-2.84a15.65,15.65,0,0,1-4.6-8.92L47.34,8.05C47.86,11.54,49.11,14.66,51.94,17Z"/><polygon class="cls-11" points="341.24 17.23 346.2 13.9 353.37 22.32 353.37 24.54 349.75 27.11 341.24 17.23"/><path class="cls-8" d="M18.75,148.07l5.55-2.49a17,17,0,0,1-3.89-10.15l-5.55,2.49C15,141.74,16,145.25,18.75,148.07Z"/><path class="cls-8" d="M180.29,87.61l5.55-2.49A16.84,16.84,0,0,1,182,75l-5.56,2.49C176.54,81.29,177.51,84.8,180.29,87.61Z"/><path class="cls-6" d="M219.8,88.19l-4.67-3.9a16.9,16.9,0,0,1-7.41,7.94l4.66,3.9C215.76,94.32,218.49,91.91,219.8,88.19Z"/><path class="cls-10" d="M96.42,86.63q-.3,3-.58,6.05a17,17,0,0,1,10.74,1.63c.19-2,.39-4,.58-6C103.76,86.5,100.23,85.6,96.42,86.63Z"/><path class="cls-2" d="M21.34,106.78l4.7-3.86a17,17,0,0,1-6.42-8.76L14.92,98C16.07,101.67,17.93,104.8,21.34,106.78Z"/><path class="cls-10" d="M22.78,181.17l4.3,4.3a16.93,16.93,0,0,0-7.25,8.1q-2.14-2.16-4.3-4.3C17,185.75,19.18,182.81,22.78,181.17Z"/><polygon class="cls-2" points="152.45 52.35 149.65 57.62 137.67 52.92 140.28 47.65 152.45 52.35"/><path class="cls-12" d="M34.52,76.1l5.53,1a15.6,15.6,0,0,1,2.29-9.76l-5.53-1C34.94,69.33,33.86,72.51,34.52,76.1Z"/><path class="cls-8" d="M200.74,64.19,195.37,67a17,17,0,0,0-5.62-9.3l5.37-2.85C198.05,57.35,200.22,60.27,200.74,64.19Z"/><path class="cls-8" d="M202.92,224.33l5.52,2.57a16.91,16.91,0,0,1,5.12-9.58l-5.51-2.57C205.25,217.36,203.24,220.39,202.92,224.33Z"/><path class="cls-7" d="M325.74,221.49a12.18,12.18,0,0,0-.46-2.36,14.78,14.78,0,0,0,6.5-14,10.7,10.7,0,0,0-2.32-5.26,15.67,15.67,0,0,0,4.46-12.7,13.09,13.09,0,0,0-1.63-5.16,16.17,16.17,0,0,0,2.37-2.92c5.06-8-.77-13.75-7.78-17.22h-6.11a30.58,30.58,0,0,1,11.49,6c4.25,3.76,2.62,9-1.12,12.37a16.66,16.66,0,0,0-8.25-5.53c-4.36-1.35-14.18-3.42-16.15,2.51-2.08,6.25,4.15,9.47,9.24,9.87,5.4.42,10.87-.74,15-3.94a11.61,11.61,0,0,1,1.57,3.66c1,4.31-1.39,8.49-4.58,11.39-4.5-4.08-11.8-5.64-16.3-2.24-3.19,2.42-4.46,5.74.17,7.68a16,16,0,0,0,16.13-2.42,10.23,10.23,0,0,1,1.94,2.62c2.35,4.7-.88,9.82-4.71,12.45-.3.2-.59.38-.89.54a6.3,6.3,0,0,0-8.07-2.78c-2.64,1.3-3.95,4.13-.07,5.79a9.47,9.47,0,0,0,8.06-.19,3.15,3.15,0,0,1-.25,2.56,13.76,13.76,0,0,1-1.78,2.25c-2.77,3.14-6.4,5.54-8.87,8.95-.49.68.09,3.33.79,2.37,2.75-3.8,12.16-8.88,11.66-14.36Zm-14.27-37.93h0c-4.16-1.39-4.59-5.88-.22-7,2.57-.67,5.45-.27,8,.14,3.85.62,7.69,2.11,10.31,4.83-4.78,3.12-12.78,3.81-18.11,2.05Zm13.44,17h0a13.74,13.74,0,0,1-11.76,1c-2.37-.88-1.74-2.54-.34-3.33,3.74-2.3,9.35-1.17,13.28,1.59-.39.28-.79.54-1.18.78Zm-6.81,15.86a8,8,0,0,1,1.57-.12,5,5,0,0,1,3,1.3,9,9,0,0,1-4.39.22C316.54,217.43,316,216.85,318.1,216.38Z"/><path class="cls-6" d="M184.18,14.5l-6.08-.1a17,17,0,0,1-.78,10.84l6.09.1C184.89,21.81,185.5,18.22,184.18,14.5Z"/><path class="cls-9" d="M53.49,167.4l.41-.29a9.06,9.06,0,0,1-1.48-3.78c-.68-4.68,2.74-9.08,6.8-10.84,5-2.17,11.34-1,16.32.64.56.19-.36,2-1.07,1.76-6.69-2.16-22.28-3.7-20.62,7.76a7.28,7.28,0,0,0,1.63,3.52A22.29,22.29,0,0,1,67.75,164c3.46.41,5.72,3.25,3.71,6.47s-6.61,2.72-9.57,1.88a15.31,15.31,0,0,1-7.16-4.16l-.48.24c-5.25,2.88-2.32,9.31,1,12.46.19.19.39.37.6.55,3-1.76,7.57-1.55,10,.77,2.86,3,.92,5.48-3,4.66a18.93,18.93,0,0,1-7.49-3.62c-7,4.38,9.78,16.1,12.32,17.79.58.39-.51,2.12-1.07,1.75-4.86-3.24-19.42-13-12.14-20.28-4.84-4.25-7.16-10.55-1-15.09Zm16.49,3h0c1.73-.87.73-2.81-.36-3.64s-3-1-4.44-1.07a21.59,21.59,0,0,0-8.63,1.66c3.55,3.29,9.69,4.95,13.43,3ZM63.8,183.16a8.77,8.77,0,0,0-6.62-.71,16.74,16.74,0,0,0,5.61,2.49C65.76,185.62,65.77,184.53,63.8,183.16Z"/><path class="cls-6" d="M282.54,131.25l3.12-5.22a17,17,0,0,1-9-6.07q-1.54,2.61-3.11,5.22C275.84,128.23,278.65,130.54,282.54,131.25Z"/><path class="cls-10" d="M242,48.52l4.45,3.42A15.67,15.67,0,0,1,253,44.33l-4.46-3.42C245.53,42.71,243.11,45,242,48.52Z"/><path class="cls-2" d="M97,178.17l6,1a16.9,16.9,0,0,0-1.22,10.8l-6-1C95,185.23,95,181.59,97,178.17Z"/><path class="cls-2" d="M64.46,113.79l6,1a16.9,16.9,0,0,0-1.22,10.8l-6-1C62.42,120.85,62.48,117.21,64.46,113.79Z"/><polygon class="cls-8" points="102.3 59.03 97.36 60.2 93.66 49.92 98.48 48.64 102.3 59.03"/><path class="cls-10" d="M204.3,16.08l.42-.28A9.1,9.1,0,0,1,203.24,12C202.56,7.33,206,2.94,210,1.17c5-2.17,11.34-.95,16.31.65.57.18-.35,2-1.06,1.75C218.6,1.42,203-.13,204.67,11.34a7.4,7.4,0,0,0,1.62,3.52,22.35,22.35,0,0,1,12.28-2.2c3.46.42,5.72,3.25,3.71,6.48-1.91,3.06-6.61,2.71-9.57,1.87a15.14,15.14,0,0,1-7.16-4.16l-.48.25c-5.25,2.87-2.33,9.3,1,12.46.19.18.39.37.6.54,3-1.75,7.57-1.55,10,.77,2.86,3,.92,5.49-3,4.66a19,19,0,0,1-7.49-3.61C199.18,36.3,216,48,218.52,49.7c.58.39-.51,2.13-1.07,1.75-4.86-3.23-19.42-13-12.14-20.27-4.84-4.25-7.16-10.55-1-15.1Zm16.5,3h0c1.73-.88.73-2.82-.36-3.65A7.79,7.79,0,0,0,216,14.36,21.58,21.58,0,0,0,207.37,16c3.55,3.3,9.69,5,13.43,3.06Zm-6.18,12.78a8.77,8.77,0,0,0-6.62-.72,16.46,16.46,0,0,0,5.61,2.49C216.58,34.31,216.59,33.22,214.62,31.85Z"/><polygon class="cls-9" points="318.09 104.06 323.56 106.46 319.76 118.75 314.31 116.54 318.09 104.06"/><path class="cls-6" d="M285.37,18.62l4.33,4.28a16.94,16.94,0,0,1,8.05-7.3l-4.32-4.28C289.91,12.84,287,15,285.37,18.62Z"/></g></g></g></svg>