<?xml version="1.0" encoding="utf-8"?>
<!-- Generator: Adobe Illustrator 24.1.0, SVG Export Plug-In . SVG Version: 6.00 Build 0)  -->
<svg version="1.1" id="Layer_1" xmlns="http://www.w3.org/2000/svg" xmlns:xlink="http://www.w3.org/1999/xlink" x="0px" y="0px"
	 viewBox="0 0 28 28" style="enable-background:new 0 0 28 28;" xml:space="preserve">
<style type="text/css">
	.st0{fill-rule:evenodd;clip-rule:evenodd;fill:#C82A32;}
	.st1{fill-rule:evenodd;clip-rule:evenodd;fill:#FFFFFF;}
</style>
<g>
	<path class="st0" d="M13.4,28C5.7,27.7-0.3,21.1,0,13.4C0.3,5.7,6.9-0.3,14.6,0C22.3,0.3,28.3,6.9,28,14.6
		C27.7,22.3,21.1,28.3,13.4,28z"/>
	<path class="st1" d="M22,22c-0.9,0.9-2.3,0.9-3.1,0c-0.7-0.7-0.8-1.7-0.4-2.5l-0.6-0.6c-0.9,0.7-2,1.2-3.1,1.3v0.3
		c0.9,0.3,1.5,1.1,1.5,2.1c0,1.2-1,2.2-2.2,2.2s-2.2-1-2.2-2.2c0-1,0.6-1.8,1.5-2.1v-0.3c-1.1-0.1-2.2-0.6-3.1-1.3l-0.6,0.6
		c0.4,0.8,0.2,1.8-0.4,2.5c-0.9,0.9-2.3,0.9-3.1,0c-0.9-0.9-0.9-2.3,0-3.1c0.7-0.7,1.7-0.8,2.5-0.4l0.6-0.6c-0.7-0.9-1.2-2-1.3-3.1
		H7.5c-0.3,0.9-1.1,1.5-2.1,1.5c-1.2,0-2.2-1-2.2-2.2s1-2.2,2.2-2.2c1,0,1.8,0.6,2.1,1.5h0.3c0.1-1.1,0.6-2.2,1.3-3.1L8.5,9.5
		C7.6,9.9,6.6,9.8,6,9.1C5.1,8.2,5.1,6.8,6,6c0.9-0.9,2.3-0.9,3.1,0c0.7,0.7,0.8,1.7,0.4,2.5l0.6,0.6c0.9-0.7,2-1.2,3.1-1.3V7.5
		c-0.9-0.3-1.5-1.1-1.5-2.1c0-1.2,1-2.2,2.2-2.2s2.2,1,2.2,2.2c0,1-0.6,1.8-1.5,2.1v0.3c1.1,0.1,2.2,0.6,3.1,1.3l0.6-0.6
		c-0.4-0.8-0.2-1.8,0.4-2.5c0.9-0.9,2.3-0.9,3.1,0c0.9,0.9,0.9,2.3,0,3.1c-0.7,0.7-1.7,0.8-2.5,0.4l-0.6,0.6c0.7,0.9,1.2,2,1.3,3.1
		h0.3c0.3-0.9,1.1-1.5,2.1-1.5c1.2,0,2.2,1,2.2,2.2s-1,2.2-2.2,2.2c-1,0-1.8-0.6-2.1-1.5h-0.3c-0.1,1.1-0.6,2.2-1.3,3.1l0.6,0.6
		c0.8-0.4,1.8-0.2,2.5,0.4C22.9,19.8,22.9,21.2,22,22z M11.4,12.2c0.2-0.2,0.2-0.6,0-0.9c-0.2-0.2-0.6-0.2-0.9,0
		c-0.2,0.2-0.2,0.6,0,0.9C10.7,12.5,11.1,12.5,11.4,12.2L11.4,12.2z M15.8,18.4c1.2-1.2,1.2-3.2,0-4.4c-1.2-1.2-3.2-1.2-4.4,0
		c-1.2,1.2-1.2,3.2,0,4.4C12.6,19.6,14.5,19.6,15.8,18.4z M14.9,12.2c0.2-0.2,0.2-0.6,0-0.9c-0.2-0.2-0.6-0.2-0.9,0
		c-0.2,0.2-0.2,0.6,0,0.9C14.2,12.5,14.6,12.5,14.9,12.2L14.9,12.2z"/>
</g>
</svg>
