<?xml version="1.0" encoding="UTF-8"?>
<svg width="14px" height="10px" viewBox="0 0 14 10" version="1.1" xmlns="http://www.w3.org/2000/svg" xmlns:xlink="http://www.w3.org/1999/xlink">
    <!-- Generator: Sketch 50.2 (55047) - http://www.bohemiancoding.com/sketch -->
    <title>night video image off</title>
    <desc>Created with Sketch.</desc>
    <defs></defs>
    <g id="00-CHANNEL" stroke="none" stroke-width="1" fill="none" fill-rule="evenodd">
        <g id="13-Home-Landing-video-image-off-Copy" transform="translate(-12.000000, -996.000000)" fill="#FDBA4D" fill-rule="nonzero">
            <path d="M26,996.749 L26,1005.249 C26,1005.46767 25.8983333,1005.62133 25.695,1005.71 C25.627,1005.736 25.562,1005.749 25.5,1005.749 C25.3593333,1005.749 25.242,1005.69967 25.148,1005.601 L22,1002.453 L22,1003.75 C22,1004.37 21.78,1004.9 21.34,1005.34 C20.9,1005.78 20.37,1006 19.75,1006 L14.25,1006 C13.63,1006 13.1,1005.78 12.66,1005.34 C12.22,1004.9 12,1004.37 12,1003.75 L12,998.25 C12,997.63 12.22,997.1 12.66,996.66 C13.1,996.22 13.63,996 14.25,996 L19.75,996 C20.37,996 20.9,996.22 21.34,996.66 C21.78,997.1 22,997.63 22,998.25 L22,999.539 L25.148,996.398 C25.242,996.299333 25.3593333,996.25 25.5,996.25 C25.5626667,996.25 25.6276667,996.263 25.695,996.289 C25.8983333,996.377667 26,996.531333 26,996.75 L26,996.749 Z" id="night-video-image-off"></path>
        </g>
    </g>
</svg>