<svg xmlns="http://www.w3.org/2000/svg" viewBox="0 0 29.21 7.31"><defs><style>.cls-1{fill:#e4af46;}.cls-2{fill:#2e3192;}</style></defs><title>trompet</title><g id="Layer_2" data-name="Layer 2"><g id="Layer_1-2" data-name="Layer 1"><path class="cls-1" d="M17.25,3.65l-.47,2.82,3.55-.21.81-3Z"/><path class="cls-1" d="M5.45,4.53,5,7.08,7.25,7,8,4.36Z"/><path class="cls-1" d="M11.09,4.14l-.44,2.67,2.75-.15.76-2.75Z"/><path class="cls-1" d="M28.81,1.29,26.34,0s.94,1.73,0,2.51a7.2,7.2,0,0,1-2.06.43L23.78,6c1.75-.13,3.07-.25,3.64-.36C30.34,5.12,28.81,1.29,28.81,1.29Z"/><path class="cls-1" d="M.45,4.89C-.78,7.55.92,7.3.92,7.3H1.7l.67-2.49Z"/><path class="cls-2" d="M21.14,3.29l-.81,3,3.39-.24L24.23,3Z"/><path class="cls-2" d="M14.17,3.91l-.76,2.75,3.38-.19.47-2.82Z"/><path class="cls-2" d="M8,4.38,7.24,7l3.41-.18.44-2.67Z"/><path class="cls-2" d="M2.34,4.77,1.67,7.26,5,7.1l.45-2.57Z"/></g></g></svg>