<?xml version="1.0" encoding="UTF-8"?>
<svg width="16px" height="16px" viewBox="0 0 16 16" version="1.1" xmlns="http://www.w3.org/2000/svg" xmlns:xlink="http://www.w3.org/1999/xlink">
    <!-- Generator: Sketch 52.6 (67491) - http://www.bohemiancoding.com/sketch -->
    <title>sort cendol</title>
    <desc>Created with Sketch.</desc>
    <g id="01-LANDING-FORUM" stroke="none" stroke-width="1" fill="none" fill-rule="evenodd">
        <g id="5-landing-subforum-sort" transform="translate(-26.000000, -424.000000)" fill="#484848">
            <g id="sort-cendol" transform="translate(26.000000, 424.000000)">
                <g id="Group-3-Copy" transform="translate(0.637500, 0.000000)">
                    <path d="M11.05,0.237496048 L9.8223828,2.4 L9.35,-2.44249065e-15 L11.05,0.237496048 Z M14.45,2.13395249 L11.9,3.2 L13.2590825,0.8 L14.45,2.13395249 Z M15.2036026,5.6 L12.75,4.66839827 L15.3,4 L15.2036026,5.6 Z M11.05,6.81431005 C12.5197316,6.90760587 13.2923934,7.8719296 13.2923934,9.5504334 C13.2923934,11.2297513 12.5226751,12.2203423 11.05,12.3767843 L11.05,12.606707 C11.05,14.4776485 9.49434465,16 7.58208877,16 L3.46752654,16 C1.55565535,16 2.76223489e-13,14.4776485 2.76223489e-13,12.606707 L2.76223489e-13,4 L11.05,4 L11.05,6.81431005 Z M11.05,7.61636418 L11.05,11.5710359 C12.0341458,11.4358768 12.4955184,10.8069243 12.4955184,9.5504334 C12.4955184,8.29241331 12.0375859,7.69732878 11.05,7.61636418 Z M10.2806353,7.32197208 L10.2806353,4.75289394 L0.769364665,4.75289394 L0.769364665,8.11863364 C1.9049281,7.41136353 3.54100376,7.43090463 5.67759164,8.17725695 C7.56967544,8.83819916 9.10402334,8.55310421 10.2806353,7.32197208 Z" id="Combined-Shape"></path>
                </g>
            </g>
        </g>
    </g>
</svg>