<?xml version="1.0" encoding="UTF-8"?>
<svg width="20px" height="20px" viewBox="0 0 20 20" version="1.1" xmlns="http://www.w3.org/2000/svg" xmlns:xlink="http://www.w3.org/1999/xlink">
    <!-- Generator: Sketch 50 (54983) - http://www.bohemiancoding.com/sketch -->
    <title>Group</title>
    <desc>Created with Sketch.</desc>
    <defs></defs>
    <g id="DAY" stroke="none" stroke-width="1" fill="none" fill-rule="evenodd">
        <g id="41-Profile-dropdown" transform="translate(-10.000000, -508.000000)" fill="#B3B3B3">
            <g id="live-posting" transform="translate(10.000000, 508.000000)">
                <g id="Group" transform="translate(2.000000, 2.000000)">
                    <polygon id="Fill-1" points="5.00105455 13.6329283 7.96032727 16.64045 10.9192364 13.6329283 7.96032727 10.6254065"></polygon>
                    <g id="Group-4" transform="translate(0.000000, 0.009941)">
                        <path d="M9.44044298,7.00342215 L11.966724,9.33398474 L9.97069091,9.33398474 C9.90854215,9.33461925 9.84903802,9.31177682 9.80540165,9.26989902 L8.05928595,7.57575198 C7.95217851,7.47930615 7.81002975,7.42473812 7.66325289,7.42410361 L7.14688926,7.42410361 C7.08407934,7.4234691 7.03118678,7.4710575 7.02854215,7.53197065 L7.02854215,9.1366515 C7.02854215,9.25974683 6.92407934,9.35936522 6.79647603,9.35936522 L5.47416198,9.35936522 L5.47416198,7.45582921 L4.5816,7.45582921 C4.26027769,7.45582921 3.99978182,7.20519697 3.99978182,6.89745865 L3.99978182,6.26294664 L5.48143471,6.26294664 L5.48143471,4.35941063 L6.80374876,4.35941063 C6.92077355,4.36194868 7.01796364,4.44951134 7.02854215,4.56181996 L7.02854215,6.14809997 C7.02854215,6.21155117 7.08143471,6.26294664 7.14688926,6.26294664 L7.67581488,6.26294664 C7.81333554,6.25723604 7.94424463,6.20584056 8.04672397,6.11700888 L9.81201322,4.42857244 C9.85631074,4.38352209 9.9184595,4.35814161 9.98325289,4.35941063 L11.9997818,4.35936522 L9.44110413,6.68172457 L9.43118678,6.69124225 C9.34391405,6.78007393 9.34854215,6.91903205 9.44044298,7.00342215 M7.89396364,0.359365217 C3.53432727,0.359365217 -0.000218181818,3.43895217 -0.000218181818,7.23734348 C-0.000218181818,11.0357348 3.53432727,14.1153217 7.89396364,14.1153217 C12.2539636,14.1153217 15.7881455,11.0357348 15.7881455,7.23734348 C15.7881455,3.43895217 12.2539636,0.359365217 7.89396364,0.359365217" id="Fill-2"></path>
                    </g>
                </g>
            </g>
        </g>
    </g>
</svg>