<?xml version="1.0" encoding="UTF-8"?>
<svg width="20px" height="20px" viewBox="0 0 20 20" version="1.1" xmlns="http://www.w3.org/2000/svg" xmlns:xlink="http://www.w3.org/1999/xlink">
    <!-- Generator: Sketch 50.2 (55047) - http://www.bohemiancoding.com/sketch -->
    <title>creator</title>
    <desc>Created with Sketch.</desc>
    <defs></defs>
    <g id="DAY" stroke="none" stroke-width="1" fill="none" fill-rule="evenodd">
        <g id="41-Profile-dropdown" transform="translate(-10.000000, -272.000000)" fill="#B3B3B3">
            <g id="Creator" transform="translate(10.000000, 272.000000)">
                <g id="Group-2" transform="translate(1.000000, 1.000000)">
                    <path d="M9,1.125 C4.65774166,1.125 1.125,4.65774166 1.125,9 C1.125,13.3423037 4.65774166,16.875 9,16.875 C13.3422583,16.875 16.875,13.3423037 16.875,9 C16.875,4.65774166 13.3422583,1.125 9,1.125 M9,18 C4.03737097,18 0,13.962629 0,9 C0,4.03737097 4.03737097,0 9,0 C13.962629,0 18,4.03737097 18,9 C18,13.962629 13.962629,18 9,18" id="Fill-6"></path>
                    <path d="M11.9192949,2.25 C12.3571203,2.63073298 12.4035007,3.34989527 12.0265554,3.81021492 C11.983707,3.86255989 11.9359324,3.9110464 11.8880648,3.95897506 C10.4114207,5.43648864 8.9301292,6.90935346 7.46064195,8.39397964 C7.08927344,8.76913411 6.67923909,8.93695414 6.14986119,8.79033243 C6.12848345,8.86977964 6.10766339,8.9464376 6.08712217,9.02314205 C5.89816154,9.72668452 5.70985153,10.430413 5.51940376,11.133537 C5.50341693,11.1924832 5.51024851,11.2320906 5.55644301,11.2777879 C5.94667971,11.6637275 6.33403506,12.0525493 6.72143689,12.4414176 C6.75722137,12.4772595 6.7873361,12.5013865 6.84593899,12.4855343 C7.6204638,12.275736 8.39577865,12.0689129 9.17072172,11.8610206 C9.17964461,11.8586032 9.18735918,11.8517696 9.19888457,11.8451683 C9.18410605,11.7639081 9.16356483,11.6828803 9.15547846,11.6005974 C9.11811389,11.2199109 9.2403388,10.8977987 9.51123194,10.6274272 C10.5645968,9.57587893 11.6162422,8.52261067 12.6684917,7.46999323 C13.1410327,6.99735438 13.6118078,6.52299549 14.0866259,6.05263453 C14.5250555,5.61830142 15.1945041,5.59287273 15.6590052,5.98806334 C15.688144,6.01288768 15.7150985,6.04026885 15.75,6.07294959 C15.7231849,6.10219025 15.7010171,6.1281303 15.6769439,6.15216436 C13.6797518,8.15015248 11.6825597,10.1481871 9.68355511,12.1444087 C9.64070669,12.1871772 9.57991955,12.2217639 9.52136313,12.2375697 C7.97519486,12.6550743 6.42823654,13.0697432 4.88127822,13.484598 C4.62065569,13.5544688 4.44549764,13.3786994 4.5154865,13.1174859 C4.93165533,11.5638257 5.34796358,10.010212 5.76603781,8.45706324 C5.77793499,8.41285358 5.80261234,8.36636604 5.83463247,8.33424315 C7.84437239,6.32137902 9.8555065,4.30990952 11.8665477,2.29839353 C11.8823021,2.28263426 11.8993578,2.26822312 11.9192949,2.25" id="Fill-10"></path>
                    <path d="M13.5620738,3.375 C13.9739089,3.39857553 14.3319141,3.61238743 14.5226296,4.05311378 C14.7128015,4.49238932 14.6335065,4.90201411 14.3222627,5.26571196 C14.3038663,5.28720196 14.2832496,5.30678778 14.2632673,5.32682698 C12.7833073,6.80764213 11.3035738,8.2887293 9.82306997,9.76895506 C9.42174714,10.1702377 8.84769735,10.2383801 8.39073216,9.94250721 C7.79747035,9.55836213 7.69814783,8.73095179 8.18619662,8.21900014 C8.34474112,8.052702 8.51008232,7.89284179 8.67252359,7.73026133 C10.0033639,6.39860673 11.3347933,5.06758686 12.6645008,3.73484416 C12.896042,3.50280656 13.1689977,3.3764508 13.5620738,3.375" id="Fill-12"></path>
                </g>
            </g>
        </g>
    </g>
</svg>