<?xml version="1.0" encoding="UTF-8"?>
<svg width="23px" height="18px" viewBox="0 0 23 18" version="1.1" xmlns="http://www.w3.org/2000/svg" xmlns:xlink="http://www.w3.org/1999/xlink">
    <!-- Generator: Sketch 50.2 (55047) - http://www.bohemiancoding.com/sketch -->
    <title>home</title>
    <desc>Created with Sketch.</desc>
    <defs></defs>
    <g id="00-CHANNEL" stroke="none" stroke-width="1" fill="none" fill-rule="evenodd">
        <g id="0-menu-copy-3" transform="translate(-20.000000, -306.000000)" fill="#1998ED">
            <path d="M42.8944297,315.400425 L42.0106289,316.438333 C41.9357614,316.52273 41.8353295,316.573009 41.7111591,316.592762 L41.6691603,316.592762 C41.54499,316.592762 41.4445581,316.560439 41.3696906,316.493999 L31.4981462,308.399039 L21.6266018,316.493999 C21.5115616,316.567622 21.3983474,316.60174 21.2851332,316.592762 C21.1609629,316.573009 21.060531,316.52273 20.9856635,316.438333 L20.1018627,315.400425 C20.0269952,315.307049 19.9923006,315.197512 20.0014307,315.070019 C20.0087349,314.94432 20.0616899,314.841966 20.1584697,314.768343 L30.4153075,306.364525 C30.7202553,306.122107 31.0799842,306 31.4999722,306 C31.9181342,306 32.2796891,306.122107 32.5846369,306.364525 L36.0650594,309.226851 L36.0650594,306.492018 C36.0650594,306.360933 36.1070582,306.253192 36.1928818,306.168795 C36.2787055,306.084397 36.3882675,306.043097 36.5215681,306.043097 L39.2606204,306.043097 C39.3920949,306.043097 39.503483,306.086193 39.5874806,306.168795 C39.6751303,306.253192 39.7189551,306.360933 39.7171291,306.492018 L39.7171291,312.216671 L42.8414747,314.770139 C42.9346025,314.843762 42.9893835,314.946116 42.9985137,315.071814 C43.0076439,315.199308 42.9747753,315.308845 42.8980818,315.402221 L42.8944297,315.400425 Z M39.713477,316.368301 L39.713477,323.10213 C39.713477,323.346343 39.6221753,323.556439 39.4413978,323.734212 C39.2624464,323.911985 39.0488003,324.001769 38.8004596,323.999974 L33.322355,323.999974 L33.322355,318.61291 L29.6702853,318.61291 L29.6702853,323.999974 L24.1921807,323.999974 C23.945666,323.999974 23.7301939,323.910189 23.5494165,323.734212 C23.368639,323.556439 23.2773373,323.346343 23.2791633,323.10213 L23.2791633,316.368301 C23.2791633,316.359322 23.2809893,316.344957 23.2864675,316.327 C23.2919456,316.309043 23.2937716,316.296473 23.2937716,316.285699 L31.4963202,309.636268 L39.6988687,316.285699 C39.7079989,316.305452 39.713477,316.334183 39.713477,316.370097 L39.713477,316.368301 Z" id="home"></path>
        </g>
    </g>
</svg>