<?xml version="1.0" encoding="UTF-8"?>
<svg width="18px" height="18px" viewBox="0 0 18 18" version="1.1" xmlns="http://www.w3.org/2000/svg" xmlns:xlink="http://www.w3.org/1999/xlink">
    <!-- Generator: Sketch 50.2 (55047) - http://www.bohemiancoding.com/sketch -->
    <title>cendol</title>
    <desc>Created with Sketch.</desc>
    <defs>
        <linearGradient x1="50.174216%" y1="25.0666667%" x2="50.174216%" y2="113.6%" id="linearGradient-1">
            <stop stop-color="#FFFFFF" offset="0%"></stop>
            <stop stop-color="#FCFCFC" stop-opacity="0.96" offset="9%"></stop>
            <stop stop-color="#F5F5F5" stop-opacity="0.86" offset="23%"></stop>
            <stop stop-color="#E8E9EA" stop-opacity="0.69" offset="41%"></stop>
            <stop stop-color="#D7D8DA" stop-opacity="0.46" offset="63%"></stop>
            <stop stop-color="#C1C3C5" stop-opacity="0.16" offset="87%"></stop>
            <stop stop-color="#B5B7BA" stop-opacity="0" offset="100%"></stop>
        </linearGradient>
        <linearGradient x1="50%" y1="25.0177179%" x2="50%" y2="113.394755%" id="linearGradient-2">
            <stop stop-color="#FFFFFF" stop-opacity="0.5" offset="0%"></stop>
            <stop stop-color="#FFFFFF" stop-opacity="0.46" offset="14%"></stop>
            <stop stop-color="#FFFFFF" stop-opacity="0.36" offset="38%"></stop>
            <stop stop-color="#FFFFFF" stop-opacity="0.19" offset="69%"></stop>
            <stop stop-color="#FFFFFF" stop-opacity="0" offset="99%"></stop>
        </linearGradient>
    </defs>
    <g id="WAP" stroke="none" stroke-width="1" fill="none" fill-rule="evenodd">
        <g id="PROFILE---ABOUT-ME" transform="translate(-32.000000, -601.000000)" fill-rule="nonzero">
            <g id="Group-9" transform="translate(15.000000, 600.000000)">
                <g id="cendol" transform="translate(17.000000, 1.000000)">
                    <g id="cindolita-02-copy">
                        <path d="M9.31153846,0.333333333 C9.60803899,0.333333333 10.0209577,0.335676643 10.6839055,0.340782009 C10.882848,0.342314066 12.2725875,0.353597493 12.7385303,0.357145407 C14.3929096,0.36974265 15.8026936,0.377365586 17.2529608,0.380000593 L17.6005036,0.380632048 L17.5084555,15.4219643 L17.4831281,15.5451732 C17.3546852,15.85044 17.0182668,16.2735301 16.3872633,16.6822306 C15.6393704,17.1666403 14.6301207,17.5082047 13.2853846,17.6533333 L4.75173468,17.6512072 C3.443388,17.5082219 2.43324935,17.1666487 1.68589004,16.682154 C1.05508386,16.2732178 0.71980119,15.8497231 0.592545976,15.5440268 L0.567698318,15.4219643 L0.475646406,0.38 L0.823846154,0.38 C2.40315668,0.38 3.91586868,0.371962586 5.7206099,0.356679555 C6.12034165,0.35329452 7.33847017,0.342307336 7.5344381,0.340638041 C8.12127033,0.335639283 8.4923906,0.333333333 8.76461538,0.333333333 L9.31153846,0.333333333 Z" id="Path" fill="#DDDDDD"></path>
                        <path d="M16.9041124,1.04593777 C15.5726363,1.04277652 14.2563601,1.0353904 12.7330561,1.02379123 C12.266881,1.02024155 10.8770999,1.00895778 10.6783692,1.00742736 C10.0172233,1.00233587 9.60561571,1 9.31153846,1 L8.76461538,1 C8.49504759,1 8.12542408,1.00229665 7.5405619,1.00727863 C7.34484059,1.00894582 6.12668811,1.01993322 5.72669779,1.02332045 C4.0530315,1.0374935 2.62997408,1.0454431 1.17204522,1.04653627 L1.25953758,15.3434542 C1.28428709,15.3863685 1.32560035,15.4487114 1.38672557,15.5259185 C1.54699321,15.7283522 1.77170731,15.934126 2.07251056,16.1291293 C2.72449409,16.5517943 3.62861664,16.8575187 4.79076923,16.9866667 L13.2462674,16.9888019 C14.4448086,16.8575358 15.3481846,16.5518026 16.0008794,16.1290527 C16.3021257,15.9339357 16.5275574,15.7279977 16.6886805,15.5253643 C16.7500225,15.4482188 16.7916057,15.3858587 16.8166202,15.342819 L16.9041124,1.04593777 Z" id="Path" fill="#DDECC9"></path>
                        <path d="M16.5530769,10.4933333 L16.47,14.9933333 C16.47,14.9933333 16.3523077,16.28 12.9253846,16.7333333 L5.15076923,16.7333333 C1.75153846,16.3866667 1.60615385,14.9933333 1.60615385,14.9933333 L1.67538462,3.8 C1.67538462,3.8 5.31692308,6.08 8.59846154,5.06 C10.7446154,4.39333333 13.2853846,2.62 16.5738462,3.72666667 L16.5530769,10.4933333 Z" id="Shape" fill="#45B649"></path>
                        <path d="M2.02561669,15.2666667 C2.02561669,15.2666667 2.17100131,16.66 5.57023208,17.0066667 L13.3448475,17.0066667 C16.8063859,16.5533333 16.8894628,15.2666667 16.8894628,15.2666667 L16.9725398,10.7666667 L17.0348475,4 C16.1415085,5.90167778 14.0012088,6.95570754 11.8771552,6.54 C8.02100131,5.95333333 8.00023208,3.79333333 2.03253977,4.07333333 C1.99792439,4.08 1.98407823,15.3066667 2.02561669,15.2666667 Z" id="Shape" fill="#8EC640"></path>
                        <path d="M9.29076923,10.4466667 L9.04153846,10.4466667" id="Shape" fill="#8EC640"></path>
                        <path d="M3.26769231,2.76666667 C3.81557217,2.77033056 4.25770552,3.19906593 4.25769231,3.72666667 L4.25769231,14.8266667 C4.25769231,15.069672 4.05312088,15.2666667 3.80076923,15.2666667 L3.26769231,15.2666667 C2.7171069,15.2666667 2.27076923,14.83686 2.27076923,14.3066667 L2.27076923,3.72666667 C2.27076923,3.19647331 2.7171069,2.76666667 3.26769231,2.76666667 Z" id="Shape" fill="url(#linearGradient-1)"></path>
                        <path d="M14.6630769,5.86666667 C15.2136623,5.86666667 15.66,6.29647331 15.66,6.82666667 L15.66,14.8266667 C15.66,15.069672 15.4554286,15.2666667 15.2030769,15.2666667 L14.6630769,15.2666667 C14.1124915,15.2666667 13.6661538,14.83686 13.6661538,14.3066667 L13.6661538,6.82 C13.6661538,6.28980664 14.1124915,5.86 14.6630769,5.86 L14.6630769,5.86666667 Z" id="Shape" fill="url(#linearGradient-2)" transform="translate(14.663077, 10.563333) rotate(-180.000000) translate(-14.663077, -10.563333) "></path>
                    </g>
                </g>
            </g>
        </g>
    </g>
</svg>