<svg xmlns="http://www.w3.org/2000/svg" width="24" height="24" viewBox="0 0 24 24">
    <g fill="none" fill-rule="evenodd">
        <path fill="#1998ED" d="M24 12c0 6.628-5.373 12-12 12-6.628 0-12-5.372-12-12C0 5.373 5.372 0 12 0c6.627 0 12 5.373 12 12"/>
        <path fill="#FFF" d="M13.203 16.73a1.057 1.057 0 1 0 0 2.114 1.057 1.057 0 0 0 0-2.114M6.117 10.32a.648.648 0 1 1 1.296-.001.648.648 0 0 1-1.296 0zm1.806 1.49a.648.648 0 1 1 0 1.297.648.648 0 0 1 0-1.297zM9.08 9.672a.648.648 0 1 1 0 1.295.648.648 0 0 1 0-1.295zm1.158 2.138a.647.647 0 1 1 0 1.296.648.648 0 1 1 0-1.296zm1.156-2.138a.648.648 0 1 1 0 1.295.648.648 0 0 1 0-1.295zm1.157 2.138a.648.648 0 1 1 0 1.296.648.648 0 0 1 0-1.296zm1.157-2.138a.649.649 0 1 1 0 1.297.649.649 0 0 1 0-1.297zm3.424-2.692l-2.327 7.397h-.7l1.827-5.883H3.778l3.25 7.456h8.927l2.327-7.398h1.178l.501-1.572h-2.829zM9.709 16.73a1.057 1.057 0 1 0 0 2.114 1.057 1.057 0 0 0 0-2.114"/>
    </g>
</svg>
