<?xml version="1.0" encoding="UTF-8"?>
<svg width="20px" height="20px" viewBox="0 0 20 20" version="1.1" xmlns="http://www.w3.org/2000/svg" xmlns:xlink="http://www.w3.org/1999/xlink">
    <!-- Generator: Sketch 50.2 (55047) - http://www.bohemiancoding.com/sketch -->
    <title>Groups</title>
    <desc>Created with Sketch.</desc>
    <defs></defs>
    <g id="00-CHANNEL" stroke="none" stroke-width="1" fill="none" fill-rule="evenodd">
        <g id="0-menu-copy-2" transform="translate(-13.000000, -202.000000)">
            <g id="Groups" transform="translate(13.000000, 202.000000)">
                <path d="M19.087433,8.64996169 L16.8321839,8.64996169 L16.8321839,5.02444444 C16.8321839,4.02712644 16.0165517,3.21149425 15.0192337,3.21149425 L11.8419923,3.21149425 L11.8472031,3.20957854 L8.22130268,0.943601533 L8.22130268,3.21149425 L5.04850575,3.21149425 C4.05157088,3.21149425 3.23601533,4.02712644 3.23601533,5.02444444 L3.23601533,8.65509579 L3.23402299,8.64996169 L0.968122605,12.2757854 L3.23601533,12.2757854 L3.23601533,13.6353257 C3.23601533,14.632567 4.05157088,15.4481992 5.04850575,15.4481992 L8.6743295,15.4481992 L12.3002299,17.7141762 L12.3002299,15.4481992 L15.0192337,15.4481992 C16.0165517,15.4481992 16.8321839,14.632567 16.8321839,13.6353257 L16.8321839,12.2586973 L19.087433,8.64996169 Z" id="Fill-13" fill="#FFFFFF"></path>
                <path d="M19.087433,8.64996169 L16.8321839,12.2586973 L16.8321839,13.6353257 C16.8321839,14.632567 16.0165517,15.4481992 15.0192337,15.4481992 L12.3002299,15.4481992 L12.3002299,17.7141762 L12.3002299,17.7145594 L15.0192337,17.7145594 C16.5150958,17.7145594 17.7386207,16.4905747 17.7386207,14.9951724 L17.7386207,12.2523372 L19.9900383,8.64996169 L19.087433,8.64996169 Z" id="Fill-15" fill="#FAA61C"></path>
                <path d="M3.23599234,8.65511877 L3.23599234,5.02446743 C3.23599234,4.02714943 4.05162452,3.21151724 5.04848276,3.21151724 L8.22135632,3.21151724 L8.22135632,2.30508046 L5.04848276,2.30508046 C3.55323372,2.30508046 2.32955556,3.52868199 2.32955556,5.02446743 L2.32955556,8.65312644 L0.0654942529,12.2758084 L0.968099617,12.2758084 L3.23407663,8.64998467 L3.23599234,8.65511877 Z" id="Fill-17" fill="#FAA61C"></path>
                <path d="M15.019249,2.3050728 L11.8440766,2.3050728 L8.22131801,0.0410881226 L8.22131801,0.943616858 L11.8471418,3.20959387 L11.8420077,3.21150958 L15.019249,3.21150958 C16.016567,3.21150958 16.8321992,4.02714176 16.8321992,5.02445977 L16.8321992,8.64997701 L17.738636,8.64997701 L17.738636,5.02445977 C17.738636,3.52867433 16.5151111,2.3050728 15.019249,2.3050728" id="Fill-19" fill="#FAA61C"></path>
                <path d="M5.04850575,15.4482222 C4.05157088,15.4482222 3.23601533,14.63259 3.23601533,13.635272 L3.23601533,12.2758084 L2.32957854,12.2758084 L2.32957854,14.9951954 C2.32957854,16.4905977 3.55318008,17.7145824 5.04850575,17.7145824 L8.67501916,17.7145824 L12.3002299,19.9801762 L12.3002299,17.7145824 L12.3002299,17.7141992 L8.6743295,15.4482222 L5.04850575,15.4482222 Z" id="Fill-21" fill="#FAA61C"></path>
                <path d="M11.667433,9.50791571 C11.6170881,9.45986973 11.5858238,9.39190038 11.5858238,9.31711111 C11.5858238,9.24270498 11.616705,9.17511877 11.6666667,9.12745594 L14.56659,6.38400766 L12.2624521,6.38400766 C12.1872797,6.38400766 12.1193103,6.41488889 12.0712644,6.46523372 C12.0712644,6.46523372 12.0704981,6.46523372 12.0701149,6.46569349 L10.0862069,8.46983142 L10.0857471,8.47021456 C9.9732567,8.56791571 9.82773946,8.62822222 9.66819923,8.63236015 L9.06636015,8.63236015 C8.99157088,8.63236015 8.93088123,8.57213027 8.93088123,8.49803065 L8.93088123,8.49611494 L8.93011494,8.49611494 L8.93011494,6.63933333 C8.92436782,6.50423755 8.81639847,6.39504215 8.68122605,6.38699617 L7.17172414,6.38699617 L7.17172414,8.63312644 L5.50199234,8.63312644 L5.50199234,9.36745594 L5.50199234,9.37090421 C5.50199234,9.73504215 5.79885057,10.0304444 6.1645977,10.0304444 L7.17172414,10.0304444 L7.17172414,10.0308276 L7.17172414,12.2758084 L8.66030651,12.2758084 C8.66176245,12.2754253 8.66367816,12.2754253 8.66559387,12.2754253 C8.81065134,12.2754253 8.92858238,12.1590268 8.93011494,12.0143525 L8.93011494,10.160636 L8.93042146,10.1602529 C8.9343295,10.0892184 8.99272031,10.031977 9.06521073,10.031977 C9.06521073,10.031977 9.64727969,10.0308276 9.65034483,10.0308276 C9.82475096,10.0308276 9.9835249,10.0984138 10.1026054,10.2090651 L12.0762452,12.1994866 C12.1242912,12.2468429 12.1899617,12.2758084 12.2624521,12.2758084 L14.5600766,12.2758084 L11.6681992,9.50829885 L11.667433,9.50791571" id="Fill-23" fill="#0D80C2"></path>
            </g>
        </g>
    </g>
</svg>