<svg xmlns="http://www.w3.org/2000/svg" viewBox="0 0 35.73 80"><defs><style>.cls-1{fill:#ccc;}</style></defs><title>No Status</title><g id="Layer_2" data-name="Layer 2"><g id="Layer_1-2" data-name="Layer 1"><circle class="cls-1" cx="17.2" cy="7.5" r="7.5"/><path class="cls-1" d="M35.65,10.75C35.21,7,30.72,4.07,25.06,3.21A8.89,8.89,0,0,1,26.2,7.5a8.89,8.89,0,0,1-.13,1.26c2.63.73,4.2,2,4.36,2.61A2.79,2.79,0,0,1,30,13.64c-.65.81-2.35,1.88-6.75,2.38h-12l-.43,0a2.08,2.08,0,0,0-.42.06C2.24,17.87-.3,30.41,0,41.55A2.63,2.63,0,0,0,2.65,44.1h.08a2.63,2.63,0,0,0,2.55-2.7c-.21-7.24.95-13.56,2.92-17.13V46s0,0,0,0v29.8a4.13,4.13,0,0,0,8.25,0V49h1.49V75.86a4.13,4.13,0,1,0,8.25,0V46.08s0,0,0,0V20.84c3.7-.72,6.33-2,7.87-3.93A8,8,0,0,0,35.65,10.75Z"/></g></g></svg>