<?xml version="1.0" encoding="UTF-8"?>
<svg width="20px" height="17px" viewBox="0 0 20 17" version="1.1" xmlns="http://www.w3.org/2000/svg" xmlns:xlink="http://www.w3.org/1999/xlink">
    <!-- Generator: Sketch 50.2 (55047) - http://www.bohemiancoding.com/sketch -->
    <title>tv</title>
    <desc>Created with Sketch.</desc>
    <defs>
        <path d="M0.000196078431,12.8400805 L19.8905882,12.8400805 L19.8905882,0.00312643678 L0.000196078431,0.00312643678 L0.000196078431,12.8400805 Z M13.0807843,6.24329885 C13.1513725,5.93241379 13.242549,5.59104598 13.352549,5.22935632 L14.2633333,2.22973563 L15.7317647,2.22973563 C16.0486275,2.22973563 16.3333333,2.37863218 16.5133333,2.63871264 C16.6931373,2.8984023 16.7315686,3.21671264 16.6188235,3.51196552 L14.0205882,10.3178276 L11.4301961,10.3178276 L9.25411765,4.63806897 L7.13588235,4.63806897 L7.13588235,10.3178276 L4.4472549,10.3178276 L4.4472549,4.63806897 L2.75176471,4.63806897 L2.75176471,2.22973563 L8.33137255,2.22973563 L8.84137255,2.22973563 L10.0415686,2.22973563 C10.7460784,2.22973563 11.3764706,2.70065517 11.5747059,3.3747931 L12.0980392,5.15881609 C12.2270588,5.59827586 12.3241176,5.97403448 12.3868627,6.27514943 C12.4486275,6.57411494 12.6711765,7.33794253 12.6711765,7.33794253 C12.6711765,7.33794253 13.0113725,6.55086207 13.0807843,6.24329885 Z" id="path-1"></path>
        <linearGradient x1="-0.000985794698%" y1="50.0006019%" x2="99.9996554%" y2="50.0006019%" id="linearGradient-3">
            <stop stop-color="#005C9F" offset="0%"></stop>
            <stop stop-color="#0B83C5" offset="100%"></stop>
        </linearGradient>
    </defs>
    <g id="00-CHANNEL" stroke="none" stroke-width="1" fill="none" fill-rule="evenodd">
        <g id="0-menu-copy-2" transform="translate(-13.000000, -165.000000)">
            <g id="tv" transform="translate(13.000000, 165.000000)">
                <polygon id="Fill-1" fill="#F9A61B" points="0 12.8965517 4.54627451 16.8608736 5.87215686 12.8965517"></polygon>
                <rect id="Rectangle-2" fill="#FFFFFF" x="1" y="1" width="18" height="11"></rect>
                <g id="Group-4">
                    <mask id="mask-2" fill="white">
                        <use xlink:href="#path-1"></use>
                    </mask>
                    <g id="Clip-3"></g>
                    <path d="M0.000196078431,12.8400805 L19.8905882,12.8400805 L19.8905882,0.00312643678 L0.000196078431,0.00312643678 L0.000196078431,12.8400805 Z M13.0807843,6.24329885 C13.1513725,5.93241379 13.242549,5.59104598 13.352549,5.22935632 L14.2633333,2.22973563 L15.7317647,2.22973563 C16.0486275,2.22973563 16.3333333,2.37863218 16.5133333,2.63871264 C16.6931373,2.8984023 16.7315686,3.21671264 16.6188235,3.51196552 L14.0205882,10.3178276 L11.4301961,10.3178276 L9.25411765,4.63806897 L7.13588235,4.63806897 L7.13588235,10.3178276 L4.4472549,10.3178276 L4.4472549,4.63806897 L2.75176471,4.63806897 L2.75176471,2.22973563 L8.33137255,2.22973563 L8.84137255,2.22973563 L10.0415686,2.22973563 C10.7460784,2.22973563 11.3764706,2.70065517 11.5747059,3.3747931 L12.0980392,5.15881609 C12.2270588,5.59827586 12.3241176,5.97403448 12.3868627,6.27514943 C12.4486275,6.57411494 12.6711765,7.33794253 12.6711765,7.33794253 C12.6711765,7.33794253 13.0113725,6.55086207 13.0807843,6.24329885 Z" id="Fill-2" fill="url(#linearGradient-3)" mask="url(#mask-2)"></path>
                </g>
            </g>
        </g>
    </g>
</svg>