<?xml version="1.0" encoding="UTF-8"?>
<svg width="25px" height="17px" viewBox="0 0 25 17" version="1.1" xmlns="http://www.w3.org/2000/svg" xmlns:xlink="http://www.w3.org/1999/xlink">
    <!-- Generator: Sketch 52.6 (67491) - http://www.bohemiancoding.com/sketch -->
    <title>embed_facebook video</title>
    <desc>Created with Sketch.</desc>
    <g id="Page-1" stroke="none" stroke-width="1" fill="none" fill-rule="evenodd">
        <g id="embed_facebook-video" fill="#B3B3B3" fill-rule="nonzero">
            <path d="M14.4460677,0.500039339 C15.5804148,0.500039339 16.4999607,1.41958518 16.4999607,2.5539323 L16.4999607,14.946107 C16.4999607,16.0804542 15.5804148,17 14.4460677,17 L2.05389296,17 C0.919545842,17 0,16.0804542 0,14.946107 L0,2.5539323 C0,1.41958518 0.919545842,0.500039339 2.05389296,0.500039339 L14.4460677,0.500039339 Z M22.5843044,2.11996574 C23.4995701,1.49259831 24.749941,2.13712803 24.749941,3.22854846 L24.749941,14.2672108 C24.749941,15.3629113 23.4952481,16.003119 22.5843044,15.3757935 L17.8749574,12.1316606 L17.8749574,5.36837871 L22.5843044,2.11996574 Z M10.0871175,5.66015625 L11,5.66015625 L11,4.07030487 C10.8428067,4.04882812 10.301129,4 9.67045085,4 C8.35416297,4 7.45265521,4.82813263 7.45265521,6.34960556 L7.45265521,7.75 L6,7.75 L6,9.52734375 L7.45265521,9.52734375 L7.45265521,14 L9.23295824,14 L9.23295824,9.52734375 L10.6268902,9.52734375 L10.8484848,7.75 L9.23295824,7.75 L9.23295824,6.52538681 C9.23295824,6.01171875 9.37121212,5.66015625 10.0871175,5.66015625 Z" id="Combined-Shape"></path>
        </g>
    </g>
</svg>