<svg xmlns="http://www.w3.org/2000/svg" width="210" height="100" viewBox="0 0 210 100">
    <g fill="none" fill-rule="evenodd">
        <path fill="#069" d="M122.919 72.512c2.011-.504 22.123 9.575 24.637 20.661 2.514 11.087-10.434 9.654-22.312 7.852-11.878-1.805-2.325-28.513-2.325-28.513M83.653 72.512c-2.011-.504-22.123 9.575-24.637 20.661-2.514 11.087 10.434 9.654 22.312 7.852 11.878-1.805 2.325-28.513 2.325-28.513"/>
        <path fill="#0082C6" d="M109.585 74.864s15.752 1.345 15.752 26.876l-6.034 1.681s-2.011-22.51-9.05-21.502l-.668-7.055z"/>
        <path fill="#069" d="M109.585 74.864l.668 7.055c1.327-.191 2.473.458 3.465 1.631a51.314 51.314 0 0 1 4.588-4.01c-4.2-4.285-8.721-4.676-8.721-4.676"/>
        <path fill="#0082C6" d="M98.523 74.864S82.767 76.21 82.767 101.74l6.034 1.681s2.011-22.51 9.05-21.502l.672-7.055z"/>
        <path fill="#069" d="M98.523 74.864l-.672 7.055c-1.327-.191-2.473.458-3.465 1.631a51.356 51.356 0 0 0-4.583-4.01c4.199-4.285 8.72-4.676 8.72-4.676"/>
        <path fill="#0082C6" d="M96.512 74.19s-5.028 18.481-4.36 28.895c0 0 7.039 5.708 24.806 1.342 0 0-3.35-27.547-6.367-31.579-3.017-4.031-14.079 1.343-14.079 1.343"/>
        <path fill="#00A9E9" d="M113.073 105.244c1.854-26.531-5.675-23.622-13.21-21.98-6.383 1.39-4.265 16.586-3.346 21.779 3.33.957 8.722 1.614 16.556.201"/>
        <path fill="#069" d="M95.302 79.067c4.541 1.637 10.587 2.645 17.713 1.109-.787-3.473-1.62-6.247-2.424-7.328-3.017-4.031-14.078 1.343-14.078 1.343s-.527 1.929-1.21 4.876"/>
        <path fill="#0082C6" d="M138.594 42.323c0 19.09-15.442 34.562-34.488 34.562-19.048 0-34.49-15.471-34.49-34.562 0-19.091 15.442-34.566 34.49-34.566 19.046 0 34.488 15.475 34.488 34.566"/>
        <path fill="#FFF" d="M107.366 33.208c0 5.775 3.503 10.457 7.83 10.457 4.32 0 7.823-4.682 7.823-10.457 0-5.777-3.504-10.46-7.824-10.46-4.326 0-7.83 4.683-7.83 10.46"/>
        <path fill="#021A23" d="M109.322 33.78c0 3.926 2.518 7.107 5.625 7.107s5.625-3.18 5.625-7.107-2.518-7.11-5.625-7.11-5.625 3.183-5.625 7.11"/>
        <path fill="#FFF" d="M112.178 32.103c0 1.692.985 3.064 2.2 3.064 1.213 0 2.2-1.372 2.2-3.064 0-1.69-.987-3.064-2.2-3.064-1.215 0-2.2 1.373-2.2 3.064M85.191 33.208c0 5.775 3.504 10.457 7.83 10.457 4.32 0 7.823-4.682 7.823-10.457 0-5.777-3.503-10.46-7.823-10.46-4.326 0-7.83 4.683-7.83 10.46"/>
        <path fill="#021A23" d="M87.147 33.78c0 3.926 2.518 7.107 5.626 7.107 3.107 0 5.629-3.18 5.629-7.107s-2.522-7.11-5.63-7.11c-3.107 0-5.625 3.183-5.625 7.11"/>
        <path fill="#FFF" d="M90.838 31.935c0 1.691.985 3.064 2.2 3.064 1.217 0 2.202-1.373 2.202-3.064s-.985-3.064-2.202-3.064c-1.215 0-2.2 1.373-2.2 3.064M92.248 37.655c0 .881-.712 1.597-1.59 1.597-.882 0-1.594-.716-1.594-1.597 0-.88.712-1.596 1.593-1.596.88 0 1.591.716 1.591 1.596"/>
        <path fill="#510D3A" d="M73.363 43.605s11.35 5.689 30.042 5.689 31.379-9.035 31.379-9.035 5.006 25.764-28.708 30.78c-33.714 5.018-32.713-27.434-32.713-27.434"/>
        <path fill="#ED125F" d="M117.425 58.661c-4.006-2.007-13.354 3.01-13.354 3.01l.668 4.35-3.337-4.35S96.73 59.329 89.72 61c-4.467 1.067-4.865 4.574-4.57 6.98 4.785 2.93 11.495 4.462 20.925 3.06 6.754-1.007 11.933-2.853 15.929-5.147-.853-2.818-2.273-6.08-4.578-7.233"/>
        <path fill="#FFF" d="M133.472 41.104c-3.689 2.242-14.9 8.188-30.068 8.188-13.875 0-23.694-3.13-27.835-4.745.467 2.627 2.02 7.718 7.142 9.43 7.007 2.342 26.369 2.677 36.719-.67 8.626-2.79 12.143-7.438 14.042-12.203"/>
        <path fill="#0082C6" d="M134.491 76.744c-.806 10.476 1.71 21.266-11.047 25.554-3.208 1.076-7.373 1.899-8.852-1.925-2.047-5.298 5.302-9.474 7.134-13.43 1.682-3.618 1.004-4.577 3.976-7.546 3.608-3.6 1.744-7.374 3.307-11.663 1.156-3.177 4.648-6.205 7.29-1.657 1.984 3.408-1.538 7.19-1.808 10.667"/>
        <path fill="#0082C6" d="M134.906 79.067c.325-.389.657-.768 1.011-1.127 1.47-1.48 3.916-3.501 5.974-1.66 1.753 1.567 1.337 5.474.225 7.232-1.52 2.392-4.356 3.457-6.919 4.3-2.612.856-4.243 2.83-6.731 3.634-2.303.744-9.735.028-6.663-3.814 1.422-1.772 3.455-1.762 5.323-2.697 1.742-.87 3.952-2.193 5.495-3.439.875-.706 1.57-1.576 2.285-2.429"/>
        <path fill="#00A9E9" d="M141.85 81.09c-.62 1.87-2.467 3.294-4.378 1.299-.945-1.002-.836-3.211-2.767-1.589.981-1.471 1.772-3.358 3.709-3.64 3.395-.506 4.09 1.957 3.437 3.93"/>
        <path fill="#069" d="M131.282 84.986s-3.566 3.752-3.467 5.822c.098 2.078-6.52 10.282-8.88 8.448-2.357-1.83-.404-3.473 2.34-6.912 2.749-3.441 7.582-7.354 10.007-7.358"/>
        <path fill="#069" d="M137.43 89.07s-1.268-2.952-3.693-2.978c-2.424-.03-4.33 3.344-6.724 3.706-2.162.329-4.078-.01-5.39 2.214-2.974 5.041 6.165 4.01 8.405 2.751 2.65-1.483 5.046-3.787 7.402-5.692"/>
        <path fill="#0082C6" d="M136.387 86.846c2.319.341 4.087 2.617 4.2 4.961.253 5.338-7.83 6.263-11.684 5.761-4.96-.65-10.91-2.388-7.02-5.541 2.543-2.07 5.045-.931 7.754-1.915 2.16-.786 3.405-3.1 5.79-3.3.33-.026.65-.01.96.034"/>
        <path fill="#00A9E9" d="M138.765 93.05c-.752 2.487-4.7 2.958-5.71.261-.205-.554.545-1.264.324-1.74-.472-1.05-1.182-1.572-2.268-.546.599-1.159 2.353-2.777 3.734-2.963 2.402-.32 4.379 2.343 4.01 4.614a3.357 3.357 0 0 1-.09.373"/>
        <path fill="#069" d="M134.747 98.425s-.545-2.598-2.51-3.015c-1.961-.42-4.053 2.005-6.05 1.91-1.804-.084-3.303-.67-4.726.916-3.228 3.602 4.346 4.257 6.367 3.6 2.383-.772 4.702-2.248 6.919-3.41"/>
        <path fill="#0082C6" d="M134.26 96.455c1.828.65 2.89 2.787 2.602 4.702-.662 4.369-7.359 3.804-10.402 2.77-3.916-1.338-8.457-3.715-4.795-5.634 2.4-1.266 4.244.067 6.597-.292 1.876-.284 3.262-1.958 5.23-1.734a3.4 3.4 0 0 1 .767.188"/>
        <path fill="#00A9E9" d="M135.187 101.868c-1.014 1.893-4.29 1.635-4.668-.713-.083-.486.64-.94.54-1.361-.213-.927-.703-1.465-1.75-.812.675-.843 2.358-1.867 3.508-1.792 1.996.129 3.166 2.61 2.5 4.39-.036.095-.084.193-.13.288"/>
        <path fill="#069" d="M126.36 105.437s.913-1.721.004-2.884c-.903-1.162-3.224-.787-4.304-1.784-.975-.903-1.543-1.942-3.091-1.72-3.516.502.442 4.453 1.888 5.04 1.708.69 3.709.957 5.503 1.348"/>
        <path fill="#0082C6" d="M127.014 104.096c.72 1.232.314 2.94-.75 3.88-2.428 2.145-5.933-1.338-7.16-3.358-1.575-2.604-3.015-6.09-.046-5.44 1.947.423 2.357 2.044 3.851 2.953 1.19.73 2.758.443 3.761 1.5.135.143.25.302.344.465"/>
        <path fill="#069" d="M134.138 78.429s.77 10.794-3.54 15.73c-4.308 4.935-8.308 12.8-13.079 8.173-4.77-4.626.463-14.495.923-15.112.463-.617 15.696-8.791 15.696-8.791"/>
        <path fill="#0082C6" d="M71.759 76.744c.808 10.476-1.71 21.266 11.047 25.554 3.208 1.076 7.376 1.899 8.854-1.925 2.047-5.298-5.304-9.474-7.136-13.43-1.68-3.618-1.004-4.577-3.974-7.546-3.61-3.6-1.746-7.374-3.309-11.663-1.154-3.177-4.648-6.205-7.288-1.657-1.985 3.408 1.536 7.19 1.806 10.667"/>
        <path fill="#0082C6" d="M71.346 79.067c-.328-.389-.66-.768-1.013-1.127-1.47-1.48-3.916-3.501-5.972-1.66-1.755 1.567-1.34 5.474-.227 7.232 1.52 2.392 4.356 3.457 6.92 4.3 2.611.856 4.242 2.83 6.73 3.634 2.303.744 9.734.028 6.663-3.814-1.422-1.772-3.457-1.762-5.323-2.697-1.74-.87-3.952-2.193-5.495-3.439-.875-.706-1.57-1.576-2.283-2.429"/>
        <path fill="#00A9E9" d="M64.4 81.09c.62 1.87 2.467 3.294 4.378 1.299.945-1.002.836-3.211 2.767-1.589-.981-1.471-1.772-3.358-3.706-3.64-3.397-.506-4.093 1.957-3.44 3.93"/>
        <path fill="#069" d="M74.968 84.986s3.566 3.752 3.47 5.822c-.1 2.078 6.52 10.282 8.875 8.448 2.355-1.83.406-3.473-2.337-6.912-2.75-3.441-7.58-7.354-10.008-7.358"/>
        <path fill="#069" d="M68.82 89.07s1.27-2.952 3.693-2.978c2.424-.03 4.33 3.344 6.723 3.706 2.163.329 4.08-.01 5.39 2.214 2.975 5.041-6.164 4.01-8.404 2.751-2.65-1.483-5.048-3.787-7.402-5.692"/>
        <path fill="#0082C6" d="M69.865 86.846c-2.32.341-4.088 2.617-4.201 4.961-.253 5.338 7.828 6.263 11.683 5.761 4.962-.65 10.913-2.388 7.021-5.541-2.542-2.07-5.046-.931-7.755-1.915-2.16-.786-3.405-3.1-5.792-3.3a4.294 4.294 0 0 0-.956.034"/>
        <path fill="#00A9E9" d="M67.485 93.05c.75 2.487 4.698 2.958 5.71.261.205-.554-.545-1.264-.324-1.74.473-1.05 1.183-1.572 2.269-.546-.6-1.159-2.353-2.777-3.735-2.963-2.402-.32-4.379 2.343-4.01 4.614.024.125.052.252.09.373"/>
        <path fill="#069" d="M71.503 98.425s.545-2.598 2.51-3.015c1.961-.42 4.053 2.005 6.05 1.91 1.806-.084 3.303-.67 4.726.916 3.23 3.602-4.346 4.257-6.365 3.6-2.385-.772-4.704-2.248-6.92-3.41"/>
        <path fill="#0082C6" d="M71.99 96.455c-1.828.65-2.89 2.787-2.602 4.702.662 4.369 7.359 3.804 10.4 2.77 3.918-1.338 8.46-3.715 4.797-5.634-2.4-1.266-4.244.067-6.597-.292-1.877-.284-3.264-1.958-5.227-1.734a3.391 3.391 0 0 0-.77.188"/>
        <path fill="#00A9E9" d="M71.064 101.868c1.013 1.893 4.29 1.635 4.67-.713.08-.486-.644-.94-.543-1.361.213-.927.703-1.465 1.75-.812-.672-.843-2.358-1.867-3.508-1.792-1.995.129-3.166 2.61-2.5 4.39.036.095.084.193.13.288"/>
        <path fill="#069" d="M79.89 105.437s-.913-1.721-.004-2.884c.903-1.162 3.224-.787 4.304-1.784.975-.903 1.54-1.942 3.093-1.72 3.512.502-.444 4.453-1.89 5.04-1.708.69-3.707.957-5.503 1.348"/>
        <path fill="#0082C6" d="M79.236 104.096c-.72 1.232-.316 2.94.75 3.88 2.43 2.145 5.933-1.338 7.16-3.358 1.575-2.604 3.013-6.09.046-5.44-1.944.423-2.357 2.044-3.853 2.953-1.19.73-2.757.443-3.759 1.5-.135.143-.25.302-.344.465"/>
        <path fill="#069" d="M72.112 78.429s-.77 10.794 3.54 15.73c4.308 4.935 8.308 12.8 13.079 8.173 4.77-4.626-.463-14.495-.923-15.112-.463-.617-15.696-8.791-15.696-8.791"/>
        <path fill="#D6D6D6" d="M71.278 74.955s.818 31.256 32.008 31.256c31.186 0 32.006-31.256 32.006-31.256H71.278z"/>
        <path fill="#929292" d="M135.293 74.955c0 6.361-14.33 11.516-32.007 11.516-17.678 0-32.008-5.155-32.008-11.516 0-6.36 14.33-11.514 32.008-11.514 17.677 0 32.007 5.154 32.007 11.514"/>
        <path fill="#8CC63F" d="M103.286 68.171c-15.426 0-28.294 3.925-31.326 9.15 3.032 5.225 15.9 9.15 31.326 9.15 15.422 0 28.29-3.925 31.323-9.15-3.033-5.225-15.9-9.15-31.323-9.15"/>
        <path fill="#D9E021" d="M123.803 74.236c0 2.667-8.266 4.83-18.467 4.83-10.197 0-18.463-2.163-18.463-4.83 0-2.667 8.266-4.83 18.463-4.83 10.2 0 18.467 2.163 18.467 4.83"/>
        <path fill="#FFF" d="M103.286 84.21c-16.098 0-29.15-4.144-29.15-9.256 0-5.11 13.052-9.254 29.15-9.254s29.147 4.144 29.147 9.254c0 5.112-13.05 9.257-29.147 9.257m0-20.77c-17.678 0-32.008 5.154-32.008 11.513 0 6.362 14.33 11.516 32.008 11.516 17.677 0 32.007-5.154 32.007-11.516 0-6.36-14.33-11.514-32.007-11.514"/>
        <path fill="#090" d="M88.489 78.173a1.762 1.762 0 0 0 2.313-.957c.2-.577 1.17-1.92 1.747-2.207.147-.093.201-.107.218-.11l.006.003c.01 0 .018.002.024.004.012.022.038.068.074.165.193.391.316 1.423 1.231 2.485.935.962 2.094 1.526 3.487 1.563.664.002 1.483-.182 2.148-.799.674-.612.972-1.546.956-2.388 0-.182-.008-.337-.022-.47v-.002a1.771 1.771 0 1 0-3.522-.014c-.191-.087-.374-.2-.428-.284-.08-.043-.242-.514-.554-1.4-.22-.844-1.37-2.293-3.01-2.388a2.678 2.678 0 0 0-.384-.022c-1.644.052-2.677.972-3.49 1.818a9.55 9.55 0 0 0-1.75 2.681 1.771 1.771 0 0 0 .955 2.322"/>
        <path fill="#360" d="M119.826 75.547a1.768 1.768 0 0 0-1.835 1.712c.035.042-.237.685-.868 1.173-.602.504-1.44.818-1.835.806-.243-.01-.263-.048-.277-.058a1.773 1.773 0 0 0-2.383 2.625c.786.72 1.806.997 2.697.979 1.548-.036 2.904-.704 4.03-1.6 1.092-.924 2.068-2.103 2.176-3.8.002-.03.002-.059.002-.087a1.772 1.772 0 0 0-1.707-1.75"/>
        <path fill="#6C0" d="M118.06 75.624a1.778 1.778 0 0 0 .78-2.389c-1.064-2.022-3.173-3.71-5.864-3.547a1.769 1.769 0 0 0-1.613 1.912 1.773 1.773 0 0 0 1.912 1.621c.714-.129 1.953.661 2.41 1.625a1.77 1.77 0 0 0 1.804.957c.195-.024.39-.084.571-.18"/>
        <path fill="#360" d="M82.899 79.966c.557.055 1.14.04 1.724-.064a1.454 1.454 0 0 0 1.182-1.685 1.446 1.446 0 0 0-1.681-1.185 3.809 3.809 0 0 1-.942.036c-1.438-.174-2.501-1.125-2.626-2.695a1.455 1.455 0 0 0-1.543-1.363 1.458 1.458 0 0 0-1.355 1.55c.177 2.986 2.496 5.136 5.179 5.404l.062.002"/>
        <path fill="#6C0" d="M100.203 72.362a1.776 1.776 0 0 0 2.242 1.123c.284-.095.75-.17 1.293-.17 1.559-.048 3.7.698 4.212 1.303a1.766 1.766 0 0 0 2.5-.016 1.773 1.773 0 0 0-.01-2.51c-1.77-1.655-4.332-2.278-6.702-2.326-.832.006-1.635.097-2.407.349a1.777 1.777 0 0 0-1.219 1.685c0 .185.036.375.09.562"/>
        <path fill="#FF0" d="M127.753 73.774a1.701 1.701 0 1 0 0 3.403 1.701 1.701 0 0 0 0-3.403M94.055 79.888c-.797 0-1.444.647-1.444 1.445a1.44 1.44 0 1 0 2.882 0c0-.798-.644-1.445-1.438-1.445M102.26 79.258a2.067 2.067 0 0 0-2.065 2.07c0 1.145.923 2.072 2.066 2.072 1.14 0 2.063-.927 2.063-2.072 0-1.143-.923-2.07-2.063-2.07M84.207 72.366a.741.741 0 0 0-.742.738c0 .409.334.74.742.74s.734-.331.734-.74a.734.734 0 0 0-.734-.738"/>
        <path fill="#6C0" d="M101.964 80.028c.644 1.78 2.375 2.275 3.596 2.25a6.072 6.072 0 0 0 3.252-.948c.968-.61 1.94-1.738 1.95-3.286 0-.26-.03-.494-.073-.705a1.77 1.77 0 0 0-2.082-1.395 1.778 1.778 0 0 0-1.396 2.084l.01.016c-.022 0 .03.054-.321.298-.332.228-.93.397-1.34.387a1.283 1.283 0 0 1-.322-.032 1.764 1.764 0 0 0-2.168-.921 1.78 1.78 0 0 0-1.202 1.681c0 .19.028.381.096.57"/>
        <path fill="#090" d="M77.262 90.04c-.368-.966-.571-1.815-.64-2.54-.064-.726.013-1.289.212-1.704.203-.415.527-.661.973-.748.449-.086 1.018-.002 1.702.25.28.105.601.258.971.448.364.187.72.397 1.056.64.334.247.635.533.885.862.255.33.41.695.472 1.09.053.339.01.615-.116.808-.129.194-.312.256-.553.172-.147-.053-.366-.202-.656-.438a17.778 17.778 0 0 0-.74-.574c-.203-.155-.469-.288-.788-.415-.399-.162-.72-.198-.966-.107-.241.092-.406.276-.497.568-.092.294-.114.68-.062 1.151.052.474.181 1.002.38 1.593.404 1.187 1 2.273 1.718 3.26.718.985 1.4 1.654 2.031 2.007.264.147.453.211.571.205.12-.004.26-.032.427-.086a.627.627 0 0 1 .454.006c.246.11.495.342.748.69.254.352.439.658.553.918.236.536.298.88.198 1.048-.105.168-.284.21-.552.127a3.285 3.285 0 0 1-.824-.413c-.63-.411-1.372-1.056-2.259-1.955a25.009 25.009 0 0 1-2.66-3.14c-.86-1.208-1.555-2.456-2.038-3.724M86.47 99.014c-1.768-3.965-1.885-6.465-2.452-10.579-.066-.488-.02-.846.143-1.082.16-.236.438-.303.834-.208 1.541.371 2.343.538 3.985.825.378.064.673.241.895.526.22.288.342.61.366.973.016.24-.016.446-.097.631a.86.86 0 0 1-.36.426c-.16.096-.364.125-.605.076a47.564 47.564 0 0 1-2.772-.597c.12 1.125.185 1.7.342 2.859.97.258 1.466.383 2.486.603.362.078.66.268.879.576.23.31.358.665.398 1.062.038.367-.032.678-.189.911-.165.236-.412.313-.75.23a38.568 38.568 0 0 1-2.38-.63c.236 1.2.369 1.795.723 2.94.973.327 1.478.482 2.52.752.324.085.601.282.834.585.232.3.393.62.485.977.052.202.068.395.052.577-.016.181-.076.31-.183.387-.098.076-.249.079-.44.022-1.336-.4-1.973-.625-3.172-1.129-.257-.109-.527-.324-.82-.643a3.974 3.974 0 0 1-.722-1.07M92.45 100.992c-.995-4.245-.967-6.932-1.204-11.314-.022-.47.07-.81.293-1.032.224-.22.521-.307.893-.26.18.022.378.102.602.25.223.149.394.316.506.493 2.303 3.47 3.391 5.477 5.606 9.095h.034c-.073-3.11-.048-4.785-.058-7.766 0-.482.12-.839.368-1.089.247-.252.563-.369.949-.356.4.012.724.147.967.41.246.265.368.638.366 1.126-.02 4.499-.086 7.242-.01 11.604.008.476-.096.833-.305 1.075-.22.241-.503.346-.853.326-.147-.006-.318-.078-.52-.205a1.892 1.892 0 0 1-.512-.462c-2.21-3.258-3.373-5.227-5.621-8.94l-.032-.004c.136 3.06.21 4.673.697 7.485.079.467.049.806-.094 1.013-.14.208-.36.273-.676.202-.298-.067-.58-.248-.839-.538-.261-.292-.448-.657-.557-1.113M105.9 91.856c-.038 3.532-.07 5.513-.203 8.966.676-.028 1.01-.048 1.67-.096.685-.05 1.263-.285 1.747-.704.483-.42.863-.971 1.14-1.65a7.325 7.325 0 0 0 .497-2.31c.053-.886-.024-1.66-.233-2.327-.213-.665-.57-1.167-1.074-1.508-.5-.338-1.148-.48-1.93-.437-.644.032-.968.044-1.614.066m-2.743 10.25c.022-4.303.078-6.994.103-11.435.002-.451.136-.81.396-1.086.261-.279.583-.42.973-.426a65.271 65.271 0 0 0 2.947-.096c.99-.047 1.868.056 2.628.324.76.272 1.388.687 1.879 1.254.493.572.843 1.294 1.05 2.175.203.887.257 1.899.153 3.04a10.403 10.403 0 0 1-.698 2.957 8.67 8.67 0 0 1-1.366 2.32 6.626 6.626 0 0 1-1.846 1.552 5.32 5.32 0 0 1-2.18.683 38.953 38.953 0 0 1-2.754.14c-.199.003-.396-.039-.591-.126a1.148 1.148 0 0 1-.495-.443c-.135-.208-.203-.488-.199-.833M118.174 98.89c.4-.133.792-.371 1.174-.71a6.757 6.757 0 0 0 1.088-1.246 9.497 9.497 0 0 0 .89-1.584c.249-.572.444-1.171.58-1.78.188-.818.238-1.538.153-2.157-.084-.62-.311-1.07-.675-1.36-.366-.29-.863-.36-1.48-.216a3.39 3.39 0 0 0-1.672.968c-.489.503-.88 1.134-1.182 1.88a9.902 9.902 0 0 0-.602 2.389c-.175 1.328-.118 2.374.155 3.114.272.742.774.968 1.57.702m-.983 2.503c-.794.305-1.404.27-1.906-.117-.503-.389-.873-1.086-1.106-2.1-.234-1.016-.306-2.242-.171-3.632.102-1.063.313-2.08.65-3.032a9.346 9.346 0 0 1 1.33-2.524 7.579 7.579 0 0 1 1.91-1.794 6.878 6.878 0 0 1 2.298-.947c.788-.17 1.49-.17 2.088.008.595.175 1.066.5 1.404.992.335.491.537 1.122.59 1.904.055.785-.05 1.671-.317 2.65-.27.993-.668 1.958-1.18 2.892a16.178 16.178 0 0 1-1.758 2.578 14.647 14.647 0 0 1-1.967 1.971c-.654.536-1.265.923-1.865 1.151M122.652 97.598c2.257-3.954 2.526-6.458 3.335-10.524.09-.437.255-.81.498-1.123.246-.316.515-.524.809-.635.297-.112.507-.092.63.067.124.163.134.468.034.913-.362 1.55-.672 3.118-1.133 4.644-.499 1.667-1.259 3.167-2.019 4.72.664-.301 1.323-1.144 1.766-1.724.35-.464.79-1.196 1.168-.37.294.644-.134.944-.589 1.337-1.48 1.288-3.013 2.544-4.648 3.635-.227.153-.316.137-.283-.028.032-.168.179-.468.432-.912"/>
        <path fill="#FFF" d="M118.227 36.817a1.426 1.426 0 1 1-2.85 0 1.426 1.426 0 1 1 2.85 0"/>
        <g fill-rule="nonzero" stroke="#F8C31C" stroke-linecap="round" stroke-width="1.6">
            <path d="M150.58 67.236l15.392-10.44"/>
            <path stroke-linejoin="round" d="M156.361 77.985l9.611-3.068M173.18 72.692l6.482-1.862M159.565 89.003h20.786M185.139 89.33H190"/>
        </g>
        <g fill-rule="nonzero" stroke="#F8C31C" stroke-linecap="round" stroke-linejoin="round" stroke-width="1.6">
            <path d="M58.102 61.582l-6.982-6.437M51.882 68.843l-4.165-1.78M42.096 64.583L31.4 59.205M48.308 76.515l-16.09-3.369M45.436 86.717H26.611M21.806 86.913H17"/>
        </g>
    </g>
</svg>
