<?xml version="1.0" encoding="UTF-8"?>
<svg width="252px" height="236px" viewBox="0 0 252 236" version="1.1" xmlns="http://www.w3.org/2000/svg" xmlns:xlink="http://www.w3.org/1999/xlink">
    <!-- Generator: Sketch 52.4 (67378) - http://www.bohemiancoding.com/sketch -->
    <title>astronot</title>
    <desc>Created with Sketch.</desc>
    <defs>
        <ellipse id="path-1" cx="98.1155365" cy="97.8983051" rx="97.836681" ry="97.8983051"></ellipse>
        <polygon id="path-3" points="0.2308 0.261428571 3.98649231 0.261428571 3.98649231 3.74877143 0.2308 3.74877143"></polygon>
        <polygon id="path-5" points="0 0.797642489 88.5248081 0.797642489 88.5248081 35.4714446 0 35.4714446"></polygon>
        <polygon id="path-7" points="0.8401 0.6014 27.1551 0.6014 27.1551 13 0.8401 13"></polygon>
        <polygon id="path-9" points="0.0502879519 0.1486875 21.9729986 0.1486875 21.9729986 12.9593836 0.0502879519 12.9593836"></polygon>
        <polygon id="path-11" points="0 0.00203106677 0.972403199 0.00203106677 0.972403199 0.986166809 0 0.986166809"></polygon>
        <polygon id="path-13" points="0.0201363951 0.154691776 8.94465145 0.154691776 8.94465145 9 0.0201363951 9"></polygon>
        <polygon id="path-15" points="0 0.483 146.916867 0.483 146.916867 212 0 212"></polygon>
        <polygon id="path-17" points="0.313681727 0.0013 107.916867 0.0013 107.916867 210 0.313681727 210"></polygon>
        <path d="M30.6831,8.3227 C22.9321,5.9547 15.5421,3.3187 8.6441,0.5037 C5.4131,3.5797 2.9021,7.4997 1.5061,12.0697 C-2.8189,26.2297 5.1531,41.2157 19.3131,45.5417 C33.4731,49.8667 48.4581,41.8947 52.7851,27.7347 C54.1811,23.1647 54.2891,18.5107 53.3291,14.1547 C46.0351,12.6337 38.4331,10.6907 30.6831,8.3227" id="path-19"></path>
        <polygon id="path-21" points="0 0.507446154 21.4682205 0.507446154 21.4682205 21 0 21"></polygon>
        <polygon id="path-23" points="0.177403846 0.314723684 14.45625 0.314723684 14.45625 21 0.177403846 21"></polygon>
    </defs>
    <g id="INVALID-THREAD" stroke="none" stroke-width="1" fill="none" fill-rule="evenodd">
        <g id="1a-invalid-thread" transform="translate(-333.000000, -186.000000)">
            <g id="astronot" transform="translate(333.000000, 185.000000)">
                <g id="Group-140" transform="translate(56.000000, 41.000000)">
                    <mask id="mask-2" fill="white">
                        <use xlink:href="#path-1"></use>
                    </mask>
                    <use id="Mask" fill="#093542" xlink:href="#path-1"></use>
                    <g mask="url(#mask-2)">
                        <g transform="translate(-61.000000, 5.000000)">
                            <path d="M46,98 C44.8952974,98 44,98.8953707 44,100.000164 C44,101.104629 44.8952974,102 46,102 C47.1047026,102 48,101.104629 48,100.000164 C48,98.8953707 47.1047026,98 46,98" id="Fill-1" fill="#1C5A79"></path>
                            <path d="M123,103 C124.104703,103 125,102.104703 125,101 C125,99.8956251 124.104703,99 123,99 C121.895625,99 121,99.8956251 121,101 C121,102.104703 121.895625,103 123,103" id="Fill-3" fill="#1C5A79"></path>
                            <path d="M76.0001549,93 C74.8957027,93 74,93.8954623 74,95 C74,96.1045377 74.8957027,97 76.0001549,97 C77.104607,97 78,96.1045377 78,95 C78,93.8954623 77.104607,93 76.0001549,93" id="Fill-5" fill="#1C5A79"></path>
                            <path d="M74.0001436,65 C75.1046019,65 76,64.1046019 76,63.0001436 C76,61.8953981 75.1046019,61 74.0001436,61 C72.8953981,61 72,61.8953981 72,63.0001436 C72,64.1046019 72.8953981,65 74.0001436,65" id="Fill-7" fill="#1C5A79"></path>
                            <path d="M97,30 C97,28.89534 96.10466,28 95,28 C93.89534,28 93,28.89534 93,30 C93,31.10466 93.89534,32 95,32 C96.10466,32 97,31.10466 97,30" id="Fill-9" fill="#1C5A79"></path>
                            <path d="M110,57 C108.895625,57 108,57.8952974 108,59 C108,60.1043749 108.895625,61 110,61 C111.104703,61 112,60.1043749 112,59 C112,57.8952974 111.104703,57 110,57" id="Fill-11" fill="#1C5A79"></path>
                            <path d="M43,65 C44.1047128,65 45,64.104645 45,62.9998485 C45,61.895355 44.1047128,61 43,61 C41.8952872,61 41,61.895355 41,62.9998485 C41,64.104645 41.8952872,65 43,65" id="Fill-13" fill="#1C5A79"></path>
                            <path d="M82,74 C80.8952529,74 80,74.8952529 80,76 C80,77.1044358 80.8952529,78 82,78 C83.1044358,78 84,77.1044358 84,76 C84,74.8952529 83.1044358,74 82,74" id="Fill-18" fill="#1C5A79"></path>
                            <path d="M99,114 C99,112.895625 98.1047026,112 97,112 C95.8956251,112 95,112.895625 95,114 C95,115.104703 95.8956251,116 97,116 C98.1047026,116 99,115.104703 99,114" id="Fill-20" fill="#1C5A79"></path>
                            <path d="M168,117 C168,115.895625 167.104703,115 166,115 C164.895625,115 164,115.895625 164,117 C164,118.104375 164.895625,119 166,119 C167.104703,119 168,118.104375 168,117" id="Fill-22" fill="#1C5A79"></path>
                            <path d="M139,59 C137.895297,59 137,59.8953707 137,61.0001639 C137,62.1046293 137.895297,63 139,63 C140.104375,63 141,62.1046293 141,61.0001639 C141,59.8953707 140.104375,59 139,59" id="Fill-24" fill="#1C5A79"></path>
                            <path d="M155.000162,20 C153.895532,20 153,20.895532 153,22.0001616 C153,23.1047911 153.895532,24 155.000162,24 C156.104791,24 157,23.1047911 157,22.0001616 C157,20.895532 156.104791,20 155.000162,20" id="Fill-26" fill="#1C5A79"></path>
                            <path d="M125,24 C123.895238,24 123,24.895308 123,26.0001561 C123,27.104692 123.895238,28 125,28 C126.10445,28 127,27.104692 127,26.0001561 C127,24.895308 126.10445,24 125,24" id="Fill-28" fill="#1C5A79"></path>
                            <path d="M85,5.49986395 C85,3.56680272 83.4329861,2 81.5,2 C79.5670139,2 78,3.56680272 78,5.49986395 C78,7.43292517 79.5670139,9 81.5,9 C83.4329861,9 85,7.43292517 85,5.49986395" id="Fill-30" fill="#1C5A79"></path>
                            <path d="M7,156.500136 C7,154.567075 5.43319728,153 3.50013605,153 C1.56707483,153 0,154.567075 0,156.500136 C0,158.433197 1.56707483,160 3.50013605,160 C5.43319728,160 7,158.433197 7,156.500136" id="Fill-32" fill="#1C5A79"></path>
                            <path d="M59,61 C57.8952689,61 57,61.8954781 57,62.9998652 C57,64.1047914 57.8952689,65 59,65 C60.1047311,65 61,64.1047914 61,62.9998652 C61,61.8954781 60.1047311,61 59,61" id="Fill-34" fill="#1C5A79"></path>
                            <path d="M10.0001295,78 C8.89553785,78 8,78.8955379 8,80.0001295 C8,81.1047212 8.89553785,82 10.0001295,82 C11.1047212,82 12,81.1047212 12,80.0001295 C12,78.8955379 11.1047212,78 10.0001295,78" id="Fill-36" fill="#1C5A79"></path>
                            <path d="M36,124 C34.895491,124 34,124.895228 34,125.999737 C34,127.104509 34.895491,128 36,128 C37.104509,128 38,127.104509 38,125.999737 C38,124.895228 37.104509,124 36,124" id="Fill-38" fill="#1C5A79"></path>
                            <path d="M62,96 C60.8956251,96 60,96.8953707 60,98.0001639 C60,99.1046293 60.8956251,100 62,100 C63.1047026,100 64,99.1046293 64,98.0001639 C64,96.8953707 63.1047026,96 62,96" id="Fill-40" fill="#1C5A79"></path>
                            <path d="M115,107 C116.104703,107 117,106.104629 117,104.999836 C117,103.895371 116.104703,103 115,103 C113.895297,103 113,103.895371 113,104.999836 C113,106.104629 113.895297,107 115,107" id="Fill-42" fill="#1C5A79"></path>
                            <path d="M154,118 C152.895625,118 152,118.895371 152,120.000164 C152,121.104957 152.895625,122 154,122 C155.104703,122 156,121.104957 156,120.000164 C156,118.895371 155.104703,118 154,118" id="Fill-44" fill="#1C5A79"></path>
                            <path d="M189,64 C187.895625,64 187,64.8953707 187,66.0001639 C187,67.1046293 187.895625,68 189,68 C190.104375,68 191,67.1046293 191,66.0001639 C191,64.8953707 190.104375,64 189,64" id="Fill-46" fill="#1C5A79"></path>
                            <path d="M169.00016,50 C167.895456,50 167,50.8954556 167,51.9998403 C167,53.1045444 167.895456,54 169.00016,54 C170.104544,54 171,53.1045444 171,51.9998403 C171,50.8954556 170.104544,50 169.00016,50" id="Fill-48" fill="#1C5A79"></path>
                            <path d="M168,94 C169.104703,94 170,93.1047026 170,92 C170,90.8956251 169.104703,90 168,90 C166.895625,90 166,90.8956251 166,92 C166,93.1047026 166.895625,94 168,94" id="Fill-50" fill="#1C5A79"></path>
                            <path d="M90,82 C88.8955224,82 88,82.8952705 88,84.0001622 C88,85.1047295 88.8955224,86 90,86 C91.1044776,86 92,85.1047295 92,84.0001622 C92,82.8952705 91.1044776,82 90,82" id="Fill-52" fill="#1C5A79"></path>
                            <path d="M35,29 C36.1047026,29 37,28.1046293 37,26.9998361 C37,25.8953707 36.1047026,25 35,25 C33.8956251,25 33,25.8953707 33,26.9998361 C33,28.1046293 33.8956251,29 35,29" id="Fill-54" fill="#1C5A79"></path>
                            <path d="M28,44 C26.8952974,44 26,44.8952974 26,46 C26,47.1043749 26.8952974,48 28,48 C29.1043749,48 30,47.1043749 30,46 C30,44.8952974 29.1043749,44 28,44" id="Fill-56" fill="#1C5A79"></path>
                            <path d="M114.999869,177 C113.895347,177 113,177.895608 113,179.000131 C113,180.104392 113.895347,181 114.999869,181 C116.104392,181 117,180.104392 117,179.000131 C117,177.895608 116.104392,177 114.999869,177" id="Fill-58" fill="#1C5A79"></path>
                            <path d="M194,177 C192.895625,177 192,177.895297 192,179 C192,180.104703 192.895625,181 194,181 C195.104375,181 196,180.104703 196,179 C196,177.895297 195.104375,177 194,177" id="Fill-60" fill="#1C5A79"></path>
                            <path d="M142,159 C140.895297,159 140,159.895359 140,161.00014 C140,162.104641 140.895297,163 142,163 C143.104423,163 144,162.104641 144,161.00014 C144,159.895359 143.104423,159 142,159" id="Fill-62" fill="#1C5A79"></path>
                            <path d="M181,181 C179.895389,181 179,181.895389 179,183 C179,184.104382 179.895389,185 181,185 C182.104382,185 183,184.104382 183,183 C183,181.895389 182.104382,181 181,181" id="Fill-64" fill="#1C5A79"></path>
                            <path d="M8,34 C6.89538885,34 6,34.8954402 6,36.0001147 C6,37.1045598 6.89538885,38 8,38 C9.10438174,38 10,37.1045598 10,36.0001147 C10,34.8954402 9.10438174,34 8,34" id="Fill-66" fill="#1C5A79"></path>
                            <path d="M200,141 C198.895625,141 198,141.895371 198,143.000164 C198,144.104629 198.895625,145 200,145 C201.104375,145 202,144.104629 202,143.000164 C202,141.895371 201.104375,141 200,141" id="Fill-70" fill="#1C5A79"></path>
                            <path d="M220,70 C218.895625,70 218,70.8952974 218,72 C218,73.1043749 218.895625,74 220,74 C221.104375,74 222,73.1043749 222,72 C222,70.8952974 221.104375,70 220,70" id="Fill-72" fill="#1C5A79"></path>
                            <path d="M211.391506,38.0371855 C209.982462,37.7700165 208.770197,38.9824761 209.037129,40.3914568 C209.186393,41.1787844 209.821258,41.8136217 210.608621,41.9628782 C212.017665,42.2297984 213.230179,41.0173387 212.962749,39.6086068 C212.813735,38.8212792 212.178869,38.1864419 211.391506,38.0371855" id="Fill-74" fill="#1C5A79"></path>
                            <path d="M223,175 C221.895625,175 221,175.895371 221,177.000164 C221,178.104957 221.895625,179 223,179 C224.104703,179 225,178.104957 225,177.000164 C225,175.895371 224.104703,175 223,175" id="Fill-82" fill="#1C5A79"></path>
                            <path d="M226,4 C226,2.89529739 225.104629,2 223.999836,2 C222.895371,2 222,2.89529739 222,4 C222,5.1043749 222.895371,6 223.999836,6 C225.104629,6 226,5.1043749 226,4" id="Fill-96" fill="#1C5A79"></path>
                            <g id="Group-100" stroke-width="1" fill="none" transform="translate(178.000000, 0.000000)">
                                <mask id="mask-4" fill="white">
                                    <use xlink:href="#path-3"></use>
                                </mask>
                                <g id="Clip-99"></g>
                                <path d="M2.10864615,3.74877143 C3.14556923,3.74877143 3.98649231,2.9682 3.98649231,2.00505714 C3.98649231,1.0422 3.14556923,0.261342857 2.10864615,0.261342857 C1.07172308,0.261342857 0.2308,1.0422 0.2308,2.00505714 C0.2308,2.9682 1.07172308,3.74877143 2.10864615,3.74877143" id="Fill-98" fill="#1C5A79" mask="url(#mask-4)"></path>
                            </g>
                            <path d="M103.00014,7 C104.104657,7 105,6.10465685 105,4.99986036 C105,3.89534315 104.104657,3 103.00014,3 C101.895622,3 101,3.89534315 101,4.99986036 C101,6.10465685 101.895622,7 103.00014,7" id="Fill-101" fill="#1C5A79"></path>
                            <path d="M12,3 C10.8952974,3 10,3.89537075 10,5.00016387 C10,6.10462925 10.8952974,7 12,7 C13.1047026,7 14,6.10462925 14,5.00016387 C14,3.89537075 13.1047026,3 12,3" id="Fill-103" fill="#1C5A79"></path>
                            <path d="M43,138 C43,136.895518 42.1044819,136 41,136 C39.8955181,136 39,136.895518 39,138 C39,139.104482 39.8955181,140 41,140 C42.1044819,140 43,139.104482 43,138" id="Fill-105" fill="#1C5A79"></path>
                            <path d="M53.9998418,166 C52.8952155,166 52,166.895461 52,167.999684 C52,169.104223 52.8952155,170 53.9998418,170 C55.1044682,170 56,169.104223 56,167.999684 C56,166.895461 55.1044682,166 53.9998418,166" id="Fill-107" fill="#1C5A79"></path>
                            <path d="M85,174 C83.8952974,174 83,174.895371 83,176.000164 C83,177.104629 83.8952974,178 85,178 C86.1043749,178 87,177.104629 87,176.000164 C87,174.895371 86.1043749,174 85,174" id="Fill-109" fill="#1C5A79"></path>
                            <path d="M22.0001627,183 C20.895469,183 20,183.895469 20,184.999837 C20,186.104531 20.895469,187 22.0001627,187 C23.1048564,187 24,186.104531 24,184.999837 C24,183.895469 23.1048564,183 22.0001627,183" id="Fill-111" fill="#1C5A79"></path>
                            <path d="M26,167 C24.8954591,167 24,167.895515 24,169.000125 C24,170.104485 24.8954591,171 26,171 C27.1045409,171 28,170.104485 28,169.000125 C28,167.895515 27.1045409,167 26,167" id="Fill-115" fill="#1C5A79"></path>
                            <path d="M168.000129,164 C166.89543,164 166,164.895173 166,165.999871 C166,167.10457 166.89543,168 168.000129,168 C169.104827,168 170,167.10457 170,165.999871 C170,164.895173 169.104827,164 168.000129,164" id="Fill-129" fill="#1C5A79"></path>
                            <path d="M100,150.000164 C100,148.895552 99.1047026,148 98,148 C96.8956251,148 96,148.895552 96,150.000164 C96,151.104448 96.8956251,152 98,152 C99.1047026,152 100,151.104448 100,150.000164" id="Fill-131" fill="#1C5A79"></path>
                        </g>
                    </g>
                </g>
                <g id="Group-15" transform="translate(0.000000, 57.000000)">
                    <path d="M60.1548,34.3823 C54.7298,40.7643 45.7378,43.4873 37.3608,40.5503 C28.9838,37.6133 23.6608,29.8713 23.4088,21.5003 C28.8428,23.9153 34.9778,26.3483 41.5348,28.6463 C48.0908,30.9453 54.4018,32.8753 60.1548,34.3823" id="Fill-1" fill="#9AA8B1"></path>
                    <g id="Group-5" transform="translate(0.000000, 2.731100)">
                        <mask id="mask-6" fill="white">
                            <use xlink:href="#path-5"></use>
                        </mask>
                        <g id="Clip-4"></g>
                        <path d="M88.439,33.6219 C87.336,36.7659 75.812,35.7659 60.155,31.6509 C54.402,30.1439 48.09,28.2139 41.535,25.9149 C34.978,23.6169 28.843,21.1839 23.409,18.7689 C8.61,12.2049 -1.017,5.7909 0.085,2.6469 C1.188,-0.4971 12.712,0.5039 28.371,4.6179 C26.752,6.5179 25.451,8.7399 24.577,11.2329 C24.128,12.5129 32.581,16.6369 43.452,20.4479 C54.322,24.2589 63.499,26.3149 63.948,25.0359 C64.822,22.5419 65.193,19.9959 65.116,17.4999 C79.915,24.0639 89.542,30.4779 88.439,33.6219" id="Fill-3" fill="#768E93" mask="url(#mask-6)"></path>
                    </g>
                    <path d="M65.1158,20.2309 C65.1928,22.7269 64.8218,25.2729 63.9478,27.7669 C63.5148,28.9989 54.9918,27.1369 44.6558,23.5959 C43.7668,25.5389 42.2578,27.0419 40.4638,28.2659 C40.8208,28.3929 41.1748,28.5209 41.5348,28.6469 C48.0908,30.9449 54.4018,32.8749 60.1548,34.3819 C75.8118,38.4969 87.3368,39.4969 88.4388,36.3529 C89.5418,33.2089 79.9148,26.7949 65.1158,20.2309" id="Fill-6" fill="#3E7B7D"></path>
                    <path d="M63.9478,27.7666 C63.4988,29.0466 54.3218,26.9896 43.4518,23.1786 C32.5808,19.3676 24.1288,15.2446 24.5768,13.9646 C25.4508,11.4706 26.7518,9.2496 28.3708,7.3486 C33.7948,0.9676 42.7868,-1.7564 51.1638,1.1806 C59.5408,4.1176 64.8638,11.8596 65.1158,20.2306 C65.1928,22.7266 64.8218,25.2736 63.9478,27.7666" id="Fill-8" fill="#9AA8B1"></path>
                    <g id="Group-12" transform="translate(33.000000, 28.731100)">
                        <mask id="mask-8" fill="white">
                            <use xlink:href="#path-7"></use>
                        </mask>
                        <g id="Clip-11"></g>
                        <path d="M10.5211,0.6014 C7.6761,4.1744 4.4171,7.4134 0.8401,10.1914 C1.9451,10.8274 3.1151,11.3824 4.3611,11.8194 C12.7381,14.7564 21.7301,12.0334 27.1551,5.6514 C21.9861,4.2974 16.3641,2.5994 10.5211,0.6014" id="Fill-10" fill="#608CA1" mask="url(#mask-8)"></path>
                    </g>
                    <path d="M65.1158,20.2309 C64.9038,13.1889 61.0938,6.6039 54.9048,2.9389 C53.9878,10.5339 51.1878,17.8729 47.0408,24.3939 C56.2718,27.4079 63.5498,28.9029 63.9478,27.7669 C64.8218,25.2729 65.1928,22.7269 65.1158,20.2309" id="Fill-13" fill="#608CA1"></path>
                </g>
                <g id="Group-52" transform="translate(190.000000, 139.000000)">
                    <g id="Group-3" transform="translate(3.000000, 0.000000)">
                        <mask id="mask-10" fill="white">
                            <use xlink:href="#path-9"></use>
                        </mask>
                        <g id="Clip-2"></g>
                        <path d="M21.1804836,12.9087725 C12.4116776,8.98391 8.19818507,6.614335 0.294438806,1.15531 C0.038319403,0.9783475 -0.0265313433,0.63401 0.14881194,0.387335 C0.151438806,0.38376 0.152752239,0.3819725 0.155379104,0.3783975 C0.330722388,0.1317225 0.678289552,0.07501 0.932274627,0.2506725 C8.7683791,5.6628975 12.9459164,8.01216 21.6396925,11.9035475 C21.9215881,12.02981 22.0498119,12.35416 21.9255284,12.629435 C21.9235582,12.6334975 21.9227373,12.6354475 21.9209313,12.6396725 C21.7964836,12.9149475 21.4646776,13.03601 21.1804836,12.9087725" id="Fill-1" fill="#7894A2" mask="url(#mask-10)"></path>
                    </g>
                    <path d="M20.2062462,13.9371673 C14.8715863,11.1288023 12.2748036,9.55664953 7.26562329,6.10053661 C7.0036362,5.91988768 6.92170511,5.55054545 7.08187959,5.27703634 C7.08428462,5.27301415 7.08540696,5.27091561 7.08781198,5.26689342 C7.24798646,4.9933843 7.58773594,4.91801191 7.84747834,5.09726181 C12.8146509,8.52434499 15.3894677,10.0833819 20.6793943,12.8679635 C20.9561322,13.013462 21.0770246,13.3677647 20.9487568,13.6608601 C20.9469931,13.6650572 20.9460311,13.6671557 20.9441071,13.6715277 C20.8159995,13.9644483 20.4852288,14.0840648 20.2062462,13.9371673" id="Fill-4" fill="#7894A2"></path>
                    <path d="M21.1513645,16.9397953 C15.8738557,14.4687644 13.2972832,13.0951306 8.30271502,10.0892987 C8.01447146,9.91583585 7.91474089,9.55329673 8.07930488,9.28100635 C8.08169978,9.27706011 8.08289723,9.27500121 8.08529213,9.27105497 C8.24985612,8.99876459 8.61439442,8.91846724 8.90024309,9.0905575 C13.8535848,12.0713393 16.4089453,13.4336491 21.6426615,15.8844341 C21.9447613,16.0258124 22.0822971,16.373596 21.949209,16.6628723 C21.9473273,16.6669902 21.9463009,16.6692206 21.9444192,16.6733385 C21.8113311,16.9626148 21.4558592,17.0825461 21.1513645,16.9397953" id="Fill-6" fill="#7894A2"></path>
                    <path d="M20.9950873,11.6931855 C20.9970524,11.6890749 20.9980349,11.6868484 21,11.6825665 C20.7196468,11.5416087 20.600595,11.1944379 20.7335662,10.9085829 C16.4804514,8.74505984 14.3997462,7.56087692 10.351656,5 C10.1944486,5.27198185 9.85104873,5.35607699 9.58543375,5.18634524 C9.58314115,5.19028453 9.58199484,5.19233981 9.57970223,5.19627909 C9.84531721,5.36601083 9.93358261,5.72294419 9.77637522,5.99492603 C9.61900408,6.26690788 9.27363911,6.34997538 9.00589528,6.17887345 C9.00343891,6.18264146 9.00245637,6.18469674 9,6.18863602 C9.26790759,6.35973795 9.35813808,6.71787022 9.20093069,6.98985206 C13.3184541,9.59474619 15.4348586,10.7991394 19.7610093,13 C19.8939805,12.714145 20.2305026,12.5987069 20.5131484,12.7410349 C20.5151135,12.7369244 20.516096,12.7346978 20.5180611,12.7305873 C20.2352516,12.5884305 20.1143984,12.2400608 20.2473696,11.9542058 C20.3803409,11.6683509 20.7147341,11.5522276 20.9950873,11.6931855" id="Fill-8" fill="#7894A2"></path>
                    <path d="M16.9949781,12.6854648 C16.9969221,12.6813945 16.9980561,12.6790939 17,12.6748466 C16.7212052,12.5196437 16.6073222,12.1557928 16.7450186,11.8637919 C14.1406123,10.3975932 12.8571197,9.62423313 10.3316054,8 C10.1791673,8.28315243 9.83670825,8.37216848 9.56763324,8.19749882 C9.5653653,8.20156914 9.56423133,8.20369278 9.56196339,8.20758613 C9.83103839,8.38260972 9.92629192,8.75230061 9.77385388,9.03545304 C9.62125385,9.31860547 9.2770128,9.4065597 9.00566985,9.23029731 C9.00340191,9.23436763 9.00226794,9.23649127 9,9.24056159 C9.27150494,9.416647 9.36837842,9.78793063 9.21594039,10.0710831 C11.7840596,11.7227466 13.0894217,12.5090255 15.7375668,14 C15.8752632,13.7079991 16.2143204,13.5995163 16.4955451,13.755958 C16.4974891,13.7517107 16.498623,13.7495871 16.500567,13.7453398 C16.2193423,13.5887211 16.1036773,13.2239854 16.2413737,12.9319844 C16.3790701,12.6398065 16.7161834,12.5302619 16.9949781,12.6854648" id="Fill-10" fill="#7894A2"></path>
                    <path d="M2.25209471,3.85281067 C2.99838522,4.28431811 3.37356952,4.49719512 4.12834246,4.91760666 C4.39129772,5.0641822 4.73989287,5.00979856 4.90627895,4.79733252 C4.90856268,4.79418183 4.90970454,4.79253799 4.91231452,4.78952429 C5.07853748,4.57705824 5.00138001,4.28787976 4.74054536,4.14267408 C3.99213425,3.72582419 3.62004929,3.51459102 2.88012061,3.08678221 C2.62222218,2.93774091 2.27379015,2.98527522 2.10104225,3.19404263 C2.0985954,3.19719332 2.09729041,3.19870017 2.09468043,3.20171388 C1.92193253,3.41048129 1.99207568,3.70253649 2.25209471,3.85281067" id="Fill-12" fill="#7894A2"></path>
                    <path d="M1.25782825,5.00384319 C2.39637391,5.77837706 2.97068743,6.15849174 4.12825763,6.90329148 C4.39622724,7.07574943 4.74679914,7.01113797 4.91021508,6.76056766 C4.91281672,6.75687099 4.91395494,6.75510301 4.91639399,6.75140634 C5.07980992,6.50067531 4.99623202,6.15977754 4.73053885,5.98876612 C3.58239962,5.25007392 3.01296419,4.87333447 1.8838495,4.10490815 C1.62254661,3.92714628 1.2716495,3.98050698 1.09945301,4.22545191 C1.09685136,4.22914859 1.09555054,4.23075584 1.09311149,4.23445252 C0.920915001,4.47939745 0.994248918,4.82447407 1.25782825,5.00384319" id="Fill-14" fill="#7894A2"></path>
                    <g id="Group-18" transform="translate(0.000000, 1.000000)">
                        <mask id="mask-12" fill="white">
                            <use xlink:href="#path-11"></use>
                        </mask>
                        <g id="Clip-17"></g>
                        <path d="M0.14913,0.6899 C0.26093,0.779011111 0.31693,0.823455556 0.42913,0.912011111 C0.58693,1.03667778 0.80193,1.00034444 0.90883,0.831677778 C0.91033,0.829233333 0.91123,0.828011111 0.91273,0.825566667 C1.01963,0.6569 0.97893,0.420788889 0.82243,0.297233333 C0.71123,0.209344444 0.65573,0.165233333 0.54483,0.0769 C0.38873,-0.0474333333 0.17443,-0.0135444444 0.06573,0.153566667 C0.06403,0.1559 0.06333,0.157233333 0.06163,0.159677778 C-0.04717,0.326677778 -0.00827,0.564455556 0.14913,0.6899" id="Fill-16" fill="#7894A2" mask="url(#mask-12)"></path>
                    </g>
                    <path d="M29.2409716,16.9608221 C23.0892037,14.5744236 20.0887007,13.1840094 14.2975632,10.040104 C14.0245399,9.89178667 13.9207393,9.5560014 14.0650238,9.29120701 C14.067129,9.2873082 14.0682625,9.28535879 14.0702057,9.28162243 C14.2146522,9.01666559 14.5505064,8.92228183 14.8214245,9.06929957 C20.5633337,12.1862381 23.5384128,13.5649559 29.6378756,15.9312105 C29.925473,16.042814 30.0721866,16.3607298 29.9648233,16.6425814 C29.9633659,16.6466427 29.9625562,16.6487546 29.9609369,16.6528158 C29.8537356,16.9349924 29.5309981,17.0734003 29.2409716,16.9608221" id="Fill-19" fill="#FFF9BF"></path>
                    <path d="M29.2477191,19.9598866 C23.9427557,17.8793564 21.3471049,16.6905741 16.3074055,14.037226 C16.0327755,13.892492 15.9216535,13.5593947 16.058651,13.294559 C16.0607147,13.2906951 16.0616672,13.2886022 16.0637309,13.2848993 C16.2007284,13.0200636 16.5320307,12.922662 16.804597,13.066269 C21.8020701,15.6973998 24.3761314,16.8762006 29.6368048,18.9395043 C29.9236583,19.0518784 30.0712917,19.3685543 29.9660434,19.6480405 C29.9646146,19.6520654 29.9638209,19.6541583 29.9622335,19.6581831 C29.8571438,19.9376694 29.5369538,20.0733876 29.2477191,19.9598866" id="Fill-21" fill="#FFF9BF"></path>
                    <path d="M27.2705947,20.9563239 C23.2113107,19.2053872 21.2163764,18.2323804 17.3134294,16.101477 C17.0423132,15.9534292 16.924794,15.6031739 17.050229,15.3204909 L17.0547958,15.3101344 C17.1802309,15.0274514 17.4994508,14.9184529 17.7682836,15.0653122 C21.6391107,17.1787284 23.6177567,18.1439253 27.643703,19.880261 C27.9234962,20.0008045 28.0688729,20.3364587 27.9679464,20.6310262 L27.964293,20.6417224 C27.8635187,20.9364597 27.5526713,21.0780559 27.2705947,20.9563239" id="Fill-23" fill="#FFF9BF"></path>
                    <path d="M31.2315099,14.9653713 C28.0244342,13.8564047 26.4421133,13.2547078 23.3278618,11.9608888 C23.0444165,11.843188 22.9214245,11.5447854 23.0523729,11.2954496 C23.0541962,11.2918919 23.0551907,11.2899648 23.0571798,11.2864071 C23.1881282,11.0370712 23.5214665,10.9306365 23.8024255,11.0472996 C26.8898243,12.3298525 28.458553,12.9262129 31.6377815,14.0258405 C31.927194,14.125901 32.0732264,14.4145198 31.9634949,14.6720088 L31.959351,14.6813478 C31.8496195,14.9385402 31.5234088,15.0664694 31.2315099,14.9653713" id="Fill-25" fill="#FFF9BF"></path>
                    <path d="M28.996066,16.6509103 C28.9976396,16.6467887 28.9984264,16.6446454 29,16.6405238 C28.7183246,16.5254481 28.577487,16.2003344 28.6846495,15.915283 C24.4105799,14.1495796 22.3126492,13.1641819 18.2162396,11 C18.0845288,11.2735109 17.759422,11.3798488 17.4904928,11.2362514 C17.4886045,11.2403731 17.4876603,11.2423514 17.4856146,11.2464731 C17.7545438,11.3899056 17.8662698,11.7268895 17.7347164,12.0004004 C17.6030056,12.2739113 17.2760104,12.3794249 17.0048782,12.2345086 L17,12.2445653 C17.2711322,12.3893168 17.3847465,12.7272899 17.2531931,13.0008008 C21.4194707,15.2019124 23.5531223,16.2041263 27.9000498,18 C28.0073697,17.7149485 28.3239791,17.5790998 28.6081723,17.6949999 C28.6095885,17.6908783 28.6103753,17.688735 28.6121063,17.6846134 C28.3279131,17.5685485 28.1851871,17.2426105 28.2923497,16.9575591 C28.3996695,16.6726725 28.7143906,16.5359994 28.996066,16.6509103" id="Fill-27" fill="#FFF9BF"></path>
                    <path d="M26.9961067,18.8465574 C26.997664,18.8429882 26.9984427,18.8411322 27,18.8375629 C26.7179693,18.7333405 26.5782776,18.4487989 26.6876015,18.2032338 C24.4584529,17.3697398 23.3549356,16.9288646 21.173441,16 C21.0516585,16.2405682 20.7294489,16.3405075 20.4544261,16.2221508 C20.4527131,16.2257201 20.4517787,16.2272906 20.4499099,16.2310026 C20.7249327,16.3493593 20.8495183,16.6393261 20.7277359,16.8798943 C20.6057977,17.1204626 20.2817193,17.219688 20.0043605,17.1003319 C20.0026474,17.1037584 20.0017131,17.1056144 20,17.1090409 C20.2772031,17.2285398 20.4036575,17.5193632 20.281875,17.7599315 C22.4998109,18.7043581 23.6218603,19.1528001 25.8883846,20 C25.9975528,19.7544348 26.3163363,19.6415034 26.600703,19.7465824 C26.6022603,19.7428704 26.6031947,19.7411572 26.6047521,19.7374451 C26.3202296,19.6325088 26.1786692,19.3472535 26.2879931,19.1016883 C26.3971612,18.8559803 26.7139202,18.7424778 26.9961067,18.8465574" id="Fill-29" fill="#FFF9BF"></path>
                    <path d="M29.9959928,14.7948529 C29.9975957,14.7911765 29.9983971,14.7892647 30,14.7855882 C29.7182112,14.6844118 29.5789196,14.3955882 29.6885576,14.1416176 C27.4611756,13.3329412 26.3583843,12.9042647 24.1776465,12 C24.0550251,12.2489706 23.7322021,12.3583824 23.4573058,12.2429412 C23.4555426,12.2466176 23.4545808,12.2485294 23.4528177,12.2520588 C23.727714,12.3673529 23.8516178,12.6616176 23.7289964,12.9105882 C23.6063749,13.1597059 23.2816285,13.2680882 23.0043278,13.1519118 C23.0025646,13.1555882 23.0016029,13.1573529 23,13.1610294 C23.2771404,13.2773529 23.4031279,13.5723529 23.2803462,13.8213235 C25.4989123,14.7413235 26.6207781,15.1773529 28.8867899,16 C28.9964278,15.7460294 29.3152435,15.6238235 29.599597,15.7257353 L29.6034439,15.7164706 C29.3192508,15.6144118 29.1780358,15.3248529 29.2876737,15.0708824 C29.3973117,14.8167647 29.7142039,14.6938235 29.9959928,14.7948529" id="Fill-31" fill="#FFF9BF"></path>
                    <path d="M11.286125,10.9396941 C12.0482741,11.344111 12.4312243,11.5432312 13.2005634,11.9350009 C13.4684723,12.0714733 13.7974968,11.9858839 13.9347337,11.7452926 C13.9367657,11.7416161 13.9377035,11.7398514 13.9397355,11.7363219 C14.076816,11.4954365 13.9720909,11.1916091 13.706214,11.0561662 C12.9432834,10.6674847 12.5636156,10.4701292 11.8078751,10.0692418 C11.5444992,9.92953409 11.215162,10.0077704 11.0713603,10.2451264 C11.0693283,10.2486558 11.0682342,10.2504205 11.0662022,10.2538029 C10.9224005,10.4911589 11.0205608,10.798957 11.286125,10.9396941" id="Fill-33" fill="#FFF9BF"></path>
                    <path d="M16.2905926,7.98428948 C17.0547187,8.37397694 17.4385402,8.56551563 18.2093804,8.94244408 C18.4781034,9.07387713 18.8045356,8.97242004 18.9380178,8.71739381 C18.9399362,8.71355074 18.9408953,8.71170607 18.9428136,8.70801672 C19.0762959,8.45283677 18.9680713,8.14139425 18.7017462,8.01134471 C17.9374602,7.63764443 17.5569957,7.44764297 16.7995837,7.06133742 C16.5356564,6.92682992 16.208425,7.02075458 16.0682287,7.27255263 C16.0661505,7.27624198 16.0651913,7.27793293 16.0631132,7.281776 C15.9227569,7.53342033 16.0242674,7.8485522 16.2905926,7.98428948" id="Fill-35" fill="#FFF9BF"></path>
                    <path d="M8.28004036,10.9070929 C9.03950472,11.3218438 9.42117788,11.5263707 10.1880956,11.9288728 C10.4553289,12.0691646 10.787779,11.9953868 10.9300135,11.7650804 C10.9321874,11.7618045 10.9331191,11.759953 10.935293,11.7566771 C11.0775276,11.5265132 10.9773733,11.2279836 10.7123139,11.0888313 C9.95160729,10.689605 9.57319497,10.4867873 8.81994173,10.0754546 C8.55752202,9.93217186 8.22476142,9.99882826 8.07616043,10.225574 C8.07398654,10.2288498 8.0728996,10.2305589 8.07072571,10.2338348 C7.92196945,10.4605805 8.01544676,10.7625283 8.28004036,10.9070929" id="Fill-37" fill="#FFF9BF"></path>
                    <path d="M11.2728533,4.93255155 C12.0294384,5.33900647 12.4095992,5.53906425 13.1736575,5.93357762 C13.4399326,6.07112656 13.7763912,5.987978 13.924394,5.7494419 C13.9266685,5.74590366 13.9276432,5.74413454 13.9299177,5.7405963 C14.078083,5.50191277 13.9835301,5.1990987 13.719692,5.0628766 C12.9621321,4.67160661 12.5852205,4.47331795 11.8351339,4.07040127 C11.5738952,3.93005122 11.2371117,4.00597588 11.0822855,4.24097375 C11.080011,4.24436456 11.0788738,4.24613368 11.0765993,4.24952449 C10.9216106,4.48466979 11.0091776,4.79102209 11.2728533,4.93255155" id="Fill-39" fill="#FFF9BF"></path>
                    <path d="M12.2955734,13.1421539 C13.4547509,13.8729106 14.038273,14.2295768 15.2134924,14.9254847 C15.4854325,15.086749 15.8118223,14.9774022 15.9416996,14.6829659 C15.9435505,14.6786987 15.944476,14.6765651 15.946327,14.6721201 C16.0762042,14.3776839 15.9622146,14.0107054 15.692434,13.8508634 C14.5270865,13.1606451 13.9480376,12.8068238 12.7985777,12.0821123 C12.5324991,11.9144472 12.2048752,12.0115258 12.0663601,12.3006281 C12.0642006,12.3048953 12.0632751,12.3070289 12.0612699,12.3111183 C11.9226005,12.6002205 12.027181,12.9730665 12.2955734,13.1421539" id="Fill-41" fill="#FFF9BF"></path>
                    <path d="M20.1955294,10.7814208 C20.3181823,10.8526075 20.3796106,10.8880798 20.5025691,10.9585401 C20.6754444,11.057693 20.8821409,10.9728258 20.9637397,10.7697984 C20.9648603,10.7668929 20.9654715,10.765319 20.966694,10.7624134 C21.0481909,10.559386 20.9749456,10.3159227 20.8034964,10.2176172 C20.6815567,10.1477622 20.6207396,10.1126531 20.4991054,10.0420718 C20.3279619,9.94279778 20.1216728,10.0251225 20.0380366,10.2268182 C20.0368142,10.2297238 20.036203,10.2312976 20.0349805,10.2342032 C19.9512424,10.4358989 20.0229597,10.6814204 20.1955294,10.7814208" id="Fill-43" fill="#FFF9BF"></path>
                    <path d="M11.176011,7.7420562 C11.2955079,7.82286373 11.3553072,7.86320903 11.4751091,7.94354879 C11.6436251,8.05639867 11.857194,7.99465283 11.9515711,7.80649173 C11.9529949,7.8036851 11.9536051,7.80239873 11.9550289,7.7995921 C12.0495077,7.611431 11.9902169,7.36889146 11.8231247,7.25686017 C11.7043397,7.17722207 11.6450489,7.13734454 11.5265691,7.05712173 C11.3598837,6.94438879 11.1468233,7.00356188 11.0503105,7.19020273 C11.0488867,7.19300936 11.0482765,7.19429573 11.046751,7.19710236 C10.9502382,7.38386014 11.0079018,7.62827077 11.176011,7.7420562" id="Fill-45" fill="#FFF9BF"></path>
                    <g id="Group-49" transform="translate(24.000000, 13.000000)">
                        <mask id="mask-14" fill="white">
                            <use xlink:href="#path-13"></use>
                        </mask>
                        <g id="Clip-48"></g>
                        <path d="M8.69200364,6.18376667 C7.88805818,8.47093333 5.27936727,9.62026667 2.90271273,8.65943333 C0.526221818,7.69843333 -0.594523636,5.04143333 0.360294545,2.81543333 C1.31511273,0.589433333 3.86391273,-0.4169 6.08936727,0.482933333 C8.31498545,1.3826 9.49594909,3.8966 8.69200364,6.18376667" id="Fill-47" fill="#FFF9BF" mask="url(#mask-14)"></path>
                    </g>
                    <path d="M31.81984,19.1088093 C31.2608351,20.6533138 29.5140737,21.4145945 27.9345317,20.7704611 C26.3551619,20.1259738 25.5938061,18.341689 26.2177355,16.8237285 C26.841665,15.3059449 28.5624221,14.6064232 30.0770396,15.2241895 C31.5918294,15.8419559 32.3790172,17.5643049 31.81984,19.1088093" id="Fill-50" fill="#FFFFFF"></path>
                </g>
                <g id="Group-29" transform="translate(96.000000, 0.000000)">
                    <g id="Group-3" transform="translate(0.000000, 0.517000)">
                        <mask id="mask-16" fill="white">
                            <use xlink:href="#path-15"></use>
                        </mask>
                        <g id="Clip-2"></g>
                        <path d="M142.1948,107.9053 L113.1088,84.2493 C106.6508,78.9973 101.7168,72.1103 98.8208,64.3053 L98.7768,64.1853 C106.7168,59.7313 112.8998,52.1133 115.2308,42.4163 C119.1858,25.9623 110.1978,8.8453 94.4008,2.7783 C75.7738,-4.3757 55.3188,5.8263 49.5898,24.5773 C46.9248,33.3013 47.9458,42.2683 51.7498,49.8193 L50.2528,49.3613 L23.5318,10.7093 C19.5138,4.8973 11.5448,3.4433 5.7328,7.4613 L5.5198,7.6083 C-0.2922,11.6263 -1.7472,19.5953 2.2708,25.4073 L36.1088,74.3543 L2.5988,184.0463 C0.5398,190.7853 4.3348,197.9183 11.0738,199.9773 L11.3198,200.0523 C18.0598,202.1113 25.1928,198.3173 27.2518,191.5773 L39.5698,151.2563 C40.6238,147.8053 44.2758,145.8633 47.7258,146.9163 L47.8528,146.9553 C51.3028,148.0093 53.2458,151.6613 52.1918,155.1123 L39.8738,195.4333 C37.8148,202.1733 41.6098,209.3053 48.3488,211.3643 L48.5958,211.4403 C55.3358,213.4983 62.4678,209.7043 64.5268,202.9653 L95.0918,102.9113 L125.8868,127.9573 C131.3678,132.4153 139.4258,131.5863 143.8848,126.1043 L144.0478,125.9043 C148.5068,120.4223 147.6768,112.3633 142.1948,107.9053" id="Fill-1" fill="#FEFCF2" mask="url(#mask-16)"></path>
                    </g>
                    <path d="M31.8271,176.6464 L7.5031,169.2154 C5.5781,168.6274 4.4951,166.5904 5.0831,164.6664 L8.5771,153.2274 C9.1651,151.3034 11.2021,150.2204 13.1261,150.8074 L37.4511,158.2384 C39.3751,158.8264 40.4581,160.8634 39.8701,162.7874 L36.3761,174.2264 C35.7881,176.1504 33.7511,177.2334 31.8271,176.6464" id="Fill-4" fill="#CDCDC9"></path>
                    <path d="M99.271,80.7123 L118.148,67.6883 L122.371,53.8653 L93.314,44.9883 L96.047,36.0433 L129.576,46.2863 C130.763,46.6493 131.756,47.4673 132.338,48.5633 C132.918,49.6573 133.044,50.9393 132.683,52.1253 L126.617,71.9783 C126.309,72.9873 125.668,73.8623 124.8,74.4613 L104.583,88.4103 L99.271,80.7123 Z" id="Fill-6" fill="#A1A1AA"></path>
                    <path d="M22.6735,54.9228 C21.0305,56.0838 18.7565,55.6938 17.5955,54.0508 L10.6885,44.2858 C9.5265,42.6428 9.9175,40.3698 11.5595,39.2078 L32.3255,24.5218 C33.9675,23.3598 36.2415,23.7498 37.4035,25.3928 L44.3095,35.1578 C45.4715,36.8008 45.0815,39.0738 43.4385,40.2358 L22.6735,54.9228 Z" id="Fill-8" fill="#CDCDC9"></path>
                    <g id="Group-12" transform="translate(39.000000, 2.517000)">
                        <mask id="mask-18" fill="white">
                            <use xlink:href="#path-17"></use>
                        </mask>
                        <g id="Clip-11"></g>
                        <path d="M103.1948,105.9053 L74.1088,82.2493 C67.6508,76.9973 62.7168,70.1103 59.8208,62.3053 L59.7768,62.1853 C67.7168,57.7313 73.8998,50.1133 76.2308,40.4163 C80.1858,23.9623 71.1978,6.8453 55.4008,0.7783 C54.6438,0.4873 53.8828,0.2363 53.1198,0.0013 L8.8388,144.9513 L8.8528,144.9553 C12.3028,146.0093 14.2458,149.6613 13.1918,153.1123 L0.8738,193.4333 C-1.1852,200.1733 2.6098,207.3053 9.3488,209.3643 L9.5958,209.4403 C16.3358,211.4983 23.4678,207.7043 25.5268,200.9653 L56.0918,100.9113 L86.8868,125.9573 C92.3678,130.4153 100.4258,129.5863 104.8848,124.1043 L105.0478,123.9043 C109.5068,118.4223 108.6768,110.3633 103.1948,105.9053" id="Fill-10" fill="#E1E1E1" mask="url(#mask-18)"></path>
                    </g>
                    <path d="M132.1543,100.5009 L116.3463,120.4249 C115.0953,122.0009 112.8043,122.2659 111.2273,121.0149 L101.8583,113.5809 C100.2813,112.3299 100.0173,110.0389 101.2683,108.4619 L117.0763,88.5379 C118.3273,86.9609 120.6183,86.6979 122.1953,87.9479 L131.5643,95.3819 C133.1413,96.6329 133.4043,98.9249 132.1543,100.5009" id="Fill-13" fill="#9DA4A5"></path>
                    <path d="M69.1987,188.0629 L44.8747,180.6319 C42.9497,180.0439 41.8667,178.0069 42.4537,176.0839 L45.9487,164.6449 C46.5367,162.7199 48.5737,161.6369 50.4977,162.2249 L74.8217,169.6549 C76.7457,170.2429 77.8297,172.2799 77.2417,174.2039 L73.7467,185.6429 C73.1587,187.5669 71.1227,188.6509 69.1987,188.0629" id="Fill-15" fill="#CDCDC9"></path>
                    <path d="M54.4199,85.2211 C51.3549,84.2841 48.1109,86.0111 47.1739,89.0751 L43.6969,100.4591 C42.7599,103.5241 44.4859,106.7681 47.5509,107.7041 L58.9339,111.1821 L65.8029,88.6991 L54.4199,85.2211 Z" id="Fill-17" fill="#E4942D"></path>
                    <path d="M77.1665,92.1698 L65.8025,88.6988 L58.9345,111.1818 L70.2975,114.6528 C73.3635,115.5898 76.6065,113.8638 77.5435,110.7988 L81.0205,99.4158 C81.9575,96.3508 80.2315,93.1068 77.1665,92.1698" id="Fill-19" fill="#DF6B2D"></path>
                    <path d="M47.0639,118.5527 L41.4429,116.8357 C40.0549,116.4117 39.2719,114.9417 39.6969,113.5527 L40.3299,111.4817 C40.7529,110.0937 42.2239,109.3117 43.6119,109.7357 L49.2329,111.4527 C50.6219,111.8767 51.4039,113.3467 50.9799,114.7357 L50.3469,116.8067 C49.9219,118.1957 48.4529,118.9767 47.0639,118.5527" id="Fill-21" fill="#E4942D"></path>
                    <path d="M70.2607,125.6391 L64.6397,123.9221 C63.2507,123.4981 62.4687,122.0281 62.8927,120.6391 L63.5257,118.5681 C63.9497,117.1801 65.4197,116.3981 66.8087,116.8221 L72.4297,118.5391 C73.8187,118.9631 74.5997,120.4331 74.1757,121.8221 L73.5437,123.8921 C73.1187,125.2821 71.6497,126.0631 70.2607,125.6391" id="Fill-23" fill="#DF6B2D"></path>
                    <g id="Group-20" transform="translate(55.000000, 16.000000)">
                        <mask id="mask-20" fill="white">
                            <use xlink:href="#path-19"></use>
                        </mask>
                        <use id="Mask" fill="#4C5159" xlink:href="#path-19"></use>
                        <g mask="url(#mask-20)" id="Path">
                            <g transform="translate(28.357817, 22.223257) rotate(16.000000) translate(-28.357817, -22.223257) translate(2.357817, -3.776743)">
                                <path d="M51.7129553,26.2268315 C51.7129553,40.3100926 40.2962164,51.7268315 26.2129553,51.7268315 C12.1296942,51.7268315 0.712955318,40.3100926 0.712955318,26.2268315 C0.712955318,12.1435704 12.1296942,0.726831516 26.2129553,0.726831516 C32.9759758,0.726831516 39.4620006,3.41343094 44.2441782,8.1956086 C49.0263559,12.9777862 51.7129553,19.463811 51.7129553,26.2268315 Z" stroke="none" fill="#0E82C6" fill-rule="evenodd"></path>
                                <path d="M23.468118,22.8693537 C23.468118,27.2864309 21.0041059,30.8693537 17.9666128,30.8693537 C14.9291196,30.8693537 12.468118,27.2831468 12.468118,22.8693537 C12.468118,18.4555606 14.9306248,14.8693537 17.9666128,14.8693537 C21.0026007,14.8693537 23.468118,18.4473504 23.468118,22.8693537 Z" stroke="none" fill="#FFFFFF" fill-rule="evenodd"></path>
                                <path d="M23.705017,23.555884 C23.705017,26.8679782 21.6884551,29.554978 19.2058737,29.554978 C16.7232923,29.554978 14.705017,26.8679782 14.705017,23.555884 C14.705017,20.2437897 16.7198657,17.554978 19.2058737,17.554978 C21.6918817,17.554978 23.705017,20.2419779 23.705017,23.555884 Z" stroke="none" fill="#081C24" fill-rule="evenodd"></path>
                                <path d="M19.3302993,22.3895985 C19.3302993,23.7696335 18.6573066,24.8887228 17.8310292,24.8887228 C17.0047519,24.8887228 16.3302993,23.7696335 16.3302993,22.3895985 C16.3302993,21.0095635 17.0018322,19.8887228 17.8310292,19.8887228 C18.6602263,19.8887228 19.3302993,21.0165687 19.3302993,22.3895985 Z" stroke="none" fill="#FFFFFF" fill-rule="evenodd"></path>
                                <path d="M41.6399479,24.707357 C41.6399479,29.4022414 38.7287937,33.207357 35.1375811,33.207357 C31.5463686,33.207357 28.6399479,29.4022414 28.6399479,24.707357 C28.6399479,20.0124726 31.5495243,16.207357 35.1375811,16.207357 C38.7256379,16.207357 41.6399479,20.0124726 41.6399479,24.707357 Z" stroke="none" fill="#FFFFFF" fill-rule="evenodd"></path>
                                <path d="M40.463391,23.9518923 C40.463391,27.265673 38.4485336,29.9510888 35.9641507,29.9510888 C33.4797678,29.9510888 31.463391,27.265673 31.463391,23.9518923 C31.463391,20.6381117 33.4782483,17.9510888 35.9641507,17.9510888 C38.4500531,17.9510888 40.463391,20.6381117 40.463391,23.9518923 Z" stroke="none" fill="#081C24" fill-rule="evenodd"></path>
                                <path d="M36.0693041,22.6462383 C36.0693041,24.0271019 35.3950159,25.1470149 34.5693041,25.1470149 C33.7435923,25.1470149 33.0693041,24.0271019 33.0693041,22.6462383 C33.0693041,21.2653747 33.7410038,20.1470149 34.5693041,20.1470149 C35.3976043,20.1470149 36.0693041,21.266928 36.0693041,22.6462383 Z" stroke="none" fill="#FFFFFF" fill-rule="evenodd"></path>
                                <path d="M16.431825,41.9505824 C16.431825,41.9505824 21.8385312,36.7450368 27.5131663,37.2183959 C33.1878013,37.691755 36.431825,42.1879643 36.431825,42.1879643" stroke="#00384C" stroke-width="1.27118644" fill="none" stroke-linecap="round" stroke-linejoin="round"></path>
                                <path d="M20.9645436,10.7129843 C20.9645436,10.7129843 18.8217951,7.73493822 15.9637827,6.99082335 C13.1057702,6.24670848 10.9645436,13.9401264 10.9645436,13.9401264 C10.9645436,13.9401264 14.5362983,7.23833278 20.9645436,10.7129843 Z" stroke="none" fill="#046799" fill-rule="evenodd"></path>
                                <path d="M29.6454409,10.5578204 C29.6454409,10.5578204 31.7881893,7.5797743 34.64468,6.83565943 C37.5011706,6.09154455 39.6454409,13.7849625 39.6454409,13.7849625 C39.6454409,13.7849625 36.0736862,7.08316885 29.6454409,10.5578204 Z" stroke="none" fill="#046799" fill-rule="evenodd"></path>
                            </g>
                        </g>
                    </g>
                    <path d="M108.3286,30.1547 C101.0356,28.6337 93.4336,26.6907 85.6826,24.3227 C85.6396,24.3097 85.5976,24.2947 85.5536,24.2817 C84.4446,39.3427 81.6776,48.1307 74.1836,61.4987 C74.2276,61.5117 74.2696,61.5287 74.3126,61.5417 C88.4726,65.8667 103.4586,57.8947 107.7846,43.7347 C109.1806,39.1647 109.2886,34.5107 108.3286,30.1547" id="Fill-27" fill-opacity="0.4" fill="#252926"></path>
                </g>
                <g id="Group-7" transform="translate(197.000000, 173.000000)">
                    <g id="Group-3">
                        <mask id="mask-22" fill="white">
                            <use xlink:href="#path-21"></use>
                        </mask>
                        <g id="Clip-2"></g>
                        <path d="M21.4682205,10.7538308 C21.4682205,16.4125231 16.6620667,21.0002154 10.7344769,21.0002154 C4.80575897,21.0002154 -0.000394871795,16.4125231 -0.000394871795,10.7538308 C-0.000394871795,5.09513846 4.80575897,0.507446154 10.7344769,0.507446154 C16.6620667,0.507446154 21.4682205,5.09513846 21.4682205,10.7538308" id="Fill-1" fill="#DEA273" mask="url(#mask-22)"></path>
                    </g>
                    <g id="Group-6" transform="translate(7.000000, 1.000000)">
                        <mask id="mask-24" fill="white">
                            <use xlink:href="#path-23"></use>
                        </mask>
                        <g id="Clip-5"></g>
                        <path d="M6.85162918,0.314723684 C7.17407712,3.16203158 6.94659305,6.40114672 6.07367657,9.72335654 C5.0430235,13.6461622 3.28216803,17.043052 1.17740385,19.5390482 C2.14635723,19.8382943 3.1770103,20.0002763 4.24736577,20.0002763 C9.88510781,20.0002763 14.45625,15.5194741 14.45625,9.99262541 C14.45625,5.34826338 11.228015,1.44333889 6.85162918,0.314723684" id="Fill-4" fill="#E0856C" mask="url(#mask-24)"></path>
                    </g>
                </g>
            </g>
        </g>
    </g>
</svg>