<svg xmlns="http://www.w3.org/2000/svg" xmlns:xlink="http://www.w3.org/1999/xlink" viewBox="0 0 140.37 111.44"><defs><style>.cls-1{fill:none;}.cls-2{fill:#fff;}.cls-3{clip-path:url(#clip-path);}.cls-4{fill:#6a8da0;}.cls-5{fill:#d16c44;}.cls-6{fill:#ee84a8;}.cls-7{fill:#e4af46;}.cls-8{fill:#8e3a86;}.cls-9{fill:#df3f49;}.cls-10{fill:#4fb05c;}.cls-11{fill:#ef956f;}.cls-12{fill:#fd96b3;}.cls-13{fill:#fcb2b8;}.cls-14{fill:#59191e;}.cls-15{fill:#fdfafd;}.cls-16{fill:#e7597c;}.cls-17{fill:#4665b3;}.cls-18{fill:#f9a61b;}.cls-19{clip-path:url(#clip-path-2);}.cls-20{fill:#09f;}.cls-21{fill:#b4dcdf;}.cls-22{fill:#2c2d65;}.cls-23{fill:#0682c5;}</style><clipPath id="clip-path"><path class="cls-1" d="M70,2.59a53.14,53.14,0,1,0,53.14,53.13A53.13,53.13,0,0,0,70,2.59ZM55.86,25.79V88.05H35.15V22.82H55.86ZM107.55,60,90.06,88.05H69.35L79.61,71.58a25.78,25.78,0,0,1-7.9-3.28,22.5,22.5,0,0,1-2.38-1.67A26,26,0,1,1,107.55,60Z"/></clipPath><clipPath id="clip-path-2"><path class="cls-1" d="M60.29,51.69s-1,4.8-4.43,2.23l-.28,4.36a5.8,5.8,0,0,1,6.22-2.06Z"/></clipPath></defs><title>Asset 5</title><g id="Layer_2" data-name="Layer 2"><g id="Layer_1-2" data-name="Layer 1"><circle class="cls-2" cx="70" cy="55.72" r="55.72"/><g class="cls-3"><path class="cls-4" d="M116.26,54.74h-6.19v9.17A3.06,3.06,0,0,0,113.13,67h6.19V57.79A3.06,3.06,0,0,0,116.26,54.74Zm-3.39,2.41h0a1.23,1.23,0,0,1,1.74,0,1.23,1.23,0,1,1,1.75,1.74l-1.75,1.74-1.74-1.74h0A1.23,1.23,0,0,1,112.87,57.15Zm3.86,6.95H112.6a.44.44,0,0,1-.44-.44h0a.44.44,0,0,1,.44-.44h4.13a.44.44,0,0,1,.44.44h0A.44.44,0,0,1,116.73,64.1Zm0-1.73H112.6a.44.44,0,0,1-.44-.44h0a.44.44,0,0,1,.44-.44h4.13a.44.44,0,0,1,.44.44h0A.44.44,0,0,1,116.73,62.37Z"/><rect class="cls-4" x="120.32" y="57.19" width="1.51" height="1.51"/><path class="cls-4" d="M120.83,55.13h.47a.52.52,0,0,1,.52.52v1a0,0,0,0,1,0,0h-1.51a0,0,0,0,1,0,0v-1A.52.52,0,0,1,120.83,55.13Z"/><path class="cls-4" d="M120.72,66.16l.21.49a.15.15,0,0,0,.28,0l.21-.49Z"/><polygon class="cls-4" points="120.31 59.24 120.31 65.25 120.51 65.69 121.63 65.69 121.82 65.25 121.82 59.24 120.31 59.24"/><path class="cls-5" d="M28.37,68.94a6.78,6.78,0,1,0,6.78,6.78A6.79,6.79,0,0,0,28.37,68.94Zm6.13,5.6-.52.62h0l-2.23-.59-.06,0-1.3-2.43V72l.7-1.46,0,0h.82A6.26,6.26,0,0,1,34.5,74.54Zm-3.9-4.66.45.67-.05,0L30.3,72v0l-2.91.75-.08,0-2.13-1.23-.05.09,2.14,1.23h0v2.87l0,0-2,1.58.06.08,2-1.58,0,0,2.63.94h0l.14,2.56h.1L30,76.67v-.06l1.69-2h0l2.2.58.05.1.24,2.47,0,0a14.39,14.39,0,0,1-2.34,2.08l0,0-1.68-.72-2,1.44h-.07a5.36,5.36,0,0,1-2.66-.81l0-.07-.1-2.49-1.93-1.09,0-.06L23,72.93H23l2.16-1.36.57-1.5a6.21,6.21,0,0,1,2.66-.6A6.35,6.35,0,0,1,30.6,69.88ZM22.7,73.1l.23-.14.27,3.21h0l0,0-.86,1.2a6.27,6.27,0,0,1-.23-1.69A6.2,6.2,0,0,1,22.7,73.1ZM24,80.19l1.29-.28h0a5.62,5.62,0,0,0,2.72.83h0l.9,1.16q-.32,0-.63,0A6.19,6.19,0,0,1,24,80.19Zm7.69.81.14-1h0a15.71,15.71,0,0,0,2.31-2A6.35,6.35,0,0,1,31.71,81Z"/><path class="cls-6" d="M31.51,19l6-1.67A3,3,0,0,0,41.63,17c2.09-2,9.87-9.87,9.87-9.87s2.45.89,1.59,4a63,63,0,0,0-1.35,8.44h-2.1V13.31s-2.53-.23-4.09,4.88-2.9,4.48-2.9,4.48H33.39S31.3,22.44,31.51,19Z"/><rect class="cls-6" x="49.64" y="20.72" width="1.95" height="1.95"/><path class="cls-7" d="M93.38,13.56,91.79,7.28l-8,2.15S85,14.91,85.4,15.89a4.05,4.05,0,0,0,5.36,2.24A3.87,3.87,0,0,0,93.38,13.56Zm-8.29-.71s-.06-1.07.82-1.3a1.53,1.53,0,0,1,1.75.67Zm4.15,3.24a2.72,2.72,0,0,1-2.87-1.25l4.74-1.35A2.66,2.66,0,0,1,89.24,16.09Zm-.34-4.24a1.13,1.13,0,0,1,.83-1.26,1.34,1.34,0,0,1,1.62.58Z"/><path class="cls-7" d="M93.82,11.38l-.2,1a5.06,5.06,0,0,1,.2,3.61,4.61,4.61,0,0,1-1.91,2.27,3.9,3.9,0,0,0,2.28,3.61c2.38,1,4.32.15,5.07-1.23a57.71,57.71,0,0,0,2.25-6.72Zm.65,3.2,2.24.82a1.19,1.19,0,0,1-1.47.56A1.12,1.12,0,0,1,94.47,14.58Zm3.73,6.09-4.47-1.61a2.47,2.47,0,0,1,4.47,1.61Zm.57-3.57c-.85-.26-.77-1.31-.77-1.31l2.17.77A1.13,1.13,0,0,1,98.77,17.1Z"/><path class="cls-8" d="M78.9,95.55h0V90.41a1.25,1.25,0,0,1,1.25-1.25h.41a1.25,1.25,0,0,1,1.26,1.25v1.86a1.75,1.75,0,1,0,3.49,0V85.56a.25.25,0,0,0-.49,0v6.71a1.26,1.26,0,1,1-2.51,0V90.41a1.75,1.75,0,0,0-1.75-1.75h-.41a1.75,1.75,0,0,0-1.74,1.75v5.14H73.22a5.6,5.6,0,0,0-5.6,5.6h0a5.6,5.6,0,0,0,2.93,4.93,5.11,5.11,0,0,0,3.56.47,30.32,30.32,0,0,1,4.38-.72,30.1,30.1,0,0,1,4.38.72,5.11,5.11,0,0,0,3.56-.47,5.61,5.61,0,0,0,2.94-4.93v-5.6Zm-2.84,6.78H74.39V104H72.07v-1.67H70.4V100h1.67V98.34h2.32V100h1.67Zm1.76-4.66a.47.47,0,0,1,0-.93h1.73a.47.47,0,1,1,0,.93Zm3.24,4.68a1.18,1.18,0,1,1,1.18-1.18A1.18,1.18,0,0,1,81.06,102.35Zm2.83,2.83A1.18,1.18,0,1,1,85.07,104,1.18,1.18,0,0,1,83.89,105.18Zm0-5.66a1.18,1.18,0,1,1,1.18-1.18A1.18,1.18,0,0,1,83.89,99.52Zm2.83,2.83a1.18,1.18,0,1,1,1.18-1.18A1.18,1.18,0,0,1,86.72,102.35Z"/><path class="cls-9" d="M61.31,69.14a3.1,3.1,0,0,0-2.88,2h-.37a2.21,2.21,0,0,0-2.2,2.21v8.32a2.21,2.21,0,0,0,2.2,2.2H70.2a3.09,3.09,0,0,0,3.09-3.09V69.14Zm-3.1,3.1V83.52h-.15a1.89,1.89,0,0,1-1.89-1.89V73.31a1.9,1.9,0,0,1,1.89-1.9h.27A2.87,2.87,0,0,0,58.21,72.24Zm3.14.14h3.3v3.3h-3.3Zm9.58,8.23H61.35v-1.2h9.58Zm0-2.47H61.35V77h9.58Zm0-2.46H65.75v-1.2h5.18Zm0-2.1H65.75v-1.2h5.18Z"/><path class="cls-10" d="M32.49,48.92H30.68V46.51a.58.58,0,0,0-.58-.58H22.52a.58.58,0,0,0-.58.58v2.41H17.6V59.36a2.54,2.54,0,0,0,2.54,2.54h3.2V59.24a4.49,4.49,0,0,1-1.62-3.85c0-2.25,1.07-4.07,2.39-4.07s2.38,1.82,2.38,4.07c0,1.82-.69,3.35-1.66,3.88V61.9H28.6V59.81a1.47,1.47,0,0,1-1.32-1.46V52.69a.48.48,0,0,1,1,0v3.09h.68V51.63a.48.48,0,0,1,.48-.48h.08a.48.48,0,0,1,.47.48v4.15h.49V52.69a.48.48,0,0,1,1,0v5.66a1.46,1.46,0,0,1-1.3,1.45v2.1h2.39A2.54,2.54,0,0,0,35,59.36v-7.9A2.54,2.54,0,0,0,32.49,48.92Zm-9.39,0V47.09h6.42v1.83Z"/><polygon class="cls-11" points="56.2 8.64 60.37 20.56 66 13.61 56.2 8.64"/><polygon class="cls-11" points="66.98 14.6 61.65 21.31 69.65 25.37 70.33 24.14 66.98 14.6"/><polygon class="cls-11" points="69.32 17.71 71.11 22.72 74.86 15.79 69.32 17.71"/><polygon class="cls-11" points="75.53 16.44 74.4 18.35 77.7 18.93 75.53 16.44"/><polygon class="cls-11" points="61.1 22.72 68.53 26.56 63.09 28.35 61.1 22.72"/><polygon class="cls-11" points="60.31 24.77 62.09 28.73 57.25 34.35 60.31 24.77"/><polygon class="cls-11" points="54.43 13.31 58.85 19.81 56.95 14.6 54.43 13.31"/><circle class="cls-12" cx="51.04" cy="98.24" r="6.31"/><circle class="cls-13" cx="51.27" cy="99.08" r="3.9"/><path class="cls-12" d="M50.77,92.93s-1.68-3.52,1.07-4.27c0,0-1.56.87-.75,2.19a3.6,3.6,0,0,1,3.51-2.19c2.55.2,5.16,5,4.7,8.21a9.35,9.35,0,0,0-2.25-5.35c-2.09-2.25-4.48-1.59-4.55,1.19S51,93.7,50.77,92.93Z"/><circle class="cls-14" cx="52.62" cy="98.09" r="1.08"/><circle class="cls-15" cx="52.49" cy="98.02" r="0.49"/><path class="cls-16" d="M52.11,96.64s.49-1.33,1.62-1c0,0-.8.15-.83.65,0,0,1-.7,1.66-.33,0,0-1.1.57-1.25,1A3.61,3.61,0,0,0,52.11,96.64Z"/><circle class="cls-14" cx="49.47" cy="98.95" r="1.08"/><circle class="cls-15" cx="49.54" cy="98.83" r="0.49"/><path class="cls-16" d="M49.17,97.45s-1.1-.89-1.93-.07c0,0,.76-.27,1,.14,0,0-1.22-.09-1.6.57a3.83,3.83,0,0,1,1.57.17A3.55,3.55,0,0,1,49.17,97.45Z"/><path class="cls-7" d="M66.12,7.67s-.67-5,6-5.09c6.93-.06,8.2,4.28,8.55,7.22l-2.55-.34S79,3.71,74,3.39s-5.8,1.22-5.67,3.41C68.46,8.33,66.12,7.67,66.12,7.67Z"/><path class="cls-7" d="M70.59,9c-.77-3.26-2.82-2.54-2.92-2.5h0l-1,.27a1.72,1.72,0,0,0-1.14,1.06c-.26.76-.9,4.48,2.6,5.77h.08l1.4-.45a.05.05,0,0,0,0,0l.14-.13A.11.11,0,0,1,70,13h0a.12.12,0,0,0,.1,0l.63-.2a.12.12,0,0,0,.06-.06C70.86,12.57,71.23,11.65,70.59,9Zm-4.77,1.85A4.54,4.54,0,0,1,65.91,8a.41.41,0,0,1,.52-.22c1.79.64,1.89,4.37,1.78,5.07S66.32,12.45,65.82,10.85Z"/><path class="cls-7" d="M82.24,13.06c0-3.31-2.13-3.6-2.13-3.6h-2a3.57,3.57,0,0,0-1.85,3.23c0,2.37.06,3.82,1.85,4.34a5.61,5.61,0,0,0,1.16.21.42.42,0,0,0,.37-.11s0,.13,0,.13A3.06,3.06,0,0,0,80.91,17S82.3,16.37,82.24,13.06ZM78,16.72c-1-.23-1.28-1.44-1.38-3.66a3.6,3.6,0,0,1,.95-2.79.38.38,0,0,1,.62.14C78.86,11.88,78.89,16.92,78,16.72Z"/><path class="cls-5" d="M71,5.38a2.19,2.19,0,0,1,2.59-.72,11,11,0,0,0,2.13.72S75.35,8.1,74,9.08c0,0,1.21,2.26-.13,3.5-.93.87-1.28-1-1.4-2.18a1.41,1.41,0,0,1,.63-1.34,3.85,3.85,0,0,0,1.72-2.3s-1.34.12-1.74-.57A1.71,1.71,0,0,0,71,5.38Z"/><path class="cls-9" d="M75.35,22.3s-1.14-.85,0-1.53,2.2-.1,2.85-.63,1.24-1.89,2.26-1.83,1.5.26,2.09,0,1.83-.52,2.33.36.58.92,1.11.79,3.89-.85,4.45,1.24S75.35,22.3,75.35,22.3Z"/><path class="cls-11" d="M90.45,6.64c-.87-.38-2.87.38-3.52.82S86,7.4,85.51,7s-1.19.11-1.57.73a1.35,1.35,0,0,1-2,0c-.54-.62,1.62-1.93.36-2.41S81.77,4,81.77,4A3.38,3.38,0,0,1,86,2.14C89.26,2.9,90.45,6.64,90.45,6.64Z"/><path class="cls-7" d="M108.2,17.72l-2.25,2a2.18,2.18,0,0,1,.49,1.39,2.21,2.21,0,0,1-2.21,2.21,2.18,2.18,0,0,1-1.59-.68l-2.8,2.47,8.36,11.5L111,34.92a2.19,2.19,0,0,1-.5-1.39,2.21,2.21,0,0,1,4.26-.84l3.28-1.95S115,20.54,108.2,17.72Zm.89,10-1,.92-.29-1.38-1.42-.7,1.36-.52.16-1.35L109,25.77l1.52-.13-.66,1.17.78,1.26Z"/><path class="cls-6" d="M35.16,25.21a.11.11,0,0,0-.22,0C34.72,26,34,27,32,26.73a5.06,5.06,0,0,0-5,2.62c-2.39-.28-4.1,6.22-6.6,7.42,2.77,1.71,5,2,10.58-1.16C35.29,33.11,35.34,27.52,35.16,25.21Zm-9.24,9.44s2.61-1.74,2.93-2.55A7.17,7.17,0,0,0,31,30.58,6.6,6.6,0,0,1,25.92,34.65Z"/><path class="cls-10" d="M18.75,65.32s-1.46-.22-.87-2.34c0,0,.06-.32.87-.32H34.24s1-.22,1,.7-2,.93-2,.93S20.33,64.94,18.75,65.32Z"/><path class="cls-10" d="M19,65.86s-1.75,0-1.28.71l.47.76s-1,1.08.13,1.08A3.15,3.15,0,0,0,20,68.09s-.37.86.38.7a7.65,7.65,0,0,0,2.6-1.45c.17.32.47,1,1.68,0a4,4,0,0,1,2.19-.94s1,.87,1.29-.11,2.55-.76,2.55-.76,2.71.44,2.77-.21c0,0,1.28-.13.83-.6Z"/><path class="cls-10" d="M20,69.26s-.8,1.47,0,2a.94.94,0,0,0,1.31,0,13.05,13.05,0,0,1,10.15-3.44s1.44.18,1.74-.42a2.5,2.5,0,0,0,.19-1.32A20.57,20.57,0,0,1,30.42,66a2.28,2.28,0,0,0-2,.55c-.3.48-1.44.77-1.71.36a4.54,4.54,0,0,0-2,.89c-.58.62-1.85.6-1.94.33C22.81,68.17,20.43,69.68,20,69.26Z"/><path class="cls-11" d="M39,98a1.77,1.77,0,0,1-.88-.24A33.32,33.32,0,0,1,27.9,87.88l0,0v0s.13-.55.44-.7a.45.45,0,0,1,.39,0l0,0c.08.07,7.16,7,12,8l.07,0v.08a5.87,5.87,0,0,1-.14,1.5,1.65,1.65,0,0,1-1,1.16A1.71,1.71,0,0,1,39,98ZM28.1,87.81a32.71,32.71,0,0,0,10.15,9.78,1.51,1.51,0,0,0,1.37.09,1.47,1.47,0,0,0,.86-1,6,6,0,0,0,.14-1.37c-4.79-1.06-11.67-7.68-12-8a.24.24,0,0,0-.2,0C28.25,87.36,28.14,87.66,28.1,87.81Z"/><path class="cls-11" d="M40.39,88.6c-1.78-1.27-5.32-.31-5.32-.31.3.83.16,1.12.16,1.12-.78-.19-.17-4.69,0-5.64l0-.17c.17-1.45-.12-2.06-.87-2.29-.46-.13-.91.39-1.19.82a10.32,10.32,0,0,0-.29,4.05c.26.84,0,.75,0,.75-.58-.81-.05-4,0-4.27a4.44,4.44,0,0,0-.53,0,4,4,0,0,0-3.45,1.61,7.23,7.23,0,0,1,0,1.85,8.89,8.89,0,0,0,2.39-2.19.1.1,0,0,1,.14,0,.12.12,0,0,1,0,.15,10.84,10.84,0,0,1-1.16,1.29,5.6,5.6,0,0,1-1.42,1,7.21,7.21,0,0,1-.22,1.14c6.37,8.45,11.81,8,11.81,8l.37-.4C42.84,93.42,42.16,89.88,40.39,88.6Z"/><path class="cls-11" d="M28.92,86.1a2.43,2.43,0,0,1-1.1.32h0a1.65,1.65,0,0,1-1.35-.79,1.51,1.51,0,0,1-.26-1.57,1,1,0,0,1,.81-.63.64.64,0,0,1,.6.3.1.1,0,0,0,.17-.12.85.85,0,0,0-.79-.39A1.28,1.28,0,0,0,26,84a1.79,1.79,0,0,0,.28,1.78,1.84,1.84,0,0,0,1.52.87h0a2.34,2.34,0,0,0,1.07-.28Z"/><path class="cls-8" d="M64.32,108.28a18.92,18.92,0,0,1-2.31-.14c-1.85-.22-4.23-.76-5.07-2.06a1.51,1.51,0,0,1-.24-1.2c0-.18.07-1.46,2-2.82a5.13,5.13,0,0,0,1.37-2.8c.52-1.87,1.12-4,3.7-3.54a3.77,3.77,0,0,1,2.63,1.46,4.52,4.52,0,0,1,.25,3.51c0,.09,0,.17,0,.24a4.64,4.64,0,0,0,1.33,4.86c.69.57.69,1,.57,1.3C68.16,107.84,66.53,108.28,64.32,108.28Zm-7.42-3.36a1.28,1.28,0,0,0,.22,1c.44.69,1.65,1.58,4.91,2,2.74.32,5.84.06,6.27-.93.13-.31,0-.67-.51-1.07a4.85,4.85,0,0,1-1.4-5c0-.07,0-.16,0-.25a4.3,4.3,0,0,0-.22-3.34,3.53,3.53,0,0,0-2.49-1.38c-2.41-.42-2.95,1.52-3.48,3.39a5.18,5.18,0,0,1-1.45,2.92c-1.91,1.36-1.9,2.64-1.9,2.66h0Z"/><path class="cls-8" d="M67.86,105.86a4.73,4.73,0,0,1-1.37-5c.18-.9,1-3.39-1.19-4.58l-.51-.11c-4-.7-3,4.92-5,6.33s-1.94,2.74-1.94,2.74-.41,1.26,1.6,2.24A15.9,15.9,0,0,0,62,108C66.5,108.57,69.85,107.54,67.86,105.86Zm-3.63-.79-.71.44c-1.1-1.11.27-5.75.27-5.75l.84.22A8.69,8.69,0,0,0,64.23,105.07Z"/><path class="cls-17" d="M64.13,85.45a3,3,0,0,0-3.08-1.13S61.69,85.92,64.13,85.45Z"/><path class="cls-17" d="M66.72,90.33a1.44,1.44,0,0,1,1.44-1.44,1.5,1.5,0,0,1,.47.08c.1-2-.88-3.41-4.49-2.07,0,0-1.75-1.91-3.71-.67s-.26,9,3.71,7.52c0,0,2.16,1.69,3.5-1.22a7.75,7.75,0,0,0,.33-.77A1.44,1.44,0,0,1,66.72,90.33Z"/><path class="cls-8" d="M56.1,86.93a1.86,1.86,0,0,1,2-2.37.82.82,0,0,1,.82,1c-.15,1.77-.55,3.06,0,3.57A3.19,3.19,0,0,1,56.1,86.93Z"/><polygon class="cls-17" points="70.74 92.53 68.45 93.7 69.34 95.47 72.18 94 71.9 93.61 70.44 94.44 70.18 94.13 71.36 93.39 70.99 93.13 70 93.75 69.8 93.49 71.05 92.82 70.74 92.53"/><path class="cls-17" d="M70.47,92.43l.91,1.87a.38.38,0,0,0,.4.23c.92-.08,3.87-.35,5.14-.32a.4.4,0,0,0,.41-.4v-4a.4.4,0,0,0-.52-.38,31.39,31.39,0,0,0-6.19,2.52A.41.41,0,0,0,70.47,92.43Z"/><path class="cls-5" d="M89.1,90.05a12.27,12.27,0,0,1,2-.85.17.17,0,0,0,.12-.23l-.44-1.21a.2.2,0,0,0-.16-.12,3.88,3.88,0,0,0-2.53.78.19.19,0,0,0,0,.24L88.87,90A.18.18,0,0,0,89.1,90.05Z"/><path class="cls-5" d="M105.22,94.87c-1.72-2.56-5.29-1.21-8-3.31s-3.74-2.06-5-2c0,0-.88.27-1,0L91,89.16a10.24,10.24,0,0,0-2,.8l.29.25s-2.1,1-2.18,1.74.84,2.54,1.93,2.58,2.1,1.56,2.39,4.8,1.43,5,3.2,5S106.94,97.44,105.22,94.87Zm-8.16-2.34a2.18,2.18,0,0,1-2-.2c-.84-.65-2.47-2-2.47-2a3.44,3.44,0,0,1,2.61.48C96.66,91.68,97.54,92.5,97.06,92.53Z"/><path class="cls-6" d="M115.06,79.48a8.05,8.05,0,0,1-3.46-3.57c-1.39-2.67-7-1.52-8.25-5.34s.76-5.94,5.14-5.21c2.44.4,3.12,2.41,3.26,4.12a6.65,6.65,0,0,1,7.07-.12c4.06,2.18-.07,5.79-2.13,6.3S113.78,78.58,115.06,79.48Z"/><path class="cls-4" d="M118.08,49.23a8.12,8.12,0,0,0-6.66,1.94,9.91,9.91,0,0,0,5.15,2.72,13,13,0,0,0,6.25-1.09S122.21,49.83,118.08,49.23Zm-1.3,4A8.83,8.83,0,0,1,112,51.14a8.6,8.6,0,0,1,5.94-1.43,6,6,0,0,1,4.43,2.7A11.6,11.6,0,0,1,116.78,53.26Z"/><circle class="cls-4" cx="117.37" cy="50.99" r="1.86"/><polygon class="cls-4" points="116.42 49.14 116.18 47.59 116.69 47.59 116.69 49.13 116.42 49.14"/><polygon class="cls-4" points="118.69 49.62 119.77 47.93 119.94 48.37 118.92 49.62 118.69 49.62"/><polygon class="cls-4" points="120.11 50.03 121.23 49.14 121.47 49.59 120.28 50.2 120.11 50.03"/><polygon class="cls-4" points="121.47 50.88 122.32 50.34 122.48 50.61 121.47 51.18 121.47 50.88"/><path class="cls-11" d="M111.17,47a18.26,18.26,0,0,1,3.22.21c.88.24,1.52,1,.71,1.35s-3.49.38-3.93,1.76S109.75,47.42,111.17,47Z"/><path class="cls-9" d="M119.67,34.24c-3.39.11-8.1,3.73-9.24,4.31s-.65,6.2.67,7.14,6.27-.37,6.27-.37c1.08.31.95,2.78.95,2.78A4.09,4.09,0,0,0,120.11,45a5.6,5.6,0,0,0,2-.71S123.06,34.14,119.67,34.24Zm-6.88,6.07a.19.19,0,0,1-.18-.12.2.2,0,0,1,.1-.27A36.53,36.53,0,0,1,117.34,38a.22.22,0,0,1,.23.18.21.21,0,0,1-.18.23,33.86,33.86,0,0,0-4.51,1.88Zm.72,1.46a.21.21,0,0,1-.1-.39,16.27,16.27,0,0,1,3.25-1.44.2.2,0,1,1,0,.4,15.65,15.65,0,0,0-3.1,1.4A.19.19,0,0,1,113.51,41.77Zm5.59-.25a21.94,21.94,0,0,1-5.16,1.92h0a.2.2,0,0,1-.2-.16.19.19,0,0,1,.15-.24,22.09,22.09,0,0,0,5-1.88.21.21,0,0,1,.28.07A.21.21,0,0,1,119.1,41.52Z"/><path class="cls-8" d="M52.87,4.87s-.35,1.55,1.37,1c0,0-.1.85,1.24.37,0,0,0,.73,1,.44,0,0,0,.92.85.6a.63.63,0,0,0,.84.07s.32.7,1.34.4c0,0-.11.48.63.55,0,0,.35,1,1.13.95a1.67,1.67,0,0,0,2,.46s-.74-.37-.7-1a1,1,0,0,0,.49-1.3,1.25,1.25,0,0,0,.84-1.81s1.62-.17.88-2.07c0,0,1.27.13,1-.89S53.65,3.89,53.65,3.89Z"/><path class="cls-11" d="M56.57,37.78a3.16,3.16,0,0,1,3.2-.31l-.25,2.81a5.93,5.93,0,0,0-3.16.6Z"/><path class="cls-11" d="M56.36,41.37a5.32,5.32,0,0,1,3-.53s-.35,7.75,0,10.07l-1.76,3-1.55-2.22S56,45,56.36,41.37Z"/><path class="cls-5" d="M53.29,22.94c.18-.46,1.3-2.8,1.7-3.63a.16.16,0,0,1,.29,0l1.53,3a.19.19,0,0,0,.15.09H59a.16.16,0,0,1,.13.26l-1.74,2.25a.16.16,0,0,0,0,.16l.8,2.07a.17.17,0,0,1-.2.22l-2.77-.93a.23.23,0,0,1-.09-.08L53.3,23.08A.17.17,0,0,1,53.29,22.94Z"/><path class="cls-11" d="M108.22,58s1.12-.2.92.31a6.07,6.07,0,0,0-.13,2.78,3.25,3.25,0,0,1-.48,2.09,3.58,3.58,0,0,0-2.86.41,1.82,1.82,0,0,1,0-1.41C106,61.49,108.22,58,108.22,58Z"/><path class="cls-11" d="M33.33,16.94l3.91-.9s2,1.24,3.2,0,.07-1.32,2.14-2.44,2.18-2.52,3.27-3,3.19-1,2.86-3.68S35.62,13.48,33.33,16.94Z"/><path class="cls-7" d="M60.17,33.33s-.21,1.88-1,1.88c0,0,1,.08,1,.94,0,0,.45-1.41,1.32-1.41A1.37,1.37,0,0,1,60.17,33.33Z"/><path class="cls-7" d="M62.88,34.54s.28-2.49,1.31-2.49c0,0-1.31-.1-1.31-1.24,0,0-.6,1.87-1.74,1.87A1.8,1.8,0,0,1,62.88,34.54Z"/><path class="cls-10" d="M101.3,69.54s-.21,3,1.7,3.83c0,0-3.38-.45-5.37,1.71C97.63,75.08,99.19,70.48,101.3,69.54Z"/><circle class="cls-18" cx="121.18" cy="47.98" r="0.39"/><circle class="cls-18" cx="121.67" cy="46.25" r="0.88"/><circle class="cls-18" cx="122.38" cy="48.39" r="0.33"/><circle class="cls-18" cx="122.65" cy="49.95" r="0.33"/><path class="cls-4" d="M74.42,69.59A4.22,4.22,0,0,0,76,71.68a.91.91,0,0,0-.67,1.12,1.15,1.15,0,0,0,1.17.92S75.3,76.48,76,78s4.94-6.78,4.94-6.78l-1.78-3Z"/><circle class="cls-4" cx="74.91" cy="78.39" r="0.51"/><circle class="cls-4" cx="75.34" cy="74.49" r="0.37"/><circle class="cls-4" cx="74.2" cy="73.82" r="0.32"/><circle class="cls-4" cx="74.54" cy="76.39" r="0.76"/><circle class="cls-4" cx="74.39" cy="72.18" r="0.57"/><circle class="cls-18" cx="56.04" cy="69.69" r="0.69"/><circle class="cls-18" cx="70.33" cy="67.58" r="0.69"/><circle class="cls-18" cx="62.54" cy="66.51" r="0.69"/><circle class="cls-18" cx="56.83" cy="67.06" r="0.93"/><circle class="cls-18" cx="60.36" cy="67.54" r="0.93"/><circle class="cls-18" cx="65.78" cy="64.91" r="0.93"/><circle class="cls-18" cx="64.46" cy="67.52" r="0.93"/><circle class="cls-18" cx="58.28" cy="68.53" r="0.49"/><circle class="cls-18" cx="66.01" cy="66.86" r="0.36"/><circle class="cls-18" cx="68.18" cy="66.31" r="0.85"/><g class="cls-19"><polygon class="cls-18" points="58.24 56.45 57.68 54.33 58.58 54.12 58.63 56.36 58.24 56.45"/><polygon class="cls-18" points="59.44 56.17 59.19 53.38 59.99 52.64 59.68 56.16 59.44 56.17"/><polygon class="cls-18" points="57.77 56.68 57.04 54.51 56.34 54.12 57.38 56.72 57.77 56.68"/><polygon class="cls-18" points="57.05 57.13 55.73 54.8 55.55 56.47 56.7 57.38 57.05 57.13"/><polygon class="cls-18" points="60.27 56.22 60.76 53.45 61.45 55.17 60.54 56.25 60.27 56.22"/></g><circle class="cls-4" cx="56.57" cy="29.13" r="0.91"/><circle class="cls-4" cx="55.69" cy="31.93" r="0.91"/><circle class="cls-4" cx="57.3" cy="30.81" r="0.35"/><circle class="cls-4" cx="56.43" cy="33.86" r="0.35"/><circle class="cls-17" cx="30.1" cy="21.81" r="0.87"/><circle class="cls-17" cx="32.51" cy="23.71" r="0.62"/><circle class="cls-17" cx="33.67" cy="24.99" r="0.43"/><circle class="cls-17" cx="35.15" cy="23.79" r="0.77"/><circle class="cls-17" cx="30.19" cy="24.78" r="1.25"/><circle class="cls-17" cx="27.81" cy="23.7" r="0.6"/><circle class="cls-17" cx="27.54" cy="26.33" r="0.33"/><circle class="cls-17" cx="25.59" cy="26.74" r="0.77"/><circle class="cls-17" cx="24.51" cy="28.74" r="0.77"/><circle class="cls-6" cx="21.21" cy="38.74" r="0.77"/><circle class="cls-6" cx="18.56" cy="40.25" r="1.5"/><path class="cls-18" d="M34.42,65.82s.09,2.55-.67,2.58-1.19,1-.44,1.39a3.83,3.83,0,0,1,2,3c.06,1.58.22-7,.22-7Z"/><path class="cls-18" d="M19.49,72.31a1.7,1.7,0,0,0,2.14-.1,7.83,7.83,0,0,0-.88,4.51Z"/><circle class="cls-18" cx="31.68" cy="45.2" r="0.29"/><circle class="cls-18" cx="34.23" cy="43.75" r="0.29"/><circle class="cls-6" cx="19.78" cy="47.37" r="0.2"/><circle class="cls-6" cx="21.62" cy="45.51" r="0.2"/><circle class="cls-6" cx="21.02" cy="47.89" r="0.29"/><circle class="cls-18" cx="34.34" cy="46.05" r="0.29"/><circle class="cls-18" cx="33.23" cy="44.99" r="0.65"/><circle class="cls-6" cx="20.59" cy="46.56" r="0.65"/><circle class="cls-18" cx="32.75" cy="46.78" r="0.7"/><circle class="cls-6" cx="18.26" cy="47.28" r="1.01"/><circle class="cls-18" cx="35.15" cy="44.93" r="0.61"/><circle class="cls-18" cx="34.86" cy="47.67" r="0.98"/><path class="cls-8" d="M104.38,21.29s-1.18-3.94.83-4.34S104.34,19.89,104.38,21.29Z"/><path class="cls-8" d="M103.68,20.69s-2.24-2.63-1.29-5,2.36.49,1.47,1.43C102.48,18.61,103.68,20.69,103.68,20.69Z"/><path class="cls-8" d="M103.68,21.59s-2.36-1.09-3.63.27-.39,2.05.22,1.66S102.06,21.5,103.68,21.59Z"/><path class="cls-8" d="M102.85,20.8s-1.09-2.4-1.92-1.75-.49,1,0,1.14S102.3,20.13,102.85,20.8Z"/><circle class="cls-18" cx="94.13" cy="8.27" r="0.94"/><circle class="cls-18" cx="95.08" cy="10.16" r="0.5"/><circle class="cls-18" cx="97.28" cy="10.48" r="0.94"/><path class="cls-7" d="M69.91,16.1a.89.89,0,0,1-.59-.21c-.76-.66-.48-2.67-.47-2.76A.1.1,0,0,1,69,13a.11.11,0,0,1,.09.12s-.28,2,.4,2.58a.79.79,0,0,0,.78.11c1.17-.34,2.63-.77,2.76-1.35,0-.2-.07-.42-.35-.67a1,1,0,0,0-.87-.31c-.56.13-.89.92-.89.93a.1.1,0,0,1-.13.06.1.1,0,0,1-.06-.13s.37-.9,1-1.06a1.18,1.18,0,0,1,1.06.36.94.94,0,0,1,.41.87c-.16.69-1.55,1.1-2.9,1.49A1.43,1.43,0,0,1,69.91,16.1Z"/><path class="cls-7" d="M81.45,16.39a2.36,2.36,0,0,1-.37,0,.1.1,0,0,1,0-.2,1.83,1.83,0,0,0,1.76-.58C84,14,82.37,9.92,82.35,9.88a.1.1,0,0,1,.06-.13.1.1,0,0,1,.13.05,14.68,14.68,0,0,1,.71,2.31c.37,1.69.29,2.9-.23,3.6A1.85,1.85,0,0,1,81.45,16.39Z"/><ellipse class="cls-7" cx="82.34" cy="9.62" rx="0.39" ry="0.64" transform="translate(2.46 31.79) rotate(-22.17)"/><circle class="cls-8" cx="47.82" cy="16.43" r="0.6"/><circle class="cls-8" cx="48.48" cy="15.19" r="0.21"/><circle class="cls-8" cx="47.94" cy="18.51" r="1.02"/><circle class="cls-8" cx="46.46" cy="19.79" r="0.4"/><circle class="cls-8" cx="47.95" cy="21.39" r="0.94"/><circle class="cls-8" cx="45.82" cy="22.17" r="0.65"/><path class="cls-11" d="M33,38.4c-2.45-1.9-5.59,1.68-5.59,1.68-9.23-3.31-8,6.08-8,6.08.71-2.45,8.14-1.69,12.43-2C33.79,44,35.47,40.3,33,38.4Zm.22,3.29c-.33,1.75-2.39,1.86-2.92,1.86h-.12a.16.16,0,0,1,0-.31,4.11,4.11,0,0,0,1.27-.15A1.88,1.88,0,0,0,33,41.63a.15.15,0,0,1,.17-.12A.16.16,0,0,1,33.25,41.69Z"/><circle class="cls-9" cx="32.4" cy="36.55" r="0.39"/><circle class="cls-9" cx="34.16" cy="35.39" r="0.89"/><circle class="cls-9" cx="33.61" cy="36.94" r="0.22"/><circle class="cls-9" cx="35.02" cy="37.44" r="0.72"/><circle class="cls-9" cx="34.93" cy="33.37" r="0.47"/><circle class="cls-10" cx="70.3" cy="85.75" r="1.01"/><circle class="cls-7" cx="70.71" cy="108.57" r="1.01"/><circle class="cls-11" cx="70.59" cy="89.15" r="1.44"/><circle class="cls-18" cx="83.35" cy="88.27" r="0.91"/><circle class="cls-18" cx="87.04" cy="89.79" r="0.91"/><circle class="cls-17" cx="116.3" cy="77.97" r="0.91"/><circle class="cls-18" cx="121.43" cy="69.4" r="0.91"/><circle class="cls-17" cx="114.41" cy="84.06" r="0.91"/><circle class="cls-17" cx="118.85" cy="76.84" r="0.91"/><circle class="cls-17" cx="114.1" cy="81.11" r="0.47"/><circle class="cls-17" cx="117.12" cy="79.97" r="0.46"/><circle class="cls-18" cx="120.4" cy="67.62" r="0.46"/><circle class="cls-17" cx="116.04" cy="81.56" r="0.65"/><circle class="cls-18" cx="86.18" cy="88.39" r="0.33"/><circle class="cls-10" cx="68.27" cy="84.87" r="0.47"/><circle class="cls-7" cx="78.07" cy="106.99" r="0.47"/><circle class="cls-7" cx="73.82" cy="107.56" r="0.47"/><circle class="cls-10" cx="66.71" cy="85.32" r="0.56"/><circle class="cls-7" cx="80.22" cy="107.78" r="0.56"/><circle class="cls-7" cx="76.14" cy="107.76" r="0.83"/><path class="cls-11" d="M72.53,87.78a2.56,2.56,0,0,1,.29,1.66,14.69,14.69,0,0,1,4.62-.9,2.6,2.6,0,0,0,2.47-1.64Z"/><path class="cls-18" d="M94.43,80.33s-1.15,4.72.38,7.72a5.65,5.65,0,0,0-2.71.26s-.47-2.65-1.34-2.9S94.43,80.33,94.43,80.33Z"/><path class="cls-18" d="M88.51,107.26s1.93-3.35,1.84-4.64,2.94,3.91,2.94,3.91Z"/><path class="cls-4" d="M109.35,38.34s4.91-3.6,9.62-4.64l-.38-.76s-6.44,2.49-9.62,4.91Z"/><path class="cls-4" d="M109,37.36a67.83,67.83,0,0,1,9.23-4.87l-.29-.7-9.21,5.12Z"/><path class="cls-20" d="M39.91,87.61s3.84,1.1,3.84,6.38c0,0,1.66-3.07,4-3.07,0,0-.71-2.87,2-3.31C51.68,87.31,39.91,87.61,39.91,87.61Z"/><path class="cls-20" d="M42.52,96s.51,6,2,7.78l-5-4.16s2.08-1.85,2.19-3.47C41.75,96.12,42.33,96.28,42.52,96Z"/><path class="cls-18" d="M110.41,51.37s1.78,2.22,3,2.5h-4.11Z"/><path class="cls-5" d="M59.79,57.76a3.93,3.93,0,1,0,3.92,3.93A3.93,3.93,0,0,0,59.79,57.76Zm-2.6,1.64a3.44,3.44,0,0,1,2.6-1.17,3.17,3.17,0,0,1,.69.07h0l-.16.8h0a2.24,2.24,0,0,0-.52,0,2.62,2.62,0,0,0-2,.89h0l-.62-.55Zm-.83,2.76a2.42,2.42,0,0,1,0-.47,3.48,3.48,0,0,1,.64-2h0l.68.48h0a2.58,2.58,0,0,0-.49,1.52,2.19,2.19,0,0,0,0,.36h0l-.81.11Zm1.54,1.38-.59.57h0a3.48,3.48,0,0,1-.85-1.45h0l.79-.23h0a2.56,2.56,0,0,0,.65,1.1Zm3,.3a.47.47,0,0,1-.46.46H59.13a.46.46,0,0,1-.46-.46v-.1a.45.45,0,0,1,.46-.46h1.79Zm.51-3.66L61,60.9a.62.62,0,0,1-.09.12l-1,1a.18.18,0,0,1-.25,0l-.18-.19a.18.18,0,0,1,0-.24l1-1,.15-.12L61.3,60A.1.1,0,0,1,61.43,60.18Zm-.94-1h0l.22-.8h0a3.45,3.45,0,0,1,2.22,1.88h0l-.75.35A2.68,2.68,0,0,0,60.49,59.15Zm1.74,5-.58-.59a2.65,2.65,0,0,0,.77-1.86,2.82,2.82,0,0,0-.16-.92h0l.77-.29a3.45,3.45,0,0,1-.8,3.66Z"/><path class="cls-20" d="M98.26,78.88s-1.66-3.79,1.83-4.68c0,0-1.25,1.26-.85,2.17s2.64,1.92,2.64,1.92Z"/><ellipse class="cls-20" cx="104.07" cy="84.2" rx="8.07" ry="8.39" transform="translate(11.26 180.68) rotate(-85.09)"/><ellipse class="cls-21" cx="104.16" cy="83.28" rx="4.33" ry="5.83" transform="translate(12.27 179.92) rotate(-85.09)"/><ellipse class="cls-22" cx="102.34" cy="82.96" rx="1.87" ry="1.17" transform="translate(6.81 173.68) rotate(-82.55)"/><ellipse class="cls-2" cx="102.27" cy="82.6" rx="0.82" ry="0.47" transform="translate(7.11 173.29) rotate(-82.55)"/><ellipse class="cls-22" cx="106.94" cy="83.58" rx="1.87" ry="1.17" transform="translate(10.19 178.78) rotate(-82.55)"/><ellipse class="cls-2" cx="106.87" cy="83.22" rx="0.82" ry="0.47" transform="translate(10.49 178.39) rotate(-82.55)"/></g><path class="cls-23" d="M90.72,47.18h0L100,56.08H92.62a.88.88,0,0,1-.6-.25l-6.31-6.39a2.1,2.1,0,0,0-1.45-.58H82.39a.43.43,0,0,0-.43.41h0v6a.86.86,0,0,1-.85.84H76.33V48.86H73.1A2.11,2.11,0,0,1,71,46.74h0V44.37h5.35V37.16h4.83A.85.85,0,0,1,82,38v6h0a.43.43,0,0,0,.43.43h1.93a2.12,2.12,0,0,0,1.34-.52L92,37.41h0a.84.84,0,0,1,.61-.26H100L90.71,46a.86.86,0,0,0,0,1.22Z"/><path class="cls-20" d="M1.74,59.82S-2.1,46.46,1.62,42.89s12.37-4.49,13.51.8S18.66,65,12.81,67.52,1.56,64.21,1.74,59.82Z"/><path class="cls-20" d="M138.63,59.82s3.84-13.36.12-16.93-12.37-4.49-13.51.8S121.71,65,127.56,67.52,138.81,64.21,138.63,59.82Z"/></g></g></svg>