<svg xmlns="http://www.w3.org/2000/svg" xmlns:xlink="http://www.w3.org/1999/xlink" width="20" height="21" viewBox="0 0 20 21">
    <defs>
        <path id="prefix__a" d="M8 14.552c-3.619 0-6.552-2.934-6.552-6.552 0-3.618 2.933-6.552 6.552-6.552 3.619 0 6.551 2.934 6.551 6.552 0 3.618-2.932 6.552-6.551 6.552M8 0C3.582 0 0 3.582 0 8s3.582 8 8 8 8-3.582 8-8-3.582-8-8-8m.44 8.144l2.527 2.33H8.97c-.062.001-.122-.022-.165-.063L7.06 8.716c-.108-.096-.25-.15-.397-.151h-.516c-.063 0-.116.047-.118.108v1.604c0 .123-.105.223-.232.223H4.474V8.596h-.892c-.322 0-.582-.25-.582-.558v-.634h1.482V5.5h1.322c.117.003.214.09.225.202V7.29c0 .063.053.115.118.115h.529c.138-.006.268-.058.37-.146l1.766-1.689c.045-.045.107-.07.171-.069H11L8.441 7.822l-.01.01c-.087.089-.082.228.01.312m3.195 1.15V8.17h.991v-.427h-.991V6.706h-.454v1.038h-.991v.427h.99v1.123h.455z"/>
    </defs>
    <g fill="none" fill-rule="evenodd" transform="translate(2 2.5)">
        <mask id="prefix__b" fill="#fff">
            <use xlink:href="#prefix__a"/>
        </mask>
        <use fill="#000" xlink:href="#prefix__a"/>
        <g fill="#ED1B34" mask="url(#prefix__b)">
            <path d="M0 0H20V20H0z" transform="translate(-2 -2)"/>
        </g>
    </g>
</svg>
