<svg xmlns="http://www.w3.org/2000/svg" xmlns:xlink="http://www.w3.org/1999/xlink" width="20" height="20" viewBox="0 0 20 20">
    <defs>
        <path id="prefix__a" d="M8 8c.725.013 1.769-.912 2.294-1.294 4.147-3.01 4.462-3.272 5.418-4.022.182-.14.288-.359.288-.59V1.5c0-.828-.672-1.5-1.5-1.5h-13C.672 0 0 .672 0 1.5v.594c0 .231.106.447.288.59.956.747 1.271 1.013 5.418 4.022C6.231 7.088 7.275 8.013 8 8zm6.5 4c.828 0 1.5-.672 1.5-1.5V4.11c0-.154-.181-.244-.303-.147-.7.543-1.625 1.237-4.813 3.553C10.25 7.978 9.116 9.013 8 9.003c-1.11.006-2.222-1.006-2.881-1.487C1.93 5.2 1.003 4.509.303 3.966.178 3.869 0 3.956 0 4.113V10.5c0 .828.672 1.5 1.5 1.5h13z"/>
    </defs>
    <g fill="none" fill-rule="evenodd" transform="translate(2 4)">
        <mask id="prefix__b" fill="#fff">
            <use xlink:href="#prefix__a"/>
        </mask>
        <use fill="#6E6E6E" fill-rule="nonzero" xlink:href="#prefix__a"/>
        <g fill="#0082C6" mask="url(#prefix__b)">
            <path d="M0 0H20V20H0z" transform="translate(-2 -4)"/>
        </g>
    </g>
</svg>
