<svg xmlns="http://www.w3.org/2000/svg" xmlns:xlink="http://www.w3.org/1999/xlink" width="20" height="20" viewBox="0 0 20 20">
    <defs>
        <path id="prefix__a" d="M11.71 17.566c.171-.038.293-.191.293-.366v-1.537c.694-.247 1.338-.62 1.9-1.097l1.331.768c.153.088.344.06.463-.071.772-.835 1.362-1.841 1.71-2.957.046-.172-.023-.353-.176-.44l-1.331-.77c.134-.724.134-1.468 0-2.193l1.331-.769c.153-.087.222-.268.172-.437-.347-1.113-.937-2.119-1.71-2.956-.118-.128-.312-.16-.462-.072l-1.331.769c-.56-.482-1.203-.854-1.9-1.097V2.806c0-.175-.122-.328-.294-.365-1.147-.257-2.322-.244-3.412 0-.172.037-.294.19-.294.365v1.538c-.694.247-1.338.619-1.9 1.097l-1.328-.77c-.153-.087-.344-.058-.463.073-.771.834-1.362 1.84-1.709 2.956-.053.169.019.35.172.438l1.331.768c-.134.725-.134 1.469 0 2.194l-1.331.769c-.153.087-.222.269-.172.437.347 1.113.938 2.119 1.71 2.957.118.128.312.159.462.071l1.331-.768c.56.48 1.203.853 1.9 1.097V17.2c0 .175.122.328.294.366 1.147.256 2.322.243 3.412 0zM10 12.5c-1.378 0-2.5-1.122-2.5-2.5S8.622 7.5 10 7.5s2.5 1.122 2.5 2.5-1.122 2.5-2.5 2.5z"/>
    </defs>
    <g fill="none" fill-rule="evenodd">
        <mask id="prefix__b" fill="#fff">
            <use xlink:href="#prefix__a"/>
        </mask>
        <use fill="#6E6E6E" fill-rule="nonzero" xlink:href="#prefix__a"/>
        <g fill="#0082C6" mask="url(#prefix__b)">
            <path d="M0 0H20V20H0z"/>
        </g>
    </g>
</svg>
