<?xml version="1.0" encoding="UTF-8"?>
<svg width="14px" height="14px" viewBox="0 0 14 14" version="1.1" xmlns="http://www.w3.org/2000/svg" xmlns:xlink="http://www.w3.org/1999/xlink">
    <!-- Generator: Sketch 52.6 (67491) - http://www.bohemiancoding.com/sketch -->
    <title>usercp notif k icon night</title>
    <desc>Created with Sketch.</desc>
    <g id="15-User-Cp" stroke="none" stroke-width="1" fill="none" fill-rule="evenodd">
        <g id="mobile-dropdown-notification-night" transform="translate(-27.000000, -371.000000)" fill="#DCDCDC">
            <g id="Group-21" transform="translate(0.000000, -18.000000)">
                <g id="usercp-notif-k-icon-night" transform="translate(27.000000, 389.000000)">
                    <path d="M11.2,0 C12.7463973,9.4689525e-17 14,1.2536027 14,2.8 L14,11.2 C14,12.7463973 12.7463973,14 11.2,14 L2.8,14 C1.2536027,14 1.8937905e-16,12.7463973 0,11.2 L0,2.8 C1.8937905e-16,1.2536027 1.2536027,-9.4689525e-17 2.8,0 L11.2,0 Z M11.0833333,0.875 L2.91666667,0.875 C1.78908531,0.875 0.875,1.78908531 0.875,2.91666667 L0.875,11.0833333 C0.875,12.2109147 1.78908531,13.125 2.91666667,13.125 L11.0833333,13.125 C12.2109147,13.125 13.125,12.2109147 13.125,11.0833333 L13.125,2.91666667 C13.125,1.78908531 12.2109147,0.875 11.0833333,0.875 Z M8.57644628,7.15324822 L8.54752066,7.1265986 L11.338843,9.59835039 L9.15495868,9.59835039 C9.08746502,9.59924133 9.02238132,9.57525631 8.97417355,9.53172635 L7.06508264,7.75286455 C6.94769807,7.65079889 6.79260271,7.59364219 6.63119835,7.59296687 L6.06714876,7.59296687 C5.99799235,7.59286844 5.94082542,7.64261122 5.93698347,7.70622773 L5.93698347,9.39181587 C5.93698347,9.52059989 5.82366711,9.625 5.6838843,9.625 L4.23760331,9.625 L4.23760331,7.62627888 L3.26136364,7.62627888 C2.9099097,7.62627888 2.625,7.3637872 2.625,7.03998736 L2.625,6.37374698 L4.24483471,6.37374698 L4.24483471,4.37502587 L5.6911157,4.37502587 C5.82006426,4.37798708 5.92596735,4.4698178 5.93698347,4.58822279 L5.93698347,6.25382372 C5.93698347,6.32005551 5.99526046,6.37374698 6.06714876,6.37374698 L6.64566116,6.37374698 C6.79606958,6.36840041 6.93955196,6.31410707 7.05061983,6.2205117 L8.98140496,4.44831231 C9.03012971,4.4006471 9.0983609,4.37405145 9.16942149,4.37502587 L11.375,4.375 L8.57644628,6.81346563 C8.52556671,6.85753646 8.49671242,6.91901712 8.49671242,6.98335692 C8.49671242,7.04769673 8.52556671,7.10917739 8.57644628,7.15324822 Z" id="Combined-Shape"></path>
                </g>
            </g>
        </g>
    </g>
</svg>