<?xml version="1.0" encoding="UTF-8"?>
<svg width="81px" height="65px" viewBox="0 0 81 65" version="1.1" xmlns="http://www.w3.org/2000/svg" xmlns:xlink="http://www.w3.org/1999/xlink">
    <!-- Generator: Sketch 52.6 (67491) - http://www.bohemiancoding.com/sketch -->
    <title>mobile personalization</title>
    <desc>Created with Sketch.</desc>
    <defs>
        <filter x="-4.6%" y="-4.8%" width="111.5%" height="109.6%" filterUnits="objectBoundingBox" id="filter-1">
            <feOffset dx="1" dy="1" in="SourceAlpha" result="shadowOffsetOuter1"></feOffset>
            <feColorMatrix values="0 0 0 0 1   0 0 0 0 1   0 0 0 0 1  0 0 0 1 0" type="matrix" in="shadowOffsetOuter1" result="shadowMatrixOuter1"></feColorMatrix>
            <feMerge>
                <feMergeNode in="shadowMatrixOuter1"></feMergeNode>
                <feMergeNode in="SourceGraphic"></feMergeNode>
            </feMerge>
        </filter>
        <polygon id="path-2" points="0 0.17351224 7.24436151 0.17351224 7.24436151 6.31502775 0 6.31502775"></polygon>
        <polygon id="path-4" points="0.284747128 0.0378472209 13.0930217 0.0378472209 13.0930217 16.9674112 0.284747128 16.9674112"></polygon>
        <polygon id="path-6" points="0.000105682628 0.0363254077 47.835427 0.0363254077 47.835427 69.7463768 0.000105682628 69.7463768"></polygon>
    </defs>
    <g id="01-LANDING-FORUM" stroke="none" stroke-width="1" fill="none" fill-rule="evenodd">
        <g id="3-mobile-forum" transform="translate(-5.000000, -270.000000)">
            <g id="Group-21" transform="translate(-6.000000, 257.000000)">
                <g id="Group">
                    <g id="Group-17">
                        <g id="Group-13" transform="translate(6.000000, 2.000000)">
                            <g id="Group-15" transform="translate(5.000000, 1.000000)">
                                <g id="Group-14">
                                    <g id="Group-12" transform="translate(18.000000, 0.000000)">
                                        <g id="orange-guy" filter="url(#filter-1)" transform="translate(33.832124, 33.921219) scale(-1, 1) rotate(-17.000000) translate(-33.832124, -33.921219) translate(6.488374, 7.829872)">
                                            <path d="M11.7179861,43.2715348 C11.7619654,42.7718791 8.44152389,36.1514413 10.5305434,35.4372388 C12.6186069,34.7239899 19.5147615,36.8389446 21.3007059,36.0866005 C23.0876063,35.3342563 28.191124,31.3398715 29.3871714,31.5458364 C30.5832187,31.7508478 26.816291,37.2232218 23.5101906,39.1550967 C20.2050462,41.086018 11.7179861,43.2715348 11.7179861,43.2715348" id="Fill-1" fill="#FAA61A"></path>
                                            <g id="Group-5" transform="translate(0.047847, 36.910719)">
                                                <mask id="mask-3" fill="white">
                                                    <use xlink:href="#path-2"></use>
                                                </mask>
                                                <g id="Clip-4"></g>
                                                <path d="M5.8511956,2.99263109 C5.8511956,2.99263109 -0.0317658678,7.18392023 9.65527894e-05,6.15138223 C0.0319589733,5.11690336 3.11392402,0.318124748 5.99892137,0.178382762 C8.88488425,0.0376703459 5.8511956,2.99263109 5.8511956,2.99263109" id="Fill-3" fill="#CC6633" mask="url(#mask-3)"></path>
                                            </g>
                                            <path d="M0.0229310712,42.9440251 C0.0229310712,42.9440251 3.33915179,37.6425551 5.71678384,38.6548099 C8.09441589,39.6670647 5.88958235,37.0773319 5.88958235,37.0773319 C5.88958235,37.0773319 0.818937353,38.8178001 0.0229310712,42.9440251" id="Fill-6" fill="#FAA61A"></path>
                                            <path d="M5.75647251,45.4824346 C5.75647251,45.4824346 0.479079122,50.3296604 0.427523769,49.3177468 C0.376905787,48.3058332 2.93780077,43.2265344 5.67679606,42.7172891 C8.41579135,42.2089834 5.75647251,45.4824346 5.75647251,45.4824346" id="Fill-8" fill="#CC6633"></path>
                                            <path d="M5.6830711,42.5535424 C5.6830711,42.5535424 0.404740336,47.4020876 0.354122354,46.3891551 C0.303504371,45.3771622 2.86439935,40.2974654 5.60339464,39.7891199 C8.34238993,39.2798347 5.6830711,42.5535424 5.6830711,42.5535424" id="Fill-10" fill="#CC6633"></path>
                                            <path d="M0.0579158375,46.4380499 C0.0579158375,46.4380499 2.95800043,40.5695982 5.43410737,41.2813946 C7.91021432,41.993191 5.47863471,39.6450367 5.47863471,39.6450367 C5.47863471,39.6450367 0.518676942,42.111179 0.0579158375,46.4380499" id="Fill-12" fill="#FAA61A"></path>
                                            <path d="M0.426785707,49.4566888 C0.426785707,49.4566888 3.3268703,43.5881056 5.80297724,44.2998006 C8.27908419,45.0114957 5.84750458,42.6636756 5.84750458,42.6636756 C5.84750458,42.6636756 0.887546811,45.1304338 0.426785707,49.4566888" id="Fill-14" fill="#FCEE21"></path>
                                            <path d="M4.91906027,42.5059548 C4.91906027,42.5059548 4.29908611,38.9201659 6.30561762,37.1248597 C8.31214912,35.3295535 9.06915002,34.3532774 10.4902036,35.4414587 C11.9131737,36.5306047 12.8694862,43.4822309 10.5103264,45.2302668 C8.15212488,46.9802321 0.493000572,53.5141433 0.829338947,50.0383302 C0.860002275,49.7267322 3.24120131,47.2185129 4.70058406,46.3377421 C6.16092504,45.4560065 4.91906027,42.5059548 4.91906027,42.5059548" id="Fill-16" fill="#FAA61A"></path>
                                            <path d="M5.66159969,37.9747813 C5.66159969,37.9747813 4.83289361,41.4179389 5.53748922,43.3536349 C6.24110759,45.2883707 9.68590585,42.5557364 10.3797517,40.6699691 C11.0726204,38.7832416 10.7305837,37.5321445 10.7305837,37.5321445 L5.66159969,37.9747813 Z" id="Fill-18" fill="#CC6633"></path>
                                            <path d="M9.77318758,39.0678242 C9.77318758,39.0678242 6.03857312,41.3564892 5.21125431,36.8349327 C5.21125431,36.8349327 1.98081767,38.3799527 1.74430182,36.0668258 C1.50778597,33.7536989 5.49156939,34.5403969 6.87075852,33.9650506 C8.25092096,33.3897043 9.7323083,34.1460694 10.7221709,36.4073369 C11.7110602,38.6695828 9.77318758,39.0678242 9.77318758,39.0678242" id="Fill-20" fill="#FAA61A"></path>
                                            <path d="M9.821446,38.391945 C9.821446,38.391945 7.62121417,40.2277315 6.42391821,38.3315442 C6.42391821,38.3315442 5.55212824,37.2076943 5.87763424,36.5274433 C6.20408373,35.8471924 7.98068601,38.3761022 9.821446,38.391945" id="Fill-22" fill="#FCEE21"></path>
                                            <path d="M3.90324191,36.8017969 C3.90324191,36.8017969 2.23186883,37.0546535 2.36606667,35.9339789 C2.50120296,34.8124234 3.90324191,36.8017969 3.90324191,36.8017969" id="Fill-24" fill="#FCEE21"></path>
                                            <path d="M1.23807249,50.4674369 C1.23807249,50.4674369 0.618154763,49.5795534 2.10806522,48.9741784 C3.59893381,48.3678423 9.23951441,45.5331495 10.6882248,43.983197 C10.6882248,43.983197 6.61612225,47.76535 5.12908622,48.5398457 C3.64109205,49.3133806 1.23807249,50.4674369 1.23807249,50.4674369" id="Fill-26" fill="#FCEE21"></path>
                                            <path d="M52.6507641,27.3358525 C53.3528394,35.4972735 28.3232825,34.6048247 28.3232825,34.6048247 C28.3232825,34.6048247 26.1798542,32.6187719 28.1897356,31.7744869 C30.2005708,30.9311464 39.2922552,30.9462566 42.9924591,28.4124574 C46.6926631,25.8777139 49.5486596,23.8264981 49.5486596,23.8264981" id="Fill-28" fill="#FAA61A"></path>
                                            <path d="M23.8813564,32.9397033 C23.8813564,32.9397033 23.0705421,42.9802342 31.4059803,51.8748557 C31.4059803,51.8748557 38.0758589,47.7621657 39.6172656,43.1966414 C39.6172656,43.1966414 28.7137713,33.5803448 28.489341,29.9519494 C28.489341,29.9519494 23.8488856,30.757518 23.8813564,32.9397033" id="Fill-30" fill="#FAA61A"></path>
                                            <path d="M23.7349636,33.023957 C23.7349636,33.023957 23.6757395,33.8396771 23.7712622,35.1802625 C25.4161622,34.8571956 27.4039885,34.4441248 28.4576033,34.1475854 C28.4576033,34.1475854 33.0083022,41.9911941 39.0204976,44.2583466 C39.1962592,43.9144367 39.3548268,43.5676846 39.4742301,43.2171428 C39.4742301,43.2171428 28.5684095,33.6606166 28.3439313,30.0547736 C28.3439313,30.0547736 23.7024859,30.8553351 23.7349636,33.023957" id="Fill-32" fill="#CC6633"></path>
                                            <path d="M27.5184283,32.1302099 C26.7071447,34.1472586 29.6983883,34.0175844 29.6983883,34.0175844 C29.6983883,34.0175844 29.9230963,33.808402 30.296637,33.4487218 C29.8229018,31.549989 30.3773762,29.1779927 31.0865198,27.2262544 C29.437688,29.3710842 27.888078,31.2111324 27.5184283,32.1302099" id="Fill-34" fill="#CC6633"></path>
                                            <path d="M25.1495471,38.6546718 C24.6299443,42.8179159 30.9733094,49.8725664 31.160864,50.1993382 C31.160864,50.1993382 31.7063034,50.8252539 32.2431307,51.4311631 C33.2842502,50.7071206 35.0038198,49.4133711 36.5511454,47.8128562 C35.2325216,46.0189457 32.2584413,41.2031107 31.1101477,39.1529273 C29.6900913,36.6206841 25.66915,34.4914277 25.1495471,38.6546718" id="Fill-36" fill="#FCEE21"></path>
                                            <polygon id="Fill-38" fill="#CC6633" points="24.0394459 38.8778855 23.1966049 34.9336604 23.9440986 34.5550589 24.4324806 38.3709845"></polygon>
                                            <path d="M45.5227001,24.2534294 C45.5227001,24.2534294 33.6383976,30.3635153 37.2720001,33.7500802 C40.9056026,37.1385476 48.3220275,32.8853646 48.3220275,32.8853646 L45.5227001,24.2534294 Z" id="Fill-40" fill="#FAA61A"></path>
                                            <path d="M49.7342031,17.9749981 C49.7342031,17.9749981 44.7235745,19.9613863 43.6300654,20.7306201 C42.5394543,21.4969766 42.5201344,22.8033313 42.7828857,23.9811607 C43.043705,25.158031 42.0071897,25.4678346 41.9984958,27.3774913 C41.9888358,29.2852296 45.1582733,33.2675974 46.2575784,33.0997471 C47.3617135,32.9357334 49.8027889,31.0222402 50.0558803,30.6433781 C50.3138016,30.2693118 51.8854794,22.5184654 51.8854794,22.5184654 L49.7342031,17.9749981 Z" id="Fill-42" fill="#005499"></path>
                                            <g id="Group-46" transform="translate(41.288117, 17.357900)">
                                                <mask id="mask-5" fill="white">
                                                    <use xlink:href="#path-4"></use>
                                                </mask>
                                                <g id="Clip-45"></g>
                                                <path d="M12.9423243,6.14898066 C12.9423243,6.14898066 13.5278425,4.05000819 12.3909693,3.41983614 C11.2531471,2.7867822 9.84771363,3.84347315 7.98677172,2.38331839 C6.12677878,0.92412426 3.10618821,-0.635935822 2.41058881,0.34390487 C1.71878531,1.32374556 0.315249823,2.38139713 2.32707892,3.89726832 C4.33511211,5.41602139 5.82690237,6.00968958 5.82690237,6.00968958 C5.82690237,6.00968958 1.296491,4.38430678 0.692942267,5.58221006 C0.0931894421,6.77819208 0.11027101,7.68214315 1.04026748,8.41029927 C1.96931497,9.14037665 4.97377295,9.79840692 4.97377295,9.79840692 C4.97377295,9.79840692 0.699585099,9.35267547 0.545850989,10.7273343 C0.392116879,12.1019932 4.58753972,13.2316919 4.58753972,13.2316919 C4.58753972,13.2316919 -0.506563383,13.1788573 0.494606285,14.6534215 C1.49577595,16.1289463 3.70024718,16.6476855 5.41599576,16.6131029 C7.13554025,16.5794809 9.61521451,17.7456834 10.2367938,16.0203953 C10.860271,14.2941466 9.92742761,13.5621479 10.8469853,11.9559777 C11.7674921,10.3469256 12.9423243,6.14898066 12.9423243,6.14898066" id="Fill-44" fill="#0082C6" mask="url(#mask-5)"></path>
                                            </g>
                                            <path d="M48.5682533,33.9405547 C48.5682533,33.9405547 51.9893464,34.3537433 51.6317409,33.6046531 C51.2695507,32.8525904 50.327856,32.2015953 50.327856,32.2015953 L48.5682533,33.9405547 Z" id="Fill-47" fill="#00A9E9"></path>
                                            <path d="M45.8002459,30.8048029 C45.8002459,30.8048029 41.6050929,29.6839808 41.7578682,28.3201234 C41.9115924,26.9562661 46.1855053,27.3984951 46.1855053,27.3984951 C46.1855053,27.3984951 43.1821895,26.7456354 42.2532018,26.0203416 C41.3223162,25.29886 41.3061847,24.4020118 41.9058989,23.2154273 C42.5084599,22.0269366 47.0395288,23.6395479 47.0395288,23.6395479 C47.0395288,23.6395479 45.5468856,23.0505445 43.5399305,21.5437251 C41.5282308,20.0397649 42.931676,18.9904239 43.623435,18.0182824 C44.1462871,17.2891762 45.9795908,17.9820653 47.6487322,18.9837524 C47.1477051,18.9904239 46.7510586,19.110512 46.5821518,19.4250284 C45.8913417,20.6935778 46.892447,22.6359547 47.7882227,22.9895473 C48.6821006,23.3393277 50.4575204,24.3991526 50.4575204,24.3991526 C50.4575204,24.3991526 46.5546333,23.5680669 45.7812676,24.4496658 C45.0060041,25.3303117 46.5432463,26.4120574 47.0395288,26.6074388 C47.5386581,26.8047263 50.3474463,28.1523814 50.3474463,28.1523814 C50.3474463,28.1523814 45.4102418,27.0296532 45.0933042,28.2133785 C44.7792134,29.3951976 48.7172104,31.068806 48.7172104,31.068806 C48.7172104,31.068806 45.8201731,31.2279703 45.8391514,32.4231326 C45.8552829,33.3142623 47.684791,34.0662424 48.6185233,34.3893365 C47.9372023,34.2825916 47.2359542,34.1491604 46.6286486,34.1596442 C44.9120615,34.1939551 42.708681,33.679292 41.7075757,32.2144081 C40.7064704,30.7523835 45.8002459,30.8048029 45.8002459,30.8048029" id="Fill-49" fill="#006699"></path>
                                            <path d="M53.6954858,24.1631949 C53.6954858,24.1631949 54.814545,23.0472789 54.0870589,22.1730811 C53.3634788,21.2969724 52.7707484,22.2571569 51.6858664,21.7221287 C50.5951255,21.1861451 49.2387789,21.3772266 50.540442,22.5905941 C51.8411286,23.8068279 52.4582712,23.0931385 52.084275,24.7316624 C51.7063728,26.3692309 49.8402976,24.4660591 50.2338237,25.9249664 C50.6244202,27.3819628 51.16442,26.8775077 51.0833712,28.036417 C51.0023224,29.1962817 49.8734983,29.710291 50.367603,31.2112362 C50.8626842,32.7074043 51.6292299,33.4812844 51.6292299,33.4812844 C51.6292299,33.4812844 50.7005866,31.5771572 51.4241667,29.9491428 C52.1438409,28.3239947 52.9474934,25.541848 52.9474934,25.541848 L53.6954858,24.1631949 Z" id="Fill-51" fill="#00A9E9"></path>
                                            <path d="M36.1987397,12.9818059 C39.1593116,21.5288078 34.5623298,30.8333805 25.9292559,33.7644353 C17.2952182,36.6954902 7.89598065,32.1433864 4.93540874,23.5963846 C1.97483684,15.0484286 6.57374606,5.74385593 15.2077837,2.81280104 C23.8408577,-0.118253845 33.2391315,4.43480407 36.1987397,12.9818059" id="Fill-53" fill="#FAA61A"></path>
                                            <path d="M19.1046054,6.60750962 C19.1046054,6.60750962 17.5836001,-0.494441405 10.5342301,0.175311251 C10.5342301,0.175311251 12.746903,0.979336047 14.1285795,3.12367018 C14.1285795,3.12367018 9.84422122,0.979336047 5.0058654,4.59744763 C5.0058654,4.59744763 8.60021475,3.2571383 10.3965601,4.73171977 C10.3965601,4.73171977 5.55820427,4.46317549 3.34719011,9.15385615 C3.34719011,9.15385615 11.6405666,4.46317549 19.1046054,6.60750962" id="Fill-15" fill="#FAA61A"></path>
                                            <path d="M18.3537625,16.8005638 C19.240918,19.3600132 18.3861961,21.9685557 16.446855,22.626592 C14.5084679,23.2846282 12.2171264,21.7429163 11.3309248,19.184411 C10.4437692,16.6249616 11.2975372,14.0173631 13.2359243,13.3583828 C15.1752654,12.7003465 17.4666069,14.2411143 18.3537625,16.8005638" id="Fill-55" fill="#FFFFFF"></path>
                                            <path d="M17.5416878,17.187186 C18.1511651,18.9151286 17.5021489,20.6955752 16.093215,21.1652981 C14.6842811,21.6350209 13.0477575,20.6158817 12.4382803,18.8888766 C11.828803,17.1618716 12.4778191,15.3795499 13.8867531,14.909827 C15.295687,14.4401041 16.9322106,15.4601809 17.5416878,17.187186" id="Fill-57" fill="#021A23"></path>
                                            <path d="M15.9989849,17.069279 C16.2555701,17.8142044 16.0272847,18.5675736 15.4886446,18.7505213 C14.9490611,18.9344072 14.3028816,18.4803217 14.0472397,17.734458 C13.7897112,16.9904707 14.0189399,16.2361633 14.5585234,16.0532156 C15.0971635,15.8693297 15.7433431,16.3243535 15.9989849,17.069279" id="Fill-59" fill="#FFFFFF"></path>
                                            <path d="M28.4333498,13.4227997 C29.3205955,15.9823342 28.4667408,18.5909635 26.5272026,19.2490217 C24.5886185,19.9061357 22.2970442,18.3653166 21.4107525,15.8057821 C20.5235069,13.2462475 21.3773616,10.6395064 23.3159457,9.98050416 C25.2554838,9.32244602 27.5461041,10.8632651 28.4333498,13.4227997" id="Fill-61" fill="#FFFFFF"></path>
                                            <path d="M27.621519,13.8093023 C28.2308923,15.5372449 27.5819869,17.3176915 26.1732931,17.7874144 C24.7636352,18.2571373 23.1273907,17.237998 22.5180174,15.510993 C21.9086441,13.7839879 22.5575495,12.0016662 23.9672074,11.5319433 C25.3759012,11.0622204 27.0121457,12.0822973 27.621519,13.8093023" id="Fill-63" fill="#021A23"></path>
                                            <path d="M26.0792069,13.6913941 C26.3356131,14.4363187 26.1056017,15.189687 25.5673372,15.3726345 C25.0290727,15.5565202 24.3833439,15.1024352 24.1269378,14.3575105 C23.8695889,13.6125859 24.0986577,12.8592176 24.6388075,12.6753319 C25.1761292,12.4914462 25.8228007,12.9464694 26.0792069,13.6913941" id="Fill-65" fill="#FFFFFF"></path>
                                            <path d="M9.13906775,24.6955992 C9.13906775,24.6955992 11.5092288,26.9528323 21.5828917,23.6879058 C33.2443139,19.9095356 32.2495731,16.0409528 32.2495731,16.0409528 C32.2495731,16.0409528 36.8033814,23.3452901 30.5795565,28.4288631 C25.7330648,32.3876585 21.8813139,32.237944 21.8813139,32.237944 C21.8813139,32.237944 14.4724084,34.2024662 9.13906775,24.6955992" id="Fill-67" fill="#510D3A"></path>
                                            <path d="M22.2652109,25.7544049 C30.9608665,22.8105136 32.2925647,19.6611908 31.9002149,17.4400795 C31.1517909,18.8809277 28.7938736,21.2179476 21.5702458,23.5201007 C15.5542153,25.4377764 12.2932251,25.4142177 10.6417283,25.086281 C11.793003,26.4489144 14.8115191,28.2770671 22.2652109,25.7544049" id="Fill-69" fill="#FFFFFF"></path>
                                            <path d="M27.6422828,26.1670666 C24.851031,26.3977475 24.2325474,27.572298 24.2097461,28.5305851 C23.6112136,27.7885614 22.4093983,27.2455 20.0637207,28.7958682 C18.6006412,29.7647282 17.8130484,30.8527734 17.3921755,31.8495073 C20.0399694,32.6722694 22.0246273,32.1445867 22.0246273,32.1445867 C22.0246273,32.1445867 25.8495353,32.2935682 30.6643971,28.3287393 C31.1460733,27.932737 31.5555455,27.521356 31.913715,27.1022856 C30.956063,26.4784858 29.5841884,26.0075122 27.6422828,26.1670666" id="Fill-71" fill="#ED125F"></path>
                                        </g>
                                    </g>
                                    <g id="Group-41" transform="translate(0.000000, 10.000000)">
                                        <g id="Group-40">
                                            <polygon id="Fill-1" fill="#383638" points="4.08434286 4.1490471 5.17335873 13.2145543 36.9450413 9.40868478 35.8562794 0.343177536"></polygon>
                                            <g id="Group-39" transform="translate(0.000000, 0.217355)">
                                                <g id="Group-4">
                                                    <mask id="mask-7" fill="white">
                                                        <use xlink:href="#path-6"></use>
                                                    </mask>
                                                    <g id="Clip-3"></g>
                                                    <path d="M11.4744889,69.7171594 L44.2551873,65.7905652 C46.4837587,65.5229928 48.0730921,63.5026304 47.8061714,61.2778478 L40.8791873,3.61128986 C40.6122667,1.38625362 38.5889016,-0.201427536 36.3608381,0.0656376812 L3.58013968,3.99223188 C1.35182222,4.2592971 -0.237765079,6.2794058 0.0294095238,8.50444203 L6.95588571,66.1712536 C7.22331429,68.3960362 9.2464254,69.983971 11.4744889,69.7171594" id="Fill-2" fill="#484F53" mask="url(#mask-7)"></path>
                                                </g>
                                                <polygon id="Fill-5" fill="#FEFEFE" points="42.6618667 56.7850906 10.8899302 60.5907065 5.17310476 12.9973007 36.9450413 9.19143116"></polygon>
                                                <path d="M28.5939048,6.74330797 C29.2204444,6.66848913 29.6679365,6.09986594 29.5925079,5.47417754 C29.5175873,4.84823551 28.9484444,4.40211232 28.3221587,4.47693116 C27.6951111,4.55200362 27.248127,5.12037319 27.3230476,5.74606159 C27.3984762,6.37200362 27.9668571,6.81838043 28.5939048,6.74330797" id="Fill-7" fill="#808184"></path>
                                                <path d="M23.6569143,5.03581522 L22.6478984,5.15679348 L15.8397714,5.97219203 L12.5615492,6.36480072 C11.8654222,6.44824275 11.3618032,7.02320652 11.4369778,7.64914855 C11.5121524,8.27483696 12.1376762,8.71461957 12.8340571,8.63117754 L16.1120254,8.23856884 L22.9204063,7.42317029 L23.9291683,7.30219203 C24.6252952,7.21875 25.1291683,6.64378623 25.0537397,6.01809783 C24.978819,5.39190217 24.3532952,4.95237319 23.6569143,5.03581522" id="Fill-9" fill="#808184"></path>
                                                <path d="M28.9832889,5.54727174 C28.9484952,5.25738043 28.6851302,5.05093116 28.3950984,5.08567754 C28.1048127,5.12017029 27.8975746,5.38343116 27.9326222,5.67306884 C27.9674159,5.96296014 28.230781,6.16940942 28.5210667,6.13466304 C28.8110984,6.09991667 29.0180825,5.83690942 28.9832889,5.54727174" id="Fill-11" fill="#808184"></path>
                                                <polygon id="Fill-13" fill="#6C6E70" points="29.862273 65.2150942 25.3230984 65.7593696 24.7788444 61.2266159 29.3175111 60.6825942"></polygon>
                                                <polygon id="Fill-15" fill="#27A9E0" points="37.7620825 15.9905109 5.98989206 19.7963804 5.17313016 12.99725 36.9450667 9.19138043"></polygon>
                                                <polygon id="Fill-17" fill="#FEFEFE" points="28.4118603 14.8115688 7.98697143 17.2580181 7.71471746 14.9918949 28.1401143 12.5449384"></polygon>
                                                <polygon id="Fill-19" fill="#D6E7F6" points="37.6702984 34.3931812 10.4370286 37.6552826 8.53125079 21.7908986 35.7650286 18.5285435"></polygon>
                                                <polygon id="Fill-21" fill="#D6E7F6" points="18.3343746 45.9052899 11.5257397 46.7211957 10.7094857 39.921558 17.5176127 39.1061594"></polygon>
                                                <polygon id="Fill-23" fill="#D6E7F6" points="27.4118603 44.8179819 20.6037333 45.6336341 20.3317333 43.3670036 27.1401143 42.5516051"></polygon>
                                                <polygon id="Fill-25" fill="#D6E7F6" points="36.4897524 43.7306739 29.6811175 44.5465797 29.4088635 42.2796957 36.2174984 41.4640435"></polygon>
                                                <polygon id="Fill-27" fill="#D6E7F6" points="31.4064254 39.7418152 20.0593778 41.1007283 19.7873778 38.8346051 31.1346794 37.4749312"></polygon>
                                                <polygon id="Fill-29" fill="#D6E7F6" points="19.4231619 54.9711014 12.6150349 55.7865 11.798273 48.9873696 18.6064 48.1717174"></polygon>
                                                <polygon id="Fill-31" fill="#D6E7F6" points="30.7705143 53.6113261 21.692927 54.6988623 21.420673 52.4329928 30.4982603 51.3452029"></polygon>
                                                <polygon id="Fill-33" fill="#D6E7F6" points="34.764546 48.5349058 21.1480381 50.1664638 20.8760381 47.900087 34.4928 46.2687826"></polygon>
                                                <polygon id="Fill-35" fill="#E9F1FA" points="35.1291429 32.3986377 12.4342857 35.1172246 11.0732698 23.7855942 33.768127 21.0667536"></polygon>
                                                <polygon id="Fill-37" fill="#B1D5F0" points="34.9485714 11.7295652 30.4093968 12.2733333 30.6811429 14.5397101 35.2203175 13.995942"></polygon>
                                            </g>
                                        </g>
                                    </g>
                                </g>
                            </g>
                        </g>
                    </g>
                </g>
            </g>
        </g>
    </g>
</svg>