<?xml version="1.0" encoding="UTF-8"?>
<svg width="16px" height="18px" viewBox="0 0 16 18" version="1.1" xmlns="http://www.w3.org/2000/svg" xmlns:xlink="http://www.w3.org/1999/xlink">
    <!-- Generator: Sketch 50.2 (55047) - http://www.bohemiancoding.com/sketch -->
    <title>forum</title>
    <desc>Created with Sketch.</desc>
    <defs></defs>
    <g id="00-CHANNEL" stroke="none" stroke-width="1" fill="none" fill-rule="evenodd">
        <g id="0-menu-copy" transform="translate(-14.000000, -87.000000)" fill="#FDBA4D">
            <path d="M16.8234364,87 L27.1765636,87 C28.7293647,87 30,88.2461941 30,89.7693203 L30,99.9231068 C30,101.446233 28.7293647,102.692427 27.1765636,102.692427 L24.3529295,102.692427 L24.3529295,105 L20.5880841,102.692427 L16.8234364,102.692427 C15.2706353,102.692427 14,101.446233 14,99.9231068 L14,89.7693203 C14,88.2461941 15.2706353,87 16.8234364,87 Z M27.2799462,87.7826087 L16.7200538,87.7826087 C15.6640242,87.7826087 14.8,88.6190547 14.8,89.6411823 L14.8,98.4701392 C14.8,99.4924621 15.6640242,100.328908 16.7200538,100.328908 L20.5599597,100.328908 L24.4000672,102.652174 L24.4000672,100.328908 L27.2799462,100.328908 C28.3359758,100.328908 29.2,99.4924621 29.2,98.4701392 L29.2,89.6411823 C29.2,88.6190547 28.3359758,87.7826087 27.2799462,87.7826087 Z M23.730154,94.2325853 C23.730154,94.2327877 23.7303557,94.23299 23.7305574,94.2333947 L26.7933444,97.173913 L24.360016,97.173913 C24.283174,97.173913 24.2135927,97.1431541 24.1629698,97.0929684 L22.072304,94.9778835 C21.9466543,94.8605137 21.7784491,94.7886753 21.5935041,94.7886753 C21.5902771,94.7886753 20.973928,94.7894848 20.973928,94.7894848 C20.8968844,94.7894848 20.8351688,94.8503957 20.8313368,94.9258766 L20.8307317,94.9260789 L20.8309334,96.8962727 C20.8289166,97.0498653 20.7042753,97.1735083 20.5505914,97.1735083 C20.5485745,97.1735083 20.5469611,97.1735083 20.5451459,97.173913 L18.9683733,97.173913 L18.9683733,94.7886753 L18.9683733,94.7880682 L17.9016618,94.7880682 C17.5144268,94.7880682 17.2,94.4742052 17.2,94.0872896 L17.2,94.0836471 L17.2,93.3031379 L18.9683733,93.3031379 L18.9683733,90.9164836 L20.5673312,90.9164836 C20.7105275,90.9247805 20.8246812,91.0407337 20.8307317,91.1846129 L20.8309334,93.1574374 L20.8315385,93.1576398 L20.8315385,93.1592587 C20.8315385,93.2381798 20.895876,93.3021261 20.9749364,93.3021261 L21.6126641,93.3021261 C21.7816761,93.2976741 21.9357634,93.2337278 22.0547575,93.1299162 C22.0547575,93.1297139 22.0549591,93.1297139 22.0551608,93.1295115 L24.1565159,90.9998567 C24.1567176,90.9996543 24.1573226,90.9994519 24.1575243,90.9990472 C24.2085506,90.9460284 24.2803504,90.9130435 24.360016,90.9130435 L26.8,90.9130435 L23.7289439,93.8282666 C23.6763041,93.8790594 23.6432278,93.9508978 23.6432278,94.0296165 C23.6432278,94.1095494 23.6767075,94.1815901 23.730154,94.2325853 Z" id="forum"></path>
        </g>
    </g>
</svg>