<?xml version="1.0" encoding="UTF-8"?>
<svg width="28px" height="28px" viewBox="0 0 28 28" version="1.1" xmlns="http://www.w3.org/2000/svg" xmlns:xlink="http://www.w3.org/1999/xlink">
    <!-- Generator: Sketch 50.2 (55047) - http://www.bohemiancoding.com/sketch -->
    <title>notif_group</title>
    <desc>Created with Sketch.</desc>
    <defs></defs>
    <g id="Symbols" stroke="none" stroke-width="1" fill="none" fill-rule="evenodd">
        <g id="notif---web-copy" transform="translate(-17.000000, -821.000000)">
            <g id="notif_group" transform="translate(17.000000, 821.000000)">
                <path d="M26.7224061,12.1099464 L23.5650575,12.1099464 L23.5650575,7.03422222 C23.5650575,5.63797701 22.4231724,4.49609195 21.0269272,4.49609195 L16.5787893,4.49609195 L16.5860843,4.49340996 L11.5098238,1.32104215 L11.5098238,4.49609195 L7.06790805,4.49609195 C5.67219923,4.49609195 4.53042146,5.63797701 4.53042146,7.03422222 L4.53042146,12.1171341 L4.52763218,12.1099464 L1.35537165,17.1860996 L4.53042146,17.1860996 L4.53042146,19.0894559 C4.53042146,20.4855939 5.67219923,21.6274789 7.06790805,21.6274789 L12.1440613,21.6274789 L17.2203218,24.7998467 L17.2203218,21.6274789 L21.0269272,21.6274789 C22.4231724,21.6274789 23.5650575,20.4855939 23.5650575,19.0894559 L23.5650575,17.1621762 L26.7224061,12.1099464 Z" id="Fill-13" fill="#FFFFFF"></path>
                <path d="M26.7224061,12.1099464 L23.5650575,17.1621762 L23.5650575,19.0894559 C23.5650575,20.4855939 22.4231724,21.6274789 21.0269272,21.6274789 L17.2203218,21.6274789 L17.2203218,24.7998467 L17.2203218,24.8003831 L21.0269272,24.8003831 C23.1211341,24.8003831 24.834069,23.0868046 24.834069,20.9932414 L24.834069,17.153272 L27.9860536,12.1099464 L26.7224061,12.1099464 Z" id="Fill-15" fill="#FAA61C"></path>
                <path d="M4.53038927,12.1171663 L4.53038927,7.03425441 C4.53038927,5.6380092 5.67227433,4.49612414 7.06787586,4.49612414 L11.5098989,4.49612414 L11.5098989,3.22711264 L7.06787586,3.22711264 C4.9745272,3.22711264 3.26137778,4.94015479 3.26137778,7.03425441 L3.26137778,12.114377 L0.091691954,17.1861318 L1.35533946,17.1861318 L4.52770728,12.1099785 L4.53038927,12.1171663 Z" id="Fill-17" fill="#FAA61C"></path>
                <path d="M21.0269487,3.22710192 L16.5817073,3.22710192 L11.5098452,0.0575233716 L11.5098452,1.3210636 L16.5859985,4.49343142 L16.5788107,4.49611341 L21.0269487,4.49611341 C22.4231939,4.49611341 23.5650789,5.63799847 23.5650789,7.03424368 L23.5650789,12.1099678 L24.8340904,12.1099678 L24.8340904,7.03424368 C24.8340904,4.94014406 23.1211556,3.22710192 21.0269487,3.22710192" id="Fill-19" fill="#FAA61C"></path>
                <path d="M7.06790805,21.6275111 C5.67219923,21.6275111 4.53042146,20.4856261 4.53042146,19.0893808 L4.53042146,17.1861318 L3.26140996,17.1861318 L3.26140996,20.9932736 C3.26140996,23.0868368 4.97445211,24.8004153 7.06790805,24.8004153 L12.1450268,24.8004153 L17.2203218,27.9722467 L17.2203218,24.8004153 L17.2203218,24.7998789 L12.1440613,21.6275111 L7.06790805,21.6275111 Z" id="Fill-21" fill="#FAA61C"></path>
                <path d="M16.3344061,13.311082 C16.2639234,13.2438176 16.2201533,13.1486605 16.2201533,13.0439556 C16.2201533,12.939787 16.263387,12.8451663 16.3333333,12.7784383 L20.3932261,8.93761073 L17.167433,8.93761073 C17.0621916,8.93761073 16.9670345,8.98084444 16.8997701,9.0513272 C16.8997701,9.0513272 16.8986973,9.0513272 16.8981609,9.05197088 L14.1206897,11.857764 L14.120046,11.8583004 C13.9625594,11.995082 13.7588352,12.0795111 13.5354789,12.0853042 L12.6929042,12.0853042 C12.5881992,12.0853042 12.5032337,12.0009824 12.5032337,11.8972429 L12.5032337,11.8945609 L12.5021609,11.8945609 L12.5021609,9.29506667 C12.4941149,9.10593257 12.3429579,8.953059 12.1537165,8.94179464 L10.0404138,8.94179464 L10.0404138,12.086377 L7.70278927,12.086377 L7.70278927,13.1144383 L7.70278927,13.1192659 C7.70278927,13.629059 8.1183908,14.0426222 8.63043678,14.0426222 L10.0404138,14.0426222 L10.0404138,14.0431586 L10.0404138,17.1861318 L12.1244291,17.1861318 C12.1264674,17.1855954 12.1291494,17.1855954 12.1318314,17.1855954 C12.3349119,17.1855954 12.5000153,17.0226375 12.5021609,16.8200935 L12.5021609,14.2248904 L12.50259,14.224354 C12.5080613,14.1249057 12.5898084,14.0447678 12.691295,14.0447678 C12.691295,14.0447678 13.5061916,14.0431586 13.5104828,14.0431586 C13.7546513,14.0431586 13.9769349,14.1377793 14.1436475,14.2926912 L16.9067433,17.0792812 C16.9740077,17.1455801 17.0659464,17.1861318 17.167433,17.1861318 L20.3841073,17.1861318 L16.3354789,13.3116184 L16.3344061,13.311082" id="Fill-23" fill="#0D80C2"></path>
            </g>
        </g>
    </g>
</svg>