<?xml version="1.0" encoding="UTF-8"?>
<svg width="16px" height="16px" viewBox="0 0 16 16" version="1.1" xmlns="http://www.w3.org/2000/svg" xmlns:xlink="http://www.w3.org/1999/xlink">
    <!-- Generator: Sketch 50.2 (55047) - http://www.bohemiancoding.com/sketch -->
    <title>night podcast image off</title>
    <desc>Created with Sketch.</desc>
    <defs></defs>
    <g id="00-CHANNEL" stroke="none" stroke-width="1" fill="none" fill-rule="evenodd">
        <g id="13-Home-Landing-video-image-off-Copy" transform="translate(-12.000000, -432.000000)" fill="#FDBA4D">
            <g id="night-podcast-image-off" transform="translate(12.000000, 432.000000)">
                <path d="M10.7489915,5.21877169 C10.372337,4.84708571 9.92691575,4.5720381 9.41194628,4.39323758 C8.8969768,4.21482831 8.33238584,4.12562368 7.7185641,4.12562368 C7.10435165,4.12562368 6.53976068,4.21482831 6.02518193,4.39323758 C5.51021245,4.5720381 5.06440049,4.84708571 4.68813675,5.21877169 C4.3114823,5.59045766 4.01726984,6.06934569 3.80432723,6.65426203 C3.69062759,6.96569575 3.60974847,7.31390682 3.55700122,7.69224402 L6.33228816,7.69224402 C6.59719658,7.69224402 6.8120928,7.90782188 6.8120928,8.17347954 C6.8120928,8.43874595 6.59719658,8.65393256 6.33228816,8.65393256 L3.48862515,8.65393256 C3.48823443,8.6922749 3.48471795,8.72787851 3.48471795,8.76622085 L3.48471795,9.61522986 L6.33228816,9.61522986 C6.59719658,9.61522986 6.8120928,9.83080772 6.8120928,10.0964654 C6.8120928,10.362123 6.59719658,10.5769184 6.33228816,10.5769184 L3.48471795,10.5769184 L3.48471795,10.7744988 C3.48471795,11.0432865 3.50073748,11.294468 3.52418071,11.5386069 L6.33228816,11.5386069 C6.59719658,11.5386069 6.8120928,11.7537936 6.8120928,12.0194512 C6.8120928,12.2851089 6.59719658,12.4999042 6.33228816,12.4999042 L3.68984615,12.4999042 C3.72462027,12.63019 3.76056654,12.7585194 3.80432723,12.8794152 C4.01726984,13.469809 4.3114823,13.950262 4.68813675,14.3223393 C5.06440049,14.6944165 5.51021245,14.9694641 6.02518193,15.1478734 C6.53976068,15.3262826 7.10435165,15.4154873 7.7185641,15.4154873 C8.33238584,15.4154873 8.8969768,15.3262826 9.41194628,15.1478734 C9.92691575,14.9694641 10.372337,14.6944165 10.7489915,14.3223393 C11.1252552,13.950262 11.4198584,13.469809 11.632801,12.8794152 C11.8457436,12.2894126 11.9520195,11.5879042 11.9520195,10.7744988 L11.9520195,8.76622085 C11.9520195,7.94381673 11.8457436,7.23956963 11.632801,6.65426203 C11.4198584,6.06934569 11.1252552,5.59045766 10.7489915,5.21877169" id="Fill-1"></path>
                <path d="M13.8036044,6.71193205 C13.759453,5.91378533 13.6250452,5.18528082 13.3937387,4.54793719 C13.0842882,3.69931943 12.6341783,2.97903115 12.0547399,2.407026 C11.4745201,1.83345586 10.7821636,1.40464762 9.99681563,1.13194749 C9.2872674,0.886243501 8.51481319,0.761826512 7.69898901,0.761826512 C6.88355556,0.761826512 6.11071062,0.886243501 5.40194383,1.13194749 C4.61698657,1.40425637 3.92423932,1.83306461 3.34362882,2.407026 C2.7645812,2.97903115 2.31408059,3.69971068 2.00502076,4.54871969 C1.91320147,4.79911866 1.83505739,5.07142754 1.76746276,5.37973127 L1.64008791,6.17513925 L1.6322735,6.17670425 L1.53654701,6.70528082 C1.53654701,6.70528082 -0.000156288157,6.99363089 -0.000156288157,8.96434903 C-0.000156288157,10.9350672 1.39198046,11.1752937 1.39198046,11.1752937 L1.68033211,11.6080144 L2.35198046,11.6080144 L2.35198046,6.58399382 L2.52155311,5.52410193 C2.57742613,5.27057297 2.64658364,5.03112896 2.72589988,4.81202986 C2.99627839,4.07061416 3.38465446,3.44579048 3.88243223,2.9543825 C4.38177289,2.46180077 4.97723077,2.09285354 5.65356777,1.858887 C6.28106471,1.6413529 6.96951404,1.53102085 7.69898901,1.53102085 C8.4288547,1.53102085 9.11730403,1.6413529 9.74558242,1.858887 C10.4215287,2.09324479 11.0173773,2.46180077 11.5159365,2.9543825 C12.0129328,3.44579048 12.4020904,4.07061416 12.6720781,4.81163861 C12.8072674,5.18293333 12.9045568,5.5933529 12.9682442,6.03389858 L12.9600391,6.03233359 L12.9600391,11.6080144 L13.6324689,11.6080144 L13.9200391,11.1752937 C13.9200391,11.1752937 15.3121758,10.9350672 15.3121758,8.96434903 C15.3121758,7.14308777 14.0028718,6.75966435 13.8036044,6.71193205" id="Fill-3"></path>
            </g>
        </g>
    </g>
</svg>