<?xml version="1.0" encoding="UTF-8"?>
<svg width="30px" height="30px" viewBox="0 0 30 30" version="1.1" xmlns="http://www.w3.org/2000/svg" xmlns:xlink="http://www.w3.org/1999/xlink">
    <!-- Generator: Sketch 50.2 (55047) - http://www.bohemiancoding.com/sketch -->
    <title>notif_PM</title>
    <desc>Created with Sketch.</desc>
    <defs>
        <path d="M11.048391,3.58488133 L11.0553487,3.59544218 L11.6094829,3.30185048 L11.5940764,3.27808857 L11.048391,3.58488133 Z M14.2434837,1.90676189 L11.6094829,3.30185048 L14.0208361,6.95696148 C13.9015605,7.55523376 13.4746536,7.26375424 13.4746536,7.26375424 L11.0553487,3.59544218 L10.0946839,4.10394722 C9.90930987,4.19899489 9.84519928,4.19899489 9.69660188,4.10394722 L6.54623751,1.90676189 C6.2967529,1.74782106 6.11585171,1.84445286 6.32358989,1.54663682 C6.46274465,1.34756476 6.38869444,1.22347474 6.60189941,1.22347474 C6.69632585,1.22347474 6.78578249,1.24829275 6.86032968,1.29581658 L10.0613861,3.33828542 L14.0546308,1.29581658 C14.1470693,1.24829275 14.2459686,1.22347474 14.340892,1.22347474 C14.554097,1.22347474 14.5784491,1.34756476 14.6405717,1.54663682 C14.7330102,1.84445286 14.5550909,1.74782106 14.2434837,1.90676189 L14.2434837,1.90676189 Z M5.57811796,7.33609608 C5.57811796,7.33609608 5.04734195,7.63338407 5.13729556,7.02349485 L8.6603959,3.43386114 L9.1012183,3.74593432 L5.57811796,7.33609608 Z M15.5480595,0 L5.86885201,0 C5.56271154,0 5.2635288,0.263493266 5.20041218,0.588239475 L5.178545,0.702824723 L1.51827783,0.702824723 C1.29761814,0.702824723 1.11870488,0.89186398 1.11870488,1.1263149 C1.11870488,1.36023778 1.29761814,1.54980508 1.51827783,1.54980508 L5.0140442,1.54980508 L4.80928791,2.60589031 L2.63698271,2.60589031 C2.41582603,2.60589031 2.23740975,2.79545761 2.23740975,3.02938049 C2.23740975,3.26330337 2.41582603,3.45287067 2.63698271,3.45287067 L4.64528408,3.45287067 L4.43108515,4.55859191 L0.399572954,4.55859191 C0.178416282,4.55859191 0,4.74815921 0,4.98208209 C0,5.21600497 0.178416282,5.40557227 0.399572954,5.40557227 L4.26658434,5.40557227 L4.05984013,6.47221835 C4.04294277,6.46957814 4.02803333,6.4616575 4.010142,6.4616575 L2.67872913,6.4616575 C2.45757246,6.4616575 2.2786592,6.6512248 2.2786592,6.88514768 C2.2786592,7.11907056 2.45757246,7.3091659 2.67872913,7.3091659 L3.89782423,7.3091659 L3.82476798,7.6846042 C3.76214834,8.00935041 3.95944991,8.27231564 4.2650934,8.27231564 L13.9447979,8.27231564 C14.2509384,8.27231564 14.5496241,8.00935041 14.6127408,7.6846042 L15.988385,0.588239475 C16.0510046,0.263493266 15.8542,0 15.5480595,0 L15.5480595,0 Z" id="path-1"></path>
    </defs>
    <g id="Symbols" stroke="none" stroke-width="1" fill="none" fill-rule="evenodd">
        <g id="notif---web-copy" transform="translate(-13.000000, -54.000000)">
            <g id="notif_PM" transform="translate(13.000000, 54.000000)">
                <circle id="Oval-3-Copy-2" fill="#1998ED" fill-rule="nonzero" cx="15" cy="15" r="15"></circle>
                <g id="Group-Copy" transform="translate(7.000000, 7.000000)">
                    <g id="icon/icons/pm">
                        <g id="color/grey-b3" transform="translate(0.000000, 4.250000)">
                            <mask id="mask-2" fill="white">
                                <use xlink:href="#path-1"></use>
                            </mask>
                            <use id="Mask" fill="#1998ED" xlink:href="#path-1"></use>
                            <g id="color/white" mask="url(#mask-2)" fill="#FFFFFF">
                                <g transform="translate(-4.000000, -8.500000)" id="Rectangle-3">
                                    <rect x="0" y="0" width="24" height="26"></rect>
                                </g>
                            </g>
                        </g>
                    </g>
                </g>
            </g>
        </g>
    </g>
</svg>