<?xml version="1.0" encoding="UTF-8"?>
<svg width="16px" height="18px" viewBox="0 0 16 18" version="1.1" xmlns="http://www.w3.org/2000/svg" xmlns:xlink="http://www.w3.org/1999/xlink">
    <!-- Generator: Sketch 50.2 (55047) - http://www.bohemiancoding.com/sketch -->
    <title>Jual Beli</title>
    <desc>Created with Sketch.</desc>
    <defs></defs>
    <g id="00-CHANNEL" stroke="none" stroke-width="1" fill="none" fill-rule="evenodd">
        <g id="0-menu" transform="translate(-14.000000, -123.000000)" fill="#1998ED">
            <path d="M25.1575498,127.263213 C24.7553827,125.902813 23.5091823,124.908441 22.0304928,124.894901 L21.9693218,124.894901 C20.4906323,124.908441 19.2444319,125.902813 18.8422648,127.263213 L14.9409665,127.263213 L14.9409665,138.157811 C14.9409665,139.200191 15.7878781,140.052666 16.8234558,140.052666 L27.1764515,140.052666 C28.2115657,140.052666 29.0589408,139.200191 29.0589408,138.157811 L29.0589408,129.158068 C29.0589408,128.115688 28.2115657,127.263213 27.1764515,127.263213 L25.1575498,127.263213 Z M24.662171,127.263213 L19.3376436,127.263213 C19.7260396,126.160492 20.7727015,125.368358 21.9999073,125.368358 C23.2271131,125.368358 24.273775,126.160492 24.662171,127.263213 Z M21.9693218,124.894901 C21.979506,124.894808 21.9897012,124.894761 21.9999073,124.894761 C22.0101133,124.894761 22.0203086,124.894808 22.0304928,124.894901 L24.4446207,124.894901 C23.9557746,124.045951 23.0430667,123.473597 21.9999073,123.473597 C20.9567478,123.473597 20.04404,124.045951 19.5551939,124.894901 L21.9693218,124.894901 Z M24.9770428,124.894901 L27.1764979,124.894901 C28.7294009,124.894901 30,126.173847 30,127.73695 L30,138.157951 C30,139.721055 28.7294009,141 27.1764979,141 L16.8235021,141 C15.2701356,141 14,139.721055 14,138.157951 L14,127.73695 C14,126.173847 15.2701356,124.894901 16.8235021,124.894901 L19.0227717,124.894901 C19.551432,123.774509 20.6859281,123 21.9999073,123 C23.3138864,123 24.4483826,123.774509 24.9770428,124.894901 Z M23.6961409,133.843926 L23.6966045,133.844392 L26.6995017,136.736834 L24.3135937,136.736834 C24.2384981,136.736834 24.1698922,136.706505 24.120292,136.657512 L22.0709236,134.576951 C21.9476185,134.461701 21.7825936,134.390778 21.6013443,134.390778 C21.5980994,134.390778 20.9940897,134.391712 20.9940897,134.391712 C20.9185305,134.391712 20.8578051,134.451436 20.8540967,134.525625 L20.8531695,134.526092 L20.8536331,136.463874 C20.8517789,136.614585 20.7294009,136.736367 20.5787461,136.736367 C20.5768919,136.736367 20.5755012,136.736367 20.5731835,136.736834 L19.0276973,136.736834 L19.0276973,134.390778 L19.0276973,134.390312 L17.9819214,134.390312 C17.6022714,134.390312 17.2940086,134.081424 17.2940086,133.701147 L17.2940086,133.697414 L17.2940086,132.92986 L19.0276973,132.92986 L19.0276973,130.582405 L20.595434,130.582405 C20.735427,130.590337 20.8476069,130.704654 20.8531695,130.846033 L20.8536331,132.786614 L20.8540967,132.786614 L20.8540967,132.788481 C20.8540967,132.865936 20.9171399,132.928927 20.9950168,132.928927 L21.62035,132.928927 C21.7858385,132.924261 21.9369568,132.861737 22.0533086,132.759552 C22.0533086,132.759085 22.0537722,132.759085 22.0537722,132.759085 L24.1142658,130.664526 C24.1142658,130.66406 24.115193,130.663593 24.115193,130.663593 C24.1652567,130.611334 24.2357168,130.579139 24.3135937,130.579139 L26.7059914,130.579139 L23.6952138,133.446384 C23.6432959,133.49631 23.6108471,133.566766 23.6108471,133.644222 C23.6108471,133.723077 23.6437594,133.793533 23.6961409,133.843926 Z" id="Jual-Beli"></path>
        </g>
    </g>
</svg>