<?xml version="1.0" encoding="UTF-8"?>
<svg width="18px" height="18px" viewBox="0 0 18 18" version="1.1" xmlns="http://www.w3.org/2000/svg" xmlns:xlink="http://www.w3.org/1999/xlink">
    <!-- Generator: Sketch 50.2 (55047) - http://www.bohemiancoding.com/sketch -->
    <title>feedback negatif</title>
    <desc>Created with Sketch.</desc>
    <defs>
        <polygon id="path-1" points="9.64285714e-05 0.0707142857 17.9289643 0.0707142857 17.9289643 18 9.64285714e-05 18"></polygon>
    </defs>
    <g id="WAP" stroke="none" stroke-width="1" fill="none" fill-rule="evenodd">
        <g id="PROFILE---JUAL-BELI-EXPAND" transform="translate(-25.000000, -860.000000)">
            <g id="Group-11" transform="translate(0.000000, 665.000000)">
                <g id="Group-10" transform="translate(10.000000, 13.000000)">
                    <g id="Group" transform="translate(0.000000, 55.000000)">
                        <g id="feedback-negatif" transform="translate(15.000000, 126.000000)">
                            <g id="Group-3" transform="translate(0.000000, 0.929382)">
                                <mask id="mask-2" fill="white">
                                    <use xlink:href="#path-1"></use>
                                </mask>
                                <g id="Clip-2"></g>
                                <path d="M17.9290607,9.03545357 C17.9290607,13.9860964 13.9157036,18.0000964 8.96441786,18.0000964 C4.01345357,18.0000964 9.64285714e-05,13.9860964 9.64285714e-05,9.03545357 C9.64285714e-05,4.08416786 4.01345357,0.0704892857 8.96441786,0.0704892857 C13.9157036,0.0704892857 17.9290607,4.08416786 17.9290607,9.03545357" id="Fill-1" fill="#D31920" mask="url(#mask-2)"></path>
                            </g>
                            <path d="M8.73051429,8.07927143 C8.73051429,9.73141429 7.60969286,11.0711286 6.22690714,11.0711286 C4.84476429,11.0711286 3.72362143,9.73141429 3.72362143,8.07927143 C3.72362143,6.42648571 4.84476429,5.08677143 6.22690714,5.08677143 C7.60969286,5.08677143 8.73051429,6.42648571 8.73051429,8.07927143" id="Fill-4" fill="#FFFFFF"></path>
                            <path d="M8.36717143,7.96754286 C8.36717143,9.17547143 7.54817143,10.1548643 6.5376,10.1548643 C5.52735,10.1548643 4.70802857,9.17547143 4.70802857,7.96754286 C4.70802857,6.75993571 5.52735,5.78086429 6.5376,5.78086429 C7.54817143,5.78086429 8.36717143,6.75993571 8.36717143,7.96754286" id="Fill-6" fill="#231F20"></path>
                            <path d="M9.564525,8.07927143 C9.564525,9.73141429 10.6853464,11.0711286 12.0678107,11.0711286 C13.450275,11.0711286 14.5710964,9.73141429 14.5710964,8.07927143 C14.5710964,6.42648571 13.450275,5.08677143 12.0678107,5.08677143 C10.6853464,5.08677143 9.564525,6.42648571 9.564525,8.07927143" id="Fill-8" fill="#FFFFFF"></path>
                            <path d="M9.92786786,7.96754286 C9.92786786,9.17547143 10.7468679,10.1548643 11.7571179,10.1548643 C12.7676893,10.1548643 13.5870107,9.17547143 13.5870107,7.96754286 C13.5870107,6.75993571 12.7676893,5.78086429 11.7571179,5.78086429 C10.7468679,5.78086429 9.92786786,6.75993571 9.92786786,7.96754286" id="Fill-10" fill="#231F20"></path>
                            <path d="M10.3263429,7.33394286 C10.3263429,7.86140714 10.6840929,8.28922857 11.1254143,8.28922857 C11.5670571,8.28922857 11.9251286,7.86140714 11.9251286,7.33394286 C11.9251286,6.80615714 11.5670571,6.37833571 11.1254143,6.37833571 C10.6840929,6.37833571 10.3263429,6.80615714 10.3263429,7.33394286" id="Fill-12" fill="#F1F2F2"></path>
                            <path d="M5.42802857,7.33394286 C5.42802857,7.86140714 5.78545714,8.28922857 6.2271,8.28922857 C6.66842143,8.28922857 7.02649286,7.86140714 7.02649286,7.33394286 C7.02649286,6.80615714 6.66842143,6.37833571 6.2271,6.37833571 C5.78545714,6.37833571 5.42802857,6.80615714 5.42802857,7.33394286" id="Fill-14" fill="#F1F2F2"></path>
                            <path d="M3.80253214,16.7791857 C4.15096071,15.7805071 5.01463929,15.0036143 5.97088929,14.5063643 C6.946425,14.0239 8.042175,13.80565 9.11060357,13.8117571 C10.1793536,13.8104714 11.2738179,14.0312929 12.2483893,14.5140786 C13.2027107,15.0139 14.0660679,15.7846857 14.4257464,16.7791857 C13.6951393,16.0460071 12.8208536,15.5892571 11.9237464,15.2864714 C11.0147464,15.00265 10.0703893,14.8792214 9.108675,14.8772929 C8.14663929,14.8718286 7.20131786,14.9939714 6.29360357,15.2768286 C5.39585357,15.5754357 4.523175,16.0363643 3.80253214,16.7791857" id="Fill-16" fill="#550000"></path>
                        </g>
                    </g>
                </g>
            </g>
        </g>
    </g>
</svg>