<?xml version="1.0" encoding="UTF-8"?>
<svg width="20px" height="19px" viewBox="0 0 20 19" version="1.1" xmlns="http://www.w3.org/2000/svg" xmlns:xlink="http://www.w3.org/1999/xlink">
    <!-- Generator: Sketch 50.2 (55047) - http://www.bohemiancoding.com/sketch -->
    <title>Combined Shape</title>
    <desc>Created with Sketch.</desc>
    <defs></defs>
    <g id="FINAL-CHANNEL" stroke="none" stroke-width="1" fill="none" fill-rule="evenodd">
        <g id="1-home-final" transform="translate(-505.000000, -1861.000000)" fill="#B3B3B3">
            <g id="tengah" transform="translate(490.000000, 464.000000)">
                <g id="progress-bar" transform="translate(0.000000, 1390.000000)">
                    <g id="Group-24">
                        <g id="Group" transform="translate(15.000000, 7.000000)">
                            <path d="M14.0398571,5.77889442 C14.531309,6.26082406 14.916101,6.88175235 15.1942332,7.64015742 C15.4723654,8.39906978 15.6111763,9.31219963 15.6111763,10.3785324 L15.6111763,12.9824743 C15.6111763,14.0371393 15.4723654,14.9467181 15.1942332,15.711718 C14.916101,16.4772252 14.531309,17.1001826 14.0398571,17.5826196 C13.5478949,18.0650565 12.9661138,18.4216844 12.2934932,18.6530107 C11.6208727,18.8843369 10.8834397,19 10.0817045,19 C9.27945905,19 8.54202603,18.8843369 7.86991579,18.6530107 C7.19729523,18.4216844 6.61500383,18.0650565 6.12355193,17.5826196 C5.63158969,17.1001826 5.24730799,16.4772252 4.96917581,15.711718 C4.91201837,15.554964 4.86506762,15.3885715 4.81964787,15.2196424 L8.27103853,15.2196424 C8.61704516,15.2196424 8.89772901,14.9411378 8.89772901,14.596685 C8.89772901,14.2522321 8.61704516,13.9732202 8.27103853,13.9732202 L4.60326614,13.9732202 C4.57264608,13.6566685 4.55172238,13.3309855 4.55172238,12.9824743 L4.55172238,12.7262907 L8.27103853,12.7262907 C8.61704516,12.7262907 8.89772901,12.4477861 8.89772901,12.1033332 C8.89772901,11.7588803 8.61704516,11.4793611 8.27103853,11.4793611 L4.55172238,11.4793611 L4.55172238,10.3785324 C4.55172238,10.3288175 4.55631539,10.2826537 4.55682572,10.2329389 L8.27103853,10.2329389 C8.61704516,10.2329389 8.89772901,9.95392699 8.89772901,9.60998142 C8.89772901,9.26552855 8.61704516,8.98600936 8.27103853,8.98600936 L4.64613422,8.98600936 C4.71502934,8.49545571 4.82066854,8.04396373 4.96917581,7.64015742 C5.24730799,6.88175235 5.63158969,6.26082406 6.12355193,5.77889442 C6.61500383,5.29696478 7.19729523,4.94033684 7.86991579,4.70850332 C8.54202603,4.47717709 9.27945905,4.36151398 10.0817045,4.36151398 C10.8834397,4.36151398 11.6208727,4.47717709 12.2934932,4.70850332 C12.9661138,4.94033684 13.5478949,5.29696478 14.0398571,5.77889442 Z M18.0295994,7.71493261 C18.2898699,7.77682252 20,8.27397099 20,10.6354262 C20,13.1906679 18.181679,13.5021467 18.181679,13.5021467 L17.806073,14.0632142 L16.9277877,14.0632142 L16.9277877,6.83376231 L16.9385047,6.83579149 C16.8553202,6.26457804 16.728247,5.73242626 16.5516713,5.25100391 C16.1990304,4.29018839 15.6907374,3.4800393 15.0415922,2.84287759 C14.3904057,2.20419399 13.612146,1.7263227 12.7292677,1.42245338 C11.9086502,1.14039772 11.0094412,0.99734071 10.0561368,0.99734071 C9.10334269,0.99734071 8.20413371,1.14039772 7.38453687,1.42245338 C6.50114825,1.72581541 5.72339883,2.20419399 5.07119163,2.84287759 C4.42102577,3.4800393 3.91375351,4.29018839 3.56060219,5.2515112 C3.45700434,5.53559604 3.36667517,5.84606019 3.29369737,6.17478694 L3.0722123,7.54904735 L3.0722123,14.0632142 L2.19494769,14.0632142 L1.818321,13.5021467 C1.818321,13.5021467 0,13.1906679 0,10.6354262 C0,8.08018455 2.00714468,7.70630861 2.00714468,7.70630861 L2.13217658,7.02095393 L2.14238326,7.01892475 L2.30875223,5.98759532 C2.39704006,5.58784736 2.49910692,5.23477049 2.61903547,4.9101021 C3.02270987,3.80927334 3.61112529,2.87483713 4.36744067,2.13317278 C5.1257974,1.38897195 6.03062006,0.832977337 7.0558816,0.479900464 C7.98162797,0.161319606 8.99106915,0 10.0561368,0 C11.1217147,0 12.1306456,0.161319606 13.0574126,0.479900464 C14.0831845,0.833484632 14.9874968,1.38947925 15.7453432,2.13317278 C16.5021689,2.87483713 17.090074,3.80876605 17.4942587,4.90908751 C17.7963766,5.73547002 17.9719316,6.68005212 18.0295994,7.71493261 Z" id="Combined-Shape"></path>
                        </g>
                    </g>
                </g>
            </g>
        </g>
    </g>
</svg>