<?xml version="1.0" encoding="UTF-8"?>
<svg width="16px" height="18px" viewBox="0 0 16 18" version="1.1" xmlns="http://www.w3.org/2000/svg" xmlns:xlink="http://www.w3.org/1999/xlink">
    <!-- Generator: Sketch 50.2 (55047) - http://www.bohemiancoding.com/sketch -->
    <title>forum</title>
    <desc>Created with Sketch.</desc>
    <defs></defs>
    <g id="00-CHANNEL" stroke="none" stroke-width="1" fill="none" fill-rule="evenodd">
        <g id="0-menu-copy-2" transform="translate(-14.000000, -87.000000)">
            <g id="forum" transform="translate(14.000000, 87.000000)">
                <path d="M10.3613593,15 L10.3613593,16.9043248 L8.9667643,15 L4,15 C1.790861,15 2.705415e-16,13.209139 0,11 L0,4 C-2.705415e-16,1.790861 1.790861,4.05812251e-16 4,0 L12,0 C14.209139,-4.05812251e-16 16,1.790861 16,4 L16,11 C16,13.209139 14.209139,15 12,15 L10.3613593,15 Z" id="Rectangle-3" fill="#FFFFFF"></path>
                <path d="M2.82343636,0 L13.1765636,0 C14.7293647,0 16,1.24619412 16,2.76932028 L16,12.9231068 C16,14.4462329 14.7293647,15.692427 13.1765636,15.692427 L10.3529295,15.692427 L10.3529295,18 L6.58808409,15.692427 L2.82343636,15.692427 C1.27063534,15.692427 0,14.4462329 0,12.9231068 L0,2.76932028 C0,1.24619412 1.27063534,0 2.82343636,0 Z M13.2799462,0.782608696 L2.72005378,0.782608696 C1.6640242,0.782608696 0.8,1.61905469 0.8,2.64118232 L0.8,11.4701392 C0.8,12.4924621 1.6640242,13.3289081 2.72005378,13.3289081 L6.55995966,13.3289081 L10.4000672,15.6521739 L10.4000672,13.3289081 L13.2799462,13.3289081 C14.3359758,13.3289081 15.2,12.4924621 15.2,11.4701392 L15.2,2.64118232 C15.2,1.61905469 14.3359758,0.782608696 13.2799462,0.782608696 Z" fill="#FAA71D"></path>
                <path d="M9.73015399,7.2325853 C9.67670749,7.18159014 9.6432278,7.10954937 9.6432278,7.02961648 C9.6432278,6.95089777 9.67630412,6.87905936 9.72894389,6.82826656 L12.8,3.91304348 L10.360016,3.91304348 C10.2803504,3.91304348 10.2085506,3.94602844 10.1575243,3.99904721 C10.1573226,3.99945194 10.1567176,3.9996543 10.1565159,3.99985666 L8.05516082,6.12951151 C8.05495914,6.12971387 8.05475745,6.12971387 8.05475745,6.12991623 C7.93576336,6.2337278 7.78167609,6.2976741 7.61266413,6.30212606 L6.97493645,6.30212606 C6.89587596,6.30212606 6.83153848,6.23817976 6.83153848,6.15925868 L6.83153848,6.15763979 L6.83093342,6.15743743 L6.83073174,4.18461292 C6.82468119,4.04073373 6.71052753,3.92478046 6.56733125,3.91648363 L4.96837329,3.91648363 L4.96837329,6.30313787 L3.2,6.30313787 L3.2,7.08364706 L3.2,7.08728958 C3.2,7.4742052 3.51442677,7.78806825 3.9016618,7.78806825 L4.96837329,7.78806825 L4.96837329,7.78867533 L4.96837329,10.173913 L6.54514591,10.173913 C6.54696107,10.1735083 6.54857455,10.1735083 6.5505914,10.1735083 C6.7042753,10.1735083 6.82891657,10.0498653 6.83093342,9.89627275 L6.83073174,7.92607895 L6.83133679,7.92587658 C6.83516881,7.85039566 6.89688439,7.78948478 6.97392802,7.78948478 C6.97392802,7.78948478 7.59027711,7.78867533 7.59350407,7.78867533 C7.77844913,7.78867533 7.94665434,7.86051375 8.07230404,7.97788355 L10.1629698,10.0929684 C10.2135927,10.1431541 10.283174,10.173913 10.360016,10.173913 L12.7933444,10.173913 L9.73055736,7.23339474 C9.73035568,7.23299002 9.73015399,7.23278766 9.73015399,7.2325853" id="Fill-6" fill="#0D80C2"></path>
            </g>
        </g>
    </g>
</svg>