<?xml version="1.0" encoding="UTF-8"?>
<svg width="24px" height="25px" viewBox="0 0 24 25" version="1.1" xmlns="http://www.w3.org/2000/svg" xmlns:xlink="http://www.w3.org/1999/xlink">
    <!-- Generator: Sketch 52.6 (67491) - http://www.bohemiancoding.com/sketch -->
    <title>embed_smule</title>
    <desc>Created with Sketch.</desc>
    <g id="Page-1" stroke="none" stroke-width="1" fill="none" fill-rule="evenodd">
        <g id="embed_smule">
            <path d="M14,20 C13.4477153,20 13,19.5522847 13,19 C13,18.4477153 13.4477153,18 14,18 C15.7928538,18 17.4932718,17.4098008 18.8823706,16.3379421 C20.8348603,14.8313587 22,12.5130228 22,10 C22,5.581722 18.418278,2 14,2 C10.7741733,2 7.90268549,3.92663274 6.64854504,6.83883911 C6.22255812,7.82801208 6,8.89751566 6,10 C6,10.5522847 5.55228475,11 5,11 C4.44771525,11 4,10.5522847 4,10 C4,8.62421459 4.27854641,7.28565916 4.81163996,6.04777671 C6.37899781,2.40825648 9.9683062,0 14,0 C19.5228475,0 24,4.4771525 24,10 C24,13.1396041 22.5423144,16.0400331 20.1041691,17.9213587 C18.3680463,19.2609887 16.2388871,20 14,20 Z M1.60503817,21.6933974 C1.7743701,21.475266 2.0884712,21.4357062 2.30660259,21.6050382 C2.52473399,21.7743701 2.56429377,22.0884712 2.39496183,22.3066026 C1.79095785,23.0846734 1.5,23.7806278 1.5,24.3919425 C1.5,24.6680848 1.27614237,24.8919425 1,24.8919425 C0.723857625,24.8919425 0.5,24.6680848 0.5,24.3919425 C0.5,23.5315847 0.875708814,22.6329108 1.60503817,21.6933974 Z M1.89030452,20 L8.06748023,12.375023 C8.40601536,13.3808189 8.84117895,14.1636206 9.37297101,14.7234282 C9.90476306,15.2832358 10.609094,15.6931938 11.4859637,15.9533022 L3.801233,21.9105475 L1.89030452,20 Z M9.70403935,7.43919985 C10.4263226,9.00553901 11.2861061,10.3482964 12.2850721,11.466542 C13.3412946,12.6488806 14.7801563,13.5848902 16.5928578,14.2753495 C15.641517,14.8530673 14.4922907,15.1183248 13.3041345,14.9513403 C10.5695848,14.5670244 8.66434375,12.0386843 9.04865966,9.3041345 C9.14429825,8.62363051 9.37271279,7.99448427 9.70403935,7.43919985 Z M10.4242889,6.50463532 C11.4977131,5.40829024 13.0598862,4.81873776 14.6958655,5.04865966 C17.4304152,5.43297556 19.3356563,7.96131574 18.9513403,10.6958655 C18.7900762,11.8433196 18.2513018,12.8447527 17.4781903,13.5922763 C15.5926786,12.9483374 14.1427745,12.0516776 13.1169091,10.9033207 C12.0612691,9.72163417 11.1629135,8.2558565 10.4242889,6.50463532 Z" id="Combined-Shape" fill="#B3B3B3"></path>
            <g id="Group-8" transform="translate(1.000000, 4.000000)"></g>
        </g>
    </g>
</svg>