<svg xmlns="http://www.w3.org/2000/svg" xmlns:xlink="http://www.w3.org/1999/xlink" viewBox="0 0 465.1 471.56"><defs><style>.cls-1,.cls-17,.cls-20{fill:none;}.cls-2{fill:#c8c7c6;}.cls-3{fill:#a4a4a5;}.cls-4{clip-path:url(#clip-path);}.cls-16,.cls-5{fill:#fff;}.cls-6{fill:#0e82c6;}.cls-7{fill:#02679a;}.cls-8{fill:#26a8e0;}.cls-9{fill:#081c24;}.cls-10{fill:#056594;}.cls-11{fill:#b3b3b3;}.cls-12{fill:#feda00;}.cls-13{fill:#383838;}.cls-14{fill:#014c69;}.cls-15{fill:#0b83c6;}.cls-16{opacity:0.2;}.cls-17{stroke:#00384c;stroke-linecap:round;stroke-linejoin:round;stroke-width:2px;}.cls-18{fill:#046799;}.cls-19{fill:#00384c;}.cls-20{stroke:#fff;stroke-miterlimit:10;}.cls-21{fill:#353635;}</style><clipPath id="clip-path" transform="translate(-7.37)"><path class="cls-1" d="M472.47,231c0,28.6-1.24,163.66-20.83,186.12-44,50.39-71.35,32-130,30.63a230.64,230.64,0,0,1-80.17,14.29c-127.6,0-231-103.44-231-231-29.7-91.44,5.19-177.48,93.42-210C128.7,11.87,213.34,0,241.43,0,369,0,472.47,103.44,472.47,231Z"/></clipPath></defs><title>Asset 1</title><g id="Layer_2" data-name="Layer 2"><g id="Layer_1-2" data-name="Layer 1"><circle class="cls-2" cx="234.06" cy="231.04" r="231.04"/><path class="cls-3" d="M11.63,255.82c12,116.29,110.32,207,229.8,207A230.82,230.82,0,0,0,433.29,360.51Z" transform="translate(-7.37)"/><g class="cls-4"><path class="cls-5" d="M460.45,315.46c-7.48-7.87-2.52-38.87-20.86-41.87,0,0-1.35-20.83-12.47-20.09-5.41.35-10.67,3-16.72,5.77l-.57.26-.21.09-1.23-2.35A161,161,0,0,0,156.69,63.16c-12.34-9-28.45-12.9-44.19-14.56-9.44-1-18.49.65-27.78,2.06-.86.14-1.69.27-2.51.42-9.61,1.7-15.88,4.4-23.68,11.3A134.34,134.34,0,0,0,38.71,84,116.41,116.41,0,0,0,18.63,130c-7.5,38,3.23,75.9,12.52,112.58C38.6,272,49.56,291.1,61.36,302.71c39.25,56.34,98.76,55.19,124.43,58.39,17.74,2.22,28,.58,34.33-3.27-9,43.76-16.1,102.24-16.1,102.24,82.92,20.33,115.77-6.26,115.77-6.26,1.8-28-5.27-68.57-11.56-97.83,51.56,99.54,105.2,93.42,130,64.89,11.78-13.56,10.15-38.56,5.69-61.48a116.8,116.8,0,0,1,10.5-8.67C471.71,338.44,467.94,323.34,460.45,315.46ZM125.88,102.63a72.51,72.51,0,0,0-16.51-12.56c3.74-3.12,7-8,12.07-8.45,8.8-.79,9.8,4,11.13,10Q129,97,125.88,102.63Zm18.87,212.7c-14.34-3.54-24.3-10.31-31.09-17.14C113,267,73.69,209,76.52,205.05c3.12-4.35,13.17-4.26,22.67-6.8a16.1,16.1,0,0,0,7.38-.91,161,161,0,0,0,84.12,125.29C176.11,321.21,159.42,318.94,144.75,315.33Zm190.12,22.26h0l-4.5-9a161.06,161.06,0,0,0,29.7-16.73c3.15,8.17,7.91,17,11,23.34,5.27,10.74,1.54,29.56,14.57,24.65,3.78,21.33,6,40.72,2.55,43.75C382.84,408.29,348.75,361.78,334.87,337.59Z" transform="translate(-7.37)"/><path class="cls-6" d="M361.43,308.39a41.82,41.82,0,0,0,4.3,2c5.65,23.7,20.5,91.17,13.74,97.05s-57.4-67-59.16-78.56c-8.25,3.51-19.71,3.28-24.56,13.13a69.47,69.47,0,0,0-.47,9.43C348.1,459.7,404,454,429.46,424.71c20.62-23.73.17-82.51-4.68-103.79a14.3,14.3,0,0,0,2-.76C440.49,313.54,341.4,296.56,361.43,308.39Z" transform="translate(-7.37)"/><path class="cls-7" d="M365.73,310.42c5.65,23.7,20.5,91.17,13.74,97.05a3.36,3.36,0,0,1-2.06.89c3.51,14.86,16.4,26.07,21.56,11.85,5.87-16.18-11-93.69-11-93.69a47.27,47.27,0,0,0-15.73-19.11c-11.3-7.9-30.85-10.85-10.82,1A41.82,41.82,0,0,0,365.73,310.42Z" transform="translate(-7.37)"/><path class="cls-7" d="M326.13,341.42s-15.48,15.12-26.9,17.21L293.75,335l23.19-11.88Z" transform="translate(-7.37)"/><path class="cls-6" d="M91.73,281.51s8.57,28.86,44.28,37.66,83.44,9.64,83.44,9.64,6,10,1.35,21-12.61,19-43.75,15.12S65,363.59,30.82,262.17Z" transform="translate(-7.37)"/><path class="cls-7" d="M219.45,328.81s6,10,1.35,21c-3.31,7.9-8.5,14.15-22.55,15.69,2.46-13.93-4.41-28.89-10.24-38.5C206,328.55,219.45,328.81,219.45,328.81Z" transform="translate(-7.37)"/><path class="cls-6" d="M290.71,323.11s23.46,86.05,20.34,134.54c0,0-32.85,26.59-115.77,6.26,0,0,15.64-128.28,29.72-147S290.71,323.11,290.71,323.11Z" transform="translate(-7.37)"/><path class="cls-8" d="M213.42,467.7c-8.66-123.55,26.49-110,61.65-102.35,29.79,6.47,19.91,77.23,15.62,101.42C275.13,471.22,250,474.28,213.42,467.7Z" transform="translate(-7.37)"/><path class="cls-7" d="M296.35,345.8c-21.19,7.63-49.41,12.32-82.66,5.17,3.66-16.17,7.55-29.09,11.31-34.11,14.08-18.78,65.71,6.25,65.71,6.25S293.16,332.09,296.35,345.8Z" transform="translate(-7.37)"/><path class="cls-6" d="M419,184.52a161,161,0,1,1-161-161A161,161,0,0,1,419,184.52Z" transform="translate(-7.37)"/><path class="cls-5" d="M242.77,164c0,26.9-16.37,48.72-36.55,48.72S169.69,190.88,169.69,164s16.36-48.72,36.53-48.72S242.77,137.07,242.77,164Z" transform="translate(-7.37)"/><path class="cls-9" d="M233.64,166.65c0,18.28-11.77,33.11-26.26,33.11s-26.27-14.83-26.27-33.11,11.76-33.12,26.27-33.12S233.64,148.36,233.64,166.65Z" transform="translate(-7.37)"/><path class="cls-5" d="M220.31,158.84c0,7.88-4.61,14.27-10.27,14.27s-10.28-6.39-10.28-14.27,4.6-14.28,10.28-14.28S220.31,151,220.31,158.84Z" transform="translate(-7.37)"/><path class="cls-5" d="M355.61,170.19c0,30.34-18.45,54.93-41.21,54.93s-41.18-24.59-41.18-54.93,18.44-54.93,41.18-54.93S355.61,139.85,355.61,170.19Z" transform="translate(-7.37)"/><path class="cls-9" d="M345.31,173.2c0,20.62-13.26,37.33-29.61,37.33s-29.62-16.71-29.62-37.33,13.26-37.34,29.62-37.34S345.31,152.58,345.31,173.2Z" transform="translate(-7.37)"/><path class="cls-5" d="M330.31,164.39c0,8.89-5.21,16.1-11.59,16.1s-11.59-7.21-11.59-16.1,5.19-16.09,11.59-16.09S330.31,155.51,330.31,164.39Z" transform="translate(-7.37)"/><path class="cls-10" d="M394.94,263.55a4.42,4.42,0,0,1-1.84,5.95l-2.26,1.18a4.41,4.41,0,0,1-5.94-1.84l-16.37-31.09a4.41,4.41,0,0,1,1.85-5.93l2.25-1.19a4.41,4.41,0,0,1,5.94,1.83Z" transform="translate(-7.37)"/><path class="cls-10" d="M310.48,115.29a69.41,69.41,0,1,0,93.75,29.09A69.41,69.41,0,0,0,310.48,115.29Zm56.95,108.19a52.85,52.85,0,1,1,22.15-71.39A52.85,52.85,0,0,1,367.43,223.48Z" transform="translate(-7.37)"/><rect class="cls-10" x="392.54" y="249.53" width="21.95" height="84.99" rx="8.5" transform="translate(-96.94 221.59) rotate(-27.76)"/><path class="cls-11" d="M386.42,260.71a4.41,4.41,0,0,1-1.85,5.94l-2.25,1.19a4.41,4.41,0,0,1-5.94-1.84L360,234.9a4.41,4.41,0,0,1,1.84-5.93l2.26-1.18a4.41,4.41,0,0,1,5.94,1.83Z" transform="translate(-7.37)"/><path class="cls-12" d="M302,112.45a69.4,69.4,0,1,0,93.75,29.09A69.4,69.4,0,0,0,302,112.45Zm57,108.18a52.85,52.85,0,1,1,22.14-71.38A52.84,52.84,0,0,1,358.91,220.63Z" transform="translate(-7.37)"/><rect class="cls-13" x="384.01" y="246.68" width="21.95" height="84.99" rx="8.5" transform="translate(-96.6 217.3) rotate(-27.76)"/><path class="cls-14" d="M363.91,288.07s-12.44,1.52-15.34,10.76,8.16,28.75,13.78,40.24,1,32.25,17.56,23.26,25.95-19.11,24.42-21.1-22.78-28.51-22.78-28.51Z" transform="translate(-7.37)"/><path class="cls-15" d="M430.85,277.43s-1.35-20.83-12.47-20.09-21.58,11.16-39.64,12.34-31.56,7.64-20.95,20.88l10.62,13.25s-3.86,4.44,2.4,15.19c5.58,9.53,20.72,8.63,23.77,17.65,1.81,5.38-.68,11.17,1.92,16.72,3.75,8,11.17,8.65,17.2,13.69,7.14,6,7.88,7.93,15.57,1.36,5.49-4.66,10.43-9.64,16.38-13.86,17.32-12.28,13.55-27.38,6.06-35.26S449.19,280.43,430.85,277.43Z" transform="translate(-7.37)"/><path class="cls-7" d="M378.74,269.68c10.22-.67,18-4.3,24.83-7.45-1.91,3.49-15,8-18.34,10.5-7.33,5.37-7.84,8.19-7.38,15.13s18.85.17,25.68-1.67-17.64,7.42-19.17,15.89,2.27,13.8,7.28,15.57,22.72-4.28,22.72-4.28-18,12.34-16.91,18.54,4.14,10.18,8.45,12,19.87-5.49,19.87-5.49-18.59,14.47-14.71,20.49,13.6,5.39,13.6,5.39c1.69,7.06-3.06,13.08-11.24,10-5.34-2-10.46-11.58-13.84-15.78-3-3.73-7.55-4.52-10.78-7.86-5.32-5.52-3.49-13.86-.51-20.26A23.34,23.34,0,0,1,370.81,319c-6.26-10.75-2.4-15.19-2.4-15.19l-10.62-13.25C347.18,277.32,360.7,270.86,378.74,269.68Z" transform="translate(-7.37)"/><path class="cls-8" d="M439,295.73s.62-11.9-9.15-12-33.25,14-32.89,19.57,7.26,4.41,16.24,3.12S439,295.73,439,295.73Z" transform="translate(-7.37)"/><path class="cls-8" d="M445.69,323.18s.61-11.89-9.15-11.95-33.26,14-32.88,19.57,7.24,4.4,16.22,3.12S445.69,323.18,445.69,323.18Z" transform="translate(-7.37)"/><path class="cls-8" d="M450.21,338.93s2.13-9.91-4.67-7.37-26.45,11.49-22.44,19.6,5.5,9.41,10.09,4.91S450.21,338.93,450.21,338.93Z" transform="translate(-7.37)"/><path class="cls-8" d="M424.24,272.29s1.41-10.56-5.5-9.41-31.66,6.25-29.77,13.8S419.69,277.46,424.24,272.29Z" transform="translate(-7.37)"/><path class="cls-16" d="M359,220.72a52.95,52.95,0,1,1,22.19-71.51A52.95,52.95,0,0,1,359,220.72Z" transform="translate(-7.37)"/><path class="cls-17" d="M195.65,287.53s33.7-37.06,69.07-33.69,55.59,35.38,55.59,35.38" transform="translate(-7.37)"/><path class="cls-5" d="M367.65,145.85s18.69,16.18,9.07,46.7c0,0,16.75-25.78-6.28-51.81Z" transform="translate(-7.37)"/><path class="cls-18" d="M228.14,84.53s-14.08-18.77-32.86-23.46-32.85,43.8-32.85,43.8S185.9,62.63,228.14,84.53Z" transform="translate(-7.37)"/><path class="cls-18" d="M275.07,84.53s14.08-18.77,32.85-23.46,32.86,43.8,32.86,43.8S317.31,62.63,275.07,84.53Z" transform="translate(-7.37)"/><path class="cls-6" d="M73.47,54.92c.82-.15,1.65-.28,2.51-.42,9.29-1.41,18.34-3,27.78-2.06,24.17,2.54,49.22,10.25,60.16,34,2.36,5.16,2.42,10.45,2.42,16,0,6.54,1.28,16.32-4.27,21.12-7.22,6.24-19.56,1.45-25.46-4-5.63-5.21-9.22-12-11.53-19.25-2.59-8.14-1.29-15.93-12.38-14.93-5.08.46-8.33,5.33-12.07,8.45,0,0,14.08,7,25.81,23.47s-7,28.16-7,28.16,28.16,14.07,14.08,25.81c0,0,7.82,12.51,5.48,20.33s-17.22,26.6-25.82,19.56,3.14-14.08,3.14-14.08-4.69-7.82-6.26-10.95-1.56,7.83-12.51,13.3-25.82,3.91-29.73,9.38,72.74,114.22,16.43,112.64c-21.06-.59-47.72-19.56-61.8-75.09-9.29-36.68-20-74.54-12.52-112.58A116.41,116.41,0,0,1,30,87.81,134.34,134.34,0,0,1,49.79,66.22C57.59,59.32,63.86,56.62,73.47,54.92Z" transform="translate(-7.37)"/><path class="cls-7" d="M104.45,99.48c-5-4.4-20.24-9.68-20.24-9.68s23.46-21.7,36.66-14.08,12,27.28,23.47,38.14c8.47,8,17.73-5.48,22-13,0,.56,0,1.11,0,1.68,0,6.54,1.28,16.32-4.27,21.12-7.22,6.24-19.56,1.45-25.46-4-5.63-5.21-9.22-12-11.53-19.25-2.59-8.14-1.29-15.93-12.38-14.93-5.08.46-8.33,5.33-12.07,8.45,0,0,14.08,7,25.81,23.47a19.67,19.67,0,0,1,3.55,8C120.67,116.09,107.76,102.41,104.45,99.48Z" transform="translate(-7.37)"/><path class="cls-7" d="M77.17,86.87c8.52.35,16.8,3.58,23.46,7h0s14.08,7,25.81,23.47-7,28.16-7,28.16,28.16,14.07,14.08,25.81c0,0,7.82,12.51,5.48,20.33-2.08,7-14.05,22.51-22.73,21a6.16,6.16,0,0,1,.83-1.4c5.86-5.87,12.9-21.12,10.56-31.68s-29.33-24.64-29.33-24.64,12.9,5.87,22.29,9.39,1.17-10.56,1.17-10.56L81.86,130.28s24.64,2.35,31.68,3.52,8.21-8.21,1.17-22.29S77.17,86.87,77.17,86.87Z" transform="translate(-7.37)"/><path class="cls-8" d="M67,88.44S106.88,101,109.23,115s-7.82,11.73-19.55,9.39-25.81-8.6-26.59-14.86S63.08,87.66,67,88.44Z" transform="translate(-7.37)"/><path class="cls-8" d="M80.29,134.59s37.56,10.95,34.42,20.33S84.21,149.45,77.94,144,80.29,134.59,80.29,134.59Z" transform="translate(-7.37)"/><path class="cls-8" d="M97.5,162.75c12.78,1.76,25.54,9,29,22.2,1.48,5.59-.58,9-2.92,14.16-1,2.27-1.6,5.34-4.21,6.37-3.27,1.3-3.77-.9-2.86-3.93,1.74-5.75,5.72-9.28,4.75-16.05-5.19-1.33-8.66-5.7-13.5-7.43-3.48-1.25-8.23-1.19-11.92-1.83-5-.87-17-1.76-18.7-8C74.82,159.61,97.5,162.75,97.5,162.75Z" transform="translate(-7.37)"/><path class="cls-7" d="M114.52,211.63S109,208.7,110.8,205a39.88,39.88,0,0,1,5.48-7.82l-6.45-13.69s-13.51,18-20.74,18.38c0,0,13.88,3.72,20-13.69l4.89,8.8s-5.28,4.7-5.86,8.41S114.52,211.63,114.52,211.63Z" transform="translate(-7.37)"/><path class="cls-8" d="M113.14,57.54S137.4,63.4,148,71.23s15.65,17.59,12.9,25-5.08,14.47-11,7.82-9-23.86-17.6-30.51-22.69-3.91-34.42-5.08-3.52-11.74,2.35-12.13A54,54,0,0,1,113.14,57.54Z" transform="translate(-7.37)"/><path class="cls-19" d="M167.12,79.83s12.9,37.15-4.3,45.76c0,0,13.29-2.73,13.68-23.07S167.12,79.83,167.12,79.83Z" transform="translate(-7.37)"/><path class="cls-19" d="M171.42,66.14s21.91,18.77,14.08,33.64Z" transform="translate(-7.37)"/><line class="cls-20" x1="360.31" y1="21.34" x2="360.31" y2="180.31"/><path class="cls-21" d="M380.14,166.19a4.34,4.34,0,0,1-4.06,1.08,10.71,10.71,0,0,0-.23-1.18c2.32-.42,4.8-1.39,5.71-3.54a.88.88,0,0,0-.46-1.15.86.86,0,0,0-1.14.47c-.64,1.51-2.69,2.24-4.73,2.57a9.27,9.27,0,0,0-16-1.18c-1.23-1-2.4-2.4-2-3.84a.88.88,0,0,0-1.69-.46c-.66,2.46,1.16,4.53,2.85,5.86a9.22,9.22,0,0,0-.77,3.68v0a3.07,3.07,0,0,1-3-1.6.87.87,0,1,0-1.6.7c.91,2.08,2.91,2.63,4.73,2.64a9.53,9.53,0,0,0,1.2,3,8.8,8.8,0,0,1-5.17,2.54.87.87,0,0,0,0,1.74h0a10.38,10.38,0,0,0,6.15-2.87,9.29,9.29,0,0,0,3.45,2.41,5.31,5.31,0,1,0,6.84,0,9.16,9.16,0,0,0,2.46-1.48,10,10,0,0,0,4.89,1.37,9.1,9.1,0,0,0,1.69-.16.89.89,0,0,0,.69-1,.87.87,0,0,0-1-.68,7.69,7.69,0,0,1-4.95-.79,9.18,9.18,0,0,0,2.09-5.32,7.59,7.59,0,0,0,1.07.08,5.65,5.65,0,0,0,4.17-1.72.89.89,0,0,0,0-1.24A.87.87,0,0,0,380.14,166.19Z" transform="translate(-7.37)"/></g></g></g></svg>