<?xml version="1.0" encoding="UTF-8"?>
<svg width="30px" height="30px" viewBox="0 0 30 30" version="1.1" xmlns="http://www.w3.org/2000/svg" xmlns:xlink="http://www.w3.org/1999/xlink">
    <!-- Generator: Sketch 50.2 (55047) - http://www.bohemiancoding.com/sketch -->
    <title>notif_reply</title>
    <desc>Created with Sketch.</desc>
    <defs>
        <path d="M13.8343059,8.15392941 C13.8343059,9.00842353 13.5075294,10.1689412 12.8539765,11.6354824 C12.8388235,11.6717176 12.8118118,11.7333176 12.7729412,11.8202824 C12.7340706,11.9072471 12.6994824,11.9843294 12.6691765,12.0515294 C12.6388706,12.1187294 12.6052706,12.1753882 12.5683765,12.2215059 C12.5064471,12.3091294 12.4343059,12.3529412 12.3519529,12.3529412 C12.2748706,12.3529412 12.2142588,12.3272471 12.1701176,12.2758588 C12.1259765,12.2244706 12.1042353,12.1602353 12.1048941,12.0831529 C12.1048941,12.0370353 12.1114824,11.9688471 12.1246588,11.8785882 C12.1378353,11.7883294 12.1444235,11.7277176 12.1444235,11.6967529 C12.1701176,11.3469176 12.1829647,11.0303529 12.1829647,10.7470588 C12.1829647,10.2272471 12.1378353,9.76145882 12.0475765,9.34969412 C11.9573176,8.93792941 11.8324706,8.58150588 11.6730353,8.28042353 C11.5136,7.97934118 11.3077176,7.71943529 11.0553882,7.50070588 C10.8030588,7.28197647 10.5316235,7.10310588 10.2410824,6.96409412 C9.95054118,6.82508235 9.60828235,6.71571765 9.21430588,6.636 C8.82032941,6.55628235 8.42404706,6.50094118 8.02545882,6.46997647 C7.62687059,6.43901176 7.17524706,6.42352941 6.67058824,6.42352941 L4.94117647,6.42352941 L4.94117647,8.4 C4.94117647,8.53374118 4.89242353,8.64969412 4.79491765,8.74785882 C4.69741176,8.84602353 4.58145882,8.89477647 4.44705882,8.89411765 C4.31265882,8.89345882 4.19670588,8.84470588 4.0992,8.74785882 L0.146258824,4.79491765 C0.0487529412,4.69741176 0,4.58145882 0,4.44705882 C0,4.31265882 0.0487529412,4.19670588 0.146258824,4.0992 L4.0992,0.146258824 C4.19670588,0.0487529412 4.31265882,0 4.44705882,0 C4.58145882,0 4.69741176,0.0487529412 4.79491765,0.146258824 C4.89242353,0.243764706 4.94117647,0.359717647 4.94117647,0.494117647 L4.94117647,2.47058824 L6.67058824,2.47058824 C10.3402353,2.47058824 12.5920941,3.50757647 13.4261647,5.58155294 C13.6989176,6.27134118 13.8352941,7.12847059 13.8352941,8.15294118 L13.8343059,8.15392941 Z" id="path-1"></path>
    </defs>
    <g id="Symbols" stroke="none" stroke-width="1" fill="none" fill-rule="evenodd">
        <g id="notif---web-copy" transform="translate(-13.000000, -297.000000)">
            <g id="notif_reply" transform="translate(13.000000, 297.000000)">
                <circle id="Oval-3-Copy" fill="#1998ED" fill-rule="nonzero" cx="15" cy="15" r="15"></circle>
                <g id="color/grey-b3-copy" transform="translate(8.000000, 9.000000)">
                    <mask id="mask-2" fill="white">
                        <use xlink:href="#path-1"></use>
                    </mask>
                    <use id="Mask" fill="#B3B3B3" fill-rule="nonzero" xlink:href="#path-1"></use>
                    <g id="color/white" mask="url(#mask-2)" fill="#FFFFFF">
                        <g transform="translate(-2.000000, -5.000000)" id="Rectangle-3">
                            <rect x="0" y="0" width="21" height="21"></rect>
                        </g>
                    </g>
                </g>
            </g>
        </g>
    </g>
</svg>