<svg xmlns="http://www.w3.org/2000/svg" viewBox="0 0 39.01 78.64"><defs><style>.cls-1{fill:#1ba89e;}</style></defs><title>Low</title><g id="Layer_2" data-name="Layer 2"><g id="Layer_1-2" data-name="Layer 1"><circle class="cls-1" cx="28.24" cy="7.5" r="7.5"/><path class="cls-1" d="M16.1,48c-.34-.36-.71-.69-1-1.05l.57,11.94L5.94,71.51a4.06,4.06,0,0,0,.74,5.69l.11.09a4.06,4.06,0,0,0,5.69-.74l10.6-13.8s0-.06,0-.08a4,4,0,0,0,.65-1.32l0-.1a4,4,0,0,0,.14-1.16L23.68,56,16.4,48.34Z"/><path class="cls-1" d="M38.93,73.79,35.46,55.93a4,4,0,0,0-1.1-2.84L24.54,42.73a6.36,6.36,0,0,0,.21-1.94c-5.8-3.73-8.47-8.69-8.47-18.59a4.13,4.13,0,0,1,4.13-4.12h0a4.13,4.13,0,0,1,4.12,4.13,24.91,24.91,0,0,0,.57,6q.64-2.45,1.58-5.39c.94-3-.09-6.17-2.94-7.39a5.59,5.59,0,0,0-4.75.17C5.56,19.83,2.63,37.57,2.5,38.37a2.63,2.63,0,0,0,2.19,3,2.73,2.73,0,0,0,.41,0,2.63,2.63,0,0,0,2.59-2.22c0-.12,1.37-8.3,6.19-13.94-2.17,7.43-2.07,13.61.35,18.41a9.32,9.32,0,0,0,1.86,2.17l.3.33,11,11.61,3.42,17.61a4.06,4.06,0,0,0,4.76,3.21l.14,0A4.06,4.06,0,0,0,38.93,73.79Z"/><path class="cls-1" d="M34,43.38a2.61,2.61,0,0,1-1-.19c-10.71-4.36-15.19-8.24-15.18-21a2.63,2.63,0,0,1,2.63-2.63h0A2.63,2.63,0,0,1,23,22.19c0,10.35,3.08,12.53,11.91,16.13a2.63,2.63,0,0,1-1,5.06Z"/><path class="cls-1" d="M14.52,11.74H9.18a.15.15,0,1,1,0-.3h5.34a.15.15,0,0,1,0,.3Z"/><path class="cls-1" d="M9.91,16.88H.15a.15.15,0,1,1,0-.3H9.91a.15.15,0,1,1,0,.3Z"/></g></g></svg>