<?xml version="1.0" encoding="UTF-8"?>
<svg width="30px" height="30px" viewBox="0 0 30 30" version="1.1" xmlns="http://www.w3.org/2000/svg" xmlns:xlink="http://www.w3.org/1999/xlink">
    <!-- Generator: Sketch 50.2 (55047) - http://www.bohemiancoding.com/sketch -->
    <title>notif_penjualan</title>
    <desc>Created with Sketch.</desc>
    <defs></defs>
    <g id="Symbols" stroke="none" stroke-width="1" fill="none" fill-rule="evenodd">
        <g id="notif---web-copy" transform="translate(-13.000000, -156.000000)">
            <g id="notif_penjualan" transform="translate(13.000000, 156.000000)">
                <g id="Group-Copy-3" fill="#1998ED" fill-rule="nonzero">
                    <circle id="Oval-3-Copy-2" cx="15" cy="15" r="15"></circle>
                </g>
                <g id="Group-18" transform="translate(5.000000, 5.000000)" fill="#FFFFFF">
                    <path d="M4.76814786,6.39097844 C5.12751733,6.39097844 5.41905401,6.11708432 5.41905401,5.77934485 L5.41905401,3.39357038 C5.41905401,2.32694976 6.34249404,1.45898545 7.47761086,1.45898545 C8.61272768,1.45898545 9.53640825,2.32694976 9.53640825,3.39357038 L9.53640825,5.77934485 C9.53640825,6.11708432 9.82770438,6.39097844 10.1875549,6.39097844 C10.5466839,6.39097844 10.8384611,6.11708432 10.8384611,5.77934485 L10.8384611,3.39357038 C10.8387016,1.65218287 9.33098554,0.235480938 7.47761086,0.235480938 C5.62495781,0.235480938 4.11700117,1.65218287 4.11700117,3.39357038 L4.11700117,5.77934485 C4.11700117,6.11708432 4.40877839,6.39097844 4.76814786,6.39097844" id="Fill-1"></path>
                    <g id="Group-17" transform="translate(0.000000, 5.000000)">
                        <path d="M11.4769586,7.89530597 L12.1412345,7.89530597 C12.4045793,7.89530597 12.6003379,7.84381343 12.7287517,7.74060448 C12.8569241,7.63739552 12.921131,7.48470896 12.921131,7.2823209 C12.921131,7.08373881 12.8564414,6.92590299 12.7270621,6.80858955 C12.5976828,6.6915 12.4077172,6.63329104 12.1574069,6.63329104 L11.4769586,6.63329104 L11.4769586,7.89530597 Z M11.4769586,8.56515672 L11.4769586,10.2975448 L10.5399241,10.2975448 L10.5399241,5.9634403 L12.1574069,5.9634403 C12.690131,5.9634403 13.1067517,6.07582836 13.4075103,6.3015 C13.7080276,6.52672388 13.8584069,6.84060448 13.8584069,7.24336567 C13.8584069,7.46545522 13.7946828,7.65776866 13.6674759,7.81918657 C13.5400276,7.98105224 13.3544069,8.11179851 13.1106138,8.21097761 C13.3865103,8.28620149 13.5849241,8.41224627 13.7058552,8.58888806 C13.8267862,8.76552985 13.887131,8.98358955 13.887131,9.24373881 L13.887131,9.56209701 C13.887131,9.68321642 13.9049931,9.80970896 13.9402345,9.94179851 C13.9754759,10.0736642 14.0360621,10.1717239 14.1215103,10.2350821 L14.1215103,10.2975448 L13.1555103,10.2975448 C13.0698207,10.2341866 13.0147862,10.1289627 12.9901655,9.98187313 C12.9655448,9.83500746 12.9532345,9.69329104 12.9532345,9.5565 L12.9532345,9.2495597 C12.9532345,9.03351493 12.8897517,8.86515672 12.7623034,8.7453806 C12.6350966,8.62515672 12.4547862,8.56515672 12.2216138,8.56515672 L11.4769586,8.56515672 Z" id="Fill-9"></path>
                        <path d="M16.8527172,8.7138806 C16.8527172,8.41052239 16.7981655,8.16425373 16.6890621,7.97574627 C16.5799586,7.78723881 16.4131655,7.69276119 16.1884414,7.69276119 C16.0472345,7.69276119 15.9267862,7.71962687 15.8273379,7.77335821 C15.7278897,7.82664179 15.6492,7.90320896 15.5915103,8.00238806 L15.5915103,9.41350746 C15.6492,9.50485075 15.7278897,9.57402985 15.8273379,9.62171642 C15.9267862,9.66940299 16.0491655,9.69335821 16.1947172,9.69335821 C16.4216138,9.69335821 16.5879241,9.61119403 16.6938897,9.44619403 C16.7998552,9.28141791 16.8527172,9.05843284 16.8527172,8.77634328 L16.8527172,8.7138806 Z M17.7899931,8.77634328 C17.7899931,9.25253731 17.6712345,9.63559701 17.4337172,9.92552239 C17.1962,10.215 16.8645448,10.3602985 16.4387517,10.3602985 C16.2569931,10.3602985 16.095269,10.3287313 15.9540621,10.2662687 C15.8128552,10.2035821 15.6919241,10.111791 15.5915103,9.9911194 L15.5915103,11.5358955 L14.6576138,11.5358955 L14.6576138,7.07686567 L15.5014759,7.07686567 L15.5560276,7.45768657 C15.6588552,7.31686567 15.7824414,7.20828358 15.9267862,7.1319403 C16.0713724,7.05537313 16.2396138,7.01731343 16.4322345,7.01731343 C16.8623724,7.01731343 17.1962,7.17291045 17.4337172,7.48477612 C17.6712345,7.79597015 17.7899931,8.20567164 17.7899931,8.7138806 L17.7899931,8.77634328 Z" id="Fill-11"></path>
                        <path d="M13.8163828,3.32303731 C10.5210724,3.32303731 7.84007241,5.67893284 7.84007241,8.57505224 C7.84007241,11.4711716 10.5210724,13.827291 13.8163828,13.827291 C17.1116931,13.827291 19.7926931,11.4711716 19.7926931,8.57505224 C19.7926931,5.67893284 17.1116931,3.32303731 13.8163828,3.32303731 M13.8163828,14.946694 C9.85534828,14.946694 6.63317586,12.0881866 6.63317586,8.57505224 C6.63317586,5.06191791 9.85534828,2.20363433 13.8163828,2.20363433 C17.7771759,2.20363433 20.9995897,5.06191791 20.9995897,8.57505224 C20.9995897,12.0881866 17.7771759,14.946694 13.8163828,14.946694" id="Fill-13"></path>
                        <path d="M6.63310345,8.57505224 C6.63310345,8.51706716 6.63624138,8.45975373 6.63817241,8.40221642 L3.73582759,8.4024403 C3.71265517,8.39863433 3.67234483,8.37602239 3.65110345,8.35609701 L1.68989655,1.3016194 L2.79734483,1.3016194 C3.00686207,2.36527612 4.03682759,3.17527612 5.27196552,3.17527612 C6.50734483,3.17527612 7.53731034,2.36527612 7.74658621,1.3016194 L8.23562069,1.3016194 C8.41086207,2.19176866 9.16203448,2.90236567 10.1263448,3.11102239 C10.9031034,2.69684328 11.7744828,2.40893284 12.705,2.28020149 C12.9439655,1.99811194 13.1131724,1.66542537 13.1848621,1.3016194 L14.2536897,1.3016194 L14.001931,2.20788806 C14.4158966,2.21729104 14.8214138,2.25669403 15.2153448,2.32587313 L15.7333448,0.462291045 C15.776069,0.307365672 15.6650345,0.182216418 15.4844828,0.182216418 L12.0168276,0.182216418 L12.0168276,0.901768657 C12.0168276,1.53803731 11.4307586,2.05587313 10.7102414,2.05587313 C9.98972414,2.05587313 9.40365517,1.53803731 9.40365517,0.901768657 L9.40365517,0.182216418 L6.57855172,0.182216418 L6.57855172,0.901768657 C6.57855172,1.53803731 5.99272414,2.05587313 5.27196552,2.05587313 C4.55144828,2.05587313 3.96537931,1.53803731 3.96537931,0.901768657 L3.96537931,0.182216418 L0.458862069,0.182216418 C0.278793103,0.182216418 0.167275862,0.307589552 0.210241379,0.462291045 L2.49586207,8.68408209 C2.63368966,9.14639552 3.18451724,9.52117164 3.72544828,9.52117164 L6.71275862,9.52117164 C6.66062069,9.2124403 6.63310345,8.89654478 6.63310345,8.57505224" id="Fill-15"></path>
                    </g>
                </g>
            </g>
        </g>
    </g>
</svg>