<svg xmlns="http://www.w3.org/2000/svg" width="300" height="130" viewBox="0 0 300 130">
    <g fill="none" fill-rule="evenodd" transform="translate(38 9)">
        <circle cx="154" cy="14" r="3" fill="#C0E9F0"/>
        <circle cx="3" cy="82" r="3" fill="#C0E9F0"/>
        <path fill="#C0E9F0" d="M20.016 50.937h-1.76V49.17c0-.645-.522-1.17-1.165-1.17-.644 0-1.166.525-1.166 1.17v1.767h-1.76c-.643 0-1.165.524-1.165 1.17a1.17 1.17 0 0 0 1.166 1.172h1.76v1.766c0 .646.52 1.17 1.165 1.17.643 0 1.166-.524 1.166-1.17V53.28h1.76a1.17 1.17 0 0 0 1.165-1.171c0-.647-.523-1.17-1.166-1.17M197.016 46.937h-1.76V45.17c0-.645-.522-1.17-1.165-1.17-.644 0-1.166.525-1.166 1.17v1.767h-1.76c-.643 0-1.165.524-1.165 1.17a1.17 1.17 0 0 0 1.166 1.172h1.76v1.766c0 .646.52 1.17 1.165 1.17.643 0 1.166-.524 1.166-1.17V49.28h1.76a1.17 1.17 0 0 0 1.165-1.171c0-.647-.523-1.17-1.166-1.17M25.668 103.03L21 100.234l5.236-.068L27.88 95l1.708 5.231 5.412-.06-4.557 3.444s4.606 5.372 4.03 5.113l-6.041-3.58-5.1 5.852 2.336-7.97M206.668 31.023L203 28.924l4.114-.05L208.406 25l1.342 3.923L214 28.88l-3.58 2.582s3.618 4.03 3.167 3.835l-4.748-2.684L204.832 37l1.836-5.977M11.668 19.023L8 16.924l4.114-.05L13.406 13l1.342 3.923L19 16.88l-3.58 2.582s3.618 4.03 3.167 3.835l-4.748-2.684L9.832 25l1.836-5.977"/>
        <path fill="#FDBA4D" d="M177.668 17.529L173 14.906l5.236-.064L179.88 10l1.708 4.904 5.412-.056-4.557 3.228s4.606 5.037 4.03 4.794l-6.041-3.356-5.1 5.486 2.336-7.471"/>
        <g fill="#C0E9F0">
            <path d="M167.014 93.543s-24.277 11.874-48.544.426C94.2 82.52 84.495 54.14 129.462 47.984c44.969-6.157 65.464 17.748 48.759 39.125 0 0 7.794 13.331-.638 25.891 0 0 .388-10.836-10.569-19.457M35.345 38.988s6.21 3.059 12.418.11c6.209-2.949 8.692-10.259-2.811-11.845-11.504-1.585-16.747 4.572-12.474 10.078 0 0-1.993 3.434.164 6.669 0 0-.1-2.791 2.703-5.012"/>
        </g>
        <path fill="#E4F5F8" d="M81.318 85.352s31.9 15.652 63.785.561c31.889-15.09 44.643-52.5-14.442-60.616-59.088-8.116-86.017 23.395-64.067 51.574 0 0-10.241 17.573.837 34.129 0 0-.509-14.283 13.887-25.648"/>
        <path fill="#FDBA4D" d="M78.318 81.352s31.9 15.652 63.785.561c31.889-15.09 44.643-52.5-14.442-60.616-59.088-8.116-86.017 23.395-64.067 51.574 0 0-10.241 17.573.837 34.129 0 0-.509-14.283 13.887-25.648"/>
        <path fill="#CF2B2A" d="M37.816 74.88s-11.658-2.984-12.76 4.435c-1.331 8.978 21.25 5.507 21.25 5.507s3.01-16.29-3.505-16.805c-5.192-.411-4.985 6.862-4.985 6.862"/>
        <path fill="#C0E9F0" d="M71.436 5.686c-.113 4.339-6.159 6.66-9.259 3.671-.582-.561.277-1.473.858-.913 2.29 2.208 7.063.545 7.148-2.735.021-.804 1.274-.83 1.253-.023zm-8.108-.638c1.161-.343 1.693 1.46.532 1.803-1.161.343-1.693-1.46-.532-1.803zm3.297-1.367c1.162-.344 1.693 1.46.534 1.802-1.162.344-1.693-1.459-.534-1.802zM69.271.765c-5.72-2.59-9.584 2.116-9.933 3.505-1.939 7.687 4.903 10.48 9.526 9.356 6.04-1.467 6.245-10.218.407-12.861z"/>
        <path fill="#A8BEE9" d="M227 84l-8.885-1.528s-10.134-2.418-10.535-2.48c-.122-.018-.732-.294-1.523-.669-1.81-.857-4.562-2.232-4.562-2.232-.037-.557-.495-3.583-.495-4.025l.001-.033c.003-.022.067-.033.183-.033 1.352 0 9.77 1.431 9.77 1.431l14.142 8.2L227 84"/>
        <path fill="#CFDCF4" d="M192 82.29s6.853-6.252 7.453-6.29c.6-.038 25.984 7.873 26.54 7.994.557.122-33.993-1.705-33.993-1.705M201.012 73.627c-.228-.16 2.806-7.641 3.428-7.627.623.014 23.827 18.39 22.506 17.994-1.321-.397-25.577-10.117-25.934-10.367"/>
        <path stroke="#FFF" stroke-linecap="round" stroke-width="3" d="M71.724 44.394c6.306-.667 13.69-1 22.15-1 12.69 0 25.808 1 39.424 1 9.077 0 16.22-.333 21.426-1M76 59c7.761-.667 16.847-1 27.258-1 15.617 0 31.762 1 48.518 1M98 73c7.761-.667 16.847-1 27.258-1"/>
        <path stroke="#C0E9F0" stroke-linecap="round" stroke-width="3" d="M78 102c7.761-.667 16.847-1 27.258-1M88 14c7.761-.667 16.847-1 27.258-1M118 3.5c5.199-.333 11.285-.5 18.258-.5"/>
    </g>
</svg>
