<?xml version="1.0" encoding="UTF-8" standalone="no"?>
<svg xmlns="http://www.w3.org/2000/svg" height="17px" width="56px" version="1.1" xmlns:xlink="http://www.w3.org/1999/xlink" viewBox="0 0 56 17"><!-- Generator: Sketch 52.6 (67491) - http://www.bohemiancoding.com/sketch -->
 <title>imsak</title>
 <desc>Created with Sketch.</desc>
 <g id="Page-1" fill-rule="evenodd" fill="none">
  <g id="edit-asset" transform="translate(-1016 -726)">
   <g id="imsak" transform="translate(1016 726)">
    <path id="imsak!!" fill="#4F52A3" d="m4.4922 12c0 0.667-0.5 1-1.5 1-0.9896 0-1.4896-0.326-1.5-0.977v-5.0464c0.0104-0.6511 0.5104-0.9766 1.5-0.9766 1 0 1.5 0.3333 1.5 1v5zm-3-9c0-0.6667 0.3333-1 1-1h1c0.6667 0 1 0.3333 1 1v1c0 0.6667-0.3333 1-1 1h-1c-0.6667 0-1-0.3333-1-1v-1zm14.516 10.5c-0.334-1-0.5-2.833-0.5-5.5 0-1.3333-0.334-2-1-2-0.667 0-1 0.6667-1 2v5c0 0.667-0.5 1-1.5 1s-1.5-0.333-1.5-1v-5c0-1.3333-0.334-2-1.0002-2-0.6667 0-1 0.6667-1 2v4c0 0.667-0.5 1-1.5 1-0.9896 0-1.4896-0.326-1.5-0.977v-4.023c0-3.3334 1.3333-5 4-5 1.0312 0 1.8642 0.25 2.5002 0.75 0.635-0.5 1.469-0.75 2.5-0.75 2.666 0 4 1.6666 4 5 0 2.667 0.166 4.333 0.5 5 0.333 0.667 0.896 1.138 1.687 1.414 0.584 0.182 0.852 0.607 0.805 1.274-0.047 0.666-0.404 1.098-1.07 1.296-1.167 0.105-2.141-0.224-2.922-0.984-0.667-0.667-1.167-1.5-1.5-2.5zm11.07-5.6016c0.229 0.125 0.406 0.2344 0.531 0.3282 0.125 0.0937 0.25 0.2083 0.375 0.3437 0.365 0.5156 0.547 1.1146 0.547 1.7967 0 1.073-0.393 1.935-1.179 2.586-0.839 0.698-2.016 1.047-3.532 1.047-1.271 0-2.333-0.31-3.187-0.93-0.75-0.541-1.125-1.125-1.125-1.75 0-0.948 0.575-1.4216 1.726-1.4216 0.422 0 0.862 0.1846 1.321 0.5546 0.458 0.365 1.109 0.547 1.953 0.547 0.666 0 1-0.211 1-0.633 0-0.224-0.498-0.4295-1.492-0.617-0.141-0.0417-0.451-0.1276-0.93-0.2578-0.443-0.1146-0.8-0.2162-1.07-0.3047-0.917-0.2969-1.581-0.6927-1.993-1.1875-0.359-0.4583-0.539-0.9974-0.539-1.6172 0-1 0.394-1.8021 1.18-2.4062 0.839-0.6511 2.016-0.9766 3.531-0.9766 1.271 0 2.334 0.2891 3.188 0.8672 0.75 0.5052 1.125 1.0469 1.125 1.625 0 0.8854-0.576 1.3281-1.727 1.3281-0.422 0-0.862-0.1719-1.32-0.5156-0.458-0.3438-1.109-0.5156-1.953-0.5156-0.667 0.0156-1 0.2213-1 0.6171 0 0.2084 0.497 0.3907 1.492 0.5469 0.141 0.0417 0.451 0.1224 0.93 0.2422 0.442 0.1094 0.799 0.2031 1.07 0.2813 0.49 0.151 0.849 0.2916 1.078 0.4218zm5.43 0.1016h2c0-1.3333-0.334-2-1-2-0.667 0-1 0.6667-1 2zm5 5c0 0.667-0.5 1-1.5 1s-1.5-0.333-1.5-1v-2h-2v1c0 0.667-0.5 1-1.5 1-0.99 0-1.49-0.326-1.5-0.977v-4.023c0-3.3334 1.333-5 4-5 2.666 0 4 1.6666 4 5v5zm4-2.266v2.266c0 0.667-0.5 1-1.5 1-0.99 0-1.49-0.326-1.5-0.977v-9.0464c0.01-0.6511 0.51-0.9766 1.5-0.9766 1 0 1.5 0.3333 1.5 1v3.2656c0.515-1.0416 1.151-2.026 1.906-2.9531 0.844-0.9688 1.849-1.401 3.016-1.2969 0.666 0.1979 1.023 0.6302 1.07 1.2969s-0.221 1.0911-0.805 1.2734c-0.583 0.1823-1.646 1.3203-3.187 3.4141 1.541 2.094 2.604 3.232 3.187 3.414 0.584 0.182 0.852 0.607 0.805 1.274-0.047 0.666-0.404 1.098-1.07 1.296-1.167 0.105-2.172-0.328-3.016-1.296-0.755-0.928-1.391-1.912-1.906-2.954zm10-1.734c0 0.6667-0.5 1-1.5 1-0.99 0-1.49-0.3255-1.5-0.9766v-7.0468c0.01-0.6511 0.51-0.9766 1.5-0.9766 1 0 1.5 0.3333 1.5 1v7zm-3 3c0-0.667 0.333-1 1-1h1c0.666 0 1 0.333 1 1v1c0 0.667-0.334 1-1 1h-1c-0.667 0-1-0.333-1-1v-1zm7-3c0 0.6667-0.5 1-1.5 1-0.99 0-1.49-0.3255-1.5-0.9766v-7.0468c0.01-0.6511 0.51-0.9766 1.5-0.9766 1 0 1.5 0.3333 1.5 1v7zm-3 3c0-0.667 0.333-1 1-1h1c0.666 0 1 0.333 1 1v1c0 0.667-0.334 1-1 1h-1c-0.667 0-1-0.333-1-1v-1z"/>
    <path id="imsak!!" fill="#FFD278" d="m3.4922 11c0 0.667-0.5 1-1.5 1-0.9896 0-1.4896-0.326-1.5-0.977l-0.00001-5.0464c0.01041-0.6511 0.51041-0.9766 1.5-0.9766 1 0 1.5 0.3333 1.5 1v5zm-3-9c0-0.6667 0.33333-1 1-1h1c0.6667 0 1 0.3333 1 1v1c0 0.6667-0.3333 1-1 1h-1c-0.66668 0-1-0.3333-1-1l-0.00001-1zm14.516 10.5c-0.334-1-0.5-2.8333-0.5-5.5 0-1.3333-0.334-2-1-2-0.667 0-1 0.6667-1 2v5c0 0.667-0.5 1-1.5 1s-1.5002-0.333-1.5002-1v-5c0-1.3333-0.3333-2-1-2s-1 0.6667-1 2v4c0 0.667-0.5 1-1.5 1-0.9896 0-1.4896-0.326-1.5-0.977v-4.023c0-3.3334 1.3333-5 4-5 1.0313 0 1.8642 0.25 2.5002 0.75 0.635-0.5 1.469-0.75 2.5-0.75 2.666 0 4 1.6666 4 5 0 2.6667 0.166 4.333 0.5 5 0.333 0.667 0.896 1.138 1.687 1.414 0.584 0.182 0.852 0.607 0.805 1.274-0.047 0.666-0.404 1.098-1.07 1.296-1.167 0.105-2.141-0.224-2.922-0.984-0.667-0.667-1.167-1.5-1.5-2.5zm11.07-5.6016c0.229 0.125 0.406 0.2344 0.531 0.3282 0.125 0.0937 0.25 0.2083 0.375 0.3437 0.365 0.5156 0.547 1.1146 0.547 1.7969 0 1.0728-0.393 1.9348-1.179 2.5858-0.839 0.698-2.016 1.047-3.532 1.047-1.271 0-2.333-0.31-3.187-0.93-0.75-0.541-1.125-1.125-1.125-1.75 0-0.9476 0.575-1.4216 1.726-1.4216 0.422 0 0.862 0.1849 1.321 0.5547 0.458 0.3646 1.109 0.5469 1.953 0.5469 0.666 0 1-0.2109 1-0.6328 0-0.224-0.498-0.4297-1.492-0.6172-0.141-0.0417-0.451-0.1276-0.93-0.2578-0.443-0.1146-0.8-0.2162-1.07-0.3047-0.917-0.2969-1.581-0.6927-1.993-1.1875-0.359-0.4583-0.539-0.9974-0.539-1.6172 0-1 0.394-1.8021 1.18-2.4062 0.839-0.6511 2.016-0.9766 3.531-0.9766 1.271 0 2.334 0.2891 3.188 0.8672 0.75 0.5052 1.125 1.0469 1.125 1.625 0 0.8854-0.576 1.3281-1.727 1.3281-0.422 0-0.862-0.1719-1.32-0.5156-0.458-0.3438-1.109-0.5156-1.953-0.5156-0.667 0.0156-1 0.2213-1 0.6171 0 0.2084 0.497 0.3907 1.492 0.5469 0.141 0.0417 0.451 0.1224 0.93 0.2422 0.442 0.1094 0.799 0.2031 1.07 0.2813 0.49 0.151 0.849 0.2916 1.078 0.4218zm5.43 0.1016h2c0-1.3333-0.334-2-1-2-0.667 0-1 0.6667-1 2zm5 5c0 0.667-0.5 1-1.5 1s-1.5-0.333-1.5-1v-2h-2v1c0 0.667-0.5 1-1.5 1-0.99 0-1.49-0.326-1.5-0.977v-4.023c0-3.3334 1.333-5 4-5 2.666 0 4 1.6666 4 5v5zm4-2.2656v2.2656c0 0.667-0.5 1-1.5 1-0.99 0-1.49-0.326-1.5-0.977v-9.0464c0.01-0.6511 0.51-0.9766 1.5-0.9766 1 0 1.5 0.3333 1.5 1v3.2656c0.515-1.0416 1.151-2.026 1.906-2.9531 0.844-0.9688 1.849-1.401 3.016-1.2969 0.666 0.1979 1.023 0.6302 1.07 1.2969s-0.221 1.0911-0.805 1.2734c-0.583 0.1823-1.646 1.3203-3.187 3.4141 1.541 2.094 2.604 3.232 3.187 3.414 0.584 0.182 0.852 0.607 0.805 1.274-0.047 0.666-0.404 1.098-1.07 1.296-1.167 0.105-2.172-0.328-3.016-1.296-0.755-0.928-1.391-1.912-1.906-2.9536zm10-1.7344c0 0.6667-0.5 1-1.5 1-0.99 0-1.49-0.3255-1.5-0.9766v-7.0468c0.01-0.65108 0.51-0.9766 1.5-0.9766 1-5.6843e-14 1.5 0.33333 1.5 1v7zm-3 3c0-0.667 0.333-1 1-1h1c0.666 0 1 0.333 1 1v1c0 0.667-0.334 1-1 1h-1c-0.667 0-1-0.333-1-1v-1zm7-3c0 0.6667-0.5 1-1.5 1-0.99 0-1.49-0.3255-1.5-0.9766v-7.0468c0.01-0.65108 0.51-0.9766 1.5-0.9766 1-5.6843e-14 1.5 0.33333 1.5 1v7zm-3 3c0-0.667 0.333-1 1-1h1c0.666 0 1 0.333 1 1v1c0 0.667-0.334 1-1 1h-1c-0.667 0-1-0.333-1-1v-1z"/>
   </g>
  </g>
 </g>
</svg>
