<?xml version="1.0" encoding="UTF-8"?>
<svg width="267px" height="195px" viewBox="0 0 267 195" version="1.1" xmlns="http://www.w3.org/2000/svg" xmlns:xlink="http://www.w3.org/1999/xlink">
    <!-- Generator: Sketch 52.4 (67378) - http://www.bohemiancoding.com/sketch -->
    <title>cendol jatoh</title>
    <desc>Created with Sketch.</desc>
    <g id="INVALID-THREAD" stroke="none" stroke-width="1" fill="none" fill-rule="evenodd">
        <g id="1a-invalid-thread-copy" transform="translate(-333.000000, -215.000000)">
            <g id="cendol-jatoh" transform="translate(333.000000, 215.000000)">
                <path d="M127.194481,167.729277 C123.694274,169.887153 118.862401,171.940606 115.309734,173.049422 C105.605034,176.078335 87.3598719,181.463508 71.4695951,182.713362 C55.5793184,183.963216 5,181.463508 5,168.453668 C5,155.443828 41.5630066,151 58.1824516,151 C74.6825281,151 95.121397,159.814708 119.31527,159.941331 C133.65068,159.865194 141.077505,156.66155 143.720388,157.545824 C145.351945,158.091721 139.843309,161.486206 127.194481,167.729277 Z" id="Combined-Shape-Copy" fill="#F2F2F2" fill-rule="nonzero"></path>
                <ellipse id="Oval" fill="#F2F2F2" fill-rule="nonzero" cx="189" cy="165.5" rx="73" ry="4.5"></ellipse>
                <g id="Group-58" transform="translate(184.905148, 105.716633) rotate(-101.000000) translate(-184.905148, -105.716633) translate(117.905148, 31.716633)">
                    <g id="Group-10" transform="translate(94.237750, 47.654090)">
                        <path d="M2.78750322,62.3258735 C2.79422615,62.3275803 3.94048438,62.58359 5.81449893,62.9454172 C9.91043927,63.7851293 11.5115284,63.7365032 15.6797401,63.56583 C15.8024335,63.3678491 15.9536992,63.1271999 16.104965,62.8370555 C16.9503724,61.3078238 17.9991483,58.6948173 18.9907793,55.564671 C20.9992523,49.2787776 22.9186466,40.8816568 24.3640749,33.1501614 C25.9338772,24.9629686 26.9238275,16.9327952 27.0650088,13.968202 C26.9960989,13.935774 26.9271889,13.9016394 26.8565983,13.865798 C25.7237859,13.3401246 23.6985056,12.7751964 21.6799482,12.3843548 C17.9991483,11.6760611 14.4662527,11.4695465 14.4595298,11.4763734 L14.9435802,0.41163073 C15.088123,0.425284585 19.1117919,0.638626068 23.7119514,1.51588625 C26.2548967,2.01254522 28.9474271,2.67475719 31.5290292,3.84898871 C33.9223895,5.02322023 37.2031755,6.82211562 38.1796799,11.3569022 C38.5326333,14.108154 38.1796799,16.5675546 37.7157983,20.81049 C37.2216635,24.8656849 36.4233165,29.9227314 35.4266433,35.2835762 C33.0937893,47.4320937 30.0348597,60.6456118 26.0448054,68.1654724 C24.4934911,70.536123 23.4295887,73.3590575 18.5151326,74.4445389 C11.6359025,75.2228087 8.92048898,74.7389344 3.78417644,73.8155925 C1.78578782,73.4298711 0.508432607,73.1431401 0.474817997,73.1431401 L2.78750322,62.3258735 Z" id="Fill-1" fill="#D0D2D3"></path>
                        <path d="M16.9914772,33.2832099 C23.0209627,32.0288336 32.8070979,31.4028673 46.3498828,31.4053109" id="Path-8" stroke="#FEFEFE" stroke-width="4" stroke-linecap="round" fill-rule="nonzero" transform="translate(31.670680, 32.344260) rotate(103.000000) translate(-31.670680, -32.344260) "></path>
                    </g>
                    <path d="M63.9368853,146.539418 C57.9480115,146.539418 51.5265229,145.990656 45.0110827,144.896997 C19.1568893,140.55714 0.611263279,129.210909 2.78744654,119.064612 C4.96581473,108.918314 26.9221055,104.367841 52.7762988,108.70963 C78.6239374,113.049486 97.1695634,124.395717 94.9955651,134.542015 C93.8943639,139.681827 87.8464972,143.52316 77.9684605,145.360739 C73.7406346,146.147169 68.992797,146.539418 63.9368853,146.539418 Z" id="Fill-23-Copy" fill="#E5E6E7"></path>
                    <path d="M21.3691263,14.1864237 C19.3538035,24.8452197 38.3790017,37.4166607 63.8559845,42.2707744 C89.3306745,47.1271897 111.620742,42.4203796 113.631479,31.7638853 C115.642216,21.1096926 96.6216037,8.53364837 71.1492064,3.67953466 C45.6768091,-1.17457905 23.3844492,3.53223107 21.3691263,14.1864237" id="Fill-11" fill="#FEFEFE"></path>
                    <path d="M21.7793394,15.3172205 C19.7569148,25.9086027 38.8491553,38.400533 64.4159155,43.2239458 C89.9803749,48.0496458 112.348989,43.3726048 114.366812,32.7835098 C114.366812,32.7835098 95.2354577,133.000261 95.0905058,133.766426 C93.0726828,144.350947 70.7040685,149.023414 45.1396091,144.204575 C19.5728488,139.38345 0.480608348,126.886945 2.50533378,116.300137 C2.65258654,115.531684 21.7793394,15.3172205 21.7793394,15.3172205" id="Fill-13" fill="#FEFEFE" opacity="0.636346726"></path>
                    <path d="M-29.6871097,83.4192027 C10.2913431,79.1552716 32.4892624,74.8815317 36.906648,70.597983 C43.5327264,64.1726599 74.794088,75.4412734 62.7008448,83.4298168 C54.6386826,88.7555123 23.8426978,88.7519743 -29.6871097,83.4192027 Z" id="Path-5" fill="#8CC640" fill-rule="nonzero" transform="translate(17.883691, 78.058881) rotate(100.000000) translate(-17.883691, -78.058881) "></path>
                    <path d="M20.4946515,106.355159 C21.1694851,105.85218 21.796686,105.250651 22.3419796,104.546736 L22.3381726,104.550561 C23.0766511,103.598938 22.9096146,102.234716 21.9668672,101.494936 C21.0241186,100.751329 19.6580023,100.919267 18.9261869,101.867066 C18.6226095,102.252496 18.2856929,102.580517 17.918293,102.851131 C16.1574256,104.106643 14.0324889,104.119366 12.3316462,102.504977 C11.4726467,101.666689 10.1007696,101.680606 9.26610854,102.546102 C8.43525562,103.411599 8.45758644,104.787254 9.31563358,105.624585 C12.4859417,108.749015 17.1880586,108.80981 20.4242193,106.413492 C20.4461089,106.39054 20.4727604,106.373328 20.4946515,106.355159" id="Fill-33-Copy" fill="#366732" transform="translate(15.728161, 104.566119) rotate(-55.000000) translate(-15.728161, -104.566119) "></path>
                    <path d="M64.3416408,147.280967 C58.058264,147.280967 51.323291,146.630307 44.4874538,145.333571 C31.8771453,142.94171 20.3786345,138.629947 12.1077759,133.186402 C3.26153332,127.367125 -0.970175378,120.800964 0.187469743,114.704469 C0.334181204,113.94613 19.2003581,14.5533306 19.3929169,13.5498489 L23.8882478,14.4021211 C23.8859554,14.4044121 23.8859554,14.4067032 23.8859554,14.4089942 C22.3409003,22.5995126 38.3072335,34.7077334 64.5456614,39.6839029 C76.5737088,41.9680838 88.2166386,42.1696965 97.3310882,40.2543753 C105.645502,38.5063011 110.860636,35.1499068 111.637748,31.046629 L116.135371,31.8989011 C116.133079,31.9034832 116.133079,31.9057742 116.133079,31.9103564 C115.841948,33.4361984 97.0697584,132.295182 96.9322164,133.048939 C95.7745712,139.150016 89.4293006,143.706922 79.0655113,145.885715 C74.6274896,146.818174 69.646177,147.280967 64.3416408,147.280967 M22.1437568,23.5892479 C17.4077275,48.5273716 4.80200366,114.931283 4.6828006,115.563614 C3.90339596,119.66231 7.52533515,124.695756 14.6247944,129.367215 C22.4027942,134.48543 33.3098744,138.558924 45.3402142,140.840814 C57.3682616,143.122704 69.0111915,143.322025 78.1233486,141.408995 C86.4423469,139.663212 91.6574809,136.306818 92.4345931,132.20354 C92.5515038,131.578082 105.134304,65.3116338 109.879503,40.3139427 C106.929227,42.231555 103.023034,43.7299044 98.2709584,44.7288039 C88.5811249,46.765551 76.3009172,46.5708114 63.692901,44.178951 C44.0221034,40.4468239 28.3812863,32.3456566 22.1437568,23.5892479" id="Fill-19" fill="#D0D2D3"></path>
                    <ellipse id="Oval" fill="#D8DF26" fill-rule="nonzero" opacity="0.50764974" cx="32.8572902" cy="79.3814149" rx="4.12663755" ry="4.12386707"></ellipse>
                    <ellipse id="Oval-Copy-2" fill="#D8DF26" fill-rule="nonzero" opacity="0.50764974" cx="79.4293426" cy="88.2182729" rx="4.12663755" ry="4.12386707"></ellipse>
                    <path d="M83.3121968,46.5407855 C77.0181574,46.5407855 70.2694593,45.8937379 63.422022,44.6041995 C36.2504176,39.4870556 16.7597915,26.1086636 19.0468631,14.1451186 C21.3362309,2.18157354 44.4113136,-3.18390895 71.582918,1.9355132 C98.7476337,7.05265701 118.23826,20.431049 115.953484,32.3945941 C114.796171,38.4549692 108.440133,42.9843022 98.0587567,45.1510002 C93.6155002,46.0782832 88.6257346,46.5407855 83.3121968,46.5407855 Z M23.5498223,14.9926598 C21.9906641,23.1377128 37.9840913,35.1855563 64.2762295,40.1341032 C76.3246879,42.4056047 87.9873753,42.6060983 97.1172915,40.701409 C105.445814,38.9630382 110.669798,35.6252753 111.448229,31.5470529 C113.005091,23.4019998 97.01396,11.3541564 70.7287106,6.40333111 C44.4388687,1.45022752 25.1066843,6.84760673 23.5498223,14.9949381 L23.5498223,14.9926598 Z" id="Fill-21" fill="#E5E6E7"></path>
                    <path d="M83.3121968,46.5407855 C77.0181574,46.5407855 70.2694593,45.8937379 63.422022,44.6041995 C36.2504176,39.4870556 16.7597915,26.1086636 19.0468631,14.1451186 C21.3362309,2.18157354 44.4113136,-3.18390895 71.582918,1.9355132 C98.7476337,7.05265701 118.23826,20.431049 115.953484,32.3945941 C114.796171,38.4549692 108.440133,42.9843022 98.0587567,45.1510002 C93.6155002,46.0782832 88.6257346,46.5407855 83.3121968,46.5407855 Z M23.5498223,14.9926598 C21.9906641,23.1377128 37.9840913,35.1855563 64.2762295,40.1341032 C76.3246879,42.4056047 87.9873753,42.6060983 97.1172915,40.701409 C105.445814,38.9630382 110.669798,35.6252753 111.448229,31.5470529 C113.005091,23.4019998 97.01396,11.3541564 70.7287106,6.40333111 C44.4388687,1.45022752 25.1066843,6.84760673 23.5498223,14.9949381 L23.5498223,14.9926598 Z" id="Fill-23" fill="#E5E6E7"></path>
                    <path d="M25.8187707,58.2626292 C27.5871907,58.0235497 28.8290587,56.4132793 28.5849429,54.6637802 C28.5125598,54.1335863 28.5409453,53.2729003 28.7268707,52.3165825 C29.1711046,49.53201 31.2304766,45.9823832 32.485118,45.277802 C33.9498126,44.2708556 34.3230827,42.2836834 33.3097184,40.8309241 C32.2977734,39.3725394 30.2866569,39.0026694 28.8120274,40.0053968 C25.2595753,42.5874549 23.2740058,46.9330756 22.3826994,51.1239979 C22.1059402,52.5936334 21.9952366,54.0576434 22.1840005,55.5132154 C22.3770223,56.9195652 23.4556733,57.988391 24.7869558,58.2373149 C25.1219053,58.3006006 25.4639513,58.3118514 25.8187707,58.2626292" id="Fill-37" fill="#119948"></path>
                    <path d="M32.4235808,39.2756277 L17.0584896,120.181269 C17.0584896,120.181269 13.112564,117.662681 11.790393,113.002607 L26.4257739,35.9365559 C26.4257739,35.9365559 29.2714153,39.559026 32.4235808,39.2756277" id="Fill-47" fill="#FEFEFE" opacity="0.771484375"></path>
                </g>
                <path d="M122.194481,167.729277 C118.694274,169.887153 113.862401,171.940606 110.309734,173.049422 C100.605034,176.078335 82.3598719,181.463508 66.4695951,182.713362 C50.5793184,183.963216 6.53699317e-13,181.463508 6.53699317e-13,168.453668 C6.58940905e-13,155.443828 36.5630066,151 53.1824516,151 C69.6825281,151 90.121397,159.814708 114.31527,159.941331 C128.65068,159.865194 136.077505,156.66155 138.720388,157.545824 C140.351945,158.091721 134.843309,161.486206 122.194481,167.729277 Z" id="Combined-Shape" fill="#8CC640" fill-rule="nonzero"></path>
                <path d="M8.03530713,162.626907 C7.82975039,163.711549 8.54279884,164.758529 9.62630118,164.964913 C10.7113094,165.169789 11.757164,164.456487 11.9649796,163.372599 C12.1697834,162.287957 11.455229,161.240977 10.3724797,161.035347 C9.28897731,160.829717 8.24086386,161.542266 8.03530713,162.626907" id="Fill-43" fill="#F5EA16"></path>
                <path d="M236.035307,153.626907 C235.82975,154.711549 236.542799,155.758529 237.626301,155.964913 C238.711309,156.169789 239.757164,155.456487 239.96498,154.372599 C240.169783,153.287957 239.455229,152.240977 238.37248,152.035347 C237.288977,151.829717 236.240864,152.542266 236.035307,153.626907" id="Fill-43-Copy-3" fill="#F5EA16"></path>
                <path d="M60.0617875,169.847088 C59.7020632,171.745211 60.949898,173.577427 62.8460271,173.938597 C64.7447915,174.297132 66.575037,173.048852 66.9387143,171.152047 C67.2971209,169.253925 66.0466508,167.421709 64.1518394,167.061856 C62.2557103,166.702004 60.4215118,167.948965 60.0617875,169.847088" id="Fill-43-Copy-2" fill="#F5EA16"></path>
                <path d="M37.923294,176.009987 C39.299961,174.576851 39.9403132,172.832474 40.2692377,171.097086 C40.7494158,168.334001 40.504232,165.490758 39.3703204,163.054218 L39.3678174,163.059286 C38.6764526,161.618394 36.9529423,161.010205 35.5255683,161.697977 C34.1070309,162.388321 33.5158052,164.118918 34.2121997,165.55602 C34.6617565,166.403168 34.9456499,168.470915 34.6323391,169.998171 C34.4569698,170.983884 34.0700355,171.707295 33.8237215,171.931066 C33.5483049,172.128069 33.6833454,172.159042 33.0400336,172.102043 C32.9062636,172.073613 32.7232245,172.020878 32.4909116,171.94257 C30.9922052,171.427895 29.3710752,172.231731 28.8622531,173.74302 C28.36478,175.254351 29.1716509,176.897521 30.6779233,177.412225 C31.103406,177.554731 31.5401664,177.678237 31.9919495,177.772602 C32.041171,177.784212 32.0941803,177.797105 32.1446486,177.804911 C34.3327772,178.230771 36.6058511,177.43192 37.923294,176.009987" id="Fill-27" fill="#119948" transform="translate(34.608738, 169.667121) rotate(58.000000) translate(-34.608738, -169.667121) "></path>
                <path d="M110.575263,178.117557 C102.555717,178.117557 114.782633,189.882443 126.455536,189.882443 C138.128438,189.882443 147.128002,191.338739 145.885139,184 C144.642276,176.661261 118.594809,178.117557 110.575263,178.117557 Z" id="Path-4" fill="#8CC640" fill-rule="nonzero"></path>
                <path d="M115.888003,149.323548 C113.342876,149.324284 117.221342,155.939217 120.925919,155.938146 C124.630495,155.937074 127.486407,156.755205 127.093172,152.628335 C126.699936,148.501464 118.43313,149.322812 115.888003,149.323548 Z" id="Path-4-Copy" fill="#D8DF26" fill-rule="nonzero" transform="translate(121.099936, 152.629959) rotate(-182.000000) translate(-121.099936, -152.629959) "></path>
                <path d="M56.4505522,148.234921 C57.4817614,148.070606 58.1927193,147.119169 58.0340238,146.102031 C57.6424614,143.731243 56.0753085,141.35895 53.3083192,140.647004 C52.2992764,140.409728 51.2788381,141.031236 51.0366092,142.033429 C50.7885869,143.034003 51.4087924,144.03637 52.4211492,144.273635 C53.1862687,144.379863 54.1736301,145.571013 54.3087868,146.682468 C54.4301558,147.483416 55.0534667,148.085899 55.8134936,148.225741 C56.0179884,148.263518 56.2308866,148.268488 56.4505522,148.234921" id="Fill-31" fill="#6EBE44" transform="translate(54.519087, 144.426922) rotate(-30.000000) translate(-54.519087, -144.426922) "></path>
                <path d="M87.6922035,171.685089 C89.15321,171.445115 90.160624,170.05474 89.9359555,168.568204 C89.3815895,165.10332 87.1616898,161.636047 83.2416356,160.595118 C81.8120989,160.248184 80.3662779,161.156331 80.0229338,162.62096 C79.6713821,164.083223 80.5499038,165.548246 81.9841356,165.895163 C83.0681119,166.050536 84.4667761,167.791517 84.6580804,169.41589 C84.8299013,170.586465 85.7128877,171.467073 86.7896435,171.671571 C87.0793581,171.726813 87.3809838,171.734111 87.6922035,171.685089" id="Fill-31-Copy" fill="#119948" transform="translate(84.956392, 166.119525) rotate(-210.000000) translate(-84.956392, -166.119525) "></path>
                <path d="M96.7177485,193.269868 C97.3859587,192.771846 98.0070454,192.176302 98.5470799,191.47945 L98.54331,191.483237 C99.2746656,190.541161 99.1097336,189.191009 98.1766898,188.459125 C97.2436459,187.723453 95.8912035,187.890092 95.1664452,188.828381 C94.8657978,189.209945 94.5321639,189.534701 94.1683711,189.802648 C92.4248043,191.04581 90.3212145,191.059066 88.6379657,189.461797 C87.787859,188.632391 86.4297619,188.646593 85.603217,189.503456 C84.7804419,190.36032 84.8021187,191.721833 85.6512829,192.550292 C88.7887606,195.641628 93.4436128,195.70033 96.6480058,193.327623 C96.6696826,193.3049 96.6960717,193.287857 96.7177485,193.269868" id="Fill-33" fill="#366732"></path>
                <path d="M79.6745532,150.679646 C80.26459,149.807829 80.0165548,148.63754 79.1215708,148.069512 C78.5427574,147.74446 77.3061706,146.462343 77.1133128,145.800487 C77.0478865,145.628804 77.0410951,145.568257 77.0410975,145.551669 L77.0436484,145.545862 C77.0478994,145.539226 77.051301,145.529272 77.0547022,145.520978 C77.0836043,145.510191 77.1371572,145.496912 77.2459619,145.477819 C77.7066888,145.34919 78.8337977,145.428651 80.1573798,144.680312 C81.3755658,143.892175 82.2172405,142.789741 82.5387564,141.337363 C82.6782595,140.64228 82.652038,139.750647 82.1251473,138.929589 C81.6050574,138.103554 80.6675621,137.608521 79.7631679,137.455209 C79.5668196,137.419573 79.4010694,137.399691 79.2574182,137.390588 L79.2540181,137.390588 C78.1915116,137.302824 77.2538328,138.07599 77.1678313,139.112789 C77.0911996,140.013561 77.6707939,140.816364 78.5190721,141.073363 C78.3889937,141.253368 78.2308661,141.424253 78.1246081,141.46657 C78.0684961,141.542056 77.5304256,141.616784 76.5180356,141.767058 C75.5702593,141.830234 73.7825442,142.748674 73.3479412,144.443262 C73.2969193,144.588419 73.2662988,144.726109 73.2441815,144.843062 C72.9617262,146.572464 73.7401572,147.838059 74.4786731,148.85732 C75.2647888,149.883209 76.1682396,150.681817 76.9952267,151.219996 C77.2153601,151.361796 77.454201,151.454657 77.6981489,151.499411 C78.4427425,151.636987 79.2333,151.338277 79.6745532,150.679646" id="Fill-25" fill="#119948" transform="translate(77.897832, 144.458025) rotate(-89.000000) translate(-77.897832, -144.458025) "></path>
                <circle id="Oval" fill="#4A4A4A" fill-rule="nonzero" cx="184.5" cy="127.5" r="2.5"></circle>
                <circle id="Oval-Copy" fill="#4A4A4A" fill-rule="nonzero" cx="182.5" cy="99.5" r="2.5"></circle>
                <path d="M210,128 C200.666667,117.340281 200.666667,106.673615 210,96" id="Path-10" stroke="#484848" stroke-width="3" stroke-linecap="round" fill-rule="nonzero"></path>
                <g id="ups" transform="translate(217.000000, 0.000000)">
                    <ellipse id="Oval" fill="#1998ED" fill-rule="nonzero" cx="25" cy="19.0666667" rx="25" ry="19.0666667"></ellipse>
                    <text id="Ups" font-family="VAGRoundedBold, VAGRounded" font-size="18" font-weight="bold" fill="#FFFFFF">
                        <tspan x="9.52024117" y="23.2752381">Ups</tspan>
                    </text>
                    <path d="M19.9359786,31.8933333 C23.9664471,36.9231689 23.9664471,42.5187555 19.9359786,48.680093 C13.8902758,57.9220994 30.3956337,45.76 30.3956337,31.8933333 C30.3956337,22.6488889 26.909082,22.6488889 19.9359786,31.8933333 Z" id="Path-11" fill="#1998ED" fill-rule="nonzero"></path>
                </g>
            </g>
        </g>
    </g>
</svg>