<?xml version="1.0" encoding="UTF-8"?>
<svg width="480px" height="480px" viewBox="0 0 480 480" version="1.1" xmlns="http://www.w3.org/2000/svg" xmlns:xlink="http://www.w3.org/1999/xlink">
    <!-- Generator: Sketch 52.6 (67491) - http://www.bohemiancoding.com/sketch -->
    <title>twitter invalid placeholder web</title>
    <desc>Created with Sketch.</desc>
    <g id="Page-1" stroke="none" stroke-width="1" fill="none" fill-rule="evenodd">
        <g id="Desktop-HD-Copy" transform="translate(-920.000000, -272.000000)">
            <g id="twitter-invalid-placeholder-web" transform="translate(920.000000, 272.000000)">
                <rect id="bg" stroke="#D7D7D7" fill="#FFFFFF" x="0.5" y="0.5" width="479" height="479" rx="2"></rect>
                <path d="M185.476336,426.55554 C188.665328,429.277393 188.832942,434.162465 185.973973,437.112779 L176.14799,447.258669 C175.513236,447.913754 174.482406,447.913754 173.847653,447.258669 L164.021669,437.112779 C161.167808,434.162465 161.335422,429.277393 164.524414,426.55554 C167.307163,424.184141 171.450814,424.610665 173.999994,427.246182 L175.000375,428.277011 L176.000756,427.246182 C178.554994,424.610665 182.693587,424.184141 185.476336,426.55554 Z" id="heart" stroke="#F4F4F4" stroke-width="2"></path>
                <path d="M140.073579,426 C140.608698,426 141.063543,426.187289 141.438127,426.561873 C141.812711,426.936457 142,427.391302 142,427.926421 L142,444.675585 C142,445.210705 141.812711,445.66555 141.438127,446.040134 C141.063543,446.414718 140.608698,446.602007 140.073579,446.602007 L119.926421,446.602007 C119.391302,446.602007 118.936457,446.414718 118.561873,446.040134 C118.187289,445.66555 118,445.210705 118,444.675585 L118,427.926421 C118,427.391302 118.187289,426.936457 118.561873,426.561873 C118.936457,426.187289 119.391302,426 119.926421,426 L140.073579,426 Z M138.013378,427.926421 L121.986622,427.926421 L129.317726,433.973244 L129.371237,434 C129.549611,434.196211 129.772574,434.294314 130.040134,434.294314 L130.06689,434.294314 C130.334449,434.294314 130.566331,434.196211 130.762542,434 L130.789298,433.946488 L130.842809,433.919732 L138.013378,427.926421 Z M140.073579,444.675585 L140.073579,428.702341 L132.100334,435.364548 C131.547377,435.935343 130.869569,436.220736 130.06689,436.220736 C129.26421,436.220736 128.586402,435.944261 128.033445,435.391304 L119.926421,428.702341 L119.926421,444.675585 L140.073579,444.675585 Z" id="mail---anticon" fill="#F4F4F4"></path>
                <path d="M97.706663,441.78749 C98.2581506,442.181105 98.397293,442.921466 98.0331936,443.480028 L95.3592621,447.467685 C95.1306004,447.797569 94.7470184,448 94.3560177,448 C93.9719797,448 93.5925679,447.797578 93.3666894,447.472378 L90.6927579,443.48378 C90.3263313,442.920544 90.4659486,442.180174 91.0076901,441.794064 C91.5703011,441.422002 92.303145,441.561643 92.6848651,442.108948 L93.1677029,442.835374 L93.1677029,430.713895 C93.1677029,428.348481 91.2576867,426.423532 88.9093549,426.423532 L79.6704919,426.423532 C78.9974922,426.423532 78.4705882,425.891217 78.4705882,425.211766 C78.4705882,424.543562 79.0090811,424 79.6704919,424 L88.9093549,424 C92.5805083,424 95.5670543,427.012064 95.5670543,430.713886 L95.5670543,442.825403 L96.0471088,442.113622 C96.4172401,441.560693 97.1459043,441.41731 97.706663,441.78749 Z M88.5652171,445.574061 C89.2377892,445.574061 89.7647154,446.106907 89.7647059,446.787026 C89.7647059,447.455895 89.2266463,448 88.5652076,448 L79.3370786,448 C75.659738,448 72.6674993,444.984932 72.6674993,441.279419 L72.6674993,429.166737 L72.2008758,429.867384 C71.9582877,430.209787 71.594173,430.401162 71.1961926,430.401162 C70.9791202,430.401162 70.7448727,430.329865 70.5356848,430.19947 C69.9767549,429.800784 69.8376066,429.059676 70.2017214,428.500567 L72.8868991,424.507992 C73.0905298,424.195608 73.4569624,424.005175 73.8642143,424.001419 C74.2853829,423.980775 74.6545989,424.187164 74.8707498,424.507992 L77.5424763,428.496811 C77.9089184,429.060608 77.7692952,429.801716 77.2275308,430.188212 C76.6597949,430.566264 75.9301689,430.422737 75.5581696,429.868316 L75.0674269,429.131665 L75.0674269,441.279419 C75.0674269,443.647193 76.9826249,445.574061 79.3370881,445.574061 L88.5652171,445.574061 Z" id="retweet" fill="#F4F4F4"></path>
                <path d="M37.0352941,446.4 L37.0352941,439.100726 L33.4352941,439.100726 C29.4588439,439.100726 26.2352941,435.720313 26.2352941,431.550363 C26.2352941,427.380413 29.4588439,424 33.4352941,424 L43.0352941,424 C47.0117443,424 50.2352941,427.380413 50.2352941,431.550363 C50.2352941,433.786494 49.3061059,435.858735 47.717252,437.286628 L47.290865,437.669819 L37.0352941,446.4 Z" id="comment" stroke="#F4F4F4" stroke-width="2" fill-rule="nonzero"></path>
                <path d="M23,368 L457,368 C458.104569,368 459,368.895431 459,370 L459,380 C459,381.104569 458.104569,382 457,382 L23,382 C21.8954305,382 21,381.104569 21,380 L21,370 C21,368.895431 21.8954305,368 23,368 Z M23,389 L127,389 C128.104569,389 129,389.895431 129,391 L129,401 C129,402.104569 128.104569,403 127,403 L23,403 C21.8954305,403 21,402.104569 21,401 L21,391 C21,389.895431 21.8954305,389 23,389 Z M23,345 L457,345 C458.104569,345 459,345.895431 459,347 L459,357 C459,358.104569 458.104569,359 457,359 L23,359 C21.8954305,359 21,358.104569 21,357 L21,347 C21,345.895431 21.8954305,345 23,345 Z" id="tweet" fill="#F4F4F4"></path>
                <g id="follow-button" transform="translate(342.000000, 293.000000)">
                    <rect id="follow-placeholder" fill="#F4F4F4" x="42" y="10" width="60" height="14" rx="2"></rect>
                    <path d="M32.5329229,11.8578223 C32.5481664,12.0710023 32.5481664,12.2842739 32.5481664,12.4974539 C32.5481664,18.9999256 27.5989747,26.4923089 18.5532657,26.4923089 C15.7664529,26.4923089 13.1776681,25.6851819 11,24.2842453 C11.3959646,24.3298842 11.77664,24.3451277 12.1878023,24.3451277 C14.4872353,24.3451277 16.6040211,23.5684877 18.2944009,22.2436313 C16.1319763,22.1979008 14.3197858,20.7816749 13.6953976,18.8324303 C13.9999928,18.878115 14.3045423,18.9085562 14.624381,18.9085562 C15.0659846,18.9085562 15.5076339,18.847628 15.9187505,18.7410609 C13.6649564,18.284168 11.9745765,16.304528 11.9745765,13.9136798 L11.9745765,13.8527974 C12.6293601,14.218275 13.3908482,14.4466986 14.1978836,14.477094 C12.8730272,13.5938411 12.0050635,12.0862458 12.0050635,10.3806682 C12.0050635,9.4669741 12.248639,8.62940591 12.6750906,7.89845062 C15.09638,10.8832 18.7360045,12.8323988 22.817141,13.0456246 C22.7410151,12.680147 22.6953304,12.2994716 22.6953304,11.9187505 C22.6953304,9.20810936 24.888242,7 27.6140809,7 C29.0303525,7 30.3094785,7.59390117 31.2080207,8.55327999 C32.3196513,8.34009995 33.3855973,7.9289376 34.3298241,7.36547764 C33.9643007,8.50764106 33.1876607,9.46701987 32.1673995,10.0761188 C33.1572653,9.96955164 34.1166441,9.69539763 34.9998512,9.31472226 C34.3299157,10.2892988 33.4923017,11.1573082 32.5329229,11.8578223 Z" id="Twitter" fill="#F4F4F4"></path>
                    <rect id="Rectangle" stroke="#F4F4F4" x="0.5" y="0.5" width="116" height="34" rx="17"></rect>
                </g>
                <rect id="follower-counts" fill="#F4F4F4" x="69" y="313" width="60" height="14" rx="2"></rect>
                <rect id="username" fill="#F4F4F4" x="69" y="293" width="100" height="14" rx="2"></rect>
                <circle id="avatar" fill="#F4F4F4" cx="38" cy="308.749983" r="17"></circle>
                <rect id="twit-image" fill="#F4F4F4" x="0" y="0" width="480" height="277" rx="2"></rect>
                <g id="Group" transform="translate(85.000000, 90.000000)">
                    <path d="M174.860534,10.1205258 C174.892292,10.5646536 174.892292,11.0089722 174.892292,11.4531 C174.892292,25 164.581412,40.6092286 145.736068,40.6092286 C139.930172,40.6092286 134.536837,38.9277036 130,36.0090676 C130.824931,36.1041493 131.61801,36.1359067 132.474604,36.1359067 C137.265119,36.1359067 141.675116,34.5178967 145.196763,31.757762 C140.691684,31.6624896 136.916263,28.7120007 135.615447,24.6510492 C136.250024,24.7462263 136.884506,24.8096459 137.550841,24.8096459 C138.470854,24.8096459 139.390962,24.6827113 140.24746,24.4606951 C135.552027,23.5088292 132.03038,19.3845535 132.03038,14.4035889 L132.03038,14.2767497 C133.394521,15.0381662 134.980965,15.5140515 136.662299,15.5773757 C133.902164,13.7372541 132.093895,10.5964111 132.093895,7.04310243 C132.093895,5.13956123 132.601347,3.39461668 133.489794,1.87178372 C138.534178,8.09005009 146.116776,12.1509062 154.619196,12.5951294 C154.4606,11.8337129 154.365423,11.0406343 154.365423,10.2474604 C154.365423,4.60025635 158.934017,0 164.612883,0 C167.563467,0 170.22833,1.23730178 172.100304,3.23602003 C174.416216,2.79189221 176.63695,1.93529867 178.604102,0.761416479 C177.84259,3.14093834 176.22458,5.1396566 174.099022,6.40862049 C176.161255,6.18660426 178.159974,5.61544653 180,4.82236794 C178.604292,6.85274831 176.859252,8.66111245 174.860534,10.1205258 Z" id="Twitter" fill="#4A4A4A"></path>
                    <path d="M24.0166016,60.203125 L27.3037109,69.484375 L30.5732422,60.203125 L34.0361328,60.203125 L34.0361328,73 L31.390625,73 L31.390625,69.5019531 L31.6542969,63.4638672 L28.2001953,73 L26.3896484,73 L22.9443359,63.4726562 L23.2080078,69.5019531 L23.2080078,73 L20.5712891,73 L20.5712891,60.203125 L24.0166016,60.203125 Z M35.7763672,68.1572266 C35.7763672,67.2138625 35.958006,66.3730506 36.3212891,65.6347656 C36.6845721,64.8964807 37.2075161,64.3251973 37.8901367,63.9208984 C38.5727573,63.5165995 39.3652299,63.3144531 40.2675781,63.3144531 C41.5507877,63.3144531 42.5981405,63.7070273 43.409668,64.4921875 C44.2211955,65.2773477 44.6738277,66.3437433 44.7675781,67.6914062 L44.7851562,68.3417969 C44.7851562,69.8007885 44.3779338,70.971187 43.5634766,71.8530273 C42.7490194,72.7348677 41.6562569,73.1757812 40.2851562,73.1757812 C38.9140556,73.1757812 37.8198283,72.7363325 37.0024414,71.8574219 C36.1850545,70.9785112 35.7763672,69.7832107 35.7763672,68.2714844 L35.7763672,68.1572266 Z M38.3164062,68.3417969 C38.3164062,69.2441451 38.4863264,69.9340796 38.8261719,70.4116211 C39.1660173,70.8891625 39.6523406,71.1279297 40.2851562,71.1279297 C40.9003937,71.1279297 41.3808576,70.8920922 41.7265625,70.4204102 C42.0722674,69.9487281 42.2451172,69.1943411 42.2451172,68.1572266 C42.2451172,67.2724565 42.0722674,66.5869165 41.7265625,66.1005859 C41.3808576,65.6142554 40.8945344,65.3710938 40.2675781,65.3710938 C39.6464813,65.3710938 39.1660173,65.6127906 38.8261719,66.0961914 C38.4863264,66.5795923 38.3164062,67.3281199 38.3164062,68.3417969 Z M48.828125,64.5273438 C49.5019565,63.718746 50.3486277,63.3144531 51.3681641,63.3144531 C53.4306744,63.3144531 54.4765624,64.5126833 54.5058594,66.9091797 L54.5058594,73 L51.9658203,73 L51.9658203,66.9794922 C51.9658203,66.4345676 51.848634,66.0317396 51.6142578,65.7709961 C51.3798816,65.5102526 50.9902371,65.3798828 50.4453125,65.3798828 C49.7011682,65.3798828 49.162111,65.6669893 48.828125,66.2412109 L48.828125,73 L46.2880859,73 L46.2880859,59.5 L48.828125,59.5 L48.828125,64.5273438 Z M56.0263672,68.1572266 C56.0263672,67.2138625 56.208006,66.3730506 56.5712891,65.6347656 C56.9345721,64.8964807 57.4575161,64.3251973 58.1401367,63.9208984 C58.8227573,63.5165995 59.6152299,63.3144531 60.5175781,63.3144531 C61.8007877,63.3144531 62.8481405,63.7070273 63.659668,64.4921875 C64.4711955,65.2773477 64.9238277,66.3437433 65.0175781,67.6914062 L65.0351562,68.3417969 C65.0351562,69.8007885 64.6279338,70.971187 63.8134766,71.8530273 C62.9990194,72.7348677 61.9062569,73.1757812 60.5351562,73.1757812 C59.1640556,73.1757812 58.0698283,72.7363325 57.2524414,71.8574219 C56.4350545,70.9785112 56.0263672,69.7832107 56.0263672,68.2714844 L56.0263672,68.1572266 Z M58.5664062,68.3417969 C58.5664062,69.2441451 58.7363264,69.9340796 59.0761719,70.4116211 C59.4160173,70.8891625 59.9023406,71.1279297 60.5351562,71.1279297 C61.1503937,71.1279297 61.6308576,70.8920922 61.9765625,70.4204102 C62.3222674,69.9487281 62.4951172,69.1943411 62.4951172,68.1572266 C62.4951172,67.2724565 62.3222674,66.5869165 61.9765625,66.1005859 C61.6308576,65.6142554 61.1445344,65.3710938 60.5175781,65.3710938 C59.8964813,65.3710938 59.4160173,65.6127906 59.0761719,66.0961914 C58.7363264,66.5795923 58.5664062,67.3281199 58.5664062,68.3417969 Z M68.9375,63.4902344 L69.0166016,64.5888672 C69.6962925,63.7392536 70.6074162,63.3144531 71.75,63.3144531 C72.7578175,63.3144531 73.50781,63.6103486 74,64.2021484 C74.49219,64.7939483 74.7441406,65.678705 74.7558594,66.8564453 L74.7558594,73 L72.2158203,73 L72.2158203,66.9179688 C72.2158203,66.3789036 72.098634,65.9877942 71.8642578,65.7446289 C71.6298816,65.5014636 71.2402371,65.3798828 70.6953125,65.3798828 C69.9804652,65.3798828 69.4443377,65.6845673 69.0869141,66.2939453 L69.0869141,73 L66.546875,73 L66.546875,63.4902344 L68.9375,63.4902344 Z M83.5449219,63.4902344 L83.6240234,64.5537109 C84.2978549,63.7275349 85.2089786,63.3144531 86.3574219,63.3144531 C87.5820374,63.3144531 88.4228493,63.7978467 88.8798828,64.7646484 C89.5478549,63.7978467 90.4999938,63.3144531 91.7363281,63.3144531 C92.7675833,63.3144531 93.5351537,63.6147431 94.0390625,64.215332 C94.5429713,64.815921 94.7949219,65.7197205 94.7949219,66.9267578 L94.7949219,73 L92.2460938,73 L92.2460938,66.9355469 C92.2460938,66.3964817 92.1406261,66.0024427 91.9296875,65.753418 C91.7187489,65.5043933 91.3466824,65.3798828 90.8134766,65.3798828 C90.051754,65.3798828 89.5244155,65.7431604 89.2314453,66.4697266 L89.2402344,73 L86.7001953,73 L86.7001953,66.9443359 C86.7001953,66.3935519 86.591798,65.9951184 86.375,65.7490234 C86.158202,65.5029285 85.7890651,65.3798828 85.2675781,65.3798828 C84.5468714,65.3798828 84.0253922,65.6787079 83.703125,66.2763672 L83.703125,73 L81.1630859,73 L81.1630859,63.4902344 L83.5449219,63.4902344 Z M102.256836,73 C102.139648,72.7714832 102.054688,72.4873064 102.001953,72.1474609 C101.386716,72.8330112 100.586919,73.1757812 99.6025391,73.1757812 C98.6708938,73.1757812 97.8989288,72.9062527 97.2866211,72.3671875 C96.6743133,71.8281223 96.3681641,71.1484416 96.3681641,70.328125 C96.3681641,69.3203075 96.7416955,68.5468777 97.4887695,68.0078125 C98.2358436,67.4687473 99.3154226,67.1962891 100.727539,67.1904297 L101.896484,67.1904297 L101.896484,66.6455078 C101.896484,66.2060525 101.783693,65.8544935 101.558105,65.5908203 C101.332518,65.3271471 100.976565,65.1953125 100.490234,65.1953125 C100.062498,65.1953125 99.727052,65.2978505 99.4838867,65.5029297 C99.2407214,65.7080088 99.1191406,65.989256 99.1191406,66.3466797 L96.5791016,66.3466797 C96.5791016,65.7958957 96.7490217,65.2861352 97.0888672,64.8173828 C97.4287126,64.3486305 97.9091766,63.9809584 98.5302734,63.7143555 C99.1513703,63.4477526 99.8486289,63.3144531 100.62207,63.3144531 C101.793951,63.3144531 102.724118,63.6088838 103.412598,64.1977539 C104.101078,64.786624 104.445312,65.6142525 104.445312,66.6806641 L104.445312,70.8027344 C104.451172,71.7050826 104.577147,72.387693 104.823242,72.8505859 L104.823242,73 L102.256836,73 Z M100.15625,71.2333984 C100.531252,71.2333984 100.876952,71.1499032 101.193359,70.9829102 C101.509767,70.8159171 101.74414,70.5917983 101.896484,70.3105469 L101.896484,68.6757812 L100.947266,68.6757812 C99.6757749,68.6757812 98.9990238,69.11523 98.9169922,69.9941406 L98.9082031,70.1435547 C98.9082031,70.4599625 99.0195301,70.7207021 99.2421875,70.9257812 C99.4648449,71.1308604 99.7695293,71.2333984 100.15625,71.2333984 Z M111.907227,73 C111.790038,72.7714832 111.705078,72.4873064 111.652344,72.1474609 C111.037106,72.8330112 110.23731,73.1757812 109.25293,73.1757812 C108.321284,73.1757812 107.549319,72.9062527 106.937012,72.3671875 C106.324704,71.8281223 106.018555,71.1484416 106.018555,70.328125 C106.018555,69.3203075 106.392086,68.5468777 107.13916,68.0078125 C107.886234,67.4687473 108.965813,67.1962891 110.37793,67.1904297 L111.546875,67.1904297 L111.546875,66.6455078 C111.546875,66.2060525 111.434083,65.8544935 111.208496,65.5908203 C110.982909,65.3271471 110.626956,65.1953125 110.140625,65.1953125 C109.712888,65.1953125 109.377443,65.2978505 109.134277,65.5029297 C108.891112,65.7080088 108.769531,65.989256 108.769531,66.3466797 L106.229492,66.3466797 C106.229492,65.7958957 106.399412,65.2861352 106.739258,64.8173828 C107.079103,64.3486305 107.559567,63.9809584 108.180664,63.7143555 C108.801761,63.4477526 109.49902,63.3144531 110.272461,63.3144531 C111.444342,63.3144531 112.374508,63.6088838 113.062988,64.1977539 C113.751468,64.786624 114.095703,65.6142525 114.095703,66.6806641 L114.095703,70.8027344 C114.101563,71.7050826 114.227538,72.387693 114.473633,72.8505859 L114.473633,73 L111.907227,73 Z M109.806641,71.2333984 C110.181643,71.2333984 110.527342,71.1499032 110.84375,70.9829102 C111.160158,70.8159171 111.39453,70.5917983 111.546875,70.3105469 L111.546875,68.6757812 L110.597656,68.6757812 C109.326166,68.6757812 108.649414,69.11523 108.567383,69.9941406 L108.558594,70.1435547 C108.558594,70.4599625 108.669921,70.7207021 108.892578,70.9257812 C109.115235,71.1308604 109.41992,71.2333984 109.806641,71.2333984 Z M116.741211,73 L116.741211,65.3535156 L115.326172,65.3535156 L115.326172,63.4902344 L116.741211,63.4902344 L116.741211,62.6816406 C116.741211,61.615229 117.04736,60.7876006 117.659668,60.1987305 C118.271976,59.6098603 119.128901,59.3154297 120.230469,59.3154297 C120.582033,59.3154297 121.012693,59.3740229 121.522461,59.4912109 L121.496094,61.4599609 C121.285155,61.4072263 121.027345,61.3808594 120.722656,61.3808594 C119.767573,61.3808594 119.290039,61.8290971 119.290039,62.7255859 L119.290039,63.4902344 L121.179688,63.4902344 L121.179688,65.3535156 L119.290039,65.3535156 L119.290039,73 L116.741211,73 Z M123.157227,76.2080078 L121.830078,75.5136719 L122.146484,74.9423828 C122.539064,74.2275355 122.741211,73.5156285 122.75293,72.8066406 L122.75293,70.8378906 L124.897461,70.8378906 L124.888672,72.5957031 C124.882812,73.246097 124.718752,73.9023404 124.396484,74.5644531 C124.074217,75.2265658 123.661135,75.7744119 123.157227,76.2080078 Z M134.055664,73 L131.506836,73 L131.506836,59.5 L134.055664,59.5 L134.055664,73 Z M138.828125,73 L136.279297,73 L136.279297,63.4902344 L138.828125,63.4902344 L138.828125,73 Z M136.129883,61.0292969 C136.129883,60.6484356 136.257323,60.3349622 136.512207,60.0888672 C136.767091,59.8427722 137.114256,59.7197266 137.553711,59.7197266 C137.987307,59.7197266 138.333007,59.8427722 138.59082,60.0888672 C138.848634,60.3349622 138.977539,60.6484356 138.977539,61.0292969 C138.977539,61.4160176 138.847169,61.7324206 138.586426,61.9785156 C138.325682,62.2246106 137.981447,62.3476562 137.553711,62.3476562 C137.125974,62.3476562 136.78174,62.2246106 136.520996,61.9785156 C136.260253,61.7324206 136.129883,61.4160176 136.129883,61.0292969 Z M143.257812,63.4902344 L143.336914,64.5888672 C144.016605,63.7392536 144.927729,63.3144531 146.070312,63.3144531 C147.07813,63.3144531 147.828123,63.6103486 148.320312,64.2021484 C148.812502,64.7939483 149.064453,65.678705 149.076172,66.8564453 L149.076172,73 L146.536133,73 L146.536133,66.9179688 C146.536133,66.3789036 146.418946,65.9877942 146.18457,65.7446289 C145.950194,65.5014636 145.56055,65.3798828 145.015625,65.3798828 C144.300778,65.3798828 143.76465,65.6845673 143.407227,66.2939453 L143.407227,73 L140.867188,73 L140.867188,63.4902344 L143.257812,63.4902344 Z M154.455078,69.1855469 L153.541016,70.0996094 L153.541016,73 L151.000977,73 L151.000977,59.5 L153.541016,59.5 L153.541016,66.9794922 L154.033203,66.3466797 L156.467773,63.4902344 L159.517578,63.4902344 L156.081055,67.4541016 L159.816406,73 L156.898438,73 L154.455078,69.1855469 Z M174.898438,62.3388672 L170.978516,62.3388672 L170.978516,73 L168.341797,73 L168.341797,62.3388672 L164.474609,62.3388672 L164.474609,60.203125 L174.898438,60.203125 L174.898438,62.3388672 Z M184.504883,69.5458984 L185.75293,63.4902344 L188.205078,63.4902344 L185.779297,73 L183.652344,73 L181.850586,67.0146484 L180.048828,73 L177.930664,73 L175.504883,63.4902344 L177.957031,63.4902344 L179.196289,69.5371094 L180.936523,63.4902344 L182.773438,63.4902344 L184.504883,69.5458984 Z M192.142578,73 L189.59375,73 L189.59375,63.4902344 L192.142578,63.4902344 L192.142578,73 Z M189.444336,61.0292969 C189.444336,60.6484356 189.571776,60.3349622 189.82666,60.0888672 C190.081544,59.8427722 190.428709,59.7197266 190.868164,59.7197266 C191.30176,59.7197266 191.64746,59.8427722 191.905273,60.0888672 C192.163087,60.3349622 192.291992,60.6484356 192.291992,61.0292969 C192.291992,61.4160176 192.161622,61.7324206 191.900879,61.9785156 C191.640135,62.2246106 191.295901,62.3476562 190.868164,62.3476562 C190.440428,62.3476562 190.096193,62.2246106 189.835449,61.9785156 C189.574706,61.7324206 189.444336,61.4160176 189.444336,61.0292969 Z M197.275391,61.1523438 L197.275391,63.4902344 L198.901367,63.4902344 L198.901367,65.3535156 L197.275391,65.3535156 L197.275391,70.0996094 C197.275391,70.4511736 197.342773,70.7031242 197.477539,70.8554688 C197.612305,71.0078133 197.870115,71.0839844 198.250977,71.0839844 C198.532228,71.0839844 198.781249,71.0634768 198.998047,71.0224609 L198.998047,72.9472656 C198.499998,73.0996101 197.987307,73.1757812 197.459961,73.1757812 C195.678702,73.1757812 194.770508,72.2763762 194.735352,70.4775391 L194.735352,65.3535156 L193.34668,65.3535156 L193.34668,63.4902344 L194.735352,63.4902344 L194.735352,61.1523438 L197.275391,61.1523438 Z M203.357422,61.1523438 L203.357422,63.4902344 L204.983398,63.4902344 L204.983398,65.3535156 L203.357422,65.3535156 L203.357422,70.0996094 C203.357422,70.4511736 203.424804,70.7031242 203.55957,70.8554688 C203.694337,71.0078133 203.952147,71.0839844 204.333008,71.0839844 C204.614259,71.0839844 204.86328,71.0634768 205.080078,71.0224609 L205.080078,72.9472656 C204.582029,73.0996101 204.069339,73.1757812 203.541992,73.1757812 C201.760733,73.1757812 200.852539,72.2763762 200.817383,70.4775391 L200.817383,65.3535156 L199.428711,65.3535156 L199.428711,63.4902344 L200.817383,63.4902344 L200.817383,61.1523438 L203.357422,61.1523438 Z M210.775391,73.1757812 C209.380852,73.1757812 208.24561,72.7480512 207.369629,71.8925781 C206.493648,71.0371051 206.055664,69.8974681 206.055664,68.4736328 L206.055664,68.2275391 C206.055664,67.2724562 206.240233,66.4184608 206.609375,65.6655273 C206.978517,64.9125939 207.501461,64.3325216 208.178223,63.925293 C208.854984,63.5180644 209.626949,63.3144531 210.494141,63.3144531 C211.794928,63.3144531 212.818844,63.7246053 213.565918,64.5449219 C214.312992,65.3652385 214.686523,66.5283128 214.686523,68.0341797 L214.686523,69.0712891 L208.630859,69.0712891 C208.712891,69.6923859 208.960447,70.1904278 209.373535,70.5654297 C209.786623,70.9404316 210.309567,71.1279297 210.942383,71.1279297 C211.920903,71.1279297 212.685544,70.773441 213.236328,70.0644531 L214.484375,71.4619141 C214.103514,72.0009793 213.587894,72.4213852 212.9375,72.7231445 C212.287106,73.0249039 211.56641,73.1757812 210.775391,73.1757812 Z M210.485352,65.3710938 C209.981443,65.3710938 209.572755,65.5410139 209.259277,65.8808594 C208.945799,66.2207048 208.745118,66.7070281 208.657227,67.3398438 L212.19043,67.3398438 L212.19043,67.1376953 C212.178711,66.5751925 212.026369,66.1401383 211.733398,65.8325195 C211.440428,65.5249008 211.024417,65.3710938 210.485352,65.3710938 Z M221.47168,65.8720703 C221.125975,65.8251951 220.82129,65.8017578 220.557617,65.8017578 C219.596675,65.8017578 218.966798,66.1269499 218.667969,66.7773438 L218.667969,73 L216.12793,73 L216.12793,63.4902344 L218.527344,63.4902344 L218.597656,64.6240234 C219.107424,63.7509722 219.813472,63.3144531 220.71582,63.3144531 C220.997072,63.3144531 221.260741,63.3525387 221.506836,63.4287109 L221.47168,65.8720703 Z M229.856445,73 L227.307617,73 L227.307617,63.4902344 L229.856445,63.4902344 L229.856445,73 Z M227.158203,61.0292969 C227.158203,60.6484356 227.285643,60.3349622 227.540527,60.0888672 C227.795411,59.8427722 228.142576,59.7197266 228.582031,59.7197266 C229.015627,59.7197266 229.361327,59.8427722 229.619141,60.0888672 C229.876954,60.3349622 230.005859,60.6484356 230.005859,61.0292969 C230.005859,61.4160176 229.87549,61.7324206 229.614746,61.9785156 C229.354003,62.2246106 229.009768,62.3476562 228.582031,62.3476562 C228.154295,62.3476562 227.81006,62.2246106 227.549316,61.9785156 C227.288573,61.7324206 227.158203,61.4160176 227.158203,61.0292969 Z M234.286133,63.4902344 L234.365234,64.5888672 C235.044925,63.7392536 235.956049,63.3144531 237.098633,63.3144531 C238.10645,63.3144531 238.856443,63.6103486 239.348633,64.2021484 C239.840823,64.7939483 240.092773,65.678705 240.104492,66.8564453 L240.104492,73 L237.564453,73 L237.564453,66.9179688 C237.564453,66.3789036 237.447267,65.9877942 237.212891,65.7446289 C236.978514,65.5014636 236.58887,65.3798828 236.043945,65.3798828 C235.329098,65.3798828 234.792971,65.6845673 234.435547,66.2939453 L234.435547,73 L231.895508,73 L231.895508,63.4902344 L234.286133,63.4902344 Z M244.709961,73 L242.161133,73 L242.161133,63.4902344 L244.709961,63.4902344 L244.709961,73 Z M242.011719,61.0292969 C242.011719,60.6484356 242.139159,60.3349622 242.394043,60.0888672 C242.648927,59.8427722 242.996092,59.7197266 243.435547,59.7197266 C243.869143,59.7197266 244.214842,59.8427722 244.472656,60.0888672 C244.73047,60.3349622 244.859375,60.6484356 244.859375,61.0292969 C244.859375,61.4160176 244.729005,61.7324206 244.468262,61.9785156 C244.207518,62.2246106 243.863283,62.3476562 243.435547,62.3476562 C243.00781,62.3476562 242.663576,62.2246106 242.402832,61.9785156 C242.142089,61.7324206 242.011719,61.4160176 242.011719,61.0292969 Z M254.325195,61.1523438 L254.325195,63.4902344 L255.951172,63.4902344 L255.951172,65.3535156 L254.325195,65.3535156 L254.325195,70.0996094 C254.325195,70.4511736 254.392577,70.7031242 254.527344,70.8554688 C254.66211,71.0078133 254.91992,71.0839844 255.300781,71.0839844 C255.582033,71.0839844 255.831054,71.0634768 256.047852,71.0224609 L256.047852,72.9472656 C255.549802,73.0996101 255.037112,73.1757812 254.509766,73.1757812 C252.728507,73.1757812 251.820313,72.2763762 251.785156,70.4775391 L251.785156,65.3535156 L250.396484,65.3535156 L250.396484,63.4902344 L251.785156,63.4902344 L251.785156,61.1523438 L254.325195,61.1523438 Z M260.046875,73 L257.498047,73 L257.498047,63.4902344 L260.046875,63.4902344 L260.046875,73 Z M257.348633,61.0292969 C257.348633,60.6484356 257.476073,60.3349622 257.730957,60.0888672 C257.985841,59.8427722 258.333006,59.7197266 258.772461,59.7197266 C259.206057,59.7197266 259.551757,59.8427722 259.80957,60.0888672 C260.067384,60.3349622 260.196289,60.6484356 260.196289,61.0292969 C260.196289,61.4160176 260.065919,61.7324206 259.805176,61.9785156 C259.544432,62.2246106 259.200197,62.3476562 258.772461,62.3476562 C258.344724,62.3476562 258.00049,62.2246106 257.739746,61.9785156 C257.479003,61.7324206 257.348633,61.4160176 257.348633,61.0292969 Z M261.743164,68.1748047 C261.743164,66.6923754 262.07568,65.5117231 262.740723,64.6328125 C263.405765,63.7539019 264.315424,63.3144531 265.469727,63.3144531 C266.395512,63.3144531 267.160153,63.6601528 267.763672,64.3515625 L267.763672,59.5 L270.3125,59.5 L270.3125,73 L268.018555,73 L267.895508,71.9892578 C267.262692,72.7802774 266.448247,73.1757812 265.452148,73.1757812 C264.333002,73.1757812 263.435062,72.7348677 262.758301,71.8530273 C262.08154,70.971187 261.743164,69.745125 261.743164,68.1748047 Z M264.283203,68.359375 C264.283203,69.2500045 264.438475,69.9326148 264.749023,70.4072266 C265.059572,70.8818383 265.510739,71.1191406 266.102539,71.1191406 C266.887699,71.1191406 267.441405,70.7880892 267.763672,70.1259766 L267.763672,66.3730469 C267.447264,65.7109342 266.899418,65.3798828 266.120117,65.3798828 C264.895502,65.3798828 264.283203,66.3730369 264.283203,68.359375 Z M277.791992,73 C277.674804,72.7714832 277.589844,72.4873064 277.537109,72.1474609 C276.921872,72.8330112 276.122075,73.1757812 275.137695,73.1757812 C274.20605,73.1757812 273.434085,72.9062527 272.821777,72.3671875 C272.20947,71.8281223 271.90332,71.1484416 271.90332,70.328125 C271.90332,69.3203075 272.276852,68.5468777 273.023926,68.0078125 C273.771,67.4687473 274.850579,67.1962891 276.262695,67.1904297 L277.431641,67.1904297 L277.431641,66.6455078 C277.431641,66.2060525 277.318849,65.8544935 277.093262,65.5908203 C276.867675,65.3271471 276.511721,65.1953125 276.025391,65.1953125 C275.597654,65.1953125 275.262208,65.2978505 275.019043,65.5029297 C274.775878,65.7080088 274.654297,65.989256 274.654297,66.3466797 L272.114258,66.3466797 C272.114258,65.7958957 272.284178,65.2861352 272.624023,64.8173828 C272.963869,64.3486305 273.444333,63.9809584 274.06543,63.7143555 C274.686527,63.4477526 275.383785,63.3144531 276.157227,63.3144531 C277.329107,63.3144531 278.259274,63.6088838 278.947754,64.1977539 C279.636234,64.786624 279.980469,65.6142525 279.980469,66.6806641 L279.980469,70.8027344 C279.986328,71.7050826 280.112303,72.387693 280.358398,72.8505859 L280.358398,73 L277.791992,73 Z M275.691406,71.2333984 C276.066408,71.2333984 276.412108,71.1499032 276.728516,70.9829102 C277.044923,70.8159171 277.279296,70.5917983 277.431641,70.3105469 L277.431641,68.6757812 L276.482422,68.6757812 C275.210931,68.6757812 274.53418,69.11523 274.452148,69.9941406 L274.443359,70.1435547 C274.443359,70.4599625 274.554686,70.7207021 274.777344,70.9257812 C275.000001,71.1308604 275.304686,71.2333984 275.691406,71.2333984 Z M285.385742,69.1855469 L284.47168,70.0996094 L284.47168,73 L281.931641,73 L281.931641,59.5 L284.47168,59.5 L284.47168,66.9794922 L284.963867,66.3466797 L287.398438,63.4902344 L290.448242,63.4902344 L287.011719,67.4541016 L290.74707,73 L287.829102,73 L285.385742,69.1855469 Z M140.317871,90.8974609 L142.084473,84.4902344 L144.73877,84.4902344 L141.530762,94 L139.10498,94 L135.896973,84.4902344 L138.55127,84.4902344 L140.317871,90.8974609 Z M151.365723,94 C151.248535,93.7714832 151.163574,93.4873064 151.11084,93.1474609 C150.495602,93.8330112 149.695806,94.1757812 148.711426,94.1757812 C147.77978,94.1757812 147.007816,93.9062527 146.395508,93.3671875 C145.7832,92.8281223 145.477051,92.1484416 145.477051,91.328125 C145.477051,90.3203075 145.850582,89.5468777 146.597656,89.0078125 C147.34473,88.4687473 148.424309,88.1962891 149.836426,88.1904297 L151.005371,88.1904297 L151.005371,87.6455078 C151.005371,87.2060525 150.892579,86.8544935 150.666992,86.5908203 C150.441405,86.3271471 150.085452,86.1953125 149.599121,86.1953125 C149.171385,86.1953125 148.835939,86.2978505 148.592773,86.5029297 C148.349608,86.7080088 148.228027,86.989256 148.228027,87.3466797 L145.687988,87.3466797 C145.687988,86.7958957 145.857908,86.2861352 146.197754,85.8173828 C146.537599,85.3486305 147.018063,84.9809584 147.63916,84.7143555 C148.260257,84.4477526 148.957516,84.3144531 149.730957,84.3144531 C150.902838,84.3144531 151.833004,84.6088838 152.521484,85.1977539 C153.209964,85.786624 153.554199,86.6142525 153.554199,87.6806641 L153.554199,91.8027344 C153.560059,92.7050826 153.686034,93.387693 153.932129,93.8505859 L153.932129,94 L151.365723,94 Z M149.265137,92.2333984 C149.640139,92.2333984 149.985838,92.1499032 150.302246,91.9829102 C150.618654,91.8159171 150.853027,91.5917983 151.005371,91.3105469 L151.005371,89.6757812 L150.056152,89.6757812 C148.784662,89.6757812 148.107911,90.11523 148.025879,90.9941406 L148.01709,91.1435547 C148.01709,91.4599625 148.128417,91.7207021 148.351074,91.9257812 C148.573732,92.1308604 148.878416,92.2333984 149.265137,92.2333984 Z M158.186035,94 L155.637207,94 L155.637207,80.5 L158.186035,80.5 L158.186035,94 Z M162.958496,94 L160.409668,94 L160.409668,84.4902344 L162.958496,84.4902344 L162.958496,94 Z M160.260254,82.0292969 C160.260254,81.6484356 160.387694,81.3349622 160.642578,81.0888672 C160.897462,80.8427722 161.244627,80.7197266 161.684082,80.7197266 C162.117678,80.7197266 162.463378,80.8427722 162.721191,81.0888672 C162.979005,81.3349622 163.10791,81.6484356 163.10791,82.0292969 C163.10791,82.4160176 162.97754,82.7324206 162.716797,82.9785156 C162.456053,83.2246106 162.111819,83.3476562 161.684082,83.3476562 C161.256346,83.3476562 160.912111,83.2246106 160.651367,82.9785156 C160.390624,82.7324206 160.260254,82.4160176 160.260254,82.0292969 Z M164.654785,89.1748047 C164.654785,87.6923754 164.987301,86.5117231 165.652344,85.6328125 C166.317386,84.7539019 167.227045,84.3144531 168.381348,84.3144531 C169.307134,84.3144531 170.071774,84.6601528 170.675293,85.3515625 L170.675293,80.5 L173.224121,80.5 L173.224121,94 L170.930176,94 L170.807129,92.9892578 C170.174313,93.7802774 169.359868,94.1757812 168.36377,94.1757812 C167.244623,94.1757812 166.346683,93.7348677 165.669922,92.8530273 C164.993161,91.971187 164.654785,90.745125 164.654785,89.1748047 Z M167.194824,89.359375 C167.194824,90.2500045 167.350096,90.9326148 167.660645,91.4072266 C167.971193,91.8818383 168.42236,92.1191406 169.01416,92.1191406 C169.79932,92.1191406 170.353026,91.7880892 170.675293,91.1259766 L170.675293,87.3730469 C170.358885,86.7109342 169.811039,86.3798828 169.031738,86.3798828 C167.807123,86.3798828 167.194824,87.3730369 167.194824,89.359375 Z" id="Mohon-maaf,-link-Twi" fill="#484848"></path>
                </g>
            </g>
        </g>
    </g>
</svg>