<?xml version="1.0" encoding="UTF-8"?>
<svg width="210px" height="100px" viewBox="0 0 210 100" version="1.1" xmlns="http://www.w3.org/2000/svg" xmlns:xlink="http://www.w3.org/1999/xlink">
    <!-- Generator: Sketch 52.6 (67491) - http://www.bohemiancoding.com/sketch -->
    <title>popup badge mobile</title>
    <desc>Created with Sketch.</desc>
    <defs>
        <path d="M2.16807451,4.14277232 C2.81784709,3.55740397 3.51093784,2.88595204 4.23435131,2.11119982 L2.16807451,4.14277232 Z" id="path-1"></path>
        <linearGradient x1="127.26638%" y1="500.57212%" x2="36.18124%" y2="-30.42978%" id="linearGradient-3">
            <stop stop-color="#FF0000" offset="0%"></stop>
            <stop stop-color="#C1262D" offset="100%"></stop>
        </linearGradient>
        <path d="M0.807883907,3.39814935 C0.972492961,3.33573875 1.13493611,3.2840886 1.29521334,3.23459055 C1.75222006,3.05811921 2.49079489,2.7310016 3.43296513,2.14778534 L0.807883907,3.39814935 Z" id="path-4"></path>
        <linearGradient x1="145.352962%" y1="723.58568%" x2="97.6581353%" y2="386.59144%" id="linearGradient-6">
            <stop stop-color="#FF0000" offset="0%"></stop>
            <stop stop-color="#C1262D" offset="100%"></stop>
        </linearGradient>
        <path d="M29.5668183,0.0697730075 C29.3090752,0.0762292761 29.0361707,0.117118977 28.7502707,0.201050468 C28.6419753,0.2354839 28.5336799,0.272069422 28.4188867,0.317263302 C28.4188867,0.317263302 28.4448776,0.317263302 28.4816981,0.315111213 C28.7091185,0.297894496 29.4671865,0.300046586 29.0080139,1.02099657 C28.9950184,1.04251747 28.982023,1.05973419 28.9690275,1.07910299 C29.6707819,0.476517926 31.0006498,-0.0636565426 32.6489062,2.06045581 C32.6489062,2.06045581 32.4019926,1.60851701 31.9319905,1.13720941 C31.4749838,0.674510162 30.805718,0.19244211 29.9545159,0.0869897237 C29.8743773,0.0783813656 29.7899069,0.0719250971 29.7054364,0.0697730075 L29.5668183,0.0697730075 Z M28.4188867,1.69675268 C28.6787958,1.44926239 28.8542344,1.24696597 28.9690275,1.07910299 C28.6159844,1.38254761 28.4188867,1.69675268 28.4188867,1.69675268 Z M24.4466104,1.96576387 L23.0041152,2.55758849 L22.3651722,3.16232565 C23.4632878,2.29288148 24.4639376,1.96576387 24.4639376,1.96576387 L24.4466104,1.96576387 Z M13.4178038,16.3546344 C12.6943903,17.1293866 12.0012995,17.8008385 11.351527,18.3862069 C10.1906,19.4170578 9.14879792,20.1616807 8.28460039,20.6953989 C7.34243015,21.2786152 6.60385532,21.6057328 6.1468486,21.7822042 C8.85423435,20.9816269 10.8338748,22.0339986 12.0272904,23.0799141 C12.4019926,23.4070317 12.6987221,23.7298452 12.9196448,23.9967043 C10.5176522,20.3489125 12.8698289,17.0476072 13.530431,16.2405736 C13.5759151,16.1867714 13.6127355,16.1437296 13.6387264,16.1114483 C13.5650856,16.1932277 13.4892788,16.2707029 13.4178038,16.3546344 Z M1.57244964,22.8044467 C1.02880658,23.4177922 0.677929391,23.9515104 0.46350444,24.4142096 C0.00866363439,25.3869541 0.151613602,26.0433414 0.385531731,26.4393259 C0.46350444,26.5727554 0.552306693,26.6782078 0.632445311,26.755683 C0.75806801,26.8805042 0.864197531,26.9407627 0.864197531,26.9407627 C-0.290231752,25.3891062 0.513320338,24.5045974 1.09161793,24.1150692 C1.29521334,23.9794876 1.47065194,23.9041644 1.52696556,23.8826435 C0.320554473,24.349647 1.22373836,23.2348646 2.01646091,22.3847892 C2.44964263,21.9156337 2.85466753,21.5282576 2.85466753,21.5282576 C2.33918129,21.9845006 1.91899502,22.4127664 1.57244964,22.8044467 Z M5.65951917,21.945763 C5.6421919,21.9500671 5.62919645,21.9543713 5.60970327,21.9608276 C5.60970327,21.9608276 5.62269872,21.9565234 5.6421919,21.9543713 C5.70716916,21.9350025 5.88044185,21.8855045 6.1468486,21.7822042 C5.98657137,21.8317022 5.82412822,21.8833524 5.65951917,21.945763 Z M13.3788174,24.6358749 C13.3788174,24.6358749 13.222872,24.3711678 12.9196448,23.9967043 C13.056097,24.2097611 13.2055447,24.422818 13.3788174,24.6358749 Z M23.7773446,44.2134332 C23.744856,44.2241937 23.7166992,44.2349541 23.6820446,44.2457145 C23.6820446,44.2457145 24.0415854,44.1746956 24.5830626,43.991768 C25.2696556,43.7571902 26.2529781,43.3353807 27.1973143,42.6316474 C27.9250596,42.0957771 28.6268139,41.3920438 29.1574616,40.4795579 C29.1574616,40.4795579 27.7041369,42.2356629 25.8804418,40.9336488 C25.6140351,40.7421128 25.3389647,40.4881662 25.0595625,40.1524403 C25.0595625,40.1524403 27.1539961,43.1223238 23.7773446,44.2134332 Z" id="path-7"></path>
        <linearGradient x1="122.191432%" y1="25.4025605%" x2="23.2539094%" y2="81.132222%" id="linearGradient-9">
            <stop stop-color="#FF0000" offset="0%"></stop>
            <stop stop-color="#C1262D" offset="100%"></stop>
        </linearGradient>
        <path d="M17.2328193,35.7901211 C16.8523702,36.6040849 13.2386755,36.5455627 13.4108788,35.7595231 C14.3305359,31.0706162 15.1735311,27.1199209 16.1014837,22.3885334 C18.2540249,22.6300489 20.1597032,22.8436402 22.4584169,23.1014944 C20.6459915,27.6997959 19.113039,31.7669414 17.2328193,35.7901211 Z M14.0515974,23.7324635 C12.75217,27.1435562 11.5892723,30.9545094 10.1102007,33.8329599 C9.67815604,34.6739101 6.2697042,34.6438978 6.29156092,33.9536153 C6.7466599,29.684899 7.17481224,26.7521839 7.57212562,23.024295 C9.61557993,23.2474166 11.6509502,23.4699319 14.0515974,23.7324635 Z M9.50008282,36.8160595 C9.69599586,38.0115031 8.70819664,39.2103972 7.2933638,39.4936524 C5.87824702,39.7769076 4.57244404,39.0375582 4.37624707,37.8421147 C4.1800501,36.6463574 5.16813325,35.4477769 6.58325002,35.1642081 C7.99779894,34.8809529 9.30416978,35.6203023 9.50008282,36.8160595 Z M16.6147723,39.3463771 C16.8057855,40.5401166 15.8133476,41.7432531 14.3979125,42.0336222 C12.9824774,42.3239912 11.6799892,41.591334 11.4884224,40.3975946 C11.2974093,39.2038551 12.2898471,38.0007186 13.7052822,37.7103495 C15.1209942,37.4199805 16.4234823,38.1523244 16.6147723,39.3463771 Z" id="path-10"></path>
    </defs>
    <g id="06-THREAD-DETAIL" stroke="none" stroke-width="1" fill="none" fill-rule="evenodd">
        <g id="mobile-pop-up-cendol-copy" transform="translate(-55.000000, -93.000000)">
            <g id="Group-35-Copy-2" transform="translate(15.000000, 83.000000)">
                <g id="Group-35-Copy-3">
                    <g id="Group-39" transform="translate(40.000000, 1.000000)">
                        <g id="Group-5" transform="translate(5.000000, 0.000000)">
                            <g id="Group-75" transform="translate(13.168724, 9.033113)">
                                <g id="Group-31" transform="translate(32.488629, 23.687947)">
                                    <path d="M107.145982,45.1108092 C107.145982,45.1108092 103.325319,52.9293504 96.2774529,54.8016683 C89.2295863,56.6761383 80.730561,57.6876204 80.730561,57.6876204 L78.3264024,65.8074541 C78.3264024,65.8074541 90.5247997,63.7070148 98.5581546,64.675455 C106.589344,65.6460474 123.79099,53.7041027 123.79099,53.7041027 L107.145982,45.1108092 Z" id="Fill-1" fill="#0082C6"></path>
                                    <path d="M82.4760667,65.2108949 L92.2768031,64.4382948 C92.2768031,64.4382948 96.4959931,58.4533338 95.644791,54.9669488 L82.2009963,57.495654 L82.4760667,65.2108949 Z" id="Fill-3" fill="#006699"></path>
                                    <path d="M51.6467403,56.3503119 C51.6467403,56.3503119 46.2319688,76.0806686 46.9510505,87.1983631 C46.9510505,87.1983631 54.5317306,93.2930806 73.6653671,88.6316547 C73.6653671,88.6316547 70.0569634,59.2211994 66.8081005,54.9170203 C63.5592376,50.6128413 51.6467403,56.3503119 51.6467403,56.3503119" id="Fill-5" fill="#0082C6"></path>
                                    <path d="M69.4816981,89.5038966 C71.4786658,61.1780944 63.369504,64.2835595 55.2560104,66.0375125 C48.3814165,67.5203022 50.6621183,83.744905 51.6519385,89.2886876 C55.2386831,90.3109302 61.0454841,91.0125113 69.4816981,89.5038966" id="Fill-7" fill="#00A9E9"></path>
                                    <path d="M50.3437297,61.5562165 C55.2343513,63.3037132 61.7450726,64.3797579 69.4188867,62.7398657 C68.5720165,59.0318155 67.6753303,56.0705403 66.8089669,54.9170203 C63.560104,50.6128413 51.6476067,56.3503119 51.6476067,56.3503119 C51.6476067,56.3503119 51.0801386,58.4098616 50.3437297,61.5562165" id="Fill-9" fill="#006699"></path>
                                    <path d="M10.5694174,61.5613815 C10.5694174,61.5613815 17.7948885,66.4595372 24.8470869,64.602284 C31.9014512,62.7471828 39.7788607,59.4265087 39.7788607,59.4265087 L45.9300412,65.2844964 C45.9300412,65.2844964 34.2947802,69.4875272 27.8100498,74.2952952 C21.3253195,79.1052153 0.424301494,77.2393536 0.424301494,77.2393536 L10.5694174,61.5613815 Z" id="Fill-11" fill="#0082C6"></path>
                                    <path d="M42.7175655,59.4260783 L41.545809,66.9583916 C39.15248,68.0538052 35.8732943,69.4483592 33.9932857,70.5373165 C30.8635478,68.6628465 29.0896686,65.910324 27.7814598,63.7668428 C36.8132987,60.3859102 42.7175655,59.4260783 42.7175655,59.4260783" id="Fill-13" fill="#006699"></path>
                                    <path d="M96.9657786,37.3914793 C96.9657786,57.7739192 80.3359324,74.2912062 59.824778,74.2912062 C39.3114577,74.2912062 22.6816114,57.7739192 22.6816114,37.3914793 C22.6816114,17.0090395 39.3114577,0.487448276 59.824778,0.487448276 C80.3359324,0.487448276 96.9657786,17.0090395 96.9657786,37.3914793" id="Fill-15" fill="#0082C6"></path>
                                    <path d="M120.515919,20.6148655 C120.515919,20.6148655 110.416288,25.7325344 108.27637,27.55105 C106.145116,29.3631094 106.357375,32.1027193 107.13277,34.5173638 C107.908165,36.9341603 105.798571,37.7820836 106.149448,41.7785138 C106.502491,45.7749441 113.9034,53.5117059 116.168941,52.9478584 C118.447477,52.3947714 123.186485,47.9205773 123.643491,47.0791103 C124.106996,46.2484037 125.896036,29.7182042 125.896036,29.7182042 L120.515919,20.6148655 Z" id="Fill-17" fill="#004799"></path>
                                    <path d="M127.63851,28.1125302 C127.63851,28.1125302 123.573099,19.8463543 126.969244,12.5765959 C130.369721,5.30898963 124.965779,4.03925682 120.779077,5.99120201 C116.59021,7.94099511 113.386831,18.3850855 115.650206,21.2947106 C117.907083,24.2021835 119.505523,26.737345 118.322937,30.2129695 C117.149015,33.6885941 114.452458,48.038727 120.276587,47.5609631 C126.111544,47.0810472 127.63851,28.1125302 127.63851,28.1125302" id="Fill-19" fill="#006699"></path>
                                    <path d="M131.566385,31.9596054 C131.566385,31.9596054 132.408924,27.4595862 129.861815,26.3620206 C127.316872,25.2579986 124.529348,27.7415099 120.284167,25.051398 C116.041152,22.3612861 109.303011,19.6862389 108.012129,21.8727618 C106.727745,24.0528285 103.944553,26.5363398 108.521118,29.3146874 C113.091185,32.1016433 116.383366,33.0528669 116.383366,33.0528669 C116.383366,33.0528669 106.41802,30.5349221 105.365389,33.1583193 C104.319255,35.773108 104.529348,37.6583384 106.654104,39.0012423 C108.774529,40.3484503 115.29608,41.1382672 115.29608,41.1382672 C115.29608,41.1382672 106.108295,41.037119 106.045484,43.9402877 C105.987005,46.8456086 115.1423,48.3908089 115.1423,48.3908089 C115.1423,48.3908089 104.280269,49.2710135 106.697423,52.1569655 C109.116742,55.0493738 113.909898,55.7057611 117.559454,55.2990162 C121.213342,54.8944234 126.719082,56.8528248 127.711068,53.1232537 C128.70522,49.3915305 126.576132,48.0443224 128.224388,44.5084394 C129.87481,40.9661 131.566385,31.9596054 131.566385,31.9596054" id="Fill-21" fill="#0082C6"></path>
                                    <path d="M122.086203,54.3421972 C122.086203,54.3421972 128.642408,54.5681666 127.711068,53.1241145 C126.775395,51.6714541 125.638293,50.4641319 125.638293,50.4641319 L122.086203,54.3421972 Z" id="Fill-23" fill="#00A9E9"></path>
                                    <path d="M115.141217,48.3914545 C115.141217,48.3914545 105.985922,46.8441021 106.046567,43.9409334 C106.109378,41.0377646 115.297163,41.1389128 115.297163,41.1389128 C115.297163,41.1389128 108.773446,40.349096 106.653021,39.0018879 C104.530431,37.6589841 104.320338,35.7737536 105.366472,33.1568128 C106.419103,30.5355678 116.382283,33.0535125 116.382283,33.0535125 C116.382283,33.0535125 113.090102,32.1022889 108.520035,29.315333 C103.94347,26.5369854 106.726662,24.0534741 108.013212,21.8712554 C108.983539,20.2335152 113.022959,21.3375372 116.774312,23.1216194 C115.708685,23.233528 114.887806,23.5649498 114.588911,24.2600747 C113.365172,27.0663995 115.87546,30.9638336 117.850769,31.5362894 C119.823912,32.1001368 123.813515,33.9896714 123.813515,33.9896714 C123.813515,33.9896714 115.336149,32.9954061 113.863331,35.0054577 C112.384016,37.009053 115.866797,38.9889754 116.962746,39.3053325 C118.065194,39.6238418 124.309508,41.9179692 124.309508,41.9179692 C124.309508,41.9179692 113.573099,40.5105027 113.129088,43.0693371 C112.691575,45.6195632 121.407191,48.380694 121.407191,48.380694 C121.407191,48.380694 115.264674,49.2802675 115.539744,51.793908 C115.745506,53.668378 119.789257,54.8972211 121.840373,55.3965059 C120.369721,55.3061181 118.849253,55.1576239 117.558371,55.2996618 C113.908815,55.7042547 109.11566,55.0500195 106.698506,52.1576111 C104.279186,49.2716591 115.141217,48.3914545 115.141217,48.3914545" id="Fill-25" fill="#006699"></path>
                                    <path d="M130.178904,33.1460523 C130.178904,33.1460523 132.277669,30.58937 130.603422,28.8892193 C128.933507,27.1826123 127.891705,29.315333 125.54386,28.3942387 C123.183019,27.4752965 120.410656,28.1316838 123.341131,30.4387237 C126.271605,32.7457637 127.410873,31.1295445 126.953866,34.6460587 C126.488196,38.1582688 122.258176,34.5126292 123.356292,37.5040336 C124.44791,40.493286 125.468053,39.3290055 125.524366,41.7823876 C125.582846,44.2336175 123.345462,45.5291754 124.660169,48.5894467 C125.974875,51.6432617 127.709768,53.1238993 127.709768,53.1238993 C127.709768,53.1238993 125.420403,49.2974842 126.600823,45.7379281 C127.776911,42.1869804 128.898852,36.1869548 128.898852,36.1869548 L130.178904,33.1460523 Z" id="Fill-27" fill="#00A9E9"></path>
                                    <path d="M57.4559238,9.89937392 L53.1912497,17.5027062 C51.1098116,14.5607998 47.7179987,12.5851816 43.823695,12.4603604 C37.237167,12.2494557 31.7314273,17.3864934 31.5213342,23.9288455 C31.3112411,30.4733497 36.4769331,35.9439613 43.0634611,36.152714 C49.6045051,36.3593145 55.079922,31.2889916 55.3549924,24.806898 C58.4045917,25.1383198 61.8635478,25.2437722 63.5724496,24.3441988 C67.0075807,22.5385957 70.0160277,10.766666 70.0160277,10.766666 C65.792506,9.64112318 61.5429933,9.39793706 57.4559238,9.89937392" id="Fill-29" fill="#006699"></path>
                                </g>
                                <g id="Group-34" transform="translate(75.806801, 6.471231)">
                                    <mask id="mask-2" fill="white">
                                        <use xlink:href="#path-1"></use>
                                    </mask>
                                    <g id="Clip-33"></g>
                                    <path d="M2.16807451,4.14277232 C2.81784709,3.55740397 3.51093784,2.88595204 4.23435131,2.11119982 L2.16807451,4.14277232 Z" id="Fill-32" fill="url(#linearGradient-3)" mask="url(#mask-2)"></path>
                                </g>
                                <g id="Group-39" transform="translate(66.623348, 0.439717)">
                                    <path d="M29.0881525,40.4152104 C28.2196231,41.3556735 27.1583279,41.8463499 25.8804418,40.933864 L12.0294564,23.0801293 C12.4019926,23.407247 12.6987221,23.7300604 12.9174789,23.9969195 C13.056097,24.2099763 13.2055447,24.4230332 13.3788174,24.6360901 C13.3788174,24.6360901 13.222872,24.369231 12.9174789,23.9969195 C10.5154862,20.3491277 12.8698289,17.0478224 13.530431,16.2407889 L29.0080139,1.02121178 C28.9950184,1.04273268 28.9841889,1.05994939 28.9690275,1.0793182 C28.6159844,1.38061073 28.4188867,1.69696789 28.4188867,1.69696789 C28.6787958,1.4494776 28.8542344,1.24718118 28.9690275,1.0793182 C29.6729478,0.476733135 31.0006498,-0.0634413336 32.6510721,2.06067102 L42.1247563,14.2673228 C42.1247563,14.2673228 43.4611219,16.4753666 42.1139268,18.7264522 L42.1550791,18.7307564 C42.1225904,18.7845587 42.0901018,18.840513 42.0554473,18.8943152 C39.9047,22.5012173 37.7561187,26.1124235 35.6075374,29.7193255 C34.1368854,32.1856201 32.6683994,34.6497626 31.1999134,37.1160572 C30.6800953,37.9855013 29.9891705,39.4403139 29.0881525,40.4152104" id="Fill-35" fill="#A4272D"></path>
                                    <path d="M18.7292614,45.5662367 C15.7857916,46.2656658 13.9252762,43.5906185 13.858133,43.7821545 L13.8538012,43.7929149 L0.633095083,26.7548222 C0.758717782,26.8817955 0.862681395,26.9399019 0.862681395,26.9399019 C-0.28958198,25.3903974 0.51397011,24.5037366 1.09226771,24.1142084 L5.64284167,21.9535105 C5.70565302,21.9362938 5.87892571,21.8867957 6.14749838,21.7834954 C8.85271822,20.980766 10.8323587,22.0331378 12.0279402,23.0812054 L25.8789257,40.93494 C25.6146849,40.7434041 25.3396145,40.4873054 25.0602123,40.1515794 C25.0602123,40.1515794 27.1546459,43.121463 23.7801603,44.2147245 L18.6837773,45.6286473 L18.7292614,45.5662367 Z" id="Fill-37" fill="#ED1C24"></path>
                                </g>
                                <g id="Group-42" transform="translate(71.474984, 10.775410)">
                                    <mask id="mask-5" fill="white">
                                        <use xlink:href="#path-4"></use>
                                    </mask>
                                    <g id="Clip-41"></g>
                                    <path d="M0.807883907,3.39814935 C0.972492961,3.33573875 1.13493611,3.2840886 1.29521334,3.23459055 C1.75222006,3.05811921 2.49079489,2.7310016 3.43296513,2.14778534 L0.807883907,3.39814935 Z" id="Fill-40" fill="url(#linearGradient-6)" mask="url(#mask-5)"></path>
                                </g>
                                <path d="M95.6311458,1.46157461 L80.1535629,16.6789996 C80.2272038,16.5907639 80.2791856,16.5326575 80.3030106,16.5068324 C80.3073424,16.5025282 80.3116742,16.4982241 80.3138402,16.4939199 C80.3138402,16.4939199 80.3116742,16.4982241 80.3030106,16.5068324 C80.2142084,16.6058285 80.127572,16.6983684 80.0409357,16.7930603 L77.9746589,18.8246328 C76.8137319,19.8576358 75.7719298,20.6022588 74.9077323,21.135977 L72.2826511,22.3841889 C72.2653238,22.3906452 72.2523284,22.3949493 72.2350011,22.4014056 C72.2350011,22.4014056 72.2458306,22.3971014 72.2653238,22.3949493 L67.7147498,24.5534951 C67.9616634,24.3899363 68.1674247,24.3146132 68.1674247,24.3146132 C66.9350227,24.8009854 67.8425384,23.6797468 68.6395928,22.8253673 L88.9883041,3.60075159 C90.0842538,2.73345951 91.0870695,2.4063419 91.0870695,2.4063419 L91.0719082,2.4063419 L95.10483,0.753537155 C95.3344163,0.738472528 96.0903184,0.740624617 95.6311458,1.46157461" id="Fill-43" fill="#8B272D"></path>
                                <g id="Group-47" transform="translate(66.623348, 0.439717)">
                                    <mask id="mask-8" fill="white">
                                        <use xlink:href="#path-7"></use>
                                    </mask>
                                    <g id="Clip-46"></g>
                                    <path d="M29.5668183,0.0697730075 C29.3090752,0.0762292761 29.0361707,0.117118977 28.7502707,0.201050468 C28.6419753,0.2354839 28.5336799,0.272069422 28.4188867,0.317263302 C28.4188867,0.317263302 28.4448776,0.317263302 28.4816981,0.315111213 C28.7091185,0.297894496 29.4671865,0.300046586 29.0080139,1.02099657 C28.9950184,1.04251747 28.982023,1.05973419 28.9690275,1.07910299 C29.6707819,0.476517926 31.0006498,-0.0636565426 32.6489062,2.06045581 C32.6489062,2.06045581 32.4019926,1.60851701 31.9319905,1.13720941 C31.4749838,0.674510162 30.805718,0.19244211 29.9545159,0.0869897237 C29.8743773,0.0783813656 29.7899069,0.0719250971 29.7054364,0.0697730075 L29.5668183,0.0697730075 Z M28.4188867,1.69675268 C28.6787958,1.44926239 28.8542344,1.24696597 28.9690275,1.07910299 C28.6159844,1.38254761 28.4188867,1.69675268 28.4188867,1.69675268 Z M24.4466104,1.96576387 L23.0041152,2.55758849 L22.3651722,3.16232565 C23.4632878,2.29288148 24.4639376,1.96576387 24.4639376,1.96576387 L24.4466104,1.96576387 Z M13.4178038,16.3546344 C12.6943903,17.1293866 12.0012995,17.8008385 11.351527,18.3862069 C10.1906,19.4170578 9.14879792,20.1616807 8.28460039,20.6953989 C7.34243015,21.2786152 6.60385532,21.6057328 6.1468486,21.7822042 C8.85423435,20.9816269 10.8338748,22.0339986 12.0272904,23.0799141 C12.4019926,23.4070317 12.6987221,23.7298452 12.9196448,23.9967043 C10.5176522,20.3489125 12.8698289,17.0476072 13.530431,16.2405736 C13.5759151,16.1867714 13.6127355,16.1437296 13.6387264,16.1114483 C13.5650856,16.1932277 13.4892788,16.2707029 13.4178038,16.3546344 Z M1.57244964,22.8044467 C1.02880658,23.4177922 0.677929391,23.9515104 0.46350444,24.4142096 C0.00866363439,25.3869541 0.151613602,26.0433414 0.385531731,26.4393259 C0.46350444,26.5727554 0.552306693,26.6782078 0.632445311,26.755683 C0.75806801,26.8805042 0.864197531,26.9407627 0.864197531,26.9407627 C-0.290231752,25.3891062 0.513320338,24.5045974 1.09161793,24.1150692 C1.29521334,23.9794876 1.47065194,23.9041644 1.52696556,23.8826435 C0.320554473,24.349647 1.22373836,23.2348646 2.01646091,22.3847892 C2.44964263,21.9156337 2.85466753,21.5282576 2.85466753,21.5282576 C2.33918129,21.9845006 1.91899502,22.4127664 1.57244964,22.8044467 Z M5.65951917,21.945763 C5.6421919,21.9500671 5.62919645,21.9543713 5.60970327,21.9608276 C5.60970327,21.9608276 5.62269872,21.9565234 5.6421919,21.9543713 C5.70716916,21.9350025 5.88044185,21.8855045 6.1468486,21.7822042 C5.98657137,21.8317022 5.82412822,21.8833524 5.65951917,21.945763 Z M13.3788174,24.6358749 C13.3788174,24.6358749 13.222872,24.3711678 12.9196448,23.9967043 C13.056097,24.2097611 13.2055447,24.422818 13.3788174,24.6358749 Z M23.7773446,44.2134332 C23.744856,44.2241937 23.7166992,44.2349541 23.6820446,44.2457145 C23.6820446,44.2457145 24.0415854,44.1746956 24.5830626,43.991768 C25.2696556,43.7571902 26.2529781,43.3353807 27.1973143,42.6316474 C27.9250596,42.0957771 28.6268139,41.3920438 29.1574616,40.4795579 C29.1574616,40.4795579 27.7041369,42.2356629 25.8804418,40.9336488 C25.6140351,40.7421128 25.3389647,40.4881662 25.0595625,40.1524403 C25.0595625,40.1524403 27.1539961,43.1223238 23.7773446,44.2134332 Z" id="Fill-45" fill="url(#linearGradient-9)" mask="url(#mask-8)"></path>
                                </g>
                                <g id="Group-74" transform="translate(0.000000, 35.694342)">
                                    <path d="M85.7195148,11.5327079 C85.5310808,17.4789313 80.5213342,22.1468134 74.5369287,21.9595816 C68.5503574,21.7680457 63.8525016,16.7924147 64.0452675,10.8461914 C64.2337015,4.89781594 69.2412822,0.229933775 75.2278536,0.419317652 C81.212259,0.60870153 85.9122807,5.5843325 85.7195148,11.5327079" id="Fill-48" fill="#CC9999"></path>
                                    <path d="M81.6954733,9.37222526 C81.5568551,13.7474232 77.8683128,17.1821581 73.4650206,17.0422723 C69.0595625,16.9045386 65.6027724,13.2416822 65.7435564,8.86648422 C65.8843405,4.48913414 69.568551,1.05439927 73.9740091,1.19428509 C78.3773013,1.33201882 81.8362573,4.99487518 81.6954733,9.37222526" id="Fill-50" fill="#FFCCCC"></path>
                                    <path d="M89.3047433,31.1204037 C89.3047433,31.1204037 78.7221139,29.3686029 74.4401126,38.3815538 L71.6677496,37.3786801 C71.6677496,37.3786801 73.4307992,33.3736415 76.2031622,32.1211254 C76.2031622,32.1211254 73.9354559,31.3700461 72.1724063,32.8722046 L72.0446177,28.3485124 C72.0446177,28.3485124 81.2432315,25.1117698 89.0534979,29.1168084 L89.3047433,31.1204037 Z" id="Fill-52" fill="#006699"></path>
                                    <path d="M79.0441845,45.2467193 C82.9774746,41.4353688 74.2272038,40.3291948 74.2878493,36.9654789 C69.3755686,40.7596127 74.3030106,49.8371263 79.0441845,45.2467193" id="Fill-54" fill="#FFFFFF"></path>
                                    <path d="M118.274854,25.5520873 C118.935456,31.6833904 115.719082,37.0528537 111.090535,37.5456822 C106.464154,38.0385107 102.175655,33.4653205 101.515053,27.3361695 C100.854451,21.2027144 104.070825,15.831099 108.697206,15.3404226 C113.325753,14.8475941 117.614252,19.4186322 118.274854,25.5520873" id="Fill-56" fill="#FFFFFF"></path>
                                    <path d="M116.245397,26.3821483 C116.695906,30.5507456 114.363223,34.213602 111.036387,34.5686968 C107.709552,34.9216395 104.646957,31.8312389 104.198614,27.6647936 C103.748105,23.4961962 106.082954,19.8290357 109.40979,19.476093 C112.736626,19.1209982 115.797054,22.2135509 116.245397,26.3821483" id="Fill-58" fill="#021A23"></path>
                                    <path d="M113.002816,24.9269053 C113.195582,26.7239001 112.294564,28.2927733 110.995018,28.4305071 C109.693307,28.5682408 108.480399,27.2253369 108.287633,25.4283422 C108.092701,23.6334995 108.991553,22.0646263 110.29543,21.9247404 C111.594975,21.7870067 112.81005,23.1320627 113.002816,24.9269053" id="Fill-60" fill="#FFFFFF"></path>
                                    <path d="M112.384232,47.4050499 C112.384232,47.4050499 89.3714533,43.5528097 89.6226987,55.4818419 C89.8717782,67.4130262 112.384232,47.4050499 112.384232,47.4050499" id="Fill-62" fill="#510D3A"></path>
                                    <path d="M89.6220489,55.4827027 C89.6220489,55.4827027 97.345679,49.6053462 102.790773,54.8241633 C102.790773,54.8241633 97.1550791,58.325613 95.4201863,58.7624871 C93.6852935,59.2015134 89.881958,60.4475732 89.6220489,55.4827027" id="Fill-64" fill="#ED125F"></path>
                                    <path d="M35.7091185,64.9002464 C35.7091185,64.9002464 39.4019926,62.2295034 39.7420403,60.5444173 C40.079922,58.8614833 46.7920728,55.4289005 46.430366,50.8040601 L41.4271172,48.109644 L32.284817,63.015016 C32.284817,63.015016 31.6718648,64.7539044 35.7091185,64.9002464" id="Fill-66" fill="#006699"></path>
                                    <path d="M40.6573533,55.6740235 C40.6573533,55.6740235 45.3465454,47.8275051 43.0723413,44.2141468 C40.7959714,40.6029406 54.0296729,35.659591 53.555339,31.5082103 C53.0788391,27.3546775 44.5538228,23.8596841 42.2926143,30.0038997 C40.0314057,36.1459632 37.2807018,38.7263185 34.8852068,39.2514284 C32.4897119,39.772234 25.8013862,24.2104747 21.8096166,18.1846241 C17.820013,12.1587734 11.6861598,18.4859166 14.2852502,21.2212224 C16.8821746,23.9565282 26.4273338,33.3912886 22.4853801,35.9415147 C18.5455924,38.4874366 9.81698072,21.3890854 7.60775395,25.7599792 C5.39852718,30.130873 7.96296296,34.0476759 15.8273771,39.8884469 C15.8273771,39.8884469 15.4180204,43.7191662 13.05718,43.0606268 C10.6963396,42.4020874 1.40459173,34.4522687 1.57569851,38.8898773 C1.74463938,43.329638 13.5661685,46.0326624 11.7143167,48.3440066 C9.8624648,50.6553507 -1.02555772,46.5018179 0.0790556639,49.4889182 C1.18150314,52.4760185 15.1104613,54.3526405 16.8085337,57.3569575 C18.506606,60.3612744 31.634178,69.3096627 35.6454408,64.3985944 C39.6545376,59.4875261 40.6573533,55.6740235 40.6573533,55.6740235" id="Fill-68" fill="#0082C6"></path>
                                    <path d="M34.8683128,39.8411009 C34.8683128,39.8411009 32.9818064,43.3339422 32.9644791,49.09939 C32.9449859,54.8626857 35.1282218,56.5499239 32.0959498,58.5341504 C29.0636777,60.5140728 22.1067793,59.2830776 18.4983756,55.4846396 C14.8899718,51.6862016 20.7270955,45.3504501 23.250379,40.39634 C25.7736626,35.4422299 30.5213342,35.8747999 31.5133203,37.5276047 C32.5074724,39.1825615 34.8683128,39.8411009 34.8683128,39.8411009" id="Fill-70" fill="#006699"></path>
                                    <path d="M34.3902967,52.9322614 C34.3902967,52.9322614 34.0632445,43.6610598 35.8132987,41.4444076 C37.5633528,39.2277554 42.0359541,42.3116997 42.4431449,45.3784272 C42.8503357,48.4451548 34.3902967,52.9322614 34.3902967,52.9322614" id="Fill-72" fill="#00A9E9"></path>
                                </g>
                            </g>
                            <g id="Group-35" transform="translate(148.140598, 24.494839) rotate(-25.000000) translate(-148.140598, -24.494839) translate(127.564466, 7.249805)" fill-rule="nonzero" stroke="#F8C31C" stroke-linecap="round" stroke-width="1.64609053">
                                <path d="M0.642979237,10.6754967 L16.4609053,0" id="Path-4"></path>
                                <path d="M6.58436214,21.6661341 L16.4609053,18.5285434" id="Path-5" stroke-linejoin="round"></path>
                                <path d="M23.8683128,16.2534265 L30.5286121,14.3500912" id="Path-8" stroke-linejoin="round"></path>
                                <path d="M9.87654321,32.9309923 L31.2363571,32.9309923" id="Path-9" stroke-linejoin="round"></path>
                                <path d="M36.156591,33.2665312 L41.1522634,33.2665312" id="Path-10" stroke-linejoin="round"></path>
                            </g>
                            <g id="Group-23" transform="translate(0.000000, 22.993377)">
                                <path d="M48.2933743,28.3132277 C49.385815,28.7283567 50.0837277,28.9934496 50.9795462,29.3340008 C50.2376239,30.9284034 49.5285017,32.3802976 48.7446,34.0650159 L50.4028614,34.8928537 C49.9067634,36.0898415 48.3169512,39.8911758 47.862623,40.987717 L55.2232106,32.6600167 C54.355475,32.1994235 53.7504561,31.8783506 52.9781372,31.468372 C53.8667709,30.0716819 54.7256408,28.721695 55.7789396,27.0657141 C54.951192,26.6702947 54.3200584,26.3690545 53.544513,25.9987202 C54.3990944,24.1622274 55.24211,22.3504063 56.0838405,20.5414488 L52.2905254,17.9424714 C52.2905254,17.9424714 49.0344462,26.1981807 48.2933743,28.3132277" id="Fill-7" fill="#F5A623" transform="translate(51.973232, 29.465094) rotate(-101.000000) translate(-51.973232, -29.465094) "></path>
                                <path d="M56.0244533,11.892715 C55.8838164,14.5227327 55.711187,16.9449578 55.5625122,19.7237588 L58.16744,19.4331491 C58.1410734,21.358332 58.0400415,27.4836091 58.0157955,29.2473016 L63.3211133,12.6847716 C61.9438968,12.8018815 60.9832065,12.883544 59.7572479,12.9880936 C60.1937341,10.4908126 60.6153075,8.07698563 61.1326736,5.11571632 C59.8413607,5.28416673 58.8570924,5.41253111 57.6475364,5.5697172 C57.8100595,2.54052518 57.9698947,-0.448296244 58.1301888,-3.43212731 L51.8034495,-3.66395073 C51.8034495,-3.66395073 51.8407076,9.47957204 51.9718836,12.7712371 C53.620071,12.4139564 54.6732942,12.1858578 56.0244533,11.892715 Z" id="Fill-9" fill="#F5A623" transform="translate(57.562281, 12.791675) rotate(-62.000000) translate(-57.562281, -12.791675) "></path>
                                <path d="M197.44437,72.93812 C200.218317,72.8761657 199.34876,76.7058881 195.982927,74.7440013 C194.554704,74.4611015 193.15195,74.9497693 191.766084,75.1926103 C193.836301,76.309281 194.430956,75.8119047 195.979051,76.2518053 C198.344657,76.9240967 197.750003,78.8638392 196.774969,78.9822739 C195.249575,79.1673904 195.568219,79.6752168 194.808844,80.246988 C193.999361,80.8568275 192.793718,79.4624821 192.546222,78.9208172 C191.778542,77.2433232 189.315211,75.6185774 187.287904,75.2782018 C184.013152,74.7290726 182.141984,77.0176502 181.814481,77.2858701 C181.020778,77.9360172 179.977641,78.2786321 178.989041,77.6819797 C178.612538,77.4548138 178.393556,77.1552435 178.388296,76.8365147 C176.2234,75.2692446 176.965057,74.1933792 177.684567,73.8564871 C178.726596,73.3683169 180.295731,74.4267654 181.367936,74.3864577 C182.586314,74.3406762 183.783374,73.9714385 184.988463,73.9744242 C184.195867,73.1782241 183.10982,72.7321033 181.904177,72.8077423 C177.744918,73.0684978 178.418749,70.9471222 178.903498,70.522648 C179.465485,70.0307457 179.543,70.3639056 179.681421,69.6229419 C179.922273,68.3311073 182.44374,67.8207928 183.285337,70.2706009 C185.170071,72.9901219 187.818609,74.1752159 190.879363,73.6173782 C191.992264,73.3762789 192.919681,72.9761883 193.934857,72.3165863 C196.912559,70.3810737 197.051256,72.5741073 197.44437,72.93812 Z M196.323274,66.386958 C196.437618,65.3765284 195.372612,64.4563244 193.943858,64.3314153 C192.51538,64.2067488 191.264495,64.9246728 191.150151,65.9351024 C191.03553,66.945532 192.100812,67.865736 193.529566,67.9904026 C194.958044,68.1153117 196.208929,67.3973876 196.323274,66.386958 Z M189.860598,66.2821799 C190.493636,65.432313 190.032391,64.1839498 188.830669,63.4941606 C187.628947,62.8043714 186.142192,62.9338888 185.50943,63.7837557 C184.876669,64.6336225 185.337913,65.8817432 186.53936,66.5717749 C187.740806,67.2615641 189.227837,67.1320468 189.860598,66.2821799 Z M195.278706,58.8657333 C199.257564,59.7524666 200.711728,62.6831005 198.971151,65.9736666 C198.270997,67.2974603 196.605821,68.5169611 196.509429,70.2972187 C195.164362,70.7614439 194.096317,70.6362923 192.551562,72.162366 C192.038945,72.668551 186.087229,71.8300836 185.938636,70.9329211 C185.552793,68.6016082 184.534464,68.8407545 183.669975,68.3898691 C184.538883,66.6518138 183.842596,65.5041055 183.621917,64.0238722 C183.130015,60.7240895 184.801544,58.5288426 188.538455,58.3396599 C190.772869,58.2266354 193.114446,58.3833175 195.278706,58.8657333 Z" id="Combined-Shape" fill="#3B0A0F" opacity="0.397995722"></path>
                                <mask id="mask-11" fill="white">
                                    <use xlink:href="#path-10"></use>
                                </mask>
                                <use id="Combined-Shape" fill="#CA0062" transform="translate(13.404919, 32.242838) rotate(-45.000000) translate(-13.404919, -32.242838) " xlink:href="#path-10"></use>
                            </g>
                        </g>
                    </g>
                </g>
            </g>
        </g>
    </g>
</svg>