<svg xmlns="http://www.w3.org/2000/svg" xmlns:xlink="http://www.w3.org/1999/xlink" width="20" height="20" viewBox="0 0 20 20">
    <defs>
        <path id="prefix__a" d="M16 18c.966 0 1.75-.784 1.75-1.75 0-.693-.403-1.292-.987-1.575l.173-.759c.106-.47-.25-.916-.732-.916H7.816l-.204-1h9.16c.35 0 .654-.242.732-.584l1.477-6.5c.107-.47-.25-.916-.731-.916H5.975L5.69 2.6c-.072-.35-.379-.6-.735-.6H1.75c-.414 0-.75.336-.75.75v.5c0 .414.336.75.75.75h2.184l2.195 10.732c-.525.302-.879.869-.879 1.518 0 .966.783 1.75 1.75 1.75.966 0 1.75-.784 1.75-1.75 0-.49-.201-.932-.526-1.25h6.552c-.325.318-.526.76-.526 1.25 0 .966.783 1.75 1.75 1.75z"/>
    </defs>
    <g fill="none" fill-rule="evenodd">
        <mask id="prefix__b" fill="#fff">
            <use xlink:href="#prefix__a"/>
        </mask>
        <use fill="#6E6E6E" fill-rule="nonzero" xlink:href="#prefix__a"/>
        <g fill="#0082C6" mask="url(#prefix__b)">
            <path d="M0 0H20V20H0z"/>
        </g>
    </g>
</svg>
