<svg xmlns="http://www.w3.org/2000/svg" xmlns:xlink="http://www.w3.org/1999/xlink" width="20" height="20" viewBox="0 0 20 20">
    <defs>
        <path id="prefix__a" d="M13 5c0 2.763-2.91 5-6.5 5-1.281 0-2.472-.29-3.478-.781C2.34 9.616 1.394 10 .25 10c-.1 0-.188-.056-.228-.15-.04-.094-.022-.2.047-.272.01-.01.7-.76 1.118-1.703C.441 7.06 0 6.072 0 5c0-2.762 2.91-5 6.5-5S13 2.238 13 5zm3.812 6.875c.42.947 1.11 1.694 1.12 1.703.068.075.087.181.046.272-.037.09-.128.15-.228.15-1.144 0-2.09-.384-2.772-.781-1.006.494-2.197.781-3.478.781-2.694 0-5.006-1.262-5.99-3.06.324.035.652.06.99.06 4.134 0 7.5-2.69 7.5-6 0-.212-.013-.422-.04-.628C16.327 5.119 18 6.909 18 9c0 1.072-.44 2.063-1.188 2.875z"/>
    </defs>
    <g fill="none" fill-rule="evenodd" transform="translate(1 3)">
        <mask id="prefix__b" fill="#fff">
            <use xlink:href="#prefix__a"/>
        </mask>
        <use fill="#000" fill-rule="nonzero" xlink:href="#prefix__a"/>
        <g fill="#0082C6" mask="url(#prefix__b)">
            <path d="M0 0H20V20H0z" transform="translate(-1 -3)"/>
        </g>
    </g>
</svg>
