<?xml version="1.0" encoding="UTF-8"?>
<svg width="320px" height="270px" viewBox="0 0 320 270" version="1.1" xmlns="http://www.w3.org/2000/svg" xmlns:xlink="http://www.w3.org/1999/xlink">
    <!-- Generator: Sketch 50.2 (55047) - http://www.bohemiancoding.com/sketch -->
    <title>HT</title>
    <desc>Created with Sketch.</desc>
    <defs>
        <circle id="path-1" cx="105" cy="105" r="105"></circle>
        <polygon id="path-3" points="0 0.453749369 22.6321603 0.453749369 22.6321603 9.34776148 0 9.34776148"></polygon>
        <polygon id="path-5" points="0.507035741 0.175735218 5.28226887 0.175735218 5.28226887 23.4946153 0.507035741 23.4946153"></polygon>
        <polygon id="path-7" points="0 0.282368652 22.6321603 0.282368652 22.6321603 9.17638076 0 9.17638076"></polygon>
        <polygon id="path-9" points="0 0.175787057 220.419137 0.175787057 220.419137 367.540617 0 367.540617"></polygon>
        <polygon id="path-11" points="0.475487638 0.028252417 10.9883758 0.028252417 10.9883758 6.82720428 0.475487638 6.82720428"></polygon>
        <polygon id="path-13" points="0.0420252797 0.205231778 20.3194493 0.205231778 20.3194493 7.33491979 0.0420252797 7.33491979"></polygon>
        <polygon id="path-15" points="0.475487638 0.375575709 10.9883758 0.375575709 10.9883758 7.17421254 0.475487638 7.17421254"></polygon>
        <polygon id="path-17" points="0.0420252797 0.0339029004 20.3194493 0.0339029004 20.3194493 7.16323039 0.0420252797 7.16323039"></polygon>
        <polygon id="path-19" points="0.248465752 0.503204058 3.73087422 0.503204058 3.73087422 4.17653666 0.248465752 4.17653666"></polygon>
        <filter x="-12.7%" y="-11.6%" width="125.3%" height="126.0%" filterUnits="objectBoundingBox" id="filter-21">
            <feOffset dx="0" dy="2" in="SourceAlpha" result="shadowOffsetOuter1"></feOffset>
            <feGaussianBlur stdDeviation="6" in="shadowOffsetOuter1" result="shadowBlurOuter1"></feGaussianBlur>
            <feColorMatrix values="0 0 0 0 1   0 0 0 0 0.696132437   0 0 0 0 0.667771465  0 0 0 1 0" type="matrix" in="shadowBlurOuter1" result="shadowMatrixOuter1"></feColorMatrix>
            <feMerge>
                <feMergeNode in="shadowMatrixOuter1"></feMergeNode>
                <feMergeNode in="SourceGraphic"></feMergeNode>
            </feMerge>
        </filter>
        <polygon id="path-22" points="0.00036 6.39488462e-15 45 6.39488462e-15 45 44.99964 0.00036 44.99964"></polygon>
    </defs>
    <g id="ONBOARDING" stroke="none" stroke-width="1" fill="none" fill-rule="evenodd">
        <g id="mobile-4" transform="translate(0.000000, -30.000000)">
            <g id="Group-9" transform="translate(0.000000, 30.000000)">
                <g id="Group-3-+-Group-3-Copy-Mask" transform="translate(55.000000, 24.000000)">
                    <mask id="mask-2" fill="white">
                        <use xlink:href="#path-1"></use>
                    </mask>
                    <use id="Mask" fill="#F9E1DE" xlink:href="#path-1"></use>
                    <g id="Group-3" opacity="0.299609375" style="mix-blend-mode: color-burn;" mask="url(#mask-2)">
                        <g transform="translate(108.000000, 57.000000) rotate(-90.000000) translate(-108.000000, -57.000000) translate(-3.000000, -127.000000)">
                            <path d="M34.8720879,196.232787 C35.5916173,195.515331 35.5916173,194.352576 34.8720879,193.63512 L25.0703136,183.858228 L19.8620194,183.858228 L32.2682,196.232787 C32.9872111,196.950243 34.1530768,196.950243 34.8720879,196.232787" id="Fill-4" fill="#333333"></path>
                            <path d="M162.035802,189.587559 C162.755332,190.305015 163.921197,190.305015 164.640208,189.587559 C165.359219,188.870622 165.359219,187.707348 164.640208,186.989892 L161.500302,183.85828 L156.292008,183.85828 L162.035802,189.587559 Z" id="Fill-6" fill="#333333"></path>
                            <path d="M120.640309,217.425106 C120.837817,216.43031 120.188789,215.463507 119.190882,215.266518 L97.5132432,210.989776 C96.5153367,210.793305 95.5469786,211.440259 95.3494709,212.435574 C95.1519632,213.430888 95.8004728,214.397173 96.7983793,214.594162 L118.476018,218.870904 C119.473925,219.067375 120.442801,218.420421 120.640309,217.425106" id="Fill-8" fill="#333333"></path>
                            <path d="M47.8582466,211.13026 L26.9929294,218.38828 C26.0323473,218.722644 25.5253589,219.770316 25.8602408,220.727788 C26.195641,221.685778 27.2453868,222.191211 28.205969,221.857366 L49.0712861,214.598828 C50.0313499,214.264983 50.5383382,213.217829 50.2034564,212.259839 C49.8685745,211.301848 48.8188288,210.796415 47.8582466,211.13026" id="Fill-10" fill="#333333"></path>
                            <path d="M20.4244239,278.211244 C21.0781175,278.988834 22.2393177,279.090439 23.0189807,278.438819 L39.953324,264.278396 C40.7324686,263.626258 40.834592,262.46765 40.1814169,261.690579 C39.5282417,260.912989 38.3660047,260.811384 37.5868601,261.463004 L20.6525168,275.623426 C19.8733722,276.275565 19.7707304,277.433655 20.4244239,278.211244" id="Fill-12" fill="#333333"></path>
                            <path d="M11.8694365,324.791704 C12.588966,324.074248 12.588966,322.911493 11.8694365,322.194037 L0.000311035783,310.35446 L0.000311035783,315.549794 L9.26554863,324.791704 C9.98455969,325.50916 11.1504255,325.50916 11.8694365,324.791704" id="Fill-14" fill="#333333"></path>
                            <path d="M54.0450593,184.916735 C54.6531343,185.729575 55.8065587,185.897016 56.6219908,185.290496 L58.5462655,183.858176 L53.6811475,183.858176 C53.6889234,184.227272 53.8065986,184.597923 54.0450593,184.916735" id="Fill-16" fill="#333333"></path>
                            <path d="M14.3540941,341.454668 C13.7460191,340.641828 12.5920763,340.474387 11.7766442,341.080907 L0.000311035783,349.846414 L0.000311035783,354.430563 L13.9792959,344.025379 C14.7952465,343.418859 14.9626874,342.268027 14.3540941,341.454668" id="Fill-18" fill="#333333"></path>
                            <path d="M90.2556379,330.176615 C90.1960227,329.163675 89.3246041,328.391269 88.3095907,328.450366 L66.2493777,329.742201 C65.2338459,329.801816 64.4593668,330.671161 64.5195004,331.683583 C64.5791156,332.696004 65.4500158,333.468928 66.4650292,333.409313 L88.5252422,332.117996 C89.540774,332.058381 90.3152531,331.189554 90.2556379,330.176615" id="Fill-20" fill="#333333"></path>
                            <path d="M133.266029,183.858176 L132.181032,205.247589 C132.13023,206.260529 132.911448,207.123135 133.927498,207.174974 C134.94303,207.225776 135.808228,206.446113 135.859549,205.433173 L136.953877,183.858176 L133.266029,183.858176 Z" id="Fill-22" fill="#333333"></path>
                            <path d="M93.6955381,229.976903 C92.6800063,229.925583 91.8148084,230.705246 91.7634875,231.718704 L90.6468691,253.732261 C90.5960666,254.74572 91.3772848,255.608326 92.3928166,255.659646 C93.4088668,255.710967 94.2740647,254.931304 94.3253856,253.918365 L95.4420041,231.904289 C95.493325,230.891349 94.7115884,230.028224 93.6955381,229.976903" id="Fill-24" fill="#333333"></path>
                            <path d="M149.586284,215.434063 C148.625702,215.767908 148.118713,216.81558 148.453595,217.773052 L155.730277,238.586011 C156.065159,239.543483 157.114905,240.049434 158.075487,239.715071 C159.036069,239.381226 159.543058,238.334072 159.208176,237.376082 L151.930975,216.563641 C151.596612,215.605651 150.546866,215.099699 149.586284,215.434063" id="Fill-26" fill="#333333"></path>
                            <path d="M43.0018894,241.737426 C42.5944325,242.666904 43.0195147,243.749827 43.9515853,244.156247 L64.2005332,252.983443 C65.1320854,253.389863 66.2176002,252.965299 66.6245387,252.03582 C67.0319956,251.106342 66.6069134,250.023419 65.6748428,249.617517 L45.4269317,240.789803 C44.4948611,240.383902 43.4088279,240.807947 43.0018894,241.737426" id="Fill-28" fill="#333333"></path>
                            <path d="M162.622571,315.599352 C162.287689,314.641362 161.237425,314.135929 160.277361,314.469774 C159.316779,314.804138 158.810309,315.851291 159.145191,316.809282 L166.421873,337.621723 C166.756755,338.579713 167.806501,339.085146 168.767083,338.751301 C169.727147,338.417456 170.234135,337.369784 169.899253,336.411793 L162.622571,315.599352 Z" id="Fill-30" fill="#333333"></path>
                            <path d="M84.3239782,185.412578 C84.4468373,186.419297 85.3654296,187.136753 86.3747408,187.013894 L108.310539,184.349354 C108.717996,184.300106 109.076724,184.119706 109.353028,183.857917 L84.8874713,183.857917 C84.4784593,184.245157 84.2503663,184.81176 84.3239782,185.412578" id="Fill-32" fill="#333333"></path>
                            <path d="M2.50140161,263.085989 C1.50349514,262.889518 0.535137065,263.536472 0.337629343,264.531787 L0.000155517892,266.233671 L0.000155517892,285.166937 L3.95082836,265.244577 C4.14781769,264.249263 3.49930808,263.282978 2.50140161,263.085989" id="Fill-34" fill="#333333"></path>
                            <path d="M150.261128,270.988423 L167.971505,257.806727 C168.786419,257.199688 168.954897,256.048856 168.346303,255.236016 C167.738228,254.422657 166.583767,254.255735 165.768854,254.862254 L148.058476,268.043951 C147.243044,268.650989 147.075085,269.801822 147.683678,270.614662 C148.291753,271.42802 149.445696,271.594943 150.261128,270.988423" id="Fill-36" fill="#333333"></path>
                            <path d="M75.3113016,202.317061 C74.3133951,202.120072 73.3450371,202.767545 73.1475293,203.762341 L68.8604195,225.385549 C68.6629117,226.380345 69.3114213,227.347148 70.3093278,227.544137 C71.3067159,227.740608 72.2755924,227.093135 72.4725817,226.098339 L76.7607284,204.475131 C76.9582361,203.480335 76.3092081,202.513532 75.3113016,202.317061" id="Fill-38" fill="#333333"></path>
                            <g id="Group-42" stroke-width="1" fill="none" transform="translate(0.000000, 232.758445)">
                                <mask id="mask-4" fill="white">
                                    <use xlink:href="#path-3"></use>
                                </mask>
                                <g id="Clip-41"></g>
                                <path d="M22.5769989,7.95437729 C22.8232356,6.96994903 22.2218997,5.97359774 21.2353979,5.72839786 L-5.18392974e-05,0.453749369 L-5.18392974e-05,4.23957325 L20.3453172,9.29286794 C21.3323374,9.53806782 22.3312806,8.93880554 22.5769989,7.95437729" id="Fill-40" fill="#333333" mask="url(#mask-4)"></path>
                            </g>
                            <path d="M2.77578701,199.071248 C1.95517093,198.471467 0.802783357,198.648757 0.201447509,199.466781 L0.000311035783,199.741011 L0.000311035783,205.954469 L3.17235763,201.638848 C3.77317509,200.820824 3.59588469,199.671028 2.77578701,199.071248" id="Fill-43" fill="#333333"></path>
                            <path d="M116.242107,249.037487 C116.612758,249.981999 117.680648,250.448035 118.62827,250.07842 L139.205879,242.044885 C140.152983,241.67527 140.620055,240.609973 140.249923,239.664942 C139.879272,238.72043 138.810864,238.254395 137.86376,238.624009 L117.286151,246.657545 C116.339047,247.027159 115.870938,248.092457 116.242107,249.037487" id="Fill-45" fill="#333333"></path>
                            <path d="M41.3692107,302.312992 C41.1831076,301.315604 40.2214887,300.657764 39.2215086,300.843867 L17.4972143,304.878001 C16.4972343,305.064104 15.83732,306.023131 16.0234231,307.020519 C16.2100446,308.017389 17.1711451,308.675229 18.1711252,308.490163 L39.8954195,304.454992 C40.8953995,304.269407 41.5547954,303.31038 41.3692107,302.312992" id="Fill-47" fill="#333333"></path>
                            <path d="M177.789091,306.60793 C177.069561,307.325386 177.069561,308.488141 177.789091,309.205597 L184.149254,315.550209 L184.149254,310.354874 L180.392979,306.60793 C179.673967,305.890474 178.508102,305.890474 177.789091,306.60793" id="Fill-49" fill="#333333"></path>
                            <path d="M159.955647,290.506644 C159.769544,289.509256 158.807925,288.851415 157.807945,289.037 L136.083132,293.071653 C135.08367,293.257237 134.423756,294.216264 134.609859,295.213652 C134.79648,296.21104 135.757581,296.868881 136.757561,296.683296 L158.481855,292.648644 C159.481835,292.463059 160.141231,291.504032 159.955647,290.506644" id="Fill-53" fill="#333333"></path>
                            <path d="M97.4118455,319.033706 L116.549359,308.012671 C117.430109,307.505683 117.731813,306.382325 117.22327,305.503649 C116.714726,304.625491 115.588258,304.324305 114.707509,304.831294 L95.5705137,315.852328 C94.689764,316.359835 94.3880593,317.483192 94.8960844,318.36135 C95.4051463,319.240026 96.5310959,319.541212 97.4118455,319.033706" id="Fill-55" fill="#333333"></path>
                            <path d="M181.648163,288.312805 C182.64607,288.509794 183.614946,287.862322 183.812454,286.867526 L184.148891,285.167197 L184.148891,266.23393 L180.198737,286.154735 C180.001747,287.149531 180.650257,288.116334 181.648163,288.312805" id="Fill-57" fill="#333333"></path>
                            <path d="M44.5190701,325.561414 C43.5211636,325.364943 42.5522871,326.011897 42.3547794,327.007212 L38.0671511,348.629901 C37.8701618,349.625216 38.5186714,350.5915 39.5165779,350.788489 C40.513966,350.98496 41.4833608,350.338006 41.6803502,349.342691 L45.9679784,327.720002 C46.1654862,326.724688 45.5164582,325.758403 44.5190701,325.561414" id="Fill-59" fill="#333333"></path>
                            <path d="M183.941482,233.160666 C182.954462,232.915466 181.955,233.514728 181.709282,234.499156 C181.463564,235.483585 182.064381,236.479936 183.051401,236.725136 L184.148839,236.997811 L184.148839,233.212505 L183.941482,233.160666 Z" id="Fill-61" fill="#333333"></path>
                            <path d="M171.682266,219.811062 C172.502364,220.410842 173.654751,220.233552 174.256087,219.415528 L184.149098,205.954936 L184.149098,199.740959 L171.285695,217.243461 C170.684359,218.061485 170.862168,219.211281 171.682266,219.811062" id="Fill-63" fill="#333333"></path>
                            <path d="M141.478825,316.910731 C140.501136,316.63028 139.480939,317.193774 139.19997,318.168871 L133.098484,339.353518 C132.818034,340.328615 133.382564,341.346221 134.360253,341.626671 C135.337424,341.906603 136.357621,341.34311 136.63859,340.368013 L142.740594,319.183366 C143.021044,318.208269 142.456514,317.190663 141.478825,316.910731" id="Fill-68" fill="#333333"></path>
                            <path d="M91.9196275,274.500224 C91.7340428,273.502836 90.7719055,272.844996 89.7719254,273.03058 L68.0476311,277.065233 C67.0476511,277.250817 66.3882552,278.209844 66.5743583,279.207233 C66.7609798,280.204621 67.7220803,280.862461 68.7220604,280.676877 L90.4463547,276.642224 C91.4463347,276.456121 92.1057306,275.497612 91.9196275,274.500224" id="Fill-72" fill="#333333"></path>
                            <path d="M123.052599,265.560745 L108.202714,281.883384 C107.518953,282.635054 107.575977,283.796773 108.329202,284.47846 C109.081908,285.160146 110.246737,285.103642 110.929979,284.35249 L125.780383,268.029332 C126.463624,267.278181 126.40712,266.116462 125.653895,265.434775 C124.90067,264.753089 123.735841,264.809593 123.052599,265.560745" id="Fill-81" fill="#333333"></path>
                            <path d="M58.5354311,290.259837 C57.6344641,290.730538 57.2866224,291.840417 57.75836,292.739311 L68.0106179,312.265101 C68.4823555,313.163994 69.5953452,313.510799 70.4963122,313.040098 C71.3977975,312.569397 71.7451208,311.459518 71.2733832,310.560624 L61.0211254,291.034835 C60.5493878,290.135941 59.4358797,289.789136 58.5354311,290.259837" id="Fill-83" fill="#333333"></path>
                            <path d="M17.1748776,204.579691 C16.1577906,204.579691 15.3330273,205.401863 15.3330273,206.416358 C15.3330273,207.430853 16.1577906,208.253024 17.1748776,208.253024 C18.1919646,208.253024 19.0162094,207.430853 19.0162094,206.416358 C19.0162094,205.401863 18.1919646,204.579691 17.1748776,204.579691" id="Fill-88" fill="#333333"></path>
                            <path d="M90.233347,292.860148 C89.21626,292.860148 88.3914968,293.68232 88.3914968,294.696815 C88.3914968,295.71131 89.21626,296.533481 90.233347,296.533481 C91.250434,296.533481 92.0746788,295.71131 92.0746788,294.696815 C92.0746788,293.68232 91.250434,292.860148 90.233347,292.860148" id="Fill-90" fill="#333333"></path>
                            <path d="M118.832517,324.773716 C117.815948,324.773716 116.991185,325.595887 116.991185,326.610382 C116.991185,327.624877 117.815948,328.447048 118.832517,328.447048 C119.849604,328.447048 120.674367,327.624877 120.674367,326.610382 C120.674367,325.595887 119.849604,324.773716 118.832517,324.773716" id="Fill-92" fill="#333333"></path>
                            <path d="M24.8363628,331.816343 C23.8192758,331.816343 22.9945126,332.638515 22.9945126,333.65301 C22.9945126,334.667505 23.8192758,335.489676 24.8363628,335.489676 C25.8534498,335.489676 26.6776947,334.667505 26.6776947,333.65301 C26.6776947,332.638515 25.8534498,331.816343 24.8363628,331.816343" id="Fill-98" fill="#333333"></path>
                            <path d="M53.5292065,313.862891 C52.5121195,313.862891 51.6873563,314.685581 51.6873563,315.699558 C51.6873563,316.714053 52.5121195,317.536742 53.5292065,317.536742 C54.5462935,317.536742 55.3710567,316.714053 55.3710567,315.699558 C55.3710567,314.685581 54.5462935,313.862891 53.5292065,313.862891" id="Fill-100" fill="#333333"></path>
                            <path d="M41.8653646,285.899323 C41.8653646,286.913818 42.6901278,287.735989 43.7072148,287.735989 C44.7243019,287.735989 45.5480283,286.913818 45.5480283,285.899323 C45.5480283,284.884828 44.7243019,284.062657 43.7072148,284.062657 C42.6901278,284.062657 41.8653646,284.884828 41.8653646,285.899323" id="Fill-102" fill="#333333"></path>
                            <path d="M7.25807185,292.860148 C6.24098483,292.860148 5.41622162,293.68232 5.41622162,294.696815 C5.41622162,295.71131 6.24098483,296.533481 7.25807185,296.533481 C8.27515886,296.533481 9.09940368,295.71131 9.09940368,294.696815 C9.09940368,293.68232 8.27515886,292.860148 7.25807185,292.860148" id="Fill-104" fill="#333333"></path>
                            <path d="M19.0160539,258.35866 C20.0331409,258.35866 20.8579041,257.536488 20.8579041,256.521993 C20.8579041,255.507498 20.0331409,254.684809 19.0160539,254.684809 C17.9994853,254.684809 17.1747221,255.507498 17.1747221,256.521993 C17.1747221,257.536488 17.9994853,258.35866 19.0160539,258.35866" id="Fill-106" fill="#333333"></path>
                            <path d="M116.991341,199.298304 C118.008428,199.298304 118.832673,198.476132 118.832673,197.461637 C118.832673,196.447142 118.008428,195.624971 116.991341,195.624971 C115.974254,195.624971 115.149491,196.447142 115.149491,197.461637 C115.149491,198.476132 115.974254,199.298304 116.991341,199.298304" id="Fill-108" fill="#333333"></path>
                            <path d="M57.4976084,197.46143 C57.4976084,198.475925 58.3223716,199.298096 59.3394586,199.298096 C60.3565456,199.298096 61.1802721,198.475925 61.1802721,197.46143 C61.1802721,196.446935 60.3565456,195.624764 59.3394586,195.624764 C58.3223716,195.624764 57.4976084,196.446935 57.4976084,197.46143" id="Fill-110" fill="#333333"></path>
                            <path d="M174.198805,242.514289 C173.181718,242.514289 172.357473,243.336461 172.357473,244.350956 C172.357473,245.365451 173.181718,246.18814 174.198805,246.18814 C175.215892,246.18814 176.040655,245.365451 176.040655,244.350956 C176.040655,243.336461 175.215892,242.514289 174.198805,242.514289" id="Fill-112" fill="#333333"></path>
                            <path d="M152.338743,303.917263 C151.321656,303.917263 150.497411,304.739434 150.497411,305.753929 C150.497411,306.768424 151.321656,307.591114 152.338743,307.591114 C153.35583,307.591114 154.180593,306.768424 154.180593,305.753929 C154.180593,304.739434 153.35583,303.917263 152.338743,303.917263" id="Fill-120" fill="#333333"></path>
                            <path d="M168.214528,281.7866 C167.197441,281.7866 166.372678,282.608772 166.372678,283.623267 C166.372678,284.637762 167.197441,285.459933 168.214528,285.459933 C169.231615,285.459933 170.05586,284.637762 170.05586,283.623267 C170.05586,282.608772 169.231615,281.7866 168.214528,281.7866" id="Fill-122" fill="#333333"></path>
                            <path d="M131.984717,281.7866 C131.984717,280.772105 131.160472,279.949934 130.142867,279.949934 C129.12578,279.949934 128.302053,280.772105 128.302053,281.7866 C128.302053,282.801096 129.12578,283.623267 130.142867,283.623267 C131.160472,283.623267 131.984717,282.801096 131.984717,281.7866" id="Fill-124" fill="#333333"></path>
                            <path d="M107.7838,262.925235 C106.766713,262.925235 105.942468,263.747406 105.942468,264.761901 C105.942468,265.776396 106.766713,266.599086 107.7838,266.599086 C108.800887,266.599086 109.625651,265.776396 109.625651,264.761901 C109.625651,263.747406 108.800887,262.925235 107.7838,262.925235" id="Fill-126" fill="#333333"></path>
                            <path d="M140.321046,255.394126 C140.321046,256.408621 141.145809,257.230792 142.162896,257.230792 C143.179983,257.230792 144.004228,256.408621 144.004228,255.394126 C144.004228,254.379631 143.179983,253.557459 142.162896,253.557459 C141.145809,253.557459 140.321046,254.379631 140.321046,255.394126" id="Fill-128" fill="#333333"></path>
                            <path d="M51.1300838,229.41144 C51.1300838,230.425935 51.954847,231.248107 52.9719341,231.248107 C53.9890211,231.248107 54.8132659,230.425935 54.8132659,229.41144 C54.8132659,228.396945 53.9890211,227.574774 52.9719341,227.574774 C51.954847,227.574774 51.1300838,228.396945 51.1300838,229.41144" id="Fill-130" fill="#333333"></path>
                            <path d="M74.3074336,260.256807 C74.3074336,261.271302 75.1321968,262.093474 76.1492839,262.093474 C77.1663709,262.093474 77.9900973,261.271302 77.9900973,260.256807 C77.9900973,259.242312 77.1663709,258.420141 76.1492839,258.420141 C75.1321968,258.420141 74.3074336,259.242312 74.3074336,260.256807" id="Fill-132" fill="#333333"></path>
                            <path d="M132.737009,224.802097 C132.737009,225.816593 133.561772,226.638764 134.578859,226.638764 C135.595946,226.638764 136.420191,225.816593 136.420191,224.802097 C136.420191,223.787602 135.595946,222.965431 134.578859,222.965431 C133.561772,222.965431 132.737009,223.787602 132.737009,224.802097" id="Fill-134" fill="#333333"></path>
                            <path d="M107.7838,231.248314 C106.766713,231.248314 105.942468,232.070485 105.942468,233.08498 C105.942468,234.099475 106.766713,234.921647 107.7838,234.921647 C108.800887,234.921647 109.625651,234.099475 109.625651,233.08498 C109.625651,232.070485 108.800887,231.248314 107.7838,231.248314" id="Fill-136" fill="#333333"></path>
                            <path d="M87.7198668,214.93034 C87.7198668,213.915845 86.8951036,213.093674 85.8780166,213.093674 C84.861448,213.093674 84.0372032,213.915845 84.0372032,214.93034 C84.0372032,215.944835 84.861448,216.767006 85.8780166,216.767006 C86.8951036,216.767006 87.7198668,215.944835 87.7198668,214.93034" id="Fill-138" fill="#333333"></path>
                            <path d="M159.856426,204.579691 C159.856426,203.565196 159.031663,202.743025 158.014576,202.743025 C156.997489,202.743025 156.173763,203.565196 156.173763,204.579691 C156.173763,205.594186 156.997489,206.416358 158.014576,206.416358 C159.031663,206.416358 159.856426,205.594186 159.856426,204.579691" id="Fill-140" fill="#333333"></path>
                            <path d="M193.414803,324.791704 C194.133814,325.50916 195.299679,325.50916 196.018691,324.791704 C196.737702,324.074248 196.737702,322.911493 196.018691,322.194037 L184.149047,310.35446 L184.149047,315.549794 L193.414803,324.791704 Z" id="Fill-151" fill="#333333"></path>
                            <path d="M198.503555,341.454668 C197.894962,340.641828 196.741538,340.474387 195.926106,341.080907 L184.149254,349.846414 L184.149254,354.430563 L198.128757,344.025379 C198.944189,343.418859 199.11163,342.268027 198.503555,341.454668" id="Fill-153" fill="#333333"></path>
                            <path d="M188.099771,265.244318 C188.297279,264.249003 187.648251,263.282719 186.650345,263.08573 C185.652956,262.889259 184.68408,263.536213 184.486572,264.531528 L184.149098,266.23393 L184.149098,285.167197 L188.099771,265.244318 Z" id="Fill-155" fill="#333333"></path>
                            <path d="M205.384393,238.486583 L184.148943,233.212453 L184.148943,236.997759 L204.494312,242.051053 C205.481332,242.296772 206.480275,241.696991 206.726512,240.712563 C206.97223,239.728653 206.370895,238.731783 205.384393,238.486583" id="Fill-157" fill="#333333"></path>
                            <path d="M187.321145,201.638692 C187.922481,200.820668 187.744672,199.671391 186.924574,199.071092 C186.104477,198.47183 184.952089,198.648602 184.351272,199.466626 L184.149098,199.740856 L184.149098,205.954832 L187.321145,201.638692 Z" id="Fill-159" fill="#333333"></path>
                            <path d="M193.248761,294.697074 C193.248761,293.682579 192.423998,292.860407 191.406911,292.860407 C190.389824,292.860407 189.566098,293.682579 189.566098,294.697074 C189.566098,295.711569 190.389824,296.53374 191.406911,296.53374 C192.423998,296.53374 193.248761,295.711569 193.248761,294.697074" id="Fill-171" fill="#333333"></path>
                            <path d="M96.7982756,30.9115138 L118.475915,35.1882558 C119.473821,35.3847267 120.442697,34.7377723 120.640205,33.7424578 C120.837713,32.7476617 120.188685,31.7813772 119.190778,31.5843878 L97.5131395,27.3076458 C96.515233,27.1106565 95.546875,27.7581293 95.3493672,28.7529254 C95.1518595,29.7482399 95.8003691,30.7145244 96.7982756,30.9115138" id="Fill-184" fill="#333333"></path>
                            <path d="M28.2059171,38.1748214 L49.0712343,30.9168014 C50.0318165,30.5824379 50.5382864,29.5352841 50.2039229,28.5772939 C49.8685227,27.6193037 48.8187769,27.1138705 47.8581947,27.4477156 L26.9928776,34.706254 C26.0328138,35.0400991 25.5253071,36.0872529 25.8607073,37.0452431 C26.1955892,38.0032333 27.245335,38.5091848 28.2059171,38.1748214" id="Fill-186" fill="#333333"></path>
                            <path d="M20.4244239,94.528803 C21.0781175,95.3063925 22.2393177,95.4079975 23.0189807,94.7563775 L39.953324,80.5959551 C40.7324686,79.9438167 40.834592,78.7852084 40.1814169,78.0081374 C39.5282417,77.2305479 38.3660047,77.1289429 37.5868601,77.7805629 L20.6525168,91.9409853 C19.8733722,92.5926053 19.7707304,93.7512136 20.4244239,94.528803" id="Fill-188" fill="#333333"></path>
                            <path d="M11.8694365,141.109211 C12.588966,140.391755 12.588966,139.229 11.8694365,138.511544 L0.000311035783,126.671967 L0.000311035783,131.867301 L9.26554863,141.109211 C9.98455969,141.826667 11.1504255,141.826667 11.8694365,141.109211" id="Fill-190" fill="#333333"></path>
                            <path d="M14.3540941,157.772227 C13.7460191,156.959387 12.5920763,156.791946 11.7766442,157.398466 L0.000311035783,166.163973 L0.000311035783,170.747603 L13.9792959,160.342938 C14.7952465,159.736418 14.9626874,158.585067 14.3540941,157.772227" id="Fill-195" fill="#333333"></path>
                            <path d="M66.2495851,146.05976 C65.2340533,146.119375 64.4595742,146.988202 64.5191894,148.001142 C64.5788045,149.013563 65.4502231,149.786487 66.4652366,149.726872 L88.5254495,148.435555 C89.5409813,148.37594 90.3154604,147.507113 90.2558453,146.494173 C90.1957117,145.481234 89.3248115,144.708828 88.309798,144.767925 L66.2495851,146.05976 Z" id="Fill-197" fill="#333333"></path>
                            <g id="Group-201" stroke-width="1" fill="none" transform="translate(131.671815, 0.000000)">
                                <mask id="mask-6" fill="white">
                                    <use xlink:href="#path-5"></use>
                                </mask>
                                <g id="Clip-200"></g>
                                <path d="M2.2558907,23.4922217 C3.27142253,23.5435426 4.1366204,22.7633612 4.18794131,21.7504213 L5.28226887,0.175424182 L1.59442127,0.175424182 L0.509424774,21.5648366 C0.45810387,22.5777765 1.23984047,23.4409008 2.2558907,23.4922217" id="Fill-199" fill="#333333" mask="url(#mask-6)"></path>
                            </g>
                            <path d="M92.3929721,71.9771535 C93.4090224,72.0284744 94.2742202,71.2488114 94.3255411,70.2353531 L95.4421596,48.2217956 C95.4929621,47.2083373 94.7117439,46.3457314 93.6956937,46.2944105 C92.6801618,46.2430896 91.814964,47.0227526 91.7636431,48.0362109 L90.6470246,70.0497685 C90.5957037,71.0632267 91.3774403,71.9258326 92.3929721,71.9771535" id="Fill-202" fill="#333333"></path>
                            <path d="M155.73007,54.9033626 C156.064952,55.8613528 157.115216,56.366786 158.07528,56.0329409 C159.035862,55.6985774 159.54285,54.6514236 159.207968,53.6934334 L151.931286,32.8809923 C151.596404,31.9230021 150.546659,31.4170506 149.586076,31.751414 C148.626013,32.0852591 148.118506,33.1329313 148.453906,34.0909215 L155.73007,54.9033626 Z" id="Fill-204" fill="#333333"></path>
                            <path d="M43.0018894,58.0547253 C42.5944325,58.9842039 43.0195147,60.0671268 43.9515853,60.4735469 L64.2005332,69.3007425 C65.1320854,69.7071625 66.2176002,69.2831171 66.6245387,68.3536385 C67.0319956,67.4236415 66.6069134,66.3407186 65.6748428,65.9348169 L45.4269317,57.107103 C44.4948611,56.7012013 43.4088279,57.1252467 43.0018894,58.0547253" id="Fill-206" fill="#333333"></path>
                            <path d="M169.899305,152.729508 L162.622623,131.917067 C162.287223,130.959077 161.237477,130.453125 160.276895,130.787488 C159.316831,131.121334 158.809843,132.168487 159.145243,133.126478 L166.421925,153.938919 C166.756807,154.896909 167.806553,155.40286 168.766616,155.068497 C169.727199,154.734652 170.234187,153.687498 169.899305,152.729508" id="Fill-208" fill="#333333"></path>
                            <path d="M2.50140161,79.4034957 C1.50349514,79.2065064 0.535137065,79.8539792 0.337629343,80.8492937 L0.000155517892,82.5511779 L0.000155517892,101.484444 L3.95082836,81.5620841 C4.14781769,80.5667696 3.49930808,79.6004851 2.50140161,79.4034957" id="Fill-213" fill="#333333"></path>
                            <path d="M150.261128,87.3059819 L167.971505,74.123767 C168.786419,73.5172472 168.954897,72.3664148 168.346303,71.5530562 C167.738228,70.7402161 166.583767,70.5732935 165.768854,71.1798133 L148.058476,84.3615098 C147.243044,84.968548 147.075085,86.1193804 147.683678,86.9322206 C148.291753,87.7455791 149.445696,87.9125017 150.261128,87.3059819" id="Fill-215" fill="#333333"></path>
                            <path d="M70.3091205,43.8611776 C71.3070269,44.0581669 72.275385,43.4106941 72.4728927,42.415898 L76.760521,20.7926903 C76.9580287,19.7973758 76.3090007,18.8310913 75.3110943,18.6341019 C74.3137062,18.437631 73.3448297,19.0845854 73.1478404,20.0798999 L68.8602121,41.7031076 C68.6627044,42.6979037 69.311214,43.6647066 70.3091205,43.8611776" id="Fill-217" fill="#333333"></path>
                            <g id="Group-221" stroke-width="1" fill="none" transform="translate(0.000000, 49.247332)">
                                <mask id="mask-8" fill="white">
                                    <use xlink:href="#path-7"></use>
                                </mask>
                                <g id="Clip-220"></g>
                                <path d="M22.5769989,7.78299657 C22.8232356,6.79856832 22.2218997,5.80169863 21.2353979,5.55701715 L-5.18392974e-05,0.282368652 L-5.18392974e-05,4.06819253 L20.3453172,9.12148723 C21.3323374,9.3666871 22.3312806,8.76742483 22.5769989,7.78299657" id="Fill-219" fill="#333333" mask="url(#mask-8)"></path>
                            </g>
                            <path d="M2.77578701,15.3888064 C1.95517093,14.7890258 0.802783357,14.9663162 0.201447509,15.7843403 L0.000311035783,16.0585701 L0.000311035783,22.2720283 L3.17235763,17.9564068 C3.77317509,17.1383827 3.59588469,15.9885871 2.77578701,15.3888064" id="Fill-222" fill="#333333"></path>
                            <path d="M116.242107,65.3547351 C116.612758,66.2992471 117.680648,66.7658008 118.62827,66.3956682 L139.205879,58.3626507 C140.152983,57.9925182 140.620055,56.9272206 140.249923,55.9821902 C139.879272,55.0376782 138.810864,54.5716429 137.86376,54.9412571 L117.286151,62.974793 C116.339047,63.3444072 115.870938,64.4102232 116.242107,65.3547351" id="Fill-224" fill="#333333"></path>
                            <path d="M18.1711252,124.807152 L39.8954195,120.772499 C40.8953995,120.586914 41.5547954,119.627887 41.3692107,118.630499 C41.1831076,117.633111 40.2214887,116.975271 39.2215086,117.160855 L17.4972143,121.195508 C16.4972343,121.381611 15.83732,122.340638 16.0234231,123.338026 C16.2100446,124.334896 17.1711451,124.992736 18.1711252,124.807152" id="Fill-226" fill="#333333"></path>
                            <path d="M177.789091,122.925489 C177.069561,123.642945 177.069561,124.8057 177.789091,125.523156 L184.149254,131.867768 L184.149254,126.671915 L180.392979,122.925489 C179.673967,122.208033 178.508102,122.208033 177.789091,122.925489" id="Fill-228" fill="#333333"></path>
                            <path d="M180.418017,173.524997 L184.148891,170.747966 L184.148891,166.164336 L178.215365,170.580525 C177.400451,171.187563 177.232492,172.337877 177.840567,173.151236 C178.44916,173.964076 179.603103,174.131517 180.418017,173.524997" id="Fill-230" fill="#333333"></path>
                            <path d="M157.808204,105.354507 L136.083391,109.38916 C135.083411,109.574744 134.424015,110.533771 134.610118,111.531159 C134.796221,112.528547 135.75784,113.186388 136.75782,113.000803 L158.482115,108.966151 C159.482095,108.780048 160.141491,107.821539 159.955906,106.823633 C159.769284,105.826763 158.808184,105.168922 157.808204,105.354507" id="Fill-232" fill="#333333"></path>
                            <path d="M94.8963436,134.678909 C95.4048871,135.557585 96.5308367,135.858253 97.4121047,135.351265 L116.549618,124.33023 C117.430368,123.823242 117.732072,122.699884 117.223011,121.821208 C116.714985,120.942532 115.588518,120.641346 114.707768,121.148852 L95.5707729,132.169887 C94.6900232,132.676875 94.3883185,133.800233 94.8963436,134.678909" id="Fill-234" fill="#333333"></path>
                            <path d="M181.648163,104.630364 C182.64607,104.827353 183.614946,104.17988 183.812454,103.184566 L184.148891,101.484755 L184.148891,82.5514889 L180.198737,102.471776 C180.001747,103.46709 180.650257,104.433375 181.648163,104.630364" id="Fill-236" fill="#333333"></path>
                            <path d="M39.5163705,167.105789 C40.514277,167.302778 41.4831535,166.655306 41.6806612,165.659991 L45.9677711,144.037302 C46.1652788,143.041987 45.5162508,142.075703 44.5188627,141.878713 C43.5214746,141.682243 42.5520798,142.329197 42.3550905,143.324511 L38.0669438,164.947201 C37.8699545,165.942515 38.5184641,166.909318 39.5163705,167.105789" id="Fill-238" fill="#333333"></path>
                            <path d="M183.941482,49.4779654 C182.954462,49.2327655 181.955,49.8325462 181.709282,50.8164561 C181.463564,51.8008843 182.064381,52.797754 183.051401,53.0429539 L184.148839,53.3156286 L184.148839,49.5298047 L183.941482,49.4779654 Z" id="Fill-240" fill="#333333"></path>
                            <path d="M171.682266,36.1283096 C172.502364,36.7280903 173.654751,36.5507999 174.256087,35.7327758 L184.149098,22.2721838 L184.149098,16.0582073 L171.285695,33.5612276 C170.684359,34.3792517 170.862168,35.5285289 171.682266,36.1283096" id="Fill-242" fill="#333333"></path>
                            <path d="M19.2464277,178.049013 C18.5274167,177.332075 17.3615509,177.332075 16.6425398,178.049013 C15.9235288,178.766469 15.9235288,179.929224 16.6425398,180.64668 L19.8617602,183.858125 L25.0700544,183.858125 L19.2464277,178.049013 Z" id="Fill-244" fill="#333333"></path>
                            <path d="M134.359994,157.943815 C135.337683,158.224266 136.35788,157.660773 136.638849,156.685676 L142.740334,135.501028 C143.020785,134.525931 142.456255,133.508326 141.478566,133.227875 C140.501395,132.947943 139.481198,133.511436 139.200229,134.486533 L133.098225,155.671181 C132.817775,156.646278 133.382304,157.663883 134.359994,157.943815" id="Fill-246" fill="#333333"></path>
                            <path d="M95.6056089,158.684184 C95.3246399,159.659281 95.8896882,160.676368 96.8673774,160.956819 L118.105419,167.043271 C119.083108,167.323203 120.103306,166.75971 120.384275,165.784613 C120.664725,164.809516 120.100195,163.792429 119.122506,163.511978 L97.883946,157.426044 C96.9067753,157.145594 95.8860595,157.709087 95.6056089,158.684184" id="Fill-248" fill="#333333"></path>
                            <path d="M66.5745656,95.5248433 C66.7606687,96.5222313 67.7222877,97.180072 68.7222677,96.9944873 L90.446562,92.9598348 C91.4465421,92.7737318 92.1059379,91.8147048 91.9198349,90.8173167 C91.7337318,89.820447 90.7721128,89.1626063 89.7721328,89.348191 L68.0478385,93.3828435 C67.0478584,93.5684282 66.3884626,94.5274552 66.5745656,95.5248433" id="Fill-250" fill="#333333"></path>
                            <path d="M146.410608,171.404096 C145.691079,172.121552 145.691079,173.284308 146.410608,174.001763 L156.292215,183.857969 L161.499991,183.857969 L149.014496,171.404096 C148.295485,170.68664 147.12962,170.68664 146.410608,171.404096" id="Fill-252" fill="#333333"></path>
                            <path d="M53.6810438,183.858176 L58.5461618,183.858176 L74.332783,172.108281 C75.1476968,171.501761 75.3151377,170.350929 74.7075812,169.53757 C74.0989878,168.72473 72.945045,168.557289 72.1301313,169.163809 L54.4192354,182.346024 C53.9236517,182.71512 53.6691208,183.285352 53.6810438,183.858176" id="Fill-254" fill="#333333"></path>
                            <path d="M136.976271,183.419253 C137.027592,182.405795 136.245855,181.543189 135.230324,181.491868 C134.214273,181.440547 133.349075,182.22021 133.297755,183.233668 L133.266133,183.858332 L136.95398,183.858332 L136.976271,183.419253 Z" id="Fill-256" fill="#333333"></path>
                            <path d="M123.052599,81.8783038 L108.202714,98.2009433 C107.518953,98.9526131 107.575977,100.113813 108.329202,100.796019 C109.081908,101.477705 110.246737,101.4212 110.929979,100.670049 L125.780383,84.3468911 C126.463624,83.5957397 126.40712,82.4340211 125.653895,81.7523343 C124.90067,81.0706475 123.735841,81.1271524 123.052599,81.8783038" id="Fill-258" fill="#333333"></path>
                            <path d="M61.0210736,107.352186 C60.549336,106.453811 59.4358279,106.106488 58.5353793,106.577189 C57.6344123,107.04789 57.2865706,108.158287 57.7583082,109.056662 L68.010566,128.58297 C68.482822,129.481346 69.5952933,129.82815 70.4962603,129.35745 C71.3977457,128.887267 71.745069,127.776869 71.2733314,126.878494 L61.0210736,107.352186 Z" id="Fill-260" fill="#333333"></path>
                            <path d="M84.8874195,183.858176 L109.352976,183.858176 C109.761469,183.471455 109.989044,182.904852 109.915951,182.304034 C109.793091,181.297315 108.874499,180.580378 107.865188,180.702718 L85.9299077,183.367258 C85.5224509,183.416506 85.1637229,183.596906 84.8874195,183.858176" id="Fill-262" fill="#333333"></path>
                            <path d="M17.1748776,24.5707901 C18.1919646,24.5707901 19.0162094,23.7486189 19.0162094,22.7341238 C19.0162094,21.7196288 18.1919646,20.8969391 17.1748776,20.8969391 C16.1577906,20.8969391 15.3330273,21.7196288 15.3330273,22.7341238 C15.3330273,23.7486189 16.1577906,24.5707901 17.1748776,24.5707901" id="Fill-264" fill="#333333"></path>
                            <path d="M90.233347,109.177655 C89.21626,109.177655 88.3914968,109.999827 88.3914968,111.014322 C88.3914968,112.028817 89.21626,112.850988 90.233347,112.850988 C91.250434,112.850988 92.0746788,112.028817 92.0746788,111.014322 C92.0746788,109.999827 91.250434,109.177655 90.233347,109.177655" id="Fill-266" fill="#333333"></path>
                            <path d="M120.674264,142.927889 C120.674264,141.913394 119.8495,141.091223 118.832413,141.091223 C117.815845,141.091223 116.9916,141.913394 116.9916,142.927889 C116.9916,143.942384 117.815845,144.764555 118.832413,144.764555 C119.8495,144.764555 120.674264,143.942384 120.674264,142.927889" id="Fill-268" fill="#333333"></path>
                            <path d="M92.0745233,171.855616 C92.0745233,170.841121 91.2502785,170.01895 90.2331915,170.01895 C89.2161045,170.01895 88.3918596,170.841121 88.3918596,171.855616 C88.3918596,172.870112 89.2161045,173.692283 90.2331915,173.692283 C91.2502785,173.692283 92.0745233,172.870112 92.0745233,171.855616" id="Fill-270" fill="#333333"></path>
                            <path d="M59.1991296,164.071117 C60.2162166,164.071117 61.0404615,163.248945 61.0404615,162.23445 C61.0404615,161.219955 60.2162166,160.397784 59.1991296,160.397784 C58.1820426,160.397784 57.3577978,161.219955 57.3577978,162.23445 C57.3577978,163.248945 58.1820426,164.071117 59.1991296,164.071117" id="Fill-272" fill="#333333"></path>
                            <path d="M22.9946163,149.970517 C22.9946163,150.985012 23.8193795,151.807183 24.8364665,151.807183 C25.8535535,151.807183 26.67728,150.985012 26.67728,149.970517 C26.67728,148.956022 25.8535535,148.13385 24.8364665,148.13385 C23.8193795,148.13385 22.9946163,148.956022 22.9946163,149.970517" id="Fill-274" fill="#333333"></path>
                            <path d="M53.5292065,130.18045 C52.5121195,130.18045 51.6873563,131.002622 51.6873563,132.017117 C51.6873563,133.031612 52.5121195,133.854301 53.5292065,133.854301 C54.5462935,133.854301 55.3710567,133.031612 55.3710567,132.017117 C55.3710567,131.002622 54.5462935,130.18045 53.5292065,130.18045" id="Fill-276" fill="#333333"></path>
                            <path d="M43.7070593,104.053496 C44.7241463,104.053496 45.5483912,103.231325 45.5483912,102.21683 C45.5483912,101.202335 44.7241463,100.380164 43.7070593,100.380164 C42.6899723,100.380164 41.8652091,101.202335 41.8652091,102.21683 C41.8652091,103.231325 42.6899723,104.053496 43.7070593,104.053496" id="Fill-278" fill="#333333"></path>
                            <path d="M7.25807185,109.177655 C6.24098483,109.177655 5.41622162,109.999827 5.41622162,111.014322 C5.41622162,112.028817 6.24098483,112.850988 7.25807185,112.850988 C8.27515886,112.850988 9.09940368,112.028817 9.09940368,111.014322 C9.09940368,109.999827 8.27515886,109.177655 7.25807185,109.177655" id="Fill-280" fill="#333333"></path>
                            <path d="M19.0160539,74.6762184 C20.0331409,74.6762184 20.8579041,73.8535287 20.8579041,72.8395521 C20.8579041,71.825057 20.0331409,71.0023674 19.0160539,71.0023674 C17.9994853,71.0023674 17.1747221,71.825057 17.1747221,72.8395521 C17.1747221,73.8535287 17.9994853,74.6762184 19.0160539,74.6762184" id="Fill-282" fill="#333333"></path>
                            <path d="M172.357628,60.6687219 C172.357628,61.6832169 173.181873,62.5053882 174.19896,62.5053882 C175.216047,62.5053882 176.040292,61.6832169 176.040292,60.6687219 C176.040292,59.6542268 175.216047,58.8320556 174.19896,58.8320556 C173.181873,58.8320556 172.357628,59.6542268 172.357628,60.6687219" id="Fill-288" fill="#333333"></path>
                            <path d="M130.895781,171.855616 C130.895781,172.870112 131.720544,173.692283 132.737113,173.692283 C133.754718,173.692283 134.578444,172.870112 134.578444,171.855616 C134.578444,170.841121 133.754718,170.01895 132.737113,170.01895 C131.720544,170.01895 130.895781,170.841121 130.895781,171.855616" id="Fill-290" fill="#333333"></path>
                            <path d="M5.31762327,178.131023 C4.30053626,178.131023 3.47629143,178.953194 3.47629143,179.967689 C3.47629143,180.982184 4.30053626,181.804874 5.31762327,181.804874 C6.33471028,181.804874 7.1594735,180.982184 7.1594735,179.967689 C7.1594735,178.953194 6.33471028,178.131023 5.31762327,178.131023" id="Fill-292" fill="#333333"></path>
                            <path d="M34.6291171,179.34878 C33.6120301,179.34878 32.7877853,180.170951 32.7877853,181.185446 C32.7877853,182.199941 33.6120301,183.022112 34.6291171,183.022112 C35.6462041,183.022112 36.4709673,182.199941 36.4709673,181.185446 C36.4709673,180.170951 35.6462041,179.34878 34.6291171,179.34878" id="Fill-294" fill="#333333"></path>
                            <path d="M154.180438,122.071696 C154.180438,121.057201 153.355675,120.235029 152.338588,120.235029 C151.321501,120.235029 150.497774,121.057201 150.497774,122.071696 C150.497774,123.086191 151.321501,123.908362 152.338588,123.908362 C153.355675,123.908362 154.180438,123.086191 154.180438,122.071696" id="Fill-296" fill="#333333"></path>
                            <path d="M166.372781,99.9407738 C166.372781,100.955269 167.197545,101.77744 168.214632,101.77744 C169.231719,101.77744 170.055445,100.955269 170.055445,99.9407738 C170.055445,98.9262788 169.231719,98.1041075 168.214632,98.1041075 C167.197545,98.1041075 166.372781,98.9262788 166.372781,99.9407738" id="Fill-298" fill="#333333"></path>
                            <path d="M130.143022,96.2672338 C129.125935,96.2672338 128.30169,97.0894051 128.30169,98.1039001 C128.30169,99.1183952 129.125935,99.9405664 130.143022,99.9405664 C131.160628,99.9405664 131.984873,99.1183952 131.984873,98.1039001 C131.984873,97.0894051 131.160628,96.2672338 130.143022,96.2672338" id="Fill-300" fill="#333333"></path>
                            <path d="M107.7838,82.9165931 C108.800887,82.9165931 109.625651,82.0944218 109.625651,81.0799268 C109.625651,80.0654317 108.800887,79.2427421 107.7838,79.2427421 C106.766713,79.2427421 105.942468,80.0654317 105.942468,81.0799268 C105.942468,82.0944218 106.766713,82.9165931 107.7838,82.9165931" id="Fill-302" fill="#333333"></path>
                            <path d="M142.162741,73.548299 C143.179828,73.548299 144.004591,72.7261277 144.004591,71.7116326 C144.004591,70.6971376 143.179828,69.8749663 142.162741,69.8749663 C141.145654,69.8749663 140.320891,70.6971376 140.320891,71.7116326 C140.320891,72.7261277 141.145654,73.548299 142.162741,73.548299" id="Fill-304" fill="#333333"></path>
                            <path d="M52.9718304,47.5658729 C53.9889174,47.5658729 54.8136806,46.7431833 54.8136806,45.7292066 C54.8136806,44.7147116 53.9889174,43.8920219 52.9718304,43.8920219 C51.9547434,43.8920219 51.1299801,44.7147116 51.1299801,45.7292066 C51.1299801,46.7431833 51.9547434,47.5658729 52.9718304,47.5658729" id="Fill-306" fill="#333333"></path>
                            <path d="M74.3074336,76.5743661 C74.3074336,77.5888611 75.1321968,78.4110324 76.1492839,78.4110324 C77.1663709,78.4110324 77.9900973,77.5888611 77.9900973,76.5743661 C77.9900973,75.559871 77.1663709,74.7376998 76.1492839,74.7376998 C75.1321968,74.7376998 74.3074336,75.559871 74.3074336,76.5743661" id="Fill-308" fill="#333333"></path>
                            <path d="M134.578704,42.95653 C135.595791,42.95653 136.420554,42.1343587 136.420554,41.1198637 C136.420554,40.1053686 135.595791,39.282679 134.578704,39.282679 C133.561617,39.282679 132.736853,40.1053686 132.736853,41.1198637 C132.736853,42.1343587 133.561617,42.95653 134.578704,42.95653" id="Fill-310" fill="#333333"></path>
                            <path d="M107.7838,51.2394129 C108.800887,51.2394129 109.625651,50.4172416 109.625651,49.4027466 C109.625651,48.3882516 108.800887,47.5660803 107.7838,47.5660803 C106.766713,47.5660803 105.942468,48.3882516 105.942468,49.4027466 C105.942468,50.4172416 106.766713,51.2394129 107.7838,51.2394129" id="Fill-312" fill="#333333"></path>
                            <path d="M85.8781203,33.0847726 C86.8952073,33.0847726 87.7199705,32.2626014 87.7199705,31.2481063 C87.7199705,30.2336113 86.8952073,29.4109216 85.8781203,29.4109216 C84.8615517,29.4109216 84.0367884,30.2336113 84.0367884,31.2481063 C84.0367884,32.2626014 84.8615517,33.0847726 85.8781203,33.0847726" id="Fill-314" fill="#333333"></path>
                            <path d="M158.014731,22.7339165 C159.031819,22.7339165 159.856582,21.9117452 159.856582,20.8972501 C159.856582,19.8827551 159.031819,19.0605838 158.014731,19.0605838 C156.997644,19.0605838 156.1734,19.8827551 156.1734,20.8972501 C156.1734,21.9117452 156.997644,22.7339165 158.014731,22.7339165" id="Fill-316" fill="#333333"></path>
                            <path d="M166.372781,167.298424 C167.389868,167.298424 168.214632,166.476253 168.214632,165.461758 C168.214632,164.447263 167.389868,163.625091 166.372781,163.625091 C165.355694,163.625091 164.530931,164.447263 164.530931,165.461758 C164.530931,166.476253 165.355694,167.298424 166.372781,167.298424" id="Fill-318" fill="#333333"></path>
                            <path d="M193.414803,141.109211 C194.133814,141.826667 195.299679,141.826667 196.018691,141.109211 C196.737702,140.391755 196.737702,139.229 196.018691,138.511544 L184.149047,126.671967 L184.149047,131.867301 L193.414803,141.109211 Z" id="Fill-327" fill="#333333"></path>
                            <path d="M198.128913,160.342886 C198.943827,159.736366 199.111786,158.585016 198.503711,157.772175 C197.895118,156.959335 196.741175,156.791894 195.926261,157.398414 L184.148891,166.163921 L184.148891,170.747552 L198.128913,160.342886 Z" id="Fill-329" fill="#333333"></path>
                            <path d="M188.099771,81.5618767 C188.297279,80.5665622 187.648251,79.6002777 186.650345,79.4032884 C185.652956,79.2068174 184.68408,79.8537719 184.486572,80.8490864 L184.149098,82.5509705 L184.149098,82.5514889 L184.149098,101.484755 L188.099771,81.5618767 Z" id="Fill-331" fill="#333333"></path>
                            <path d="M184.149047,53.3155249 L204.494416,58.3688196 C205.480917,58.6140195 206.480379,58.0147572 206.726616,57.030329 C206.971816,56.0459007 206.370998,55.049031 205.384496,54.8043495 L184.149047,49.529701 L184.149047,53.3155249 Z" id="Fill-333" fill="#333333"></path>
                            <path d="M187.321145,17.9561995 C187.922481,17.1381753 187.744672,15.9883797 186.924574,15.3885991 C186.104477,14.7888184 184.952089,14.9661088 184.351272,15.7841329 L184.149098,16.0583628 L184.149098,22.271821 L187.321145,17.9561995 Z" id="Fill-335" fill="#333333"></path>
                            <path d="M193.248761,111.014322 C193.248761,109.999827 192.423998,109.177655 191.406911,109.177655 C190.389824,109.177655 189.566098,109.999827 189.566098,111.014322 C189.566098,112.028817 190.389824,112.850988 191.406911,112.850988 C192.423998,112.850988 193.248761,112.028817 193.248761,111.014322" id="Fill-346" fill="#333333"></path>
                            <path d="M189.467085,181.804822 C190.483653,181.804822 191.308416,180.982651 191.308416,179.968155 C191.308416,178.95366 190.483653,178.130971 189.467085,178.130971 C188.449998,178.130971 187.625234,178.95366 187.625234,179.968155 C187.625234,180.982651 188.449998,181.804822 189.467085,181.804822" id="Fill-350" fill="#333333"></path>
                        </g>
                    </g>
                    <g id="Group-3-Copy" opacity="0.299609375" style="mix-blend-mode: color-burn;" mask="url(#mask-2)">
                        <g transform="translate(108.000000, 286.500000) rotate(-90.000000) translate(-108.000000, -286.500000) translate(-2.500000, 102.500000)">
                            <mask id="mask-10" fill="white">
                                <use xlink:href="#path-9"></use>
                            </mask>
                            <g id="Clip-2" stroke="none" fill="none"></g>
                            <path d="M162.035802,189.587559 C162.755332,190.305015 163.921197,190.305015 164.640208,189.587559 C165.359219,188.870622 165.359219,187.707348 164.640208,186.989892 L161.500302,183.85828 L156.292008,183.85828 L162.035802,189.587559 Z" id="Fill-6" stroke="none" fill="#333333" fill-rule="evenodd" mask="url(#mask-10)"></path>
                            <path d="M149.586284,215.434063 C148.625702,215.767908 148.118713,216.81558 148.453595,217.773052 L155.730277,238.586011 C156.065159,239.543483 157.114905,240.049434 158.075487,239.715071 C159.036069,239.381226 159.543058,238.334072 159.208176,237.376082 L151.930975,216.563641 C151.596612,215.605651 150.546866,215.099699 149.586284,215.434063" id="Fill-26" stroke="none" fill="#333333" fill-rule="evenodd" mask="url(#mask-10)"></path>
                            <path d="M162.622571,315.599352 C162.287689,314.641362 161.237425,314.135929 160.277361,314.469774 C159.316779,314.804138 158.810309,315.851291 159.145191,316.809282 L166.421873,337.621723 C166.756755,338.579713 167.806501,339.085146 168.767083,338.751301 C169.727147,338.417456 170.234135,337.369784 169.899253,336.411793 L162.622571,315.599352 Z" id="Fill-30" stroke="none" fill="#333333" fill-rule="evenodd" mask="url(#mask-10)"></path>
                            <path d="M150.261128,270.988423 L167.971505,257.806727 C168.786419,257.199688 168.954897,256.048856 168.346303,255.236016 C167.738228,254.422657 166.583767,254.255735 165.768854,254.862254 L148.058476,268.043951 C147.243044,268.650989 147.075085,269.801822 147.683678,270.614662 C148.291753,271.42802 149.445696,271.594943 150.261128,270.988423" id="Fill-36" stroke="none" fill="#333333" fill-rule="evenodd" mask="url(#mask-10)"></path>
                            <path d="M177.789091,306.60793 C177.069561,307.325386 177.069561,308.488141 177.789091,309.205597 L184.149254,315.550209 L184.149254,310.354874 L180.392979,306.60793 C179.673967,305.890474 178.508102,305.890474 177.789091,306.60793" id="Fill-49" stroke="none" fill="#333333" fill-rule="evenodd" mask="url(#mask-10)"></path>
                            <path d="M159.955647,290.506644 C159.769544,289.509256 158.807925,288.851415 157.807945,289.037 L136.083132,293.071653 C135.08367,293.257237 134.423756,294.216264 134.609859,295.213652 C134.79648,296.21104 135.757581,296.868881 136.757561,296.683296 L158.481855,292.648644 C159.481835,292.463059 160.141231,291.504032 159.955647,290.506644" id="Fill-53" stroke="none" fill="#333333" fill-rule="evenodd" mask="url(#mask-10)"></path>
                            <path d="M181.648163,288.312805 C182.64607,288.509794 183.614946,287.862322 183.812454,286.867526 L184.148891,285.167197 L184.148891,266.23393 L180.198737,286.154735 C180.001747,287.149531 180.650257,288.116334 181.648163,288.312805" id="Fill-57" stroke="none" fill="#333333" fill-rule="evenodd" mask="url(#mask-10)"></path>
                            <path d="M183.941482,233.160666 C182.954462,232.915466 181.955,233.514728 181.709282,234.499156 C181.463564,235.483585 182.064381,236.479936 183.051401,236.725136 L184.148839,236.997811 L184.148839,233.212505 L183.941482,233.160666 Z" id="Fill-61" stroke="none" fill="#333333" fill-rule="evenodd" mask="url(#mask-10)"></path>
                            <path d="M171.682266,219.811062 C172.502364,220.410842 173.654751,220.233552 174.256087,219.415528 L184.149098,205.954936 L184.149098,199.740959 L171.285695,217.243461 C170.684359,218.061485 170.862168,219.211281 171.682266,219.811062" id="Fill-63" stroke="none" fill="#333333" fill-rule="evenodd" mask="url(#mask-10)"></path>
                            <path d="M174.198805,242.514289 C173.181718,242.514289 172.357473,243.336461 172.357473,244.350956 C172.357473,245.365451 173.181718,246.18814 174.198805,246.18814 C175.215892,246.18814 176.040655,245.365451 176.040655,244.350956 C176.040655,243.336461 175.215892,242.514289 174.198805,242.514289" id="Fill-112" stroke="none" fill="#333333" fill-rule="evenodd" mask="url(#mask-10)"></path>
                            <path d="M152.338743,303.917263 C151.321656,303.917263 150.497411,304.739434 150.497411,305.753929 C150.497411,306.768424 151.321656,307.591114 152.338743,307.591114 C153.35583,307.591114 154.180593,306.768424 154.180593,305.753929 C154.180593,304.739434 153.35583,303.917263 152.338743,303.917263" id="Fill-120" stroke="none" fill="#333333" fill-rule="evenodd" mask="url(#mask-10)"></path>
                            <path d="M168.214528,281.7866 C167.197441,281.7866 166.372678,282.608772 166.372678,283.623267 C166.372678,284.637762 167.197441,285.459933 168.214528,285.459933 C169.231615,285.459933 170.05586,284.637762 170.05586,283.623267 C170.05586,282.608772 169.231615,281.7866 168.214528,281.7866" id="Fill-122" stroke="none" fill="#333333" fill-rule="evenodd" mask="url(#mask-10)"></path>
                            <path d="M159.856426,204.579691 C159.856426,203.565196 159.031663,202.743025 158.014576,202.743025 C156.997489,202.743025 156.173763,203.565196 156.173763,204.579691 C156.173763,205.594186 156.997489,206.416358 158.014576,206.416358 C159.031663,206.416358 159.856426,205.594186 159.856426,204.579691" id="Fill-140" stroke="none" fill="#333333" fill-rule="evenodd" mask="url(#mask-10)"></path>
                            <path d="M216.416987,196.232787 C217.136517,196.950243 218.302383,196.950243 219.021394,196.232787 C219.740405,195.515331 219.740405,194.352576 219.021394,193.63512 L209.219619,183.858228 L204.010807,183.858228 L216.416987,196.232787 Z" id="Fill-144" stroke="none" fill="#333333" fill-rule="evenodd" mask="url(#mask-10)"></path>
                            <g id="Group-148" stroke="none" stroke-width="1" fill="none" fill-rule="evenodd" mask="url(#mask-10)">
                                <g transform="translate(209.430761, 215.133084)">
                                    <mask id="mask-12" fill="white">
                                        <use xlink:href="#path-11"></use>
                                    </mask>
                                    <g id="Clip-147" stroke="none" fill="none"></g>
                                    <path d="M0.578682075,5.59475616 C0.913563935,6.55274637 1.9638281,7.05817952 2.92389188,6.72433444 L10.9885314,3.91931007 L10.9885314,0.028252417 L1.71137072,3.25524867 C0.750788542,3.58961214 0.243800215,4.63676594 0.578682075,5.59475616" id="Fill-146" stroke="none" fill="#333333" fill-rule="evenodd" mask="url(#mask-12)"></path>
                                </g>
                            </g>
                            <path d="M204.573937,278.211244 C205.227112,278.988834 206.388831,279.090439 207.167976,278.438819 L220.419137,267.358169 L220.419137,262.564071 L204.801512,275.623426 C204.022885,276.275565 203.920244,277.433655 204.573937,278.211244" id="Fill-149" stroke="none" fill="#333333" fill-rule="evenodd" mask="url(#mask-10)"></path>
                            <path d="M193.414803,324.791704 C194.133814,325.50916 195.299679,325.50916 196.018691,324.791704 C196.737702,324.074248 196.737702,322.911493 196.018691,322.194037 L184.149047,310.35446 L184.149047,315.549794 L193.414803,324.791704 Z" id="Fill-151" stroke="none" fill="#333333" fill-rule="evenodd" mask="url(#mask-10)"></path>
                            <path d="M198.503555,341.454668 C197.894962,340.641828 196.741538,340.474387 195.926106,341.080907 L184.149254,349.846414 L184.149254,354.430563 L198.128757,344.025379 C198.944189,343.418859 199.11163,342.268027 198.503555,341.454668" id="Fill-153" stroke="none" fill="#333333" fill-rule="evenodd" mask="url(#mask-10)"></path>
                            <path d="M188.099771,265.244318 C188.297279,264.249003 187.648251,263.282719 186.650345,263.08573 C185.652956,262.889259 184.68408,263.536213 184.486572,264.531528 L184.149098,266.23393 L184.149098,285.167197 L188.099771,265.244318 Z" id="Fill-155" stroke="none" fill="#333333" fill-rule="evenodd" mask="url(#mask-10)"></path>
                            <path d="M205.384393,238.486583 L184.148943,233.212453 L184.148943,236.997759 L204.494312,242.051053 C205.481332,242.296772 206.480275,241.696991 206.726512,240.712563 C206.97223,239.728653 206.370895,238.731783 205.384393,238.486583" id="Fill-157" stroke="none" fill="#333333" fill-rule="evenodd" mask="url(#mask-10)"></path>
                            <path d="M187.321145,201.638692 C187.922481,200.820668 187.744672,199.671391 186.924574,199.071092 C186.104477,198.47183 184.952089,198.648602 184.351272,199.466626 L184.149098,199.740856 L184.149098,205.954832 L187.321145,201.638692 Z" id="Fill-159" stroke="none" fill="#333333" fill-rule="evenodd" mask="url(#mask-10)"></path>
                            <g id="Group-163" stroke="none" stroke-width="1" fill="none" fill-rule="evenodd" mask="url(#mask-10)">
                                <g transform="translate(200.099687, 301.186317)">
                                    <mask id="mask-14" fill="white">
                                        <use xlink:href="#path-13"></use>
                                    </mask>
                                    <g id="Clip-162" stroke="none" fill="none"></g>
                                    <path d="M0.0734562842,5.83394267 C0.259040968,6.83133075 1.22117833,7.48917143 2.22115837,7.30358675 L20.3198122,3.94232672 L20.3198122,0.205231778 L1.54672911,3.69194291 C0.546749068,3.87752759 -0.112646793,4.83655459 0.0734562842,5.83394267" id="Fill-161" stroke="none" fill="#333333" fill-rule="evenodd" mask="url(#mask-14)"></path>
                                </g>
                            </g>
                            <path d="M199.482644,206.416358 C199.482644,207.430853 200.306889,208.253024 201.323976,208.253024 C202.341063,208.253024 203.165308,207.430853 203.165308,206.416358 C203.165308,205.401863 202.341063,204.579691 201.323976,204.579691 C200.306889,204.579691 199.482644,205.401863 199.482644,206.416358" id="Fill-167" stroke="none" fill="#333333" fill-rule="evenodd" mask="url(#mask-10)"></path>
                            <path d="M208.985306,335.489883 C210.002393,335.489883 210.827156,334.667712 210.827156,333.653217 C210.827156,332.638722 210.002393,331.816551 208.985306,331.816551 C207.968219,331.816551 207.143974,332.638722 207.143974,333.653217 C207.143974,334.667712 207.968219,335.489883 208.985306,335.489883" id="Fill-169" stroke="none" fill="#333333" fill-rule="evenodd" mask="url(#mask-10)"></path>
                            <path d="M193.248761,294.697074 C193.248761,293.682579 192.423998,292.860407 191.406911,292.860407 C190.389824,292.860407 189.566098,293.682579 189.566098,294.697074 C189.566098,295.711569 190.389824,296.53374 191.406911,296.53374 C192.423998,296.53374 193.248761,295.711569 193.248761,294.697074" id="Fill-171" stroke="none" fill="#333333" fill-rule="evenodd" mask="url(#mask-10)"></path>
                            <path d="M203.165567,254.68486 C202.14848,254.68486 201.323717,255.507032 201.323717,256.521527 C201.323717,257.536022 202.14848,258.358711 203.165567,258.358711 C204.182654,258.358711 205.006899,257.536022 205.006899,256.521527 C205.006899,255.507032 204.182654,254.68486 203.165567,254.68486" id="Fill-173" stroke="none" fill="#333333" fill-rule="evenodd" mask="url(#mask-10)"></path>
                            <path d="M155.73007,54.9033626 C156.064952,55.8613528 157.115216,56.366786 158.07528,56.0329409 C159.035862,55.6985774 159.54285,54.6514236 159.207968,53.6934334 L151.931286,32.8809923 C151.596404,31.9230021 150.546659,31.4170506 149.586076,31.751414 C148.626013,32.0852591 148.118506,33.1329313 148.453906,34.0909215 L155.73007,54.9033626 Z" id="Fill-204" stroke="none" fill="#333333" fill-rule="evenodd" mask="url(#mask-10)"></path>
                            <path d="M169.899305,152.729508 L162.622623,131.917067 C162.287223,130.959077 161.237477,130.453125 160.276895,130.787488 C159.316831,131.121334 158.809843,132.168487 159.145243,133.126478 L166.421925,153.938919 C166.756807,154.896909 167.806553,155.40286 168.766616,155.068497 C169.727199,154.734652 170.234187,153.687498 169.899305,152.729508" id="Fill-208" stroke="none" fill="#333333" fill-rule="evenodd" mask="url(#mask-10)"></path>
                            <path d="M150.261128,87.3059819 L167.971505,74.123767 C168.786419,73.5172472 168.954897,72.3664148 168.346303,71.5530562 C167.738228,70.7402161 166.583767,70.5732935 165.768854,71.1798133 L148.058476,84.3615098 C147.243044,84.968548 147.075085,86.1193804 147.683678,86.9322206 C148.291753,87.7455791 149.445696,87.9125017 150.261128,87.3059819" id="Fill-215" stroke="none" fill="#333333" fill-rule="evenodd" mask="url(#mask-10)"></path>
                            <path d="M177.789091,122.925489 C177.069561,123.642945 177.069561,124.8057 177.789091,125.523156 L184.149254,131.867768 L184.149254,126.671915 L180.392979,122.925489 C179.673967,122.208033 178.508102,122.208033 177.789091,122.925489" id="Fill-228" stroke="none" fill="#333333" fill-rule="evenodd" mask="url(#mask-10)"></path>
                            <path d="M180.418017,173.524997 L184.148891,170.747966 L184.148891,166.164336 L178.215365,170.580525 C177.400451,171.187563 177.232492,172.337877 177.840567,173.151236 C178.44916,173.964076 179.603103,174.131517 180.418017,173.524997" id="Fill-230" stroke="none" fill="#333333" fill-rule="evenodd" mask="url(#mask-10)"></path>
                            <path d="M157.808204,105.354507 L136.083391,109.38916 C135.083411,109.574744 134.424015,110.533771 134.610118,111.531159 C134.796221,112.528547 135.75784,113.186388 136.75782,113.000803 L158.482115,108.966151 C159.482095,108.780048 160.141491,107.821539 159.955906,106.823633 C159.769284,105.826763 158.808184,105.168922 157.808204,105.354507" id="Fill-232" stroke="none" fill="#333333" fill-rule="evenodd" mask="url(#mask-10)"></path>
                            <path d="M181.648163,104.630364 C182.64607,104.827353 183.614946,104.17988 183.812454,103.184566 L184.148891,101.484755 L184.148891,82.5514889 L180.198737,102.471776 C180.001747,103.46709 180.650257,104.433375 181.648163,104.630364" id="Fill-236" stroke="none" fill="#333333" fill-rule="evenodd" mask="url(#mask-10)"></path>
                            <path d="M183.941482,49.4779654 C182.954462,49.2327655 181.955,49.8325462 181.709282,50.8164561 C181.463564,51.8008843 182.064381,52.797754 183.051401,53.0429539 L184.148839,53.3156286 L184.148839,49.5298047 L183.941482,49.4779654 Z" id="Fill-240" stroke="none" fill="#333333" fill-rule="evenodd" mask="url(#mask-10)"></path>
                            <path d="M171.682266,36.1283096 C172.502364,36.7280903 173.654751,36.5507999 174.256087,35.7327758 L184.149098,22.2721838 L184.149098,16.0582073 L171.285695,33.5612276 C170.684359,34.3792517 170.862168,35.5285289 171.682266,36.1283096" id="Fill-242" stroke="none" fill="#333333" fill-rule="evenodd" mask="url(#mask-10)"></path>
                            <path d="M146.410608,171.404096 C145.691079,172.121552 145.691079,173.284308 146.410608,174.001763 L156.292215,183.857969 L161.499991,183.857969 L149.014496,171.404096 C148.295485,170.68664 147.12962,170.68664 146.410608,171.404096" id="Fill-252" stroke="none" fill="#333333" fill-rule="evenodd" mask="url(#mask-10)"></path>
                            <path d="M172.357628,60.6687219 C172.357628,61.6832169 173.181873,62.5053882 174.19896,62.5053882 C175.216047,62.5053882 176.040292,61.6832169 176.040292,60.6687219 C176.040292,59.6542268 175.216047,58.8320556 174.19896,58.8320556 C173.181873,58.8320556 172.357628,59.6542268 172.357628,60.6687219" id="Fill-288" stroke="none" fill="#333333" fill-rule="evenodd" mask="url(#mask-10)"></path>
                            <path d="M154.180438,122.071696 C154.180438,121.057201 153.355675,120.235029 152.338588,120.235029 C151.321501,120.235029 150.497774,121.057201 150.497774,122.071696 C150.497774,123.086191 151.321501,123.908362 152.338588,123.908362 C153.355675,123.908362 154.180438,123.086191 154.180438,122.071696" id="Fill-296" stroke="none" fill="#333333" fill-rule="evenodd" mask="url(#mask-10)"></path>
                            <path d="M166.372781,99.9407738 C166.372781,100.955269 167.197545,101.77744 168.214632,101.77744 C169.231719,101.77744 170.055445,100.955269 170.055445,99.9407738 C170.055445,98.9262788 169.231719,98.1041075 168.214632,98.1041075 C167.197545,98.1041075 166.372781,98.9262788 166.372781,99.9407738" id="Fill-298" stroke="none" fill="#333333" fill-rule="evenodd" mask="url(#mask-10)"></path>
                            <path d="M158.014731,22.7339165 C159.031819,22.7339165 159.856582,21.9117452 159.856582,20.8972501 C159.856582,19.8827551 159.031819,19.0605838 158.014731,19.0605838 C156.997644,19.0605838 156.1734,19.8827551 156.1734,20.8972501 C156.1734,21.9117452 156.997644,22.7339165 158.014731,22.7339165" id="Fill-316" stroke="none" fill="#333333" fill-rule="evenodd" mask="url(#mask-10)"></path>
                            <path d="M166.372781,167.298424 C167.389868,167.298424 168.214632,166.476253 168.214632,165.461758 C168.214632,164.447263 167.389868,163.625091 166.372781,163.625091 C165.355694,163.625091 164.530931,164.447263 164.530931,165.461758 C164.530931,166.476253 165.355694,167.298424 166.372781,167.298424" id="Fill-318" stroke="none" fill="#333333" fill-rule="evenodd" mask="url(#mask-10)"></path>
                            <g id="Group-324" stroke="none" stroke-width="1" fill="none" fill-rule="evenodd" mask="url(#mask-10)">
                                <g transform="translate(209.430761, 31.103578)">
                                    <mask id="mask-16" fill="white">
                                        <use xlink:href="#path-15"></use>
                                    </mask>
                                    <g id="Clip-323" stroke="none" fill="none"></g>
                                    <path d="M0.578682075,5.94156105 C0.913563935,6.89955127 1.9638281,7.40550281 2.92389188,7.07113934 L10.9885314,4.26611497 L10.9885314,0.375575709 L1.71137072,3.60257196 C0.750788542,3.93641704 0.243800215,4.98357084 0.578682075,5.94156105" id="Fill-322" stroke="none" fill="#333333" fill-rule="evenodd" mask="url(#mask-16)"></path>
                                </g>
                            </g>
                            <path d="M204.573937,94.528803 C205.227112,95.3063925 206.388831,95.4079975 207.167976,94.7563775 L220.419137,83.6757277 L220.419137,78.8816295 L204.801512,91.9409853 C204.022885,92.5926053 203.920244,93.7512136 204.573937,94.528803" id="Fill-325" stroke="none" fill="#333333" fill-rule="evenodd" mask="url(#mask-10)"></path>
                            <path d="M193.414803,141.109211 C194.133814,141.826667 195.299679,141.826667 196.018691,141.109211 C196.737702,140.391755 196.737702,139.229 196.018691,138.511544 L184.149047,126.671967 L184.149047,131.867301 L193.414803,141.109211 Z" id="Fill-327" stroke="none" fill="#333333" fill-rule="evenodd" mask="url(#mask-10)"></path>
                            <path d="M198.128913,160.342886 C198.943827,159.736366 199.111786,158.585016 198.503711,157.772175 C197.895118,156.959335 196.741175,156.791894 195.926261,157.398414 L184.148891,166.163921 L184.148891,170.747552 L198.128913,160.342886 Z" id="Fill-329" stroke="none" fill="#333333" fill-rule="evenodd" mask="url(#mask-10)"></path>
                            <path d="M188.099771,81.5618767 C188.297279,80.5665622 187.648251,79.6002777 186.650345,79.4032884 C185.652956,79.2068174 184.68408,79.8537719 184.486572,80.8490864 L184.149098,82.5509705 L184.149098,82.5514889 L184.149098,101.484755 L188.099771,81.5618767 Z" id="Fill-331" stroke="none" fill="#333333" fill-rule="evenodd" mask="url(#mask-10)"></path>
                            <path d="M184.149047,53.3155249 L204.494416,58.3688196 C205.480917,58.6140195 206.480379,58.0147572 206.726616,57.030329 C206.971816,56.0459007 206.370998,55.049031 205.384496,54.8043495 L184.149047,49.529701 L184.149047,53.3155249 Z" id="Fill-333" stroke="none" fill="#333333" fill-rule="evenodd" mask="url(#mask-10)"></path>
                            <path d="M187.321145,17.9561995 C187.922481,17.1381753 187.744672,15.9883797 186.924574,15.3885991 C186.104477,14.7888184 184.952089,14.9661088 184.351272,15.7841329 L184.149098,16.0583628 L184.149098,22.271821 L187.321145,17.9561995 Z" id="Fill-335" stroke="none" fill="#333333" fill-rule="evenodd" mask="url(#mask-10)"></path>
                            <g id="Group-339" stroke="none" stroke-width="1" fill="none" fill-rule="evenodd" mask="url(#mask-10)">
                                <g transform="translate(200.099687, 117.675205)">
                                    <mask id="mask-18" fill="white">
                                        <use xlink:href="#path-17"></use>
                                    </mask>
                                    <g id="Clip-338" stroke="none" fill="none"></g>
                                    <path d="M0.0734562842,5.6626138 C0.259040968,6.66000187 1.22117833,7.31784256 2.22115837,7.13173948 L20.3198122,3.77099784 L20.3198122,0.0339029004 L1.54672911,3.52061403 C0.546749068,3.70619872 -0.112646793,4.66522572 0.0734562842,5.6626138" id="Fill-337" stroke="none" fill="#333333" fill-rule="evenodd" mask="url(#mask-18)"></path>
                                </g>
                            </g>
                            <path d="M204.010962,183.858176 L209.219775,183.858176 L203.39563,178.049065 C202.676619,177.332127 201.510753,177.332127 200.791742,178.049065 C200.072213,178.766521 200.072213,179.929276 200.791742,180.646732 L204.010962,183.858176 Z" id="Fill-340" stroke="none" fill="#333333" fill-rule="evenodd" mask="url(#mask-10)"></path>
                            <path d="M201.323821,24.5707901 C202.340908,24.5707901 203.165671,23.7486189 203.165671,22.7341238 C203.165671,21.7196288 202.340908,20.8969391 201.323821,20.8969391 C200.306734,20.8969391 199.482489,21.7196288 199.482489,22.7341238 C199.482489,23.7486189 200.306734,24.5707901 201.323821,24.5707901" id="Fill-342" stroke="none" fill="#333333" fill-rule="evenodd" mask="url(#mask-10)"></path>
                            <path d="M208.985306,151.80739 C210.002393,151.80739 210.827156,150.985219 210.827156,149.970724 C210.827156,148.956229 210.002393,148.134058 208.985306,148.134058 C207.968219,148.134058 207.143974,148.956229 207.143974,149.970724 C207.143974,150.985219 207.968219,151.80739 208.985306,151.80739" id="Fill-344" stroke="none" fill="#333333" fill-rule="evenodd" mask="url(#mask-10)"></path>
                            <path d="M193.248761,111.014322 C193.248761,109.999827 192.423998,109.177655 191.406911,109.177655 C190.389824,109.177655 189.566098,109.999827 189.566098,111.014322 C189.566098,112.028817 190.389824,112.850988 191.406911,112.850988 C192.423998,112.850988 193.248761,112.028817 193.248761,111.014322" id="Fill-346" stroke="none" fill="#333333" fill-rule="evenodd" mask="url(#mask-10)"></path>
                            <path d="M203.165567,71.0024192 C202.14848,71.0024192 201.323717,71.8245905 201.323717,72.8390855 C201.323717,73.8535806 202.14848,74.6762702 203.165567,74.6762702 C204.182654,74.6762702 205.006899,73.8535806 205.006899,72.8390855 C205.006899,71.8245905 204.182654,71.0024192 203.165567,71.0024192" id="Fill-348" stroke="none" fill="#333333" fill-rule="evenodd" mask="url(#mask-10)"></path>
                            <path d="M189.467085,181.804822 C190.483653,181.804822 191.308416,180.982651 191.308416,179.968155 C191.308416,178.95366 190.483653,178.130971 189.467085,178.130971 C188.449998,178.130971 187.625234,178.95366 187.625234,179.968155 C187.625234,180.982651 188.449998,181.804822 189.467085,181.804822" id="Fill-350" stroke="none" fill="#333333" fill-rule="evenodd" mask="url(#mask-10)"></path>
                            <g id="Group-354" stroke="none" stroke-width="1" fill="none" fill-rule="evenodd" mask="url(#mask-10)">
                                <g transform="translate(216.688262, 178.845576)">
                                    <mask id="mask-20" fill="white">
                                        <use xlink:href="#path-19"></use>
                                    </mask>
                                    <g id="Clip-353" stroke="none" fill="none"></g>
                                    <path d="M2.09031598,0.503204058 C1.07322897,0.503204058 0.248465752,1.32537531 0.248465752,2.33987036 C0.248465752,3.35436541 1.07322897,4.17653666 2.09031598,4.17653666 C2.81088221,4.17653666 3.42828824,3.75974871 3.73102974,3.15841286 L3.73102974,1.52184625 C3.42828824,0.919992008 2.81088221,0.503204058 2.09031598,0.503204058" id="Fill-352" stroke="none" fill="#333333" fill-rule="evenodd" mask="url(#mask-20)"></path>
                                </g>
                            </g>
                        </g>
                    </g>
                </g>
                <g id="Group-10" transform="translate(51.000000, 30.000000)">
                    <g id="Group-11" transform="translate(34.000000, 23.000000)">
                        <g id="Group-45" filter="url(#filter-21)" transform="translate(0.534188, 0.639831)">
                            <rect id="Rectangle-23-Copy-2" fill="#FFFFFF" x="0" y="0" width="149.931624" height="145.720339" rx="3"></rect>
                            <ellipse id="Oval-8" fill="#E9E9E9" cx="15.2969156" cy="16.3563646" rx="8.59291916" ry="8.62426496"></ellipse>
                            <rect id="Rectangle-23-Copy-2" fill="#E9E9E9" x="0" y="32.1179523" width="149.931624" height="73.1575579"></rect>
                            <rect id="Rectangle-26" fill="#E9E9E9" x="30.4086011" y="13.6798686" width="52.7427452" height="5.35299204"></rect>
                            <rect id="Rectangle-26-Copy" fill="#E9E9E9" x="6.70399649" y="111.818056" width="127.41225" height="5.35299204"></rect>
                            <rect id="Rectangle-26-Copy-2" fill="#E9E9E9" x="6.70399649" y="124.903148" width="104.30026" height="5.35299204"></rect>
                        </g>
                    </g>
                    <g id="icon/title/hot-thread">
                        <g id="Page-1">
                            <g id="Group-3">
                                <mask id="mask-23" fill="white">
                                    <use xlink:href="#path-22"></use>
                                </mask>
                                <g id="Clip-2"></g>
                                <path d="M45.00036,22.49964 C45.00036,34.92684 34.92576,44.99964 22.50036,44.99964 C10.07316,44.99964 0.00036,34.92684 0.00036,22.49964 C0.00036,10.07424 10.07316,-0.00036 22.50036,-0.00036 C34.92576,-0.00036 45.00036,10.07424 45.00036,22.49964" id="Fill-1" fill="#D53F31" mask="url(#mask-23)"></path>
                            </g>
                            <path d="M19.58598,35.45478 C19.58598,35.45478 13.36158,34.10478 13.36158,28.40418 C13.36158,21.35538 17.82558,20.75238 16.06158,16.85538 C16.06158,16.85538 19.30698,18.14418 20.05758,21.81978 C20.05758,21.81978 20.63538,20.15478 19.43658,18.43038 C18.23598,16.70418 17.15058,12.04938 22.17438,7.54938 C22.17438,7.54938 20.41038,11.90538 22.60278,14.00418 C25.02198,16.32258 24.83658,18.20538 24.76098,19.10538 C24.76098,19.10538 26.56098,15.57918 30.16098,14.45418 C30.16098,14.45418 28.51038,19.40418 30.16098,22.55418 C32.07078,26.20098 34.06158,31.17978 26.71038,36.05418 C26.71038,36.05418 28.36098,32.15538 26.26038,29.82978 C24.65838,28.05498 23.93658,24.80418 24.08598,23.15538 C24.08598,23.15538 21.76038,25.82118 22.48578,28.62918 C22.48578,28.62918 20.41038,28.40418 20.26098,26.45478 C20.26098,26.45478 17.18658,30.95478 19.58598,35.45478" id="Fill-4" fill="#FFFFFF"></path>
                        </g>
                    </g>
                    <path d="M196.362021,199.522387 C196.362021,199.522387 190,198.142539 190,192.315899 C190,185.11125 194.562699,184.494918 192.759697,180.511755 C192.759697,180.511755 196.076853,181.829051 196.844048,185.585918 C196.844048,185.585918 197.434623,183.884105 196.209318,182.121578 C194.982173,180.357212 193.872775,175.599495 199.007651,171 C199.007651,171 197.204649,175.452311 199.445523,177.597515 C201.918211,179.967175 201.728712,181.891604 201.65144,182.811503 C201.65144,182.811503 203.491238,179.207339 207.170834,178.057465 C207.170834,178.057465 205.483739,183.116909 207.170834,186.336556 C209.12286,190.063986 211.157676,195.152867 203.643941,200.13504 C203.643941,200.13504 205.331036,196.150038 203.183992,193.773019 C201.546572,191.958978 200.808813,188.636303 200.961516,186.951048 C200.961516,186.951048 198.584497,189.675789 199.325936,192.545874 C199.325936,192.545874 197.204649,192.315899 197.051945,190.323398 C197.051945,190.323398 193.909571,194.922892 196.362021,199.522387" id="Fill-4"></path>
                </g>
            </g>
        </g>
    </g>
</svg>