<?xml version="1.0" encoding="UTF-8"?>
<svg width="50px" height="49px" viewBox="0 0 50 49" version="1.1" xmlns="http://www.w3.org/2000/svg" xmlns:xlink="http://www.w3.org/1999/xlink">
    <!-- Generator: Sketch 50.2 (55047) - http://www.bohemiancoding.com/sketch -->
    <title>zigzag kanan</title>
    <desc>Created with Sketch.</desc>
    <defs></defs>
    <g id="ONBOARDING" stroke="none" stroke-width="1" fill="none" fill-rule="evenodd">
        <g id="mobile-3" transform="translate(-270.000000, -235.000000)">
            <g id="Group-8" transform="translate(-98.000000, 69.000000)">
                <g id="Group-4" transform="translate(0.000000, 0.217687)">
                    <g id="zigzag-kanan" transform="translate(368.000000, 166.000000)">
                        <path d="M145.360081,25.9257841 C145.13718,26.2234366 144.785167,26.4186355 144.384813,26.4186355 C143.710327,26.4186355 143.163508,25.871872 143.163508,25.1974547 C143.163508,25.0231183 143.201312,24.8578706 143.267211,24.7079082 L135.177096,20.0002066 L121.805123,27.7817228 L108.434803,20.0002066 L95.065516,27.7813097 L81.6958159,20 L68.3263222,27.7813097 L54.9582747,20 L41.5908469,27.7813097 L28.2246586,20 L14.8561979,27.7813097 L1.9791928,20.2848458 L1,21.9662416 L14.8561979,30.0326037 L28.2246586,22.251294 L41.5908469,30.0326037 L54.9582747,22.251294 L68.3263222,30.0326037 L81.6958159,22.251294 L95.065516,30.0326037 L108.434803,22.251294 L121.805123,30.0323971 L135.177096,22.2508808 L148.060092,29.7477579 L149.038458,28.0663621 L145.360081,25.9257841 Z" id="Fill-2" fill="#1E0F00"></path>
                        <path d="M135.117772,0.513419756 L130.974795,2.92438434 C131.030572,3.06422524 131.063418,3.21604661 131.063418,3.37571724 C131.063418,4.0501346 130.516599,4.59710463 129.841906,4.59710463 C129.456426,4.59710463 129.116807,4.41491899 128.89308,4.13585686 L121.745799,8.29493602 L108.375479,0.513419756 L95.0061923,8.2945229 L81.6364921,0.513006636 L68.2669985,8.2945229 L54.898951,0.513006636 L41.5315232,8.2945229 L28.1653348,0.513006636 L14.7968741,8.2945229 L1.91986905,0.798058995 L0.940676253,2.47945479 L14.7968741,10.5456103 L28.1653348,2.76430059 L41.5315232,10.5456103 L54.898951,2.76430059 L68.2669985,10.5456103 L81.6364921,2.76430059 L95.0061923,10.5456103 L108.375479,2.76430059 L121.745799,10.5454037 L122.862575,9.89556698 C122.709499,9.73507011 122.553737,9.57725852 122.401487,9.41552229 C122.46656,9.40498774 122.532046,9.395486 122.600217,9.395486 C122.868566,9.395486 123.114603,9.48471978 123.316433,9.63158371 L135.117772,2.76409403 L135.879229,3.20716454 C135.962067,2.61330546 136.466951,2.15432985 137.083801,2.15432985 C137.758287,2.15432985 138.305106,2.70129989 138.305106,3.37571724 C138.305106,3.76983311 138.115259,4.11644026 137.825632,4.33952471 L148.000768,10.2607645 L148.979134,8.57957526 L135.117772,0.513419756 Z" id="Fill-5" fill="#BCE7E3"></path>
                        <g id="Group-55" transform="translate(1.000000, 38.782313)" fill="#BCE7E3">
                            <polygon id="Fill-1" points="67.3089259 7.75622812 53.944126 0 40.5803587 7.75622812 27.2174175 0 13.8524111 7.75622812 0.978733262 0.284126004 0 1.95964587 13.8524111 10 27.2174175 2.24397776 40.5803587 10 53.944126 2.24397776 67.3089259 10 80.6747584 2.24397776 94.0410041 10 107.406837 2.24397776 120.773908 9.99958822 134.142426 2.2433601 147.022093 9.715874 148 8.04014824 134.142426 0.000205888408 120.773908 7.75643401 107.406837 0.000205888408 94.0410041 7.75622812 80.6747584 0"></polygon>
                        </g>
                    </g>
                </g>
            </g>
        </g>
    </g>
</svg>