<?xml version="1.0" encoding="utf-8"?>
<!-- Generator: Adobe Illustrator 21.1.0, SVG Export Plug-In . SVG Version: 6.00 Build 0)  -->
<svg version="1.1" id="Layer_1" xmlns="http://www.w3.org/2000/svg" xmlns:xlink="http://www.w3.org/1999/xlink" x="0px" y="0px"
	 viewBox="0 0 20 20" style="enable-background:new 0 0 20 20;" xml:space="preserve">
<style type="text/css">
	.st0{fill:#FFFFFF;}
	.st1{fill:#FAA71D;}
	.st2{fill:#1281C5;}
	.st3{fill:#0B83C6;}
	.st4{fill:#FAA71B;}
</style>
<path class="st0" d="M1,20c1-0.6,1.9-1.2,2.8-1.7c0.3-0.2,0.7-0.3,1-0.3c1.9,0,3.8,0,5.7,0c0.7,0,1.3-0.1,2-0.2
	c2.7-0.4,4.6-1.9,5.7-4.4c1-2.2,1-4.5,0.7-6.9c-0.4-3.1-2.2-5-5.1-6c-2.1-0.7-4.3-0.7-6.5-0.3C4.8,0.6,3,2.1,2,4.3
	C1.3,5.6,1,7,1,8.5c0,3.6,0,7.3,0,10.9C1,19.6,1,19.7,1,20z"/>
<path class="st1" d="M12.2,10.2c-0.1-0.1-0.1-0.2-0.1-0.3c0-0.1,0-0.2,0.1-0.3L16.1,6H13c-0.1,0-0.2,0-0.3,0.1c0,0,0,0,0,0l-2.6,2.7
	c0,0,0,0,0,0C9.9,8.9,9.7,9,9.5,9H8.7C8.6,9,8.5,8.9,8.5,8.8v0c0,0,0,0,0,0l0-2.5C8.5,6.1,8.4,6,8.2,6h-2v3H3.9v1c0,0,0,0,0,0
	c0,0.5,0.4,0.9,0.9,0.9h1.3v0v3l2,0c0,0,0,0,0,0c0.2,0,0.4-0.2,0.4-0.3l0-2.5c0,0,0,0,0,0c0-0.1,0.1-0.2,0.2-0.2c0,0,0.8,0,0.8,0
	c0.2,0,0.4,0.1,0.6,0.2l2.6,2.7c0.1,0.1,0.2,0.1,0.2,0.1H16L12.2,10.2C12.2,10.2,12.2,10.2,12.2,10.2"/>
</svg>
