<svg xmlns="http://www.w3.org/2000/svg" xmlns:xlink="http://www.w3.org/1999/xlink" width="502" height="189" viewBox="0 0 502 189">
    <defs>
        <rect id="a" width="500" height="187" rx="5"/>
        <path id="c" d="M.44.342H14.6V11.18H.44z"/>
        <path id="e" d="M0 .644h25.369v26.313H0z"/>
        <path id="g" d="M.174.09h34.159v13.444H.173z"/>
    </defs>
    <g fill="none" fill-rule="evenodd" transform="translate(1 1)">
        <mask id="b" fill="#fff">
            <use xlink:href="#a"/>
        </mask>
        <rect width="501" height="188" x="-.5" y="-.5" stroke="#D2D2D2" rx="5"/>
        <g mask="url(#b)">
            <path fill="#FFF2DC" d="M501 148c-59.647 0-142.98 14.236-250 42.71l250 .29v-43z"/>
            <path fill="#DBCDB9" d="M401.905 173c-36.398 0-65.905-1.567-65.905-3.5s29.507-3.5 65.905-3.5c36.399 0 65.906 1.567 65.906 3.5s-29.507 3.5-65.906 3.5"/>
            <path fill="#4DB3D6" d="M325.558 14.021a9.801 9.801 0 0 0-.815-.041 9.82 9.82 0 0 0-3.798.76c-1.55-4.503-5.817-7.74-10.849-7.74-5.713 0-10.45 4.169-11.339 9.629-.213.03-.427.053-.636.094A10.426 10.426 0 0 0 290 24.55h24.917c-.011-.15-.023-.3-.023-.453 0-.035.005-.069.006-.105.006.187.017.373.03.558H334.557c.018-.24.037-.48.037-.724 0-5.162-3.978-9.39-9.035-9.804"/>
            <path fill="#F79292" d="M380.186 66.503c.594 1.479 1.439 2.817 1.439 2.817l21.698 1.613 3.793-.004.01-1.946s-10.267-2.938-20.524-5.008l-6.416 2.528z"/>
            <path fill="#F79292" d="M386.785 64.003c-2.763-8.705-6.098-17.294-8.886-18.168 0 0-2.722-.746-4.98 1.113-2.257 1.858-.844 5.13-.844 5.13l8.11 14.425 6.6-2.5z"/>
            <path fill="#49557F" d="M362.667 26.457c-2.995 9.956 4.058 14.49 4.058 14.49l3.533-12.297-7.591-2.193z"/>
            <path fill="#49557F" d="M373.11 20.359c7.819 2.392 6.072 10.259 6.072 10.259-1.795 11.097-12.782 5.84-12.782 5.84-3.659.992 3.65-11.843 3.65-11.843l3.06-4.256zM368.66 89.888h14.876l-3.372 74.035h-4.561l-3.525-63.74-6.158 1-4.203 62.74h-4.562l-3.372-74.035z"/>
            <path fill="#F79292" d="M367.8 44.432h4.266v-8.77H367.8z"/>
            <path fill="#F79292" d="M363.524 30.2c-.444 5.462 2.522 8.589 6.194 8.889 3.672.301 6.658-2.338 7.102-7.8.445-5.461-2.171-10.133-5.843-10.434-3.672-.3-7.008 3.884-7.453 9.345"/>
            <path fill="#4DB3D6" d="M351.969 91.565c-.03-.444-.062-.887-.06-1.34l.07-34.173c.02-9.696 7.316-13.783 16.308-13.77 8.991.014 11.3 6.667 12.556 14.826l3.625 33.166c0 .452-.033.895-.065 1.338l-32.434-.047z"/>
            <g transform="translate(360.077 19.308)">
                <mask id="d" fill="#fff">
                    <use xlink:href="#c"/>
                </mask>
                <path fill="#49557F" d="M14.599 2.522C11.483 7.91.44 11.181.44 11.181.4 2.37 7.743.54 7.743.54c4.83-.981 6.856 1.981 6.856 1.981" mask="url(#d)"/>
            </g>
            <path fill="#6B518E" d="M375.15 163.31l.027 5.414 9.364-.049s-.993-3.672-4.696-5.238l-4.696-.127zM356.694 163.31l.028 5.414 9.364-.049s-.992-3.672-4.696-5.238l-4.696-.127z"/>
            <path fill="#CE7E42" d="M382.02 72.887l-4.195-5.486-5.58 4.417 4.156 5.515z"/>
            <g transform="translate(318 93.983)">
                <mask id="f" fill="#fff">
                    <use xlink:href="#e"/>
                </mask>
                <path fill="#FFD527" d="M4.176 3.083C-1.412 7.321-1.11 14.73 3.408 20.724c4.518 5.994 11.542 8.305 17.13 4.067 5.588-4.238 6.455-12.533 1.937-18.528C17.957.27 9.765-1.154 4.176 3.083" mask="url(#f)"/>
            </g>
            <path fill="#FFD527" d="M337.81 89.686c-4.12 3.126-4.76 9.244-1.428 13.665 3.332 4.421 9.374 5.471 13.496 2.345 4.121-3.125 3.915-8.602.583-13.023-3.332-4.421-8.53-6.112-12.65-2.987"/>
            <path fill="#FFD527" d="M340.26 97.552l2.74 3.637 30.323-22.996-2.742-3.638z"/>
            <path fill="#CE7E42" d="M376.401 77.333l-4.157-5.514-1.663 2.737 2.742 3.637z"/>
            <path fill="#FFD527" d="M335.392 104.101a5.046 5.046 0 0 0 7.082.987 5.082 5.082 0 0 0 .984-7.104 5.044 5.044 0 0 0-7.082-.987 5.083 5.083 0 0 0-.984 7.104"/>
            <path fill="#CE7E42" d="M336.774 97.525a4.419 4.419 0 0 0-.856 6.178 4.388 4.388 0 0 0 6.159.858 4.42 4.42 0 0 0 .855-6.178 4.387 4.387 0 0 0-6.158-.858"/>
            <path fill="#FFD527" d="M336.277 91.177c-1.656 3.335-4.347 3.68-4.347 3.68 1.852 2.444 3.346 1.618 3.346 1.618.885-3.254 1-5.298 1-5.298M347.505 106.994c-3.381.773-4.38 3.122-4.38 3.122-1.84-2.453-.64-3.67-.64-3.67 2.882.028 4.759.36 5.235.454 0 0-.106.07-.215.094"/>
            <path fill="#FFF0B3" d="M331.095 106.15l48.235-36.676-.167-.218-48.234 36.674zM331.745 107.01l48.234-36.675-.166-.218-48.235 36.674zM332.422 107.909l48.235-36.675-.167-.218-48.234 36.675z"/>
            <path fill="#FFF0B3" d="M329.707 103.17l5.03 6.671 1.345-1.02-5.03-6.672z"/>
            <path fill="#CE7E42" d="M381.008 74.26l.301.382.88-.696-.302-.383zM379.381 75.547l.301.382.88-.696-.301-.382zM377.755 76.834l.3.382.88-.695-.301-.383z"/>
            <path fill="#CE7E42" d="M380.954 73.48l.543.69.19-.15-.542-.691zM379.327 74.767l.544.69.19-.15-.544-.69zM377.758 76.128l.544.69.19-.15-.543-.69zM376.201 68.148l-.3-.383.88-.695.3.382zM374.574 69.435l-.3-.383.88-.695.3.382zM372.948 70.722l-.301-.382.88-.696.3.383z"/>
            <path fill="#CE7E42" d="M376.945 68.382l-.544-.69.19-.151.544.69zM375.318 69.67l-.544-.69.191-.152.543.69zM373.633 70.883l-.543-.69.19-.151.544.691z"/>
            <path fill="#FFD527" d="M380.335 72.496a.362.362 0 0 0-.06.506.357.357 0 0 0 .505.06.36.36 0 0 0-.445-.566M378.804 73.708a.361.361 0 0 0-.06.507.36.36 0 1 0 .06-.506M377.272 74.92a.362.362 0 0 0-.06.506.36.36 0 1 0 .06-.506M377.457 68.648a.362.362 0 0 0-.06.506.357.357 0 0 0 .504.06.36.36 0 0 0-.444-.566M375.925 69.86a.361.361 0 0 0-.06.506.36.36 0 1 0 .06-.506M374.394 71.072a.362.362 0 0 0-.06.506.36.36 0 1 0 .06-.506"/>
            <path fill="#CE7E42" d="M331.953 104.798a.254.254 0 0 0-.042.356.253.253 0 1 0 .041-.355M331.334 104.01a.253.253 0 0 0 .312.398.252.252 0 1 0-.312-.397M332.738 105.797a.253.253 0 0 0-.04.355.25.25 0 0 0 .353.042.252.252 0 1 0-.312-.397M333.403 106.642a.252.252 0 1 0 .313.396.252.252 0 0 0-.313-.396M334.056 107.472a.253.253 0 0 0-.041.355.25.25 0 0 0 .353.042.252.252 0 1 0-.312-.397"/>
            <path fill="#F79292" d="M346.043 63.901c-.822 1.367-1.38 2.848-1.38 2.848l11.762 18.361 2.284 3.039 1.557-1.163s-3.833-9.996-8.352-19.461l-5.871-3.624z"/>
            <path fill="#F79292" d="M352.002 67.688c5.273-7.449 10.109-15.286 9.13-18.046 0 0-1.044-2.63-3.882-3.322-2.838-.693-4.594 2.408-4.594 2.408l-6.613 15.173 5.959 3.787zM360.755 85.249c.794 1.313.585 2.896-.466 3.535-1.051.64-2.546.093-3.34-1.22-.794-1.315-.585-2.897.466-3.537 1.051-.639 2.546-.091 3.34 1.222"/>
            <path fill="#F79292" d="M362.593 84.694c-.023.396-.903.67-1.967.608-1.064-.061-1.909-.432-1.886-.828.023-.397.903-.67 1.967-.608 1.065.06 1.908.431 1.886.828M361.646 86.786c.897.895 1.435 1.809 1.203 2.043-.232.233-1.146-.303-2.041-1.197-.897-.895-1.435-1.81-1.203-2.043.231-.233 1.145.303 2.041 1.197"/>
            <path fill="#F79292" d="M361.115 87.935c.897.894 1.435 1.808 1.203 2.042-.231.233-1.145-.302-2.041-1.197-.897-.894-1.435-1.808-1.203-2.042.231-.234 1.145.302 2.041 1.197"/>
            <path fill="#F79292" d="M359.841 88.32c.896.893 1.435 1.808 1.202 2.041-.23.234-1.145-.302-2.04-1.196-.897-.895-1.435-1.81-1.203-2.043.231-.233 1.145.302 2.041 1.197"/>
            <path fill="#F79292" d="M358.968 88.558c.627.987.949 1.905.718 2.052-.229.146-.923-.534-1.55-1.52-.626-.986-.947-1.904-.718-2.051.23-.146.924.534 1.55 1.52"/>
            <path fill="#F4AEAE" d="M373.532 35.587l-.953-.03a1.403 1.403 0 0 0-.382-1.01 1.4 1.4 0 0 0-.984-.445 1.39 1.39 0 0 0-1.009.385c-.273.258-.431.609-.442.986l-.953-.028c.019-.633.283-1.221.743-1.655a2.33 2.33 0 0 1 1.69-.643 2.338 2.338 0 0 1 1.649.744c.433.461.66 1.063.641 1.696"/>
            <g>
                <path fill="#F7ADAD" d="M406.659 66.647c1.527.153 2.664 1.271 2.54 2.498-.122 1.226-1.46 2.095-2.986 1.942-1.527-.154-2.665-1.272-2.541-2.498.123-1.226 1.46-2.096 2.987-1.942"/>
                <path fill="#F7ADAD" d="M407.324 64.84c.302.257-.012 1.127-.7 1.943-.691.816-1.495 1.27-1.799 1.012-.302-.256.011-1.125.701-1.941.688-.816 1.494-1.27 1.798-1.014M410.778 67.12c.046.326-.933.737-2.186.917-1.254.18-2.308.062-2.355-.264-.046-.326.932-.736 2.186-.916 1.254-.18 2.308-.063 2.355.263"/>
                <path fill="#F7ADAD" d="M409.02 67.972c1.253-.18 2.308-.062 2.354.264.047.326-.932.736-2.185.916-1.254.181-2.308.063-2.355-.263-.047-.326.932-.737 2.186-.917"/>
                <path fill="#F7ADAD" d="M408.558 69.224c1.254-.18 2.308-.062 2.355.264.047.326-.931.736-2.185.916-1.254.181-2.308.063-2.355-.263-.047-.326.931-.736 2.185-.917"/>
                <path fill="#F7ADAD" d="M408.224 70.068c1.164.09 2.091.385 2.07.657-.021.272-.982.42-2.147.329-1.164-.091-2.092-.386-2.07-.658.021-.272.983-.419 2.147-.328"/>
                <path fill="#F79292" d="M436.188 98.321l4.345 64.013 4.815.264 1.902-64.313z"/>
                <path fill="#4DB3D6" d="M445.348 161.34l-2.725 6.686-7.642.05s.597-2.357 3.981-4.277l1.472-2.459h4.914z"/>
                <path fill="#4DB3D6" d="M444.954 167.978h-1.026l-.32-3.893 1.74-2.745s.77.738.77 2.079c0 1.34-1.164 4.56-1.164 4.56"/>
                <path fill="#F79292" d="M428.912 67.83c.362 1.39.466 2.81.466 2.81l-14.866 12.823-2.752 2.035-1.049-1.402s5.87-7.64 12.198-14.647l6.003-1.619z"/>
                <path fill="#F79292" d="M422.996 70.953c.565-8.201 1.656-18.39 3.912-19.75 0 0 1.49-.882 3.842.307 1.713.866 1.02 3.786 1.02 3.786l-2.458 14.462-6.316 1.195zM410.866 82.401c-1.015.936-1.23 2.357-.48 3.174.752.816 2.184.718 3.2-.218 1.016-.937 1.231-2.357.48-3.173-.752-.816-2.184-.719-3.2.217"/>
                <path fill="#F79292" d="M411.253 81.218c-.936-.214-1.76-.105-1.84.243-.08.348.615.805 1.552 1.019.938.214 1.761.106 1.842-.243.08-.348-.616-.804-1.554-1.019M409.71 83.507c-1 .548-1.694 1.203-1.553 1.464.143.26 1.07.026 2.069-.523 1-.548 1.695-1.203 1.552-1.464-.142-.26-1.068-.026-2.068.523"/>
                <path fill="#F79292" d="M409.883 84.633c-1 .548-1.694 1.203-1.552 1.463.142.26 1.068.026 2.068-.522 1-.549 1.695-1.204 1.552-1.464-.142-.26-1.068-.026-2.068.523"/>
                <path fill="#F79292" d="M410.892 85.285c-1 .549-1.695 1.203-1.553 1.463.142.26 1.069.027 2.068-.522 1-.549 1.695-1.203 1.553-1.464-.142-.26-1.069-.026-2.068.523"/>
                <path fill="#F79292" d="M411.588 85.711c-.79.695-1.298 1.408-1.135 1.592.162.185.933-.229 1.722-.924.79-.695 1.298-1.409 1.136-1.593-.163-.184-.934.23-1.723.925"/>
                <path fill="#FFD527" d="M431.89 24.62c-6.55-.6-6.164 11.086-6.164 11.086-.385 4.116 3.648 8.251 3.648 8.251l7.742-17.004-5.225-2.333z"/>
                <path fill="#FFD527" d="M439.256 45.836a6.78 6.78 0 0 1-7.333 6.176 6.78 6.78 0 0 1-6.171-7.338 6.778 6.778 0 0 1 7.333-6.175 6.78 6.78 0 0 1 6.171 7.337"/>
                <path fill="#FFD527" d="M450.012 42.836a6.779 6.779 0 0 1-7.333 6.176 6.78 6.78 0 0 1-6.17-7.339 6.778 6.778 0 0 1 7.332-6.175 6.78 6.78 0 0 1 6.171 7.338"/>
                <path fill="#FFD527" d="M455.97 53.239c-.383 4.453-4.301 7.753-8.752 7.37-4.451-.383-7.749-4.304-7.366-8.758a8.09 8.09 0 0 1 8.753-7.37 8.093 8.093 0 0 1 7.365 8.758M430.556 26.916l1.335-2.295c14.599-3.82 13.822 10.76 13.822 10.76l-15.157-8.465z"/>
                <path fill="#FFD527" d="M431.84 26.797c1.38 8.835 13.798 10.271 13.798 10.271-1.362-4.946-3.14-6.775-3.14-6.775-4.757-5.137-10.659-3.496-10.659-3.496"/>
                <path fill="#F79292" d="M430.21 37.983c1.985 4.789 4.93 6.096 8.064 4.795 3.134-1.3 5.272-4.717 3.286-9.506-1.985-4.79-6.135-7.617-9.27-6.317-3.134 1.301-4.066 6.238-2.08 11.028"/>
                <path fill="#F79292" d="M435.343 48.7l3.537.033.063-6.993-3.536-.031zM423.186 99.78l1.165 63.821 4.555.198 4.456-64.356z"/>
                <path fill="#4DB3D6" d="M429.224 161.34l-2.726 6.686-7.641.05s.596-2.357 3.98-4.277l1.473-2.459h4.914z"/>
                <path fill="#4DB3D6" d="M428.83 167.978h-1.027l-.32-3.893 1.74-2.745s.772.738.772 2.079c0 1.34-1.165 4.56-1.165 4.56"/>
                <path fill="#B11A25" d="M436.38 47.219v-.003l.024.001h.025v.002c15.906.62 9.427 36.648 8.677 41.146l-9.058-1.144h-.049l-10.224-.098c-.663-4.511-5.31-39.587 10.604-39.904"/>
                <path fill="#B11A25" d="M450.038 126.87s1.72-29.603-5.176-47.018l-20.205-6.475s-6.112 23.342-7.07 51.094l32.45 2.398z"/>
                <path fill="#FFD527" d="M431.374 27.256s5.97 9.8 11.482 6.135c0 0-.948-10.144-11.482-6.135"/>
                <path fill="#194F69" d="M412.433 85.922l-1.426.717-4.237-7.524 2.11-1.062z"/>
                <path fill="#194F69" d="M409.709 75.841a2.916 2.916 0 0 1-1.295 3.915 2.915 2.915 0 1 1 1.295-3.915"/>
                <path fill="#F79292" d="M411.253 81.218c-.936-.214-1.76-.105-1.84.243-.08.348.615.805 1.552 1.019.938.214 1.761.106 1.842-.243.08-.348-.616-.804-1.554-1.019M449.968 66.56c.458 1.36.662 2.771.662 2.771L436.7 83.166l-2.602 2.223-1.145-1.325s5.32-8.033 11.14-15.467l5.875-2.037z"/>
                <path fill="#F79292" d="M443.984 68.724c-3.196-7.574-5.93-15.403-4.53-17.636 0 0 .931-1.46 3.566-1.461 1.919 0 2.619 2.918 2.619 2.918l4.33 14.015-5.985 2.164zM432.989 82.363c-.948 1.006-1.063 2.438-.256 3.2.807.76 2.229.563 3.176-.443.948-1.005 1.063-2.437.256-3.199-.806-.761-2.228-.563-3.176.442"/>
                <path fill="#F79292" d="M433.292 81.156c-.95-.148-1.764.018-1.82.371-.054.354.672.76 1.621.908.95.148 1.765-.019 1.82-.372.054-.353-.67-.76-1.62-.907M431.913 83.548c-.96.617-1.606 1.32-1.446 1.568.161.25 1.068-.048 2.027-.666.959-.617 1.606-1.32 1.446-1.568-.16-.25-1.067.048-2.027.666"/>
                <path fill="#F79292" d="M432.165 84.659c-.96.616-1.606 1.32-1.446 1.569.16.249 1.068-.05 2.026-.666.96-.618 1.607-1.32 1.446-1.57-.16-.25-1.067.05-2.026.667"/>
                <path fill="#F79292" d="M433.216 85.237c-.959.618-1.606 1.32-1.445 1.57.16.25 1.067-.05 2.026-.667.959-.617 1.606-1.32 1.446-1.568-.16-.25-1.068.049-2.027.665"/>
                <path fill="#F79292" d="M433.941 85.614c-.739.748-1.195 1.496-1.02 1.668.174.173.915-.295 1.653-1.043.739-.748 1.195-1.496 1.02-1.668-.174-.173-.915.294-1.653 1.043"/>
                <path fill="#F4AEAE" d="M433.638 40.594a2.29 2.29 0 0 1 1.686-2.76 2.267 2.267 0 0 1 1.727.272c.52.318.887.821 1.03 1.414l-.929.224a1.317 1.317 0 0 0-.599-.822 1.33 1.33 0 0 0-1.986 1.447l-.929.225z"/>
                <path fill="#194F69" d="M416.52 89.751h-.024c-2.361-.116-4.367-1.471-5.364-3.624a.478.478 0 1 1 .866-.401c.846 1.824 2.545 2.972 4.545 3.07a.479.479 0 0 1-.023.955"/>
                <path fill="#FFD527" d="M417.539 92.842c-.073-.198-.086-.399-.232-.55-.145-.15-.35-.16-.54-.246.5-.01.736-.286.802-.76.024.494.28.749.767.808-.464.05-.753.265-.797.748M419.944 90.272c-.144-.15-.348-.159-.54-.244.5-.011.737-.287.803-.761.024.494.279.75.767.807-.465.051-.753.267-.798.749-.073-.198-.085-.399-.232-.55M418.854 88.595c-.112-.305-.132-.613-.357-.846-.222-.23-.535-.244-.83-.376.77-.017 1.132-.44 1.234-1.168.036.758.428 1.15 1.178 1.24-.715.077-1.158.408-1.225 1.15"/>
                <path fill="#194F6A" d="M416.738 89.17c.502.08.996.214 1.506.123.1-.018.182.008.198.117.015.107-.063.137-.15.154a2.621 2.621 0 0 1-.82.013c-.23-.028-.458-.06-.692-.092-.008.068.044.075.075.093.283.173.555.362.802.585.077.07.158.15.07.253-.095.11-.18.02-.255-.044a4.82 4.82 0 0 0-.809-.574c-.089-.05-.122-.111-.116-.21.01-.176.015-.351.012-.526-.002-.129.058-.173.178-.183.339-.03.665-.107.96-.292.082-.053.183-.086.248.016.078.12-.026.188-.11.237-.25.147-.522.237-.808.284l-.289.046zM426.167 83.541c-.476.037-.956.025-1.402.22-.086.038-.167.034-.206-.063-.037-.093.028-.139.104-.172.237-.11.489-.164.746-.194.214-.025.43-.047.65-.07-.008-.063-.056-.058-.09-.067a5.026 5.026 0 0 1-.86-.357c-.086-.047-.177-.102-.119-.216.062-.122.16-.056.242-.014.277.14.564.262.865.344.092.025.135.074.152.167.03.161.064.322.105.481.03.117-.014.17-.122.206-.303.103-.584.245-.81.48-.065.065-.149.118-.231.04-.098-.094-.017-.179.047-.242.196-.189.425-.331.675-.437l.254-.106"/>
                <path fill="#FFD527" d="M425.227 81.364c.145-.06.292-.077.399-.19.106-.11.105-.261.162-.406.025.37.236.534.588.567-.364.034-.543.231-.57.593-.052-.342-.221-.547-.579-.564M422.692 81.805c.144-.06.29-.077.397-.19.106-.111.106-.262.163-.407.025.37.236.535.588.568-.364.034-.543.23-.57.592-.052-.34-.221-.547-.578-.563M423.569 84.503c.163-.172.162-.403.25-.625.037.567.361.821.9.872-.558.052-.832.354-.873.91-.08-.525-.34-.84-.887-.866.219-.093.446-.118.61-.29"/>
                <path fill="#194F69" d="M499.635 105.421c-4.207 4.85-8.827 7.299-12.857 8.482-16.587 4.87-35.762-7.15-44.717-21.587-3.526-5.683-9.61-9.266-15.875-9.35-.199 0-.365.21-.368.474-.002.264.16.48.361.483 6.055.08 11.925 3.527 15.317 8.996 4.732 7.629 12.083 14.376 20.166 18.513 5.824 2.98 11.785 4.503 17.384 4.503 2.736 0 5.386-.364 7.89-1.1 3.98-1.168 8.52-3.534 12.699-8.14v-1.274z"/>
            </g>
            <g>
                <g transform="translate(458 22.64)">
                    <mask id="h" fill="#fff">
                        <use xlink:href="#g"/>
                    </mask>
                    <path fill="#4DB3D6" d="M27.412 5.469a7.845 7.845 0 0 0-.624-.032 7.514 7.514 0 0 0-2.91.583 8.79 8.79 0 0 0-8.31-5.93 8.802 8.802 0 0 0-8.686 7.377c-.164.022-.328.04-.488.072a7.984 7.984 0 0 0-6.22 5.995H19.26a4.405 4.405 0 0 1-.017-.347l.003-.081c.004.144.014.286.024.428h15.034c.013-.184.028-.368.028-.555 0-3.954-3.047-7.193-6.921-7.51" mask="url(#h)"/>
                </g>
                <path fill="#4DB3D6" d="M486.468 23.395a2.062 2.062 0 1 1-4.123 0 2.062 2.062 0 0 1 4.123 0M464.395 27.315a1.313 1.313 0 1 1-2.626-.001 1.313 1.313 0 0 1 2.626.001M482.343 18.357a1.313 1.313 0 1 1-2.627 0 1.313 1.313 0 0 1 2.627 0"/>
            </g>
            <text font-family="VAGRoundedBold, VAGRounded" font-size="36" font-weight="bold" transform="translate(30 7)">
                <tspan x="80" y="69" fill="#000">YAH~</tspan>
            </text>
            <text stroke="#979797" font-family="Roboto-Regular, Roboto" font-size="12" transform="translate(30 7)">
                <tspan x=".124" y="95" fill="#000">Browser Agan tidak mendukung fitur audio ini,</tspan> <tspan x="3.3" y="115" fill="#000">coba lagi menggunakan browser lain ya Gan!</tspan>
            </text>
        </g>
    </g>
</svg>
