<?xml version="1.0" encoding="UTF-8"?>
<svg width="16px" height="16px" viewBox="0 0 16 16" version="1.1" xmlns="http://www.w3.org/2000/svg" xmlns:xlink="http://www.w3.org/1999/xlink">
    <!-- Generator: Sketch 48.1 (47250) - http://www.bohemiancoding.com/sketch -->
    <title>icon/title/jual beli</title>
    <desc>Created with Sketch.</desc>
    <defs></defs>
    <g id="Symbols" stroke="none" stroke-width="1" fill="none" fill-rule="evenodd">
        <g id="icon/title/jual-beli">
            <g id="Page-1">
                <g id="Group-3" fill="#FBC25B">
                    <path d="M16.000064,7.999936 C16.000064,12.418496 12.417984,15.999936 8.000064,15.999936 C3.581504,15.999936 6.4e-05,12.418496 6.4e-05,7.999936 C6.4e-05,3.582016 3.581504,-6.4e-05 8.000064,-6.4e-05 C12.417984,-6.4e-05 16.000064,3.582016 16.000064,7.999936" id="Fill-1"></path>
                </g>
                <path d="M8.80224,11.153408 C8.41312,11.153408 8.0976,11.468928 8.0976,11.858048 C8.0976,12.247168 8.41312,12.562688 8.80224,12.562688 C9.19136,12.562688 9.50688,12.247168 9.50688,11.858048 C9.50688,11.468928 9.19136,11.153408 8.80224,11.153408" id="Fill-4" fill="#1BA89F"></path>
                <path d="M4.078208,6.87968 C4.078208,6.64096 4.271488,6.44768 4.510208,6.44768 C4.748928,6.44768 4.942848,6.64096 4.942848,6.87968 C4.942848,7.1184 4.748928,7.31168 4.510208,7.31168 C4.271488,7.31168 4.078208,7.1184 4.078208,6.87968 Z M5.282048,7.8736 C5.520128,7.8736 5.714048,8.06688 5.714048,8.3056 C5.714048,8.54432 5.520128,8.7376 5.282048,8.7376 C5.043328,8.7376 4.850048,8.54432 4.850048,8.3056 C4.850048,8.06688 5.043328,7.8736 5.282048,7.8736 Z M6.053248,6.44768 C6.291968,6.44768 6.485248,6.64096 6.485248,6.87968 C6.485248,7.1184 6.291968,7.31168 6.053248,7.31168 C5.814528,7.31168 5.621248,7.1184 5.621248,6.87968 C5.621248,6.64096 5.814528,6.44768 6.053248,6.44768 Z M6.825088,7.8736 C7.063808,7.8736 7.256448,8.06688 7.256448,8.3056 C7.256448,8.54432 7.063808,8.7376 6.825088,8.7376 C6.585728,8.7376 6.392448,8.54432 6.392448,8.3056 C6.392448,8.06688 6.585728,7.8736 6.825088,7.8736 Z M7.596288,6.44768 C7.835008,6.44768 8.028288,6.64096 8.028288,6.87968 C8.028288,7.1184 7.835008,7.31168 7.596288,7.31168 C7.357568,7.31168 7.164288,7.1184 7.164288,6.87968 C7.164288,6.64096 7.357568,6.44768 7.596288,6.44768 Z M8.367488,7.8736 C8.606208,7.8736 8.799488,8.06688 8.799488,8.3056 C8.799488,8.54432 8.606208,8.7376 8.367488,8.7376 C8.128768,8.7376 7.935488,8.54432 7.935488,8.3056 C7.935488,8.06688 8.128768,7.8736 8.367488,7.8736 Z M9.138688,6.44768 C9.377408,6.44768 9.571328,6.64096 9.571328,6.87968 C9.571328,7.1184 9.377408,7.31168 9.138688,7.31168 C8.900608,7.31168 8.706688,7.1184 8.706688,6.87968 C8.706688,6.64096 8.900608,6.44768 9.138688,6.44768 Z M11.421568,4.65312 L9.870208,9.58496 L9.403008,9.58496 L10.621568,5.6624 L2.518528,5.6624 L4.685568,10.63328 L10.636928,10.63328 L12.188288,5.70144 L12.973568,5.70144 L13.307648,4.65312 L11.421568,4.65312 Z" id="Fill-6" fill="#1BA89F"></path>
                <path d="M6.472576,11.153408 C6.083456,11.153408 5.767936,11.468928 5.767936,11.858048 C5.767936,12.247168 6.083456,12.562688 6.472576,12.562688 C6.861696,12.562688 7.177856,12.247168 7.177856,11.858048 C7.177856,11.468928 6.861696,11.153408 6.472576,11.153408" id="Fill-8" fill="#1BA89F"></path>
            </g>
        </g>
    </g>
</svg>