<?xml version="1.0" encoding="UTF-8"?>
<svg width="16px" height="16px" viewBox="0 0 16 16" version="1.1" xmlns="http://www.w3.org/2000/svg" xmlns:xlink="http://www.w3.org/1999/xlink">
    <!-- Generator: Sketch 48.1 (47250) - http://www.bohemiancoding.com/sketch -->
    <title>icon/title/user</title>
    <desc>Created with Sketch.</desc>
    <defs>
        <polygon id="path-1" points="8.67361738e-21 6.4e-05 8.67361738e-21 16 15.999872 16 15.999872 6.4e-05"></polygon>
    </defs>
    <g id="Symbols" stroke="none" stroke-width="1" fill="none" fill-rule="evenodd">
        <g id="icon/title/user">
            <g id="Page-1">
                <g id="Group-3">
                    <mask id="mask-2" fill="white">
                        <use xlink:href="#path-1"></use>
                    </mask>
                    <g id="Clip-2"></g>
                    <path d="M15.999872,8.000064 C15.999872,12.417984 12.417792,16.000064 7.999872,16.000064 C3.581952,16.000064 -0.000128,12.417984 -0.000128,8.000064 C-0.000128,3.581504 3.581952,6.4e-05 7.999872,6.4e-05 C12.417792,6.4e-05 15.999872,3.581504 15.999872,8.000064" id="Fill-1" fill="#FDBA4D" mask="url(#mask-2)"></path>
                </g>
                <path d="M8.9956427,6.85294118 L7.0043573,6.85294118 C5.34749455,6.85294118 4,8.20152505 4,9.8583878 L4,12.2930283 L4.00653595,12.3311547 L4.17320261,12.3834423 C5.75381264,12.8769063 7.12854031,13.0424837 8.25816993,13.0424837 C10.4662309,13.0424837 11.7461874,12.412854 11.8246187,12.372549 L11.9825708,12.2930283 L12,12.2930283 L12,9.8583878 C12,8.20152505 10.6514161,6.85294118 8.9956427,6.85294118 M8,6.69281046 C9.29520697,6.69281046 10.3464052,5.64270153 10.3464052,4.34640523 C10.3464052,3.05010893 9.29520697,2 8,2 C6.7037037,2 5.65250545,3.05119826 5.65250545,4.34640523 C5.65250545,5.64270153 6.7037037,6.69281046 8,6.69281046" id="Fill-4" fill="#FFFFFF"></path>
            </g>
        </g>
    </g>
</svg>