<?xml version="1.0" encoding="UTF-8"?>
<svg width="16px" height="18px" viewBox="0 0 16 18" version="1.1" xmlns="http://www.w3.org/2000/svg" xmlns:xlink="http://www.w3.org/1999/xlink">
    <!-- Generator: Sketch 50.2 (55047) - http://www.bohemiancoding.com/sketch -->
    <title>JB</title>
    <desc>Created with Sketch.</desc>
    <defs></defs>
    <g id="00-CHANNEL" stroke="none" stroke-width="1" fill="none" fill-rule="evenodd">
        <g id="0-menu-copy-2" transform="translate(-14.000000, -123.000000)">
            <g id="JB" transform="translate(14.000000, 123.000000)">
                <rect id="Rectangle-3" fill="#FFFFFF" x="0" y="2" width="16" height="16" rx="4"></rect>
                <path d="M11.1575498,4.26321315 C10.7553827,2.90281321 9.50918226,1.90844115 8.03049278,1.89490138 L7.9693218,1.89490138 C6.49063232,1.90844115 5.2444319,2.90281321 4.84226476,4.26321315 L0.940966508,4.26321315 L0.940966508,15.1578112 C0.940966508,16.2001913 1.78787809,17.052666 2.82345579,17.052666 L13.1764515,17.052666 C14.2115657,17.052666 15.0589408,16.2001913 15.0589408,15.1578112 L15.0589408,6.15806787 C15.0589408,5.1156878 14.2115657,4.26321315 13.1764515,4.26321315 L11.1575498,4.26321315 Z M10.662171,4.26321315 L5.3376436,4.26321315 C5.72603963,3.16049176 6.77270151,2.36835843 7.99990729,2.36835843 C9.22711306,2.36835843 10.273775,3.16049176 10.662171,4.26321315 Z M7.9693218,1.89490138 C7.979506,1.89480813 7.98970123,1.8947614 7.99990729,1.8947614 C8.01011335,1.8947614 8.02030858,1.89480813 8.03049278,1.89490138 L10.4446207,1.89490138 C9.9557746,1.04595127 9.04306675,0.47359703 7.99990729,0.47359703 C6.95674783,0.47359703 6.04403998,1.04595127 5.55519388,1.89490138 L7.9693218,1.89490138 Z M10.9770428,1.89490138 L13.1764979,1.89490138 C14.7294009,1.89490138 16,3.17384666 16,4.73695016 L16,15.1579512 C16,16.7210547 14.7294009,18 13.1764979,18 L2.82350214,18 C1.27013559,18 0,16.7210547 0,15.1579512 L0,4.73695016 C0,3.17384666 1.27013559,1.89490138 2.82350214,1.89490138 L5.02277174,1.89490138 C5.55143199,0.774509063 6.68592814,0 7.99990729,0 C9.31388644,0 10.4483826,0.774509063 10.9770428,1.89490138 Z" fill="#FAA71D"></path>
                <path d="M9.69614092,10.8439255 C9.64375942,10.793533 9.61084714,10.7230766 9.61084714,10.6442216 C9.61084714,10.5667663 9.64329586,10.49631 9.69521381,10.446384 L12.7059914,7.57913892 L10.3135937,7.57913892 C10.2357168,7.57913892 10.1652567,7.61133419 10.115193,7.66359317 C10.115193,7.66359317 10.1142658,7.66405977 10.1142658,7.66452636 L8.05377216,9.75908505 C8.05377216,9.75908505 8.05330861,9.75908505 8.05330861,9.75955165 C7.93695677,9.86173663 7.78583845,9.92426077 7.62034998,9.92892675 L6.9950168,9.92892675 C6.91713988,9.92892675 6.85409665,9.86593601 6.85409665,9.78848073 L6.85409665,9.78661434 L6.8536331,9.78661434 L6.85316954,7.84603301 C6.84760691,7.7046538 6.73542705,7.59033727 6.595434,7.58240511 L5.0276973,7.58240511 L5.0276973,9.92985994 L3.29400858,9.92985994 L3.29400858,10.6974138 L3.29400858,10.7011465 C3.29400858,11.081424 3.60227141,11.3903119 3.98192143,11.3903119 L5.0276973,11.3903119 L5.0276973,11.3907785 L5.0276973,13.7368335 L6.57318345,13.7368335 C6.57550122,13.7363669 6.57689188,13.7363669 6.57874609,13.7363669 C6.72940086,13.7363669 6.85177889,13.6145848 6.8536331,13.4638736 L6.85316954,11.5260919 L6.85409665,11.5256253 C6.85780508,11.4514362 6.91853054,11.3917117 6.9940897,11.3917117 C6.9940897,11.3917117 7.59809943,11.3907785 7.6013443,11.3907785 C7.78259358,11.3907785 7.9476185,11.4617014 8.07092363,11.5769511 L10.120292,13.6575118 C10.1698922,13.7065046 10.2384981,13.7368335 10.3135937,13.7368335 L12.6995017,13.7368335 L9.69660447,10.8443921 L9.69614092,10.8439255 Z" id="Fill-12" fill="#0D80C2"></path>
            </g>
        </g>
    </g>
</svg>