<svg xmlns="http://www.w3.org/2000/svg" xmlns:xlink="http://www.w3.org/1999/xlink" width="223" height="205" viewBox="0 0 223 205"><defs><ellipse id="a" cx="93.751" cy="93.885" rx="93.751" ry="93.885"/><path id="b" d="M.513.646h48.046v28.44H.513z"/><path id="d" d="M.786.094h60.31v71.644H.787z"/><path id="f" d="M.669.84h40.424v55.335H.67z"/></defs><g fill="none" fill-rule="evenodd"><use fill="#D8D8D8" fill-rule="nonzero" transform="translate(0 16.407)" xlink:href="#a"/><path fill="#FFF" d="M118.89.496c37.582 0 68.22 29.882 69.683 67.296l.054-.897c.07 1.212.07 2.489.07 3.697 0 30.996-20.019 57.296-47.768 66.55 5.29 8.359 14.069 21.392 17.076 20.89 4.036-.676 14.387-12.76 16.13-14.825-.132-1.987.134-3.64.853-4.599a8.98 8.98 0 01.795-.93c1.298-3.852 4.329-5.916 8.098-6.128 4.814-.266 15.915-6.452 17.853-1.008 1.885 5.292-8.924 5.568-9.535 5.579h-.027c.065.26.12.512.167.758 3.395-.554 7.38.035 11.085 1.095 4.139.8 8.41 2.347 11.38 5.257.38.314.642.592.769.82-.002-.003 0-.001 0 0v-.001c.606 1.035-3.713 1.023-8.626.7l.061.024c4.604 1.309 9.386 3.57 12.11 7.478l-.05-.031.01.015.04.082c.396.896-2.422.75-6.125.21 3.417 1.371 6.621 3.377 8.666 6.309l-.05-.032.01.018.04.082c.285.645-1.094.75-3.27.557 1.797.553 3.046 1.033 3.203 1.258 4.665 6.847-21.153 2.255-32.557.47-.644.866-1.363 1.816-2.145 2.821a19.446 19.446 0 01-.024-.017c-7.213 9.242-19.734 22.963-27.123 17.83-6.521-4.533-13.624-18.395-18.245-28.71l-.008.08a277.285 277.285 0 01-3.681-8.707c-.093.41-.181.826-.264 1.246h-.11c-2.672 13.516-.156 31.797 2.984 46.641a107.24 107.24 0 01-14.84 5.957l-.003.025a107.104 107.104 0 01-27.572 4.869l-.19.007c-.216.01-.432.019-.649.026l-.35.012a72.7 72.7 0 01-.66.02l-.405.01-.463.01c-.69.013-1.38.02-2.072.02l-1.204-.007a212.71 212.71 0 01-4.748-.127l.01-.053a295.62 295.62 0 01-3.552-.218c1.09-9.74 3.994-19.904 7.541-29.386l-8.005 9.834a5.91 5.91 0 01-.74 1.097c-.2.23-.396.407-.588.534l-1.51 1.854-.436-1.157c-5.062 8.952-15.907 11.739-15.907 11.739-20.119-3.663-15.242-33.765-4.542-55.336 3.974-8.011 7.531-14.95 11.304-20.712-13.36-12.77-21.686-30.808-21.686-50.8C49.152 31.88 80.377.497 118.89.497zm-24.68 140.25l-.162.117c-4 2.828-8.395 4.587-8.395 4.587s-1.643 4.472-2.592 12.642l12.103-10.12c-3.38 1.028-.954-7.225-.954-7.225zm7.377-2.23c-.396 2.15-1.111 4.276-2.333 6.038l6.178-5.167a68.979 68.979 0 01-3.845-.87z"/><path fill="#1281C5" d="M75.867 187.77l28.806-35.378-1.7-13.843-34.708 29.022z"/><path fill="#036799" d="M102.942 138.549l-7.83 6.928-5.002 24.974 14.563-17.843z"/><path fill="#1281C5" d="M187.889 157.262s-21.865 33-32.697 25.473c-10.831-7.527-23.268-40.795-23.268-40.795l.267-10.687s16.849 28.428 21.263 27.69c4.414-.739 16.382-15.123 16.382-15.123l1.07.807 16.983 12.635z"/><path fill="#036799" d="M172.777 146.105c.536 5.108 2.476 13.711 9.562 18.818 3.343-4.3 5.55-7.592 5.55-7.592l-15.112-11.226zm-40.585-14.785l-.267 10.687s2.004 5.308 5.014 12.098c.4-4.102 1.539-8 2.675-10.956-4.08-6.184-7.422-11.83-7.422-11.83m57.436 13.107s22.734 2.821 21.394.537c-1.27-2.285-16.247-9.611-25.14-6.72-8.892 2.89 3.746 6.183 3.746 6.183"/><path fill="#055675" d="M211.023 144.963s-16.582-8.333-22.734-3.293c-6.15 5.04-2.407-3.427-2.407-3.427s17.786-1.815 25.14 6.72"/><path fill="#036799" d="M195.845 157.061s22.333 5.174 21.262 2.756c-1.07-2.42-15.178-11.225-24.338-9.275-9.161 1.95 3.076 6.52 3.076 6.52"/><path fill="#036799" d="M193.304 150.474s22.333 5.174 21.262 2.755c-1.068-2.418-15.178-11.224-24.339-9.274-9.159 1.95 3.077 6.519 3.077 6.519"/><path fill="#055675" d="M214.566 153.163s-15.646-10.014-22.265-5.645c-6.62 4.368-2.006-3.63-2.006-3.63s17.854.067 24.271 9.275"/><path fill="#055675" d="M217.108 159.748s-15.647-10.012-22.266-5.643c-6.619 4.369-2.005-3.631-2.005-3.631s17.851.068 24.27 9.274"/><g transform="translate(169.04 136.182)"><mask id="c" fill="#fff"><use xlink:href="#b"/></mask><path fill="#1281C5" d="M26.672 13.015S24.399 4.21 16.175 2.397C7.95.582 4.474-.763 1.398 3.337c-3.075 4.1 2.139 20.904 11.366 22.18 9.226 1.275 40.32 7.391 35.238-.068-.469-.671-10.698-3.63-16.183-3.966-5.548-.403-5.147-8.468-5.147-8.468" mask="url(#c)"/></g><path fill="#036799" d="M187.555 139.856s6.55 6.922 6.685 12.096c.135 5.176-13.372 2.823-17.65-.738-4.281-3.496-4.75-6.721-4.75-6.721l15.715-4.637z"/><path fill="#1281C5" d="M176.455 147.115s13.908.94 11.166-10.082c0 0 11.502-.134 9.562-5.58-1.938-5.444-13.039.742-17.853 1.009-4.815.27-8.424 3.563-8.759 9.745-.402 6.183 5.884 4.908 5.884 4.908"/><path fill="#26A6DE" d="M175.518 145.568s8.892 1.547 10.497-4.032c0 0 1.406-3.495-.333-4.637-1.806-1.076-4.482 6.519-10.164 8.67m16.249-10.418s5.548-1.276 3.678-3.897c-1.806-2.69-3.678 3.897-3.678 3.897m24.404 28.294s.871-2.687-4.412-2.419c-5.283.335-25.878.269-32.094-1.613 0 0 16.916 3.966 22.331 4.032 5.483.068 14.175 0 14.175 0"/><path fill="#036799" d="M102.57 139.25c6.554 3.832 16.449 7.395 30.424 7.395 1.137-5.781 3.208-10.687 6.552-14.048l-32.294.672c-.068 0-2.006 2.15-4.681 5.981"/><g transform="translate(78.384 132.503)"><mask id="e" fill="#fff"><use xlink:href="#d"/></mask><path fill="#1281C5" d="M10.28 71.738c16.916 0 32.963-3.966 47.204-10.956-4.478-21.17-7.687-49.33 3.613-60.688L28.8.765S4.462 38.47.786 71.333c3.14.205 6.284.405 9.494.405" mask="url(#e)"/></g><g transform="translate(82.044 148.066)"><mask id="g" fill="#fff"><use xlink:href="#f"/></mask><path fill="#26A6DE" d="M6.62 56.175c11.3 0 22.132-1.747 32.361-4.973C42.927 17.06 42.793-1.758 25.676 1.13 13.906 3.08 4.213 36.282.669 56.041c1.94.068 3.943.134 5.95.134" mask="url(#g)"/></g><path fill="#1281C5" d="M184.077 71.504c0 38.713-31.223 70.1-69.737 70.1-38.514 0-69.74-31.387-69.74-70.1 0-38.713 31.226-70.097 69.74-70.097 38.514 0 69.737 31.384 69.737 70.097"/><path fill="#1281C5" d="M112.605 36.85s3.55-26.481 40.414-15.244l-8.762 17.236-31.652-1.993z"/><path fill="#0C6D9A" d="M112.605 36.85s7.481-21.215 37.888-10.277l2.526-4.967C116.156 10.37 112.605 36.85 112.605 36.85"/><path fill="#1281C5" d="M101.811 43.284s-13.068-23.267-43.154.909l14.497 12.741 28.657-13.65z"/><path fill="#0C6D9A" d="M103.5 41.59s-14.776-16.912-38.978 4.58l-4.178-3.672c30.087-24.175 43.155-.908 43.155-.908"/><path fill="#036799" d="M114.339 134.21c-37.244 0-67.734-29.37-69.606-66.403-.065 1.212-.065 2.488-.065 3.697 0 38.712 31.225 70.1 69.737 70.1 38.514 0 69.74-31.388 69.74-70.1 0-1.209 0-2.485-.069-3.697-2.004 37.033-32.493 66.403-69.737 66.403"/><path fill="#FFF" d="M104.256 59.864c0 11.693-7.088 21.238-15.848 21.238-8.758 0-15.846-9.475-15.846-21.238 0-11.693 7.088-21.238 15.846-21.238 8.76 0 15.848 9.477 15.848 21.238"/><path fill="#0B1C23" d="M100.31 61.006c0 7.932-5.08 14.383-11.366 14.383s-11.368-6.451-11.368-14.383c0-7.931 5.082-14.38 11.368-14.38 6.286-.068 11.366 6.382 11.366 14.38"/><path fill="#FFF" d="M94.56 57.58c0 3.426-2.006 6.181-4.479 6.181-2.476 0-4.481-2.755-4.481-6.182 0-3.427 2.005-6.182 4.481-6.182 2.473 0 4.478 2.755 4.478 6.182m54.562 2.285c0 11.693-7.087 21.238-15.848 21.238-8.758 0-15.845-9.475-15.845-21.238 0-11.693 7.087-21.238 15.845-21.238 8.76 0 15.848 9.477 15.848 21.238"/><path fill="#0B1C23" d="M145.109 61.006c0 7.932-5.082 14.383-11.368 14.383-6.284 0-11.366-6.451-11.366-14.383 0-7.931 5.082-14.38 11.366-14.38 6.286-.068 11.368 6.382 11.368 14.38"/><path fill="#FFF" d="M134.946 51.396c2.474 0 4.48 2.768 4.48 6.182 0 3.416-2.006 6.185-4.48 6.185-2.476 0-4.48-2.769-4.48-6.185 0-3.414 2.004-6.182 4.48-6.182"/><path fill="#036799" d="M79.169 158.592s3.535 21.33-1.203 26.789c-4.74 5.46-6.917-19.4-6.917-19.4l8.12-7.39z"/><path fill="#510D3A" d="M80.813 103.657s26.53-4.757 34.73 0c8.196 4.756 8.785 9.91 8.785 9.91l-43.515-9.91z"/><path fill="#055675" d="M84.982 114.625s7.56-.098 8.162 4.243c0 0 4.846 1.268 4.33 5.27 0 0 .368 6.975-1.801 12.707-2.169 5.73 5.376-17.006-10.69-22.22"/><path fill="#1281C5" d="M59.525 198.351c-20.12-3.662-15.242-33.764-4.542-55.335 10.7-21.571 18.38-35.358 35.372-39.392 16.991-4.034-5.373 11-5.373 11s12.958 6.171 10.835 19.2c-1.16 7.113-14.715 12.538-14.715 12.538s-3.932 10.703-3.146 29.243c.758 17.815-18.431 22.746-18.431 22.746"/><path fill="#055675" d="M96.957 128.142s2.636 13.634-4.004 19.266c-6.64 5.63-3.294-5.75-3.294-5.75s3.924-3.066 4.69-4.885c.77-1.818 3.04-4.954 2.608-8.63"/><path fill="#036799" d="M84.982 114.625s-4.247-3.653-11.36-1.579c0 0 14.554-12.842 22.715-9.813 3.973 1.472-11.355 11.392-11.355 11.392m0 0s17.837 14.097 4.678 27.032c0 0 10.365-4.932 6.586-15.457-3.625-10.093-11.264-11.575-11.264-11.575"/><path fill="#1281C5" d="M15.786 70.186H7.324v-1.633c0-1.531.338-2.951 1.015-4.261.676-1.31 1.352-2.28 2.028-2.909.677-.63 1.592-1.386 2.747-2.27.825-.647 1.427-1.208 1.806-1.685.38-.476.57-1.054.57-1.735 0-.612-.215-1.165-.644-1.658-.429-.494-1.056-.74-1.88-.74a3.15 3.15 0 00-2.351.995c-.643.663-.965 1.675-.965 3.036v.46H0v-1.684c0-2.008.404-3.82 1.212-5.435.809-1.616 1.864-2.909 3.168-3.878a15.47 15.47 0 014.28-2.246 14.514 14.514 0 014.701-.79c3.333 0 6.186 1.08 8.562 3.24 2.375 2.16 3.563 4.992 3.563 8.496 0 3.946-1.848 7.212-5.543 9.798-.198.136-.585.408-1.163.816a27.31 27.31 0 00-1.212.893c-.231.188-.52.46-.866.817-.347.357-.586.714-.718 1.072a3.44 3.44 0 00-.198 1.199v.102zM5.461 78.389c0-1.755.624-3.257 1.871-4.507 1.248-1.249 2.748-1.873 4.5-1.873 1.754 0 3.254.624 4.501 1.873 1.247 1.25 1.871 2.752 1.871 4.507 0 1.756-.624 3.258-1.87 4.507-1.248 1.25-2.748 1.874-4.501 1.874-1.753 0-3.253-.625-4.5-1.874-1.248-1.249-1.872-2.751-1.872-4.507z"/></g></svg>