<?xml version="1.0" encoding="UTF-8"?>
<svg version="1.1" viewBox="0 0 129 58" xmlns="http://www.w3.org/2000/svg">
<title>selamat berbuka</title>
<desc>Created with Sketch.</desc>
<g fill="none" fill-rule="evenodd">
<g transform="translate(-923 -600)">
<g transform="translate(923 600)">
<path d="m21.998 15.322c0.40104 0.21875 0.71094 0.41016 0.92969 0.57422s0.4375 0.36458 0.65625 0.60156c0.63802 0.90235 0.95703 1.9505 0.95703 3.1445 0 1.8776-0.68814 3.3861-2.0645 4.5254-1.4675 1.2214-3.5273 1.832-6.1797 1.832-2.224 0-4.0833-0.54231-5.5781-1.627-1.3125-0.94792-1.9688-1.9687-1.9688-3.0625 0-1.6589 1.0072-2.4883 3.0215-2.4883 0.73828 0 1.5085 0.32356 2.3105 0.9707 0.80209 0.63802 1.9414 0.95703 3.418 0.95703 1.1667 0 1.75-0.36914 1.75-1.1074 0-0.39193-0.87043-0.75195-2.6113-1.0801-0.2461-0.072917-0.78841-0.22331-1.627-0.45117-0.77474-0.20052-1.3991-0.37825-1.873-0.5332-1.6042-0.51953-2.7663-1.2122-3.4863-2.0781-0.62891-0.80209-0.94336-1.7454-0.94336-2.8301 0-1.75 0.68814-3.1536 2.0645-4.2109 1.4675-1.1393 3.5273-1.709 6.1797-1.709 2.224 0 4.0833 0.50585 5.5781 1.5176 1.3125 0.88412 1.9688 1.832 1.9688 2.8437 0 1.5495-1.0072 2.3242-3.0215 2.3242-0.73828 0-1.5085-0.30078-2.3105-0.90234-0.80209-0.60157-1.9414-0.90234-3.418-0.90234-1.1667 0.027344-1.75 0.38737-1.75 1.0801 0 0.36459 0.87043 0.68359 2.6113 0.95703 0.2461 0.072917 0.78841 0.21419 1.627 0.42383 0.77474 0.19141 1.3991 0.35547 1.873 0.49219 0.85678 0.26432 1.4857 0.51042 1.8867 0.73828zm18.252-8.5723c1.1667 0 1.75 0.87499 1.75 2.625 0 1.75-0.58333 2.625-1.75 2.625h-7c-0.82943-0.027344-1.3626 0.55598-1.5996 1.75h6.8496c1.1667 0 1.75 0.87499 1.75 2.625 0 1.75-0.58333 2.625-1.75 2.625h-6.8496c0.23698 1.1667 0.77018 1.75 1.5996 1.75h7c1.1667 0 1.75 0.87499 1.75 2.625 0 1.75-0.58333 2.625-1.75 2.625h-7c-4.6667 0.027344-7-2.8756-7-8.709v-1.75c0-5.8607 2.3333-8.791 7-8.791h7zm8.75 17.5c0 1.1667-0.87499 1.75-2.625 1.75-1.7318 0-2.6068-0.56966-2.625-1.709v-19.332c0.018229-1.1393 0.89322-1.709 2.625-1.709 1.75 0 2.625 0.58333 2.625 1.75v19.25zm7-8.75h3.5c0-2.3333-0.58333-3.5-1.75-3.5s-1.75 1.1667-1.75 3.5zm8.75 8.75c0 1.1667-0.87499 1.75-2.625 1.75s-2.625-0.58333-2.625-1.75v-3.5h-3.5v1.75c0 1.1667-0.87499 1.75-2.625 1.75-1.7318 0-2.6068-0.56966-2.625-1.709v-7.041c0-5.8334 2.3333-8.75 7-8.75s7 2.9166 7 8.75v8.75zm20.125 0.875c-0.58334-1.75-0.875-4.9583-0.875-9.625 0-2.3333-0.58333-3.5-1.75-3.5s-1.75 1.1667-1.75 3.5v8.75c0 1.1667-0.87499 1.75-2.625 1.75s-2.625-0.58333-2.625-1.75v-8.75c0-2.3333-0.58333-3.5-1.75-3.5s-1.75 1.1667-1.75 3.5v7c0 1.1667-0.87499 1.75-2.625 1.75-1.7318 0-2.6068-0.56966-2.625-1.709v-7.041c0-5.8334 2.3333-8.75 7-8.75 1.8047 0 3.263 0.4375 4.375 1.3125 1.112-0.875 2.5703-1.3125 4.375-1.3125 4.6667 0 7 2.9166 7 8.75 0 4.6667 0.29166 7.5833 0.875 8.75s1.5677 1.9915 2.9531 2.4746c1.0208 0.31901 1.4902 1.0618 1.4082 2.2285-0.082032 1.1667-0.70637 1.9232-1.873 2.2695-2.0417 0.18229-3.7461-0.39192-5.1133-1.7227-1.1667-1.1667-2.0417-2.625-2.625-4.375zm11.375-9.625h3.5c0-2.3333-0.58333-3.5-1.75-3.5s-1.75 1.1667-1.75 3.5zm8.75 8.75c0 1.1667-0.87499 1.75-2.625 1.75s-2.625-0.58333-2.625-1.75v-3.5h-3.5v1.75c0 1.1667-0.87499 1.75-2.625 1.75-1.7318 0-2.6068-0.56966-2.625-1.709v-7.041c0-5.8334 2.3333-8.75 7-8.75s7 2.9166 7 8.75v8.75zm12.25-12.25v14c0 1.1667-0.87499 1.75-2.625 1.75-1.7318 0-2.6068-0.56966-2.625-1.709v-14.041h-3.5c-1.1667 0-1.75-0.87499-1.75-2.625 0-1.7318 0.56966-2.6068 1.709-2.625h12.332c1.1393 0.018229 1.709 0.89322 1.709 2.625 0 1.75-0.58333 2.625-1.75 2.625h-3.5zm-109.38 29.193v2.9531h0.50586c1.9961-0.063802 2.9941-0.55598 2.9941-1.4766 0-0.98438-1.1667-1.4766-3.5-1.4766zm0 7.4102v2.9531c2.3333 0 3.5-0.49674 3.5-1.4902 0-0.91146-0.99804-1.3991-2.9941-1.4629h-0.50586zm-2.625 7.3965c-1.7318 0-2.6068-0.56966-2.625-1.709v-15.832c0.018229-1.1302 0.88411-1.6999 2.5977-1.709h2.6523c5.8334 0 8.75 1.9733 8.75 5.9199 0 1.5313-0.4375 2.7663-1.3125 3.7051 0.875 0.93881 1.3125 2.1693 1.3125 3.6914 0 3.9557-2.9166 5.9336-8.75 5.9336h-2.625zm27.125-19.25c1.1667 0 1.75 0.87499 1.75 2.625 0 1.75-0.58333 2.625-1.75 2.625h-7c-0.82943-0.027344-1.3626 0.55598-1.5996 1.75h6.8496c1.1667 0 1.75 0.87499 1.75 2.625 0 1.75-0.58333 2.625-1.75 2.625h-6.8496c0.23698 1.1667 0.77018 1.75 1.5996 1.75h7c1.1667 0 1.75 0.87499 1.75 2.625 0 1.75-0.58333 2.625-1.75 2.625h-7c-4.6667 0.027344-7-2.8756-7-8.709v-1.75c0-5.8607 2.3333-8.791 7-8.791h7zm8.75 4.4434v2.9668c2.3333 0 3.5-0.49446 3.5-1.4834s-1.1667-1.4834-3.5-1.4834zm0 9.0918v3.9648c0 1.1667-0.87499 1.75-2.625 1.75-1.7318 0-2.6068-0.56966-2.625-1.709v-15.832c0.018229-1.1302 0.88411-1.6999 2.5977-1.709h2.6523c5.8334 0 8.75 1.9733 8.75 5.9199 0 2.862-1.5267 4.6894-4.5801 5.4824 2.3425 3.0899 3.9785 4.7806 4.9082 5.0723 1.0208 0.31901 1.4902 1.0618 1.4082 2.2285-0.082032 1.1667-0.70637 1.9232-1.873 2.2695-2.0417 0.18229-3.8008-0.57421-5.2773-2.2695-1.3216-1.6224-2.4336-3.345-3.3359-5.168zm15.75-9.0918v2.9531h0.50586c1.9961-0.063802 2.9941-0.55598 2.9941-1.4766 0-0.98438-1.1667-1.4766-3.5-1.4766zm0 7.4102v2.9531c2.3333 0 3.5-0.49674 3.5-1.4902 0-0.91146-0.99804-1.3991-2.9941-1.4629h-0.50586zm-2.625 7.3965c-1.7318 0-2.6068-0.56966-2.625-1.709v-15.832c0.018229-1.1302 0.88411-1.6999 2.5977-1.709h2.6523c5.8334 0 8.75 1.9733 8.75 5.9199 0 1.5313-0.4375 2.7663-1.3125 3.7051 0.875 0.93881 1.3125 2.1693 1.3125 3.6914 0 3.9557-2.9166 5.9336-8.75 5.9336h-2.625zm21.875-8.75v-7c0-1.1667 0.87499-1.75 2.625-1.75s2.625 0.58333 2.625 1.75v7c0 5.8334-2.3333 8.75-7 8.75s-7-2.9166-7-8.75v-8.791c0.018229-1.1393 0.89322-1.709 2.625-1.709 1.75 0 2.625 0.58333 2.625 1.75v8.75c0 2.3333 0.58333 3.5 1.75 3.5s1.75-1.1667 1.75-3.5zm12.25 3.0352v3.9648c0 1.1667-0.87499 1.75-2.625 1.75-1.7318 0-2.6068-0.56966-2.625-1.709v-15.832c0.018229-1.1393 0.89322-1.709 2.625-1.709 1.75 0 2.625 0.58333 2.625 1.75v5.7148c0.90235-1.8229 2.0143-3.5456 3.3359-5.168 1.4766-1.6953 3.2357-2.4518 5.2773-2.2695 1.1667 0.34636 1.791 1.1029 1.873 2.2695 0.082032 1.1667-0.38736 1.9095-1.4082 2.2285s-2.8802 2.3105-5.5781 5.9746c2.6979 3.6641 4.5573 5.6556 5.5781 5.9746s1.4902 1.0618 1.4082 2.2285c-0.082032 1.1667-0.70637 1.9232-1.873 2.2695-2.0417 0.18229-3.8008-0.57421-5.2773-2.2695-1.3216-1.6224-2.4336-3.345-3.3359-5.168zm17.5-4.7852h3.5c0-2.3333-0.58333-3.5-1.75-3.5s-1.75 1.1667-1.75 3.5zm8.75 8.75c0 1.1667-0.87499 1.75-2.625 1.75s-2.625-0.58333-2.625-1.75v-3.5h-3.5v1.75c0 1.1667-0.87499 1.75-2.625 1.75-1.7318 0-2.6068-0.56966-2.625-1.709v-7.041c0-5.8334 2.3333-8.75 7-8.75s7 2.9166 7 8.75v8.75zm7-7c0 1.1667-0.87499 1.75-2.625 1.75-1.7318 0-2.6068-0.56966-2.625-1.709v-12.332c0.018229-1.1393 0.89322-1.709 2.625-1.709 1.75 0 2.625 0.58333 2.625 1.75v12.25zm-5.25 5.25c0-1.1667 0.58333-1.75 1.75-1.75h1.75c1.1667 0 1.75 0.58333 1.75 1.75v1.75c0 1.1667-0.58333 1.75-1.75 1.75h-1.75c-1.1667 0-1.75-0.58333-1.75-1.75v-1.75zm12.25-5.25c0 1.1667-0.87499 1.75-2.625 1.75-1.7318 0-2.6068-0.56966-2.625-1.709v-12.332c0.018229-1.1393 0.89322-1.709 2.625-1.709 1.75 0 2.625 0.58333 2.625 1.75v12.25zm-5.25 5.25c0-1.1667 0.58333-1.75 1.75-1.75h1.75c1.1667 0 1.75 0.58333 1.75 1.75v1.75c0 1.1667-0.58333 1.75-1.75 1.75h-1.75c-1.1667 0-1.75-0.58333-1.75-1.75v-1.75z" fill="#4F52A3"/>
<path d="m19.998 12.322c0.40104 0.21875 0.71094 0.41016 0.92969 0.57422s0.4375 0.36458 0.65625 0.60156c0.63802 0.90235 0.95703 1.9505 0.95703 3.1445 0 1.8776-0.68814 3.3861-2.0645 4.5254-1.4675 1.2214-3.5273 1.832-6.1797 1.832-2.224 0-4.0833-0.54231-5.5781-1.627-1.3125-0.94792-1.9688-1.9687-1.9688-3.0625 0-1.6589 1.0072-2.4883 3.0215-2.4883 0.73828 0 1.5085 0.32356 2.3105 0.9707 0.80209 0.63802 1.9414 0.95703 3.418 0.95703 1.1667 0 1.75-0.36914 1.75-1.1074 0-0.39193-0.87043-0.75195-2.6113-1.0801-0.2461-0.072917-0.78841-0.22331-1.627-0.45117-0.77474-0.20052-1.3991-0.37825-1.873-0.5332-1.6042-0.51953-2.7663-1.2122-3.4863-2.0781-0.62891-0.80209-0.94336-1.7454-0.94336-2.8301 0-1.75 0.68814-3.1536 2.0645-4.2109 1.4675-1.1393 3.5273-1.709 6.1797-1.709 2.224 0 4.0833 0.50585 5.5781 1.5176 1.3125 0.88412 1.9688 1.832 1.9688 2.8438 0 1.5495-1.0072 2.3242-3.0215 2.3242-0.73828 0-1.5085-0.30078-2.3105-0.90234-0.80209-0.60157-1.9414-0.90234-3.418-0.90234-1.1667 0.027344-1.75 0.38737-1.75 1.0801 0 0.36459 0.87043 0.68359 2.6113 0.95703 0.2461 0.072917 0.78841 0.21419 1.627 0.42383 0.77474 0.19141 1.3991 0.35547 1.873 0.49219 0.85678 0.26432 1.4857 0.51042 1.8867 0.73828zm18.252-8.5723c1.1667 0 1.75 0.87499 1.75 2.625s-0.58333 2.625-1.75 2.625h-7c-0.82943-0.027344-1.3626 0.55598-1.5996 1.75h6.8496c1.1667 0 1.75 0.87499 1.75 2.625 0 1.75-0.58333 2.625-1.75 2.625h-6.8496c0.23698 1.1667 0.77018 1.75 1.5996 1.75h7c1.1667 0 1.75 0.87499 1.75 2.625 0 1.75-0.58333 2.625-1.75 2.625h-7c-4.6667 0.027344-7-2.8756-7-8.709v-1.75c0-5.8607 2.3333-8.791 7-8.791h7zm8.75 17.5c0 1.1667-0.87499 1.75-2.625 1.75-1.7318 0-2.6068-0.56966-2.625-1.709v-19.332c0.018229-1.1393 0.89322-1.709 2.625-1.709 1.75 0 2.625 0.58333 2.625 1.75v19.25zm7-8.75h3.5c0-2.3333-0.58333-3.5-1.75-3.5s-1.75 1.1667-1.75 3.5zm8.75 8.75c0 1.1667-0.87499 1.75-2.625 1.75s-2.625-0.58333-2.625-1.75v-3.5h-3.5v1.75c0 1.1667-0.87499 1.75-2.625 1.75-1.7318 0-2.6068-0.56966-2.625-1.709v-7.041c0-5.8334 2.3333-8.75 7-8.75s7 2.9166 7 8.75v8.75zm20.125 0.875c-0.58334-1.75-0.875-4.9583-0.875-9.625 0-2.3333-0.58333-3.5-1.75-3.5s-1.75 1.1667-1.75 3.5v8.75c0 1.1667-0.87499 1.75-2.625 1.75s-2.625-0.58333-2.625-1.75v-8.75c0-2.3333-0.58333-3.5-1.75-3.5s-1.75 1.1667-1.75 3.5v7c0 1.1667-0.87499 1.75-2.625 1.75-1.7318 0-2.6068-0.56966-2.625-1.709v-7.041c0-5.8334 2.3333-8.75 7-8.75 1.8047 0 3.263 0.4375 4.375 1.3125 1.112-0.875 2.5703-1.3125 4.375-1.3125 4.6667 0 7 2.9166 7 8.75 0 4.6667 0.29166 7.5833 0.875 8.75s1.5677 1.9915 2.9531 2.4746c1.0208 0.31901 1.4902 1.0618 1.4082 2.2285-0.082032 1.1667-0.70637 1.9232-1.873 2.2695-2.0417 0.18229-3.7461-0.39192-5.1133-1.7227-1.1667-1.1667-2.0417-2.625-2.625-4.375zm11.375-9.625h3.5c0-2.3333-0.58333-3.5-1.75-3.5s-1.75 1.1667-1.75 3.5zm8.75 8.75c0 1.1667-0.87499 1.75-2.625 1.75-1.75 0-2.625-0.58333-2.625-1.75v-3.5h-3.5v1.75c0 1.1667-0.87499 1.75-2.625 1.75-1.7318 0-2.6068-0.56966-2.625-1.709v-7.041c0-5.8334 2.3333-8.75 7-8.75s7 2.9166 7 8.75v8.75zm12.25-12.25v14c0 1.1667-0.87499 1.75-2.625 1.75-1.7318 0-2.6068-0.56966-2.625-1.709v-14.041h-3.5c-1.1667 0-1.75-0.87499-1.75-2.625 0-1.7318 0.56966-2.6068 1.709-2.625h12.332c1.1393 0.018229 1.709 0.89322 1.709 2.625 0 1.75-0.58333 2.625-1.75 2.625h-3.5zm-109.38 29.193v2.9531h0.50586c1.9961-0.063802 2.9941-0.55598 2.9941-1.4766 0-0.98438-1.1667-1.4766-3.5-1.4766zm0 7.4102v2.9531c2.3333 0 3.5-0.49674 3.5-1.4902 0-0.91146-0.99804-1.3991-2.9941-1.4629h-0.50586zm-2.625 7.3965c-1.7318 0-2.6068-0.56966-2.625-1.709v-15.832c0.018229-1.1302 0.88411-1.6999 2.5977-1.709h2.6523c5.8334 0 8.75 1.9733 8.75 5.9199 0 1.5313-0.4375 2.7663-1.3125 3.7051 0.875 0.93881 1.3125 2.1693 1.3125 3.6914 0 3.9557-2.9166 5.9336-8.75 5.9336h-2.625zm27.125-19.25c1.1667 0 1.75 0.87499 1.75 2.625 0 1.75-0.58333 2.625-1.75 2.625h-7c-0.82943-0.027344-1.3626 0.55598-1.5996 1.75h6.8496c1.1667 0 1.75 0.87499 1.75 2.625 0 1.75-0.58333 2.625-1.75 2.625h-6.8496c0.23698 1.1667 0.77018 1.75 1.5996 1.75h7c1.1667 0 1.75 0.87499 1.75 2.625 0 1.75-0.58333 2.625-1.75 2.625h-7c-4.6667 0.027344-7-2.8756-7-8.709v-1.75c0-5.8607 2.3333-8.791 7-8.791h7zm8.75 4.4434v2.9668c2.3333 0 3.5-0.49446 3.5-1.4834s-1.1667-1.4834-3.5-1.4834zm0 9.0918v3.9648c0 1.1667-0.87499 1.75-2.625 1.75-1.7318 0-2.6068-0.56966-2.625-1.709v-15.832c0.018229-1.1302 0.88411-1.6999 2.5977-1.709h2.6523c5.8334 0 8.75 1.9733 8.75 5.9199 0 2.862-1.5267 4.6894-4.5801 5.4824 2.3425 3.0899 3.9785 4.7806 4.9082 5.0723 1.0208 0.31901 1.4902 1.0618 1.4082 2.2285-0.082032 1.1667-0.70637 1.9232-1.873 2.2695-2.0417 0.18229-3.8008-0.57421-5.2773-2.2695-1.3216-1.6224-2.4336-3.345-3.3359-5.168zm15.75-9.0918v2.9531h0.50586c1.9961-0.063802 2.9941-0.55598 2.9941-1.4766 0-0.98438-1.1667-1.4766-3.5-1.4766zm0 7.4102v2.9531c2.3333 0 3.5-0.49674 3.5-1.4902 0-0.91146-0.99804-1.3991-2.9941-1.4629h-0.50586zm-2.625 7.3965c-1.7318 0-2.6068-0.56966-2.625-1.709v-15.832c0.018229-1.1302 0.88411-1.6999 2.5977-1.709h2.6523c5.8334 0 8.75 1.9733 8.75 5.9199 0 1.5313-0.4375 2.7663-1.3125 3.7051 0.875 0.93881 1.3125 2.1693 1.3125 3.6914 0 3.9557-2.9166 5.9336-8.75 5.9336h-2.625zm21.875-8.75v-7c0-1.1667 0.87499-1.75 2.625-1.75s2.625 0.58333 2.625 1.75v7c0 5.8334-2.3333 8.75-7 8.75s-7-2.9166-7-8.75v-8.791c0.018229-1.1393 0.89322-1.709 2.625-1.709 1.75 0 2.625 0.58333 2.625 1.75v8.75c0 2.3333 0.58333 3.5 1.75 3.5s1.75-1.1667 1.75-3.5zm12.25 3.0352v3.9648c0 1.1667-0.87499 1.75-2.625 1.75-1.7318 0-2.6068-0.56966-2.625-1.709v-15.832c0.018229-1.1393 0.89322-1.709 2.625-1.709 1.75 0 2.625 0.58333 2.625 1.75v5.7148c0.90235-1.8229 2.0143-3.5456 3.3359-5.168 1.4766-1.6953 3.2357-2.4518 5.2773-2.2695 1.1667 0.34636 1.791 1.1029 1.873 2.2695 0.082032 1.1667-0.38736 1.9095-1.4082 2.2285s-2.8802 2.3105-5.5781 5.9746c2.6979 3.6641 4.5573 5.6556 5.5781 5.9746s1.4902 1.0618 1.4082 2.2285c-0.082032 1.1667-0.70637 1.9232-1.873 2.2695-2.0417 0.18229-3.8008-0.57421-5.2773-2.2695-1.3216-1.6224-2.4336-3.345-3.3359-5.168zm17.5-4.7852h3.5c0-2.3333-0.58333-3.5-1.75-3.5s-1.75 1.1667-1.75 3.5zm8.75 8.75c0 1.1667-0.87499 1.75-2.625 1.75s-2.625-0.58333-2.625-1.75v-3.5h-3.5v1.75c0 1.1667-0.87499 1.75-2.625 1.75-1.7318 0-2.6068-0.56966-2.625-1.709v-7.041c0-5.8334 2.3333-8.75 7-8.75s7 2.9166 7 8.75v8.75zm7-7c0 1.1667-0.87499 1.75-2.625 1.75-1.7318 0-2.6068-0.56966-2.625-1.709v-12.332c0.018229-1.1393 0.89322-1.709 2.625-1.709 1.75 0 2.625 0.58333 2.625 1.75v12.25zm-5.25 5.25c0-1.1667 0.58333-1.75 1.75-1.75h1.75c1.1667 0 1.75 0.58333 1.75 1.75v1.75c0 1.1667-0.58333 1.75-1.75 1.75h-1.75c-1.1667 0-1.75-0.58333-1.75-1.75v-1.75zm12.25-5.25c0 1.1667-0.87499 1.75-2.625 1.75-1.7318 0-2.6068-0.56966-2.625-1.709v-12.332c0.018229-1.1393 0.89322-1.709 2.625-1.709 1.75 0 2.625 0.58333 2.625 1.75v12.25zm-5.25 5.25c0-1.1667 0.58333-1.75 1.75-1.75h1.75c1.1667 0 1.75 0.58333 1.75 1.75v1.75c0 1.1667-0.58333 1.75-1.75 1.75h-1.75c-1.1667 0-1.75-0.58333-1.75-1.75v-1.75z" fill="#FFD278"/>
</g>
</g>
</g>
</svg>
