<?xml version="1.0" encoding="UTF-8"?>
<svg width="219px" height="598px" viewBox="0 0 219 598" version="1.1" xmlns="http://www.w3.org/2000/svg" xmlns:xlink="http://www.w3.org/1999/xlink">
    <!-- Generator: Sketch 52.5 (67469) - http://www.bohemiancoding.com/sketch -->
    <title>bg kanan</title>
    <desc>Created with Sketch.</desc>
    <defs>
        <polygon id="path-1" points="0 0.398786405 25.1080254 0.398786405 25.1080254 25.5122474 0 25.5122474"></polygon>
    </defs>
    <g id="ONBOARDING" stroke="none" stroke-width="1" fill="none" fill-rule="evenodd" opacity="0.15">
        <g id="onboarding-1b" transform="translate(-901.000000, -233.000000)">
            <g id="Bitmap" transform="translate(320.000000, 231.000000)">
                <g id="Group-47" transform="translate(581.000000, -35.000000)">
                    <g id="Group-39-Copy" transform="translate(0.000000, 170.000000)">
                        <path d="M193.824046,168.80941 C193.826207,168.591812 193.91193,168.375655 194.079053,168.212817 L198.437939,163.945873 C198.772905,163.618755 199.309572,163.62452 199.636614,163.959563 C199.964377,164.293166 199.958614,164.830677 199.623648,165.158515 L195.264762,169.424738 C194.930516,169.752576 194.393849,169.746092 194.066086,169.411769 C193.901845,169.244607 193.821885,169.026288 193.824046,168.80941" id="Fill-5" fill="#0073B9"></path>
                        <path d="M193.870797,164.496138 C193.872958,164.278539 193.958681,164.062382 194.125804,163.899544 C194.46005,163.571705 194.996717,163.577469 195.32448,163.911793 L199.589719,168.271683 C199.917482,168.606727 199.911719,169.143517 199.576753,169.471356 C199.242506,169.798474 198.705119,169.79343 198.378077,169.458386 L194.112838,165.098496 C193.948596,164.931334 193.868636,164.713015 193.870797,164.496138" id="Fill-7" fill="#0073B9"></path>
                        <path d="M123.155059,96.1173996 C123.15722,95.8998013 123.242943,95.6836441 123.410066,95.5208057 L127.768952,91.2538624 C128.103918,90.9267445 128.639864,90.9325087 128.967627,91.2675524 C129.29467,91.601155 129.289627,92.1386659 128.954661,92.4665044 L124.595775,96.7327271 C124.261529,97.0605655 123.724862,97.0540808 123.397099,96.7197576 C123.232858,96.5525961 123.152898,96.3342773 123.155059,96.1173996" id="Fill-9" fill="#0073B9"></path>
                        <path d="M123.201882,91.8041266 C123.204043,91.5872489 123.289766,91.3703712 123.456889,91.2075328 C123.791135,90.8796943 124.327802,90.8854585 124.655565,91.2197817 L128.920804,95.580393 C129.248567,95.9147162 129.242804,96.4515066 128.907838,96.779345 C128.573591,97.1064629 128.036204,97.1014192 127.709162,96.7663755 L123.443923,92.4064847 C123.279681,92.2393231 123.199721,92.0210044 123.201882,91.8041266" id="Fill-11" fill="#0073B9"></path>
                        <path d="M170.014919,192.484677 C170.017081,192.267079 170.102803,192.050921 170.269926,191.887362 L174.628812,187.62114 C174.963779,187.294022 175.500445,187.299786 175.827488,187.63483 C176.155251,187.968432 176.149488,188.505943 175.814521,188.833782 L171.455635,193.100004 C171.120669,193.427843 170.584723,193.421358 170.25696,193.087035 C170.092718,192.919873 170.012758,192.701555 170.014919,192.484677" id="Fill-17" fill="#0073B9"></path>
                        <path d="M170.061743,188.171404 C170.063904,187.953806 170.149626,187.737648 170.316749,187.57481 C170.650996,187.246972 171.187662,187.252736 171.515425,187.587059 L175.780664,191.94695 C176.108427,192.281993 176.102664,192.818784 175.767698,193.146622 C175.433452,193.47374 174.896785,193.468697 174.569022,193.133653 L170.303783,188.773762 C170.139541,188.6066 170.059582,188.388282 170.061743,188.171404" id="Fill-19" fill="#0073B9"></path>
                        <path d="M63.2570081,328.411172 C63.2598895,328.151784 63.36146,327.893116 63.5609991,327.697854 L70.3633391,321.040932 C70.7631378,320.648967 71.4049767,320.655452 71.7961311,321.056063 C72.1872855,321.455954 72.1808022,322.097941 71.7810036,322.489186 L64.9786635,329.146828 C64.5788649,329.538072 63.937026,329.531587 63.5458716,329.130976 C63.3499342,328.931391 63.2541266,328.669841 63.2570081,328.411172" id="Fill-29" fill="#0073B9"></path>
                        <path d="M63.3298362,321.68083 C63.3327177,321.421441 63.4342881,321.162773 63.6345477,320.967511 C64.0343463,320.575546 64.6761852,320.582751 65.0673396,320.982642 L71.723447,327.78655 C72.1146013,328.185721 72.1081181,328.828428 71.7075991,329.219672 C71.3078004,329.610917 70.6659615,329.603712 70.2748072,329.203821 L63.6186998,322.400633 C63.4227624,322.201048 63.3269548,321.939498 63.3298362,321.68083" id="Fill-31" fill="#0073B9"></path>
                        <g id="Group-95" transform="translate(7.203579, 67.729258)">
                            <g id="Group-74">
                                <mask id="mask-2" fill="white">
                                    <use xlink:href="#path-1"></use>
                                </mask>
                                <g id="Clip-73"></g>
                                <path d="M1.62109351,5.80237991 C1.32430604,5.87371179 1.14133512,6.17344978 1.21265056,6.47030568 L5.40225235,23.8904148 C5.47356779,24.1879913 5.77323669,24.3710044 6.0693038,24.2996725 L23.4868385,20.1083843 C23.7829056,20.0377729 23.9665969,19.7387555 23.8952814,19.4418996 L19.7056796,2.02034934 C19.6343642,1.72421397 19.3346953,1.54048035 19.0386282,1.61253275 L1.62109351,5.80237991 Z M23.7663374,21.2734716 L6.34952304,25.4633188 C5.41089664,25.6895633 4.46434631,25.1095415 4.23815391,24.1706987 L0.0485521253,6.749869 C-0.176919911,5.81174672 0.402968233,4.86353712 1.34087427,4.63873362 L18.7584089,0.447445415 C19.6970353,0.221921397 20.6435857,0.801943231 20.8697781,1.7400655 L25.0593799,19.1616157 C25.2848519,20.1004585 24.7049638,21.0472271 23.7663374,21.2734716 Z" id="Fill-72" fill="#0073B9" mask="url(#mask-2)"></path>
                            </g>
                            <path d="M8.14119732,23.8007096 L21.4145128,20.6073472 L16.9663025,2.11005459 L3.69298702,5.30413755 L8.14119732,23.8007096 Z M22.2767812,21.6312118 L7.83936734,25.1055786 C7.5180877,25.1826747 7.19464698,24.9852511 7.11756868,24.6631769 L2.38913915,5.00151747 C2.31206085,4.68016376 2.50943893,4.357369 2.83071857,4.2795524 L17.2681324,0.806626638 C17.5901324,0.728810044 17.9128528,0.926954148 17.9899311,1.24830786 L22.7183606,20.9092467 C22.7961593,21.231321 22.5980609,21.5548362 22.2767812,21.6312118 Z" id="Fill-75" fill="#0073B9"></path>
                            <path d="M3.97450291,8.99970524 L1.36464609,9.62728166 C1.04336644,9.70509825 0.719925727,9.50695415 0.642847427,9.18560044 C0.565769128,8.86424672 0.763147204,8.54073144 1.08442685,8.46363537 L3.69428367,7.83533843 C4.01628367,7.75752183 4.33900403,7.95638646 4.41680268,8.27774017 C4.49388098,8.59837336 4.29578255,8.92260917 3.97450291,8.99970524" id="Fill-77" fill="#0073B9"></path>
                            <path d="M4.9801226,13.1814105 L2.37026577,13.8097074 C2.04898613,13.8868035 1.72554541,13.6886594 1.64846711,13.3673057 C1.57138881,13.0466725 1.76876689,12.7224367 2.09076689,12.6453406 L4.69990336,12.0177642 C5.02190336,11.9399476 5.34462371,12.1380917 5.42242237,12.4594454 C5.49950067,12.7807991 5.30140224,13.1043144 4.9801226,13.1814105" id="Fill-79" fill="#0073B9"></path>
                            <path d="M5.98610246,17.3638362 L3.37624564,17.9914127 C3.054966,18.0692293 2.73152528,17.8710852 2.65444698,17.5497314 C2.57736868,17.2283777 2.77474676,16.9048624 3.0960264,16.8277664 L5.70588322,16.1994694 C6.02716286,16.1216528 6.35060358,16.3205175 6.42768188,16.6418712 C6.50548054,16.9625044 6.3073821,17.2867402 5.98610246,17.3638362" id="Fill-81" fill="#0073B9"></path>
                            <path d="M6.99172215,21.5455415 L4.38186532,22.1738384 C4.06058568,22.2509345 3.73714497,22.0527904 3.66006667,21.7314367 C3.58298837,21.4108035 3.78036644,21.0865677 4.10164609,21.0094716 L6.71150291,20.3818952 C7.03350291,20.3040786 7.35622327,20.5022227 7.43330157,20.8235764 C7.51110022,21.1449301 7.31300179,21.4684454 6.99172215,21.5455415" id="Fill-83" fill="#0073B9"></path>
                            <path d="M21.0056376,4.90172489 L18.4598926,5.51489083 C18.138613,5.5919869 17.8158926,5.39384279 17.738094,5.07176856 C17.6610157,4.75113537 17.8591141,4.42762009 18.1803937,4.34980349 L20.7254183,3.7380786 C21.0474183,3.66026201 21.3701387,3.85840611 21.4479374,4.17975983 C21.5250157,4.50111354 21.3269172,4.82462882 21.0056376,4.90172489" id="Fill-85" fill="#0073B9"></path>
                            <path d="M22.0112573,9.08415066 L19.4662327,9.69659607 C19.144953,9.77369214 18.8215123,9.57626856 18.7437136,9.25419432 C18.6666353,8.93284061 18.8647338,8.61004585 19.1860134,8.53222926 L21.731038,7.91978384 C22.053038,7.84196725 22.3757584,8.04083188 22.453557,8.36218559 C22.5306353,8.68281878 22.3325369,9.00705459 22.0112573,9.08415066" id="Fill-87" fill="#0073B9"></path>
                            <path d="M23.0172371,13.2658559 L20.4714922,13.8790218 C20.1502125,13.9561179 19.8267718,13.7579738 19.7496935,13.4358996 C19.6726152,13.1152664 19.8699933,12.7917511 20.1919933,12.7139345 L22.7370179,12.1022096 C23.0590179,12.024393 23.3817383,12.2225371 23.4588166,12.5438908 C23.5366152,12.8652445 23.3385168,13.1887598 23.0172371,13.2658559" id="Fill-89" fill="#0073B9"></path>
                            <path d="M24.0228568,17.4482096 L21.4771119,18.060655 C21.1558322,18.1377511 20.8323915,17.9403275 20.7553132,17.6182533 C20.6782349,17.2968996 20.875613,16.9741048 21.197613,16.8962882 L23.7426376,16.2838428 C24.0646376,16.2060262 24.3873579,16.4048908 24.4651566,16.7262445 C24.5422349,17.0475983 24.3441365,17.3711135 24.0228568,17.4482096" id="Fill-91" fill="#0073B9"></path>
                            <path d="M9.39094631,10.8931703 C9.34412304,10.9046987 9.30954586,10.929917 9.28865548,10.9493712 C9.2540783,10.9825153 9.1993311,11.0552882 9.22598434,11.1640873 L10.4044899,16.0658122 C10.4304228,16.1746114 10.5118233,16.2142402 10.5586465,16.2272096 C10.6047494,16.2416201 10.6940738,16.2524279 10.7754743,16.1753319 L14.4298501,12.7038472 C14.5112506,12.6260306 14.5047673,12.5359651 14.4932416,12.489131 C14.4817159,12.4415764 14.4471387,12.3587162 14.3398054,12.3270131 L9.50620358,10.8974934 C9.46226174,10.8838035 9.42336242,10.8852445 9.39094631,10.8931703 M10.954123,17.3966201 C10.7171253,17.4535415 10.465,17.4484978 10.2186376,17.3757249 C9.72591275,17.230179 9.36069128,16.8454192 9.2403915,16.3453755 L8.06188591,11.4443712 C7.94158613,10.9443275 8.09214094,10.434917 8.464566,10.0811397 C8.83699105,9.72808297 9.3534877,9.60343231 9.84549217,9.74897817 L14.679094,11.1784978 C15.1710984,11.3247642 15.5370403,11.709524 15.65734,12.2088472 C15.7776398,12.7088908 15.627085,13.2183013 15.25466,13.5720786 L11.6002841,17.0435633 C11.4137114,17.2200917 11.1918412,17.3396987 10.954123,17.3966201" id="Fill-93" fill="#0073B9"></path>
                        </g>
                        <g id="Group-22" transform="translate(77.078300, 131.855895)" fill="#0073B9">
                            <path d="M13.7457982,30.5096528 C13.9539817,30.0967926 14.2709391,29.7624694 14.6620935,29.5362249 C14.8004022,29.4562467 14.948796,29.3899585 15.1043933,29.3388013 C15.6986886,29.1435393 16.3340443,29.1903734 16.8923217,29.4720983 C18.0463351,30.0535611 18.5116864,31.4657882 17.9296371,32.6193472 C17.3475879,33.7729061 15.9364067,34.2390852 14.7831136,33.6569017 C14.2241159,33.3751769 13.8084694,32.8924258 13.612532,32.2979934 C13.4165946,31.7035611 13.4641383,31.068059 13.7457982,30.5096528 M14.1002143,35.0107664 C15.3060935,35.6188886 16.6819772,35.5331463 17.7711584,34.9034083 C18.4000309,34.5409847 18.9330957,33.9969891 19.2831897,33.3024039 C20.2419861,31.4016616 19.4755253,29.07581 17.575221,28.1182336 C16.6546036,27.6534956 15.6086438,27.575679 14.6296774,27.8984738 C13.650711,28.2212686 12.8561562,28.9057664 12.3922456,29.8265961 C11.9283351,30.7474258 11.8498161,31.7936266 12.1725365,32.7728188 C12.4952568,33.7520109 13.1795969,34.5474694 14.1002143,35.0107664" id="Fill-96"></path>
                            <path d="M31.9675405,3.56882751 L29.4823056,8.49937336 C29.3439969,8.77317249 29.0090304,8.88341266 28.7352944,8.74579258 L26.5108291,7.62393668 C26.3782832,7.55692795 26.2795942,7.44236463 26.2327709,7.30114192 C26.186668,7.15991921 26.1974734,7.00932969 26.2644667,6.87675328 L28.7497016,1.94620742 C28.8880103,1.6724083 29.2229767,1.56216812 29.4967128,1.69978821 L31.7211781,2.8216441 C31.9949141,2.95998472 32.1051289,3.29502838 31.9675405,3.56882751 Z M19.4412362,26.5866878 L17.6958089,25.7069279 L18.420489,24.268762 L20.1659163,25.1492424 L19.4412362,26.5866878 Z M25.3366456,10.5492642 L26.0613257,9.11181878 L27.806753,9.9915786 L27.0820729,11.4297445 L25.3366456,10.5492642 Z M22.7743324,19.9744389 L21.0296255,19.0939585 L21.6512944,17.8611419 L23.3967217,18.7409017 L22.7743324,19.9744389 Z M19.9526904,21.2303122 L20.5743593,19.9967751 L22.3190662,20.8765349 L21.6981177,22.1100721 L19.9526904,21.2303122 Z M20.6211826,24.2464258 L18.8757553,23.3666659 L19.4974242,22.1331288 L21.2428515,23.0128886 L20.6211826,24.2464258 Z M23.8512676,17.8380852 L22.1065606,16.9576048 L22.7282295,15.7247882 L24.4729365,16.604548 L23.8512676,17.8380852 Z M24.9282027,15.7017314 L23.1827754,14.8212511 L23.8044443,13.5884345 L25.5498716,14.4681943 L24.9282027,15.7017314 Z M26.0051378,13.5653777 L24.2597105,12.6856179 L24.8813794,11.4520808 L26.6268067,12.3318406 L26.0051378,13.5653777 Z M32.403357,1.46777948 L30.1796121,0.345923581 C29.1588649,-0.168530568 27.9104846,0.242888646 27.3954286,1.26387118 L24.9109141,6.19369651 C24.6609499,6.68797598 24.6198895,7.24998472 24.7927754,7.77596725 C24.8230304,7.86675328 24.8655315,7.94961354 24.9065919,8.03391485 L19.0652094,19.6221026 C15.286932,18.8338493 11.5727664,20.4319716 10.0088694,23.5359891 C9.82013557,23.9092205 9.97069038,24.3653122 10.3438358,24.5540895 C10.7177016,24.7428668 11.1736881,24.5922773 11.3624219,24.2183253 C12.5632586,21.8362729 15.3906635,20.5710328 18.3542161,21.0336092 L16.0008067,25.7011638 C15.8127933,26.0751157 15.9626277,26.5312074 16.3364935,26.7199847 L19.4354734,28.2828013 C19.6155629,28.3735873 19.823026,28.3887183 20.0139208,28.3253122 C20.0636255,28.3094607 20.1111691,28.287845 20.1558313,28.2619061 C20.2826143,28.1891332 20.3870662,28.0796135 20.4540595,27.9470371 L22.8103503,23.2722773 C24.9490931,25.3690022 25.6118224,28.3980852 24.4037821,30.7952686 C23.9377105,31.7204214 23.2468872,32.4791332 22.350762,33.0497882 C20.9417418,33.9482817 20.3971512,35.6969934 21.0267441,37.3008799 C21.9415987,39.6324956 21.8659611,42.0657052 20.8142385,44.1516223 C18.62363,48.4971026 12.8045785,50.0210109 7.84275302,47.547452 C2.86507964,45.0659672 0.570739597,39.4869498 2.72965235,35.1090459 C3.5011557,33.5455087 4.76394318,32.2874738 6.3804264,31.4725611 C6.75501253,31.2852249 6.90484698,30.8276921 6.71683356,30.4537402 C6.52809978,30.0797882 6.0721132,29.9299192 5.69824743,30.1186965 C3.78497673,31.0827576 2.28807293,32.5771245 1.36961655,34.4389585 C0.133482327,36.944941 0.0643279642,39.8328013 1.17439955,42.5707926 C2.2715047,45.2763603 4.39944206,47.5258362 7.16633691,48.9049192 C9.91954497,50.2767969 12.9861087,50.6183253 15.804149,49.8675393 C16.7370125,49.618238 17.6064846,49.2601376 18.3981579,48.8026048 C20.0261669,47.8630415 21.3256926,46.5070153 22.1677911,44.834679 C23.4168917,42.3575175 23.5126993,39.4855087 22.4379253,36.7475175 C22.0712631,35.8122773 22.3637284,34.8402904 23.1654868,34.3287183 C24.2791602,33.6197227 25.1752855,32.6333253 25.7573347,31.4776048 C26.5540506,29.8974956 26.7377418,28.1170808 26.2889588,26.3287402 C25.8682698,24.6528013 24.8849812,23.0712511 23.5206233,21.8629323 L29.3634465,10.2711419 C29.5946814,10.2279105 29.8201535,10.1594607 30.0240148,10.0420153 C30.3618626,9.8474738 30.6478447,9.55566157 30.8365785,9.18170961 L33.3210931,4.25188428 C33.836149,3.23090175 33.4241043,1.98223362 32.403357,1.46777948 Z" id="Fill-98"></path>
                            <path d="M7.53026174,39.4507795 C7.34152796,39.8247314 7.49208277,40.2801026 7.86594855,40.4688799 L13.4206286,43.2702773 C13.6576264,43.3898843 13.9277606,43.3733122 14.1417069,43.2493821 C14.2648881,43.1787707 14.3700604,43.0714127 14.4384944,42.9345131 C14.6272282,42.5605611 14.4773937,42.10519 14.103528,41.9164127 L8.54884787,39.1150153 C8.1749821,38.926238 7.71899553,39.076107 7.53026174,39.4507795" id="Fill-100"></path>
                            <path d="M9.16547427,28.7821965 C9.11072707,28.8578515 9.00483445,28.8758646 8.92847651,28.8211048 C8.87949217,28.7850786 8.86508501,28.7368035 8.86076286,28.7101441 C8.85644072,28.6842052 8.85427964,28.6337686 8.89029754,28.5847729 C8.90614541,28.5617162 8.92487472,28.5465852 8.94288367,28.5364978 C8.96521477,28.5242489 8.98610515,28.5184847 9.0005123,28.5156026 C9.02644519,28.5112795 9.07687025,28.5098384 9.1272953,28.5458646 C9.20293289,28.5999039 9.22022148,28.707262 9.16547427,28.7821965 M6.15581879,26.3734847 C6.991434,26.6386376 7.74132662,27.102655 8.36731767,27.7093362 C8.25422148,27.7849913 8.15265101,27.8793799 8.06980984,27.9932227 C7.88611857,28.2490087 7.81264206,28.5609956 7.86234676,28.872262 C7.91349217,29.1842489 8.08205593,29.4573275 8.337783,29.6410611 C8.72605593,29.921345 9.22886577,29.9299913 9.61929978,29.7044672 C9.75976957,29.6237686 9.88511186,29.5135284 9.98524161,29.3730262 C10.3252506,28.9018035 10.2632998,28.2634192 9.8707047,27.8613668 C9.86782327,27.8570437 9.86710291,27.852 9.86350112,27.8483974 L9.5126868,27.4369782 C8.95729083,26.7856245 8.28519687,26.2502751 7.53386353,25.856869 L8.00353691,25.6277424 C8.25350112,25.5052533 8.35867338,25.2033537 8.23621253,24.9526114 C8.11447204,24.7011485 7.8119217,24.5966725 7.56051678,24.7191616 L6.08810515,25.4368035 C5.9022528,25.5275895 5.78987696,25.722131 5.80500447,25.9282009 C5.82013199,26.1342707 5.95916107,26.3100786 6.15581879,26.3734847" id="Fill-102"></path>
                            <path d="M38.6132747,24.3521266 C38.5196282,24.3535677 38.4425499,24.2786332 38.4411092,24.1856856 C38.4396685,24.1222795 38.4742456,24.0660786 38.5261114,24.0358166 C38.5498832,24.0221266 38.5779772,24.0134803 38.6075119,24.0127598 C38.7011584,24.0113188 38.7782367,24.0869738 38.7796774,24.1799214 C38.7811181,24.2735895 38.7062009,24.3506856 38.6132747,24.3521266 M35.4559459,24.3535677 C35.4372166,24.3723013 35.3975969,24.4040044 35.3363664,24.4047249 C35.2434403,24.4068865 35.1656416,24.331952 35.1642009,24.2390044 C35.1634805,24.1748777 35.1980577,24.1186769 35.2492031,24.0891354 C35.2736953,24.0747249 35.3010689,24.0667991 35.3313239,24.0667991 C35.4242501,24.0646376 35.5020488,24.1395721 35.5034895,24.2332402 C35.5042098,24.2937642 35.4739548,24.3348341 35.4559459,24.3535677 M39.7917803,24.2332402 L39.722626,19.9662969 C39.7204649,19.8229127 39.6570734,19.6867336 39.5482993,19.593786 C39.4395253,19.4993974 39.2968944,19.4554454 39.1542635,19.4734585 L35.8831181,19.8855983 C35.6273911,19.9180218 35.4372166,20.1370611 35.4415387,20.3957293 L35.4847602,23.0695939 C35.4285723,23.0623886 35.3723843,23.0544629 35.3147557,23.0551834 C34.6642725,23.0659913 34.1427333,23.6042227 34.1535387,24.2548559 C34.1643441,24.9062096 34.7024515,25.4264279 35.3529347,25.4163406 C35.5560756,25.412738 35.7512926,25.3586987 35.9227378,25.2599869 C36.0171047,25.2052271 36.104268,25.1374978 36.1820667,25.0575197 C36.3693597,24.8636987 36.4774134,24.616559 36.502626,24.3528472 C36.5055074,24.3305109 36.5155924,24.3096157 36.514872,24.286559 L36.4594045,20.8316463 L38.7206081,20.5470393 L38.7609481,23.0162751 C38.7047602,23.0097904 38.6492926,23.0011441 38.591664,23.0018646 C37.9404604,23.013393 37.4196416,23.5509039 37.430447,24.2022576 C37.4412523,24.8521703 37.9786394,25.3738297 38.6291226,25.3630218 C38.8365857,25.3594192 39.0310823,25.3024978 39.1982054,25.2059476 C39.5187647,25.0214934 39.7334313,24.6871703 39.7737714,24.3038515 C39.7766528,24.2786332 39.7925007,24.259179 39.7917803,24.2332402" id="Fill-104"></path>
                            <path d="M16.0173029,8.76373362 C15.9949718,8.7781441 15.9488689,8.79975983 15.8890792,8.78679039 C15.8300098,8.77454148 15.7968734,8.73491266 15.7824662,8.71329694 C15.7687794,8.6909607 15.7471687,8.64484716 15.7594148,8.58576419 C15.7702201,8.53676856 15.8004752,8.49786026 15.8408152,8.47480349 C15.8761128,8.4539083 15.9186139,8.44670306 15.961115,8.45534934 C16.0526004,8.47552402 16.1109494,8.56631004 16.0914998,8.65781659 C16.077813,8.71689956 16.0389136,8.74932314 16.0173029,8.76373362 M15.3243186,11.9671834 C15.3012671,11.9815939 15.2558846,12.0032096 15.1960949,11.9909607 C15.1363051,11.9772707 15.103889,11.9383624 15.0894819,11.9167467 C15.0750747,11.895131 15.053464,11.8482969 15.0664304,11.7884934 C15.0765154,11.7402183 15.1074908,11.70131 15.1471105,11.6782533 C15.1824081,11.6580786 15.2249092,11.6501528 15.2674103,11.6595197 C15.3588957,11.6789738 15.4172447,11.7697598 15.3977951,11.8605459 C15.3848286,11.9203493 15.3459293,11.9534934 15.3243186,11.9671834 M11.5172268,10.8474891 L14.1306855,11.4131004 C14.1112358,11.4656987 14.0910658,11.5182969 14.0788197,11.5744978 C14.0118264,11.8828821 14.0687347,12.1991921 14.2394595,12.464345 C14.4109047,12.7294978 14.6738353,12.9117904 14.9821485,12.9787991 C15.2710121,13.0414847 15.5670792,12.9946507 15.8213655,12.8483843 C15.8379338,12.8382969 15.854502,12.8282096 15.8710702,12.8174017 C16.136162,12.6466376 16.3184125,12.3822052 16.3854058,12.0745415 C16.5129092,11.4851528 16.1721799,10.9072926 15.6160635,10.7149127 C15.5930121,10.7062664 15.5742828,10.6911354 15.550511,10.6860917 L15.482077,10.6709607 L15.4813566,10.6709607 L12.1741933,9.95475983 L12.4111911,7.68727074 L14.8243902,8.20893013 C14.8042201,8.26224891 14.7840501,8.31484716 14.771804,8.37176856 C14.7048107,8.68015284 14.7624394,8.99502183 14.9331642,9.26017467 C15.103889,9.52604803 15.36754,9.70906114 15.6758532,9.77462882 C15.9647168,9.83731441 16.2600635,9.79120087 16.5143499,9.6449345 C16.5309181,9.63484716 16.5482067,9.6240393 16.5647749,9.61395197 C16.8291463,9.44246725 17.0121172,9.17947598 17.0791105,8.8710917 C17.2066139,8.28170306 16.8651642,7.70312227 16.3090479,7.51074236 C16.2867168,7.50209607 16.2679875,7.48768559 16.2434953,7.48264192 L16.1750613,7.46751092 L12.0733432,6.57982533 C11.9335937,6.54956332 11.7859204,6.57982533 11.6699427,6.66412664 C11.5539651,6.74842795 11.4790479,6.87812227 11.4639204,7.02078603 L11.1217503,10.3006114 C11.0950971,10.5571179 11.2651016,10.7920087 11.5172268,10.8474891" id="Fill-106"></path>
                        </g>
                        <path d="M199.826429,126.179607 C199.60744,126.337402 199.340187,126.400087 199.073655,126.356135 C198.807122,126.312904 198.573726,126.167358 198.415968,125.949039 L198.124223,125.541223 L199.765198,124.362445 L200.057664,124.768821 C200.382545,125.22131 200.278813,125.854651 199.826429,126.179607 Z M185.008666,136.045022 C184.993538,136.086092 184.948156,136.106266 184.907816,136.091856 L165.077082,128.693515 C165.036742,128.679105 165.015851,128.632991 165.030979,128.593362 L176.138898,98.8025764 C176.154026,98.7615066 176.199409,98.7413319 176.239749,98.7557424 L196.070482,106.153362 C196.110822,106.169214 196.131713,106.213886 196.116585,106.254956 L193.553552,113.127314 L191.857829,110.766157 C191.847024,110.751747 191.830455,110.743821 191.81893,110.730131 C191.787234,110.691943 191.750496,110.661681 191.711596,110.629978 C191.671977,110.597555 191.633077,110.568013 191.587695,110.544956 C191.570406,110.53559 191.558881,110.520459 191.540872,110.512533 L188.402992,109.172358 C188.160232,109.067882 187.880013,109.100306 187.665346,109.254498 C187.450679,109.40941 187.33182,109.664476 187.353431,109.927467 L187.622124,113.329061 C187.623565,113.352118 187.63293,113.373013 187.637252,113.395349 C187.641574,113.422729 187.647337,113.447948 187.655261,113.474607 C187.676151,113.550262 187.707127,113.618712 187.748187,113.681397 C187.75467,113.690764 187.755391,113.702293 187.761153,113.710939 L191.432098,118.818734 L185.008666,136.045022 Z M189.023221,111.873603 L188.958388,111.053646 L189.714044,111.376441 L189.023221,111.873603 Z M189.430223,113.442183 L191.071198,112.262686 L198.88276,123.133231 L197.241784,124.31345 L189.430223,113.442183 Z M201.285153,123.886179 L194.61608,114.60583 L197.532809,106.7831 C197.838961,105.960983 197.419713,105.043755 196.598505,104.736812 L176.767771,97.3399127 C175.946563,97.03369 175.028827,97.4523144 174.722675,98.2744323 L163.614755,128.064498 C163.308603,128.886616 163.727851,129.803843 164.54906,130.110786 L184.379793,137.508406 C185.201001,137.813908 186.118737,137.395284 186.424889,136.573886 L192.493905,120.297249 L196.455153,125.809978 L197.188478,126.830961 C197.484545,127.24238 197.886505,127.547882 198.350415,127.721528 C198.503851,127.77917 198.664491,127.820961 198.829453,127.848341 C199.494344,127.95714 200.162115,127.800786 200.708867,127.40738 C201.838388,126.595349 202.096277,125.015961 201.285153,123.886179 Z" id="Fill-161" fill="#0073B9"></path>
                        <path d="M178.203012,105.181664 L181.604542,106.450507 C181.995697,106.596773 182.430793,106.397188 182.576305,106.006664 C182.722538,105.615419 182.523719,105.179502 182.132565,105.033956 L178.731034,103.765114 C178.33988,103.618847 177.904784,103.817712 177.758551,104.208956 C177.613039,104.600201 177.811858,105.036118 178.203012,105.181664" id="Fill-163" fill="#0073B9"></path>
                        <path d="M176.610373,109.453434 L185.554337,112.790181 C185.944771,112.935727 186.380587,112.736862 186.5261,112.345618 C186.672332,111.954373 186.472793,111.519177 186.081639,111.37291 L177.138395,108.036884 C176.747241,107.890618 176.312145,108.089483 176.165912,108.480727 C176.0204,108.871972 176.219218,109.307889 176.610373,109.453434" id="Fill-165" fill="#0073B9"></path>
                        <path d="M175.545612,112.308799 C175.154457,112.162533 174.719361,112.361397 174.573128,112.752642 C174.427616,113.143886 174.626435,113.579803 175.017589,113.725349 L187.19452,118.268253 C187.585674,118.413799 188.02077,118.214214 188.167003,117.822969 C188.312515,117.431725 188.113697,116.997249 187.722542,116.850983 L175.545612,112.308799 Z" id="Fill-167" fill="#0073B9"></path>
                        <path d="M186.130119,121.122537 L173.953188,116.579633 C173.562034,116.434087 173.126938,116.633672 172.980705,117.024917 C172.834472,117.415441 173.033291,117.850638 173.424446,117.996904 L185.602097,122.539808 C185.993251,122.685354 186.428347,122.486489 186.57458,122.095245 C186.720092,121.704 186.521273,121.268803 186.130119,121.122537" id="Fill-169" fill="#0073B9"></path>
                        <path d="M184.53748,125.39438 L172.360549,120.851476 C171.969395,120.70593 171.533578,120.904795 171.388066,121.296039 C171.241833,121.686563 171.440652,122.12248 171.831806,122.268747 L184.009457,126.81093 C184.400612,126.957197 184.835708,126.758332 184.98122,126.367087 C185.127453,125.975843 184.928634,125.539926 184.53748,125.39438" id="Fill-171" fill="#0073B9"></path>
                        <path d="M182.944768,129.666151 L170.767117,125.123247 C170.376683,124.977701 169.940867,125.177286 169.795354,125.568531 C169.649122,125.959055 169.84794,126.394251 170.239095,126.540517 L182.416746,131.082701 C182.8079,131.228967 183.242996,131.030103 183.388509,130.638858 C183.534741,130.247614 183.335202,129.811697 182.944768,129.666151" id="Fill-173" fill="#0073B9"></path>
                        <path d="M2.16290555,152.466602 C2.53677132,145.393218 16.0859838,155.933043 18.0655275,157.384178 C22.306995,160.496122 26.3734156,163.824222 30.3087311,167.312279 C31.3460465,168.233108 32.8804089,166.709921 31.8366102,165.784047 C25.526995,160.189899 18.8485566,154.9942 11.7710398,150.402301 C9.35784067,148.836602 6.47929034,147.017279 3.48332166,147.971973 C1.35754537,148.648545 0.117809352,150.276929 0.00183172296,152.466602 C-0.0716447871,153.857213 2.08942904,153.85289 2.16290555,152.466602" id="Fill-188" fill="#0073B9"></path>
                        <path d="M85.664102,86.2088253 C76.802979,84.3895022 67.9418559,82.568738 59.0814532,80.7486943 C57.7235785,80.4698515 57.14297,82.5528865 58.5066076,82.8324498 C67.3677306,84.653214 76.2288537,86.4732576 85.0899767,88.2940218 C86.4471311,88.5721441 87.0277396,86.4898297 85.664102,86.2088253" id="Fill-207" fill="#0073B9"></path>
                        <path d="M79.8794116,99.0079978 C76.5470358,98.9431507 73.2139396,98.8783035 69.8815638,98.8127358 C68.4898322,98.7860764 68.4898322,100.947648 69.8815638,100.974308 C73.2139396,101.039876 76.5470358,101.104723 79.8794116,101.16957 C81.2704228,101.19695 81.2704228,99.0353777 79.8794116,99.0079978" id="Fill-209" fill="#0073B9"></path>
                        <path d="M78.5301812,111.389194 C75.019877,113.490963 71.5102931,115.592011 68.0007092,117.693779 C66.8092371,118.407098 67.8940962,120.277579 69.0913311,119.560657 C72.6016353,117.458889 76.1112192,115.35712 79.6208031,113.256072 C80.8129955,112.542033 79.7274161,110.672273 78.5301812,111.389194" id="Fill-211" fill="#0073B9"></path>
                        <path d="M204.084176,221.950218 C195.348396,220.21952 186.756686,226.738821 186.057939,235.614956 C185.948445,237.001965 188.110239,236.99476 188.219013,235.614956 C188.803223,228.198603 196.218588,222.590044 203.510051,224.034694 C204.867926,224.30417 205.449255,222.220415 204.084176,221.950218" id="Fill-216" fill="#0073B9"></path>
                        <path d="M187.064711,215.923539 C188.847597,215.143212 190.629763,214.362884 192.412649,213.582557 C193.684081,213.026312 192.585535,211.163758 191.322027,211.715679 C189.539141,212.496007 187.756255,213.277055 185.974089,214.057382 C184.702658,214.613627 185.801924,216.476902 187.064711,215.923539" id="Fill-218" fill="#0073B9"></path>
                    </g>
                    <g id="Group-39-Copy-7" transform="translate(0.000000, 542.000000)" fill="#0073B9">
                        <path d="M123.155059,95.9185299 C123.15722,95.7013819 123.242943,95.4856719 123.410066,95.3231704 L127.768952,91.0650556 C128.103918,90.7386145 128.639864,90.7443668 128.967627,91.0787172 C129.29467,91.4116296 129.289627,91.9480284 128.954661,92.2751885 L124.595775,96.5325843 C124.261529,96.8597444 123.724862,96.8532731 123.397099,96.5196417 C123.232858,96.352826 123.152898,96.1349589 123.155059,95.9185299" id="Fill-9"></path>
                        <path d="M123.201882,91.6141813 C123.204043,91.3977523 123.289766,91.1813233 123.456889,91.0188218 C123.791135,90.6916616 124.327802,90.6974139 124.655565,91.0310453 L128.920804,95.3826344 C129.248567,95.7162659 129.242804,96.2519456 128.907838,96.5791057 C128.573591,96.9055468 128.036204,96.9005136 127.709162,96.5661631 L123.443923,92.2152931 C123.279681,92.0484773 123.199721,91.8306103 123.201882,91.6141813" id="Fill-11"></path>
                        <path d="M85.664102,86.0304568 C76.802979,84.2148979 67.9418559,82.3979009 59.0814532,80.581623 C57.7235785,80.3033571 57.14297,82.3820822 58.5066076,82.6610671 C67.3677306,84.478064 76.2288537,86.294342 85.0899767,88.111339 C86.4471311,88.3888858 87.0277396,86.3108798 85.664102,86.0304568" id="Fill-207"></path>
                    </g>
                    <g id="Group-38-Copy-2" transform="translate(72.000000, 0.000000)" fill="#0073B9">
                        <path d="M51.3730649,217.665274 C51.3759462,217.40574 51.4775108,217.146926 51.6777588,216.951553 L58.4789884,210.290879 C58.8787641,209.898693 59.5205662,209.905181 59.9116982,210.306019 C60.3028301,210.706135 60.2970675,211.347763 59.8965715,211.739228 L53.0946216,218.401344 C52.6948459,218.792809 52.0530438,218.786321 51.6619119,218.385484 C51.4659858,218.185786 51.3701836,217.924088 51.3730649,217.665274" id="Fill-1"></path>
                        <path d="M51.4458889,210.931209 C51.4487702,210.671674 51.5503348,210.41286 51.7505828,210.217488 C52.1503586,209.825302 52.7921607,209.832512 53.1832926,210.232628 L59.8390182,217.040372 C60.2301501,217.439767 60.2236673,218.082837 59.8231712,218.474302 C59.4233955,218.865767 58.7823137,218.858558 58.3904615,218.458442 L51.7347359,211.651419 C51.5395301,211.451 51.4430077,211.190023 51.4458889,210.931209" id="Fill-3"></path>
                        <path d="M113.174358,42.2651837 C113.176519,42.0474628 113.262237,41.8311837 113.42935,41.6675326 L117.787986,37.3989047 C118.122934,37.0716023 118.658849,37.0773698 118.986593,37.4118814 C119.313617,37.746393 119.308575,38.284207 118.973627,38.6122302 L114.614992,42.8808581 C114.280765,43.2088814 113.744129,43.202393 113.416385,42.8678814 C113.252153,42.7006256 113.172197,42.4821837 113.174358,42.2651837" id="Fill-13"></path>
                        <path d="M113.221107,37.9494791 C113.223268,37.7317581 113.308985,37.5154791 113.476099,37.3518279 C113.810326,37.0245256 114.346962,37.030293 114.674706,37.3648047 L118.939701,41.7271535 C119.267445,42.062386 119.261682,42.5994791 118.926735,42.9275023 C118.592508,43.2548047 118.055152,43.2497581 117.728128,42.9145256 L113.463133,38.5521767 C113.298901,38.3849209 113.218946,38.1664791 113.221107,37.9494791" id="Fill-15"></path>
                        <path d="M145.313517,158.274393 C145.315678,158.057393 145.400676,157.841114 145.568509,157.677463 L149.927145,153.408835 C150.261372,153.080812 150.798008,153.086579 151.125752,153.421812 C151.452776,153.756323 151.447013,154.294137 151.112787,154.62144 L146.754151,158.890067 C146.419203,159.218091 145.882568,159.212323 145.554823,158.877091 C145.391312,158.709835 145.311356,158.492114 145.313517,158.274393" id="Fill-21"></path>
                        <path d="M145.360338,153.958688 C145.362499,153.741688 145.447496,153.525409 145.61533,153.361758 C145.949557,153.034456 146.486193,153.040223 146.813937,153.374735 L151.078932,157.737084 C151.406676,158.072316 151.400193,158.609409 151.065966,158.936712 C150.731019,159.264735 150.194383,159.258967 149.867359,158.924456 L145.601644,154.561386 C145.438132,154.39413 145.358177,154.176409 145.360338,153.958688" id="Fill-23"></path>
                        <path d="M67.0231309,81.2728442 L65.5781757,81.6203326 L64.6626533,77.8094953 L66.9633446,77.2558209 L67.6728565,80.210193 C67.7866665,80.6831233 67.4949383,81.1596581 67.0231309,81.2728442 Z M39.3060675,87.9457744 C38.8342602,88.0589605 38.3581309,87.7677047 38.2443208,87.2954953 L37.534809,84.3411233 L39.8347799,83.7867279 L40.7510227,87.5975651 L39.3060675,87.9457744 Z M32.2275161,58.4914488 L33.6724712,58.1439605 L34.5879937,61.9547977 L32.2873024,62.509193 L31.5777905,59.5548209 C31.4639805,59.0826116 31.7557087,58.6060767 32.2275161,58.4914488 Z M59.9438591,51.8199605 C60.4163868,51.7053326 60.8925161,51.9980302 61.0056058,52.4702395 L61.715838,55.4246116 L59.4151467,55.978286 L58.4996243,52.1674488 L59.9438591,51.8199605 Z M63.0613894,71.1502628 L65.3628011,70.5965884 L66.5174686,75.4015884 L64.2167773,75.9559837 L63.0613894,71.1502628 Z M64.9169251,68.7430767 L62.6162338,69.2967512 L61.4615662,64.4917512 L63.7622575,63.9373558 L64.9169251,68.7430767 Z M63.3163815,62.0838442 L61.0156902,62.6375186 L59.8610227,57.8317977 L62.161714,57.2781233 L63.3163815,62.0838442 Z M32.7331784,64.3627047 L35.0338697,63.8090302 L36.1885372,68.6140302 L33.8878459,69.1684256 L32.7331784,64.3627047 Z M34.3337219,71.0219372 L36.6344132,70.4682628 L37.7890807,75.2739837 L35.4883894,75.8276581 L34.3337219,71.0219372 Z M35.9335451,77.6818907 L38.2349567,77.1274953 L39.3896243,81.9332163 L37.088933,82.4876116 L35.9335451,77.6818907 Z M42.603677,87.1520302 L41.4951098,82.5395186 C41.4907879,82.4962628 41.4871863,82.4544488 41.4771018,82.411193 C41.4670174,82.3686581 41.4504501,82.329007 41.4346032,82.2886349 L39.8938459,75.880286 C39.8902443,75.8370302 39.8873631,75.7944953 39.8765583,75.7519605 C39.8664739,75.7087047 39.8499066,75.6697744 39.8340596,75.6301233 L38.2940227,69.2203326 C38.2889805,69.1777977 38.2860992,69.1352628 38.2760148,69.092007 C38.2659303,69.0494721 38.2493631,69.0105419 38.2335161,68.9708907 L36.6934792,62.5611 C36.6891573,62.5185651 36.686276,62.4760302 36.6761916,62.4327744 C36.6653868,62.3902395 36.6488195,62.3513093 36.6329726,62.3109372 L35.5244053,57.6984256 L56.6469699,52.6129837 L63.7255214,82.0673093 L53.1649594,84.6093093 L42.603677,87.1520302 Z M69.5255108,79.7639372 L62.8582602,52.0239837 C62.4988222,50.5287744 60.9919198,49.6059837 59.4987034,49.965007 L57.1281414,50.5359837 L57.1274211,50.5359837 L45.6405319,53.3014721 L31.7816401,56.6379372 C30.2884237,56.9976814 29.3656982,58.5058674 29.7251361,60.0003558 L36.3923868,87.7410302 C36.7518248,89.2355186 38.2587272,90.1590302 39.7519435,89.799286 L42.1225055,89.2283093 L53.610115,86.4628209 L67.4690069,83.1263558 C68.9615029,82.7673326 69.8842285,81.2584256 69.5255108,79.7639372 Z" id="Fill-68"></path>
                        <path d="M52.6108198,69.4810209 L46.7957037,75.009114 C46.6660467,75.132393 46.523424,75.1136488 46.4492314,75.0920209 C46.3757591,75.070393 46.2468224,75.008393 46.2043237,74.8346488 L44.3286193,67.0298581 C44.2868409,66.855393 44.3739992,66.7407651 44.4301839,66.6881372 C44.4625982,66.6571372 44.5173422,66.6153233 44.5922551,66.5980209 C44.6441179,66.5850442 44.7053449,66.5836023 44.7759359,66.6052302 L52.4667565,68.881207 C52.6381918,68.9316721 52.6936562,69.0650442 52.7116641,69.1393 C52.729672,69.2142767 52.7404768,69.3577419 52.6108198,69.4810209 M54.5635982,68.6937651 C54.3727142,67.8985791 53.7906984,67.2850674 53.0069939,67.0529279 L45.3161734,64.7769512 C44.5324689,64.5440907 43.7105876,64.7423465 43.117767,65.305393 C42.5249464,65.8684395 42.2858013,66.680207 42.4766852,67.475393 L44.3523897,75.2801837 C44.5432736,76.0753698 45.1252894,76.6888814 45.9089939,76.9203 C46.3015665,77.0363698 46.7027828,77.0450209 47.0802288,76.9541837 C47.4576747,76.8633465 47.8113501,76.6737419 48.1074003,76.3918581 L53.9225164,70.8637651 C54.5153369,70.2999977 54.7552024,69.4889512 54.5635982,68.6937651" id="Fill-70"></path>
                        <g id="Group-36" transform="translate(78.335092, 144.186047)">
                            <path d="M35.1434557,11.4292674 L31.4503923,24.7722442 C31.1262499,25.942314 29.911796,26.6308023 28.7427222,26.3063837 L3.13330528,19.2059419 C1.96351108,18.8815233 1.27632902,17.665314 1.6004715,16.4959651 L5.29353483,3.1537093 C5.61695699,1.9829186 6.83141082,1.29443023 8.0004847,1.61956977 L33.6106219,8.72001163 C34.7796958,9.0437093 35.4675982,10.2599186 35.1434557,11.4292674 Z M29.8642551,5.59622093 L32.5856113,6.35103488 L32.4357855,6.89245349 L29.7144293,6.13763953 L29.8642551,5.59622093 Z M33.9967116,7.32573256 L33.8295982,7.27887209 L34.0586588,6.45268605 C34.2279332,5.84061628 33.8677749,5.20475581 33.2562261,5.03533721 L29.9665401,4.12263953 C29.354271,3.95322093 28.719672,4.31296512 28.5496773,4.92575581 L28.3213369,5.75194186 L8.38657441,0.224569767 C6.44964301,-0.312523256 4.43635805,0.827988372 3.89972216,2.76656977 L0.206658839,16.1095465 C-0.329977045,18.0488488 0.809563852,20.0638488 2.74649525,20.6002209 L28.3566325,27.7006628 C30.2942842,28.2377558 32.3068488,27.0972442 32.8434847,25.1586628 L36.5372683,11.815686 C37.0739042,9.87710465 35.9343633,7.86282558 33.9967116,7.32573256 Z" id="Fill-151"></path>
                            <path d="M23.537138,15.3950326 C22.7483913,18.2455907 19.7893306,19.9224744 16.9404784,19.1330558 C14.0923464,18.3429163 12.41689,15.380614 13.206357,12.5300558 C13.9951037,9.67949767 16.9541644,8.00333488 19.8030166,8.79275349 C22.6511485,9.58217209 24.326605,12.5444744 23.537138,15.3950326 M20.1891063,7.39775349 C16.5723966,6.39566047 12.8145047,8.52456744 11.8132646,12.1443581 C10.8113042,15.7641488 12.9383992,19.5245209 16.555109,20.5273349 C20.1710984,21.5301488 23.9289902,19.4012419 24.9309507,15.7814512 C25.9329111,12.1616605 23.8058161,8.40128837 20.1891063,7.39775349" id="Fill-153"></path>
                            <path d="M21.1715462,14.738914 C20.7436781,16.2845884 19.1402533,17.1922395 17.5966148,16.7647279 C16.0529763,16.3364953 15.144657,14.7309837 15.5725251,13.1867512 C15.9996728,11.6417977 17.6038179,10.7327047 19.1474565,11.1609372 C20.691095,11.5891698 21.5994142,13.1932395 21.1715462,14.738914 M19.5335462,9.76665814 C17.2213298,9.12503023 14.8197942,10.4861465 14.1787124,12.8003326 C13.5383509,15.1145186 14.8983087,17.5181 17.2098047,18.159007 C19.5220211,18.8006349 21.924277,17.4395186 22.5653588,15.1253326 C23.2057203,12.8111465 21.8457625,10.4068442 19.5335462,9.76665814" id="Fill-155"></path>
                            <path d="M10.2028528,3.63348837 L7.60755198,2.914 C7.2229029,2.80730233 6.82456781,3.03295349 6.71796095,3.41793023 C6.61135409,3.80290698 6.83681319,4.2015814 7.22146227,4.309 L9.81676306,5.02848837 C10.2021325,5.13518605 10.5997472,4.90953488 10.7063541,4.52383721 C10.8136813,4.13886047 10.5875018,3.74018605 10.2028528,3.63348837" id="Fill-157"></path>
                            <path d="M18.5565087,13.2956116 C18.1884269,13.1932395 17.8066591,13.4087977 17.7050945,13.777914 C17.6028095,14.1470302 17.8189045,14.5284023 18.1869863,14.6300535 C18.5557884,14.7324256 18.9368359,14.5161465 19.0384005,14.1477512 C19.1406855,13.7793558 18.9245905,13.3979837 18.5565087,13.2956116" id="Fill-159"></path>
                        </g>
                        <path d="M78.4725288,124.609619 C81.3105763,121.843409 83.7776607,118.762874 85.8658586,115.393247 C86.6005815,114.206595 84.7313599,113.119433 83.9995182,114.301758 C82.0064021,117.518549 79.653848,120.439758 76.9447372,123.079805 C75.9463784,124.05306 77.4748902,125.581433 78.4725288,124.609619" id="Fill-175"></path>
                        <path d="M24.7055029,126.162719 C21.7644501,132.015951 18.3328617,137.551253 14.3992127,142.788091 C13.5636454,143.901207 15.4393499,144.979719 16.265553,143.879579 C20.1992021,138.643463 23.6307905,133.10744 26.571123,127.254928 C27.1949172,126.014207 25.3307377,124.917672 24.7055029,126.162719" id="Fill-194"></path>
                        <g id="Group-200" transform="translate(89.139842, 212.275023)">
                            <path d="M91.0467966,5.39162093 C81.7150947,17.9451791 63.9751369,22.7040395 49.0631422,19.5852953 C32.4699285,16.1161791 16.3182689,10.453993 2.26777282,0.844713953 C1.11598654,0.0581790698 0.0340709763,1.93115581 1.17649314,2.71264419 C9.14679657,8.16359767 17.6782266,12.5216209 26.8183243,15.6367605 C34.7749417,18.3496209 43.352472,21.0920395 51.6995011,22.2174116 C66.8283111,24.2562023 83.6001633,19.010714 92.9124166,6.4831093 C93.743662,5.36566744 91.8686778,4.28643488 91.0467966,5.39162093" id="Fill-196"></path>
                            <path d="M64.8287842,32.9447093 C41.960172,34.3548488 20.6532063,26.0439651 2.10577361,13.139314 C0.961190501,12.343407 -0.120004749,14.2163837 1.01521425,15.0065233 C19.847172,28.1087093 41.6173013,36.5385465 64.8287842,35.1075 C66.2103515,35.0224302 66.2197156,32.8596395 64.8287842,32.9447093" id="Fill-198"></path>
                        </g>
                        <path d="M24.3570137,143.829763 C19.7988501,150.643995 13.5601879,155.842623 6.08330132,159.179809 C4.81554406,159.74574 5.9133066,161.610065 7.17386069,161.04774 C14.9900164,157.558437 21.4656628,152.033949 26.2226338,144.921251 C26.9984148,143.761274 25.1277525,142.676995 24.3570137,143.829763" id="Fill-201"></path>
                        <path d="M142.517753,55.0624163 C145.777185,59.4002535 149.037338,63.7373698 152.297491,68.075207 C153.122974,69.1739047 155.000119,68.0968349 154.163111,66.9837186 C150.903679,62.6466023 147.643526,58.3087651 144.383373,53.9709279 C143.55789,52.8722302 141.680745,53.9485791 142.517753,55.0624163" id="Fill-205"></path>
                    </g>
                    <g id="Group-38-Copy-6" transform="translate(25.000000, 376.000000)" fill="#0073B9">
                        <path d="M98.6834391,217.175708 C98.6862602,216.917612 98.7857052,216.660233 98.9817739,216.465944 L105.641058,209.842198 C106.032491,209.452186 106.660898,209.458639 107.043867,209.857254 C107.426836,210.255152 107.421193,210.893222 107.029056,211.282517 L100.369066,217.907697 C99.9776339,218.296991 99.3492265,218.290539 98.9662577,217.891924 C98.7744206,217.693334 98.6806179,217.433087 98.6834391,217.175708" id="Fill-1"></path>
                        <path d="M98.6834397,210.53523 C98.6863082,210.281394 98.7874238,210.028262 98.9867864,209.83718 C99.3847945,209.453605 100.023759,209.460656 100.413161,209.851987 L107.039459,216.510258 C107.428861,216.900884 107.422407,217.529834 107.023682,217.912704 C106.625674,218.295574 105.987426,218.288523 105.597307,217.897192 L98.9710095,211.239626 C98.7766668,211.043608 98.6805711,210.788361 98.6834397,210.53523" id="Fill-3"></path>
                        <path d="M159.910331,42.3787478 C159.912388,42.1685003 159.993977,41.9596452 160.153043,41.8016115 L164.30178,37.6795078 C164.620597,37.3634404 165.130705,37.3690099 165.442666,37.6920391 C165.753941,38.0150683 165.749141,38.5344214 165.430324,38.851185 L161.281587,42.9732887 C160.963456,43.2900522 160.452663,43.2837866 160.140702,42.9607574 C159.984379,42.7992427 159.908274,42.5882991 159.910331,42.3787478" id="Fill-13"></path>
                        <path d="M159.910331,37.5239913 C159.912421,37.3169954 159.995288,37.1113704 160.156846,36.9557808 C160.47996,36.6446016 160.998754,36.6500849 161.315602,36.9681183 L165.438796,41.1155749 C165.755643,41.4342937 165.750072,41.9449292 165.426261,42.2567938 C165.103146,42.567973 164.583656,42.5631751 164.267505,42.2444563 L160.144311,38.0969997 C159.985539,37.937983 159.908242,37.7303017 159.910331,37.5239913" id="Fill-15"></path>
                        <path d="M192.324579,157.597161 C192.326636,157.387613 192.407544,157.178761 192.567302,157.02073 L196.716221,152.898685 C197.034367,152.581926 197.545182,152.587496 197.857157,152.911216 C198.168446,153.234241 198.162961,153.753587 197.844815,154.069649 L193.695896,158.191694 C193.377065,158.508453 192.866249,158.502883 192.554274,158.179163 C192.39863,158.01765 192.322522,157.807406 192.324579,157.597161" id="Fill-21"></path>
                        <path d="M192.324579,153.462129 C192.326669,153.255806 192.408844,153.050169 192.571105,152.89457 C192.894234,152.583372 193.413051,152.588856 193.729913,152.906908 L197.853291,157.054612 C198.170152,157.373349 198.163884,157.884015 197.840755,158.195213 C197.51693,158.507096 196.998113,158.501612 196.681948,158.18356 L192.557873,154.035171 C192.399791,153.876145 192.32249,153.669137 192.324579,153.462129" id="Fill-23"></path>
                        <path d="M143.666331,80.7727192 L142.233599,81.1168788 L141.325822,77.3425474 L143.60705,76.7941769 L144.31056,79.7202477 C144.423407,80.1886475 144.134147,80.6606174 143.666331,80.7727192 Z M116.183741,87.3817262 C115.715925,87.493828 115.243824,87.2053622 115.130976,86.7376765 L114.427467,83.8116057 L116.707981,83.2625212 L117.616473,87.0368526 L116.183741,87.3817262 Z M109.165071,58.2095578 L110.597803,57.8653982 L111.50558,61.6397295 L109.224352,62.1888141 L108.520842,59.2627433 C108.407995,58.7950575 108.697255,58.3230876 109.165071,58.2095578 Z M136.646946,51.6019788 C137.115477,51.488449 137.587578,51.7783428 137.699711,52.2460286 L138.403935,55.1720993 L136.122707,55.7204698 L135.214929,51.9461384 L136.646946,51.6019788 Z M139.738104,70.7471069 L142.020046,70.1987364 L143.164946,74.9577069 L140.883718,75.5067915 L139.738104,70.7471069 Z M141.577942,68.3629804 L139.296714,68.9113509 L138.151814,64.1523803 L140.433043,63.6032958 L141.577942,68.3629804 Z M139.990939,61.7675399 L137.70971,62.3159104 L136.564811,57.5562257 L138.846039,57.0078552 L139.990939,61.7675399 Z M109.666456,64.02457 L111.947684,63.4761995 L113.092584,68.2351701 L110.811355,68.7842546 L109.666456,64.02457 Z M111.253459,70.6200106 L113.534688,70.0716401 L114.679587,74.8313247 L112.398359,75.3796952 L111.253459,70.6200106 Z M112.839749,77.2161652 L115.121691,76.6670806 L116.266591,81.4267652 L113.985363,81.9758498 L112.839749,77.2161652 Z M119.453454,86.5955857 L118.354265,82.0272595 C118.34998,81.9844181 118.346409,81.9430047 118.336409,81.9001632 C118.32641,81.8580358 118.309983,81.8187645 118.29427,81.7787791 L116.766547,75.4318189 C116.762976,75.3889775 116.760119,75.3468501 116.749406,75.3047227 C116.739407,75.2618812 116.72298,75.2233239 116.707267,75.1840526 L115.180258,68.8356644 C115.175258,68.7935369 115.172401,68.7514095 115.162402,68.7085681 C115.152403,68.6664407 115.135976,68.6278834 115.120263,68.588612 L113.593254,62.2402238 C113.588969,62.1980964 113.586112,62.155969 113.576113,62.1131275 C113.565399,62.0710001 113.548972,62.0324428 113.533259,61.9924574 L112.43407,57.4241313 L133.377947,52.3874053 L140.396617,81.5595737 L129.925393,84.0772227 L119.453454,86.5955857 Z M146.147542,79.2782667 L139.536693,51.8040476 C139.180296,50.3231617 137.686141,49.4092108 136.205556,49.7647948 L133.855048,50.3303019 L133.854334,50.3303019 L122.464619,53.0692983 L108.722967,56.3738018 C107.242383,56.7300999 106.327463,58.2238383 106.68386,59.7040102 L113.294709,87.1789433 C113.651106,88.6591153 115.145261,89.5737802 116.625845,89.2174821 L118.976353,88.6519751 L130.366783,85.9129786 L144.108435,82.6084751 C145.588305,82.2528911 146.503225,80.7584387 146.147542,79.2782667 Z" id="Fill-68"></path>
                        <path d="M129.795613,69.5742901 L123.966521,75.0609708 C123.836553,75.1833263 123.693587,75.1647225 123.619216,75.1432567 C123.545567,75.1217908 123.416321,75.0602552 123.37372,74.8878126 L121.493508,67.1414895 C121.451629,66.9683314 121.538997,66.8545622 121.595316,66.8023285 C121.627808,66.7715608 121.682684,66.73006 121.757777,66.7128873 C121.809765,66.7000078 121.871139,66.6985767 121.941899,66.7200426 L129.651204,68.9789695 C129.823051,69.0290565 129.878649,69.1614295 129.8967,69.235129 C129.914751,69.3095441 129.925582,69.4519345 129.795613,69.5742901 M131.753085,68.7929318 C131.561742,68.0037027 130.978328,67.394787 130.19274,67.1643865 L122.483435,64.9054597 C121.697847,64.6743436 120.873991,64.8711142 120.279745,65.4299428 C119.6855,65.9887714 119.44578,66.7944577 119.637123,67.5836868 L121.517335,75.3300099 C121.708678,76.119239 122.292092,76.7281546 123.077681,76.9578396 C123.471197,77.0730399 123.873377,77.0816262 124.25173,76.9914695 C124.630083,76.9013128 124.984609,76.7131285 125.28137,76.4333565 L131.110463,70.9466758 C131.704708,70.3871316 131.94515,69.5821609 131.753085,68.7929318" id="Fill-70"></path>
                        <g id="Group-36" transform="translate(125.335092, 144.023324)">
                            <path d="M35.1434557,11.4163688 L31.4503923,24.7442872 C31.1262499,25.9130364 29.911796,26.6007478 28.7427222,26.2766953 L3.13330528,19.1842668 C1.96351108,18.8602143 1.27632902,17.6453776 1.6004715,16.4773484 L5.29353483,3.15015015 C5.61695699,1.98068076 6.83141082,1.29296939 8.0004847,1.61774198 L33.6106219,8.71017055 C34.7796958,9.03350292 35.4675982,10.2483397 35.1434557,11.4163688 Z M29.8642551,5.58990525 L32.5856113,6.34386735 L32.4357855,6.88467493 L29.7144293,6.13071283 L29.8642551,5.58990525 Z M33.9967116,7.31746501 L33.8295982,7.27065743 L34.0586588,6.44540379 C34.2279332,5.83402478 33.8677749,5.19888192 33.2562261,5.02965452 L29.9665401,4.11798688 C29.354271,3.94875948 28.719672,4.30809767 28.5496773,4.92019679 L28.3213369,5.74545044 L8.38657441,0.224316327 C6.44964301,-0.312170554 4.43635805,0.827053936 3.89972216,2.76344752 L0.206658839,16.0913659 C-0.329977045,18.0284796 0.809563852,20.0412055 2.74649525,20.5769723 L28.3566325,27.6694009 C30.2942842,28.2058878 32.3068488,27.0666633 32.8434847,25.1302697 L36.5372683,11.8023513 C37.0739042,9.86595773 35.9343633,7.8539519 33.9967116,7.31746501 Z" id="Fill-151"></path>
                            <path d="M23.537138,15.3776583 C22.7483913,18.2249994 19.7893306,19.8999907 16.9404784,19.111463 C14.0923464,18.3222152 12.41689,15.363256 13.206357,12.5159149 C13.9951037,9.66857376 16.9541644,7.99430262 19.8030166,8.78283032 C22.6511485,9.57135802 24.326605,12.5303172 23.537138,15.3776583 M20.1891063,7.38940466 C16.5723966,6.38844257 12.8145047,8.51494694 11.8132646,12.1306525 C10.8113042,15.746358 12.9383992,19.5024863 16.555109,20.5041685 C20.1710984,21.5058507 23.9289902,19.3793464 24.9309507,15.7636408 C25.9329111,12.1479353 23.8058161,8.391807 20.1891063,7.38940466" id="Fill-153"></path>
                            <path d="M21.1715462,14.7222802 C20.7436781,16.2662102 19.1402533,17.172837 17.5966148,16.7458079 C16.0529763,16.3180586 15.144657,14.7143589 15.5725251,13.1718691 C15.9996728,11.6286592 17.6038179,10.7205921 19.1474565,11.1483414 C20.691095,11.5760907 21.5994142,13.1783501 21.1715462,14.7222802 M19.5335462,9.75563586 C17.2213298,9.11473207 14.8197942,10.4743122 14.1787124,12.7858866 C13.5383509,15.0974609 14.8983087,17.4983297 17.2098047,18.1385134 C19.5220211,18.7794172 21.924277,17.419837 22.5653588,15.1082627 C23.2057203,12.7966883 21.8457625,10.3950994 19.5335462,9.75563586" id="Fill-155"></path>
                            <path d="M10.2028528,3.62938776 L7.60755198,2.91071137 C7.2229029,2.80413411 6.82456781,3.02953061 6.71796095,3.41407289 C6.61135409,3.79861516 6.83681319,4.19683965 7.22146227,4.30413703 L9.81676306,5.02281341 C10.2021325,5.12939067 10.5997472,4.90399417 10.7063541,4.51873178 C10.8136813,4.1341895 10.5875018,3.73596501 10.2028528,3.62938776" id="Fill-157"></path>
                            <path d="M18.5565087,13.2806067 C18.1884269,13.1783501 17.8066591,13.393665 17.7050945,13.7623647 C17.6028095,14.1310644 17.8189045,14.5120061 18.1869863,14.6135426 C18.5557884,14.7157991 18.9368359,14.4997641 19.0384005,14.1317845 C19.1406855,13.763805 18.9245905,13.3828633 18.5565087,13.2806067" id="Fill-159"></path>
                        </g>
                        <path d="M125.737454,124.278259 C128.560405,121.593382 131.014367,118.60342 133.091457,115.332865 C133.822272,114.181104 131.962993,113.125906 131.235044,114.273469 C129.25253,117.39568 126.91249,120.231 124.217789,122.793425 C123.224741,123.738065 124.745122,125.2215 125.737454,124.278259" id="Fill-175"></path>
                        <path d="M71.5224953,125.84852 C68.6430935,131.70113 65.2834389,137.235844 61.4322478,142.472124 C60.6141959,143.585122 62.4505814,144.663519 63.2594655,143.563497 C67.1106566,138.327937 70.4703113,132.792503 73.3490078,126.940613 C73.9597259,125.700024 72.1346238,124.603606 71.5224953,125.84852" id="Fill-194"></path>
                        <g id="Group-200" transform="translate(136.139842, 211.714286)">
                            <path d="M91.0467966,5.38553615 C81.7150947,17.9249268 63.9751369,22.6784166 49.0631422,19.5631921 C32.4699285,16.097991 16.3182689,10.442195 2.26777282,0.843760641 C1.11598654,0.0581134111 0.0340709763,1.92897638 1.17649314,2.7095828 C9.14679657,8.15438455 17.6782266,12.5074895 26.8183243,15.6191134 C34.7749417,18.3289122 43.352472,21.0682359 51.6995011,22.1923379 C66.8283111,24.2288277 83.6001633,18.9892592 92.9124166,6.47579271 C93.743662,5.35961195 91.8686778,4.28159738 91.0467966,5.38553615" id="Fill-196"></path>
                            <path d="M64.8287842,32.9075292 C41.960172,34.3160773 20.6532063,26.0145729 2.10577361,13.1244854 C0.961190501,12.3294767 -0.120004749,14.2003397 1.01521425,14.9895875 C19.847172,28.0769869 41.6173013,36.4973105 64.8287842,35.067879 C66.2103515,34.9829052 66.2197156,32.8225554 64.8287842,32.9075292" id="Fill-198"></path>
                        </g>
                        <path d="M71.4217381,143.800271 C66.8630464,150.68665 60.6236612,155.940319 53.1459084,159.312837 C51.8780042,159.884759 52.975894,161.768824 54.2365941,161.200544 C62.0536554,157.674299 68.5300521,152.09132 73.2875743,144.903316 C74.0634452,143.731058 72.1925662,142.635299 71.4217381,143.800271" id="Fill-201"></path>
                        <path d="M48.3033104,2.11870198 C53.8122724,3.85464613 58.7030236,6.65952139 62.9330801,10.5055356 C63.9658732,11.4440571 65.52312,9.93543897 64.487397,8.99335434 C59.9848589,4.90077339 54.7491109,1.90349052 48.8870949,0.0570901588 C47.5393366,-0.366919186 46.961412,1.69611788 48.3033104,2.11870198" id="Fill-203"></path>
                        <path d="M189.656651,54.8497698 C192.964579,59.2163531 196.273238,63.5822107 199.581898,67.948794 C200.419662,69.0547726 202.324737,67.9705653 201.475275,66.8500725 C198.167347,62.4842149 194.858688,58.1176316 191.550029,53.7510483 C190.712264,52.6450698 188.807189,53.7285514 189.656651,54.8497698" id="Fill-205"></path>
                        <path d="M0.372083376,71.6481098 C13.7912635,82.452014 30.0439122,88.8355457 47.2176554,90.0115548 C48.6119593,90.1065932 48.6061708,87.9294164 47.2176554,87.8351036 C30.6676226,86.7018979 14.8454933,80.5251291 1.90748186,70.1093587 C0.827927411,69.2409547 -0.717600936,70.7709999 0.372083376,71.6481098" id="Fill-220"></path>
                        <path d="M9.61521215,60.9351863 C17.2354417,70.5345822 29.6669003,75.08283 41.7218653,72.9233588 C43.082262,72.6797665 42.5056891,70.6138748 41.1495951,70.8574671 C29.8060236,72.8883558 18.2623727,68.3958271 11.1369632,59.4200562 C10.2778408,58.3385347 8.76469528,59.86438 9.61521215,60.9351863" id="Fill-222"></path>
                    </g>
                </g>
            </g>
        </g>
    </g>
</svg>