<?xml version="1.0" encoding="UTF-8"?>
<svg width="125px" height="176px" viewBox="0 0 125 176" version="1.1" xmlns="http://www.w3.org/2000/svg" xmlns:xlink="http://www.w3.org/1999/xlink">
    <!-- Generator: Sketch 52.5 (67469) - http://www.bohemiancoding.com/sketch -->
    <title>orange guy</title>
    <desc>Created with Sketch.</desc>
    <defs>
        <filter x="-3.7%" y="-3.8%" width="107.3%" height="107.7%" filterUnits="objectBoundingBox" id="filter-1">
            <feOffset dx="2" dy="3" in="SourceAlpha" result="shadowOffsetOuter1"></feOffset>
            <feColorMatrix values="0 0 0 0 1   0 0 0 0 1   0 0 0 0 1  0 0 0 1 0" type="matrix" in="shadowOffsetOuter1" result="shadowMatrixOuter1"></feColorMatrix>
            <feMerge>
                <feMergeNode in="shadowMatrixOuter1"></feMergeNode>
                <feMergeNode in="SourceGraphic"></feMergeNode>
            </feMerge>
        </filter>
        <polygon id="path-2" points="0 0.561940508 23.4468935 0.561940508 23.4468935 20.4519859 0 20.4519859"></polygon>
    </defs>
    <g id="ONBOARDING" stroke="none" stroke-width="1" fill="none" fill-rule="evenodd">
        <g id="onboarding3d" transform="translate(-362.000000, -411.000000)">
            <g id="Group-57" transform="translate(285.000000, 375.000000)">
                <g id="orange-guy" filter="url(#filter-1)" transform="translate(109.338380, 106.944819) scale(-1, 1) rotate(-17.000000) translate(-109.338380, -106.944819) translate(20.838380, 22.444819)">
                    <path d="M37.926099,140.140132 C38.0684413,138.521936 27.321595,117.080843 34.0828559,114.767811 C40.8410224,112.457867 63.1609194,119.307406 68.941256,116.870848 C74.7246869,114.43429 91.2425866,101.497988 95.1136792,102.165031 C98.9847718,102.828985 86.7928414,120.551934 76.0924111,126.808546 C65.3950752,133.06207 37.926099,140.140132 37.926099,140.140132" id="Fill-1" fill="#FAA61A"></path>
                    <g id="Group-5" transform="translate(0.154861, 119.539857)">
                        <mask id="mask-3" fill="white">
                            <use xlink:href="#path-2"></use>
                        </mask>
                        <g id="Clip-4"></g>
                        <path d="M18.9378125,9.692 C18.9378125,9.692 -0.1028125,23.266 0.0003125,19.922 C0.1034375,16.5717143 10.0784375,1.03028571 19.4159375,0.577714286 C28.7565625,0.122 18.9378125,9.692 18.9378125,9.692" id="Fill-3" fill="#CC6633" mask="url(#mask-3)"></path>
                    </g>
                    <path d="M0.0742180498,139.079452 C0.0742180498,139.079452 10.8074033,121.909996 18.5027792,125.188306 C26.1981552,128.466617 19.062054,120.079452 19.062054,120.079452 C19.062054,120.079452 2.65054924,125.71617 0.0742180498,139.079452" id="Fill-6" fill="#FAA61A"></path>
                    <path d="M18.6312345,147.3004 C18.6312345,147.3004 1.5505738,162.998731 1.38371122,159.721525 C1.2198825,156.44432 9.50840203,139.994393 18.3733559,138.34514 C27.2383098,136.69893 18.6312345,147.3004 18.6312345,147.3004" id="Fill-8" fill="#CC6633"></path>
                    <path d="M18.3936655,137.814826 C18.3936655,137.814826 1.30997101,153.51743 1.14614229,150.236925 C0.982313575,146.959463 9.2708331,130.508246 18.135787,128.861907 C27.0007409,127.212525 18.3936655,137.814826 18.3936655,137.814826" id="Fill-10" fill="#CC6633"></path>
                    <path d="M0.187448745,150.395276 C0.187448745,150.395276 9.57377969,131.389581 17.5878767,133.694821 C25.6019737,136.00006 17.7319926,128.395276 17.7319926,128.395276 C17.7319926,128.395276 1.67873497,136.382178 0.187448745,150.395276" id="Fill-12" fill="#FAA61A"></path>
                    <path d="M1.38132243,160.171506 C1.38132243,160.171506 10.7676534,141.165385 18.7817504,143.470296 C26.7958473,145.775207 18.9258662,138.171506 18.9258662,138.171506 C18.9258662,138.171506 2.87260865,146.160403 1.38132243,160.171506" id="Fill-14" fill="#FCEE21"></path>
                    <path d="M15.9208899,137.660708 C15.9208899,137.660708 13.9142993,126.047694 20.4085818,120.233377 C26.9028643,114.419059 29.3529518,111.25727 33.9522933,114.781477 C38.5578375,118.308809 41.6530113,140.822497 34.0174222,146.483724 C26.3849345,152.151199 1.59563157,173.312066 2.68421474,162.055222 C2.78345879,161.046074 10.4903796,152.922901 15.2137761,150.070417 C19.940274,147.214809 15.9208899,137.660708 15.9208899,137.660708" id="Fill-16" fill="#FAA61A"></path>
                    <path d="M18.3241718,122.985951 C18.3241718,122.985951 15.6420054,134.137036 17.9224794,140.406023 C20.1997905,146.6719 31.3491261,137.821932 33.5948079,131.714645 C35.8373267,125.604248 34.7303005,121.552418 34.7303005,121.552418 L18.3241718,122.985951 Z" id="Fill-18" fill="#CC6633"></path>
                    <path d="M31.6316197,126.525904 C31.6316197,126.525904 19.5442732,133.938024 16.8665968,119.294412 C16.8665968,119.294412 6.41105788,124.298148 5.64555744,116.806805 C4.880057,109.315462 17.7738566,111.863279 22.2377007,109.99995 C26.704695,108.136621 31.499311,110.586201 34.7030721,117.909591 C37.903683,125.23615 31.6316197,126.525904 31.6316197,126.525904" id="Fill-20" fill="#FAA61A"></path>
                    <path d="M31.7878115,124.336986 C31.7878115,124.336986 24.666604,130.282404 20.7914701,124.141371 C20.7914701,124.141371 17.9698596,120.501647 19.023383,118.298571 C20.0799601,116.095495 25.8300603,124.285677 31.7878115,124.336986" id="Fill-22" fill="#FCEE21"></path>
                    <path d="M12.6331213,119.187098 C12.6331213,119.187098 7.2236029,120.006005 7.65794379,116.376564 C8.09532203,112.74427 12.6331213,119.187098 12.6331213,119.187098" id="Fill-24" fill="#FCEE21"></path>
                    <path d="M4.00711004,163.444937 C4.00711004,163.444937 2.00070205,160.569418 6.82290365,158.608837 C11.6482063,156.645144 29.9043484,147.464646 34.5932029,142.444937 C34.5932029,142.444937 21.4135522,154.693899 16.6006539,157.202198 C11.7846545,159.707385 4.00711004,163.444937 4.00711004,163.444937" id="Fill-26" fill="#FCEE21"></path>
                    <path d="M170.407959,88.5304852 C172.680276,114.962241 91.6703269,112.071936 91.6703269,112.071936 C91.6703269,112.071936 84.7329682,105.639863 91.2380927,102.905543 C97.7463046,100.174282 127.172191,100.223218 139.148165,92.0172014 C151.124139,83.8081258 160.367776,77.165014 160.367776,77.165014" id="Fill-28" fill="#FAA61A"></path>
                    <path d="M77.2937158,106.679238 C77.2937158,106.679238 74.6694575,139.196719 101.647699,168.003034 C101.647699,168.003034 123.235237,154.683587 128.22411,139.89758 C128.22411,139.89758 92.9341719,108.754034 92.207787,97.0030335 C92.207787,97.0030335 77.1886219,99.6119655 77.2937158,106.679238" id="Fill-30" fill="#FAA61A"></path>
                    <path d="M76.819905,106.952104 C76.819905,106.952104 76.6282222,109.593913 76.937388,113.935562 C82.2612243,112.88927 88.6949661,111.55149 92.1050656,110.591111 C92.1050656,110.591111 106.833728,135.993593 126.292628,143.336042 C126.861493,142.222248 127.374708,141.099249 127.761165,139.963977 C127.761165,139.963977 92.463698,109.014004 91.7371582,97.336042 C91.7371582,97.336042 76.7147886,99.9287581 76.819905,106.952104" id="Fill-32" fill="#CC6633"></path>
                    <path d="M89.0653589,104.057595 C86.4395816,110.590053 96.120955,110.170087 96.120955,110.170087 C96.120955,110.170087 96.8482386,109.492625 98.0572297,108.327756 C96.523952,102.178479 98.318548,94.4964805 100.613742,88.1755384 C95.27718,95.1218308 90.2617563,101.081051 89.0653589,104.057595" id="Fill-34" fill="#CC6633"></path>
                    <path d="M81.3983057,125.187859 C79.716574,138.671032 100.247328,161.518376 100.854362,162.576666 C100.854362,162.576666 102.619716,164.60377 104.357195,166.566081 C107.726853,164.221181 113.292363,160.031216 118.300393,154.847754 C114.032573,149.037957 104.406749,133.441289 100.690215,126.80152 C96.0941012,118.600543 83.0800374,111.704686 81.3983057,125.187859" id="Fill-36" fill="#FCEE21"></path>
                    <polygon id="Fill-38" fill="#CC6633" points="77.8053839 125.910764 75.0774687 113.136911 77.4967855 111.910764 79.0774687 124.269103"></polygon>
                    <path d="M147.337471,78.5476829 C147.337471,78.5476829 108.873077,98.3359398 120.633491,109.303742 C132.393905,120.277706 156.397694,106.503256 156.397694,106.503256 L147.337471,78.5476829 Z" id="Fill-40" fill="#006699"></path>
                    <path d="M117.159807,42.0431585 C126.741909,69.7236642 111.863449,99.8576552 83.9218887,109.350233 C55.9772091,118.842811 25.5559054,104.100269 15.9738029,76.4197633 C6.39170049,48.7361675 21.2763987,18.6021765 49.2210783,9.10959851 C77.1626387,-0.38297947 107.580823,14.3626527 117.159807,42.0431585" id="Fill-53" fill="#FAA61A"></path>
                    <path d="M61.8334199,21.3992241 C61.8334199,21.3992241 56.9105778,-1.60130867 34.0947883,0.567766822 C34.0947883,0.567766822 41.256262,3.17169898 45.7281567,10.116386 C45.7281567,10.116386 31.8615251,3.17169898 16.2018409,14.8893937 C16.2018409,14.8893937 27.8352093,10.5486388 33.6492093,15.3242504 C33.6492093,15.3242504 17.9895251,14.454537 10.8334199,29.6458772 C10.8334199,29.6458772 37.6755251,14.454537 61.8334199,21.3992241" id="Fill-15" fill="#FAA61A"></path>
                    <path d="M59.4032632,54.4106705 C62.2746054,62.699759 59.508237,71.1478415 53.231421,73.2789719 C46.9576926,75.4101024 39.5416021,70.4170808 36.6733473,62.1310499 C33.802005,53.8419613 36.565286,45.3969365 42.8390145,43.2627484 C49.1158305,41.131618 56.5319209,46.121582 59.4032632,54.4106705" id="Fill-55" fill="#FFFFFF"></path>
                    <path d="M56.7749256,55.6627936 C58.7475422,61.2589461 56.6469552,67.025139 52.0868399,68.5463937 C47.5267245,70.0676484 42.2299992,66.7670419 40.2573825,61.1739259 C38.2847659,55.5808098 40.3853529,49.808544 44.9454683,48.2872893 C49.5055836,46.7660346 54.8023089,50.0696775 56.7749256,55.6627936" id="Fill-57" fill="#021A23"></path>
                    <path d="M51.7818574,55.2809373 C52.6123136,57.6934691 51.8734519,60.133347 50.1301045,60.7258454 C48.383704,61.3213822 46.2922978,59.8507709 45.4648947,57.4352006 C44.6313854,55.0257073 45.3733003,52.5827909 47.1197008,51.9902926 C48.8630482,51.3947557 50.9544544,52.8684055 51.7818574,55.2809373" id="Fill-59" fill="#FFFFFF"></path>
                    <path d="M92.0265676,43.4713703 C94.8982017,51.7607346 92.1346399,60.2090981 85.8571861,62.3402994 C79.5828202,64.4684431 72.1659762,59.4783131 69.2974299,51.1889488 C66.4257959,42.8995846 69.1893577,34.4573364 75.4637236,32.3230774 C81.7411774,30.191876 89.1549336,35.1820061 92.0265676,43.4713703" id="Fill-61" fill="#FFFFFF"></path>
                    <path d="M89.3990192,44.7231062 C91.3712995,50.3192587 89.2710707,56.0854516 84.7117328,57.6067063 C80.1492742,59.127961 74.853452,55.8273545 72.8811717,50.2342385 C70.9088914,44.6411224 73.0091202,38.8688566 77.5715788,37.3476019 C82.1309166,35.8263472 87.4267389,39.1299901 89.3990192,44.7231062" id="Fill-63" fill="#021A23"></path>
                    <path d="M84.4072159,44.341246 C85.2370929,46.7537751 84.4926444,49.1936501 82.7505131,49.7861478 C81.0083817,50.381684 78.9184343,48.9110743 78.0885574,46.4985453 C77.2556294,44.0860162 77.9970269,41.6461412 79.7452602,41.050605 C81.4843406,40.4550689 83.577339,41.928717 84.4072159,44.341246" id="Fill-65" fill="#FFFFFF"></path>
                    <path d="M29.5792456,79.9797035 C29.5792456,79.9797035 37.2504412,87.2900277 69.8545707,76.7161659 C107.597596,64.479454 104.378047,51.9505778 104.378047,51.9505778 C104.378047,51.9505778 119.116773,75.6065631 98.9729188,92.0703332 C83.2869024,104.891374 70.8204355,104.406505 70.8204355,104.406505 C70.8204355,104.406505 46.8409837,110.76885 29.5792456,79.9797035" id="Fill-67" fill="#510D3A"></path>
                    <path d="M72.0629454,83.4087747 C100.207056,73.8746246 104.517192,63.6751593 103.247324,56.48182 C100.824997,61.1481822 93.1934285,68.7169057 69.8136411,76.1727088 C50.3423288,82.3833347 39.7879012,82.3070371 34.4427139,81.2449743 C38.1688965,85.6580284 47.9385394,91.5787234 72.0629454,83.4087747" id="Fill-69" fill="#FFFFFF"></path>
                    <path d="M89.4662227,84.7452298 C80.432137,85.4923181 78.4303705,89.2962429 78.3565727,92.3997723 C76.4193793,89.9966382 72.5296181,88.2378677 64.9376652,93.2589239 C60.2023038,96.3966949 57.6532034,99.9204616 56.2910182,103.148506 C64.8607925,105.813121 71.2842796,104.104156 71.2842796,104.104156 C71.2842796,104.104156 83.6638674,104.586651 99.2475115,91.74607 C100.806491,90.4635684 102.131777,89.1312609 103.291018,87.7740504 C100.191509,85.753799 95.7513388,84.2284937 89.4662227,84.7452298" id="Fill-71" fill="#ED125F"></path>
                </g>
            </g>
        </g>
    </g>
</svg>