<svg xmlns="http://www.w3.org/2000/svg" viewBox="0 0 431.62 331.78"><defs><style>.cls-1{isolation:isolate;}.cls-2{fill:#c1bd89;}.cls-3{fill:#b6e3f0;}.cls-18,.cls-4{fill:#221f1f;mix-blend-mode:multiply;}.cls-4{opacity:0.33;}.cls-5{fill:#fff;}.cls-6{fill:#1281c5;}.cls-7{fill:#036799;}.cls-8{fill:#055675;}.cls-9{fill:#26a6de;}.cls-10{fill:#0b1c23;}.cls-11{fill:#00374c;}.cls-12{fill:#0c6d9a;}.cls-13{fill:#999;}.cls-14{fill:#666;}.cls-15{fill:#ccc;}.cls-16{fill:#f15c28;}.cls-17{fill:#d24a27;}.cls-18{opacity:0.1;}</style></defs><title>No Blue guy</title><g class="cls-1"><g id="Layer_1" data-name="Layer 1"><circle class="cls-2" cx="234.85" cy="170.84" r="160.94"/><path class="cls-3" d="M241.1,81.48a160.94,160.94,0,0,0-98.42,288.28H339.52A160.94,160.94,0,0,0,241.1,81.48Z" transform="translate(-6.25 -71.59)"/><path class="cls-4" d="M437,344c-.23-.34-2.18-1.08-5-1.94,3.38.31,5.56.17,5.13-.8a4.88,4.88,0,0,0-1-1.28c-3.14-3.79-7.65-6.43-12.39-8.27,5.74.85,10.19,1.11,9.59-.25a4.88,4.88,0,0,0-1-1.28c-3.93-4.75-10-7.69-16-9.52l-1-.4c7.25.46,13.56.46,12.69-1.06A4.88,4.88,0,0,0,427,318c-4.4-4.32-10.74-6.62-16.9-7.82-5.58-1.6-11.61-2.49-16.75-1.64-.07-.37-.14-.73-.23-1.12,0,0,17.2-.23,14.29-8.3s-19.5,1.15-26.7,1.53a12.94,12.94,0,0,0-12.07,9,12.88,12.88,0,0,0-1.29,1.45c-1.09,1.43-1.48,3.92-1.27,6.9-2.56,3-18.09,21-24.1,22-3.63.64-13-12.08-20.64-23.54h0c-1.78-2.67-3.46-5.27-5-7.62l1.4-.48A103.59,103.59,0,0,0,328,304.25l1.48-.71a104.51,104.51,0,0,0,26.89-19q.89-.87,1.77-1.77,3.05-3.13,5.85-6.5,1.59-1.93,3.1-3.94a104.15,104.15,0,0,0,12.52-21.8q1-2.34,1.87-4.74a104.08,104.08,0,0,0,6.33-35.85h0q0-1.38,0-2.76v-.05q0-1.35-.11-2.69h0a104.27,104.27,0,0,0-183-62.74q-1.3-3.47-2.86-6.81h0A97.32,97.32,0,0,0,22.5,210.24l.18.48q.63,1.64,1.31,3.26l0,.07q.68,1.59,1.42,3.16l.17.37q.74,1.56,1.54,3.09l.2.38q.8,1.52,1.65,3l0,.06q.86,1.51,1.78,3l.28.44Q32,229,33,230.45l0,0q1,1.41,2,2.78l.27.37q1,1.37,2.06,2.69l.28.35q1,1.3,2.12,2.56l.11.13q1.11,1.29,2.27,2.54l.38.41q1.17,1.25,2.38,2.46l0,0q1.19,1.18,2.42,2.32l.39.36q1.23,1.13,2.5,2.22l.37.31q1.22,1,2.48,2l.22.18q1.32,1,2.67,2l.5.37c.91.66,1.84,1.31,2.77,1.95l.08.05q1.37.92,2.78,1.79l.51.32q1.41.87,2.86,1.69l.47.26q1.36.76,2.74,1.48l.36.19q1.48.76,3,1.47l.62.29c1,.47,2.05.94,3.1,1.38l.09,0c1,.43,2,.83,3.07,1.23l.64.24q1.56.58,3.14,1.11l.54.18q1.46.48,2.95.92l.48.14q1.61.46,3.25.87l.71.17c1.11.27,2.23.53,3.36.76H94c1.11.23,2.23.43,3.35.61l.72.12q1.68.27,3.37.48l.58.07q1.35.16,2.7.28V296c-8.51-.51-12,.69-14.31,3.59s1.19,13.07,1.19,13.07c-5.34,8.91,1.78,29.69,2.38,38s-3,10.1,4.16,15.45a13.66,13.66,0,0,0,6.59,2.09v7.14c0,2.29,5.3,4.14,11.83,4.14s11.84-1.85,11.84-4.14v-4.74c27.16,3.79,81.41,9.32,94.57-4.71,7.84-8.36,17.65-17.44,27.16-25.76h0l3-2.58c-9.06,18.89-18.51,42.78-21.73,65.46,3.21.19,6.44.31,9.7.31a160.21,160.21,0,0,0,73.52-17.75c-4.15-21-7-45.44-3.35-63.91h.06c.13-.63.27-1.24.42-1.86,5.2,12.88,19.75,46.63,32.82,55.62,11.1,7.63,29.86-12.85,40.64-26.61h0c1.15-1.47,2.21-2.86,3.16-4.13C405.45,347.38,444,354.21,437,344Zm-230.75-1.63c-8.13,1.35-25.61-5.29-42.5-13.07h0c-5.13-2.37-10.21-4.83-14.95-7.21,1.58-6.46,5.52-14,.43-17.1a32.71,32.71,0,0,0-9.28-3.86c-3.19-4.05-9.27-4.38-11.55-4V272a96.73,96.73,0,0,0,11.75-2.56q1.15-.33,2.3-.68a96.89,96.89,0,0,0,25.47-12.24q1-.66,1.92-1.33,1.91-1.36,3.75-2.8t3.6-3q2.65-2.29,5.13-4.77.83-.83,1.63-1.67l.45-.48c.36,1.09.73,2.17,1.12,3.25q.88,2.4,1.87,4.74a104.57,104.57,0,0,0,63.34,58.43C236.82,318,221.05,339.89,206.28,342.35Z" transform="translate(-6.25 -71.59)"/><path class="cls-5" d="M427,337c-.23-.34-2.18-1.08-5-1.94,3.38.31,5.56.17,5.13-.8a4.88,4.88,0,0,0-1-1.28c-3.14-3.79-7.65-6.43-12.39-8.27,5.74.85,10.19,1.11,9.59-.25a4.88,4.88,0,0,0-1-1.28c-3.93-4.75-10-7.69-16-9.52l-1-.4c7.25.46,13.56.46,12.69-1.06A4.88,4.88,0,0,0,417,311c-4.4-4.32-10.74-6.62-16.9-7.82-5.58-1.6-11.61-2.49-16.75-1.64-.07-.37-.14-.73-.23-1.12,0,0,17.2-.23,14.29-8.3s-19.5,1.15-26.7,1.53a12.94,12.94,0,0,0-12.07,9,12.88,12.88,0,0,0-1.29,1.45c-1.09,1.43-1.48,3.92-1.27,6.9-2.56,3-18.09,21-24.1,22-3.63.64-13-12.08-20.64-23.54h0c-1.78-2.67-3.46-5.27-5-7.62l1.4-.48A103.59,103.59,0,0,0,318,297.25l1.48-.71a104.51,104.51,0,0,0,26.89-19q.89-.87,1.77-1.77,3.05-3.13,5.85-6.5,1.59-1.93,3.1-3.94a104.15,104.15,0,0,0,12.52-21.8q1-2.34,1.87-4.74a104.08,104.08,0,0,0,6.33-35.85h0q0-1.38,0-2.76v-.05q0-1.35-.11-2.69h0a104.27,104.27,0,0,0-183-62.74q-1.3-3.47-2.86-6.81h0A97.32,97.32,0,0,0,12.5,203.24l.18.48q.63,1.64,1.31,3.26l0,.07q.68,1.59,1.42,3.16l.17.37q.74,1.56,1.54,3.09l.2.38q.8,1.52,1.65,3l0,.06q.86,1.51,1.78,3l.28.44Q22,222,23,223.45l0,0q1,1.41,2,2.78l.27.37q1,1.37,2.06,2.69l.28.35q1,1.3,2.12,2.56l.11.13q1.11,1.29,2.27,2.54l.38.41q1.17,1.25,2.38,2.46l0,0q1.19,1.18,2.42,2.32l.39.36q1.23,1.13,2.5,2.22l.37.31q1.22,1,2.48,2l.22.18q1.32,1,2.67,2l.5.37c.91.66,1.84,1.31,2.77,1.95l.08.05q1.37.92,2.78,1.79l.51.32q1.41.87,2.86,1.69l.47.26q1.36.76,2.74,1.48l.36.19q1.48.76,3,1.47l.62.29c1,.47,2.05.94,3.1,1.38l.09,0c1,.43,2,.83,3.07,1.23l.64.24q1.56.58,3.14,1.11l.54.18q1.46.48,2.95.92l.48.14q1.61.46,3.25.87l.71.17c1.11.27,2.23.53,3.36.76H84c1.11.23,2.23.43,3.35.61l.72.12q1.68.27,3.37.48l.58.07q1.35.16,2.7.28V289c-8.51-.51-12,.69-14.31,3.59s1.19,13.07,1.19,13.07c-5.34,8.91,1.78,29.69,2.38,38s-3,10.1,4.16,15.45a13.66,13.66,0,0,0,6.59,2.09v7.14c0,2.29,5.3,4.14,11.83,4.14s11.84-1.85,11.84-4.14v-4.74c27.16,3.79,81.41,9.32,94.57-4.71,7.84-8.36,17.65-17.44,27.16-25.76h0l3-2.58c-9.86,20.56-20.19,47.06-22.44,71.47a162.1,162.1,0,0,0,20.41,1.31,160.28,160.28,0,0,0,65.8-14.05c-5.22-22.91-9.93-52.9-5.63-74.61h.06c.13-.63.27-1.24.42-1.86,5.2,12.88,19.75,46.63,32.82,55.62,11.1,7.63,29.86-12.85,40.64-26.61h0c1.15-1.47,2.21-2.86,3.16-4.13C395.45,340.38,434,347.21,427,337Zm-230.75-1.63c-8.13,1.35-25.61-5.29-42.5-13.07h0c-5.13-2.37-10.21-4.83-14.95-7.21,1.58-6.46,5.52-14,.43-17.1a32.71,32.71,0,0,0-9.28-3.86c-3.19-4.05-9.27-4.38-11.55-4V265a96.73,96.73,0,0,0,11.75-2.56q1.15-.33,2.3-.68a96.89,96.89,0,0,0,25.47-12.24q1-.66,1.92-1.33,1.91-1.36,3.75-2.8t3.6-3q2.65-2.29,5.13-4.77.83-.83,1.63-1.67l.45-.48c.36,1.09.73,2.17,1.12,3.25q.88,2.4,1.87,4.74a104.57,104.57,0,0,0,63.34,58.43C226.82,311,211.05,332.89,196.28,335.35Z" transform="translate(-6.25 -71.59)"/><path class="cls-6" d="M118.67,304.15s65.37,37.25,83.61,34.21,38-35.73,54-37.25,25.08,6.08,25.08,6.08-39.53,30.4-62.33,54.73c-17.74,18.93-110.22,2.28-110.22,2.28Z" transform="translate(-6.25 -71.59)"/><path class="cls-7" d="M125.7,308a77.17,77.17,0,0,0-8.13,2.8l-8.78,53.35S124.53,367,144.25,369c-26.92-14,16.94-29.22,15.52-43.75C146.38,319.1,133.38,312.23,125.7,308Zm155.63-.86s-9.12-7.6-25.08-6.08c-4.12.39-8.5,2.88-13,6.39,3.09,6.45,5.29,15.91,3,28.68C264.31,320.3,281.34,307.19,281.34,307.19Z" transform="translate(-6.25 -71.59)"/><path class="cls-6" d="M389.5,333.52s-32.69,49.11-48.94,37.94-34.8-60.66-34.8-60.66l.43-15.89s25.24,42.3,31.79,41.15,24.46-22.48,24.46-22.48l1.59,1.17Z" transform="translate(-6.25 -71.59)"/><path class="cls-7" d="M366.9,316.86c.77,7.6,3.7,20.41,14.31,28,5-6.39,8.3-11.33,8.3-11.33Z" transform="translate(-6.25 -71.59)"/><path class="cls-7" d="M306.2,294.91l-.43,15.89s3,7.89,7.54,18a60.66,60.66,0,0,1,4-16.32C311.22,303.31,306.2,294.91,306.2,294.91Z" transform="translate(-6.25 -71.59)"/><path class="cls-7" d="M392.08,314.39s34,4.19,32,.79-24.26-14.31-37.6-10S392.08,314.39,392.08,314.39Z" transform="translate(-6.25 -71.59)"/><path class="cls-8" d="M424.12,315.18s-24.76-12.39-34-4.88-3.59-5.08-3.59-5.08S413.14,302.48,424.12,315.18Z" transform="translate(-6.25 -71.59)"/><path class="cls-7" d="M401.41,333.16s33.37,7.67,31.79,4.08-22.65-16.74-36.37-13.78S401.41,333.16,401.41,333.16Z" transform="translate(-6.25 -71.59)"/><path class="cls-7" d="M397.63,323.36S431,331,429.42,327.44,406.76,310.7,393,313.66,397.63,323.36,397.63,323.36Z" transform="translate(-6.25 -71.59)"/><path class="cls-8" d="M429.42,327.44s-23.35-14.87-33.33-8.35-3-5.42-3-5.42S419.8,313.68,429.42,327.44Z" transform="translate(-6.25 -71.59)"/><path class="cls-8" d="M433.2,337.24s-23.35-14.87-33.33-8.35-3-5.42-3-5.42S423.58,323.48,433.2,337.24Z" transform="translate(-6.25 -71.59)"/><path class="cls-6" d="M401.18,321.51s-3.42-13.11-15.73-15.78-17.48-4.68-22.08,1.38,3.16,31.08,17,33,60.28,11,52.67-.13c-.68-1-16-5.43-24.17-5.94S401.18,321.51,401.18,321.51Z" transform="translate(-6.25 -71.59)"/><path class="cls-7" d="M389,307.57s9.76,10.28,10,18-20,4.16-26.43-1.08-7.07-10-7.07-10Z" transform="translate(-6.25 -71.59)"/><path class="cls-6" d="M372.43,318.4s20.75,1.4,16.7-15c0,0,17.2-.23,14.29-8.3s-19.5,1.15-26.7,1.53-12.57,5.34-13.14,14.49S372.43,318.4,372.43,318.4Z" transform="translate(-6.25 -71.59)"/><path class="cls-9" d="M371,316.13s13.34,2.25,15.68-6c0,0,2.14-5.18-.53-6.85S379.5,312.93,371,316.13Z" transform="translate(-6.25 -71.59)"/><path class="cls-9" d="M395.33,300.58s8.29-1.95,5.52-5.85S395.33,300.58,395.33,300.58Z" transform="translate(-6.25 -71.59)"/><path class="cls-9" d="M431.84,342.66s1.28-4-6.6-3.58-38.65.39-48-2.41c0,0,25.25,5.92,33.42,6S431.84,342.66,431.84,342.66Z" transform="translate(-6.25 -71.59)"/><path class="cls-7" d="M261.86,306.7c9.83,5.71,24.62,11,45.48,11,1.7-8.56,4.76-15.89,9.8-20.92l-48.31,1A106.51,106.51,0,0,0,261.86,306.7Z" transform="translate(-6.25 -71.59)"/><path class="cls-6" d="M241.1,403.37A160.21,160.21,0,0,0,311.74,387c-6.73-31.54-11.46-73.41,5.4-90.27l-48.31,1s-36.41,56.14-41.88,105C231.61,403.14,236.33,403.37,241.1,403.37Z" transform="translate(-6.25 -71.59)"/><path class="cls-9" d="M241.1,403.37A160.76,160.76,0,0,0,289.49,396c5.94-50.83,5.67-78.8-19.93-74.53-17.62,2.94-32.1,52.31-37.41,81.67C235.12,403.26,238.1,403.37,241.1,403.37Z" transform="translate(-6.25 -71.59)"/><circle class="cls-6" cx="273.24" cy="134.33" r="104.27"/><ellipse class="cls-5" cx="242.29" cy="109.16" rx="23.66" ry="31.55"/><ellipse class="cls-10" cx="243.04" cy="110.89" rx="17.01" ry="21.45"/><ellipse class="cls-5" cx="244.76" cy="105.83" rx="6.65" ry="9.24"/><ellipse class="cls-5" cx="309.34" cy="109.16" rx="23.66" ry="31.55"/><ellipse class="cls-10" cx="310.08" cy="110.89" rx="17.01" ry="21.45"/><ellipse class="cls-5" cx="311.81" cy="105.83" rx="6.66" ry="9.24"/><path class="cls-11" d="M322.78,244.87c-9.39-1.82-8.25,3.86-16.47,6.48-8.42,2.67-12.73-6-19.55-5.76-7.42.22-11.2,7.61-19.09,7.55s-12.28-6.84-20.26-5.56c-5.6.9-10.58,6.43-16.44,6.53-4.85.08-13.33-3.58-15.44-8.52-1.25-2.92-.31-6.89,1.36-9.79-3.41,1.22-7.37,8.54-5.25,14.13,2.18,5.76,10.91,10,15.9,9.93,6-.11,11.17-6.57,16.93-7.61,8.22-1.49,12.66,6.42,20.87,6.48s12-8.55,19.66-8.81c7-.23,11.46,9.84,20.13,6.72,8.47-3,7.3-9.68,17-7.55,7.6,1.67,13.45,7.8,20.84-.22.94-1,2.58-2.68,2.84-3.54l-3.21-.24C335.6,251.33,330,246.27,322.78,244.87Z" transform="translate(-6.25 -71.59)"/><path class="cls-6" d="M348.11,137.83v28.76c-56.69-10.18-43.52-47.65-43.52-47.65Z" transform="translate(-6.25 -71.59)"/><path class="cls-12" d="M348.11,166.59v-8.25c-47.9-6.16-43.52-39.4-43.52-39.4S291.42,156.41,348.11,166.59Z" transform="translate(-6.25 -71.59)"/><ellipse class="cls-5" cx="327.09" cy="135.52" rx="6.84" ry="7.7"/><path class="cls-6" d="M206.17,139.42v28.76c56.69-10.18,43.52-47.65,43.52-47.65Z" transform="translate(-6.25 -71.59)"/><path class="cls-12" d="M206.17,168.18v-8.25c47.9-6.16,43.52-39.4,43.52-39.4S262.86,158,206.17,168.18Z" transform="translate(-6.25 -71.59)"/><path class="cls-7" d="M279.5,299.2a104.28,104.28,0,0,1-104.14-98.77q-.14,2.73-.14,5.5a104.27,104.27,0,1,0,208.55,0q0-2.77-.14-5.5A104.27,104.27,0,0,1,279.5,299.2Z" transform="translate(-6.25 -71.59)"/><rect class="cls-13" x="94.52" y="56.03" width="23.66" height="243.75"/><path class="cls-14" d="M100.77,171.22V273.31c7.26,4.23,14.1,5,23.66.55V170.26C121.5,172.36,113.79,176.13,100.77,171.22Z" transform="translate(-6.25 -71.59)"/><path class="cls-15" d="M124.44,127.62c0,2.28-5.3,4.14-11.84,4.14s-11.83-1.86-11.83-4.14,5.3-4.15,11.83-4.15S124.44,125.33,124.44,127.62Z" transform="translate(-6.25 -71.59)"/><ellipse class="cls-13" cx="106.35" cy="299.78" rx="11.83" ry="4.14"/><path class="cls-8" d="M129.82,296.21A32.52,32.52,0,0,1,145.26,301c7.72,4.75-5.35,19.59.59,25.54s-10.11,18.42-12.48,11.88S120.32,306.3,129.82,296.21Z" transform="translate(-6.25 -71.59)"/><path class="cls-6" d="M87.65,308.68s-3.56-10.1-1.19-13.07,5.94-4.16,14.85-3.56,25.54-1.18,28.51,4.16-4.76,16.63-4.76,16.63,4.76,6.53,4.16,13.06-3.56,7.73-3.56,7.73,5.34,4.74,4.16,9.5l-1.19,4.75s6.53,9.5,1.78,11.88-29.1,7.73-36.23,2.38S90.62,355,90,346.69,82.3,317.59,87.65,308.68Z" transform="translate(-6.25 -71.59)"/><path class="cls-7" d="M123.88,293.24c1.79-.59,10.09-.59,13.06,5.34S132.79,314,132.79,314s4.75,4.15,3.56,9.5a15.11,15.11,0,0,1-5.34,8.32s7.13,1.18,6.53,6.53a22.56,22.56,0,0,1-3.56,9.51s7.12,8.91,3,10.7-23.75,5.34-23.75,5.34,13.06-6.53,10.1-8.91-10.7-1.78-10.7-1.78,14.26-2.38,11.29-7.73-7.13-12.48-10.69-11.28c0,0,8.32,2.38,10.69-4.16s-11.29-16-11.29-16,10.7,1.77,12.48-4.16S123.88,293.24,123.88,293.24Z" transform="translate(-6.25 -71.59)"/><path class="cls-9" d="M88.09,297.25s-2.23,8.91,2.67,10.69,4.9-3.12,9.35-7.13,16-2.23,19.16.89,4-6.68,1.78-7.57S91.21,293.68,88.09,297.25Z" transform="translate(-6.25 -71.59)"/><path class="cls-9" d="M88.24,321.75s-2.38-4.16,3.56-5.35,16-1.19,21.38,1.19,10.09,9.51,7.71,11.29-4.16-7.13-12.47-6.54-11.87,7.73-16.63,8.32S88.24,321.75,88.24,321.75Z" transform="translate(-6.25 -71.59)"/><path class="cls-9" d="M92.4,343.73s-4.16-6.54-1.19-8.91S107.84,336,112.59,336s10.1,5.34,8.91,7.72-3-3.56-8.31-3.56S92.4,343.73,92.4,343.73Z" transform="translate(-6.25 -71.59)"/><path class="cls-9" d="M93,353.82a21.11,21.11,0,0,1,9.5-2.38c5.35,0,14.85,1.78,14.85,3.56s-12.47-1.78-17.82,1.19S93,353.82,93,353.82Z" transform="translate(-6.25 -71.59)"/><circle class="cls-16" cx="103.3" cy="100.3" r="97.3"/><path class="cls-17" d="M197.79,130.87a97.32,97.32,0,0,1-180.49,72,97.31,97.31,0,1,0,180.49-72Z" transform="translate(-6.25 -71.59)"/><polygon class="cls-5" points="56.27 59.85 79.42 41.7 149.68 127.93 120.18 149.55 56.27 59.85"/><polygon class="cls-5" points="138.52 48.37 156.67 71.52 70.44 141.78 48.82 112.28 138.52 48.37"/><polygon class="cls-18" points="73.38 139.38 128.05 101.38 156.67 71.52 73.38 139.38"/></g></g></svg>