<?xml version="1.0" encoding="utf-8"?>
<!-- Generator: Adobe Illustrator 21.1.0, SVG Export Plug-In . SVG Version: 6.00 Build 0)  -->
<svg version="1.1" id="Layer_1" xmlns="http://www.w3.org/2000/svg" xmlns:xlink="http://www.w3.org/1999/xlink" x="0px" y="0px"
	 viewBox="0 0 21 19" style="enable-background:new 0 0 21 19;" xml:space="preserve">
<style type="text/css">
	.st0{fill:#B3B3B3;}
</style>
<title>icon/icons/cendol ijo coklat abu</title>
<desc>Created with Sketch.</desc>
<g id="Symbols">
	<g id="Card-HT" transform="translate(-15.000000, -329.000000)">
		<g id="icon_x2F_icons_x2F_bata" transform="translate(15.000000, 328.000000)">
			<g id="icons_x2F_bata">
				<g id="Group" transform="translate(-2.000000, -2.000000)">
					
						<g id="color_x2F_red" transform="translate(12.712136, 12.361895) rotate(-13.000000) translate(-12.712136, -12.361895) translate(2.212136, 2.861895)">
						<g id="Mask">
							<path id="path-1_1_" class="st0" d="M9.7,4.8l6.2,3.4l-9.6,5.3L0.1,10L9.7,4.8z M6.3,14.4l9.6-5.2v3.5L6.3,18l-6.2-3.5l0-3.5
								L6.3,14.4z M12.4,3.3L14.6,1l-0.3,3.3l3.8-1.9l-1.7,3.4l3.5,0l-2.5,2.1l2.9,1.5l-3.6,0.5l2.1-0.8c0,0-2.6-1.2-2.7-1.2
								c-0.1,0,2.2-1.5,2.2-1.5s-3,0.3-3,0.2c0-0.1,1.6-2.9,1.6-2.9l-3,1.6l0.2-2.9l-1.4,2.1L11.1,2l-0.7,2.7L11,1L12.4,3.3z"/>
						</g>
					</g>
				</g>
			</g>
		</g>
	</g>
</g>
</svg>
