<?xml version="1.0" encoding="UTF-8"?>
<svg width="14px" height="11px" viewBox="0 0 14 11" version="1.1" xmlns="http://www.w3.org/2000/svg" xmlns:xlink="http://www.w3.org/1999/xlink">
    <!-- Generator: Sketch 52.6 (67491) - http://www.bohemiancoding.com/sketch -->
    <title>align-justify</title>
    <desc>Created with Sketch.</desc>
    <g id="Page-1" stroke="none" stroke-width="1" fill="none" fill-rule="evenodd">
        <g id="align-justify" fill="#1998ED" fill-rule="nonzero">
            <path d="M13.5,9 L0.5,9 C0.223857625,9 3.38176876e-17,9.22385763 0,9.5 L0,10.5 C3.38176876e-17,10.7761424 0.223857625,11 0.5,11 L13.5,11 C13.7761424,11 14,10.7761424 14,10.5 L14,9.5 C14,9.22385763 13.7761424,9 13.5,9 Z M13.5,6 L0.5,6 C0.223857625,6 3.38176876e-17,6.22385763 0,6.5 L0,7.5 C3.38176876e-17,7.77614237 0.223857625,8 0.5,8 L13.5,8 C13.7761424,8 14,7.77614237 14,7.5 L14,6.5 C14,6.22385763 13.7761424,6 13.5,6 Z M13.5,3 L0.5,3 C0.223857625,3 3.38176876e-17,3.22385763 0,3.5 L0,4.5 C3.38176876e-17,4.77614237 0.223857625,5 0.5,5 L13.5,5 C13.7761424,5 14,4.77614237 14,4.5 L14,3.5 C14,3.22385763 13.7761424,3 13.5,3 Z M13.5,0 L0.5,0 C0.223857625,0 3.38176876e-17,0.223857625 0,0.5 L0,1.5 C3.38176876e-17,1.77614237 0.223857625,2 0.5,2 L13.5,2 C13.7761424,2 14,1.77614237 14,1.5 L14,0.5 C14,0.223857625 13.7761424,0 13.5,0 Z" id="Shape"></path>
        </g>
    </g>
</svg>