<?xml version="1.0" encoding="UTF-8"?>
<svg width="14px" height="14px" viewBox="0 0 14 14" version="1.1" xmlns="http://www.w3.org/2000/svg" xmlns:xlink="http://www.w3.org/1999/xlink">
    <!-- Generator: Sketch 52.3 (67297) - http://www.bohemiancoding.com/sketch -->
    <title>Combined Shape</title>
    <desc>Created with Sketch.</desc>
    <g id="Symbols" stroke="none" stroke-width="1" fill="none" fill-rule="evenodd">
        <g id="toolbar" transform="translate(-526.000000, -8.000000)" fill="#6E6E6E">
            <g id="Group-5">
                <g id="Group-27" transform="translate(25.000000, 5.000000)">
                    <g id="Group-32" transform="translate(501.000000, 2.000000)">
                        <path d="M12.6847378,11.0035867 C12.6847378,12.4843495 11.4843238,13.6847378 10.0035867,13.6847378 L4.08115111,13.6847378 C2.60038834,13.6847378 1.4,12.4843495 1.4,11.0035867 L1.4,5.08115111 C1.4,3.60041398 2.60038834,2.4 4.08115111,2.4 L10.0035867,2.4 C11.4843238,2.4 12.6847378,3.60041398 12.6847378,5.08115111 L12.6847378,11.0035867 Z M10.673722,1 L3.32627799,1 C1.48922453,1 0,2.48922453 0,4.32627799 L0,11.673722 C0,13.5107755 1.48922453,15 3.32627799,15 L10.673722,15 C12.5107755,15 14,13.5107755 14,11.673722 L14,4.32627799 C14,2.48922453 12.5107755,1 10.673722,1 L10.673722,1 Z M3.9375,5.55 C3.69578125,5.55 3.5,5.35421875 3.5,5.1125 L3.5,4.2375 C3.5,3.99578125 3.69578125,3.8 3.9375,3.8 L7.4375,3.8 C7.67921875,3.8 7.875,3.99578125 7.875,4.2375 L7.875,5.1125 C7.875,5.35421875 7.67921875,5.55 7.4375,5.55 L3.9375,5.55 Z M3.9375,8.55 C3.69578125,8.55 3.5,8.35421875 3.5,8.1125 L3.5,7.2375 C3.5,6.99578125 3.69578125,6.8 3.9375,6.8 L10.0625,6.8 C10.3042187,6.8 10.5,6.99578125 10.5,7.2375 L10.5,8.1125 C10.5,8.35421875 10.3042187,8.55 10.0625,8.55 L3.9375,8.55 Z M3.9375,11.55 C3.69578125,11.55 3.5,11.3542187 3.5,11.1125 L3.5,10.2375 C3.5,9.99578125 3.69578125,9.8 3.9375,9.8 L5.6875,9.8 C5.92921875,9.8 6.125,9.99578125 6.125,10.2375 L6.125,11.1125 C6.125,11.3542187 5.92921875,11.55 5.6875,11.55 L3.9375,11.55 Z" id="Combined-Shape"></path>
                    </g>
                </g>
            </g>
        </g>
    </g>
</svg>