<?xml version="1.0" encoding="UTF-8"?>
<svg width="30px" height="30px" viewBox="0 0 30 30" version="1.1" xmlns="http://www.w3.org/2000/svg" xmlns:xlink="http://www.w3.org/1999/xlink">
    <!-- Generator: Sketch 50.2 (55047) - http://www.bohemiancoding.com/sketch -->
    <title>notif_cendol</title>
    <desc>Created with Sketch.</desc>
    <defs>
        <linearGradient x1="50%" y1="0%" x2="48.1744285%" y2="123.620087%" id="linearGradient-1">
            <stop stop-color="#C0EDC2" offset="0%"></stop>
            <stop stop-color="#A9E7AC" offset="15.6430636%"></stop>
            <stop stop-color="#8ADE8E" offset="88.4277747%"></stop>
            <stop stop-color="#30C436" offset="100%"></stop>
        </linearGradient>
    </defs>
    <g id="Symbols" stroke="none" stroke-width="1" fill="none" fill-rule="evenodd">
        <g id="notif---web-copy" transform="translate(-13.000000, -215.000000)">
            <g id="notif_cendol" transform="translate(13.000000, 215.000000)">
                <circle id="Oval-3-Copy" fill="url(#linearGradient-1)" fill-rule="nonzero" cx="15" cy="15" r="15"></circle>
                <g id="Group-3-Copy" transform="translate(8.000000, 7.000000)">
                    <path d="M0.15498661,8.55636145 C1.64275782,7.36941991 3.88631543,7.31792545 6.88565943,8.40187805 C9.88500344,9.48583065 12.1955243,8.68520464 13.8172222,6 C14.2464736,12.4 11.8808221,15.6 6.72026752,15.6 C1.55971298,15.6 -0.628713993,13.2521205 0.15498661,8.55636145 Z" id="Path-3" fill="#50AE5E"></path>
                    <path d="M0.15498661,5.55636145 C1.64275782,4.36941991 3.88631543,4.31792545 6.88565943,5.40187805 C9.88500344,6.48583065 12.1955243,5.68520464 13.8172222,3 C14.2464736,9.4 11.8808221,12.6 6.72026752,12.6 C1.55971298,12.6 -0.628713993,10.2521205 0.15498661,5.55636145 Z" id="Path-3" fill="#50AE5E"></path>
                    <path d="M0.965477227,1.00385858 L0.965477227,11.4756094 C0.965477227,13.4170719 2.4841729,14.9961414 4.35140586,14.9961414 L9.51477807,14.9961414 C11.382011,14.9961414 12.9011894,13.4170719 12.9011894,11.4756094 L12.9011894,1.00385858 L0.965477227,1.00385858 Z M9.51477807,16 L4.35140586,16 C1.95219495,16 0,13.9701979 0,11.4756094 L0,0 L13.8666667,0 L13.8666667,11.4756094 C13.8666667,13.9701979 11.9144717,16 9.51477807,16 Z" id="Fill-1" fill="#50AE5E"></path>
                    <path d="M14,4 C15.4222222,4.09277979 16.1333333,5.13905151 16.1333333,7.13881516 C16.1333333,9.13857881 15.4222222,10.2256404 14,10.4" id="Path-4" stroke="#50AE5E"></path>
                </g>
            </g>
        </g>
    </g>
</svg>