<svg xmlns="http://www.w3.org/2000/svg" xmlns:xlink="http://www.w3.org/1999/xlink" width="28" height="28" viewBox="0 0 28 28">
    <defs>
        <path id="a" d="M0 0h28v28H0z"/>
    </defs>
    <g fill="none" fill-rule="evenodd">
        <g>
            <mask id="b" fill="#fff">
                <use xlink:href="#a"/>
            </mask>
            <path fill="#F4A622" d="M28 14c0 7.731-6.268 14-14 14C6.269 28 0 21.73 0 14 0 6.268 6.269 0 14 0c7.732 0 14 6.268 14 14" mask="url(#b)"/>
        </g>
        <path fill="#FFF" d="M24.82 21.5c-.508-.469-1.125-.837-1.365-2.411 2.508-2.306 1.902-5.605-1.374-7.395l.002.143c0 4.375-4.724 7.728-10.362 7.543 1.389 1.106 3.426 1.803 5.696 1.803 1.273 0 2.471-.22 3.526-.607 1.061.797 2.365 1.282 3.75 1.423.138.012.268-.072.3-.196.034-.129-.07-.208-.173-.302m-12.653-3.828c-1.372 0-2.662-.242-3.798-.667-1.143.876-2.547 1.41-4.038 1.564l-.032.001a.3.3 0 0 1-.292-.216c-.036-.141.075-.229.187-.332.547-.517 1.21-.922 1.47-2.654C4.62 14.39 4 13.164 4 11.837 4 8.613 7.657 6 12.167 6s8.166 2.613 8.166 5.837c0 3.226-3.656 5.836-8.166 5.836"/>
        <path fill="#F4A622" d="M12.124 8.208L11.27 9.76l-1.91.25c-.344.045-.482.425-.232.64l1.382 1.208-.328 1.704c-.059.309.303.54.607.395l1.71-.804 1.71.804c.304.143.666-.086.608-.395l-.327-1.704 1.383-1.208c.249-.215.111-.595-.233-.64l-1.912-.25-.853-1.55c-.153-.277-.597-.28-.75 0"/>
    </g>
</svg>
