<svg xmlns="http://www.w3.org/2000/svg" viewBox="0 0 72.74 55.94"><defs><style>.cls-1{fill:#1ba89e;}</style></defs><title>Fast</title><g id="Layer_2" data-name="Layer 2"><g id="Layer_1-2" data-name="Layer 1"><circle class="cls-1" cx="65.24" cy="8.94" r="7.5"/><path class="cls-1" d="M29.71,28.8l-.62-.69-.52-.61a32.16,32.16,0,0,1-2.41-3.1l-2.28,7.93,7.8-1.07A28.14,28.14,0,0,0,29.71,28.8Z"/><path class="cls-1" d="M20.66,44.08A5.51,5.51,0,0,1,16,41.49l-9.32,7a4.06,4.06,0,0,0-.79,5.68l.09.11a4.06,4.06,0,0,0,5.68.79L27.47,43.19l-6,.83A5.57,5.57,0,0,1,20.66,44.08Z"/><path class="cls-1" d="M68.62,29.55,56,23.13V9a2.55,2.55,0,0,0-.4-1.3,1.42,1.42,0,0,0-.09-.21c0-.06-.11-.09-.16-.15A2.55,2.55,0,0,0,55,6.94a8.29,8.29,0,0,0-3.51-1.7,9.61,9.61,0,0,0-2.87,0l3.05,2.14a4.13,4.13,0,1,1-4.74,6.76l-8.56-6c-1.62,1-7.93,4.77-10.17,7.57a8.65,8.65,0,0,0-1.59,6.15c.31,1.5,2.64,4,3.66,5.27l.52.58a57.68,57.68,0,0,1,3.6,4.66l-14.27,2a4.06,4.06,0,0,0-3.47,4.57l0,.14a4.06,4.06,0,0,0,4.57,3.47l21.26-2.92.27-.06.19,0a4,4,0,0,0,2.45-1.84l.13-.22a4,4,0,0,0,.36-1A4,4,0,0,0,46,35.27c0-.07,0-.15,0-.22v0a3.9,3.9,0,0,0-.18-.79,4,4,0,0,0-.46-1c0-.05,0-.12-.08-.17l-7.38-9.8c2.76-2.31,7-4.25,12.92-6.77v8.21a2.48,2.48,0,0,0,.07.36,2.58,2.58,0,0,0,.11.56,5.77,5.77,0,0,0,.53.85,2.58,2.58,0,0,0,.38.3,2.49,2.49,0,0,0,.34.27l14,7.15a2.63,2.63,0,1,0,2.38-4.68Z"/><path class="cls-1" d="M50.79,8.64,39.14.48A2.47,2.47,0,0,0,38.8.33a2.56,2.56,0,0,0-.6-.26c-.07,0-.14,0-.2,0a2.55,2.55,0,0,0-.77,0L21.63,2.21a2.63,2.63,0,0,0,.73,5.2L36.95,5.36l10.83,7.58a2.63,2.63,0,0,0,3-4.3Z"/><path class="cls-1" d="M25.8,12.28H12.08a.15.15,0,1,1,0-.3H25.8a.15.15,0,1,1,0,.3Z"/><path class="cls-1" d="M20.46,17.41H.15a.15.15,0,1,1,0-.3H20.46a.15.15,0,1,1,0,.3Z"/><path class="cls-1" d="M22.76,22.6H8.94a.15.15,0,0,1,0-.3H22.76a.15.15,0,0,1,0,.3Z"/></g></g></svg>