<svg xmlns="http://www.w3.org/2000/svg" viewBox="0 0 55.95 53.88"><defs><style>.cls-1{fill:#09f;}.cls-2{fill:#333;}.cls-3,.cls-4{fill:#4d4d4d;}.cls-4{fill-rule:evenodd;}.cls-5{fill:#1a1a1a;}</style></defs><title>mic</title><g id="Layer_2" data-name="Layer 2"><g id="Layer_1-2" data-name="Layer 1"><path class="cls-1" d="M.62,28.77s-4.22,19,9.3,24.07S56,42.71,56,42.71V38.48s-34.63,11-41.39,8.45S.62,28.77.62,28.77Z"/><ellipse class="cls-2" cx="10.62" cy="9.36" rx="8.72" ry="9.36"/><rect class="cls-3" x="0.42" y="8.4" width="20.43" height="1.91" rx="0.95"/><path class="cls-4" d="M5.81,16.83,7.63,49.52h4.49l3.32-32.69A58.4,58.4,0,0,0,5.81,16.83Z"/><circle class="cls-5" cx="7.25" cy="2.23" r="0.38"/><circle class="cls-5" cx="9.17" cy="0.92" r="0.38"/><circle class="cls-5" cx="4.16" cy="5.05" r="0.38"/><circle class="cls-5" cx="3.11" cy="7.12" r="0.38"/><circle class="cls-5" cx="17.01" cy="5.05" r="0.38"/><circle class="cls-5" cx="12.34" cy="0.92" r="0.38"/><circle class="cls-5" cx="10.62" cy="2.23" r="0.38"/><circle class="cls-5" cx="14" cy="2.23" r="0.38"/><circle class="cls-5" cx="7.25" cy="15.73" r="0.38"/><circle class="cls-5" cx="10.62" cy="15.73" r="0.38"/><circle class="cls-5" cx="14" cy="15.73" r="0.38"/><circle class="cls-5" cx="7.25" cy="5.05" r="0.38"/><circle class="cls-5" cx="18.05" cy="6.92" r="0.38"/><circle class="cls-5" cx="10.62" cy="5.05" r="0.38"/><circle class="cls-5" cx="14" cy="5.05" r="0.38"/><circle class="cls-5" cx="4.16" cy="13.02" r="0.38"/><circle class="cls-5" cx="17.01" cy="13.02" r="0.38"/><circle class="cls-5" cx="7.25" cy="13.02" r="0.38"/><circle class="cls-5" cx="10.62" cy="13.02" r="0.38"/><circle class="cls-5" cx="14" cy="13.02" r="0.38"/><circle class="cls-5" cx="5.41" cy="3.57" r="0.38"/><circle class="cls-5" cx="8.79" cy="3.57" r="0.38"/><circle class="cls-5" cx="12.16" cy="3.57" r="0.38"/><circle class="cls-5" cx="15.56" cy="3.57" r="0.38"/><circle class="cls-5" cx="5.41" cy="14.45" r="0.38"/><circle class="cls-5" cx="8.79" cy="14.45" r="0.38"/><circle class="cls-5" cx="12.16" cy="14.45" r="0.38"/><circle class="cls-5" cx="15.56" cy="14.45" r="0.38"/><circle class="cls-5" cx="5.8" cy="6.92" r="0.38"/><circle class="cls-5" cx="8.79" cy="6.92" r="0.38"/><circle class="cls-5" cx="12.16" cy="6.92" r="0.38"/><circle class="cls-5" cx="15.56" cy="6.92" r="0.38"/><circle class="cls-5" cx="3.11" cy="11.45" r="0.38"/><circle class="cls-5" cx="17.71" cy="11.45" r="0.38"/><circle class="cls-5" cx="5.46" cy="11.45" r="0.38"/><circle class="cls-5" cx="8.45" cy="11.45" r="0.38"/><circle class="cls-5" cx="11.82" cy="11.45" r="0.38"/><circle class="cls-5" cx="15.23" cy="11.45" r="0.38"/><path class="cls-1" d="M.62,36.8S-.64,24.55,3.16,22s11.49-2,11.65,2.81S14.56,44,9.07,45.24-.22,40.6.62,36.8Z"/></g></g></svg>