<?xml version="1.0" encoding="UTF-8"?>
<svg width="300px" height="130px" viewBox="0 0 300 130" version="1.1" xmlns="http://www.w3.org/2000/svg" xmlns:xlink="http://www.w3.org/1999/xlink">
    <!-- Generator: Sketch 52.6 (67491) - http://www.bohemiancoding.com/sketch -->
    <title>pop up following</title>
    <desc>Created with Sketch.</desc>
    <defs>
        <path d="M2.63421053,5.04482759 C3.42368421,4.332 4.26578947,3.51434483 5.14473684,2.57089655 L2.63421053,5.04482759 Z" id="path-1"></path>
        <linearGradient x1="127.26638%" y1="500.57212%" x2="36.18124%" y2="-30.42978%" id="linearGradient-3">
            <stop stop-color="#FF0000" offset="0%"></stop>
            <stop stop-color="#C1262D" offset="100%"></stop>
        </linearGradient>
        <path d="M0.981578947,4.13806897 C1.18157895,4.06206897 1.37894737,3.99917241 1.57368421,3.93889655 C2.12894737,3.724 3.02631579,3.32565517 4.17105263,2.61544828 L0.981578947,4.13806897 Z" id="path-4"></path>
        <linearGradient x1="145.352962%" y1="723.58568%" x2="97.6581353%" y2="386.59144%" id="linearGradient-6">
            <stop stop-color="#FF0000" offset="0%"></stop>
            <stop stop-color="#C1262D" offset="100%"></stop>
        </linearGradient>
        <path d="M35.9236842,0.0849655172 C35.6105263,0.0928275862 35.2789474,0.14262069 34.9315789,0.244827586 C34.8,0.286758621 34.6684211,0.331310345 34.5289474,0.386344828 C34.5289474,0.386344828 34.5605263,0.386344828 34.6052632,0.383724138 C34.8815789,0.362758621 35.8026316,0.36537931 35.2447368,1.24331034 C35.2289474,1.26951724 35.2131579,1.29048276 35.1973684,1.31406897 C36.05,0.580275862 37.6657895,-0.0775172414 39.6684211,2.50910345 C39.6684211,2.50910345 39.3684211,1.95875862 38.7973684,1.38482759 C38.2421053,0.82137931 37.4289474,0.234344828 36.3947368,0.105931034 C36.2973684,0.0954482759 36.1947368,0.0875862069 36.0921053,0.0849655172 L35.9236842,0.0849655172 Z M34.5289474,2.0662069 C34.8447368,1.76482759 35.0578947,1.51848276 35.1973684,1.31406897 C34.7684211,1.68358621 34.5289474,2.0662069 34.5289474,2.0662069 Z M29.7026316,2.3937931 L27.95,3.11448276 L27.1736842,3.85089655 C28.5078947,2.79213793 29.7236842,2.3937931 29.7236842,2.3937931 L29.7026316,2.3937931 Z M16.3026316,19.9157241 C15.4236842,20.8591724 14.5815789,21.6768276 13.7921053,22.3896552 C12.3815789,23.6449655 11.1157895,24.5517241 10.0657895,25.2016552 C8.92105263,25.9118621 8.02368421,26.3102069 7.46842105,26.5251034 C10.7578947,25.5502069 13.1631579,26.8317241 14.6131579,28.1053793 C15.0684211,28.5037241 15.4289474,28.8968276 15.6973684,29.2217931 C12.7789474,24.7797241 15.6368421,20.7595862 16.4394737,19.7768276 C16.4947368,19.7113103 16.5394737,19.6588966 16.5710526,19.6195862 C16.4815789,19.7191724 16.3894737,19.8135172 16.3026316,19.9157241 Z M1.91052632,27.769931 C1.25,28.5168276 0.823684211,29.1667586 0.563157895,29.7302069 C0.0105263158,30.9147586 0.184210526,31.714069 0.468421053,32.1962759 C0.563157895,32.3587586 0.671052632,32.4871724 0.768421053,32.5815172 C0.921052632,32.7335172 1.05,32.8068966 1.05,32.8068966 C-0.352631579,30.9173793 0.623684211,29.8402759 1.32631579,29.365931 C1.57368421,29.2008276 1.78684211,29.1091034 1.85526316,29.0828966 C0.389473684,29.6515862 1.48684211,28.294069 2.45,27.2588966 C2.97631579,26.6875862 3.46842105,26.2158621 3.46842105,26.2158621 C2.84210526,26.7714483 2.33157895,27.2929655 1.91052632,27.769931 Z M6.87631579,26.7242759 C6.85526316,26.7295172 6.83947368,26.7347586 6.81578947,26.7426207 C6.81578947,26.7426207 6.83157895,26.7373793 6.85526316,26.7347586 C6.93421053,26.7111724 7.14473684,26.6508966 7.46842105,26.5251034 C7.27368421,26.5853793 7.07631579,26.6482759 6.87631579,26.7242759 Z M16.2552632,30.0001379 C16.2552632,30.0001379 16.0657895,29.6777931 15.6973684,29.2217931 C15.8631579,29.4812414 16.0447368,29.7406897 16.2552632,30.0001379 Z M28.8894737,53.8405517 C28.85,53.8536552 28.8157895,53.8667586 28.7736842,53.8798621 C28.7736842,53.8798621 29.2105263,53.7933793 29.8684211,53.5706207 C30.7026316,53.2849655 31.8973684,52.7713103 33.0447368,51.9143448 C33.9289474,51.2617931 34.7815789,50.4048276 35.4263158,49.2936552 C35.4263158,49.2936552 33.6605263,51.4321379 31.4447368,49.8466207 C31.1210526,49.6133793 30.7868421,49.3041379 30.4473684,48.8953103 C30.4473684,48.8953103 32.9921053,52.5118621 28.8894737,53.8405517 Z" id="path-7"></path>
        <linearGradient x1="122.191432%" y1="25.4025605%" x2="23.2539094%" y2="81.132222%" id="linearGradient-9">
            <stop stop-color="#FF0000" offset="0%"></stop>
            <stop stop-color="#C1262D" offset="100%"></stop>
        </linearGradient>
        <path d="M20.9378755,43.5831313 C20.4756298,44.5743292 16.0849907,44.5030642 16.2942177,43.5458709 C17.4116011,37.8359923 18.4358403,33.025065 19.5633027,27.263456 C22.1786402,27.5575596 24.4940393,27.8176586 27.2869765,28.1316585 C25.0848797,33.7312031 23.2223423,38.6839368 20.9378755,43.5831313 Z M17.0726908,28.9000161 C15.4938866,33.0538466 14.0809659,37.6946042 12.2838938,41.1998141 C11.7589596,42.2238744 7.6176906,42.1873271 7.64424652,41.3467413 C8.19719178,36.1485464 8.71739687,32.5772562 9.20013263,28.0376495 C11.6829296,28.309354 14.1559045,28.5803202 17.0726908,28.9000161 Z M11.5426006,44.8324596 C11.780635,46.2882014 10.5804589,47.748145 8.86143702,48.0930768 C7.14207013,48.4380085 5.55551951,47.5376717 5.31714019,46.0819299 C5.07876088,44.6258062 6.27928189,43.1662445 7.99864878,42.8209308 C9.71732571,42.4759991 11.3045663,43.3763358 11.5426006,44.8324596 Z M20.1869484,47.9137334 C20.4190293,49.3674 19.2132173,50.8325098 17.4934637,51.1861044 C15.77371,51.539699 14.1911869,50.6475116 13.9584332,49.193845 C13.7263522,47.7401784 14.9321643,46.2750686 16.6519179,45.921474 C18.3720079,45.5678794 19.9545311,46.4596854 20.1869484,47.9137334 Z" id="path-10"></path>
    </defs>
    <g id="THREAD-DETAIL" stroke="none" stroke-width="1" fill="none" fill-rule="evenodd">
        <g id="pop-up-cendol-copy" transform="translate(-570.000000, -621.000000)">
            <g id="Group-5" transform="translate(570.000000, 614.000000)">
                <g id="Group-75" transform="translate(49.000000, 11.000000)">
                    <g id="Group-31" transform="translate(39.473684, 28.845807)">
                        <path d="M130.182368,54.9333241 C130.182368,54.9333241 125.540263,64.4542897 116.977105,66.7342897 C108.413947,69.0169103 98.0876316,70.2486345 98.0876316,70.2486345 L95.1665789,80.1364966 C95.1665789,80.1364966 109.987632,77.5787034 119.748158,78.7580138 C129.506053,79.9399448 150.406053,65.3977379 150.406053,65.3977379 L130.182368,54.9333241 Z" id="Fill-1" fill="#0082C6"></path>
                        <path d="M100.208421,79.4100414 L112.116316,78.4692138 C112.116316,78.4692138 117.242632,71.1810759 116.208421,66.9355586 L99.8742105,70.014869 L100.208421,79.4100414 Z" id="Fill-3" fill="#006699"></path>
                        <path d="M62.7507895,68.6201379 C62.7507895,68.6201379 56.1718421,92.6466207 57.0455263,106.185103 C57.0455263,106.185103 66.2560526,113.606897 89.5034211,107.930483 C89.5034211,107.930483 85.1192105,72.1161379 81.1718421,66.8747586 C77.2244737,61.6333793 62.7507895,68.6201379 62.7507895,68.6201379" id="Fill-5" fill="#0082C6"></path>
                        <path d="M84.4202632,108.992648 C86.8465789,74.499131 76.9939474,78.2807862 67.1360526,80.4166483 C58.7834211,82.2223034 61.5544737,101.979683 62.7571053,108.730579 C67.115,109.975407 74.1702632,110.829752 84.4202632,108.992648" id="Fill-7" fill="#00A9E9"></path>
                        <path d="M61.1676316,74.9595862 C67.1097368,77.0875862 75.0202632,78.397931 84.3439474,76.4009655 C83.315,71.8855172 82.2255263,68.2794483 81.1728947,66.8747586 C77.2255263,61.6333793 62.7518421,68.6201379 62.7518421,68.6201379 C62.7518421,68.6201379 62.0623684,71.1281379 61.1676316,74.9595862" id="Fill-9" fill="#006699"></path>
                        <path d="M12.8418421,74.9658759 C12.8418421,74.9658759 21.6207895,80.9305655 30.1892105,78.6689103 C38.7602632,76.4098759 48.3313158,72.3661517 48.3313158,72.3661517 L55.805,79.499669 C55.805,79.499669 41.6681579,84.6178759 33.7892105,90.4724966 C25.9102632,96.3297379 0.515526316,94.0576 0.515526316,94.0576 L12.8418421,74.9658759 Z" id="Fill-11" fill="#0082C6"></path>
                        <path d="M51.9018421,72.3656276 L50.4781579,81.5380414 C47.5702632,82.8719724 43.5860526,84.5701793 41.3018421,85.8962483 C37.4992105,83.6136276 35.3439474,80.2617655 33.7544737,77.6515586 C44.7281579,73.5344552 51.9018421,72.3656276 51.9018421,72.3656276" id="Fill-13" fill="#006699"></path>
                        <path d="M117.813421,45.5331724 C117.813421,70.3537241 97.6081579,90.4675172 72.6871053,90.4675172 C47.7634211,90.4675172 27.5581579,70.3537241 27.5581579,45.5331724 C27.5581579,20.7126207 47.7634211,0.593586207 72.6871053,0.593586207 C97.6081579,0.593586207 117.813421,20.7126207 117.813421,45.5331724" id="Fill-15" fill="#0082C6"></path>
                        <path d="M146.426842,25.1035862 C146.426842,25.1035862 134.155789,31.3355862 131.555789,33.550069 C128.966316,35.7566897 129.224211,39.0928276 130.166316,42.0332414 C131.108421,44.9762759 128.545263,46.0088276 128.971579,50.8754483 C129.400526,55.742069 138.392632,65.1634483 141.145263,64.4768276 C143.913684,63.8033103 149.671579,58.3548966 150.226842,57.3302069 C150.79,56.3186207 152.963684,36.1891034 152.963684,36.1891034 L146.426842,25.1035862 Z" id="Fill-17" fill="#004799"></path>
                        <path d="M155.080789,34.2338069 C155.080789,34.2338069 150.141316,24.1677379 154.267632,15.3150483 C158.399211,6.46497931 151.833421,4.91877241 146.746579,7.29573793 C141.657105,9.67008276 137.765,22.3882897 140.515,25.9314621 C143.257105,29.4720138 145.199211,32.5591862 143.762368,36.7916 C142.336053,41.0240138 139.059737,58.4987724 146.136053,57.9169793 C153.225526,57.3325655 155.080789,34.2338069 155.080789,34.2338069" id="Fill-19" fill="#006699"></path>
                        <path d="M159.853158,38.9185517 C159.853158,38.9185517 160.876842,33.4386897 157.782105,32.1021379 C154.69,30.7577241 151.303158,33.782 146.145263,30.5061379 C140.99,27.2302759 132.803158,23.9727586 131.234737,26.6353793 C129.674211,29.2901379 126.292632,32.3144138 131.853158,35.6977241 C137.405789,39.0915172 141.405789,40.2498621 141.405789,40.2498621 C141.405789,40.2498621 129.297895,37.1836552 128.018947,40.3782759 C126.747895,43.5624138 127.003158,45.8581379 129.584737,47.4934483 C132.161053,49.134 140.084737,50.0957931 140.084737,50.0957931 C140.084737,50.0957931 128.921579,49.9726207 128.845263,53.507931 C128.774211,57.0458621 139.897895,58.9275172 139.897895,58.9275172 C139.897895,58.9275172 126.700526,59.9993793 129.637368,63.5137241 C132.576842,67.035931 138.400526,67.8352414 142.834737,67.339931 C147.274211,66.8472414 153.963684,69.232069 155.168947,64.6904138 C156.376842,60.1461379 153.79,58.5055862 155.792632,54.1997931 C157.797895,49.8861379 159.853158,38.9185517 159.853158,38.9185517" id="Fill-21" fill="#0082C6"></path>
                        <path d="M148.334737,66.1747724 C148.334737,66.1747724 156.300526,66.4499448 155.168947,64.6914621 C154.032105,62.9224966 152.650526,61.4522897 152.650526,61.4522897 L148.334737,66.1747724 Z" id="Fill-23" fill="#00A9E9"></path>
                        <path d="M139.896579,58.9283034 C139.896579,58.9283034 128.772895,57.0440276 128.846579,53.5087172 C128.922895,49.9734069 140.086053,50.0965793 140.086053,50.0965793 C140.086053,50.0965793 132.159737,49.1347862 129.583421,47.4942345 C127.004474,45.8589241 126.749211,43.5632 128.020263,40.3764414 C129.299211,37.1844414 141.404474,40.2506483 141.404474,40.2506483 C141.404474,40.2506483 137.404474,39.0923034 131.851842,35.6985103 C126.291316,32.3152 129.672895,29.2909241 131.236053,26.6335448 C132.415,24.6392 137.322895,25.9836138 141.880789,28.1561655 C140.586053,28.2924414 139.588684,28.6960276 139.225526,29.5425103 C137.738684,32.9598897 140.788684,37.7059586 143.188684,38.4030621 C145.586053,39.0896828 150.433421,41.3906483 150.433421,41.3906483 C150.433421,41.3906483 140.133421,40.1798897 138.343947,42.6276138 C136.546579,45.0674759 140.778158,47.4785103 142.109737,47.8637517 C143.449211,48.2516138 151.036053,51.045269 151.036053,51.045269 C151.036053,51.045269 137.991316,49.3313379 137.451842,52.4473379 C136.920263,55.5528552 147.509737,58.9152 147.509737,58.9152 C147.509737,58.9152 140.046579,60.0106483 140.380789,63.0716138 C140.630789,65.3542345 145.543947,66.8506483 148.036053,67.4586483 C146.249211,67.3485793 144.401842,67.1677517 142.833421,67.3407172 C138.399211,67.8334069 132.575526,67.0367172 129.638684,63.5145103 C126.699211,60.0001655 139.896579,58.9283034 139.896579,58.9283034" id="Fill-25" fill="#006699"></path>
                        <path d="M158.167368,40.3633379 C158.167368,40.3633379 160.717368,37.2499586 158.683158,35.1796138 C156.654211,33.1014069 155.388421,35.6985103 152.535789,34.5768552 C149.667368,33.4578207 146.298947,34.257131 149.859474,37.0665103 C153.42,39.8758897 154.804211,37.9077517 154.248947,42.1899586 C153.683158,46.4669241 148.543684,42.0274759 149.877895,45.6702345 C151.204211,49.3103724 152.443684,47.8925793 152.512105,50.8801655 C152.583158,53.865131 149.864737,55.4427862 151.462105,59.1694069 C153.059474,62.8881655 155.167368,64.6912 155.167368,64.6912 C155.167368,64.6912 152.385789,60.0316138 153.82,55.6969931 C155.248947,51.3728552 156.612105,44.0663724 156.612105,44.0663724 L158.167368,40.3633379 Z" id="Fill-27" fill="#00A9E9"></path>
                        <path d="M69.8089474,12.0548828 L64.6273684,21.3137793 C62.0984211,17.7312966 57.9773684,15.3255034 53.2457895,15.1735034 C45.2431579,14.9166759 38.5536842,21.1722621 38.2984211,29.1391586 C38.0431579,37.1086759 44.3194737,43.770469 52.3221053,44.0246759 C60.2694737,44.2762621 66.9221053,38.1019172 67.2563158,30.2084 C70.9615789,30.6119862 75.1642105,30.7404 77.2405263,29.6449517 C81.4142105,27.4461931 85.0694737,13.1110207 85.0694737,13.1110207 C79.9378947,11.7404 74.7747368,11.4442621 69.8089474,12.0548828" id="Fill-29" fill="#006699"></path>
                    </g>
                    <g id="Group-34" transform="translate(92.105263, 7.880290)">
                        <mask id="mask-2" fill="white">
                            <use xlink:href="#path-1"></use>
                        </mask>
                        <g id="Clip-33"></g>
                        <path d="M2.63421053,5.04482759 C3.42368421,4.332 4.26578947,3.51434483 5.14473684,2.57089655 L2.63421053,5.04482759 Z" id="Fill-32" fill="url(#linearGradient-3)" mask="url(#mask-2)"></path>
                    </g>
                    <g id="Group-39" transform="translate(80.947368, 0.535462)">
                        <path d="M35.3421053,49.2152966 C34.2868421,50.3605379 32.9973684,50.9580552 31.4447368,49.8468828 L14.6157895,28.1056414 C15.0684211,28.5039862 15.4289474,28.8970897 15.6947368,29.2220552 C15.8631579,29.4815034 16.0447368,29.7409517 16.2552632,30.0004 C16.2552632,30.0004 16.0657895,29.6754345 15.6947368,29.2220552 C12.7763158,24.7799862 15.6368421,20.7598483 16.4394737,19.7770897 L35.2447368,1.24357241 C35.2289474,1.26977931 35.2157895,1.29074483 35.1973684,1.31433103 C34.7684211,1.68122759 34.5289474,2.06646897 34.5289474,2.06646897 C34.8447368,1.76508966 35.0578947,1.51874483 35.1973684,1.31433103 C36.0526316,0.580537931 37.6657895,-0.0772551724 39.6710526,2.50936552 L51.1815789,17.3739172 C51.1815789,17.3739172 52.8052632,20.0627448 51.1684211,22.8039862 L51.2184211,22.8092276 C51.1789474,22.8747448 51.1394737,22.9428828 51.0973684,23.0084 C48.4842105,27.4006759 45.8736842,31.7981931 43.2631579,36.190469 C41.4763158,39.1937793 39.6921053,42.194469 37.9078947,45.1977793 C37.2763158,46.2565379 36.4368421,48.0281241 35.3421053,49.2152966" id="Fill-35" fill="#A4272D"></path>
                        <path d="M22.7560526,55.4879172 C19.1797368,56.3396414 16.9192105,53.0821241 16.8376316,53.3153655 L16.8323684,53.328469 L0.769210526,32.580469 C0.921842105,32.7350897 1.04815789,32.8058483 1.04815789,32.8058483 C-0.351842105,30.9189517 0.624473684,29.8392276 1.32710526,29.3648828 L6.85605263,26.7337103 C6.93236842,26.7127448 7.14289474,26.652469 7.46921053,26.5266759 C10.7560526,25.5491586 13.1613158,26.8306759 14.6139474,28.1069517 L31.4428947,49.8481931 C31.1218421,49.6149517 30.7876316,49.3030897 30.4481579,48.8942621 C30.4481579,48.8942621 32.9928947,52.5108138 28.8928947,53.8421241 L22.7007895,55.5639172 L22.7560526,55.4879172 Z" id="Fill-37" fill="#ED1C24"></path>
                    </g>
                    <g id="Group-42" transform="translate(86.842105, 13.121669)">
                        <mask id="mask-5" fill="white">
                            <use xlink:href="#path-4"></use>
                        </mask>
                        <g id="Clip-41"></g>
                        <path d="M0.981578947,4.13806897 C1.18157895,4.06206897 1.37894737,3.99917241 1.57368421,3.93889655 C2.12894737,3.724 3.02631579,3.32565517 4.17105263,2.61544828 L0.981578947,4.13806897 Z" id="Fill-40" fill="url(#linearGradient-6)" mask="url(#mask-5)"></path>
                    </g>
                    <path d="M116.191842,1.77982069 L97.3865789,20.3107172 C97.4760526,20.203269 97.5392105,20.1325103 97.5681579,20.1010621 C97.5734211,20.0958207 97.5786842,20.0905793 97.5813158,20.0853379 C97.5813158,20.0853379 97.5786842,20.0905793 97.5681579,20.1010621 C97.4602632,20.2216138 97.355,20.3343034 97.2497368,20.4496138 L94.7392105,22.9235448 C93.3286842,24.1814759 92.0628947,25.0882345 91.0128947,25.7381655 L87.8234211,27.2581655 C87.8023684,27.2660276 87.7865789,27.271269 87.7655263,27.279131 C87.7655263,27.279131 87.7786842,27.2738897 87.8023684,27.271269 L82.2734211,29.8998207 C82.5734211,29.7006483 82.8234211,29.6089241 82.8234211,29.6089241 C81.3260526,30.2012 82.4286842,28.8358207 83.3971053,27.7954069 L108.120789,4.38478621 C109.452368,3.32864828 110.670789,2.93030345 110.670789,2.93030345 L110.652368,2.93030345 L115.552368,0.917613793 C115.831316,0.899268966 116.749737,0.901889655 116.191842,1.77982069" id="Fill-43" fill="#8B272D"></path>
                    <g id="Group-47" transform="translate(80.947368, 0.535462)">
                        <mask id="mask-8" fill="white">
                            <use xlink:href="#path-7"></use>
                        </mask>
                        <g id="Clip-46"></g>
                        <path d="M35.9236842,0.0849655172 C35.6105263,0.0928275862 35.2789474,0.14262069 34.9315789,0.244827586 C34.8,0.286758621 34.6684211,0.331310345 34.5289474,0.386344828 C34.5289474,0.386344828 34.5605263,0.386344828 34.6052632,0.383724138 C34.8815789,0.362758621 35.8026316,0.36537931 35.2447368,1.24331034 C35.2289474,1.26951724 35.2131579,1.29048276 35.1973684,1.31406897 C36.05,0.580275862 37.6657895,-0.0775172414 39.6684211,2.50910345 C39.6684211,2.50910345 39.3684211,1.95875862 38.7973684,1.38482759 C38.2421053,0.82137931 37.4289474,0.234344828 36.3947368,0.105931034 C36.2973684,0.0954482759 36.1947368,0.0875862069 36.0921053,0.0849655172 L35.9236842,0.0849655172 Z M34.5289474,2.0662069 C34.8447368,1.76482759 35.0578947,1.51848276 35.1973684,1.31406897 C34.7684211,1.68358621 34.5289474,2.0662069 34.5289474,2.0662069 Z M29.7026316,2.3937931 L27.95,3.11448276 L27.1736842,3.85089655 C28.5078947,2.79213793 29.7236842,2.3937931 29.7236842,2.3937931 L29.7026316,2.3937931 Z M16.3026316,19.9157241 C15.4236842,20.8591724 14.5815789,21.6768276 13.7921053,22.3896552 C12.3815789,23.6449655 11.1157895,24.5517241 10.0657895,25.2016552 C8.92105263,25.9118621 8.02368421,26.3102069 7.46842105,26.5251034 C10.7578947,25.5502069 13.1631579,26.8317241 14.6131579,28.1053793 C15.0684211,28.5037241 15.4289474,28.8968276 15.6973684,29.2217931 C12.7789474,24.7797241 15.6368421,20.7595862 16.4394737,19.7768276 C16.4947368,19.7113103 16.5394737,19.6588966 16.5710526,19.6195862 C16.4815789,19.7191724 16.3894737,19.8135172 16.3026316,19.9157241 Z M1.91052632,27.769931 C1.25,28.5168276 0.823684211,29.1667586 0.563157895,29.7302069 C0.0105263158,30.9147586 0.184210526,31.714069 0.468421053,32.1962759 C0.563157895,32.3587586 0.671052632,32.4871724 0.768421053,32.5815172 C0.921052632,32.7335172 1.05,32.8068966 1.05,32.8068966 C-0.352631579,30.9173793 0.623684211,29.8402759 1.32631579,29.365931 C1.57368421,29.2008276 1.78684211,29.1091034 1.85526316,29.0828966 C0.389473684,29.6515862 1.48684211,28.294069 2.45,27.2588966 C2.97631579,26.6875862 3.46842105,26.2158621 3.46842105,26.2158621 C2.84210526,26.7714483 2.33157895,27.2929655 1.91052632,27.769931 Z M6.87631579,26.7242759 C6.85526316,26.7295172 6.83947368,26.7347586 6.81578947,26.7426207 C6.81578947,26.7426207 6.83157895,26.7373793 6.85526316,26.7347586 C6.93421053,26.7111724 7.14473684,26.6508966 7.46842105,26.5251034 C7.27368421,26.5853793 7.07631579,26.6482759 6.87631579,26.7242759 Z M16.2552632,30.0001379 C16.2552632,30.0001379 16.0657895,29.6777931 15.6973684,29.2217931 C15.8631579,29.4812414 16.0447368,29.7406897 16.2552632,30.0001379 Z M28.8894737,53.8405517 C28.85,53.8536552 28.8157895,53.8667586 28.7736842,53.8798621 C28.7736842,53.8798621 29.2105263,53.7933793 29.8684211,53.5706207 C30.7026316,53.2849655 31.8973684,52.7713103 33.0447368,51.9143448 C33.9289474,51.2617931 34.7815789,50.4048276 35.4263158,49.2936552 C35.4263158,49.2936552 33.6605263,51.4321379 31.4447368,49.8466207 C31.1210526,49.6133793 30.7868421,49.3041379 30.4473684,48.8953103 C30.4473684,48.8953103 32.9921053,52.5118621 28.8894737,53.8405517 Z" id="Fill-45" fill="url(#linearGradient-9)" mask="url(#mask-8)"></path>
                    </g>
                    <g id="Group-74" transform="translate(0.000000, 43.466497)">
                        <path d="M104.149211,14.0438621 C103.920263,21.2848276 97.8334211,26.9691034 90.5623684,26.7411034 C83.2886842,26.5078621 77.5807895,20.4488276 77.815,13.2078621 C78.0439474,5.96427586 84.1281579,0.28 91.4018421,0.51062069 C98.6728947,0.741241379 104.383421,6.80027586 104.149211,14.0438621" id="Fill-48" fill="#CC9999"></path>
                        <path d="M99.26,11.4129517 C99.0915789,16.7408138 94.61,20.9234345 89.26,20.7530897 C83.9073684,20.5853655 79.7073684,16.1249517 79.8784211,10.7970897 C80.0494737,5.4666069 84.5257895,1.28398621 89.8784211,1.45433103 C95.2284211,1.62205517 99.4310526,6.08246897 99.26,11.4129517" id="Fill-50" fill="#FFCCCC"></path>
                        <path d="M108.505263,37.8966207 C108.505263,37.8966207 95.6473684,35.7633793 90.4447368,46.7388276 L87.0763158,45.5175862 C87.0763158,45.5175862 89.2184211,40.6404828 92.5868421,39.1152414 C92.5868421,39.1152414 89.8315789,38.2006207 87.6894737,40.0298621 L87.5342105,34.5211724 C87.5342105,34.5211724 98.7105263,30.5796552 108.2,35.4567586 L108.505263,37.8966207 Z" id="Fill-52" fill="#006699"></path>
                        <path d="M96.0386842,55.0988276 C100.817632,50.4575862 90.1860526,49.1105517 90.2597368,45.0144138 C84.2913158,49.6346897 90.2781579,60.6887586 96.0386842,55.0988276" id="Fill-54" fill="#FFFFFF"></path>
                        <path d="M143.703947,31.1158483 C144.506579,38.5821931 140.598684,45.1208138 134.975,45.7209517 C129.353947,46.3210897 124.143421,40.7521241 123.340789,33.2884 C122.538158,25.8194345 126.446053,19.2781931 132.067105,18.6806759 C137.690789,18.0805379 142.901316,23.6468828 143.703947,31.1158483" id="Fill-56" fill="#FFFFFF"></path>
                        <path d="M141.238158,32.1266483 C141.785526,37.2029241 138.951316,41.6633379 134.909211,42.0957517 C130.867105,42.5255448 127.146053,38.7622345 126.601316,33.6885793 C126.053947,28.6123034 128.890789,24.1466483 132.932895,23.7168552 C136.975,23.2844414 140.693421,27.0503724 141.238158,32.1266483" id="Fill-58" fill="#021A23"></path>
                        <path d="M137.298421,30.3545379 C137.532632,32.5428138 136.437895,34.4532966 134.858947,34.6210207 C133.277368,34.7887448 131.803684,33.1534345 131.569474,30.9651586 C131.332632,28.7795034 132.424737,26.8690207 134.008947,26.6986759 C135.587895,26.5309517 137.064211,28.1688828 137.298421,30.3545379" id="Fill-60" fill="#FFFFFF"></path>
                        <path d="M136.546842,57.7271172 C136.546842,57.7271172 108.586316,53.0360828 108.891579,67.5625655 C109.194211,82.091669 136.546842,57.7271172 136.546842,57.7271172" id="Fill-62" fill="#510D3A"></path>
                        <path d="M108.890789,67.5636138 C108.890789,67.5636138 118.275,60.4065103 124.890789,66.7616828 C124.890789,66.7616828 118.043421,71.0255448 115.935526,71.5575448 C113.827632,72.0921655 109.206579,73.6095448 108.890789,67.5636138" id="Fill-64" fill="#ED125F"></path>
                        <path d="M43.3865789,79.0317517 C43.3865789,79.0317517 47.8734211,75.7794759 48.2865789,73.7274759 C48.6971053,71.6780966 56.8523684,67.4980966 56.4128947,61.8662345 L50.3339474,58.585131 L39.2260526,76.7360276 C39.2260526,76.7360276 38.4813158,78.8535448 43.3865789,79.0317517" id="Fill-66" fill="#006699"></path>
                        <path d="M49.3986842,67.7965931 C49.3986842,67.7965931 55.0960526,58.2415586 52.3328947,53.8414207 C49.5671053,49.4439034 65.6460526,43.4241793 65.0697368,38.368869 C64.4907895,33.3109379 54.1328947,29.0549379 51.3855263,36.5370069 C48.6381579,44.0164552 45.2960526,47.1586621 42.3855263,47.7981103 C39.475,48.4323172 31.3486842,29.4821103 26.4986842,22.1441793 C21.6513158,14.8062483 14.1986842,22.5110759 17.3565789,25.8419724 C20.5118421,29.172869 32.1092105,40.6619724 27.3197368,43.7674897 C22.5328947,46.8677655 11.9276316,26.0463862 9.24342105,31.3690069 C6.55921053,36.6916276 9.675,41.4612828 19.2302632,48.5738345 C19.2302632,48.5738345 18.7328947,53.2386621 15.8644737,52.436731 C12.9960526,51.6348 1.70657895,41.9539724 1.91447368,47.3578345 C2.11973684,52.7643172 16.4828947,56.0559034 14.2328947,58.8705241 C11.9828947,61.6851448 -1.24605263,56.6272138 0.0960526316,60.264731 C1.43552632,63.9022483 18.3592105,66.1874897 20.4223684,69.8459724 C22.4855263,73.5044552 38.4355263,84.4012828 43.3092105,78.420869 C48.1802632,72.4404552 49.3986842,67.7965931 49.3986842,67.7965931" id="Fill-68" fill="#0082C6"></path>
                        <path d="M42.365,48.5161793 C42.365,48.5161793 40.0728947,52.7695586 40.0518421,59.7903862 C40.0281579,66.8085931 42.6807895,68.8632138 38.9965789,71.2794897 C35.3123684,73.6905241 26.8597368,72.1914897 22.4755263,67.5659724 C18.0913158,62.9404552 25.1834211,55.2251448 28.2492105,49.1923172 C31.315,43.1594897 37.0834211,43.6862483 38.2886842,45.6989379 C39.4965789,47.7142483 42.365,48.5161793 42.365,48.5161793" id="Fill-70" fill="#006699"></path>
                        <path d="M41.7842105,64.4578345 C41.7842105,64.4578345 41.3868421,53.1679034 43.5131579,50.4685931 C45.6394737,47.7692828 51.0736842,51.524731 51.5684211,55.2592138 C52.0631579,58.9936966 41.7842105,64.4578345 41.7842105,64.4578345" id="Fill-72" fill="#00A9E9"></path>
                    </g>
                </g>
                <g id="Group-35" transform="translate(212.990827, 29.828392) rotate(-25.000000) translate(-212.990827, -29.828392) translate(187.990827, 8.828392)" fill-rule="nonzero" stroke="#F8C31C" stroke-linecap="round" stroke-width="2">
                    <path d="M0.781219773,13 L20,0" id="Path-4"></path>
                    <path d="M8,26.38376 L20,22.5629843" id="Path-5" stroke-linejoin="round"></path>
                    <path d="M29,19.792479 L37.0922637,17.4747079" id="Path-8" stroke-linejoin="round"></path>
                    <path d="M12,40.1014504 L37.9521739,40.1014504" id="Path-9" stroke-linejoin="round"></path>
                    <path d="M43.9302581,40.5100501 L50,40.5100501" id="Path-10" stroke-linejoin="round"></path>
                </g>
                <g id="Group-23" transform="translate(33.000000, 28.000000)">
                    <path d="M58.6643847,34.479863 C59.9947997,34.9848473 60.8447437,35.30732 61.9357049,35.7215837 C61.033128,37.658561 60.1704166,39.4223932 59.2167701,41.4690916 L61.2363641,42.4758488 C60.6329091,43.9300536 58.699039,48.5482379 58.1463931,49.8804116 L67.1046775,39.7652045 C66.0478496,39.2050921 65.3109883,38.8146459 64.3703697,38.3160843 C65.4516902,36.6194228 66.496793,34.979495 67.7784835,32.9678539 C66.7703801,32.4869547 66.0017306,32.1205936 65.0572037,31.6702022 C66.0968347,29.439119 67.1223956,27.2380084 68.1463931,25.0403768 L63.526158,21.8804116 C63.526158,21.8804116 59.5656588,31.9102503 58.6643847,34.479863" id="Fill-7" fill="#F5A623" transform="translate(63.146393, 35.880412) rotate(-101.000000) translate(-63.146393, -35.880412) "></path>
                    <path d="M68.0651138,14.4760171 C67.89095,17.6732379 67.6780833,20.6179014 67.4939673,23.9959929 L70.6648531,23.6397658 C70.6305733,25.9800564 70.5006416,33.4260847 70.4691263,35.5700644 L76.9452528,15.4305513 C75.2688577,15.5744759 74.0994726,15.6748371 72.6071935,15.8033215 C73.1412956,12.7671197 73.657152,9.83238209 74.2902234,6.23206226 C72.7183265,6.43829899 71.5201906,6.59545799 70.0478159,6.78790885 C70.2490718,3.10542518 70.4470102,-0.527980757 70.6455016,-4.15532091 L62.9452528,-4.42993559 C62.9452528,-4.42993559 62.9756623,11.5473453 63.1315804,15.5485584 C65.1380572,15.1123733 66.420234,14.8338985 68.0651138,14.4760171 Z" id="Fill-9" fill="#F5A623" transform="translate(69.945253, 15.570064) rotate(-62.000000) translate(-69.945253, -15.570064) "></path>
                    <path d="M239.89491,88.8198075 C243.265255,88.7443631 242.208743,93.4079767 238.119256,91.0189049 C236.383965,90.6744059 234.67962,91.2694771 232.995793,91.5651948 C235.511106,92.9250115 236.233611,92.3193356 238.114547,92.8550209 C240.988759,93.6736984 240.266253,96.0358041 239.081587,96.1800271 C237.228233,96.4054513 237.615386,97.0238527 236.692745,97.7201225 C235.709223,98.4627496 234.244368,96.7647967 233.94366,96.1051887 C233.010929,94.0624339 230.017981,92.0839128 227.554804,91.6694232 C223.57598,91.0007255 221.30251,93.7876224 220.904594,94.1142451 C219.940245,94.9059565 218.672833,95.323173 217.471685,94.5966043 C217.014233,94.3199749 216.748171,93.9551756 216.74178,93.5670461 C214.111431,91.6585156 215.012544,90.3483892 215.886748,89.9381415 C217.152814,89.3436762 219.059313,90.6325933 220.362043,90.583509 C221.842371,90.527759 223.296799,90.0781226 224.760982,90.0817585 C223.797979,89.1121923 222.478431,88.5689322 221.013575,88.661041 C215.960075,88.9785739 216.77878,86.3952859 217.36775,85.8783859 C218.050564,85.2793758 218.144745,85.6850786 218.312926,84.7827761 C218.605561,83.2096549 221.669145,82.5882235 222.691685,85.5714576 C224.981636,88.8831323 228.199609,90.326271 231.918426,89.6469686 C233.2706,89.3533719 234.397412,88.8661648 235.630851,88.0629398 C239.248759,85.7059849 239.417276,88.3765339 239.89491,88.8198075 Z M238.532778,80.8421827 C238.671706,79.6117402 237.377724,78.4911692 235.641788,78.3390622 C233.906187,78.1872505 232.386362,79.0614967 232.247433,80.2919393 C232.108169,81.5223818 233.402487,82.6429528 235.138423,82.7947644 C236.874024,82.9468715 238.393849,82.0726252 238.532778,80.8421827 Z M230.680627,80.71459 C231.449768,79.6796715 230.889356,78.1594873 229.429263,77.3195021 C227.96917,76.4795168 226.162763,76.6372356 225.393958,77.6721541 C224.625152,78.7070726 225.185565,80.2269615 226.645322,81.0672421 C228.105079,81.9072273 229.911822,81.7495086 230.680627,80.71459 Z M237.263628,71.683272 C242.097941,72.7630843 243.86475,76.3318401 241.749948,80.3389004 C240.899262,81.9509396 238.876072,83.4359768 238.758956,85.6038712 C237.124699,86.1691777 235.827026,86.0167753 233.950147,87.8751393 C233.327318,88.4915419 226.095983,87.470505 225.915443,86.3779926 C225.446643,83.5390552 224.209373,83.8302737 223.159019,83.2812116 C224.214742,81.1647087 223.368755,79.7670962 223.100629,77.964554 C222.502968,73.9462702 224.533876,71.2730261 229.074223,71.0426504 C231.789036,70.9050157 234.634052,71.095814 237.263628,71.683272 Z" id="Combined-Shape" fill="#3B0A0F" opacity="0.397995722"></path>
                    <mask id="mask-11" fill="white">
                        <use xlink:href="#path-10"></use>
                    </mask>
                    <use id="Combined-Shape" fill="#CA0062" transform="translate(16.286977, 39.263456) rotate(-45.000000) translate(-16.286977, -39.263456) " xlink:href="#path-10"></use>
                </g>
            </g>
        </g>
    </g>
</svg>