<?xml version="1.0" encoding="UTF-8"?>
<svg width="250px" height="171px" viewBox="0 0 250 171" version="1.1" xmlns="http://www.w3.org/2000/svg" xmlns:xlink="http://www.w3.org/1999/xlink">
    <!-- Generator: Sketch 52.5 (67469) - http://www.bohemiancoding.com/sketch -->
    <title>Asset 1</title>
    <desc>Created with Sketch.</desc>
    <defs>
        <linearGradient x1="49.9979986%" y1="100.069795%" x2="49.9979986%" y2="0%" id="linearGradient-1">
            <stop stop-color="#FDF6F1" offset="1%"></stop>
            <stop stop-color="#FDF0ED" offset="48%"></stop>
            <stop stop-color="#FDE2E3" offset="100%"></stop>
        </linearGradient>
        <linearGradient x1="0.0088269733%" y1="49.9973175%" x2="100.014133%" y2="49.9973175%" id="linearGradient-2">
            <stop stop-color="#2B8285" offset="0%"></stop>
            <stop stop-color="#48C2C5" offset="99%"></stop>
        </linearGradient>
        <linearGradient x1="0%" y1="50.0011772%" x2="99.946714%" y2="50.0011772%" id="linearGradient-3">
            <stop stop-color="#2B8285" offset="0%"></stop>
            <stop stop-color="#48C2C5" offset="99%"></stop>
        </linearGradient>
        <linearGradient x1="-0.00673282671%" y1="49.9985176%" x2="100.058032%" y2="49.9985176%" id="linearGradient-4">
            <stop stop-color="#2B8285" offset="0%"></stop>
            <stop stop-color="#48C2C5" offset="99%"></stop>
        </linearGradient>
        <linearGradient x1="-0.00251935796%" y1="50.0032164%" x2="100.039589%" y2="50.0032164%" id="linearGradient-5">
            <stop stop-color="#2B8285" offset="0%"></stop>
            <stop stop-color="#48C2C5" offset="99%"></stop>
        </linearGradient>
        <linearGradient x1="0.00464946012%" y1="50.0032533%" x2="100%" y2="50.0032533%" id="linearGradient-6">
            <stop stop-color="#2B8285" offset="0%"></stop>
            <stop stop-color="#48C2C5" offset="99%"></stop>
        </linearGradient>
        <linearGradient x1="0.0672261115%" y1="49.9610576%" x2="100%" y2="49.9610576%" id="linearGradient-7">
            <stop stop-color="#2B8285" offset="0%"></stop>
            <stop stop-color="#48C2C5" offset="99%"></stop>
        </linearGradient>
        <linearGradient x1="24.4647605%" y1="-23.4601379%" x2="75.5352395%" y2="123.467886%" id="linearGradient-8">
            <stop stop-color="#B5D3EF" offset="0%"></stop>
            <stop stop-color="#D4DCED" offset="100%"></stop>
        </linearGradient>
        <linearGradient x1="24.4647605%" y1="-23.4601379%" x2="75.5352395%" y2="123.467886%" id="linearGradient-9">
            <stop stop-color="#CEE7F8" offset="0%"></stop>
            <stop stop-color="#EDE7E9" offset="100%"></stop>
        </linearGradient>
        <linearGradient x1="74.9988339%" y1="200.274093%" x2="25.0011661%" y2="82.7431203%" id="linearGradient-10">
            <stop stop-color="#CEE7F8" offset="0%"></stop>
            <stop stop-color="#EDE7E9" offset="100%"></stop>
        </linearGradient>
        <linearGradient x1="0.00197226234%" y1="49.9807233%" x2="99.9904198%" y2="49.9807233%" id="linearGradient-11">
            <stop stop-color="#2B8285" offset="0%"></stop>
            <stop stop-color="#48C2C5" offset="99%"></stop>
        </linearGradient>
    </defs>
    <g id="Page-1" stroke="none" stroke-width="1" fill="none" fill-rule="evenodd">
        <g id="Unsubscribe-Copy" transform="translate(-595.000000, -140.000000)">
            <g id="Asset-1" transform="translate(595.000000, 140.000000)">
                <path d="M131.93314,97.0421512 C131.93314,97.0421512 142.906977,110.944767 145.101744,120.210756 C145.101744,120.210756 138.270349,124.113372 136.075581,124.113372 C136.075581,124.113372 134.113372,108.626453 129.251453,102.616279 C129.251453,102.616279 128.764535,97.0421512 131.93314,97.0421512 Z" id="Path" fill="#0B83C6"></path>
                <path d="M134.563953,100.581395 C133.015988,98.4011628 131.93314,97.0421512 131.93314,97.0421512 C128.764535,97.0421512 129.251453,102.616279 129.251453,102.616279 C130.061815,103.67228 130.751656,104.815515 131.30814,106.024709 C132.218443,104.111185 133.308619,102.288546 134.563953,100.581395 Z" id="Path" fill="#02679A"></path>
                <path d="M117.790698,96.002907 C117.790698,96.002907 105.436047,97.2892442 97.9578488,117.805233 C97.9578488,117.805233 101.860465,122.034884 104.622093,122.034884 C104.622093,122.034884 109.767442,102.827035 115.675872,101.228198 L117.790698,96.002907 Z" id="Path" fill="#02679A"></path>
                <path d="M118.655523,94.4767442 C118.655523,94.4767442 107.5,106.678779 108.226744,123.212209 C112.888236,125.34637 117.954589,126.451846 123.081395,126.453488 C126.385352,126.455376 129.674051,126.005472 132.856105,125.116279 C130.494186,114.847384 128.386628,99.9563953 134.149709,94.1860465 L118.655523,94.4767442 Z" id="Path" fill="#0B83C6"></path>
                <path d="M116.417151,97.3837209 C119.571221,99.2151163 124.31686,100.915698 131.010174,100.915698 C131.555233,98.1686047 132.536337,95.8284884 134.149709,94.2005814 L118.655523,94.5130814 C117.859629,95.4300908 117.112475,96.388292 116.417151,97.3837209 Z" id="Path" fill="#02679A"></path>
                <path d="M157.790698,63.2267442 C157.790698,81.6897518 142.823473,96.6569767 124.360465,96.6569767 C105.897457,96.6569767 90.9302326,81.6897518 90.9302326,63.2267442 C90.9302326,44.7637366 105.897457,29.7965116 124.360465,29.7965116 C142.823473,29.7965116 157.790698,44.7637366 157.790698,63.2267442 Z" id="Path" fill="#0B83C6"></path>
                <path d="M121.184593,50.1453488 C121.184593,55.7340116 117.78343,60.2688953 113.590116,60.2688953 C109.396802,60.2688953 106.002907,55.7412791 106.002907,50.1453488 C106.002907,44.5494186 109.396802,40.0218023 113.590116,40.0218023 C117.78343,40.0218023 121.184593,44.5639535 121.184593,50.1453488 Z" id="Path" fill="#FFFFFF"></path>
                <path d="M119.287791,50.7049419 C119.287791,54.505814 116.84593,57.5872093 113.829942,57.5872093 C110.813953,57.5872093 108.372093,54.505814 108.372093,50.7049419 C108.372093,46.9040698 110.813953,43.8299419 113.829942,43.8299419 C116.84593,43.8299419 119.287791,46.9040698 119.287791,50.7049419 Z" id="Path" fill="#081C24"></path>
                <path d="M116.518895,49.0843023 C116.518895,50.7194767 115.559593,52.0494186 114.382267,52.0494186 C113.204942,52.0494186 112.24564,50.7194767 112.24564,49.0843023 C112.24564,47.4491279 113.204942,46.119186 114.382267,46.119186 C115.559593,46.119186 116.518895,47.4491279 116.518895,49.0843023 Z" id="Path" fill="#FFFFFF"></path>
                <path d="M142.688953,50.1453488 C142.688953,55.7340116 139.287791,60.2688953 135.094477,60.2688953 C130.901163,60.2688953 127.507267,55.7412791 127.507267,50.1453488 C127.507267,44.5494186 130.90843,40.0218023 135.094477,40.0218023 C139.280523,40.0218023 142.688953,44.5639535 142.688953,50.1453488 Z" id="Path" fill="#FFFFFF"></path>
                <path d="M140.792151,50.7049419 C140.792151,54.505814 138.350291,57.5872093 135.334302,57.5872093 C132.318314,57.5872093 129.876453,54.505814 129.876453,50.7049419 C129.876453,46.9040698 132.325581,43.8299419 135.334302,43.8299419 C138.343023,43.8299419 140.792151,46.9040698 140.792151,50.7049419 Z" id="Path" fill="#081C24"></path>
                <ellipse id="Oval" fill="#FFFFFF" cx="135.893895" cy="49.0843023" rx="2.13662791" ry="2.96511628"></ellipse>
                <path d="M125.239826,126.380814 C127.194767,109.840116 127.165698,100.719477 118.888081,102.100291 C111.518895,103.328488 112.274709,120.268895 112.623547,124.890988 C116.012817,125.92713 119.537281,126.453718 123.081395,126.453488 C123.80814,126.453488 124.527616,126.453488 125.239826,126.380814 Z" id="Path" fill="#26A8E0"></path>
                <path d="M17.7688953,145.813953 L244.818314,145.813953 C252.209302,145.813953 239.00436,150.290698 234.643895,155.3125 C230.28343,160.334302 230.559593,162.427326 219.760174,166.213663 C196.547965,174.389535 186.613372,158.386628 149.760174,164.6875 C134.055233,167.369186 114.03343,172.5 98.2340116,169.774709 C84.934593,167.478198 81.7078488,156.969477 71.6497093,156.119186 C56.2136628,154.811047 48.5174419,156.119186 34.4331395,155.297965 C22.3619186,154.62936 -1.52616279,145.813953 17.7688953,145.813953 Z" id="Path" fill="url(#linearGradient-1)"></path>
                <path d="M182.281977,145.813953 C181.446221,116.875 187.986919,81.744186 210.792151,61.8023256 C214.425872,58.6046512 218.924419,54.4767442 224.12064,54.8546512 C226.53343,55.0290698 227.75436,57.7616279 228.09593,59.8473837 C228.742733,63.4811047 228.09593,67.2747093 227.21657,70.8793605 C222.281977,90.8430233 206.002907,125.726744 201.838663,145.813953" id="Path" fill="url(#linearGradient-2)"></path>
                <path d="M220.690407,62.5508721 C205.465116,82.2311047 197.063953,106.976744 194.876453,131.635174 C194.420062,136.181853 194.315585,140.756995 194.563953,145.319767 C194.563953,145.574128 194.97093,145.574128 194.963663,145.319767 C194.656014,123.697396 199.383351,102.299977 208.771802,82.8197674 C212.170839,75.7472068 216.242404,69.0180509 220.930233,62.7252907 C221.031977,62.5944767 220.806686,62.4200581 220.704942,62.5508721 L220.690407,62.5508721 Z" id="Path" fill="#99CDEF"></path>
                <path d="M201.838663,145.813953 C204.890988,127.085756 208.103198,111.787791 218.837209,96.1337209 C223.255814,89.6947674 231.758721,81.7369186 238.531977,82.3909884 C245.799419,83.1177326 240.639535,94.0770349 236.351744,102.267442 C230.525086,113.218353 226.50066,125.036425 224.43314,137.267442 C225.036337,133.633721 227.579942,123.146802 235.109012,118.49564 C237.289244,117.12936 242.75436,116.315407 242.75436,120.857558 C242.75436,128.80814 235.02907,138.357558 233.09593,145.813953" id="Path" fill="url(#linearGradient-3)"></path>
                <path d="M236.19186,88.059593 C231.875,93.5392442 228.786337,100.101744 225.886628,106.395349 C221.993897,114.687035 218.759595,123.27215 216.213663,132.071221 C214.916416,136.372179 214.04498,140.790213 213.611919,145.261628 C213.611919,145.450581 213.880814,145.443314 213.902616,145.261628 C214.949128,136.831395 217.536337,128.619186 220.443314,120.675872 C223.435974,112.502628 226.998503,104.549469 231.104651,96.875 C232.649147,93.8622083 234.43553,90.9796905 236.446221,88.255814 C236.5625,88.1104651 236.300872,87.9069767 236.184593,88.059593 L236.19186,88.059593 Z" id="Path" fill="#99CDEF"></path>
                <path d="M238.422965,121.417151 C232.1875,127.681686 229.425872,137.318314 227.87064,145.770349 C227.827035,145.99564 228.161337,146.090116 228.212209,145.864826 C230.145349,137.420058 232.478198,128.081395 238.633721,121.627907 C238.672248,121.567546 238.663627,121.488515 238.612992,121.43788 C238.562357,121.387245 238.483326,121.378624 238.422965,121.417151 Z" id="Path" fill="#99CDEF"></path>
                <path d="M68.3866279,145.813953 C63.9752907,109.295058 67.1802326,93.3793605 71.3372093,83.2630814 C73.2776163,78.5537791 76.0610465,73.880814 80,70.559593 C95.7703488,57.252907 95.2616279,83.125 94.5348837,90.9665698 C92.8488372,108.829942 88.3648256,127.928779 87.994186,145.813953" id="Path" fill="url(#linearGradient-4)"></path>
                <path d="M54.1787791,145.813953 C53.6773256,134.324128 48.5465116,123.117733 42.0130814,113.837209 C35.4796512,104.556686 26.4098837,97.0784884 20.5014535,87.2819767 C17.3328488,82.0348837 12.318314,73.7863372 19.7311047,69.4840116 C27.9505814,64.7093023 40.0290698,69.7093023 46.6206395,75.1671512 C53.8081395,81.0973837 58.5319767,89.505814 62.4781977,97.8052326 C69.4476744,112.463663 70.8430233,129.578488 70.9520349,145.770349" id="Path" fill="url(#linearGradient-5)"></path>
                <path d="M55.7412791,145.813953 C55.7412791,134.12064 49.818314,121.780523 40.4069767,112.645349 C34.2587209,106.671512 26.9113372,101.082849 18.5247093,98.619186 C14.1642442,97.3401163 1.99854651,95.3197674 0.777616279,102.550872 C0.319767442,105.297965 2.79069767,110.465116 8.72093023,115.138081 C16.9622093,121.678779 39.7238372,131.809593 42.4709302,145.813953" id="Path" fill="url(#linearGradient-6)"></path>
                <path d="M6.35901163,103.030523 C21.3081395,107.194767 35.4287791,117.420058 42.9723837,131.097384 C45.4481209,135.623473 47.2036649,140.507613 48.1758721,145.574128 C48.1758721,145.777616 48.5101744,145.690407 48.4738372,145.494186 C45.6322674,128.357558 32.7906977,114.709302 17.6453488,107.114826 C14.0605515,105.294767 10.3043382,103.834153 6.43168605,102.75436 C6.36539025,102.748538 6.30437362,102.790833 6.28656165,102.854956 C6.26874969,102.919079 6.29921083,102.986784 6.35901163,103.015988 L6.35901163,103.030523 Z" id="Path" fill="#99CDEF"></path>
                <path d="M23.6555233,74.127907 C31.2790698,78.2340116 37.5072674,84.7892442 42.5508721,91.7587209 C49.1816276,101.164479 54.0679263,111.685407 56.9767442,122.819767 C58.9311313,130.255599 60.1770022,137.859792 60.6976744,145.530523 C60.6976744,145.857558 61.2354651,145.864826 61.2209302,145.530523 C60.1671512,122.536337 51.4534884,98.0450581 34.5639535,81.875 C31.3611469,78.7246175 27.7364217,76.0342006 23.7936047,73.880814 C23.6337209,73.8008721 23.4956395,74.0334302 23.6555233,74.1206395 L23.6555233,74.127907 Z" id="Path" fill="#99CDEF"></path>
                <path d="M85.8648256,70.2979651 C78.190407,88.5755814 76.3517442,109.265988 75.8430233,128.895349 C75.7049419,134.440407 75.6686047,139.992733 75.8866279,145.537791 C75.8866279,145.662215 75.987494,145.763081 76.1119186,145.763081 C76.2363432,145.763081 76.3372093,145.662215 76.3372093,145.537791 C76.2790698,125.537791 76.7805233,105.406977 81.4244186,85.8502907 C82.6420243,80.5854831 84.2427009,75.4166824 86.2136628,70.3851744 C86.2936047,70.181686 85.9665698,70.1017442 85.8866279,70.2979651 L85.8648256,70.2979651 Z" id="Path" fill="#99CDEF"></path>
                <path d="M44.6002907,145.813953 C43.1831395,139.505814 41.9476744,132.936047 38.1831395,127.5 C35.7267442,123.946221 30.7122093,118.989826 26.25,119.069767 C22.9287791,119.127907 22.1729651,122.318314 22.5581395,125.188953 C23.5755814,132.725291 27.747093,135.021802 29.3677326,143.168605 C28.5610465,140.079942 23.5537791,129.396802 19.193314,133.481105 C14.3822674,137.972384 21.5552326,145.835756 21.5552326,145.835756" id="Path" fill="url(#linearGradient-7)"></path>
                <path d="M20.9956395,135.56686 C23.6766186,138.614052 25.8218149,142.093546 27.3401163,145.857558 C27.3719793,145.929066 27.4509345,145.966985 27.5266659,145.947151 C27.6023974,145.927317 27.6526287,145.855563 27.6453488,145.777616 C26.6206395,141.795058 23.880814,138.37936 21.184593,135.377907 C21.068314,135.25436 20.8938953,135.436047 20.9956395,135.56686 Z" id="Path" fill="#99CDEF"></path>
                <path d="M27.9069767,123.786337 C33.7209302,129.825581 36.3517442,138.197674 39.2223837,145.857558 C39.2950581,146.046512 39.5857558,145.973837 39.5276163,145.777616 C38.4978257,142.3282 37.2277623,138.955125 35.7267442,135.68314 C33.7790698,131.322674 31.4680233,126.962209 28.0886628,123.597384 C27.9723837,123.481105 27.7906977,123.662791 27.9069767,123.786337 Z" id="Path" fill="#99CDEF"></path>
                <rect id="Rectangle" fill="url(#linearGradient-8)" x="45.3415698" y="56.9622093" width="155.806686" height="93.8008721"></rect>
                <polygon id="Path" fill="#CBD3EB" opacity="0.55" style="mix-blend-mode: multiply;" points="123.248547 91.2136628 201.148256 150.763081 201.148256 66.6424419 45.3415698 66.6424419 45.3415698 150.763081"></polygon>
                <polygon id="Path" fill="url(#linearGradient-9)" points="123.248547 81.5188953 201.148256 150.763081 201.148256 56.9622093 45.3415698 56.9622093 45.3415698 150.763081"></polygon>
                <polygon id="Path" fill="#CBD3EB" opacity="0.35" style="mix-blend-mode: multiply;" points="123.248547 130.406977 201.148256 56.9622093 45.3415698 56.9622093"></polygon>
                <polygon id="Path" fill="url(#linearGradient-10)" points="123.248547 123.248547 201.148256 56.9622093 45.3415698 56.9622093"></polygon>
                <path d="M174.200581,155.3125 C172.623547,147.100291 174.273256,138.662791 177.550872,131.635174 C179.731105,127.034884 184.651163,120.632267 190.167151,120.734012 C194.273256,120.813953 195.981105,124.934593 196.228198,128.648256 C196.853198,138.386628 192.274709,141.359012 192.303779,151.90407 C192.536337,147.914244 196.388081,134.97093 202.412791,139.382267 C208.313953,143.742733 202.565407,155.327035 202.565407,155.327035" id="Path" fill="url(#linearGradient-11)"></path>
                <path d="M200.712209,141.875 C198.226744,145.922965 195.959302,150.486919 195.755814,155.3125 C195.755814,155.486919 196.039244,155.537791 196.068314,155.356105 C196.819179,150.63466 198.472349,146.102015 200.9375,142.005814 C200.965905,141.944496 200.942929,141.871636 200.884489,141.837703 C200.826049,141.80377 200.751382,141.819935 200.712209,141.875 Z" id="Path" fill="#99CDEF"></path>
                <path d="M189.71657,126.649709 C186.497093,131.213663 184.97093,136.896802 183.815407,142.296512 C182.878586,146.58696 182.230331,150.935364 181.875,155.3125 C181.875,155.486919 182.165698,155.537791 182.1875,155.356105 C183.524709,145.828488 184.367733,134.949128 189.94186,126.780523 C190.036337,126.635174 189.811047,126.511628 189.71657,126.649709 Z" id="Path" fill="#99CDEF"></path>
                <path d="M172.376453,19.6875 L168.742733,21.2136628 C168.554431,21.2939437 168.420512,21.4652524 168.388056,21.6673645 C168.3556,21.8694766 168.42915,22.0741015 168.582849,22.2093023 L171.199128,24.4622093 C171.353524,24.5935634 171.564105,24.6374242 171.758105,24.5786362 C171.952105,24.5198482 172.102918,24.3664745 172.15843,24.1715116 L173.190407,20.3924419 C173.258715,20.1696284 173.189145,19.9274942 173.012981,19.7749231 C172.836816,19.6223521 172.587228,19.5880727 172.376453,19.6875 Z" id="Path" stroke="#CFDFF3"></path>
                <path d="M6.27180233,69.8473837 L7.34011628,73.6627907 C7.39471229,73.8606929 7.54846709,74.0158566 7.74586307,74.0722554 C7.94325904,74.1286543 8.15577884,74.0781405 8.30668605,73.9389535 L10.8575581,71.6133721 C11.0077078,71.4783656 11.0781836,71.2758224 11.0442711,71.0767706 C11.0103586,70.8777188 10.8767906,70.7099387 10.690407,70.6322674 L7.05668605,69.1787791 C6.85606302,69.1029339 6.63006603,69.1422081 6.46679383,69.2812918 C6.30352163,69.4203756 6.22881732,69.6372543 6.27180233,69.8473837 Z" id="Path" stroke="#CFDFF3"></path>
                <path d="M125.552326,16.875 L128.357558,14.0843023 C128.511789,13.93891 128.577186,13.7225388 128.529306,13.5160599 C128.481427,13.3095809 128.327478,13.1440726 128.125,13.0813953 L124.854651,11.9840116 C124.661791,11.9167144 124.44783,11.9542067 124.289343,12.08307 C124.130855,12.2119334 124.0505,12.4137455 124.077035,12.6162791 L124.549419,16.5043605 C124.567301,16.7333754 124.716766,16.9310685 124.932235,17.0106982 C125.147704,17.0903279 125.38981,17.0373463 125.552326,16.875 Z" id="Path" stroke="#CFDFF3"></path>
                <path d="M244.643895,64.2369186 L245.675872,68.059593 C245.727984,68.2571535 245.878812,68.4135625 246.074349,68.4728162 C246.269887,68.53207 246.482164,68.4856929 246.635174,68.3502907 L249.215116,66.0537791 C249.36918,65.9201762 249.443123,65.7163538 249.410559,65.5150456 C249.377994,65.3137374 249.243561,65.1436228 249.055233,65.065407 L245.421512,63.5392442 C245.215944,63.4617891 244.984351,63.5052405 244.82084,63.6519421 C244.657329,63.7986438 244.589107,64.0241852 244.643895,64.2369186 Z" id="Path" stroke="#CFDFF3"></path>
                <path d="M60.8575581,22.8706395 L61.8895349,26.693314 C61.9422783,26.8924352 62.0952675,27.0495023 62.2929328,27.1074643 C62.490598,27.1654263 62.7041817,27.1158505 62.8561047,26.9767442 L65.4069767,24.7093023 C65.5610407,24.5756994 65.6349836,24.3718771 65.6024191,24.1705688 C65.5698545,23.9692606 65.4354218,23.7991461 65.247093,23.7209302 L61.6133721,22.1947674 C61.4153019,22.1361516 61.2010038,22.1842862 61.047027,22.321977 C60.8930502,22.4596678 60.8213575,22.667275 60.8575581,22.8706395 Z" id="Path" stroke="#CFDFF3"></path>
                <polygon id="Rectangle" fill="#CFDFF3" transform="translate(209.324384, 27.127295) rotate(-37.390000) translate(-209.324384, -27.127295) " points="208.194297 25.9972081 210.454471 25.9972081 210.454471 28.2573825 208.194297 28.2573825"></polygon>
                <polygon id="Rectangle" fill="#CFDFF3" transform="translate(195.937196, 50.157049) rotate(-2.550000) translate(-195.937196, -50.157049) " points="194.807109 49.026962 197.067283 49.026962 197.067283 51.2871364 194.807109 51.2871364"></polygon>
                <polygon id="Rectangle" fill="#CFDFF3" transform="translate(33.684243, 46.116719) rotate(-21.290000) translate(-33.684243, -46.116719) " points="32.5541559 44.9866314 34.8143303 44.9866314 34.8143303 47.2468059 32.5541559 47.2468059"></polygon>
                <polygon id="Rectangle" fill="#CFDFF3" transform="translate(95.331868, 13.429906) rotate(21.161260) translate(-95.331868, -13.429906) " points="94.2048925 12.3029303 96.4588429 12.3029303 96.4588429 14.5568807 94.2048925 14.5568807"></polygon>
                <polygon id="Rectangle" fill="#CFDFF3" transform="translate(152.304333, 1.179969) rotate(-2.550000) translate(-152.304333, -1.179969) " points="151.174246 0.0498821717 153.43442 0.0498821717 153.43442 2.31005659 151.174246 2.31005659"></polygon>
                <g id="Group" opacity="0.35" style="mix-blend-mode: multiply;" transform="translate(143.895349, 53.052326)" fill="#CBD3EB">
                    <path d="M11.8968023,3.05232558 C11.8968023,3.05232558 5.60319767,3.72819767 4.62936047,7.02761628 C3.65552326,10.3270349 2.02761628,7.56540698 0.70494186,10.3488372 C-0.617732558,13.1322674 3.45203488,13.5101744 5.92296512,12.2674419 C8.39389535,11.0247093 9.81831395,7.56540698 10.6831395,9.52761628 C10.6831395,9.52761628 7.39825581,20.9665698 8.69186047,26.2427326 C9.98546512,31.5188953 12.0494186,28.3430233 12.7979651,24.7892442 C13.5465116,21.2354651 12.9360465,14.4912791 14.3241279,12.8561047 C14.3241279,12.8561047 13.4665698,20.2979651 14.0261628,22.6744186 C14.5857558,25.0508721 15.3197674,27.9142442 16.5843023,25.5813953 C17.8488372,23.2485465 16.3662791,16.1337209 17.9215116,13.3938953 C17.9215116,13.3938953 17.1947674,24.2950581 18.7645349,24.7601744 C20.3343023,25.2252907 21.4680233,23.5465116 21.7369186,21.7514535 C22.005814,19.9563953 21.0537791,15.4651163 22.0930233,13.0886628 C22.0930233,13.0886628 22.0930233,20.8866279 23.1104651,21.7296512 C24.127907,22.5726744 24.7093023,23.3357558 25.4869186,21.1627907 C26.2645349,18.9898256 25.9593023,16.4171512 26.1337209,13.684593 C26.3081395,10.9520349 29.4840116,9.6002907 28.6700581,5.80668605 C27.8561047,2.0130814 23.1758721,-1.94040698 11.8968023,3.05232558 Z" id="Path"></path>
                    <path d="M10.7122093,9.52761628 C10.7122093,9.52761628 10.5741279,10.0145349 10.3706395,10.7994186 L11.8822674,9.44767442 C11.3831205,9.44983278 10.8886999,9.35094866 10.4287791,9.15697674 C10.5459395,9.26139969 10.6421314,9.38718904 10.7122093,9.52761628 Z M11.8968023,3.05232558 C11.8968023,3.05232558 5.60319767,3.72819767 4.62936047,7.02761628 C3.65552326,10.3270349 2.02761628,7.56540698 0.70494186,10.3488372 C-0.617732558,13.1322674 3.45203488,13.5101744 5.92296512,12.2674419 C7.99418605,11.2427326 9.31686047,8.72093023 10.1744186,8.96075581 C9.76017442,8.62645349 9.65843023,8.03052326 10.5959302,6.99127907 C12.2020349,5.21075581 13.1613372,3.59011628 13.1686047,2.52180233 C12.7616279,2.69622093 12.3546512,2.84883721 11.8968023,3.05232558 Z" id="Shape" fill-rule="nonzero"></path>
                    <path d="M19.440407,10.6395349 C17.6744186,9.8619186 16.8241279,10.9156977 15.1235465,11.1555233 C12.2165698,11.5552326 13.8372093,10.4796512 11.8822674,9.41133721 C11.4455681,9.14983641 10.9337797,9.04236085 10.4287791,9.10610465 C10.5486531,9.22627451 10.6426393,9.36972713 10.7049419,9.52761628 C10.7049419,9.52761628 7.42005814,20.9665698 8.71366279,26.2427326 C10.0072674,31.5188953 12.0712209,28.3430233 12.8197674,24.7892442 C13.568314,21.2354651 12.9578488,14.4912791 14.3459302,12.8561047 C14.3459302,12.8561047 13.4883721,20.2979651 14.0479651,22.6744186 C14.6075581,25.0508721 15.3415698,27.9142442 16.6061047,25.5813953 C17.8706395,23.2485465 16.3880814,16.1337209 17.943314,13.3938953 C17.943314,13.3938953 17.2165698,24.2950581 18.7863372,24.7601744 C20.3561047,25.2252907 21.4898256,23.5465116 21.7587209,21.7514535 C22.0276163,19.9563953 21.0755814,15.4651163 22.1148256,13.0886628 C22.1148256,13.0886628 22.1148256,20.8866279 23.1322674,21.7296512 C24.1497093,22.5726744 24.7311047,23.3357558 25.5087209,21.1627907 C26.2863372,18.9898256 25.9811047,16.4171512 26.1555233,13.684593 C26.2311567,12.9420369 26.4800849,12.2276131 26.8822674,11.5988372 C25.8430233,12.1148256 24.8473837,12.8851744 23.7281977,13.0523256 C21.2718023,13.372093 21.0755814,11.3662791 19.440407,10.6395349 Z" id="Path"></path>
                    <path d="M11.1991279,7.76889535 C11.1991279,7.76889535 14.8328488,0.276162791 22.9069767,1.46075581 C22.9069767,1.46075581 16.875,1.94767442 14.556686,9.8619186 C14.5348837,9.8619186 12.005814,6.96947674 11.1991279,7.76889535 Z" id="Path"></path>
                </g>
                <path d="M155.792151,54.3531977 C155.792151,54.3531977 149.498547,55.0290698 148.524709,58.3284884 C147.550872,61.627907 145.922965,58.8662791 144.600291,61.6497093 C143.277616,64.4331395 147.347384,64.8037791 149.818314,63.5610465 C152.289244,62.318314 153.713663,58.8662791 154.578488,60.8284884 C154.578488,60.8284884 151.293605,72.2674419 152.587209,77.5 C153.880814,82.7325581 155.944767,79.6002907 156.693314,76.0465116 C157.44186,72.4927326 156.831395,65.7412791 158.219477,64.1133721 C158.219477,64.1133721 157.361919,71.5552326 157.921512,73.931686 C158.481105,76.3081395 159.215116,79.1642442 160.479651,76.8386628 C161.744186,74.5130814 160.261628,67.3909884 161.81686,64.6511628 C161.81686,64.6511628 161.090116,75.5523256 162.659884,76.0101744 C164.229651,76.4680233 165.363372,74.8037791 165.632267,73.0087209 C165.901163,71.2136628 164.949128,66.7151163 165.988372,64.3459302 C165.988372,64.3459302 165.988372,72.1438953 167.005814,72.9869186 C168.023256,73.8299419 168.604651,74.5930233 169.382267,72.4127907 C170.159884,70.2325581 169.854651,67.6671512 170.02907,64.9418605 C170.203488,62.2165698 173.37936,60.8502907 172.565407,57.056686 C171.751453,53.2630814 167.071221,49.3604651 155.792151,54.3531977 Z" id="Path" fill="#0B83C6"></path>
                <path d="M154.607558,60.8284884 C154.607558,60.8284884 154.469477,61.3081395 154.265988,62.1002907 L155.777616,60.7122093 C155.278171,60.7101003 154.784118,60.6088194 154.324128,60.4142442 C154.445185,60.5321265 154.541537,60.6729499 154.607558,60.8284884 Z M155.792151,54.3531977 C155.792151,54.3531977 149.498547,55.0290698 148.524709,58.3284884 C147.550872,61.627907 145.922965,58.8662791 144.600291,61.6497093 C143.277616,64.4331395 147.347384,64.8037791 149.818314,63.5610465 C151.860465,62.5436047 153.18314,60.0218023 154.069767,60.2616279 C153.655523,59.9200581 153.553779,59.3313953 154.491279,58.2921512 C156.097384,56.5043605 157.056686,54.8909884 157.063953,53.815407 C156.656977,53.9898256 156.25,54.1497093 155.792151,54.3531977 Z" id="Shape" fill="#02679A" fill-rule="nonzero"></path>
                <path d="M163.335756,61.940407 C161.569767,61.1627907 160.719477,62.2093023 159.018895,62.4491279 C156.111919,62.8561047 157.732558,61.7805233 155.777616,60.7122093 C155.340917,60.4507085 154.829129,60.3432329 154.324128,60.4069767 C154.444002,60.5271466 154.537988,60.6705992 154.600291,60.8284884 C154.600291,60.8284884 151.315407,72.2674419 152.609012,77.5 C153.902616,82.7325581 155.96657,79.6002907 156.715116,76.0465116 C157.463663,72.4927326 156.853198,65.7412791 158.241279,64.1133721 C158.241279,64.1133721 157.383721,71.5552326 157.943314,73.931686 C158.502907,76.3081395 159.236919,79.1642442 160.501453,76.8386628 C161.765988,74.5130814 160.28343,67.3909884 161.838663,64.6511628 C161.838663,64.6511628 161.111919,75.5523256 162.681686,76.0101744 C164.251453,76.4680233 165.385174,74.8037791 165.65407,73.0087209 C165.922965,71.2136628 164.97093,66.7151163 166.010174,64.3459302 C166.010174,64.3459302 166.010174,72.1438953 167.027616,72.9869186 C168.045058,73.8299419 168.626453,74.5930233 169.40407,72.4127907 C170.181686,70.2325581 169.876453,67.6671512 170.050872,64.9418605 C170.126457,64.1970304 170.375345,63.4802346 170.777616,62.8488372 C169.738372,63.3648256 168.742733,64.1424419 167.623547,64.3023256 C165.167151,64.6802326 164.97093,62.6671512 163.335756,61.940407 Z" id="Path" fill="#02679A"></path>
                <path d="M155.094477,59.0625 C155.094477,59.0625 158.728198,51.5697674 166.802326,52.7616279 C166.802326,52.7616279 160.770349,53.2485465 158.452035,61.1627907 C158.430233,61.1627907 155.901163,58.2630814 155.094477,59.0625 Z" id="Path" fill="#26A8E0"></path>
                <g id="Group" opacity="0.35" style="mix-blend-mode: multiply;" transform="translate(73.401163, 53.052326)" fill="#CBD3EB">
                    <path d="M17.252907,3.05232558 C17.252907,3.05232558 23.5392442,3.72819767 24.5203488,7.02761628 C25.5014535,10.3270349 27.122093,7.56540698 28.4520349,10.3488372 C29.7819767,13.1322674 25.7049419,13.5101744 23.2267442,12.2674419 C20.7485465,11.0247093 19.3313953,7.56540698 18.4738372,9.52761628 C18.4738372,9.52761628 21.7587209,20.9665698 20.4651163,26.2427326 C19.1715116,31.5188953 17.1075581,28.3430233 16.3517442,24.7892442 C15.5959302,21.2354651 16.2136628,14.4912791 14.8255814,12.8561047 C14.8255814,12.8561047 15.690407,20.2979651 15.1235465,22.6744186 C14.556686,25.0508721 13.8372093,27.9142442 12.5726744,25.5813953 C11.3081395,23.2485465 12.7834302,16.1337209 11.2354651,13.3938953 C11.2354651,13.3938953 11.9622093,24.2950581 10.3851744,24.7601744 C8.80813953,25.2252907 7.68168605,23.5465116 7.42005814,21.7514535 C7.15843023,19.9563953 8.09593023,15.4651163 7.06395349,13.0886628 C7.06395349,13.0886628 7.06395349,20.8866279 6.03924419,21.7296512 C5.01453488,22.5726744 4.44040698,23.3357558 3.6627907,21.1627907 C2.88517442,18.9898256 3.19767442,16.4171512 3.01598837,13.684593 C2.83430233,10.9520349 -0.334302326,9.6002907 0.486918605,5.80668605 C1.30813953,2.0130814 5.96656977,-1.94040698 17.252907,3.05232558 Z" id="Path"></path>
                    <path d="M18.7063953,9.12063953 C18.2462981,9.3140369 17.7519958,9.41289736 17.252907,9.41133721 L18.7572674,10.7994186 C18.5610465,10.0145349 18.4229651,9.52761628 18.4229651,9.52761628 C18.4862484,9.3727022 18.5830408,9.23371826 18.7063953,9.12063953 Z M15.9883721,2.52180233 C15.9883721,3.59011628 16.9476744,5.21075581 18.5537791,6.99127907 C19.4912791,8.03052326 19.3968023,8.62645349 18.9825581,8.96075581 C19.8619186,8.72819767 21.1627907,11.2427326 23.2267442,12.2674419 C25.7049419,13.5101744 29.7674419,13.1395349 28.4520349,10.3488372 C27.1366279,7.55813953 25.4723837,10.3488372 24.5203488,7.02761628 C23.568314,3.70639535 17.252907,3.05232558 17.252907,3.05232558 C16.8023256,2.84883721 16.380814,2.69622093 15.9883721,2.52180233 Z" id="Shape" fill-rule="nonzero"></path>
                    <path d="M5.42151163,13.0014535 C4.30232558,12.8343023 3.30668605,12.0639535 2.26017442,11.5479651 C2.66847476,12.1737523 2.91793552,12.8897047 2.9869186,13.6337209 C3.16860465,16.3662791 2.85610465,18.931686 3.63372093,21.1119186 C4.41133721,23.2921512 4.98546512,22.5145349 6.01017442,21.6787791 C7.03488372,20.8430233 7.03488372,13.0377907 7.03488372,13.0377907 C8.06686047,15.4142442 7.12936047,19.9055233 7.39098837,21.7005814 C7.65261628,23.4956395 8.84447674,25.1598837 10.3561047,24.7093023 C11.8677326,24.2587209 11.2063953,13.3430233 11.2063953,13.3430233 C12.7543605,16.0973837 11.2863372,23.1976744 12.5436047,25.5305233 C13.8008721,27.8633721 14.5276163,25.0072674 15.0944767,22.6235465 C15.6613372,20.2398256 14.7965116,12.8052326 14.7965116,12.8052326 C16.184593,14.440407 15.5741279,21.1773256 16.3226744,24.7383721 C17.0712209,28.2994186 19.1424419,31.431686 20.4360465,26.1918605 C21.7296512,20.9520349 18.4447674,9.47674419 18.4447674,9.47674419 C18.504918,9.31947467 18.5964009,9.176069 18.7136628,9.05523256 C18.2086161,8.99034255 17.6964548,9.09789641 17.2601744,9.36046512 C15.3052326,10.4287791 16.9113372,11.5406977 14.0188953,11.1046512 C12.318314,10.8648256 11.4607558,9.81104651 9.70203488,10.5886628 C8.05959302,11.3662791 7.87790698,13.372093 5.42151163,13.0014535 Z" id="Path"></path>
                    <path d="M17.9505814,7.76889535 C17.9505814,7.76889535 14.3168605,0.276162791 6.23546512,1.46075581 C6.23546512,1.46075581 12.2747093,1.94767442 14.5857558,9.8619186 C14.5857558,9.8619186 17.1438953,6.96947674 17.9505814,7.76889535 Z" id="Path"></path>
                </g>
                <path d="M90.6540698,54.3531977 C90.6540698,54.3531977 96.940407,55.0290698 97.9215116,58.3284884 C98.9026163,61.627907 100.523256,58.8662791 101.853198,61.6497093 C103.18314,64.4331395 99.1061047,64.8037791 96.627907,63.5610465 C94.1497093,62.318314 92.7325581,58.8662791 91.875,60.8284884 C91.875,60.8284884 95.1598837,72.2674419 93.8662791,77.5 C92.5726744,82.7325581 90.5087209,79.6002907 89.752907,76.0465116 C88.997093,72.4927326 89.6148256,65.7412791 88.2267442,64.1133721 C88.2267442,64.1133721 89.0915698,71.5552326 88.5247093,73.931686 C87.9578488,76.3081395 87.2383721,79.1642442 85.9738372,76.8386628 C84.7093023,74.5130814 86.184593,67.3909884 84.6366279,64.6511628 C84.6366279,64.6511628 85.3633721,75.5523256 83.7863372,76.0101744 C82.2093023,76.4680233 81.0828488,74.8037791 80.8212209,73.0087209 C80.559593,71.2136628 81.497093,66.7151163 80.4651163,64.3459302 C80.4651163,64.3459302 80.4651163,72.1438953 79.440407,72.9869186 C78.4156977,73.8299419 77.8415698,74.5930233 77.0639535,72.4127907 C76.2863372,70.2325581 76.5988372,67.6671512 76.4171512,64.9418605 C76.2354651,62.2165698 73.0668605,60.8502907 73.8880814,57.056686 C74.7093023,53.2630814 79.3677326,49.3604651 90.6540698,54.3531977 Z" id="Path" fill="#0B83C6"></path>
                <path d="M92.1075581,60.4142442 C91.6473969,60.6082668 91.1534553,60.7095249 90.6540698,60.7122093 L92.1584302,62.1002907 C91.9622093,61.3081395 91.8241279,60.8284884 91.8241279,60.8284884 C91.8875268,60.67153 91.9842282,60.5301971 92.1075581,60.4142442 Z M89.3895349,53.815407 C89.3895349,54.8909884 90.3488372,56.5043605 91.9549419,58.2921512 C92.8924419,59.3313953 92.7979651,59.9200581 92.3837209,60.2616279 C93.2630814,60.0218023 94.5639535,62.5436047 96.627907,63.5610465 C99.1061047,64.8037791 103.168605,64.4331395 101.853198,61.6497093 C100.537791,58.8662791 98.8735465,61.6497093 97.9215116,58.3284884 C96.9694767,55.0072674 90.6540698,54.3531977 90.6540698,54.3531977 C90.2034884,54.1497093 89.7819767,53.9898256 89.3895349,53.815407 Z" id="Shape" fill="#02679A" fill-rule="nonzero"></path>
                <path d="M78.8226744,64.3023256 C77.7034884,64.1351744 76.7078488,63.3575581 75.6613372,62.8488372 C76.0696911,63.4772741 76.3191043,64.1955844 76.3880814,64.9418605 C76.5697674,67.6671512 76.2572674,70.2398256 77.0348837,72.4127907 C77.8125,74.5857558 78.3866279,73.8226744 79.4113372,72.9869186 C80.4360465,72.1511628 80.4360465,64.3459302 80.4360465,64.3459302 C81.4680233,66.7151163 80.5305233,71.2136628 80.7921512,73.0087209 C81.0537791,74.8037791 82.2456395,76.4680233 83.7572674,76.0101744 C85.2688953,75.5523256 84.6002907,64.6802326 84.6002907,64.6802326 C86.1482558,67.434593 84.6802326,74.5276163 85.9375,76.8677326 C87.1947674,79.2078488 87.9215116,76.3444767 88.4883721,73.9607558 C89.0552326,71.5770349 88.190407,64.1424419 88.190407,64.1424419 C89.5784884,65.7703488 88.9680233,72.5145349 89.7165698,76.0755814 C90.4651163,79.6366279 92.5363372,82.7688953 93.8299419,77.5290698 C95.1235465,72.2892442 91.8386628,60.8575581 91.8386628,60.8575581 C91.8988133,60.7002886 91.9902963,60.556883 92.1075581,60.4360465 C91.6025114,60.3711565 91.0903502,60.4787104 90.6540698,60.7412791 C88.6991279,61.809593 90.3052326,62.8851744 87.4127907,62.4781977 C85.7122093,62.2383721 84.8546512,61.1918605 83.0959302,61.9694767 C81.4607558,62.6671512 81.2790698,64.6802326 78.8226744,64.3023256 Z" id="Path" fill="#02679A"></path>
                <path d="M91.3517442,59.0625 C91.3517442,59.0625 87.7180233,51.5697674 79.6366279,52.7616279 C79.6366279,52.7616279 85.6758721,53.2485465 87.9869186,61.1627907 C87.9869186,61.1627907 90.5450581,58.2630814 91.3517442,59.0625 Z" id="Path" fill="#26A8E0"></path>
                <g id="Group" opacity="0.6" style="mix-blend-mode: multiply;" transform="translate(106.104651, 74.854651)" fill="#CBD3EB" fill-rule="nonzero">
                    <path d="M25.9447674,2.25290698 L20.0726744,0.0726744186 L18.9389535,3.08139535 C17.4482847,2.85496663 15.930237,2.87953051 14.4476744,3.15406977 L13.1540698,0.297965116 L7.42732558,2.88517442 L8.68459302,5.66860465 C7.44979119,6.59091749 6.38078115,7.71644989 5.52325581,8.99709302 L2.69622093,7.92877907 L0.479651163,13.8081395 L3.30668605,14.8764535 C3.10362376,16.4062595 3.1626067,17.9594769 3.48110465,19.4694767 L0.726744186,20.690407 L3.31395349,26.4171512 L6.17005814,25.1235465 C7.10349254,26.3075596 8.22853369,27.3269746 9.49854651,28.1395349 L8.36482558,31.1482558 L14.244186,33.3284884 L15.4142442,30.2180233 C16.869266,30.3836945 18.3414402,30.314993 19.7747093,30.0145349 L21.1700581,33.1104651 L26.8895349,30.5232558 L25.4360465,27.3619186 C26.5624332,26.4814332 27.5434001,25.4293462 28.3430233,24.244186 L31.6206395,25.4796512 L33.8008721,19.6002907 L30.5232558,18.3648256 C30.7084097,16.9530654 30.671628,15.5210331 30.4142442,14.1206395 L33.5828488,12.6671512 L30.9956395,6.94040698 L27.8997093,8.33575581 C27.0242415,7.16929256 25.9695012,6.14889268 24.7747093,5.3125 L25.9447674,2.25290698 Z M25.6976744,19.934593 C23.9157141,24.6609451 18.6408795,27.0491977 13.9134672,25.270052 C9.18605485,23.4909062 6.79466182,18.2174947 8.57099231,13.4890238 C10.3473228,8.76055291 15.6193094,6.36602027 20.3488372,8.13953488 C22.6248805,8.99095549 24.4683103,10.7134852 25.4719322,12.9266352 C26.4755542,15.1397852 26.5567824,17.6614402 25.6976744,19.934593 Z M14.1569767,15.5741279 C13.698478,16.7812845 14.0128582,18.1457834 14.95335,19.030613 C15.8938419,19.9154425 17.2749613,20.1460965 18.4519375,19.6148948 C19.6289137,19.0836932 20.3696232,17.8953996 20.3282683,16.6047649 C20.2869134,15.3141302 19.4716502,14.1756936 18.2630814,13.7209302 C16.6175586,13.1017487 14.7812441,13.9305278 14.1569767,15.5741279 Z" id="Shape"></path>
                </g>
                <path d="M132.049419,75.6540698 L126.177326,73.4738372 L125.043605,76.4825581 C123.552936,76.2561294 122.034888,76.2806933 120.552326,76.5552326 L119.258721,73.6991279 L113.531977,76.2863372 L114.789244,79.0697674 C113.554442,79.9920803 112.485432,81.1176127 111.627907,82.3982558 L108.800872,81.3299419 L106.584302,87.2093023 L109.411337,88.2776163 C109.208275,89.8074223 109.267258,91.3606396 109.585756,92.8706395 L106.831395,94.0915698 L109.418605,99.818314 L112.274709,98.5247093 C113.208144,99.7087224 114.333185,100.728137 115.603198,101.540698 L114.469477,104.549419 L120.348837,106.729651 L121.518895,103.619186 C122.973917,103.784857 124.446091,103.716156 125.87936,103.415698 L127.274709,106.511628 L132.994186,103.924419 L131.540698,100.763081 C132.667084,99.8825959 133.648051,98.830509 134.447674,97.6453488 L137.725291,98.880814 L139.905523,93.0014535 L136.627907,91.7659884 C136.813061,90.3542282 136.776279,88.9221959 136.518895,87.5218023 L139.6875,86.068314 L137.100291,80.3415698 L134.00436,81.7369186 C133.128893,80.5704553 132.074152,79.5500555 130.87936,78.7136628 L132.049419,75.6540698 Z M131.802326,93.3357558 C130.020365,98.0621079 124.745531,100.45036 120.018118,98.6712147 C115.290706,96.892069 112.899313,91.6186575 114.675643,86.8901866 C116.451974,82.1617157 121.723961,79.7671831 126.453488,81.5406977 C128.729532,82.3921183 130.572961,84.114648 131.576583,86.327798 C132.580205,88.540948 132.661434,91.062603 131.802326,93.3357558 Z M120.261628,88.9752907 C119.803129,90.1824473 120.117509,91.5469462 121.058001,92.4317758 C121.998493,93.3166053 123.379612,93.5472593 124.556589,93.0160576 C125.733565,92.484856 126.474274,91.2965624 126.432919,90.0059277 C126.391565,88.715293 125.576301,87.5768563 124.367733,87.122093 C122.72221,86.5029115 120.885895,87.3316906 120.261628,88.9752907 Z" id="Shape" fill="#FDB913" fill-rule="nonzero"></path>
            </g>
        </g>
    </g>
</svg>