<?xml version="1.0" encoding="UTF-8"?>
<svg width="29px" height="26px" viewBox="0 0 29 26" version="1.1" xmlns="http://www.w3.org/2000/svg" xmlns:xlink="http://www.w3.org/1999/xlink">
    <!-- Generator: Sketch 50.2 (55047) - http://www.bohemiancoding.com/sketch -->
    <title>notif_podcast</title>
    <desc>Created with Sketch.</desc>
    <defs></defs>
    <g id="Symbols" stroke="none" stroke-width="1" fill="none" fill-rule="evenodd">
        <g id="notif---web-copy" transform="translate(-16.000000, -755.000000)" fill="#B11A25">
            <path d="M42.153321,765.558895 C42.5757202,765.657399 45,766.361787 45,769.553767 C45,773.050365 42.3639334,773.476343 42.3639334,773.476343 L41.8186108,774.243998 L40.5455105,774.243998 L40.5455105,764.35134 L40.5668738,764.355352 C40.4457888,763.571526 40.256394,762.845961 39.999507,762.18479 C39.4889053,760.871091 38.7515964,759.762398 37.8100468,758.890644 C36.865774,758.016335 35.7370037,757.362359 34.4570954,756.946599 C33.2670529,756.560217 31.9633165,756.364791 30.5819686,756.364791 C29.1992591,756.364791 27.8955227,756.560217 26.7068418,756.946599 C25.4262527,757.362359 24.2981632,758.015696 23.3532096,758.890644 C22.4109792,759.762398 21.6743511,760.871091 21.1637494,762.186068 C21.0119305,762.575004 20.8812164,763.000344 20.7750113,763.449313 L20.4544895,765.333175 L20.4544895,774.243998 L19.18207,774.243998 L18.6367474,773.476343 C18.6367474,773.476343 16,773.050365 16,769.553767 C16,766.057169 18.9090683,765.545612 18.9090683,765.545612 L19.0908425,764.607438 L19.1059093,764.604608 L19.3473688,763.193216 C19.4753597,762.646533 19.6237746,762.163715 19.7966983,761.718577 C20.3821883,760.212007 21.2352336,758.933433 22.3320062,757.91926 C23.4321827,756.900617 24.7440888,756.139348 26.230961,755.657169 C27.5728224,755.220972 29.0372281,755 30.5819686,755 C32.1260282,755 33.5897532,755.220972 34.9322954,755.657169 C36.4198484,756.139987 37.7317545,756.901255 38.8312502,757.91926 C39.9280228,758.934072 40.7803873,760.212007 41.3665581,761.717939 C41.8059493,762.850668 42.0699099,764.139104 42.153321,765.558895 Z M38.0320564,765.454668 C38.4350914,766.49311 38.6366089,767.742306 38.6366089,769.202255 L38.6366089,772.765272 C38.6366089,774.208617 38.4350914,775.453342 38.0320564,776.500086 C37.6283406,777.547469 37.0707635,778.400703 36.3579635,779.059787 C35.6451635,779.719511 34.8009686,780.208076 33.8260597,780.524846 C32.85047,780.841615 31.7809296,781 30.6188,781 C29.4553088,781 28.3864492,780.841615 27.4108595,780.524846 C26.4359506,780.208076 25.5917557,779.719511 24.8789557,779.059787 C24.1661557,778.400703 23.6078978,777.547469 23.2048628,776.500086 C23.1224857,776.2855 23.0544055,776.058142 22.9883677,775.826951 L27.9922647,775.826951 C28.4946968,775.826951 28.9018166,775.445039 28.9018166,774.973717 C28.9018166,774.502395 28.4946968,774.121122 27.9922647,774.121122 L22.6745178,774.121122 C22.6302657,773.688119 22.6003104,773.241704 22.6003104,772.765272 L22.6003104,772.414655 L27.9922647,772.414655 C28.4946968,772.414655 28.9018166,772.032743 28.9018166,771.562059 C28.9018166,771.090737 28.4946968,770.708826 27.9922647,770.708826 L22.6003104,770.708826 L22.6003104,769.202255 C22.6003104,769.133281 22.6064376,769.071332 22.6077992,769.002997 L27.9922647,769.002997 C28.4946968,769.002997 28.9018166,768.621085 28.9018166,768.149763 C28.9018166,767.678441 28.4946968,767.296529 27.9922647,767.296529 L22.7364708,767.296529 C22.8372296,766.624671 22.9904101,766.007737 23.2048628,765.454668 C23.6078978,764.416865 24.1661557,763.567463 24.8789557,762.90774 C25.5917557,762.248017 26.4359506,761.760089 27.4108595,761.44332 C28.3864492,761.126551 29.4553088,760.968166 30.6188,760.968166 C31.7809296,760.968166 32.85047,761.126551 33.8260597,761.44332 C34.8009686,761.760089 35.6451635,762.248017 36.3579635,762.90774 C37.0707635,763.567463 37.6283406,764.416865 38.0320564,765.454668 Z" id="notif_podcast"></path>
        </g>
    </g>
</svg>