<svg xmlns="http://www.w3.org/2000/svg" xmlns:xlink="http://www.w3.org/1999/xlink" width="156" height="14" viewBox="0 0 156 14">
    <defs>
        <path id="a" d="M0 .266h13.656v8.455H0z"/>
        <path id="c" d="M.049.005H6.62v8.758H.05z"/>
        <path id="e" d="M.664 0H20v9.919H.664z"/>
    </defs>
    <g fill="none" fill-rule="evenodd">
        <path fill="#58595B" d="M38.197 10.159c-.163-.9-.722-1.764-2.325-1.881h-5.44a.769.769 0 0 1-.456-.147.624.624 0 0 1-.278-.413.679.679 0 0 1-.015-.15c0-.395.336-.714.75-.714H33.8c1.001 0 1.251.164 1.31.545a.394.394 0 0 0 .396.329H37.86V7.46c0-1.483-.294-2.497-3.443-2.497h-4.861c-.107 0-.49.016-.652.047-.876.177-1.76.849-1.875 1.947-.007.08-.044.358-.042.708-.01.259.049.663.063.738.015.082.033.165.054.248.035.14.081.27.14.392.305.671 1.147 1.157 2.128 1.241.042 0 5.372-.006 5.44 0 .414.033.749.265.749.712 0 .305-.173.47-.337.58-.187.131-.462.133-.462.133H30.91c-.678 0-1.055-.052-1.154-.638v-.004a.394.394 0 0 0-.395-.326h-2.363v.583c0 1.832.997 2.276 3.48 2.276h5.213c.106 0 .49-.015.651-.047.876-.176 1.758-.85 1.875-1.948.007-.078.044-.357.042-.708a5.05 5.05 0 0 0-.062-.738"/>
        <g transform="translate(0 4.786)">
            <mask id="b" fill="#fff">
                <use xlink:href="#a"/>
            </mask>
            <path fill="#58595B" d="M9.29 4.748a.363.363 0 0 1-.002-.545L13.656.266h-3.47a.406.406 0 0 0-.289.117h-.002L6.907 3.259h-.002c-.168.14-.387.227-.627.232H5.37c-.113 0-.203-.086-.203-.19v-.003h-.002V.633A.389.389 0 0 0 4.79.27H2.516v3.222H0V4.55c0 .525.446.948.998.948h1.518V8.72h2.251a.39.39 0 0 0 .398-.375V5.685h.002a.196.196 0 0 1 .201-.184l.883-.003c.262 0 .502.098.679.257L9.905 8.61c.073.068.172.11.28.11h3.462L9.29 4.75v-.001z" mask="url(#b)"/>
        </g>
        <path fill="#58595B" d="M23.832 13.303c.068.119.197.2.347.204h2.671l-4.42-8.246a.405.405 0 0 0-.359-.209h-3.274c-.15 0-.28.078-.348.192l-4.427 8.263h2.664c.156 0 .29-.085.356-.208l.621-1.162a.208.208 0 0 1 .185-.11h5.177c.08 0 .15.045.183.11l.624 1.165v.001zM18.68 10.24l1.756-3.275 1.757 3.275H18.68zM74.225 10.159c-.164-.9-.723-1.764-2.325-1.881h-5.438a.77.77 0 0 1-.458-.147.622.622 0 0 1-.277-.413.698.698 0 0 1-.016-.15c0-.395.335-.714.75-.714h3.367c1.003 0 1.25.164 1.312.545a.391.391 0 0 0 .395.329H73.889V7.46c0-1.483-.296-2.497-3.446-2.497h-4.862c-.106 0-.487.016-.649.047-.877.177-1.761.849-1.876 1.947-.007.08-.042.358-.042.708-.008.259.049.663.064.738.013.082.031.165.054.248.034.14.08.27.141.392.302.671 1.146 1.157 2.128 1.241.04 0 5.37-.006 5.438 0 .414.033.748.265.748.712 0 .305-.173.47-.336.58-.189.131-.462.133-.462.133h-3.851c-.678 0-1.055-.052-1.155-.638v-.004a.39.39 0 0 0-.395-.326h-2.362v.583c0 1.832.998 2.276 3.481 2.276h5.211c.109 0 .49-.015.652-.047.876-.176 1.76-.85 1.874-1.948.01-.078.043-.357.043-.708a4.691 4.691 0 0 0-.062-.738M39.056 13.507h2.25a.39.39 0 0 0 .4-.375v-2.66h.001a.196.196 0 0 1 .202-.185l.882-.003c.262 0 .502.098.68.257l2.974 2.857c.073.067.171.11.28.11h3.463L45.83 9.534v-.001a.363.363 0 0 1-.002-.544l4.369-3.937h-3.471a.409.409 0 0 0-.289.116v.001l-2.99 2.875-.001.001c-.168.14-.388.226-.629.232h-.907c-.113 0-.203-.086-.203-.191v-.003h-.001V5.42a.39.39 0 0 0-.374-.362h-2.276v8.45zM59.868 5.067a.392.392 0 0 0-.4.379v5.057c-.005.515-.444.932-.986.936v.001h-3.636c-.543-.005-.982-.422-.986-.937h-.002V5.432a.391.391 0 0 0-.398-.365h-2.405v6.128c.026 1.308 1.126 2.366 2.498 2.414v.001h6.13c1.414-.001 2.563-1.079 2.59-2.415h.002V5.067h-2.407z"/>
        <path fill="#0082C6" d="M81.703 7.7c0-.497-.154-.85-.464-1.06-.309-.208-.773-.313-1.391-.313-.066 0-.15.002-.254.006l-.315.012-.303.011a2.62 2.62 0 0 0-.229.018v2.817c.05 0 .126.002.229.006l.321.012.322.011c.103.004.18.006.229.006.668 0 1.144-.118 1.429-.355.284-.237.426-.591.426-1.065V7.7zm1.435 1.42a2.385 2.385 0 0 1-.782.855c-.328.216-.706.37-1.137.46-.43.09-.886.135-1.366.135-.166 0-.357-.006-.572-.018-.215-.012-.393-.021-.534-.03V13.6a.231.231 0 0 1-.068.165.225.225 0 0 1-.168.071h-1.243a.245.245 0 0 1-.173-.07.22.22 0 0 1-.075-.166v-8.11c0-.117.035-.201.106-.253a.634.634 0 0 1 .292-.1c.323-.047.695-.084 1.118-.112.422-.027.86-.041 1.317-.041.48 0 .935.043 1.366.13.43.086.81.235 1.137.448.327.212.587.493.782.842.195.35.292.784.292 1.303v.106c0 .518-.097.955-.292 1.308zM102.604 8.594c0-.44-.055-.805-.167-1.092a1.708 1.708 0 0 0-.458-.685 1.637 1.637 0 0 0-.686-.354 3.51 3.51 0 0 0-.867-.1c-.23 0-.429.003-.594.01l-.445.025v6.129c.132.008.28.015.445.023.165.008.363.012.594.012.314 0 .603-.033.867-.1s.493-.185.686-.355c.194-.169.347-.397.458-.685.112-.287.167-.651.167-1.092V8.594zm.715 4.41c-.676.617-1.638.925-2.889.925a21.469 21.469 0 0 1-1.41-.047 50.127 50.127 0 0 1-.62-.047 5.287 5.287 0 0 1-.417-.047.411.411 0 0 1-.242-.106c-.054-.055-.08-.142-.08-.26V5.49c0-.118.026-.204.08-.26a.413.413 0 0 1 .242-.106c.091-.015.23-.03.416-.047l.622-.047a19.604 19.604 0 0 1 1.41-.047c1.25 0 2.212.309 2.888.925.674.617 1.012 1.51 1.012 2.682v1.732c0 1.171-.338 2.065-1.012 2.682zM111.362 13.652a.656.656 0 0 1-.199.089 7.35 7.35 0 0 0-.254.047c-.12.023-.268.045-.441.065-.174.02-.369.037-.584.053a9.41 9.41 0 0 1-.683.023c-.373 0-.767-.05-1.18-.153a2.933 2.933 0 0 1-1.133-.56c-.342-.271-.626-.638-.852-1.102-.226-.464-.339-1.06-.339-1.792V8.59c0-.739.113-1.342.34-1.81.225-.467.51-.834.85-1.102.342-.266.72-.45 1.133-.548a5.129 5.129 0 0 1 1.18-.147c.24 0 .468.008.684.024.215.015.41.033.584.053.173.02.32.039.44.059.12.02.206.037.255.053.083.023.15.053.199.088.05.035.075.096.075.183v.79c0 .07-.019.13-.056.176-.038.047-.102.07-.193.07h-.025c-.108-.007-.238-.017-.39-.029a16.383 16.383 0 0 0-.492-.029l-.534-.023a12.382 12.382 0 0 0-.522-.012c-.256 0-.497.035-.72.106a1.28 1.28 0 0 0-.572.365c-.157.173-.281.4-.372.684-.092.283-.137.632-.137 1.049v1.732c0 .409.045.755.137 1.038.09.282.215.51.372.683.158.173.348.297.572.371.223.075.464.113.72.113.166 0 .34-.004.522-.012l.534-.024c.174-.007.338-.017.491-.03l.391-.029h.025c.091 0 .155.024.193.071a.276.276 0 0 1 .056.177v.79c0 .086-.025.147-.075.182M116.219 6.55a.346.346 0 0 0-.062-.147c-.025-.027-.07-.04-.137-.04-.066 0-.112.013-.136.04a.346.346 0 0 0-.063.148l-.894 3.5h2.186l-.894-3.5zm3.578 7.084c0 .064-.021.112-.062.148a.24.24 0 0 1-.162.053h-1.317a.209.209 0 0 1-.149-.059.318.318 0 0 1-.087-.142l-.571-2.239h-2.857l-.572 2.24a.32.32 0 0 1-.087.141.211.211 0 0 1-.149.059h-1.316a.24.24 0 0 1-.162-.053.183.183 0 0 1-.062-.148.05.05 0 0 1 .006-.023.076.076 0 0 0 .006-.035l2.038-7.39c.074-.276.181-.492.322-.649a1.58 1.58 0 0 1 .454-.36c.161-.082.327-.135.497-.159.17-.023.32-.035.453-.035s.284.012.454.035c.17.024.335.077.497.16.161.082.312.202.453.359.14.157.248.373.323.648l2.037 7.39c0 .017.002.028.006.036a.05.05 0 0 1 .007.023zM126.555 11.466c0 .298-.054.595-.162.89a1.993 1.993 0 0 1-.54.79c-.253.231-.589.42-1.006.565-.419.145-.938.218-1.56.218-.472 0-.882-.02-1.23-.059-.347-.04-.67-.09-.968-.153a.382.382 0 0 1-.168-.082.192.192 0 0 1-.069-.154v-.848a.21.21 0 0 1 .07-.16.234.234 0 0 1 .167-.064h.025c.124.016.287.029.49.041l.628.035c.215.012.42.022.614.03.195.008.35.012.466.012.555 0 .934-.09 1.137-.272.203-.18.304-.444.304-.79a.904.904 0 0 0-.05-.312.817.817 0 0 0-.167-.265 1.725 1.725 0 0 0-.323-.265 9.495 9.495 0 0 0-.516-.312l-1.64-.932a4.238 4.238 0 0 1-.714-.495 2.411 2.411 0 0 1-.447-.512 1.806 1.806 0 0 1-.236-.554 2.562 2.562 0 0 1-.068-.595c0-.323.054-.621.161-.896.108-.275.284-.513.528-.713.244-.2.563-.356.957-.466.393-.11.88-.165 1.46-.165a12.756 12.756 0 0 1 1.341.07c.223.024.426.048.609.072.182.023.327.047.434.07.067.016.12.042.162.077a.184.184 0 0 1 .062.147v.872a.213.213 0 0 1-.056.154.203.203 0 0 1-.155.058h-.025a25.096 25.096 0 0 0-2.447-.118c-.464 0-.797.074-1 .219a.716.716 0 0 0-.304.619c0 .094.014.182.043.265a.704.704 0 0 0 .161.247c.079.083.185.165.317.248.132.082.298.179.497.288l1.49.79c.34.181.622.364.846.548.223.185.4.376.534.572.132.196.223.4.273.613.05.212.075.436.075.672"/>
        <g transform="translate(127.375 5.072)">
            <mask id="d" fill="#fff">
                <use xlink:href="#c"/>
            </mask>
            <path fill="#0082C6" d="M6.546 1.314a.272.272 0 0 1-.174.059H4.198v7.154a.22.22 0 0 1-.075.165.245.245 0 0 1-.174.07H2.72a.244.244 0 0 1-.174-.07.22.22 0 0 1-.074-.165V1.373H.297a.271.271 0 0 1-.174-.06.186.186 0 0 1-.074-.153V.23c0-.064.025-.117.074-.16A.257.257 0 0 1 .297.005h6.075c.066 0 .124.022.174.065.05.043.074.096.074.16v.93a.186.186 0 0 1-.074.154" mask="url(#d)"/>
        </g>
        <path fill="#B11A25" d="M85.884 8.027h-.528l.217-1.468.152-.894c.056-.244.122-.46.198-.66a4.514 4.514 0 0 1 1.122-1.699 4.595 4.595 0 0 1 1.724-1.012A6.155 6.155 0 0 1 90.694 2c.683 0 1.33.099 1.924.294a4.597 4.597 0 0 1 1.724 1.012 4.52 4.52 0 0 1 1.122 1.7c.239.623.36 1.352.36 2.166h-.643c0-.743-.108-1.401-.322-1.958a3.917 3.917 0 0 0-.968-1.473 3.956 3.956 0 0 0-1.483-.87 5.488 5.488 0 0 0-1.714-.26c-.612 0-1.189.087-1.714.26a3.953 3.953 0 0 0-1.484.87c-.416.39-.742.886-.968 1.474a4.291 4.291 0 0 0-.172.565l-.146.87-.165 1.115-.16-.022v.284z"/>
        <path fill="#B11A25" d="M93.248 5.538a2.974 2.974 0 0 0-1.12-.655 4.525 4.525 0 0 0-1.418-.213c-.515 0-.987.07-1.419.213-.431.141-.805.36-1.12.655a3.008 3.008 0 0 0-.74 1.14 3.905 3.905 0 0 0-.207.823h2.324c.222 0 .403.171.403.382 0 .21-.18.382-.403.382h-2.381c-.001.03-.004.058-.004.089v.674h2.385c.222 0 .403.17.403.381s-.18.382-.403.382h-2.385v.157c0 .213.014.413.033.606h2.352c.222 0 .403.17.403.382 0 .21-.18.381-.403.381h-2.213c.03.104.06.206.096.302.178.468.425.85.74 1.145.315.295.689.513 1.12.655.432.142.904.213 1.419.213.514 0 .987-.071 1.419-.213.43-.142.804-.36 1.12-.655.315-.295.561-.677.74-1.145.178-.469.267-1.026.267-1.671V8.354c0-.653-.089-1.212-.267-1.677a3.011 3.011 0 0 0-.74-1.14zM86.214 6.184v4.425h-.563l-.24-.343s-1.167-.19-1.167-1.755c0-1.564 1.287-1.793 1.287-1.793l.08-.42.603-.114zM95.1 6.184v4.425h.564l.24-.343s1.167-.19 1.167-1.755c0-1.564-1.287-1.793-1.287-1.793l-.08-.42-.603-.114z"/>
        <g>
            <g transform="translate(136)">
                <mask id="f" fill="#fff">
                    <use xlink:href="#e"/>
                </mask>
                <path fill="#F01616" d="M18.366 9.919H2.298c-.899 0-1.634-.766-1.634-1.7V1.7C.664.765 1.4 0 2.298 0h16.068C19.264 0 20 .765 20 1.7V8.22c0 .934-.736 1.7-1.634 1.7" mask="url(#f)"/>
            </g>
            <path fill="#FFF" d="M140.778 4.35l.691.008c.256-.005.466-.068.629-.19a.741.741 0 0 0 .294-.507c.058-.428-.156-.643-.642-.645l-.75-.004-.222 1.339zm-.125.774l-.24 1.434.803.003c.25 0 .458-.064.627-.195a.782.782 0 0 0 .302-.527c.033-.22.005-.39-.085-.512-.089-.123-.24-.19-.45-.2l-.957-.003zm-1.402 2.313l.878-5.312 1.576.004c.585.002 1.025.128 1.318.376.294.248.427.597.4 1.046-.033.538-.328.931-.886 1.179.202.073.357.21.47.41.11.201.158.438.141.71-.032.501-.219.89-.56 1.17-.342.278-.807.417-1.397.417h-1.94zM145.72 4.267a.676.676 0 0 0-.48.178c-.141.125-.267.34-.378.646h1.347l.02-.095a.994.994 0 0 0 .004-.277.533.533 0 0 0-.17-.33.515.515 0 0 0-.344-.122m-.312 3.243a1.58 1.58 0 0 1-.873-.254 1.517 1.517 0 0 1-.567-.685 2.002 2.002 0 0 1-.146-.962l.01-.146c.036-.384.142-.736.32-1.058.178-.32.408-.568.688-.742a1.63 1.63 0 0 1 .93-.246c.483.01.849.197 1.098.56.249.364.343.826.283 1.383l-.057.45h-2.3c-.01.255.05.46.177.613a.667.667 0 0 0 .52.237c.357.01.67-.136.937-.438l.449.583a1.415 1.415 0 0 1-.611.524 1.915 1.915 0 0 1-.858.18M149.37 2.52l-.163.97h.625l-.128.773h-.626l-.318 1.977a.523.523 0 0 0 .027.285c.033.065.111.1.236.105.038.003.137-.004.3-.017l-.07.806a1.58 1.58 0 0 1-.563.084c-.322-.006-.561-.111-.718-.318-.158-.207-.223-.486-.194-.839l.322-2.083h-.531l.129-.773h.53l.16-.97h.982zM151.168 6.71c.282.01.529-.118.74-.386l.12-.682-.34-.003c-.36.009-.62.125-.78.346a.62.62 0 0 0-.108.295c-.018.132.008.235.078.312.07.077.168.117.29.119zm.753.726c-.03-.099-.043-.218-.038-.357-.283.297-.602.44-.958.431a1.126 1.126 0 0 1-.817-.338 1.049 1.049 0 0 1-.304-.815c.016-.43.188-.76.515-.99.328-.23.767-.345 1.318-.345l.458.007.048-.237a.865.865 0 0 0 .01-.23.403.403 0 0 0-.123-.268.41.41 0 0 0-.28-.1.577.577 0 0 0-.387.118.577.577 0 0 0-.206.363l-.982.004a1.16 1.16 0 0 1 .495-.917c.313-.235.7-.35 1.16-.345.427.01.76.142 1 .4.24.256.342.586.302.99l-.288 1.89-.018.233c-.004.172.016.319.06.438l-.004.068h-.96z"/>
        </g>
    </g>
</svg>
