<svg xmlns="http://www.w3.org/2000/svg" xmlns:xlink="http://www.w3.org/1999/xlink" width="302" height="215" viewBox="0 0 302 215">
    <defs>
        <rect id="a" width="300" height="213" rx="3"/>
        <path id="c" d="M.434.335H14.38v10.622H.434z"/>
        <path id="e" d="M0 .63h24.99v25.788H0z"/>
        <path id="g" d="M.356.186H70.25v27.506H.356z"/>
        <path id="i" d="M0 .816h103.593v40.767H0z"/>
    </defs>
    <g fill="none" fill-rule="evenodd" transform="translate(1 1)">
        <mask id="b" fill="#fff">
            <use xlink:href="#a"/>
        </mask>
        <rect width="301" height="214" x="-.5" y="-.5" stroke="#D2D2D2" rx="3"/>
        <g mask="url(#b)">
            <path fill="#FFF2DC" d="M510 220.822C434.05 193.987 349.336 179 260 179c-89.336 0-174.05 14.987-250 41.822v205.35h500v-205.35z"/>
            <path fill="#DBCDB9" d="M244 206.799c-39.764 0-72-2.194-72-4.899 0-2.706 32.236-4.9 72-4.9s72 2.194 72 4.9c0 2.705-32.236 4.899-72 4.899"/>
            <path fill="#F79292" d="M226.258 101.553a19.544 19.544 0 0 0 1.418 2.76l21.374 1.581 3.737-.004.01-1.907s-10.114-2.88-20.218-4.908l-6.32 2.478z"/>
            <path fill="#F79292" d="M232.759 99.103c-2.722-8.531-6.007-16.948-8.754-17.805 0 0-2.68-.73-4.905 1.09-2.223 1.822-.832 5.029-.832 5.029l7.99 14.136 6.5-2.45z"/>
            <path fill="#49557F" d="M209 62.307c-2.95 9.758 3.998 14.2 3.998 14.2l3.48-12.05-7.477-2.15z"/>
            <path fill="#49557F" d="M219.287 56.332c7.703 2.344 5.983 10.053 5.983 10.053-1.768 10.876-12.592 5.723-12.592 5.723-3.604.973 3.596-11.606 3.596-11.606l3.013-4.17zM214.904 124.47h14.655l-3.322 72.555h-4.494l-3.472-62.465-6.066.98-4.14 61.485h-4.494l-3.322-72.555z"/>
            <path fill="#F79292" d="M214.057 79.924h4.203v-8.596h-4.203z"/>
            <path fill="#F79292" d="M209.845 65.976c-.438 5.353 2.485 8.417 6.102 8.711 3.617.295 6.558-2.29 6.996-7.643.438-5.353-2.14-9.931-5.756-10.226-3.617-.294-6.904 3.806-7.342 9.158"/>
            <path fill="#4DB3D6" d="M198.462 126.113c-.03-.435-.06-.869-.059-1.312l.069-33.49c.02-9.502 7.208-13.507 16.065-13.494 8.857.013 11.132 6.533 12.369 14.528l3.571 32.503c0 .443-.033.878-.064 1.312l-31.95-.047z"/>
            <g transform="translate(206.45 55.302)">
                <mask id="d" fill="#fff">
                    <use xlink:href="#c"/>
                </mask>
                <path fill="#49557F" d="M14.381 2.472C11.311 7.752.434 10.957.434 10.957.394 2.324 7.627.53 7.627.53c4.759-.961 6.754 1.942 6.754 1.942" mask="url(#d)"/>
            </g>
            <path fill="#6B518E" d="M221.297 196.424l.027 5.306 9.225-.048s-.978-3.6-4.627-5.134l-4.625-.124zM203.117 196.424l.027 5.306 9.225-.048s-.978-3.6-4.626-5.134l-4.626-.124z"/>
            <path fill="#CE7E42" d="M228.065 107.81l-4.132-5.377-5.498 4.329 4.095 5.404z"/>
            <g transform="translate(165 128.483)">
                <mask id="f" fill="#fff">
                    <use xlink:href="#e"/>
                </mask>
                <path fill="#FFD527" d="M4.114 3.022c-5.505 4.153-5.208 11.413-.757 17.288 4.451 5.874 11.37 8.138 16.874 3.985 5.505-4.153 6.36-12.282 1.909-18.157C17.689.264 9.618-1.132 4.114 3.022" mask="url(#f)"/>
            </g>
            <path fill="#FFD527" d="M184.515 124.273c-4.06 3.063-4.69 9.058-1.407 13.391 3.282 4.333 9.234 5.362 13.295 2.298 4.059-3.063 3.856-8.43.573-12.762-3.282-4.333-8.402-5.99-12.461-2.927"/>
            <path fill="#FFD527" d="M186.927 131.98l2.7 3.565 29.87-22.536-2.7-3.565z"/>
            <path fill="#CE7E42" d="M222.53 112.166l-4.095-5.404-1.638 2.683 2.7 3.564z"/>
            <path fill="#FFD527" d="M182.133 138.4a4.987 4.987 0 0 0 6.976.966 4.963 4.963 0 0 0 .97-6.961 4.986 4.986 0 0 0-6.977-.968 4.964 4.964 0 0 0-.97 6.962"/>
            <path fill="#CE7E42" d="M183.494 131.954a4.316 4.316 0 0 0-.843 6.055 4.337 4.337 0 0 0 6.066.84 4.316 4.316 0 0 0 .843-6.054 4.337 4.337 0 0 0-6.066-.84"/>
            <path fill="#FFD527" d="M183.004 125.733c-1.631 3.27-4.281 3.606-4.281 3.606 1.823 2.396 3.295 1.586 3.295 1.586.872-3.188.986-5.192.986-5.192M194.065 141.235c-3.331.757-4.314 3.06-4.314 3.06-1.813-2.405-.63-3.598-.63-3.598 2.838.028 4.687.353 5.156.445 0 0-.105.068-.212.093"/>
            <path fill="#FFF0B3" d="M177.9 140.406l47.516-35.941-.165-.214-47.515 35.94zM178.54 141.25l47.515-35.942-.164-.214-47.516 35.942zM179.207 142.13l47.515-35.94-.164-.214-47.515 35.94z"/>
            <path fill="#FFF0B3" d="M176.533 137.486l4.954 6.539 1.326-1-4.955-6.539z"/>
            <path fill="#CE7E42" d="M227.068 109.154l.297.375.866-.682-.297-.375zM225.466 110.416l.296.374.866-.682-.296-.374zM223.864 111.677l.296.375.866-.682-.296-.374z"/>
            <path fill="#CE7E42" d="M227.015 108.39l.535.677.188-.148-.535-.677zM225.412 109.651l.536.677.188-.147-.536-.677zM223.867 110.985l.535.677.188-.148-.535-.676zM222.333 103.165l-.296-.375.867-.682.295.375zM220.73 104.426l-.295-.375.866-.681.296.375zM219.128 105.688l-.296-.375.866-.682.296.375z"/>
            <path fill="#CE7E42" d="M223.065 103.394l-.535-.677.188-.147.535.677zM221.463 104.656l-.536-.676.188-.149.536.677zM219.803 105.846l-.535-.677.188-.148.536.678z"/>
            <path fill="#FFD527" d="M226.405 107.426a.353.353 0 1 0 .438.555.353.353 0 0 0-.438-.555M224.897 108.614a.353.353 0 1 0 .438.555.352.352 0 0 0 .059-.496.355.355 0 0 0-.497-.059M223.388 109.802a.353.353 0 1 0 .437.555.353.353 0 0 0-.437-.555M223.57 103.655a.353.353 0 1 0 .438.554.353.353 0 0 0-.438-.554M222.061 104.842a.353.353 0 1 0 .439.555.352.352 0 0 0 .058-.495.354.354 0 0 0-.497-.06M220.553 106.03a.353.353 0 1 0 .437.555.353.353 0 0 0-.437-.554"/>
            <path fill="#CE7E42" d="M178.745 139.082a.248.248 0 1 0 .308.39.248.248 0 0 0-.308-.39M178.135 138.31a.248.248 0 1 0 .307.389.248.248 0 0 0-.307-.388M179.519 140.061a.247.247 0 1 0 .307.389.248.248 0 1 0-.307-.389M180.174 140.89a.246.246 0 0 0-.041.347c.084.108.24.126.347.04a.246.246 0 0 0 .042-.347.248.248 0 0 0-.348-.04M180.816 141.702a.248.248 0 1 0 .308.39.248.248 0 1 0-.308-.39"/>
            <path fill="#F79292" d="M192.625 99.003c-.81 1.34-1.36 2.79-1.36 2.79l11.587 17.995 2.25 2.978 1.533-1.14s-3.775-9.795-8.227-19.072l-5.783-3.55z"/>
            <path fill="#F79292" d="M198.495 102.715c5.194-7.3 9.958-14.981 8.993-17.686 0 0-1.027-2.577-3.823-3.255-2.796-.68-4.526 2.36-4.526 2.36l-6.514 14.87 5.87 3.71zM207.118 119.924c.781 1.287.576 2.838-.46 3.464-1.035.627-2.508.091-3.29-1.196-.782-1.288-.576-2.838.46-3.465 1.035-.626 2.507-.09 3.29 1.197"/>
            <path fill="#F79292" d="M208.928 119.38c-.022.389-.89.656-1.938.596-1.048-.06-1.88-.423-1.858-.811.023-.39.89-.656 1.938-.597 1.049.06 1.88.424 1.858.812M207.995 121.43c.883.877 1.413 1.773 1.185 2.002-.228.229-1.129-.296-2.01-1.173-.884-.877-1.414-1.773-1.186-2.002.228-.228 1.129.297 2.011 1.173"/>
            <path fill="#F79292" d="M207.472 122.556c.883.877 1.414 1.773 1.185 2.002-.228.228-1.128-.297-2.01-1.173-.884-.877-1.415-1.772-1.186-2.002.228-.229 1.128.296 2.011 1.173"/>
            <path fill="#F79292" d="M206.217 122.933c.883.876 1.413 1.772 1.184 2.001-.227.229-1.128-.296-2.01-1.173-.883-.877-1.413-1.773-1.185-2.002.228-.228 1.129.297 2.011 1.174"/>
            <path fill="#F79292" d="M205.357 123.167c.617.967.934 1.867.707 2.01-.225.144-.909-.523-1.526-1.489-.617-.966-.934-1.865-.708-2.01.226-.143.91.523 1.527 1.49"/>
            <path fill="#F4AEAE" d="M219.704 71.255l-.939-.029a1.37 1.37 0 0 0-.377-.99 1.382 1.382 0 0 0-.968-.436 1.374 1.374 0 0 0-.995.377c-.269.253-.424.597-.435.967l-.939-.028c.019-.62.279-1.197.732-1.622a2.303 2.303 0 0 1 1.665-.63 2.308 2.308 0 0 1 1.624.73c.426.451.65 1.04.632 1.661"/>
            <g>
                <path fill="#F7ADAD" d="M251.023 101.327c1.499.15 2.615 1.247 2.494 2.45-.12 1.203-1.433 2.056-2.932 1.906-1.498-.15-2.615-1.248-2.494-2.45.12-1.204 1.433-2.057 2.932-1.906"/>
                <path fill="#F7ADAD" d="M251.676 99.555c.296.252-.012 1.105-.688 1.905-.677.8-1.467 1.246-1.765.994-.297-.252.01-1.105.688-1.905.676-.8 1.467-1.245 1.765-.994M255.066 101.792c.046.32-.915.722-2.145.899-1.231.177-2.266.06-2.312-.259-.046-.32.915-.723 2.145-.899 1.231-.176 2.266-.061 2.312.259"/>
                <path fill="#F7ADAD" d="M253.34 102.627c1.231-.176 2.266-.06 2.312.259.045.32-.915.723-2.146.899-1.23.178-2.265.061-2.31-.259-.047-.32.913-.722 2.144-.899"/>
                <path fill="#F7ADAD" d="M252.888 103.855c1.23-.176 2.265-.06 2.31.259.047.32-.913.723-2.144.9-1.231.177-2.266.06-2.312-.26-.045-.32.915-.722 2.146-.899"/>
                <path fill="#F7ADAD" d="M252.56 104.683c1.142.09 2.052.378 2.03.645-.02.267-.963.41-2.106.322-1.143-.089-2.053-.378-2.032-.645.02-.266.964-.411 2.107-.322"/>
                <path fill="#F79292" d="M280.007 132.4l4.265 62.796 4.727.26 1.866-63.092z"/>
                <path fill="#4DB3D6" d="M288.999 194.222l-2.676 6.558-7.5.05s.586-2.313 3.907-4.197l1.445-2.411h4.824z"/>
                <path fill="#4DB3D6" d="M288.612 200.734h-1.008l-.314-3.82 1.709-2.693s.756.724.756 2.04c0 1.314-1.143 4.473-1.143 4.473"/>
                <path fill="#F79292" d="M272.866 102.488c.355 1.363.457 2.757.457 2.757l-14.592 12.578-2.7 1.997-1.03-1.375s5.761-7.495 11.972-14.369l5.893-1.588z"/>
                <path fill="#F79292" d="M267.06 105.552c.553-8.046 1.624-18.04 3.839-19.376 0 0 1.463-.865 3.77.301 1.682.85 1.002 3.715 1.002 3.715l-2.413 14.187-6.199 1.173zM255.153 116.782c-.997.919-1.207 2.313-.47 3.114.737.8 2.142.704 3.14-.214.997-.92 1.208-2.312.47-3.113-.737-.8-2.143-.705-3.14.213"/>
                <path fill="#F79292" d="M255.533 115.621c-.92-.21-1.729-.103-1.807.24-.078.34.604.788 1.524.998.92.21 1.729.104 1.808-.238.077-.342-.605-.789-1.525-1M254.018 117.867c-.981.538-1.663 1.18-1.524 1.436.14.255 1.049.025 2.03-.513.981-.538 1.664-1.18 1.524-1.436-.14-.254-1.049-.025-2.03.513"/>
                <path fill="#F79292" d="M254.188 118.971c-.981.538-1.663 1.18-1.524 1.436.14.255 1.049.026 2.03-.512.981-.538 1.664-1.18 1.524-1.436-.14-.255-1.049-.026-2.03.512"/>
                <path fill="#F79292" d="M255.178 119.611c-.982.538-1.664 1.18-1.525 1.435.14.256 1.05.027 2.03-.512.982-.538 1.664-1.18 1.525-1.436-.14-.255-1.05-.026-2.03.513"/>
                <path fill="#F79292" d="M255.861 120.03c-.774.68-1.273 1.38-1.114 1.561.16.181.916-.225 1.69-.907.776-.682 1.274-1.381 1.115-1.562-.16-.181-.916.225-1.691.907"/>
                <path fill="#FFD527" d="M275.79 60.1c-6.43-.59-6.052 10.874-6.052 10.874-.378 4.038 3.58 8.095 3.58 8.095l7.6-16.682-5.129-2.288z"/>
                <path fill="#FFD527" d="M283.019 80.912a6.653 6.653 0 1 1-13.257-1.14 6.653 6.653 0 0 1 13.257 1.14"/>
                <path fill="#FFD527" d="M293.577 77.969a6.652 6.652 0 1 1-13.256-1.14 6.652 6.652 0 0 1 13.256 1.14"/>
                <path fill="#FFD527" d="M299.425 88.174a7.94 7.94 0 1 1-15.821-1.362 7.94 7.94 0 1 1 15.82 1.362M274.48 62.35l1.31-2.25c14.329-3.747 13.567 10.556 13.567 10.556L274.48 62.35z"/>
                <path fill="#FFD527" d="M275.739 62.235c1.356 8.666 13.544 10.075 13.544 10.075-1.337-4.852-3.082-6.646-3.082-6.646-4.67-5.04-10.462-3.43-10.462-3.43"/>
                <path fill="#F79292" d="M274.139 73.208c1.949 4.698 4.84 5.98 7.916 4.704 3.076-1.276 5.174-4.627 3.225-9.325-1.948-4.699-6.022-7.473-9.098-6.197-3.076 1.276-3.991 6.119-2.043 10.818"/>
                <path fill="#F79292" d="M279.178 83.722l3.472.032.062-6.86-3.472-.031zM267.245 133.83l1.144 62.61 4.47.193 4.374-63.133z"/>
                <path fill="#4DB3D6" d="M273.172 194.222l-2.675 6.558-7.501.05s.585-2.313 3.907-4.197l1.446-2.411h4.823z"/>
                <path fill="#4DB3D6" d="M272.785 200.734h-1.008l-.314-3.82 1.709-2.693s.756.724.756 2.04c0 1.314-1.143 4.473-1.143 4.473"/>
                <path fill="#B11A25" d="M280.195 82.268v-.002h.049v.003c15.613.608 9.253 35.951 8.517 40.363l-8.891-1.122h-.048l-10.035-.096c-.652-4.425-5.213-38.835 10.408-39.146"/>
                <path fill="#B11A25" d="M293.601 160.406s1.688-29.04-5.08-46.125l-19.831-6.352s-6 22.899-6.94 50.124l31.851 2.353z"/>
                <path fill="#FFD527" d="M275.283 62.684s5.86 9.614 11.27 6.019c0 0-.931-9.95-11.27-6.019"/>
                <path fill="#194F69" d="M256.691 120.236l-1.4.703-4.158-7.38 2.07-1.042z"/>
                <path fill="#194F69" d="M254.017 110.347a2.86 2.86 0 1 1-5.111 2.57 2.86 2.86 0 0 1 5.11-2.57"/>
                <path fill="#F79292" d="M255.533 115.621c-.92-.21-1.729-.103-1.807.24-.078.34.604.788 1.524.998.92.21 1.729.104 1.808-.238.077-.342-.605-.789-1.525-1M293.533 101.242c.45 1.335.65 2.718.65 2.718l-13.673 13.572-2.554 2.181-1.124-1.3s5.222-7.88 10.934-15.172l5.767-2z"/>
                <path fill="#F79292" d="M287.66 103.365c-3.138-7.43-5.821-15.11-4.447-17.301 0 0 .914-1.432 3.5-1.434 1.884 0 2.57 2.863 2.57 2.863l4.25 13.749-5.873 2.123zM276.867 116.745c-.93.986-1.043 2.391-.25 3.138.791.747 2.187.553 3.117-.434.93-.986 1.043-2.39.25-3.138-.79-.746-2.186-.552-3.117.434"/>
                <path fill="#F79292" d="M277.165 115.56c-.932-.145-1.732.018-1.786.365-.054.347.659.745 1.59.89.933.145 1.733-.018 1.787-.364.053-.347-.659-.745-1.59-.89M275.812 117.907c-.942.605-1.578 1.294-1.42 1.539.158.244 1.048-.048 1.99-.653.94-.607 1.576-1.296 1.419-1.54-.158-.245-1.048.048-1.99.654"/>
                <path fill="#F79292" d="M276.058 118.997c-.941.605-1.576 1.294-1.419 1.539.158.244 1.048-.048 1.99-.653.94-.607 1.576-1.296 1.419-1.54-.158-.245-1.048.048-1.99.654"/>
                <path fill="#F79292" d="M277.09 119.565c-.941.605-1.576 1.294-1.419 1.54.158.244 1.048-.05 1.99-.655.94-.605 1.576-1.295 1.419-1.539-.157-.244-1.048.049-1.99.654"/>
                <path fill="#F79292" d="M277.802 119.934c-.725.734-1.173 1.467-1.002 1.636.172.17.899-.289 1.623-1.023.725-.734 1.173-1.468 1.002-1.636-.172-.17-.898.288-1.623 1.023"/>
                <path fill="#F4AEAE" d="M277.505 75.77a2.246 2.246 0 0 1 1.654-2.708 2.226 2.226 0 0 1 1.696.266c.51.312.87.806 1.01 1.388l-.911.22a1.292 1.292 0 0 0-.588-.807 1.305 1.305 0 0 0-1.949 1.42l-.912.22z"/>
                <path fill="#194F69" d="M260.702 123.993h-.023c-2.318-.115-4.287-1.444-5.265-3.555a.468.468 0 1 1 .85-.394c.83 1.789 2.498 2.915 4.46 3.011a.47.47 0 0 1-.022.938"/>
                <path fill="#FFD527" d="M261.702 127.025c-.071-.195-.084-.392-.227-.54-.143-.148-.343-.157-.531-.24.492-.012.723-.282.788-.746.024.483.275.734.753.792-.456.049-.74.26-.783.734M264.063 124.504c-.142-.147-.342-.156-.53-.24.491-.011.724-.282.788-.746.024.484.274.734.753.792-.456.05-.739.26-.783.734-.072-.194-.084-.391-.228-.54M262.993 122.858c-.11-.299-.13-.601-.35-.83-.218-.226-.525-.24-.815-.369.756-.016 1.112-.432 1.211-1.146.036.745.42 1.129 1.157 1.217-.702.076-1.137.4-1.203 1.128"/>
                <path fill="#194F6A" d="M260.916 123.422c.493.08.978.21 1.479.12.097-.016.178.009.194.116.015.105-.062.134-.147.15a2.574 2.574 0 0 1-.806.014c-.225-.028-.448-.06-.678-.09-.009.066.043.073.074.091.277.17.544.355.786.573.076.07.155.149.069.25-.093.107-.177.018-.25-.045a4.731 4.731 0 0 0-.794-.563c-.088-.048-.12-.109-.114-.206.01-.172.015-.344.012-.515-.002-.127.056-.17.175-.18.332-.029.652-.105.94-.286.082-.053.181-.085.245.015.077.118-.026.185-.108.232a2.27 2.27 0 0 1-.793.28l-.284.044zM270.171 117.9c-.466.037-.938.025-1.376.217-.084.036-.163.032-.202-.063-.037-.091.027-.136.102-.169.233-.107.48-.16.732-.19.21-.024.422-.045.638-.068-.007-.062-.055-.057-.087-.067a4.935 4.935 0 0 1-.845-.35c-.084-.045-.174-.1-.117-.211.06-.12.157-.056.238-.014.272.138.553.257.848.337.09.025.134.074.15.164.03.159.063.316.103.472.03.115-.014.167-.12.202-.297.1-.573.24-.795.47-.064.065-.146.117-.227.04-.096-.092-.017-.175.046-.237.193-.185.418-.325.663-.429l.25-.103"/>
                <path fill="#FFD527" d="M269.25 115.765c.14-.06.285-.076.39-.186.104-.11.103-.257.16-.4.023.363.231.525.577.557-.358.034-.534.227-.56.582-.051-.335-.217-.537-.568-.553M266.76 116.197c.141-.059.286-.075.39-.186.104-.11.104-.257.16-.399.024.362.232.525.577.557-.357.033-.533.226-.559.581-.052-.334-.217-.537-.568-.553M267.621 118.844c.16-.169.16-.395.245-.613.037.556.355.805.885.855-.548.051-.818.347-.858.893-.079-.515-.333-.825-.87-.85.214-.09.437-.115.598-.285"/>
                <path fill="#194F69" d="M429.543 139.365c-9.1 4.757-19.097 7.16-27.817 8.32-35.888 4.778-77.377-7.014-96.754-21.176-7.628-5.576-20.79-9.09-34.347-9.172-.43 0-.79.205-.796.464-.004.26.345.47.781.474 13.101.078 25.8 3.46 33.14 8.826 10.24 7.483 26.144 14.102 43.634 18.16 12.6 2.924 25.497 4.418 37.613 4.418 5.92 0 11.654-.357 17.072-1.078 8.61-1.147 18.434-3.468 27.474-7.986v-1.25z"/>
            </g>
            <g>
                <g transform="translate(269 13.538)">
                    <mask id="h" fill="#fff">
                        <use xlink:href="#g"/>
                    </mask>
                    <path fill="#4DB3D6" d="M56.088 11.19a16.051 16.051 0 0 0-1.276-.065c-2.11 0-4.122.426-5.953 1.193C46.428 5.26 39.74.186 31.853.186c-8.955 0-16.38 6.534-17.772 15.092-.334.045-.671.083-.998.148C6.797 16.656 1.816 21.494.356 27.692H39.41a9.013 9.013 0 0 1-.035-.71c0-.055.006-.109.007-.166.009.295.029.585.05.876H70.191c.027-.376.058-.752.058-1.135 0-8.091-6.234-14.717-14.162-15.367" mask="url(#h)"/>
                </g>
                <path fill="#4DB3D6" d="M282.086 23.106a2.687 2.687 0 0 1-2.689 2.686 2.687 2.687 0 1 1 2.689-2.686"/>
            </g>
            <text font-family="VAGRoundedBold, VAGRounded" font-size="36" font-weight="bold" transform="translate(-52 2)">
                <tspan x="104" y="81" fill="#000">YAH~</tspan>
            </text>
            <text stroke="#979797" font-family="Roboto-Regular, Roboto" font-size="12" transform="translate(-52 2)">
                <tspan x="83.541" y="113" fill="#000">Browser Agan tidak </tspan> <tspan x="66.074" y="133" fill="#000">mendukung fitur audio ini,</tspan> <tspan x="71.506" y="153" fill="#000">coba lagi menggunakan </tspan> <tspan x="81.285" y="173" fill="#000">browser lain ya Gan!</tspan>
            </text>
            <g>
                <g transform="translate(-52 11)">
                    <mask id="j" fill="#fff">
                        <use xlink:href="#i"/>
                    </mask>
                    <path fill="#4DB3D6" d="M58.884 25.984c-2.011 0-3.926.406-5.672 1.136-2.315-6.725-8.686-11.56-16.202-11.56-8.531 0-15.606 6.226-16.933 14.38-.317.044-.638.08-.95.141C13.138 31.254 8.393 35.862 7 41.768h37.21c-.017-.224-.035-.448-.035-.676 0-.053.008-.104.01-.158.008.28.025.557.045.834h29.307c.027-.359.056-.717.056-1.081 0-7.71-5.94-14.022-13.493-14.641a14.636 14.636 0 0 0-1.216-.062z" mask="url(#j)"/>
                </g>
            </g>
        </g>
    </g>
</svg>
