<?xml version="1.0" encoding="UTF-8"?>
<svg width="24px" height="23px" viewBox="0 0 24 23" version="1.1" xmlns="http://www.w3.org/2000/svg" xmlns:xlink="http://www.w3.org/1999/xlink">
    <!-- Generator: Sketch 50.2 (55047) - http://www.bohemiancoding.com/sketch -->
    <title>game white</title>
    <desc>Created with Sketch.</desc>
    <defs></defs>
    <g id="00-CHANNEL" stroke="none" stroke-width="1" fill="none" fill-rule="evenodd">
        <g id="0-menu-copy" transform="translate(-178.000000, -362.000000)" fill="#FFFFFF">
            <g id="game-white" transform="translate(178.000000, 362.000000)">
                <path d="M11.9423091,11.4972569 C11.7148865,11.4972569 11.5306221,11.3068211 11.5306221,11.0715459 L11.5306221,5.84221101 C11.5306221,4.64526147 12.3598117,3.5718578 13.5085561,3.42499541 C14.8849271,3.24901376 16.060505,4.35976606 16.060505,5.74873394 L16.060505,7.19172018 C16.060505,7.80765596 16.4620911,8.37252752 17.0467172,8.49111468 C17.8366256,8.65179817 18.5310349,8.02784404 18.5310349,7.23898624 L18.5310349,0.425816514 C18.5310349,0.190330275 18.7156053,0 18.9429259,0 C19.1704506,0 19.3547149,0.190330275 19.3547149,0.425816514 L19.3547149,7.1528945 C19.3547149,8.24170183 18.6008227,9.2184633 17.5559439,9.35161009 C16.3049665,9.51092202 15.236723,8.50145413 15.236723,7.23898624 L15.236723,5.82733486 C15.236723,5.04248624 14.6842361,4.33486697 13.9283033,4.26449541 C13.0742187,4.18494495 12.3540981,4.88159174 12.3540981,5.74873394 L12.3540981,11.0715459 C12.3540981,11.3068211 12.1697317,11.4972569 11.9423091,11.4972569" id="Fill-1"></path>
                <path d="M20.5902655,18.3105427 C20.0528788,18.3105427 19.6004823,17.9537261 19.4304,17.4585931 C19.3843849,17.3247078 19.3546945,17.1829096 19.3546945,17.0328821 C19.3546945,16.3274784 19.9079977,15.7553271 20.5902655,15.7553271 C21.2724313,15.7553271 21.8256325,16.3274784 21.8256325,17.0328821 C21.8256325,17.1829096 21.7960441,17.3247078 21.750131,17.4585931 C21.5798446,17.9537261 21.1276522,18.3105427 20.5902655,18.3105427 Z M17.7076406,21.2913638 C17.0253728,21.2913638 16.4720696,20.7192124 16.4720696,20.0137032 C16.4720696,19.3082995 17.0253728,18.7361482 17.7076406,18.7361482 C18.3898064,18.7361482 18.9430075,19.3082995 18.9430075,20.0137032 C18.9430075,20.7192124 18.3898064,21.2913638 17.7076406,21.2913638 Z M14.8248116,18.3105427 C14.1427478,18.3105427 13.5896487,17.7386023 13.5896487,17.0328821 C13.5896487,16.3274784 14.1427478,15.7553271 14.8248116,15.7553271 C15.5073855,15.7553271 16.0604846,16.3274784 16.0604846,17.0328821 C16.0604846,17.7386023 15.5073855,18.3105427 14.8248116,18.3105427 Z M13.0260406,13.200639 L11.1187107,13.200639 C10.8912881,13.200639 10.7070238,13.0102032 10.7070238,12.774928 C10.7070238,12.5395472 10.8912881,12.3489005 11.1187107,12.3489005 L13.0260406,12.3489005 C13.2536672,12.3489005 13.4379316,12.5395472 13.4379316,12.774928 C13.4379316,13.0102032 13.2536672,13.200639 13.0260406,13.200639 Z M9.0597658,18.3105427 L7.41260986,18.3105427 L7.41260986,20.0137032 L4.94177391,20.0137032 L4.94177391,18.3105427 L3.29451594,18.3105427 L3.29451594,15.7553271 L4.94177391,15.7553271 L4.94177391,14.052061 L7.41260986,14.052061 L7.41260986,15.7553271 L9.0597658,15.7553271 L9.0597658,18.3105427 Z M17.2957496,12.8530014 C17.4252243,12.8053133 17.5622493,12.774717 17.7076406,12.774717 C18.3898064,12.774717 18.9430075,13.3466573 18.9430075,14.052061 C18.9430075,14.7577812 18.3898064,15.3297216 17.7076406,15.3297216 C17.5622493,15.3297216 17.4252243,15.2991252 17.2957496,15.2514372 C16.8171316,15.075561 16.4720696,14.6076482 16.4720696,14.052061 C16.4720696,13.4967904 16.8171316,13.0288775 17.2957496,12.8530014 Z M23.4595246,11.0710289 L17.8089554,11.0710289 L17.3091154,11.0710289 L5.75392464,11.0710289 C2.58908754,11.0710289 0,13.7485243 0,17.0206436 C0,20.0103271 2.11761159,22.9329096 4.93177507,22.9702583 C5.6703629,22.9801757 7.16457739,22.8576849 8.76745275,22.4035931 C10.627033,21.8769142 12.935949,21.8745931 14.7948151,22.4035931 C16.385447,22.8563133 18.0938203,22.9797537 18.6304928,22.9702583 C21.3070191,22.9234142 23.2685264,20.2881206 23.4542191,17.4585931 C23.4640139,17.3127858 23.4728904,17.1668729 23.4728904,17.0206436 L23.4728904,11.08485 C23.4728904,11.0771482 23.4668707,11.0710289 23.4595246,11.0710289 Z" id="Fill-4"></path>
            </g>
        </g>
    </g>
</svg>