<?xml version="1.0" encoding="UTF-8"?>
<svg width="24px" height="27px" viewBox="0 0 24 27" version="1.1" xmlns="http://www.w3.org/2000/svg" xmlns:xlink="http://www.w3.org/1999/xlink">
    <!-- Generator: sketchtool 50.2 (55047) - http://www.bohemiancoding.com/sketch -->
    <title>78D84BA6-15F4-4092-8BCD-A01CE1D87DDB</title>
    <desc>Created with sketchtool.</desc>
    <defs></defs>
    <g id="00-CHANNEL" stroke="none" stroke-width="1" fill="none" fill-rule="evenodd">
        <g id="0-menu" transform="translate(-21.000000, -360.000000)" fill="#F59279">
            <path d="M23.7837413,387 L28.7567044,381.237328 L27.1849105,376.823843 L23.7837413,387 Z M30.0592985,380.611413 L35.4469127,378.653243 L27.9679576,374.668619 L30.0592985,380.611413 Z M43.1309463,368.194595 L41.9986847,370.019094 L45,370.760522 L43.1309463,368.194595 Z M23.5715382,366.269397 L21,364.656321 L25.5375959,371.707471 L23.5715382,366.269397 Z M36.5617464,369.562718 L38.283924,374.435252 L42.3222506,367.603434 L36.5617464,369.562718 Z M34.2015345,366.371544 L28.6136646,373.251817 L36.878407,377.655166 C37.4054074,376.943479 37.584399,375.984277 37.2687249,375.087567 L34.2015345,366.371544 Z M33.1340519,365.236008 L22.8059189,360 L27.2137377,372.525649 L33.1340519,365.236008 Z" id="hobby"></path>
        </g>
    </g>
</svg>