<?xml version="1.0" encoding="UTF-8"?>
<svg width="24px" height="24px" viewBox="0 0 24 24" version="1.1" xmlns="http://www.w3.org/2000/svg" xmlns:xlink="http://www.w3.org/1999/xlink">
    <!-- Generator: sketchtool 50.2 (55047) - http://www.bohemiancoding.com/sketch -->
    <title>1105BB47-DB73-4C4F-8D7E-4C40D2F18823</title>
    <desc>Created with sketchtool.</desc>
    <defs></defs>
    <g id="00-CHANNEL" stroke="none" stroke-width="1" fill="none" fill-rule="evenodd">
        <g id="0-menu" transform="translate(-178.000000, -484.000000)" fill="#CE6C48">
            <path d="M189.999944,485.064417 C188.404938,485.064417 186.852278,485.412739 185.384752,486.099714 L185.297061,486.140837 L184.44971,488.511406 L184.626205,488.605766 C185.40298,489.02133 186.600985,489.707416 187.897684,490.616566 L187.98482,490.677806 L193.207072,489.354204 L193.253863,489.254953 C193.710103,488.287453 194.075429,487.370412 194.301493,486.771462 L194.354396,486.631644 L193.300988,485.573452 L193.246083,485.556447 C192.197676,485.229909 191.105479,485.064417 189.999944,485.064417 Z M194.543561,486.980967 C194.329945,487.542572 193.985737,488.403153 193.558283,489.314081 L193.509047,489.418889 L195.788913,493.743797 L195.898388,493.764803 C196.611478,493.902509 198.032769,494.215265 199.53975,494.763979 L199.719467,494.829442 L200.601827,493.366244 L200.577376,493.271772 C199.904186,490.664691 198.302178,488.404709 196.066547,486.908168 L196.011309,486.871157 L194.602355,486.826033 L194.543561,486.980967 Z M180.874034,490.931545 L180.858807,491.034241 C180.68587,492.206022 180.567614,494.100566 180.986732,496.472024 L181.004515,496.572387 L184.158072,498.587187 L184.286664,498.492049 C185.992924,497.229131 187.183816,496.319092 187.741973,495.888968 L187.830332,495.820726 L187.915133,490.997342 L187.814549,490.926433 C186.362584,489.902583 185.01098,489.148922 184.334344,488.790597 L184.212755,488.726245 L180.874034,490.931545 Z M180.022793,491.544832 C179.386947,492.963017 179.064412,494.462114 179.064412,496 C179.064412,496.713538 179.136543,497.435523 179.278583,498.146172 L179.386058,498.683437 L180.729771,496.73899 L180.712322,496.644185 C180.311097,494.467671 180.356777,492.734285 180.465807,491.663311 L180.022793,491.544832 Z M192.88676,497.575452 L192.902653,497.679927 C193.02302,498.473265 193.168617,499.852995 193.17862,501.920922 L193.179176,502.065297 L195.722783,503.306097 L195.832703,503.23541 C196.772413,502.632126 199.06795,501.00677 200.089016,498.946735 L200.121692,498.880938 L199.538083,495.081292 L199.408157,495.03439 C198.012985,494.530689 196.671829,494.227825 195.996638,494.092119 L195.862156,494.065 L192.88676,497.575452 Z M187.95859,496.101362 C187.290624,496.61551 186.17253,497.466865 184.638764,498.603192 L184.54207,498.674879 L184.641098,503.03802 L184.748461,503.104261 C185.788311,503.74689 187.469785,504.514333 189.574602,504.521891 L189.654291,504.522335 L192.87898,502.035177 L192.878424,501.920255 C192.867977,499.885782 192.723047,498.514722 192.603457,497.722606 L192.58234,497.583566 L188.057507,496.025007 L187.95859,496.101362 Z M199.463728,500.463615 C198.368085,501.83612 196.933125,502.87564 196.175355,503.373005 L196.093443,503.426798 L195.722005,505.328567 L196.191137,505.004918 C197.758024,503.924163 199.024826,502.438737 199.854727,500.709129 L199.463728,500.463615 Z M182.203854,503.660532 L182.562288,503.994184 C184.59953,505.89095 187.241054,506.935583 189.999944,506.935583 C190.10453,506.935583 190.205225,506.928804 190.302585,506.922024 C190.358379,506.918356 190.414061,506.914466 190.470077,506.912021 L190.9441,506.891793 L189.191938,504.8242 L189.092244,504.818642 C187.127689,504.708944 185.571694,503.977845 184.612423,503.383897 L184.541403,503.339885 L182.203854,503.660532 Z M189.999944,508 C183.383187,508 178,502.616899 178,496 C178,489.383101 183.383187,484 189.999944,484 C196.616813,484 202,489.383101 202,496 C202,502.616899 196.616813,508 189.999944,508 Z" id="sport"></path>
        </g>
    </g>
</svg>