<svg xmlns="http://www.w3.org/2000/svg" viewBox="0 0 41.83 34.32"><defs><style>.cls-1{fill:#dd3278;}.cls-2{fill:#edfefb;}.cls-3{fill:#eb75ae;}</style></defs><title>Asset 1</title><g id="Layer_2" data-name="Layer 2"><g id="Layer_1-2" data-name="Layer 1"><path class="cls-1" d="M33.87.79C24.54-2.58,20.92,6,20.92,6S17.29-2.58,8,.79-1.1,13.22,1.75,18.92C4,23.48,9.61,29.61,20.66,34.24l.26.08.25-.08c11-4.63,16.64-10.76,18.92-15.32C42.94,13.22,43.2,4.15,33.87.79Z"/><ellipse class="cls-2" cx="32.71" cy="9.66" rx="5.83" ry="6.54"/><path class="cls-3" d="M15.61,3.89s-7.91,7.26-6,13.87,10.1,15,10.1,15S3.17,26.31,1.87,13.09,13.53,1.17,15.61,3.89Z"/></g></g></svg>