<?xml version="1.0" encoding="UTF-8"?>
<svg width="20px" height="20px" viewBox="0 0 20 20" version="1.1" xmlns="http://www.w3.org/2000/svg" xmlns:xlink="http://www.w3.org/1999/xlink">
    <!-- Generator: Sketch 48.1 (47250) - http://www.bohemiancoding.com/sketch -->
    <title>BLUEGUY</title>
    <desc>Created with Sketch.</desc>
    <defs></defs>
    <g id="Page-1" stroke="none" stroke-width="1" fill="none" fill-rule="evenodd">
        <g id="BLUEGUY">
            <g id="Page-1" transform="translate(4.000000, 1.000000)">
                <path d="M7.26716308,12.4939161 C7.26716308,12.4939161 9.21005538,15.0741097 9.59867077,16.7943677 C9.59867077,16.7943677 8.38980923,17.5186258 8.00119385,17.5186258 C8.00119385,17.5186258 7.65374769,14.6444323 6.79214769,13.5286258 C6.79214769,13.5286258 6.70574769,12.4939161 7.26716308,12.4939161" id="Fill-1" fill="#0E82C5"></path>
                <path d="M7.73329846,13.1506258 C7.45877538,12.7484323 7.26714462,12.4939161 7.26714462,12.4939161 C6.70591385,12.4939161 6.79212923,13.5286258 6.79212923,13.5286258 C6.92579077,13.7020452 7.04579077,13.9207548 7.15582154,14.1617226 C7.30462154,13.8102387 7.54129846,13.4322387 7.73329846,13.1506258" id="Fill-3" fill="#036699"></path>
                <path d="M4.76313231,12.3004645 C4.76313231,12.3004645 2.57507077,12.5391097 1.25119385,16.3415613 C1.25119385,16.3415613 1.94165538,17.1264 2.43125538,17.1264 C2.43125538,17.1264 3.34270154,13.5600774 4.38873231,13.2635613 L4.76313231,12.3004645 Z" id="Fill-5" fill="#036699"></path>
                <path d="M4.91531077,12.0231871 C4.91531077,12.0231871 2.94011077,14.2877032 3.06971077,17.3573806 C3.86171077,17.7361548 4.75303385,17.9542839 5.69955692,17.9542839 C6.30214154,17.9542839 6.88368,17.8673806 7.43069538,17.7067355 C7.01254154,15.8008645 6.63869538,13.0356387 7.65980308,11.964929 L4.91531077,12.0231871 Z" id="Fill-7" fill="#0E82C5"></path>
                <path d="M4.51993846,12.5554452 C5.07821538,12.8957032 5.91858462,13.2117677 7.10326154,13.2108 C7.2,12.7008 7.37372308,12.2647355 7.65969231,11.964929 L4.91538462,12.0231871 C4.91538462,12.0231871 4.7496,12.2155742 4.51993846,12.5554452" id="Fill-9" fill="#036699"></path>
                <path d="M11.8463077,6.20982581 C11.8463077,9.63950323 9.19467692,12.4196323 5.92347692,12.4196323 C2.65209231,12.4196323 9.23076923e-05,9.63950323 9.23076923e-05,6.20982581 C9.23076923e-05,2.78014839 2.65209231,1.93548387e-05 5.92347692,1.93548387e-05 C9.19467692,1.93548387e-05 11.8463077,2.78014839 11.8463077,6.20982581" id="Fill-11" fill="#0E82C5"></path>
                <path d="M5.36359385,5.41749677 C5.36359385,6.45510968 4.76137846,7.29646452 4.01904,7.29646452 C3.27688615,7.29646452 2.67504,6.45510968 2.67504,5.41749677 C2.67504,4.37949677 3.27688615,3.53833548 4.01904,3.53833548 C4.76137846,3.53833548 5.36359385,4.37949677 5.36359385,5.41749677" id="Fill-13" fill="#FEFEFE"></path>
                <path d="M5.02763077,5.5202129 C5.02763077,6.22550323 4.59489231,6.79724516 4.06153846,6.79724516 C3.52781538,6.79724516 3.09507692,6.22550323 3.09507692,5.5202129 C3.09507692,4.81472903 3.52781538,4.2429871 4.06153846,4.2429871 C4.59489231,4.2429871 5.02763077,4.81472903 5.02763077,5.5202129" id="Fill-15" fill="#091B23"></path>
                <path d="M4.53714462,5.21903226 C4.53714462,5.52309677 4.36785231,5.76948387 4.15923692,5.76948387 C3.95043692,5.76948387 3.78114462,5.52309677 3.78114462,5.21903226 C3.78114462,4.91516129 3.95043692,4.66858065 4.15923692,4.66858065 C4.36785231,4.66858065 4.53714462,4.91516129 4.53714462,5.21903226" id="Fill-17" fill="#FEFEFE"></path>
                <path d="M9.17172923,5.41749677 C9.17172923,6.45510968 8.56988308,7.29646452 7.82754462,7.29646452 C7.08539077,7.29646452 6.48354462,6.45510968 6.48354462,5.41749677 C6.48354462,4.37949677 7.08539077,3.53833548 7.82754462,3.53833548 C8.56988308,3.53833548 9.17172923,4.37949677 9.17172923,5.41749677" id="Fill-19" fill="#FEFEFE"></path>
                <path d="M8.83576615,5.5202129 C8.83576615,6.22550323 8.40321231,6.79724516 7.86967385,6.79724516 C7.33595077,6.79724516 6.90321231,6.22550323 6.90321231,5.5202129 C6.90321231,4.81472903 7.33595077,4.2429871 7.86967385,4.2429871 C8.40321231,4.2429871 8.83576615,4.81472903 8.83576615,5.5202129" id="Fill-21" fill="#091B23"></path>
                <path d="M8.34627692,5.21903226 C8.34627692,5.52309677 8.17661538,5.76948387 7.96818462,5.76948387 C7.75938462,5.76948387 7.58990769,5.52309677 7.58990769,5.21903226 C7.58990769,4.91516129 7.75938462,4.66858065 7.96818462,4.66858065 C8.17661538,4.66858065 8.34627692,4.91516129 8.34627692,5.21903226" id="Fill-23" fill="#FEFEFE"></path>
                <path d="M1.33044923,7.08882581 C1.33044923,7.08882581 1.87654154,8.18527742 5.69918769,8.25747097 C10.1244185,8.34089032 10.2359262,6.83837419 10.2359262,6.83837419 C10.2359262,6.83837419 10.9387569,10.0044387 8.21900308,11.0544387 C6.10128,11.8721806 4.80288,11.3463097 4.80288,11.3463097 C4.80288,11.3463097 2.04251077,11.1372774 1.33044923,7.08882581" id="Fill-25" fill="#500E3A"></path>
                <path d="M5.67125538,9.1550129 C8.99765538,9.1550129 9.82787077,8.17410968 9.95784,7.31862581 C9.52990154,7.75023871 8.44547077,8.30920645 5.69913231,8.25752903 C3.41174769,8.21417419 2.29814769,7.80423871 1.77236308,7.48198065 C2.00442462,8.11894839 2.82005538,9.1550129 5.67125538,9.1550129" id="Fill-27" fill="#FEFEFE"></path>
                <path d="M7.43204308,9.91049032 C6.44472,9.64765161 6.09561231,9.98965161 5.97579692,10.3285548 C5.85635077,9.98965161 5.50650462,9.64765161 4.51918154,9.91049032 C3.90293538,10.0750065 3.50527385,10.3649419 3.24404308,10.6684258 C4.05912,11.2887484 4.80293538,11.3462323 4.80293538,11.3462323 C4.80293538,11.3462323 6.10133538,11.8721032 8.21905846,11.0545548 C8.43099692,10.9728774 8.61985846,10.877071 8.79192,10.7719742 C8.53548923,10.431329 8.11825846,10.0935871 7.43204308,9.91049032" id="Fill-29" fill="#EB1960"></path>
                <path d="M6.08204308,17.9404839 C6.42745846,14.8690645 6.42284308,13.1764839 4.95736615,13.4323548 C3.65195077,13.6605484 3.78616615,16.8053226 3.84727385,17.6635161 C4.42992,17.8497097 5.05133538,17.9542258 5.69952,17.9542258 C5.82838154,17.9542258 5.95558154,17.9484194 6.08204308,17.9404839" id="Fill-31" fill="#23A7DF"></path>
            </g>
        </g>
    </g>
</svg>