<svg id="Layer_1" data-name="Layer 1" xmlns="http://www.w3.org/2000/svg" xmlns:xlink="http://www.w3.org/1999/xlink" viewBox="0 0 70 70"><defs><style>.cls-1{fill:none;}.cls-2{fill:#b7e4f3;}.cls-3{clip-path:url(#clip-path);}.cls-4{fill:#fff;}.cls-5{fill:#f1f2f2;}.cls-6{fill:#d1d3d4;}.cls-7{fill:#eb2335;}.cls-8{fill:#eb8c23;}.cls-9{fill:#faa71e;}.cls-10{fill:#231f20;}</style><clipPath id="clip-path"><path class="cls-1" d="M64.5,35a29.5,29.5,0,0,1-59,0L5.7,2.78H58.51Z"/></clipPath></defs><title>icon gemboked</title><circle class="cls-2" cx="35" cy="35" r="29.5"/><g class="cls-3"><rect class="cls-4" x="16.12" y="19.2" width="38.82" height="48.67"/><rect class="cls-5" x="14.71" y="19.72" width="38.82" height="48.67"/><rect class="cls-6" x="17.3" y="29.48" width="28.93" height="2.16"/><rect class="cls-6" x="17.3" y="33.08" width="21.18" height="2.16"/><rect class="cls-6" x="17.3" y="36.92" width="15.91" height="2.16"/><rect class="cls-6" x="17.3" y="42.41" width="28.93" height="2.16"/><rect class="cls-6" x="17.3" y="46.01" width="21.18" height="2.16"/><rect class="cls-6" x="17.3" y="49.85" width="15.91" height="2.16"/><rect class="cls-6" x="17.3" y="55.34" width="28.93" height="2.16"/><rect class="cls-6" x="17.3" y="58.94" width="21.18" height="2.16"/><rect class="cls-6" x="17.3" y="62.78" width="15.91" height="2.16"/><circle class="cls-6" cx="20.04" cy="24.52" r="2.22"/><rect class="cls-6" x="23.39" y="22.54" width="7" height="1.47"/><rect class="cls-6" x="23.39" y="25.05" width="5.05" height="1.47"/></g><path class="cls-7" d="M54.1.95c-7.34,0-11.6,7.47-11.6,14.81a1.9,1.9,0,0,0,1.9,1.9h1.9v-1.9c0-5.24,2.57-11,7.81-11s7.81,5.77,7.81,11v1.9h1.9a1.9,1.9,0,0,0,1.9-1.9C65.7,8.42,61.43,1,54.1,1"/><path class="cls-8" d="M39.14,21.18V35.63a3.22,3.22,0,0,0,3.21,3.21l12.09.06V18H42.35A3.22,3.22,0,0,0,39.14,21.18Z"/><path class="cls-8" d="M66.53,18H54.43V38.91l12.09-.06a3.22,3.22,0,0,0,3.21-3.21V21.2A3.22,3.22,0,0,0,66.53,18Z"/><path class="cls-9" d="M42.33,37.57a3.22,3.22,0,0,1-3.21-3.21V19.91a3.22,3.22,0,0,1,3.21-3.21H54.42V37.62Z"/><path class="cls-8" d="M66.53,37.58a3.22,3.22,0,0,0,3.21-3.21V19.92a3.22,3.22,0,0,0-3.21-3.21H54.43V37.63Z"/><circle class="cls-4" cx="54.83" cy="27.1" r="5.64"/><circle class="cls-10" cx="54.83" cy="25.66" r="1.7"/><rect class="cls-10" x="53.98" y="26.23" width="1.7" height="4.02" rx="0.85" ry="0.85"/></svg>