<?xml version="1.0" encoding="UTF-8"?>
<svg width="13px" height="13px" viewBox="0 0 13 13" version="1.1" xmlns="http://www.w3.org/2000/svg" xmlns:xlink="http://www.w3.org/1999/xlink">
    <!-- Generator: Sketch 52.3 (67297) - http://www.bohemiancoding.com/sketch -->
    <title>Page 1</title>
    <desc>Created with Sketch.</desc>
    <g id="Symbols" stroke="none" stroke-width="1" fill="none" fill-rule="evenodd">
        <g id="toolbar" transform="translate(-398.000000, -9.000000)" fill="#6E6E6E">
            <g id="Group-5">
                <g id="Group-27" transform="translate(25.000000, 5.000000)">
                    <g id="Group-5-Copy-2" transform="translate(373.000000, 3.000000)">
                        <path d="M12.749,10.375 C12.749,11 12.527,11.528 12.085,11.961 L10.937,13.102 C10.505,13.534 9.977,13.75 9.351,13.75 C8.721,13.75 8.189,13.528 7.757,13.086 L6.148,11.469 C5.716,11.037 5.5,10.509 5.5,9.883 C5.5,9.242 5.729,8.698 6.188,8.25 L5.5,7.562 C5.052,8.021 4.51,8.25 3.875,8.25 C3.25,8.25 2.719,8.031 2.281,7.594 L0.656,5.969 C0.219,5.532 0,5 0,4.375 C0,3.75 0.221,3.221 0.664,2.789 L1.812,1.648 C2.244,1.216 2.772,1 3.398,1 C4.028,1 4.56,1.221 4.992,1.664 L6.601,3.281 C7.033,3.713 7.249,4.242 7.249,4.867 C7.249,5.508 7.02,6.052 6.561,6.5 L7.249,7.188 C7.697,6.729 8.238,6.5 8.874,6.5 C9.499,6.5 10.03,6.719 10.468,7.156 L12.093,8.781 C12.53,9.219 12.749,9.75 12.749,10.375 Z M5.757,4.867 C5.757,4.659 5.684,4.482 5.538,4.336 L3.929,2.719 C3.783,2.573 3.606,2.5 3.398,2.5 C3.195,2.5 3.018,2.57 2.867,2.711 L1.719,3.852 C1.573,3.998 1.5,4.172 1.5,4.375 C1.5,4.583 1.573,4.76 1.719,4.906 L3.344,6.531 C3.485,6.672 3.662,6.742 3.875,6.742 C4.094,6.742 4.281,6.661 4.438,6.5 C4.423,6.485 4.374,6.437 4.29,6.355 C4.207,6.273 4.151,6.218 4.122,6.187 C4.093,6.156 4.054,6.107 4.005,6.039 C3.956,5.971 3.922,5.905 3.903,5.84 C3.884,5.775 3.875,5.704 3.876,5.625 C3.876,5.417 3.949,5.24 4.095,5.094 C4.241,4.948 4.418,4.875 4.626,4.875 C4.704,4.875 4.776,4.884 4.841,4.902 C4.906,4.92 4.973,4.954 5.04,5.004 C5.107,5.054 5.157,5.093 5.188,5.121 C5.219,5.149 5.275,5.205 5.356,5.289 C5.437,5.373 5.485,5.422 5.501,5.437 C5.673,5.276 5.759,5.085 5.759,4.867 L5.757,4.867 Z M11.249,10.375 C11.249,10.167 11.176,9.99 11.03,9.844 L9.405,8.219 C9.259,8.073 9.082,8 8.874,8 C8.655,8 8.468,8.083 8.311,8.25 C8.326,8.265 8.376,8.313 8.459,8.395 C8.542,8.477 8.599,8.532 8.627,8.563 C8.655,8.594 8.694,8.643 8.744,8.711 C8.793,8.779 8.827,8.845 8.846,8.91 C8.864,8.975 8.874,9.046 8.873,9.125 C8.873,9.333 8.8,9.51 8.654,9.656 C8.508,9.802 8.331,9.875 8.123,9.875 C8.045,9.875 7.974,9.866 7.908,9.848 C7.843,9.83 7.776,9.796 7.709,9.746 C7.642,9.696 7.593,9.657 7.561,9.629 C7.529,9.601 7.474,9.545 7.393,9.461 C7.312,9.377 7.264,9.328 7.248,9.313 C7.076,9.475 6.99,9.664 6.99,9.883 C6.99,10.091 7.063,10.268 7.209,10.414 L8.818,12.031 C8.959,12.172 9.136,12.242 9.349,12.242 C9.557,12.242 9.734,12.175 9.88,12.039 L11.028,10.898 C11.174,10.752 11.247,10.578 11.247,10.375 L11.249,10.375 Z" id="Page-1"></path>
                    </g>
                </g>
            </g>
        </g>
    </g>
</svg>