<?xml version="1.0" encoding="UTF-8"?>
<svg width="14px" height="11px" viewBox="0 0 14 11" version="1.1" xmlns="http://www.w3.org/2000/svg" xmlns:xlink="http://www.w3.org/1999/xlink">
    <!-- Generator: Sketch 52.6 (67491) - http://www.bohemiancoding.com/sketch -->
    <title>Page 1 Copy 3</title>
    <desc>Created with Sketch.</desc>
    <g id="Symbols" stroke="none" stroke-width="1" fill="none" fill-rule="evenodd">
        <g id="toolbar" transform="translate(-471.000000, -10.000000)" fill="#1998ED">
            <g id="Group-5">
                <g id="Group-27" transform="translate(25.000000, 5.000000)">
                    <g id="Group-5-Copy-2" transform="translate(373.000000, 3.000000)">
                        <path d="M86.749,8.499 L86.749,11.499 C86.749,11.916 86.603,12.27 86.311,12.561 C86.019,12.853 85.665,12.998 85.249,12.999 L82.249,12.999 C81.832,12.999 81.478,12.853 81.187,12.561 C80.895,12.269 80.75,11.915 80.749,11.499 L80.749,5.999 C80.749,5.457 80.854,4.94 81.065,4.448 C81.275,3.956 81.561,3.53 81.92,3.171 C82.279,2.812 82.705,2.527 83.197,2.316 C83.689,2.105 84.206,2 84.748,2 L85.248,2 C85.384,2 85.501,2.049 85.6,2.148 C85.699,2.247 85.749,2.364 85.748,2.5 L85.748,3.5 C85.748,3.635 85.698,3.753 85.6,3.852 C85.501,3.951 85.384,4 85.248,4 L84.748,4 C84.196,4 83.725,4.195 83.334,4.586 C82.943,4.977 82.748,5.448 82.748,6 L82.748,6.25 C82.748,6.458 82.821,6.635 82.967,6.781 C83.113,6.927 83.29,7 83.498,7 L85.248,7 C85.665,7 86.019,7.146 86.31,7.438 C86.602,7.73 86.747,8.084 86.748,8.5 L86.749,8.499 Z M79.749,8.499 L79.749,11.499 C79.749,11.916 79.603,12.27 79.311,12.561 C79.019,12.853 78.665,12.998 78.249,12.999 L75.249,12.999 C74.832,12.999 74.478,12.853 74.187,12.561 C73.895,12.269 73.749,11.915 73.749,11.499 L73.749,5.999 C73.749,5.457 73.854,4.94 74.065,4.448 C74.276,3.956 74.561,3.53 74.92,3.171 C75.279,2.812 75.705,2.527 76.197,2.316 C76.689,2.105 77.206,2 77.748,2 L78.248,2 C78.383,2 78.5,2.049 78.6,2.148 C78.699,2.247 78.749,2.364 78.748,2.5 L78.748,3.5 C78.748,3.635 78.699,3.753 78.6,3.852 C78.501,3.951 78.384,4 78.248,4 L77.748,4 C77.196,4 76.725,4.195 76.334,4.586 C75.943,4.977 75.748,5.448 75.748,6 L75.748,6.25 C75.748,6.458 75.821,6.635 75.967,6.781 C76.113,6.927 76.29,7 76.498,7 L78.248,7 C78.665,7 79.019,7.146 79.31,7.438 C79.602,7.73 79.748,8.084 79.748,8.5 L79.749,8.499 Z" id="Page-1-Copy-3"></path>
                    </g>
                </g>
            </g>
        </g>
    </g>
</svg>