<?xml version="1.0" encoding="UTF-8"?>
<svg width="18px" height="18px" viewBox="0 0 18 18" version="1.1" xmlns="http://www.w3.org/2000/svg" xmlns:xlink="http://www.w3.org/1999/xlink">
    <!-- Generator: Sketch 50.2 (55047) - http://www.bohemiancoding.com/sketch -->
    <title>feedback netral</title>
    <desc>Created with Sketch.</desc>
    <defs>
        <polygon id="path-1" points="9.64285714e-05 0.0707142857 17.9289643 0.0707142857 17.9289643 18 9.64285714e-05 18"></polygon>
    </defs>
    <g id="WAP" stroke="none" stroke-width="1" fill="none" fill-rule="evenodd">
        <g id="PROFILE---JUAL-BELI-EXPAND" transform="translate(-25.000000, -822.000000)">
            <g id="Group-11" transform="translate(0.000000, 665.000000)">
                <g id="Group-10" transform="translate(10.000000, 13.000000)">
                    <g id="Group" transform="translate(0.000000, 55.000000)">
                        <g id="feedback-netral" transform="translate(15.000000, 88.000000)">
                            <g id="Group-3" transform="translate(0.000000, 0.929382)">
                                <mask id="mask-2" fill="white">
                                    <use xlink:href="#path-1"></use>
                                </mask>
                                <g id="Clip-2"></g>
                                <path d="M17.9290607,9.03545357 C17.9290607,13.9860964 13.9157036,18.0000964 8.96441786,18.0000964 C4.01345357,18.0000964 9.64285714e-05,13.9860964 9.64285714e-05,9.03545357 C9.64285714e-05,4.08416786 4.01345357,0.0704892857 8.96441786,0.0704892857 C13.9157036,0.0704892857 17.9290607,4.08416786 17.9290607,9.03545357" id="Fill-1" fill="#939598" mask="url(#mask-2)"></path>
                            </g>
                            <path d="M8.73051429,8.07927143 C8.73051429,9.73141429 7.60969286,11.0711286 6.22690714,11.0711286 C4.84476429,11.0711286 3.72362143,9.73141429 3.72362143,8.07927143 C3.72362143,6.42648571 4.84476429,5.08677143 6.22690714,5.08677143 C7.60969286,5.08677143 8.73051429,6.42648571 8.73051429,8.07927143" id="Fill-4" fill="#FFFFFF"></path>
                            <path d="M8.36720357,7.96751071 C8.36720357,9.17543929 7.54820357,10.1548321 6.53763214,10.1548321 C5.52738214,10.1548321 4.70806071,9.17543929 4.70806071,7.96751071 C4.70806071,6.75990357 5.52738214,5.78083214 6.53763214,5.78083214 C7.54820357,5.78083214 8.36720357,6.75990357 8.36720357,7.96751071" id="Fill-6" fill="#231F20"></path>
                            <path d="M9.56455714,8.07927143 C9.56455714,9.73141429 10.6853786,11.0711286 12.0678429,11.0711286 C13.4503071,11.0711286 14.5711286,9.73141429 14.5711286,8.07927143 C14.5711286,6.42648571 13.4503071,5.08677143 12.0678429,5.08677143 C10.6853786,5.08677143 9.56455714,6.42648571 9.56455714,8.07927143" id="Fill-8" fill="#FFFFFF"></path>
                            <path d="M9.92786786,7.96751071 C9.92786786,9.17543929 10.7468679,10.1548321 11.7571179,10.1548321 C12.7676893,10.1548321 13.5870107,9.17543929 13.5870107,7.96751071 C13.5870107,6.75990357 12.7676893,5.78083214 11.7571179,5.78083214 C10.7468679,5.78083214 9.92786786,6.75990357 9.92786786,7.96751071" id="Fill-10" fill="#231F20"></path>
                            <path d="M10.326375,7.33391071 C10.326375,7.861375 10.684125,8.28919643 11.1254464,8.28919643 C11.5670893,8.28919643 11.9251607,7.861375 11.9251607,7.33391071 C11.9251607,6.806125 11.5670893,6.37830357 11.1254464,6.37830357 C10.684125,6.37830357 10.326375,6.806125 10.326375,7.33391071" id="Fill-12" fill="#F1F2F2"></path>
                            <path d="M5.42802857,7.33391071 C5.42802857,7.861375 5.78545714,8.28919643 6.2271,8.28919643 C6.66842143,8.28919643 7.02649286,7.861375 7.02649286,7.33391071 C7.02649286,6.806125 6.66842143,6.37830357 6.2271,6.37830357 C5.78545714,6.37830357 5.42802857,6.806125 5.42802857,7.33391071" id="Fill-14" fill="#F1F2F2"></path>
                            <path d="M4.07278929,14.6647964 C4.07278929,14.6647964 4.23028929,14.6197964 4.506075,14.5619393 C4.78186071,14.5040821 5.17561071,14.4291893 5.64811071,14.3681179 C6.59343214,14.2299036 7.85375357,14.1476179 9.11439643,14.1456893 C10.3743964,14.1463321 11.6347179,14.227975 12.5800393,14.3668321 C13.0525393,14.4275821 13.4466107,14.5034393 13.7223964,14.5616179 C13.9978607,14.619475 14.1553607,14.6647964 14.1553607,14.6647964 C14.1553607,14.6647964 13.9978607,14.7101179 13.7223964,14.767975 C13.4466107,14.8261536 13.0525393,14.9016893 12.5800393,14.9627607 C11.6347179,15.1012964 10.3743964,15.1832607 9.11439643,15.1839036 C7.85375357,15.181975 6.59343214,15.0993679 5.64811071,14.961475 C5.17561071,14.9004036 4.78186071,14.8255107 4.506075,14.7673321 C4.23028929,14.7097964 4.07278929,14.6647964 4.07278929,14.6647964" id="Fill-16" fill="#505D66"></path>
                        </g>
                    </g>
                </g>
            </g>
        </g>
    </g>
</svg>