<?xml version="1.0" encoding="UTF-8"?>
<svg width="15px" height="13px" viewBox="0 0 15 13" version="1.1" xmlns="http://www.w3.org/2000/svg" xmlns:xlink="http://www.w3.org/1999/xlink">
    <!-- Generator: Sketch 50.2 (55047) - http://www.bohemiancoding.com/sketch -->
    <title>Group 36</title>
    <desc>Created with Sketch.</desc>
    <defs></defs>
    <g id="THREAD-DETAIL" stroke="none" stroke-width="1" fill="none" fill-rule="evenodd">
        <g id="thread-detail-1-momod" transform="translate(-830.000000, -2220.000000)" fill="#484848">
            <g id="Group-36" transform="translate(830.000000, 2220.000000)">
                <g id="desktop" fill-rule="nonzero">
                    <path d="M14,7.75 L14,1.25 C14,1.182 13.9753333,1.12333333 13.926,1.074 C13.8766667,1.02466667 13.818,1 13.75,1 L1.25,1 C1.182,1 1.12333333,1.02466667 1.074,1.074 C1.02466667,1.12333333 1,1.182 1,1.25 L1,7.75 C1,7.818 1.02466667,7.87666667 1.074,7.926 C1.12333333,7.97533333 1.182,8 1.25,8 L13.75,8 C13.818,8 13.8766667,7.97533333 13.926,7.926 C13.9753333,7.87666667 14,7.818 14,7.75 Z M15,1.25 L15,9.75 C15,10.094 14.8776667,10.3883333 14.633,10.633 C14.3883333,10.8776667 14.094,11 13.75,11 L9.5,11 C9.5,11.1926667 9.54166667,11.3943333 9.625,11.605 C9.70833333,11.8156667 9.79166667,12.0006667 9.875,12.16 C9.95833333,12.3193333 10,12.4326667 10,12.5 C10,12.6353333 9.95066667,12.7526667 9.852,12.852 C9.75333333,12.9513333 9.636,13.0006667 9.5,13 L5.5,13 C5.36466667,13 5.24733333,12.9506667 5.148,12.852 C5.04866667,12.7533333 4.99933333,12.636 5,12.5 C5,12.4273333 5.04166667,12.3126667 5.125,12.156 C5.20833333,11.9993333 5.29166667,11.817 5.375,11.609 C5.45833333,11.401 5.5,11.198 5.5,11 L1.25,11 C0.906,11 0.611666667,10.8776667 0.367,10.633 C0.122333333,10.3883333 0,10.094 0,9.75 L0,1.25 C0,0.906 0.122333333,0.611666667 0.367,0.367 C0.611666667,0.122333333 0.906,0 1.25,0 L13.75,0 C14.094,0 14.3883333,0.122333333 14.633,0.367 C14.8776667,0.611666667 15,0.906 15,1.25 Z" id="Shape"></path>
                </g>
                <text id="ip" font-family="OpenSans-Semibold, Open Sans" font-size="7" font-weight="500" letter-spacing="0.4375">
                    <tspan x="4" y="7">IP</tspan>
                </text>
            </g>
        </g>
    </g>
</svg>