<svg xmlns="http://www.w3.org/2000/svg" width="16" height="16" viewBox="0 0 16 16">
    <g fill="none" fill-rule="evenodd">
        <path fill="#FBC25B" d="M16 8A8 8 0 1 1 0 8a8 8 0 0 1 16 0"/>
        <path fill="#1BA89F" d="M8.802 11.153a.705.705 0 1 0 0 1.41.705.705 0 0 0 0-1.41M4.078 6.88a.432.432 0 1 1 .864 0 .432.432 0 0 1-.864 0zm1.204.994a.432.432 0 1 1 0 .864.432.432 0 0 1 0-.864zm.771-1.426a.432.432 0 1 1 0 .863.432.432 0 0 1 0-.863zm.772 1.426a.431.431 0 1 1 0 .862.431.431 0 0 1 0-.862zm.771-1.426a.432.432 0 1 1 0 .863.432.432 0 0 1 0-.863zm.771 1.426a.432.432 0 1 1 0 .863.432.432 0 0 1 0-.863zm.772-1.426a.432.432 0 1 1 0 .864.432.432 0 0 1 0-.864zm2.283-1.795L9.87 9.585h-.467l1.219-3.923H2.519l2.167 4.971h5.95l1.552-4.932h.786l.334-1.048h-1.886zM6.473 11.153a.705.705 0 1 0 0 1.41.705.705 0 0 0 0-1.41"/>
    </g>
</svg>
