<?xml version="1.0" encoding="UTF-8"?>
<svg width="28px" height="28px" viewBox="0 0 28 28" version="1.1" xmlns="http://www.w3.org/2000/svg" xmlns:xlink="http://www.w3.org/1999/xlink">
    <!-- Generator: Sketch 51.1 (57501) - http://www.bohemiancoding.com/sketch -->
    <title>newspaper</title>
    <desc>Created with Sketch.</desc>
    <defs>
        <polygon id="path-1" points="0 0 28 0 28 27.9997667 0 27.9997667"></polygon>
    </defs>
    <g id="THREAD-DETAIL" stroke="none" stroke-width="1" fill="none" fill-rule="evenodd">
        <g id="thread-detail-momod---Pagination-alt-1" transform="translate(-920.000000, -2690.000000)">
            <g id="sidebar" transform="translate(905.000000, 471.000000)">
                <g id="Berita-Terpopuler-Copy" transform="translate(0.000000, 2204.000000)">
                    <g id="Group-20-Copy" transform="translate(15.000000, 15.000000)">
                        <g id="newspaper">
                            <mask id="mask-2" fill="white">
                                <use xlink:href="#path-1"></use>
                            </mask>
                            <g id="Clip-2"></g>
                            <path d="M28,13.9997667 C28,21.7312667 21.7315,27.9997667 14,27.9997667 C6.2685,27.9997667 0,21.7312667 0,13.9997667 C0,6.26826667 6.2685,-0.000233333332 14,-0.000233333332 C21.7315,-0.000233333332 28,6.26826667 28,13.9997667" id="Fill-1" fill="#484848" mask="url(#mask-2)"></path>
                            <path d="M20.995693,12.0376704 C20.995693,12.1579145 20.9228324,12.2889946 20.7771112,12.4309107 L17.7234272,15.3314512 L18.4470082,19.4274421 C18.4527509,19.4658923 18.4556222,19.5204216 18.4556222,19.5910301 C18.4556222,19.7056815 18.4261908,19.802506 18.3673281,19.8815036 C18.3084654,19.9605012 18.2230426,20 18.1110598,20 C18.0048198,20 17.892837,19.9671426 17.7751115,19.9014278 L13.9978465,17.9677341 L10.2205814,19.9014278 C10.0971133,19.9671426 9.98513049,20 9.88463313,20 C9.76690766,20 9.67861355,19.9605012 9.61975081,19.8815036 C9.56088807,19.802506 9.5314567,19.7056815 9.5314567,19.5910301 C9.5314567,19.5581727 9.53719941,19.5036434 9.54868482,19.4274421 L10.2722658,15.3314512 L7.2099677,12.4309107 C7.06998923,12.2834019 7,12.1523218 7,12.0376704 C7,11.8356323 7.15720658,11.7101449 7.47161975,11.6612084 L11.6946624,11.0634831 L13.5876019,7.33556506 C13.693842,7.11185502 13.831308,7 14,7 C14.168692,7 14.306158,7.11185502 14.4123981,7.33556506 L16.3053376,11.0634831 L20.5283802,11.6612084 C20.8427934,11.7101449 21,11.8356323 21,12.0376704 L20.995693,12.0376704 Z" id="Shape" fill="#FFFFFF" fill-rule="nonzero" mask="url(#mask-2)"></path>
                        </g>
                    </g>
                </g>
            </g>
        </g>
    </g>
</svg>