<svg xmlns="http://www.w3.org/2000/svg" xmlns:xlink="http://www.w3.org/1999/xlink" width="26" height="22" viewBox="0 0 26 22">
    <defs>
        <path id="a" d="M0 16.617h25.858V.004H0v16.613zM17.005 8.08c.092-.403.21-.845.353-1.313l1.184-3.881h1.91c.411 0 .781.192 1.015.529a1.2 1.2 0 0 1 .137 1.13l-3.377 8.807h-3.368l-2.829-7.35H9.277v7.35H5.78v-7.35H3.577V2.886h9.477c.916 0 1.735.609 1.993 1.481l.68 2.31c.168.568.294 1.054.376 1.444.08.387.37 1.375.37 1.375s.442-1.018.532-1.416z"/>
        <linearGradient id="b" x1="-.001%" y1="50.001%" y2="50.001%">
            <stop offset="0%" stop-color="#005C9F"/>
            <stop offset="100%" stop-color="#0B83C5"/>
        </linearGradient>
    </defs>
    <g fill="none" fill-rule="evenodd">
        <path fill="#F9A61B" d="M0 16.69l5.91 5.13 1.724-5.13z"/>
        <path fill="#FFF" d="M1.3 1.294h23.4v14.235H1.3z"/>
        <g>
            <mask id="c" fill="#fff">
                <use xlink:href="#a"/>
            </mask>
            <path fill="url(#b)" d="M0 16.617h25.858V.004H0v16.613zM17.005 8.08c.092-.403.21-.845.353-1.313l1.184-3.881h1.91c.411 0 .781.192 1.015.529a1.2 1.2 0 0 1 .137 1.13l-3.377 8.807h-3.368l-2.829-7.35H9.277v7.35H5.78v-7.35H3.577V2.886h9.477c.916 0 1.735.609 1.993 1.481l.68 2.31c.168.568.294 1.054.376 1.444.08.387.37 1.375.37 1.375s.442-1.018.532-1.416z" mask="url(#c)"/>
        </g>
    </g>
</svg>
