<?xml version="1.0" encoding="UTF-8"?>
<svg width="121px" height="70px" viewBox="0 0 121 70" version="1.1" xmlns="http://www.w3.org/2000/svg" xmlns:xlink="http://www.w3.org/1999/xlink">
    <!-- Generator: Sketch 52.6 (67491) - http://www.bohemiancoding.com/sketch -->
    <title>Group 19</title>
    <desc>Created with Sketch.</desc>
    <defs>
        <filter x="-3.6%" y="-3.7%" width="107.1%" height="107.5%" filterUnits="objectBoundingBox" id="filter-1">
            <feOffset dx="1" dy="1" in="SourceAlpha" result="shadowOffsetOuter1"></feOffset>
            <feColorMatrix values="0 0 0 0 1   0 0 0 0 1   0 0 0 0 1  0 0 0 1 0" type="matrix" in="shadowOffsetOuter1" result="shadowMatrixOuter1"></feColorMatrix>
            <feMerge>
                <feMergeNode in="shadowMatrixOuter1"></feMergeNode>
                <feMergeNode in="SourceGraphic"></feMergeNode>
            </feMerge>
        </filter>
        <polygon id="path-2" points="0 0.222781148 9.27278273 0.222781148 9.27278273 8.10818377 0 8.10818377"></polygon>
        <polygon id="path-4" points="0.364476324 0.0485939626 16.7590678 0.0485939626 16.7590678 21.7853181 0.364476324 21.7853181"></polygon>
        <polygon id="path-6" points="0.000936802974 0.0904587097 69.9898513 0.0904587097 69.9898513 33.9675329 0.000936802974 33.9675329"></polygon>
        <polygon id="path-8" points="0.000936802974 0.0116012903 69.9898513 0.0116012903 69.9898513 33.8889368 0.000936802974 33.8889368"></polygon>
        <polygon id="path-10" points="0.00080669145 0.0972 69.9898513 0.0972 69.9898513 45.7374077 0.00080669145 45.7374077"></polygon>
        <polygon id="path-12" points="0 80.9028 69.9898513 80.9028 69.9898513 0.261290323 0 0.261290323"></polygon>
    </defs>
    <g id="FORUM" stroke="none" stroke-width="1" fill="none" fill-rule="evenodd">
        <g id="3-forum" transform="translate(-249.000000, -430.000000)">
            <g id="Group" transform="translate(235.000000, 425.000000)">
                <g id="Group-17">
                    <g id="Group-19" transform="translate(14.000000, -9.000000)">
                        <g id="orange-guy" filter="url(#filter-1)" transform="translate(84.265119, 42.269219) scale(-1, 1) rotate(-17.000000) translate(-84.265119, -42.269219) translate(49.265119, 8.769219)">
                            <path d="M14.9990222,55.5585138 C15.0553158,54.9169806 10.8051506,46.4166654 13.4790956,45.4996646 C16.1518168,44.5838882 24.9788947,47.2993857 27.2649035,46.333413 C29.5521361,45.3674402 36.0846388,40.2388474 37.6155793,40.5032962 C39.1465199,40.7665207 34.3248525,47.7927786 30.0930439,50.2732105 C25.8624591,52.7524181 14.9990222,55.5585138 14.9990222,55.5585138" id="Fill-1" fill="#FAA61A"></path>
                            <g id="Group-5" transform="translate(0.061244, 47.391541)">
                                <mask id="mask-3" fill="white">
                                    <use xlink:href="#path-2"></use>
                                </mask>
                                <g id="Clip-4"></g>
                                <path d="M7.48953037,3.84239053 C7.48953037,3.84239053 -0.0406603107,9.22379882 0.00012358757,7.89807101 C0.0409074859,6.56985123 3.98582274,0.408456467 7.67861935,0.229034658 C11.3726518,0.0483668639 7.48953037,3.84239053 7.48953037,3.84239053" id="Fill-3" fill="#CC6633" mask="url(#mask-3)"></path>
                            </g>
                            <path d="M0.0293517711,55.1380075 C0.0293517711,55.1380075 4.27411429,48.3311819 7.31748331,49.630867 C10.3608523,50.9305522 7.53866541,47.6054631 7.53866541,47.6054631 C7.53866541,47.6054631 1.04823981,49.8401384 0.0293517711,55.1380075" id="Fill-6" fill="#FAA61A"></path>
                            <path d="M7.36828482,58.3972 C7.36828482,58.3972 0.613221277,64.6207986 0.547230425,63.3215515 C0.482439407,62.0223044 3.76038498,55.5007355 7.26629895,54.8468897 C10.7722129,54.1942503 7.36828482,58.3972 7.36828482,58.3972" id="Fill-8" fill="#CC6633"></path>
                            <path d="M7.274331,54.636647 C7.274331,54.636647 0.518067631,60.8619396 0.453276613,59.5613843 C0.388485595,58.2620354 3.66643117,51.7399556 7.17234514,51.0872651 C10.6782591,50.4333681 7.274331,54.636647 7.274331,54.636647" id="Fill-10" fill="#CC6633"></path>
                            <path d="M0.074132272,59.6241628 C0.074132272,59.6241628 3.78624055,52.0893607 6.95565744,53.0032721 C10.1250743,53.9171835 7.01265243,50.9022693 7.01265243,50.9022693 C7.01265243,50.9022693 0.663906485,54.0686742 0.074132272,59.6241628" id="Fill-12" fill="#FAA61A"></path>
                            <path d="M0.546285705,63.4999461 C0.546285705,63.4999461 4.25839399,55.9649751 7.42781087,56.8787564 C10.5972278,57.7925377 7.48480586,54.7780526 7.48480586,54.7780526 C7.48480586,54.7780526 1.13605992,57.9452484 0.546285705,63.4999461" id="Fill-14" fill="#FCEE21"></path>
                            <path d="M6.29639715,54.5755469 C6.29639715,54.5755469 5.50283023,49.971571 8.07119055,47.6664866 C10.6395509,45.3614021 11.608512,44.1079117 13.4274606,45.5050828 C15.2488623,46.9034924 16.4729423,55.8290372 13.4532178,58.073429 C10.4347198,60.320298 0.631040732,68.7095174 1.06155385,64.246745 C1.10080291,63.8466685 4.14873768,60.6262388 6.0167476,59.4953726 C7.88598405,58.3632677 6.29639715,54.5755469 6.29639715,54.5755469" id="Fill-16" fill="#FAA61A"></path>
                            <path d="M7.2468476,48.7577439 C7.2468476,48.7577439 6.18610382,53.1785883 7.08798621,55.6639263 C7.98861772,58.1480315 12.3979595,54.639464 13.2860822,52.218232 C14.1729541,49.7957671 13.7351471,48.1894201 13.7351471,48.1894201 L7.2468476,48.7577439 Z" id="Fill-18" fill="#CC6633"></path>
                            <path d="M12.5096801,50.161157 C12.5096801,50.161157 7.7293736,53.0996898 6.67040552,47.2942345 C6.67040552,47.2942345 2.53544662,49.277964 2.23270633,46.3080232 C1.92996605,43.3380825 7.02920882,44.3481639 8.7945709,43.6094476 C10.5611788,42.8707314 12.4573546,43.8418669 13.7243788,46.7452226 C14.9901571,49.6498348 12.5096801,50.161157 12.5096801,50.161157" id="Fill-20" fill="#FAA61A"></path>
                            <path d="M12.5714509,49.2933615 C12.5714509,49.2933615 9.75515414,51.6504207 8.22261531,49.2158099 C8.22261531,49.2158099 7.10672415,47.7728421 7.52337182,46.8994334 C7.94122717,46.0260247 10.2152781,49.2730201 12.5714509,49.2933615" id="Fill-22" fill="#FCEE21"></path>
                            <path d="M4.99614965,47.2516898 C4.99614965,47.2516898 2.85679211,47.5763452 3.02856534,46.1374544 C3.20153978,44.6974325 4.99614965,47.2516898 4.99614965,47.2516898" id="Fill-24" fill="#FCEE21"></path>
                            <path d="M1.58473279,64.7976968 C1.58473279,64.7976968 0.791238097,63.6576982 2.69832348,62.8804265 C4.60663528,62.101921 11.8265785,58.4623154 13.6809277,56.472253 C13.6809277,56.472253 8.46863648,61.3283506 6.56523036,62.3227649 C4.66059782,63.3159454 1.58473279,64.7976968 1.58473279,64.7976968" id="Fill-26" fill="#FCEE21"></path>
                            <path d="M67.392978,35.0978847 C68.2916344,45.5767462 36.2538016,44.430886 36.2538016,44.430886 C36.2538016,44.430886 33.5102134,41.8808923 36.0828615,40.7968721 C38.6567306,39.7140645 50.2940867,39.7334653 55.0303477,36.4801923 C59.7666087,33.2257067 63.4222843,30.592047 63.4222843,30.592047" id="Fill-28" fill="#FAA61A"></path>
                            <path d="M30.5681362,42.2929524 C30.5681362,42.2929524 29.5302939,55.1844982 40.1996548,66.6047529 C40.1996548,66.6047529 48.7370994,61.3242622 50.7100999,55.4623544 C50.7100999,55.4623544 36.7536273,43.1155045 36.4663565,38.4568239 C36.4663565,38.4568239 30.5265736,39.4911343 30.5681362,42.2929524" id="Fill-30" fill="#FAA61A"></path>
                            <path d="M30.3807534,42.40113 C30.3807534,42.40113 30.3049466,43.4484743 30.4272156,45.1697198 C32.5326876,44.7549179 35.0771052,44.2245553 36.4257322,43.8438134 C36.4257322,43.8438134 42.2506268,53.9146196 49.9462369,56.8255315 C50.1712118,56.3839681 50.3741783,55.9387555 50.5270146,55.4886772 C50.5270146,55.4886772 36.5675642,43.2185695 36.2802321,38.5888451 C36.2802321,38.5888451 30.3391819,39.6167266 30.3807534,42.40113" id="Fill-32" fill="#CC6633"></path>
                            <path d="M35.2235883,41.2536028 C34.1851453,43.8433937 38.013937,43.6768985 38.013937,43.6768985 C38.013937,43.6768985 38.3015633,43.4083186 38.7796953,42.946507 C38.1733143,40.5086278 38.8830416,37.4631017 39.7907454,34.9571661 C37.6802407,37.7110217 35.6967398,40.0735526 35.2235883,41.2536028" id="Fill-34" fill="#CC6633"></path>
                            <path d="M32.1914203,49.6306897 C31.5263287,54.9760896 39.645836,64.0339124 39.8859059,64.4534713 C39.8859059,64.4534713 40.5840684,65.2571161 41.2712073,66.0350736 C42.6038402,65.1054388 44.8048893,63.4443283 46.7854661,61.3893462 C45.0976276,59.0860538 41.2908048,52.9027594 39.820989,50.2704252 C38.0033169,47.01915 32.856512,44.2852899 32.1914203,49.6306897" id="Fill-36" fill="#FCEE21"></path>
                            <polygon id="Fill-38" fill="#CC6633" points="30.7704908 49.9172851 29.6916543 44.8530949 30.6484463 44.3669892 31.2735752 49.2664492"></polygon>
                            <path d="M58.2690562,31.1402056 C58.2690562,31.1402056 43.0571489,38.9852542 47.7081601,43.3334363 C52.3591713,47.6840611 61.8521952,42.2231842 61.8521952,42.2231842 L58.2690562,31.1402056 Z" id="Fill-40" fill="#FAA61A"></path>
                            <path d="M63.65978,23.0790099 C63.65978,23.0790099 57.2461754,25.6294342 55.8464837,26.6170925 C54.4505015,27.6010563 54.425772,29.2783513 54.7620937,30.7906261 C55.0959424,32.3016694 53.7692029,32.699442 53.7580746,35.1513468 C53.7457098,37.6007886 57.8025899,42.7139522 59.2097004,42.4984407 C60.6229932,42.2878552 63.7475698,39.8310245 64.0715267,39.3445843 C64.401666,38.8643016 66.4134136,28.9125976 66.4134136,28.9125976 L63.65978,23.0790099 Z" id="Fill-42" fill="#005499"></path>
                            <g id="Group-46" transform="translate(52.848790, 22.286687)">
                                <mask id="mask-5" fill="white">
                                    <use xlink:href="#path-4"></use>
                                </mask>
                                <g id="Clip-45"></g>
                                <path d="M16.5661751,7.89498751 C16.5661751,7.89498751 17.3156384,5.20001052 15.8604407,4.39090072 C14.4040282,3.57809073 12.6050734,4.93482972 10.2230678,3.06006312 C7.84227684,1.18652991 3.9759209,-0.816510191 3.08555367,0.44155687 C2.2000452,1.69962393 0.403519774,3.05759632 2.97866102,5.00390007 C5.5489435,6.95390401 7.45843503,7.71614464 7.45843503,7.71614464 C7.45843503,7.71614464 1.65950847,5.6292334 0.886966102,7.16728205 C0.119282486,8.70286391 0.141146893,9.86349244 1.33154237,10.7984089 C2.52072316,11.7357922 6.36642938,12.5806706 6.36642938,12.5806706 C6.36642938,12.5806706 0.895468927,12.0083734 0.698689266,13.7733675 C0.501909605,15.5383616 5.87205085,16.9888389 5.87205085,16.9888389 C5.87205085,16.9888389 -0.64840113,16.921002 0.633096045,18.8142696 C1.91459322,20.7087705 4.73631638,21.374806 6.93247458,21.3304037 C9.13349153,21.2872347 12.3074746,22.7845812 13.103096,20.5693964 C13.9011469,18.3529783 12.7071073,17.4131282 13.8841412,15.3508849 C15.0623898,13.2849415 16.5661751,7.89498751 16.5661751,7.89498751" id="Fill-44" fill="#0082C6" mask="url(#mask-5)"></path>
                            </g>
                            <path d="M62.1673642,43.5779962 C62.1673642,43.5779962 66.5463635,44.10851 66.0886283,43.1467152 C65.6250248,42.1811037 64.4196557,41.3452582 64.4196557,41.3452582 L62.1673642,43.5779962 Z" id="Fill-47" fill="#00A9E9"></path>
                            <path d="M58.6243147,39.5518456 C58.6243147,39.5518456 53.2545189,38.1127655 53.4500713,36.36164 C53.6468383,34.6105144 59.1174468,35.1783148 59.1174468,35.1783148 C59.1174468,35.1783148 55.2732026,34.3400751 54.0840983,33.4088336 C52.8925648,32.482487 52.8719164,31.3309781 53.6395506,29.8074622 C54.4108287,28.2814988 60.2105969,30.3520121 60.2105969,30.3520121 C60.2105969,30.3520121 58.3000135,29.5957608 55.731111,27.6610791 C53.1561354,25.7300685 54.9525453,24.3827665 55.8379968,23.1345848 C56.5072475,22.1984485 58.8538762,23.0880839 60.9903772,24.3742005 C60.3490625,24.3827665 59.8413551,24.5369537 59.6251543,24.9407772 C58.7409174,26.5695319 60.0223321,29.063448 61.168925,29.5174435 C62.3130887,29.9665442 64.5856261,31.327307 64.5856261,31.327307 C64.5856261,31.327307 59.5899306,30.260234 58.6000225,31.3921635 C57.6076852,32.5228693 59.5753552,33.9117774 60.2105969,34.1626375 C60.8494823,34.4159449 64.4447313,36.1462675 64.4447313,36.1462675 C64.4447313,36.1462675 58.1251095,34.7047399 57.7194294,36.2245847 C57.3173931,37.7419821 62.3580293,39.8908126 62.3580293,39.8908126 C62.3580293,39.8908126 58.6498216,40.0951718 58.6741138,41.6297011 C58.6947622,42.7738677 61.0365324,43.739373 62.2317098,44.1542098 C61.359619,44.0171546 60.4620214,43.8458355 59.6846702,43.8592963 C57.4874387,43.9033498 54.6671117,43.2425477 53.3856969,41.3617091 C52.1042822,39.4845417 58.6243147,39.5518456 58.6243147,39.5518456" id="Fill-49" fill="#006699"></path>
                            <path d="M68.7302219,31.024349 C68.7302219,31.024349 70.1626177,29.591568 69.2314354,28.4691411 C68.3052528,27.3442608 67.546558,28.5770904 66.157909,27.8901406 C64.7617606,27.2019641 63.025637,27.4473033 64.6917657,29.0052073 C66.3566446,30.5667914 67.1465871,29.6504494 66.6678719,31.7542332 C66.1841571,33.8567903 63.7955809,31.4132117 64.2992943,33.2863766 C64.7992579,35.1570881 65.4904576,34.5093926 65.3867152,35.9973749 C65.2829727,37.4865839 63.8380778,38.1465464 64.4705318,40.0736859 C65.1042357,41.994692 66.0854143,42.9883158 66.0854143,42.9883158 C66.0854143,42.9883158 64.8967508,40.5435105 65.8229334,38.4532204 C66.7441164,36.3666104 67.7727915,32.7944715 67.7727915,32.7944715 L68.7302219,31.024349 Z" id="Fill-51" fill="#00A9E9"></path>
                            <path d="M46.3343868,16.6679977 C50.1239188,27.641926 44.2397821,39.5885379 33.1894475,43.3518676 C22.1378793,47.1151973 10.1068552,41.2705209 6.31732319,30.2965926 C2.52779115,19.3214392 8.41439496,7.37482737 19.4659632,3.61149764 C30.5162978,-0.151832097 42.5460883,5.69406943 46.3343868,16.6679977" id="Fill-53" fill="#FAA61A"></path>
                            <path d="M24.4538949,8.48371606 C24.4538949,8.48371606 22.5070082,-0.634838347 13.4838146,0.225090988 C13.4838146,0.225090988 16.3160358,1.25741912 18.0845818,4.01063825 C18.0845818,4.01063825 12.6006032,1.25741912 6.40750771,5.90289572 C6.40750771,5.90289572 11.0082749,4.18200472 13.3075969,6.07529452 C13.3075969,6.07529452 7.11450147,5.73049693 4.28440334,11.7530993 C4.28440334,11.7530993 14.8999252,5.73049693 24.4538949,8.48371606" id="Fill-15" fill="#FAA61A"></path>
                            <path d="M23.4928159,21.5710942 C24.628375,24.8573009 23.534331,28.2065407 21.0519744,29.0514267 C18.5708389,29.8963128 15.6379217,27.9168308 14.5035837,24.6318363 C13.3680246,21.3456296 14.4608476,17.997602 16.9419831,17.1515038 C19.4243397,16.3066178 22.3572569,18.2848875 23.4928159,21.5710942" id="Fill-55" fill="#FFFFFF"></path>
                            <path d="M22.4533604,22.0674981 C23.2334913,24.2860911 22.4027506,26.5720965 20.5993152,27.1751975 C18.7958798,27.7782985 16.7011296,26.469774 15.9209987,24.2523848 C15.1408679,22.0349956 15.9716085,19.7465825 17.7750439,19.1434816 C19.5784794,18.5403806 21.6732295,19.8501088 22.4533604,22.0674981" id="Fill-57" fill="#021A23"></path>
                            <path d="M20.4787007,21.9161112 C20.8071297,22.8725588 20.5149245,23.8398476 19.8254651,24.0747434 C19.1347982,24.3108438 18.3076884,23.7278204 17.9804668,22.7701683 C17.6508304,21.8149254 17.9442431,20.8464319 18.6349099,20.6115361 C19.3243693,20.3754357 20.1514791,20.9596637 20.4787007,21.9161112" id="Fill-59" fill="#FFFFFF"></path>
                            <path d="M36.3946878,17.2342119 C37.5303622,20.5205279 36.4374282,23.8698791 33.9548194,24.7147933 C31.4734317,25.5584952 28.5402166,23.5801596 27.4057633,20.2938436 C26.2700888,17.0075276 27.3630228,13.6606008 29.8444105,12.8144745 C32.3270193,11.9695603 35.2590133,13.9478959 36.3946878,17.2342119" id="Fill-61" fill="#FFFFFF"></path>
                            <path d="M35.3555443,17.7304622 C36.1355422,19.9490552 35.3049432,22.2350607 33.5018152,22.8381617 C31.6974531,23.4412627 29.6030601,22.1327382 28.8230622,19.915349 C28.0430644,17.6979598 28.8736634,15.4095467 30.6780255,14.8064457 C32.4811535,14.2033448 34.5755465,15.513073 35.3555443,17.7304622" id="Fill-63" fill="#021A23"></path>
                            <path d="M33.3813848,17.5790739 C33.7095847,18.5355203 33.4151701,19.502808 32.7261916,19.7377036 C32.0372131,19.9738037 31.2106802,19.3907809 30.8824803,18.4343345 C30.5530738,17.4778881 30.8462818,16.5106003 31.5376735,16.2745002 C32.2254454,16.0384001 33.0531849,16.6226274 33.3813848,17.5790739" id="Fill-65" fill="#FFFFFF"></path>
                            <path d="M11.6980067,31.7079298 C11.6980067,31.7079298 14.7318129,34.6061057 27.6261014,30.4141013 C42.5527217,25.5628605 41.2794536,20.5957912 41.2794536,20.5957912 C41.2794536,20.5957912 47.1083282,29.9741996 39.1418323,36.5012564 C32.938323,41.5841541 28.0080819,41.3919281 28.0080819,41.3919281 C28.0080819,41.3919281 18.5246828,43.9142776 11.6980067,31.7079298" id="Fill-67" fill="#510D3A"></path>
                            <path d="M28.4994699,33.0673841 C39.6299091,29.2875731 41.3344828,25.243998 40.8322751,22.3922008 C39.8742924,24.2421787 36.8561582,27.2427969 27.6099146,30.1986479 C19.9093956,32.6608487 15.7353282,32.6306005 13.6214123,32.209546 C15.0950438,33.9591 18.9587444,36.3063578 28.4994699,33.0673841" id="Fill-69" fill="#FFFFFF"></path>
                            <path d="M35.382122,33.5972213 C31.8093197,33.8934042 31.0176607,35.4014691 30.9884751,36.6318624 C30.2223534,35.6791406 28.6840298,34.9818766 25.6815625,36.9724728 C23.8088207,38.2164412 22.8007019,39.6134374 22.2619846,40.8931946 C25.6511609,41.9495804 28.191523,41.2720619 28.191523,41.2720619 C28.191523,41.2720619 33.0874052,41.4633468 39.2504283,36.3727023 C39.8669738,35.8642549 40.3910983,35.336062 40.8495552,34.7979963 C39.6237606,33.9970682 37.8677611,33.3923614 35.382122,33.5972213" id="Fill-71" fill="#ED125F"></path>
                        </g>
                        <g id="Group-166" transform="translate(0.000000, 23.000000)">
                            <g id="Group-3" transform="translate(0.000000, 46.935058)">
                                <mask id="mask-7" fill="white">
                                    <use xlink:href="#path-6"></use>
                                </mask>
                                <g id="Clip-2"></g>
                                <path d="M0.000936802974,0.0904587097 L0.000936802974,30.9634781 C0.000936802974,32.6156168 1.34550929,33.9675329 2.99272119,33.9675329 L31.6849145,33.9675329 L48.9845428,33.9675329 L66.9990037,33.9675329 C68.6428327,33.9675329 69.9900074,32.6156168 69.9900074,30.9634781 L69.9900074,0.0904587097 L0.000936802974,0.0904587097 Z" id="Fill-1" fill="#BBBDBF" mask="url(#mask-7)"></path>
                            </g>
                            <g id="Group-6" transform="translate(0.000000, 45.889897)">
                                <mask id="mask-9" fill="white">
                                    <use xlink:href="#path-8"></use>
                                </mask>
                                <g id="Clip-5"></g>
                                <path d="M0.000936802974,0.0116012903 L0.000936802974,30.8846206 C0.000936802974,32.5367594 1.34550929,33.8889368 2.99272119,33.8889368 L31.6849145,33.8889368 L48.9845428,33.8889368 L66.9990037,33.8889368 C68.6428327,33.8889368 69.9900074,32.5367594 69.9900074,30.8846206 L69.9900074,0.0116012903 L0.000936802974,0.0116012903 Z" id="Fill-4" fill="#D0D2D3" mask="url(#mask-9)"></path>
                            </g>
                            <g id="Group-9" transform="translate(0.000000, 0.164090)">
                                <mask id="mask-11" fill="white">
                                    <use xlink:href="#path-10"></use>
                                </mask>
                                <g id="Clip-8"></g>
                                <path d="M69.9898773,45.7374077 L69.9898773,3.10109806 C69.9898773,1.44948194 68.6427026,0.0970432258 66.9991338,0.0970432258 L2.99259108,0.0970432258 C1.34563941,0.0970432258 0.00080669145,1.44948194 0.00080669145,3.10109806 L0.00080669145,45.7374077 L69.9898773,45.7374077 Z" id="Fill-7" fill="#1E193D" mask="url(#mask-11)"></path>
                            </g>
                            <path d="M7.7512119,59.5235555 C7.7512119,60.0189619 7.35124907,60.4208265 6.85786617,60.4208265 L3.94831227,60.4208265 C3.45597026,60.4208265 3.0567881,60.0197458 3.0567881,59.5256458 L3.0567881,58.8716361 C3.0567881,58.3767523 3.45623048,57.9759329 3.94883271,57.9759329 L6.85968773,57.9759329 C7.35202974,57.9759329 7.7512119,58.376491 7.7512119,58.8711135 L7.7512119,59.5235555 Z" id="Fill-10" fill="#1E193D"></path>
                            <path d="M7.7512119,52.8601558 C7.7512119,53.3555623 7.35124907,53.7574268 6.85786617,53.7574268 L3.94831227,53.7574268 C3.45597026,53.7574268 3.0567881,53.3563461 3.0567881,52.8622461 L3.0567881,52.2082365 C3.0567881,51.7133526 3.45623048,51.3122719 3.94883271,51.3122719 L6.85968773,51.3122719 C7.35202974,51.3122719 7.7512119,51.7130913 7.7512119,52.2077139 L7.7512119,52.8601558 Z" id="Fill-12" fill="#1E193D"></path>
                            <path d="M66.9330112,59.5235555 C66.9330112,60.0189619 66.5330483,60.4208265 66.0394052,60.4208265 L57.3474349,60.4208265 C56.8545725,60.4208265 56.4546097,60.0192232 56.4546097,59.5243394 L56.4546097,58.8716361 C56.4546097,58.3767523 56.8543123,57.9759329 57.3466543,57.9759329 L66.0407063,57.9759329 C66.5335688,57.9759329 66.9330112,58.3767523 66.9330112,58.8716361 L66.9330112,59.5235555 Z" id="Fill-14" fill="#1E193D"></path>
                            <path d="M8.54281041,58.8718713 C8.54281041,58.3769874 8.94225279,57.9761681 9.43485502,57.9761681 L11.4721413,57.9761681 C11.9655242,57.9761681 12.365487,58.37751 12.365487,58.8731777 L12.365487,59.5245745 C12.365487,60.0194584 11.9660446,60.420539 11.4734424,60.420539 L9.43407435,60.420539 C8.94173234,60.420539 8.54281041,60.019981 8.54281041,59.5256197 L8.54281041,58.8718713 Z" id="Fill-22" fill="#1E193D"></path>
                            <path d="M13.345487,58.8718713 C13.345487,58.3769874 13.7449294,57.9761681 14.2377918,57.9761681 L16.2750781,57.9761681 C16.768461,57.9761681 17.1684238,58.37751 17.1684238,58.8731777 L17.1684238,59.5245745 C17.1684238,60.0194584 16.7689814,60.420539 16.276119,60.420539 L14.2367509,60.420539 C13.7446691,60.420539 13.345487,60.019981 13.345487,59.5256197 L13.345487,58.8718713 Z" id="Fill-24" fill="#1E193D"></path>
                            <path d="M18.1483197,58.8718713 C18.1483197,58.3769874 18.5477621,57.9761681 19.0403643,57.9761681 L21.0779108,57.9761681 C21.5712937,57.9761681 21.9712565,58.37751 21.9712565,58.8731777 L21.9712565,59.5245745 C21.9712565,60.0194584 21.5718141,60.420539 21.0789517,60.420539 L19.0395836,60.420539 C18.5475019,60.420539 18.1483197,60.019981 18.1483197,59.5256197 L18.1483197,58.8718713 Z" id="Fill-26" fill="#1E193D"></path>
                            <path d="M22.9512565,58.8718713 C22.9512565,58.3769874 23.3506989,57.9761681 23.8433011,57.9761681 L25.8805874,57.9761681 C26.3739703,57.9761681 26.7739331,58.37751 26.7739331,58.8731777 L26.7739331,59.5245745 C26.7739331,60.0194584 26.3744907,60.420539 25.8818885,60.420539 L23.8425204,60.420539 C23.3501784,60.420539 22.9512565,60.019981 22.9512565,59.5256197 L22.9512565,58.8718713 Z" id="Fill-28" fill="#1E193D"></path>
                            <path d="M27.7540892,58.8718713 C27.7540892,58.3769874 28.1535316,57.9761681 28.6461338,57.9761681 L30.6834201,57.9761681 C31.176803,57.9761681 31.5767658,58.37751 31.5767658,58.8731777 L31.5767658,59.5245745 C31.5767658,60.0194584 31.1773234,60.420539 30.6847212,60.420539 L28.6453532,60.420539 C28.1530112,60.420539 27.7540892,60.019981 27.7540892,59.5256197 L27.7540892,58.8718713 Z" id="Fill-30" fill="#1E193D"></path>
                            <path d="M32.5568959,58.8718713 C32.5568959,58.3769874 32.9563383,57.9761681 33.4489405,57.9761681 L35.4862268,57.9761681 C35.9796097,57.9761681 36.3795725,58.37751 36.3795725,58.8731777 L36.3795725,59.5245745 C36.3795725,60.0194584 35.9803903,60.420539 35.4875279,60.420539 L33.4481599,60.420539 C32.9558178,60.420539 32.5568959,60.019981 32.5568959,59.5256197 L32.5568959,58.8718713 Z" id="Fill-32" fill="#1E193D"></path>
                            <path d="M37.3597026,58.8718713 C37.3597026,58.3769874 37.759145,57.9761681 38.2517472,57.9761681 L40.2890335,57.9761681 C40.7826766,57.9761681 41.1826394,58.37751 41.1826394,58.8731777 L41.1826394,59.5245745 C41.1826394,60.0194584 40.783197,60.420539 40.2903346,60.420539 L38.2507063,60.420539 C37.7586245,60.420539 37.3597026,60.019981 37.3597026,59.5256197 L37.3597026,58.8718713 Z" id="Fill-34" fill="#1E193D"></path>
                            <path d="M42.1625353,58.8718713 C42.1625353,58.3769874 42.5619777,57.9761681 43.0545799,57.9761681 L45.0918662,57.9761681 C45.5852491,57.9761681 45.9852119,58.37751 45.9852119,58.8731777 L45.9852119,59.5245745 C45.9852119,60.0194584 45.5857695,60.420539 45.0931673,60.420539 L43.0537993,60.420539 C42.5614572,60.420539 42.1625353,60.019981 42.1625353,59.5256197 L42.1625353,58.8718713 Z" id="Fill-36" fill="#1E193D"></path>
                            <path d="M46.9652119,58.8718713 C46.9652119,58.3769874 47.3646543,57.9761681 47.8575167,57.9761681 L49.894803,57.9761681 C50.3881859,57.9761681 50.7881487,58.37751 50.7881487,58.8731777 L50.7881487,59.5245745 C50.7881487,60.0194584 50.3887063,60.420539 49.8961041,60.420539 L47.8567361,60.420539 C47.3643941,60.420539 46.9652119,60.019981 46.9652119,59.5256197 L46.9652119,58.8718713 Z" id="Fill-38" fill="#1E193D"></path>
                            <path d="M51.7681747,58.8718713 C51.7681747,58.3769874 52.1676171,57.9761681 52.6602193,57.9761681 L54.6977658,57.9761681 C55.1908885,57.9761681 55.5908513,58.37751 55.5908513,58.8731777 L55.5908513,59.5245745 C55.5908513,60.0194584 55.1914089,60.420539 54.6988067,60.420539 L52.6594387,60.420539 C52.1670967,60.420539 51.7681747,60.019981 51.7681747,59.5256197 L51.7681747,58.8718713 Z" id="Fill-40" fill="#1E193D"></path>
                            <path d="M8.54281041,52.2084455 C8.54281041,51.7135616 8.94225279,51.312481 9.43485502,51.312481 L11.4721413,51.312481 C11.9655242,51.312481 12.365487,51.7140842 12.365487,52.2097519 L12.365487,52.8611487 C12.365487,53.3560326 11.9660446,53.7571132 11.4734424,53.7571132 L9.43407435,53.7571132 C8.94173234,53.7571132 8.54281041,53.3565552 8.54281041,52.8621939 L8.54281041,52.2084455 Z" id="Fill-42" fill="#1E193D"></path>
                            <path d="M13.345487,52.2084455 C13.345487,51.7135616 13.7449294,51.312481 14.2377918,51.312481 L16.2750781,51.312481 C16.768461,51.312481 17.1684238,51.7140842 17.1684238,52.2097519 L17.1684238,52.8611487 C17.1684238,53.3560326 16.7689814,53.7571132 16.276119,53.7571132 L14.2367509,53.7571132 C13.7446691,53.7571132 13.345487,53.3565552 13.345487,52.8621939 L13.345487,52.2084455 Z" id="Fill-44" fill="#1E193D"></path>
                            <path d="M18.1483197,52.2084455 C18.1483197,51.7135616 18.5477621,51.312481 19.0403643,51.312481 L21.0779108,51.312481 C21.5712937,51.312481 21.9712565,51.7140842 21.9712565,52.2097519 L21.9712565,52.8611487 C21.9712565,53.3560326 21.5718141,53.7571132 21.0789517,53.7571132 L19.0395836,53.7571132 C18.5475019,53.7571132 18.1483197,53.3565552 18.1483197,52.8621939 L18.1483197,52.2084455 Z" id="Fill-46" fill="#1E193D"></path>
                            <path d="M22.9512565,52.2084455 C22.9512565,51.7135616 23.3506989,51.312481 23.8433011,51.312481 L25.8805874,51.312481 C26.3739703,51.312481 26.7739331,51.7140842 26.7739331,52.2097519 L26.7739331,52.8611487 C26.7739331,53.3560326 26.3744907,53.7571132 25.8818885,53.7571132 L23.8425204,53.7571132 C23.3501784,53.7571132 22.9512565,53.3565552 22.9512565,52.8621939 L22.9512565,52.2084455 Z" id="Fill-48" fill="#1E193D"></path>
                            <path d="M27.7540892,52.2084455 C27.7540892,51.7135616 28.1535316,51.312481 28.6461338,51.312481 L30.6834201,51.312481 C31.176803,51.312481 31.5767658,51.7140842 31.5767658,52.2097519 L31.5767658,52.8611487 C31.5767658,53.3560326 31.1773234,53.7571132 30.6847212,53.7571132 L28.6453532,53.7571132 C28.1530112,53.7571132 27.7540892,53.3565552 27.7540892,52.8621939 L27.7540892,52.2084455 Z" id="Fill-50" fill="#1E193D"></path>
                            <path d="M32.5568959,52.2084455 C32.5568959,51.7135616 32.9563383,51.312481 33.4489405,51.312481 L35.4862268,51.312481 C35.9796097,51.312481 36.3795725,51.7140842 36.3795725,52.2097519 L36.3795725,52.8611487 C36.3795725,53.3560326 35.9803903,53.7571132 35.4875279,53.7571132 L33.4481599,53.7571132 C32.9558178,53.7571132 32.5568959,53.3565552 32.5568959,52.8621939 L32.5568959,52.2084455 Z" id="Fill-52" fill="#1E193D"></path>
                            <path d="M37.3597026,52.2084455 C37.3597026,51.7135616 37.759145,51.312481 38.2517472,51.312481 L40.2890335,51.312481 C40.7826766,51.312481 41.1826394,51.7140842 41.1826394,52.2097519 L41.1826394,52.8611487 C41.1826394,53.3560326 40.783197,53.7571132 40.2903346,53.7571132 L38.2507063,53.7571132 C37.7586245,53.7571132 37.3597026,53.3565552 37.3597026,52.8621939 L37.3597026,52.2084455 Z" id="Fill-54" fill="#1E193D"></path>
                            <path d="M42.1625353,52.2084455 C42.1625353,51.7135616 42.5619777,51.312481 43.0545799,51.312481 L45.0918662,51.312481 C45.5852491,51.312481 45.9852119,51.7140842 45.9852119,52.2097519 L45.9852119,52.8611487 C45.9852119,53.3560326 45.5857695,53.7571132 45.0931673,53.7571132 L43.0537993,53.7571132 C42.5614572,53.7571132 42.1625353,53.3565552 42.1625353,52.8621939 L42.1625353,52.2084455 Z" id="Fill-56" fill="#1E193D"></path>
                            <path d="M46.9652119,52.2084455 C46.9652119,51.7135616 47.3646543,51.312481 47.8575167,51.312481 L49.894803,51.312481 C50.3881859,51.312481 50.7881487,51.7140842 50.7881487,52.2097519 L50.7881487,52.8611487 C50.7881487,53.3560326 50.3887063,53.7571132 49.8961041,53.7571132 L47.8567361,53.7571132 C47.3643941,53.7571132 46.9652119,53.3565552 46.9652119,52.8621939 L46.9652119,52.2084455 Z" id="Fill-58" fill="#1E193D"></path>
                            <path d="M51.7681747,52.2084455 C51.7681747,51.7135616 52.1676171,51.312481 52.6602193,51.312481 L54.6977658,51.312481 C55.1908885,51.312481 55.5908513,51.7140842 55.5908513,52.2097519 L55.5908513,52.8611487 C55.5908513,53.3560326 55.1914089,53.7571132 54.6988067,53.7571132 L52.6594387,53.7571132 C52.1670967,53.7571132 51.7681747,53.3565552 51.7681747,52.8621939 L51.7681747,52.2084455 Z" id="Fill-60" fill="#1E193D"></path>
                            <path d="M56.5896654,52.2084455 C56.5896654,51.7135616 56.9891078,51.312481 57.4819703,51.312481 L59.5192565,51.312481 C60.0123792,51.312481 60.412342,51.7140842 60.412342,52.2097519 L60.412342,52.8611487 C60.412342,53.3560326 60.0128996,53.7571132 59.5202974,53.7571132 L57.4809294,53.7571132 C56.9885874,53.7571132 56.5896654,53.3565552 56.5896654,52.8621939 L56.5896654,52.2084455 Z" id="Fill-62" fill="#1E193D"></path>
                            <path d="M10.9628327,55.4771352 C10.9628327,54.9822513 11.3622751,54.5814319 11.8548773,54.5814319 L13.8924238,54.5814319 C14.3858067,54.5814319 14.7857695,54.9830352 14.7857695,55.4784416 L14.7857695,56.1298384 C14.7857695,56.6247223 14.3863271,57.0258029 13.8934647,57.0258029 L11.8540967,57.0258029 C11.3620149,57.0258029 10.9628327,56.6252448 10.9628327,56.1308835 L10.9628327,55.4771352 Z" id="Fill-64" fill="#1E193D"></path>
                            <path d="M50.1049331,49.4429487 C50.1049331,49.9378326 49.7054907,50.3386519 49.2128885,50.3386519 L47.175342,50.3386519 C46.6822193,50.3386519 46.2822565,49.9370487 46.2822565,49.4416423 L46.2822565,48.7902455 C46.2822565,48.2953616 46.6816989,47.894281 47.1743011,47.894281 L49.2136691,47.894281 C49.7060112,47.894281 50.1049331,48.294839 50.1049331,48.7892003 L50.1049331,49.4429487 Z" id="Fill-66" fill="#1E193D"></path>
                            <path d="M45.3022305,49.4429487 C45.3022305,49.9378326 44.9027881,50.3386519 44.4099257,50.3386519 L42.3726394,50.3386519 C41.8795167,50.3386519 41.4795539,49.9370487 41.4795539,49.4416423 L41.4795539,48.7902455 C41.4795539,48.2953616 41.8787361,47.894281 42.3713383,47.894281 L44.4109665,47.894281 C44.9033086,47.894281 45.3022305,48.294839 45.3022305,48.7892003 L45.3022305,49.4429487 Z" id="Fill-68" fill="#1E193D"></path>
                            <path d="M40.4992937,49.4429487 C40.4992937,49.9378326 40.0998513,50.3386519 39.6072491,50.3386519 L37.5699628,50.3386519 C37.0765799,50.3386519 36.6766171,49.9370487 36.6766171,49.4416423 L36.6766171,48.7902455 C36.6766171,48.2953616 37.0757993,47.894281 37.5686617,47.894281 L39.6080297,47.894281 C40.1003717,47.894281 40.4992937,48.294839 40.4992937,48.7892003 L40.4992937,49.4429487 Z" id="Fill-70" fill="#1E193D"></path>
                            <path d="M35.696461,49.4429487 C35.696461,49.9378326 35.2970186,50.3386519 34.8044164,50.3386519 L32.7671301,50.3386519 C32.2737472,50.3386519 31.8737844,49.9370487 31.8737844,49.4416423 L31.8737844,48.7902455 C31.8737844,48.2953616 32.2732268,47.894281 32.765829,47.894281 L34.805197,47.894281 C35.297539,47.894281 35.696461,48.294839 35.696461,48.7892003 L35.696461,49.4429487 Z" id="Fill-72" fill="#1E193D"></path>
                            <path d="M30.8936543,49.4429487 C30.8936543,49.9378326 30.4942119,50.3386519 30.0016097,50.3386519 L27.9643234,50.3386519 C27.4706803,50.3386519 27.0709777,49.9370487 27.0709777,49.4416423 L27.0709777,48.7902455 C27.0709777,48.2953616 27.4701599,47.894281 27.9630223,47.894281 L30.0023903,47.894281 C30.4947323,47.894281 30.8936543,48.294839 30.8936543,48.7892003 L30.8936543,49.4429487 Z" id="Fill-74" fill="#1E193D"></path>
                            <path d="M66.8730558,49.4429487 C66.8730558,49.9378326 66.4736134,50.3386519 65.9807509,50.3386519 L61.5840223,50.3386519 C61.0906394,50.3386519 60.6906766,49.9370487 60.6906766,49.4416423 L60.6906766,48.7902455 C60.6906766,48.2953616 61.0898587,47.894281 61.5827212,47.894281 L65.9817918,47.894281 C66.4741338,47.894281 66.8730558,48.294839 66.8730558,48.7892003 L66.8730558,49.4429487 Z" id="Fill-76" fill="#1E193D"></path>
                            <path d="M59.7105465,49.4429487 C59.7105465,49.9378326 59.3113643,50.3386519 58.8185019,50.3386519 L56.7809554,50.3386519 C56.2878327,50.3386519 55.8878699,49.9370487 55.8878699,49.4416423 L55.8878699,48.7902455 C55.8878699,48.2953616 56.2873123,47.894281 56.7799145,47.894281 L58.8192825,47.894281 C59.3116245,47.894281 59.7105465,48.294839 59.7105465,48.7892003 L59.7105465,49.4429487 Z" id="Fill-78" fill="#1E193D"></path>
                            <path d="M54.9078699,49.4429487 C54.9078699,49.9378326 54.5084275,50.3386519 54.0155651,50.3386519 L51.9782788,50.3386519 C51.4851561,50.3386519 51.0851933,49.9370487 51.0851933,49.4416423 L51.0851933,48.7902455 C51.0851933,48.2953616 51.4846357,47.894281 51.9769777,47.894281 L54.0166059,47.894281 C54.5086877,47.894281 54.9078699,48.294839 54.9078699,48.7892003 L54.9078699,49.4429487 Z" id="Fill-80" fill="#1E193D"></path>
                            <path d="M26.0908476,49.4429487 C26.0908476,49.9378326 25.6914052,50.3386519 25.198803,50.3386519 L23.1615167,50.3386519 C22.6681338,50.3386519 22.268171,49.9370487 22.268171,49.4416423 L22.268171,48.7902455 C22.268171,48.2953616 22.6673532,47.894281 23.1602156,47.894281 L25.1995836,47.894281 C25.6919257,47.894281 26.0908476,48.294839 26.0908476,48.7892003 L26.0908476,49.4429487 Z" id="Fill-82" fill="#1E193D"></path>
                            <path d="M21.2880149,49.4429487 C21.2880149,49.9378326 20.8885725,50.3386519 20.3959703,50.3386519 L18.358684,50.3386519 C17.8650409,50.3386519 17.4650781,49.9370487 17.4650781,49.4416423 L17.4650781,48.7902455 C17.4650781,48.2953616 17.8647807,47.894281 18.3573829,47.894281 L20.3967509,47.894281 C20.8890929,47.894281 21.2880149,48.294839 21.2880149,48.7892003 L21.2880149,49.4429487 Z" id="Fill-84" fill="#1E193D"></path>
                            <path d="M16.4852082,49.4429487 C16.4852082,49.9378326 16.0857658,50.3386519 15.5931636,50.3386519 L13.5558773,50.3386519 C13.0622342,50.3386519 12.6625316,49.9370487 12.6625316,49.4416423 L12.6625316,48.7902455 C12.6625316,48.2953616 13.0617138,47.894281 13.5545762,47.894281 L15.5939442,47.894281 C16.0862862,47.894281 16.4852082,48.294839 16.4852082,48.7892003 L16.4852082,49.4429487 Z" id="Fill-86" fill="#1E193D"></path>
                            <path d="M11.6823755,49.4429487 C11.6823755,49.9378326 11.2829331,50.3386519 10.7903309,50.3386519 L8.75304461,50.3386519 C8.25966171,50.3386519 7.85969888,49.9370487 7.85969888,49.4416423 L7.85969888,48.7902455 C7.85969888,48.2953616 8.25888104,47.894281 8.75174349,47.894281 L10.7911115,47.894281 C11.2834535,47.894281 11.6823755,48.294839 11.6823755,48.7892003 L11.6823755,49.4429487 Z" id="Fill-88" fill="#1E193D"></path>
                            <path d="M6.87956877,49.4429487 C6.87956877,49.9378326 6.48012639,50.3386519 5.98752416,50.3386519 L3.9499777,50.3386519 C3.4565948,50.3386519 3.05689219,49.9370487 3.05689219,49.4416423 L3.05689219,48.7902455 C3.05689219,48.2953616 3.45607435,47.894281 3.9489368,47.894281 L5.98830483,47.894281 C6.48038662,47.894281 6.87956877,48.294839 6.87956877,48.7892003 L6.87956877,49.4429487 Z" id="Fill-90" fill="#1E193D"></path>
                            <path d="M15.7657695,55.4771352 C15.7657695,54.9822513 16.1652119,54.5814319 16.6578141,54.5814319 L18.6951004,54.5814319 C19.1884833,54.5814319 19.5884461,54.9830352 19.5884461,55.4784416 L19.5884461,56.1298384 C19.5884461,56.6247223 19.1890037,57.0258029 18.6964015,57.0258029 L16.6567732,57.0258029 C16.1646914,57.0258029 15.7657695,56.6252448 15.7657695,56.1308835 L15.7657695,55.4771352 Z" id="Fill-92" fill="#1E193D"></path>
                            <path d="M3.05676208,55.4771352 C3.05676208,54.9822513 3.45620446,54.5814319 3.94880669,54.5814319 L9.07077695,54.5814319 C9.56415985,54.5814319 9.96412268,54.9830352 9.96412268,55.4784416 L9.96412268,56.1298384 C9.96412268,56.6247223 9.5646803,57.0258029 9.07207807,57.0258029 L3.9477658,57.0258029 C3.45568401,57.0258029 3.05676208,56.6252448 3.05676208,56.1308835 L3.05676208,55.4771352 Z" id="Fill-94" fill="#1E193D"></path>
                            <path d="M20.5686022,55.4771352 C20.5686022,54.9822513 20.9680446,54.5814319 21.4606468,54.5814319 L23.4979331,54.5814319 C23.991316,54.5814319 24.3912788,54.9830352 24.3912788,55.4784416 L24.3912788,56.1298384 C24.3912788,56.6247223 23.9918364,57.0258029 23.4992342,57.0258029 L21.4598662,57.0258029 C20.9675242,57.0258029 20.5686022,56.6252448 20.5686022,56.1308835 L20.5686022,55.4771352 Z" id="Fill-96" fill="#1E193D"></path>
                            <path d="M25.3712788,55.4771352 C25.3712788,54.9822513 25.7707212,54.5814319 26.2633234,54.5814319 L28.3008699,54.5814319 C28.7942528,54.5814319 29.1942156,54.9830352 29.1942156,55.4784416 L29.1942156,56.1298384 C29.1942156,56.6247223 28.7947732,57.0258029 28.3019108,57.0258029 L26.2625428,57.0258029 C25.770461,57.0258029 25.3712788,56.6252448 25.3712788,56.1308835 L25.3712788,55.4771352 Z" id="Fill-98" fill="#1E193D"></path>
                            <path d="M30.1742156,55.4771352 C30.1742156,54.9822513 30.573658,54.5814319 31.0662602,54.5814319 L33.1035465,54.5814319 C33.5969294,54.5814319 33.9968922,54.9830352 33.9968922,55.4784416 L33.9968922,56.1298384 C33.9968922,56.6247223 33.5974498,57.0258029 33.1048476,57.0258029 L31.0652193,57.0258029 C30.5731375,57.0258029 30.1742156,56.6252448 30.1742156,56.1308835 L30.1742156,55.4771352 Z" id="Fill-100" fill="#1E193D"></path>
                            <path d="M34.9770483,55.4771352 C34.9770483,54.9822513 35.3764907,54.5814319 35.8690929,54.5814319 L37.9063792,54.5814319 C38.4000223,54.5814319 38.7997249,54.9830352 38.7997249,55.4784416 L38.7997249,56.1298384 C38.7997249,56.6247223 38.4005428,57.0258029 37.9076803,57.0258029 L35.8683123,57.0258029 C35.3759703,57.0258029 34.9770483,56.6252448 34.9770483,56.1308835 L34.9770483,55.4771352 Z" id="Fill-102" fill="#1E193D"></path>
                            <path d="M39.779855,55.4771352 C39.779855,54.9822513 40.1792974,54.5814319 40.6718996,54.5814319 L42.7091859,54.5814319 C43.2025688,54.5814319 43.6025316,54.9830352 43.6025316,55.4784416 L43.6025316,56.1298384 C43.6025316,56.6247223 43.2030892,57.0258029 42.710487,57.0258029 L40.671119,57.0258029 C40.178777,57.0258029 39.779855,56.6252448 39.779855,56.1308835 L39.779855,55.4771352 Z" id="Fill-104" fill="#1E193D"></path>
                            <path d="M44.5825576,55.4771352 C44.5825576,54.9822513 44.982,54.5814319 45.4748625,54.5814319 L47.5121487,54.5814319 C48.0055316,54.5814319 48.4054944,54.9830352 48.4054944,55.4784416 L48.4054944,56.1298384 C48.4054944,56.6247223 48.006052,57.0258029 47.5134498,57.0258029 L45.4738216,57.0258029 C44.9817398,57.0258029 44.5825576,56.6252448 44.5825576,56.1308835 L44.5825576,55.4771352 Z" id="Fill-106" fill="#1E193D"></path>
                            <path d="M49.3854944,55.4771352 C49.3854944,54.9822513 49.7849368,54.5814319 50.277539,54.5814319 L52.3150855,54.5814319 C52.8082082,54.5814319 53.208171,54.9830352 53.208171,55.4784416 L53.208171,56.1298384 C53.208171,56.6247223 52.8087286,57.0258029 52.3161264,57.0258029 L50.2767584,57.0258029 C49.7844164,57.0258029 49.3854944,56.6252448 49.3854944,56.1308835 L49.3854944,55.4771352 Z" id="Fill-108" fill="#1E193D"></path>
                            <path d="M54.188197,55.4771352 C54.188197,54.9822513 54.5876394,54.5814319 55.0805019,54.5814319 L57.1177881,54.5814319 C57.611171,54.5814319 58.0111338,54.9830352 58.0111338,55.4784416 L58.0111338,56.1298384 C58.0111338,56.6247223 57.6116914,57.0258029 57.1190892,57.0258029 L55.0797212,57.0258029 C54.587119,57.0258029 54.188197,56.6252448 54.188197,56.1308835 L54.188197,55.4771352 Z" id="Fill-110" fill="#1E193D"></path>
                            <path d="M58.9911338,55.4771352 C58.9911338,54.9822513 59.3905762,54.5814319 59.8831784,54.5814319 L61.9207249,54.5814319 C62.4138476,54.5814319 62.8138104,54.9830352 62.8138104,55.4784416 L62.8138104,56.1298384 C62.8138104,56.6247223 62.414368,57.0258029 61.9217658,57.0258029 L59.8823978,57.0258029 C59.3900558,57.0258029 58.9911338,56.6252448 58.9911338,56.1308835 L58.9911338,55.4771352 Z" id="Fill-112" fill="#1E193D"></path>
                            <path d="M65.978539,51.3125594 L62.2940409,51.3125594 C61.8011784,51.3125594 61.4019963,51.71364 61.4019963,52.2085239 L61.4019963,52.8622723 C61.4019963,53.3563723 61.8009182,53.7569303 62.2932602,53.7569303 L62.6076097,53.7569303 C63.1972751,53.7569303 63.6747844,54.2366594 63.6747844,54.8287432 L63.6747844,56.1307529 C63.6747844,56.6251142 64.0739665,57.0256723 64.5660483,57.0256723 L65.9798401,57.0256723 C66.4724424,57.0256723 66.872145,56.6245916 66.872145,56.129969 L66.872145,52.2098303 C66.872145,51.7141626 66.4719219,51.3125594 65.978539,51.3125594" id="Fill-114" fill="#1E193D"></path>
                            <mask id="mask-13" fill="white">
                                <use xlink:href="#path-12"></use>
                            </mask>
                            <g id="Clip-127"></g>
                            <polygon id="Fill-128" fill="#238BA6" mask="url(#mask-13)" points="4.00951673 42.1466516 65.980855 42.1466516 65.980855 3.99173226 4.00951673 3.99173226"></polygon>
                            <polygon id="Fill-129" fill="#474747" mask="url(#mask-13)" points="20.5126803 45.9014981 14.1101524 45.9014981 36.3862862 0.261133548 42.7882937 0.261133548"></polygon>
                            <path d="M1.66352788,45.9014981 C1.66352788,45.9001916 -7.80669147e-05,45.9001916 -7.80669147e-05,45.9001916 L0.000962825279,31.0366916 L13.3405167,0.261133548 L23.9407026,0.261133548 L1.66352788,45.9014981 Z" id="Fill-130" fill="#474747" mask="url(#mask-13)"></path>
                            <polygon id="Fill-131" fill="#474747" mask="url(#mask-13)" points="43.7055799 45.9014981 24.666881 45.9014981 46.9422342 0.261133548 65.9809331 0.261133548"></polygon>
                            <path d="M3.05676208,46.855051 L66.8720409,46.855051" id="Stroke-132" stroke="#BBBDBF" stroke-width="0.5" mask="url(#mask-13)"></path>
                            <polygon id="Fill-134" fill="#EAE8E1" mask="url(#mask-13)" points="4.00951673 42.1466516 65.980855 42.1466516 65.980855 3.99173226 4.00951673 3.99173226"></polygon>
                            <polygon id="Fill-135" fill="#F7F3E8" mask="url(#mask-13)" points="4.00951673 8.8371 65.980855 8.8371 65.980855 3.99173226 4.00951673 3.99173226"></polygon>
                            <path d="M10.7004498,7.89627194 L8.04617472,7.89627194 C7.51584015,7.89627194 7.08595167,7.46462032 7.08595167,6.93211065 L7.08595167,5.89713968 C7.08595167,5.36463 7.51584015,4.9327171 8.04617472,4.9327171 L10.7004498,4.9327171 C11.2307844,4.9327171 11.6606729,5.36463 11.6606729,5.89713968 L11.6606729,6.93211065 C11.6606729,7.46462032 11.2307844,7.89627194 10.7004498,7.89627194" id="Fill-136" fill="#1998ED" mask="url(#mask-13)"></path>
                            <path d="M38.3326245,7.42179484 L16.1499108,7.42179484 C15.8196877,7.42179484 15.5519182,7.1529271 15.5519182,6.82134968 L15.5519182,6.00769161 C15.5519182,5.67611419 15.8196877,5.40750774 16.1499108,5.40750774 L38.3326245,5.40750774 L38.3326245,7.42179484 Z" id="Fill-137" fill="#EAE8E1" mask="url(#mask-13)"></path>
                            <path d="M41.3521227,7.42179484 L38.3324944,7.42179484 L38.3324944,5.40750774 L41.3521227,5.40750774 C41.6823457,5.40750774 41.9501152,5.67611419 41.9501152,6.00769161 L41.9501152,6.82134968 C41.9501152,7.1529271 41.6823457,7.42179484 41.3521227,7.42179484" id="Fill-138" fill="#DDDDDA" mask="url(#mask-13)"></path>
                            <path d="M64.2896134,6.41452065 C64.2896134,5.59615935 63.6289071,4.93274323 62.8138885,4.93274323 C61.9988699,4.93274323 61.3381636,5.59615935 61.3381636,6.41452065 C61.3381636,7.23288194 61.9988699,7.89629806 62.8138885,7.89629806 C63.6289071,7.89629806 64.2896134,7.23288194 64.2896134,6.41452065" id="Fill-139" fill="#FFDE38" mask="url(#mask-13)"></path>
                            <polygon id="Stroke-140" stroke="#DDDDDA" stroke-width="0.5" mask="url(#mask-13)" points="59.3723086 6.41452065 58.3082565 5.34610452 57.2439442 6.41452065 58.3082565 7.48293677"></polygon>
                            <polygon id="Stroke-141" stroke="#DDDDDA" stroke-width="0.5" mask="url(#mask-13)" points="55.8361896 6.41452065 54.7721375 5.34610452 53.7078253 6.41452065 54.7721375 7.48293677"></polygon>
                            <polygon id="Fill-142" fill="#F7F3E8" mask="url(#mask-13)" points="49.0390335 42.1466516 64.2894052 42.1466516 64.2894052 10.6457516 49.0390335 10.6457516"></polygon>
                            <polygon id="Fill-143" fill="#F7F3E8" mask="url(#mask-13)" points="5.70070632 42.1469129 47.3478439 42.1469129 47.3478439 10.6460129 5.70070632 10.6460129"></polygon>
                            <polygon id="Fill-144" fill="#F7C044" mask="url(#mask-13)" points="36.75 20.4614634 46.0221375 20.4614634 46.0221375 12.326087 36.75 12.326087"></polygon>
                            <polygon id="Fill-144-Copy" fill="#F79344" mask="url(#mask-13)" points="36.75 31.9071156 46.0221375 31.9071156 46.0221375 23.7717391 36.75 23.7717391"></polygon>
                            <polygon id="Fill-144-Copy-2" fill="#1998ED" mask="url(#mask-13)" points="36.75 41.5918982 46.0221375 41.5918982 46.0221375 36.0978261 36.75 36.0978261"></polygon>
                            <path d="M8.38384015,31.9796361 L7.57402602,31.5103587 C7.36636803,31.3899039 7.10666543,31.5404071 7.10666543,31.7813168 L7.10666543,32.7201329 C7.10666543,32.9610426 7.36636803,33.1115458 7.57402602,32.991091 L8.38384015,32.5215523 C8.59149814,32.4010974 8.59149814,32.100091 8.38384015,31.9796361" id="Fill-153" fill="#F7F3E8" mask="url(#mask-13)"></path>
                            <path d="M10.2741524,32.8969481 C10.4040037,32.9721997 10.577052,32.9316997 10.6452305,32.7976577 C10.7287621,32.6330448 10.7769033,32.4480513 10.7769033,32.2505158 C10.7769033,32.0639545 10.7339665,31.8883674 10.6587621,31.7310706 C10.5885019,31.5844868 10.4131115,31.5238674 10.2728513,31.6051287 L9.56686617,32.0143094 C9.38575093,32.1193481 9.38575093,32.3819448 9.56686617,32.4869835 L10.2741524,32.8969481 Z" id="Stroke-155" stroke="#F7F3E8" stroke-width="0.5" mask="url(#mask-13)"></path>
                            <path d="M45.8994424,22.1415147 L7,22.1415147" id="Stroke-158" stroke="#DDDDDA" stroke-width="0.5" mask="url(#mask-13)"></path>
                            <path d="M45.8994424,33.5871669 L7,33.5871669" id="Stroke-158-Copy" stroke="#DDDDDA" stroke-width="0.5" mask="url(#mask-13)"></path>
                            <polygon id="Fill-160" fill="#DDDDDA" mask="url(#mask-13)" points="7.875 15.5851952 33.032974 15.5851952 33.032974 14.0869565 7.875 14.0869565"></polygon>
                            <polygon id="Fill-160-Copy-6" fill="#DDDDDA" mask="url(#mask-13)" points="50.75 15.5851952 62.7916729 15.5851952 62.7916729 14.0869565 50.75 14.0869565"></polygon>
                            <polygon id="Fill-160-Copy-8" fill="#DDDDDA" mask="url(#mask-13)" points="50.75 23.5091083 62.7916729 23.5091083 62.7916729 22.0108696 50.75 22.0108696"></polygon>
                            <polygon id="Fill-160-Copy-7" fill="#DDDDDA" mask="url(#mask-13)" points="50.75 18.2264996 59.2916729 18.2264996 59.2916729 16.7282609 50.75 16.7282609"></polygon>
                            <polygon id="Fill-160-Copy-9" fill="#DDDDDA" mask="url(#mask-13)" points="50.75 26.1504126 59.2916729 26.1504126 59.2916729 24.6521739 50.75 24.6521739"></polygon>
                            <polygon id="Fill-160-Copy-11" fill="#DDDDDA" mask="url(#mask-13)" points="50.75 31.4330213 62.7916729 31.4330213 62.7916729 29.9347826 50.75 29.9347826"></polygon>
                            <polygon id="Fill-160-Copy-10" fill="#DDDDDA" mask="url(#mask-13)" points="50.75 34.0743257 59.2916729 34.0743257 59.2916729 32.576087 50.75 32.576087"></polygon>
                            <polygon id="Fill-160-Copy-13" fill="#DDDDDA" mask="url(#mask-13)" points="50.75 39.3569344 62.7916729 39.3569344 62.7916729 37.8586957 50.75 37.8586957"></polygon>
                            <polygon id="Fill-160-Copy-12" fill="#DDDDDA" mask="url(#mask-13)" points="50.75 41.9982387 59.2916729 41.9982387 59.2916729 40.5 50.75 40.5"></polygon>
                            <polygon id="Fill-160-Copy-2" fill="#DDDDDA" mask="url(#mask-13)" points="7.875 27.0308474 33.032974 27.0308474 33.032974 25.5326087 7.875 25.5326087"></polygon>
                            <polygon id="Fill-160-Copy-4" fill="#DDDDDA" mask="url(#mask-13)" points="7.875 39.3569344 33.032974 39.3569344 33.032974 37.8586957 7.875 37.8586957"></polygon>
                            <polygon id="Fill-160-Copy" fill="#DDDDDA" mask="url(#mask-13)" points="7.875 18.2264996 23.407974 18.2264996 23.407974 16.7282609 7.875 16.7282609"></polygon>
                            <polygon id="Fill-160-Copy-3" fill="#DDDDDA" mask="url(#mask-13)" points="7.875 29.6721518 23.407974 29.6721518 23.407974 28.173913 7.875 28.173913"></polygon>
                            <polygon id="Fill-160-Copy-5" fill="#DDDDDA" mask="url(#mask-13)" points="7.875 41.9982387 23.407974 41.9982387 23.407974 40.5 7.875 40.5"></polygon>
                        </g>
                    </g>
                </g>
            </g>
        </g>
    </g>
</svg>