<svg xmlns="http://www.w3.org/2000/svg" viewBox="0 0 62.74 76.45"><defs><style>.cls-1{fill:#1ba89e;}</style></defs><title>Normal</title><g id="Layer_2" data-name="Layer 2"><g id="Layer_1-2" data-name="Layer 1"><circle class="cls-1" cx="41.8" cy="7.5" r="7.5"/><path class="cls-1" d="M59.79,27.09c-7.92,1-9.5-.43-16.13-6.43l-.15-.14a5.76,5.76,0,0,0-6.73-2.17c-8.2,1.24-13.25,4.5-21.09,13.39a2.63,2.63,0,0,0,3.94,3.48c5.44-6.17,9-9,13-10.51L29.73,42.14a5.93,5.93,0,0,0,4.92,6.74C39,51.48,46.72,59.35,47.84,72.67a4.13,4.13,0,0,0,4.11,3.78h.35A4.13,4.13,0,0,0,56.07,72c-1.21-14.44-8.76-23.87-14.7-28.48L44,27.92C47.65,31,50.73,32.61,56,32.61a35.72,35.72,0,0,0,4.43-.31,2.63,2.63,0,0,0-.66-5.21Z"/><path class="cls-1" d="M29.52,47.38a7.33,7.33,0,0,1-.82-1.53c-6.49,7.43-10.78,8.28-19.28,7.07a4.13,4.13,0,1,0-1.16,8.17,46.23,46.23,0,0,0,6.48.51c8.19,0,13.84-3,20.38-10.56-.34-.25-.69-.53-1-.72A7.31,7.31,0,0,1,29.52,47.38Z"/><path class="cls-1" d="M20,20.24A39.19,39.19,0,0,1,12.15,19C7.56,18,2.81,17,.24,19a.15.15,0,1,1-.18-.24c2.68-2.07,7.5-1,12.16,0s9.32,2,11.93.1a.15.15,0,0,1,.18.24A7.1,7.1,0,0,1,20,20.24Z"/><path class="cls-1" d="M16,27a11.52,11.52,0,0,1-3.7-.82c-2-.69-4-1.34-6,.23a.15.15,0,1,1-.18-.24c2.17-1.67,4.16-1,6.27-.28,1.82.62,3.7,1.26,5.8.34a.15.15,0,1,1,.12.28A5.67,5.67,0,0,1,16,27Z"/></g></g></svg>