<svg xmlns="http://www.w3.org/2000/svg" xmlns:xlink="http://www.w3.org/1999/xlink" width="28" height="28" viewBox="0 0 28 28">
    <defs>
        <path id="a" d="M0 0h28v28H0z"/>
    </defs>
    <g fill="none" fill-rule="evenodd">
        <mask id="b" fill="#fff">
            <use xlink:href="#a"/>
        </mask>
        <path fill="#F23864" d="M28 14c0 7.731-6.268 14-14 14C6.269 28 0 21.73 0 14 0 6.268 6.269 0 14 0c7.732 0 14 6.268 14 14" mask="url(#b)"/>
        <path fill="#FFF" fill-rule="nonzero" d="M22.556 7H7.519a.788.788 0 0 0-.778.798v.266H5.444a.788.788 0 0 0-.777.799v9.046c0 1.029.812 1.863 1.814 1.863h15.297c.859 0 1.555-.715 1.555-1.597V7.798A.788.788 0 0 0 22.556 7zM6.48 18.175a.263.263 0 0 1-.259-.266V9.661h.519v8.248a.263.263 0 0 1-.26.266zm7.649-.532H9.204a.394.394 0 0 1-.39-.399v-.266c0-.22.175-.4.39-.4h4.926c.214 0 .389.18.389.4v.266c0 .22-.175.4-.39.4zm6.74 0h-4.926a.394.394 0 0 1-.388-.399v-.266c0-.22.174-.4.388-.4h4.926c.215 0 .39.18.39.4v.266c0 .22-.175.4-.39.4zm-6.74-3.193H9.204a.394.394 0 0 1-.39-.399v-.266c0-.22.175-.399.39-.399h4.926c.214 0 .389.179.389.4v.265c0 .22-.175.4-.39.4zm6.74 0h-4.926a.394.394 0 0 1-.388-.399v-.266c0-.22.174-.399.388-.399h4.926c.215 0 .39.179.39.4v.265c0 .22-.175.4-.39.4zm0-3.193H9.204a.394.394 0 0 1-.39-.399v-1.33c0-.22.175-.4.39-.4H20.87c.215 0 .39.18.39.4v1.33c0 .22-.175.4-.39.4z" mask="url(#b)"/>
    </g>
</svg>
