<?xml version="1.0" encoding="UTF-8" standalone="no"?>
<svg xmlns="http://www.w3.org/2000/svg" height="31px" width="205px" version="1.1" xmlns:xlink="http://www.w3.org/1999/xlink" viewBox="0 0 205 31"><!-- Generator: Sketch 52.6 (67491) - http://www.bohemiancoding.com/sketch -->
 <title>selamat puasa</title>
 <desc>Created with Sketch.</desc>
 <g id="Page-1" fill-rule="evenodd" fill="none">
  <g id="edit-asset" transform="translate(-965 -778)">
   <g id="selamat-puasa" transform="translate(965 778)">
    <path d="m16.248 14.322c0.401 0.219 0.711 0.41 0.93 0.574 0.218 0.165 0.437 0.365 0.656 0.602 0.638 0.902 0.957 1.951 0.957 3.145 0 1.877-0.688 3.386-2.064 4.525-1.468 1.221-3.528 1.832-6.18 1.832-2.2241 0-4.0835-0.542-5.5782-1.627-1.3126-0.948-1.9688-1.969-1.9688-3.062 0-1.659 1.0072-2.489 3.0215-2.489 0.7383 0 1.5084 0.324 2.3105 0.971 0.8021 0.638 1.941 0.957 3.418 0.957 1.167 0 1.75-0.369 1.75-1.107 0-0.392-0.87-0.752-2.611-1.081-0.246-0.072-0.789-0.223-1.6273-0.451-0.7747-0.2-1.3991-0.378-1.873-0.533-1.6042-0.519-2.7663-1.212-3.4864-2.078-0.6289-0.802-0.9433-1.745-0.9433-2.83 0-1.7501 0.6881-3.1537 2.0644-4.211 1.4675-1.1393 3.5274-1.709 6.1796-1.709 2.224 0 4.083 0.5059 5.578 1.5176 1.313 0.8841 1.969 1.832 1.969 2.8434 0 1.55-1.007 2.325-3.021 2.325-0.739 0-1.509-0.301-2.311-0.903-0.802-0.601-1.941-0.902-3.418-0.902-1.1667 0.027-1.75 0.387-1.75 1.08 0 0.365 0.8704 0.684 2.611 0.957 0.246 0.073 0.789 0.214 1.627 0.424 0.775 0.191 1.399 0.355 1.873 0.492 0.857 0.264 1.486 0.51 1.887 0.738zm18.252-8.572c1.167 0 1.75 0.875 1.75 2.625s-0.583 2.625-1.75 2.625h-7c-0.829-0.027-1.363 0.556-1.6 1.75h6.85c1.167 0 1.75 0.875 1.75 2.625s-0.583 2.625-1.75 2.625h-6.85c0.237 1.167 0.771 1.75 1.6 1.75h7c1.167 0 1.75 0.875 1.75 2.625s-0.583 2.625-1.75 2.625h-7c-4.667 0.027-7-2.876-7-8.709v-1.75c0-5.8607 2.333-8.791 7-8.791h7zm8.75 17.5c0 1.167-0.875 1.75-2.625 1.75-1.732 0-2.607-0.57-2.625-1.709v-19.332c0.018-1.1393 0.893-1.709 2.625-1.709 1.75 0 2.625 0.5833 2.625 1.75v19.25zm7-8.75h3.5c0-2.333-0.583-3.5-1.75-3.5s-1.75 1.167-1.75 3.5zm8.75 8.75c0 1.167-0.875 1.75-2.625 1.75s-2.625-0.583-2.625-1.75v-3.5h-3.5v1.75c0 1.167-0.875 1.75-2.625 1.75-1.732 0-2.607-0.57-2.625-1.709v-7.041c0-5.8334 2.333-8.75 7-8.75s7 2.9166 7 8.75v8.75zm20.125 0.875c-0.583-1.75-0.875-4.958-0.875-9.625 0-2.333-0.583-3.5-1.75-3.5s-1.75 1.167-1.75 3.5v8.75c0 1.167-0.875 1.75-2.625 1.75s-2.625-0.583-2.625-1.75v-8.75c0-2.333-0.583-3.5-1.75-3.5s-1.75 1.167-1.75 3.5v7c0 1.167-0.875 1.75-2.625 1.75-1.732 0-2.607-0.57-2.625-1.709v-7.041c0-5.8334 2.333-8.75 7-8.75 1.805 0 3.263 0.4375 4.375 1.3125 1.112-0.875 2.57-1.3125 4.375-1.3125 4.667 0 7 2.9166 7 8.75 0 4.667 0.292 7.583 0.875 8.75s1.568 1.992 2.953 2.475c1.021 0.319 1.49 1.061 1.408 2.228s-0.706 1.923-1.873 2.27c-2.041 0.182-3.746-0.392-5.113-1.723-1.167-1.167-2.042-2.625-2.625-4.375zm11.375-9.625h3.5c0-2.333-0.583-3.5-1.75-3.5s-1.75 1.167-1.75 3.5zm8.75 8.75c0 1.167-0.875 1.75-2.625 1.75s-2.625-0.583-2.625-1.75v-3.5h-3.5v1.75c0 1.167-0.875 1.75-2.625 1.75-1.732 0-2.607-0.57-2.625-1.709v-7.041c0-5.8334 2.333-8.75 7-8.75s7 2.9166 7 8.75v8.75zm12.25-12.25v14c0 1.167-0.87 1.75-2.62 1.75-1.74 0-2.61-0.57-2.63-1.709v-14.041h-3.5c-1.17 0-1.75-0.875-1.75-2.625 0-1.7318 0.57-2.6068 1.71-2.625h12.33c1.14 0.0182 1.71 0.8932 1.71 2.625 0 1.75-0.58 2.625-1.75 2.625h-3.5zm19.2 8.75v1.75c0 1.167-0.88 1.75-2.63 1.75-1.73 0-2.61-0.57-2.62-1.709v-14.082c0.01-1.1302 0.88-1.6999 2.59-1.709h2.66c5.83 0 8.75 2.3333 8.75 7 0 4.667-2.92 7-8.75 7zm0-8.75v3.5c2.33 0 3.5-0.583 3.5-1.75s-1.17-1.75-3.5-1.75zm19.25 5.25v-7c0-1.1667 0.87-1.75 2.62-1.75s2.63 0.5833 2.63 1.75v7c0 5.833-2.34 8.75-7 8.75-4.67 0-7-2.917-7-8.75v-8.791c0.01-1.1393 0.89-1.709 2.62-1.709 1.75 0 2.63 0.5833 2.63 1.75v8.75c0 2.333 0.58 3.5 1.75 3.5 1.16 0 1.75-1.167 1.75-3.5zm12.25-1.75h3.5c0-2.333-0.59-3.5-1.75-3.5-1.17 0-1.75 1.167-1.75 3.5zm8.75 8.75c0 1.167-0.88 1.75-2.63 1.75s-2.62-0.583-2.62-1.75v-3.5h-3.5v1.75c0 1.167-0.88 1.75-2.63 1.75-1.73 0-2.61-0.57-2.62-1.709v-7.041c0-5.8334 2.33-8.75 7-8.75 4.66 0 7 2.9166 7 8.75v8.75zm14.99-8.928c0.4 0.219 0.71 0.41 0.93 0.574 0.22 0.165 0.44 0.365 0.66 0.602 0.64 0.902 0.96 1.951 0.96 3.145 0 1.877-0.69 3.386-2.07 4.525-1.47 1.221-3.53 1.832-6.18 1.832-2.22 0-4.08-0.542-5.58-1.627-1.31-0.948-1.96-1.969-1.96-3.062 0-1.659 1-2.489 3.02-2.489 0.74 0 1.51 0.324 2.31 0.971 0.8 0.638 1.94 0.957 3.42 0.957 1.16 0 1.75-0.369 1.75-1.107 0-0.392-0.88-0.752-2.62-1.081-0.24-0.072-0.78-0.223-1.62-0.451-0.78-0.2-1.4-0.378-1.88-0.533-1.6-0.519-2.76-1.212-3.48-2.078-0.63-0.802-0.95-1.745-0.95-2.83 0-1.7501 0.69-3.1537 2.07-4.211 1.47-1.1393 3.53-1.709 6.18-1.709 2.22 0 4.08 0.5059 5.58 1.5176 1.31 0.8841 1.97 1.832 1.97 2.8434 0 1.55-1.01 2.325-3.03 2.325-0.73 0-1.5-0.301-2.31-0.903-0.8-0.601-1.94-0.902-3.41-0.902-1.17 0.027-1.75 0.387-1.75 1.08 0 0.365 0.87 0.684 2.61 0.957 0.24 0.073 0.79 0.214 1.62 0.424 0.78 0.191 1.4 0.355 1.88 0.492 0.85 0.264 1.48 0.51 1.88 0.738zm9.51 0.178h3.5c0-2.333-0.59-3.5-1.75-3.5-1.17 0-1.75 1.167-1.75 3.5zm8.75 8.75c0 1.167-0.88 1.75-2.63 1.75s-2.62-0.583-2.62-1.75v-3.5h-3.5v1.75c0 1.167-0.88 1.75-2.63 1.75-1.73 0-2.61-0.57-2.62-1.709v-7.041c0-5.8334 2.33-8.75 7-8.75 4.66 0 7 2.9166 7 8.75v8.75z" fill="#4F52A3"/>
    <path d="m14.248 12.322c0.401 0.219 0.711 0.41 0.93 0.574 0.218 0.165 0.437 0.365 0.656 0.602 0.638 0.902 0.957 1.951 0.957 3.145 0 1.877-0.688 3.386-2.064 4.525-1.468 1.221-3.528 1.832-6.1801 1.832-2.224 0-4.0834-0.542-5.5781-1.627-1.3126-0.948-1.9688-1.969-1.9688-3.062 0-1.659 1.0072-2.489 3.0215-2.489 0.7383 0 1.5084 0.324 2.3105 0.971 0.8021 0.638 1.9414 0.957 3.418 0.957 1.167 0 1.75-0.369 1.75-1.107 0-0.392-0.87-0.752-2.6113-1.081-0.2461-0.072-0.7884-0.223-1.627-0.451-0.7747-0.2-1.3991-0.378-1.873-0.533-1.6042-0.519-2.7663-1.212-3.4864-2.078-0.6289-0.802-0.94332-1.745-0.94332-2.8301 0-1.75 0.68812-3.1536 2.0644-4.2109 1.4675-1.1393 3.5274-1.709 6.1797-1.709 2.2239 0 4.0829 0.5059 5.5779 1.5176 1.313 0.8841 1.969 1.832 1.969 2.8437 0 1.5495-1.007 2.3247-3.021 2.3247-0.739 0-1.509-0.301-2.311-0.9028-0.802-0.6016-1.9414-0.9023-3.418-0.9023-1.1667 0.0273-1.75 0.3873-1.75 1.08 0 0.3651 0.8704 0.6841 2.6113 0.9571 0.2461 0.073 0.7884 0.214 1.6267 0.424 0.775 0.191 1.399 0.355 1.873 0.492 0.857 0.264 1.486 0.51 1.887 0.738zm18.252-8.572c1.167 0 1.75 0.875 1.75 2.625s-0.583 2.625-1.75 2.625h-7c-0.829-0.0273-1.363 0.556-1.6 1.75h6.85c1.167 0 1.75 0.875 1.75 2.625s-0.583 2.625-1.75 2.625h-6.85c0.237 1.167 0.771 1.75 1.6 1.75h7c1.167 0 1.75 0.875 1.75 2.625s-0.583 2.625-1.75 2.625h-7c-4.667 0.027-7-2.876-7-8.709v-1.75c0-5.8607 2.333-8.791 7-8.791h7zm8.75 17.5c0 1.167-0.875 1.75-2.625 1.75-1.732 0-2.607-0.57-2.625-1.709v-19.332c0.018-1.1393 0.893-1.709 2.625-1.709 1.75 0 2.625 0.58333 2.625 1.75v19.25zm7-8.75h3.5c0-2.333-0.583-3.5-1.75-3.5s-1.75 1.167-1.75 3.5zm8.75 8.75c0 1.167-0.875 1.75-2.625 1.75s-2.625-0.583-2.625-1.75v-3.5h-3.5v1.75c0 1.167-0.875 1.75-2.625 1.75-1.732 0-2.607-0.57-2.625-1.709v-7.041c0-5.8334 2.333-8.75 7-8.75s7 2.9166 7 8.75v8.75zm20.125 0.875c-0.583-1.75-0.875-4.958-0.875-9.625 0-2.333-0.583-3.5-1.75-3.5s-1.75 1.167-1.75 3.5v8.75c0 1.167-0.875 1.75-2.625 1.75s-2.625-0.583-2.625-1.75v-8.75c0-2.333-0.583-3.5-1.75-3.5s-1.75 1.167-1.75 3.5v7c0 1.167-0.875 1.75-2.625 1.75-1.732 0-2.607-0.57-2.625-1.709v-7.041c0-5.8334 2.333-8.75 7-8.75 1.805 0 3.263 0.4375 4.375 1.3125 1.112-0.875 2.57-1.3125 4.375-1.3125 4.667 0 7 2.9166 7 8.75 0 4.667 0.292 7.583 0.875 8.75s1.568 1.992 2.953 2.475c1.021 0.319 1.49 1.061 1.408 2.228s-0.706 1.923-1.873 2.27c-2.041 0.182-3.746-0.392-5.113-1.723-1.167-1.167-2.042-2.625-2.625-4.375zm11.375-9.625h3.5c0-2.333-0.583-3.5-1.75-3.5s-1.75 1.167-1.75 3.5zm8.75 8.75c0 1.167-0.875 1.75-2.625 1.75s-2.625-0.583-2.625-1.75v-3.5h-3.5v1.75c0 1.167-0.875 1.75-2.625 1.75-1.732 0-2.607-0.57-2.625-1.709v-7.041c0-5.8334 2.333-8.75 7-8.75s7 2.9166 7 8.75v8.75zm12.25-12.25v14c0 1.167-0.87 1.75-2.62 1.75-1.74 0-2.61-0.57-2.63-1.709v-14.041h-3.5c-1.167 0-1.75-0.875-1.75-2.625 0-1.7318 0.57-2.6068 1.71-2.625h12.33c1.14 0.0182 1.71 0.8932 1.71 2.625 0 1.75-0.58 2.625-1.75 2.625h-3.5zm19.2 8.75v1.75c0 1.167-0.88 1.75-2.63 1.75-1.73 0-2.61-0.57-2.62-1.709v-14.082c0.01-1.1302 0.88-1.6999 2.59-1.709h2.66c5.83 0 8.75 2.3333 8.75 7 0 4.667-2.92 7-8.75 7zm0-8.75v3.5c2.33 0 3.5-0.583 3.5-1.75 0-1.1667-1.17-1.75-3.5-1.75zm19.25 5.25v-7c0-1.1667 0.87-1.75 2.62-1.75s2.63 0.5833 2.63 1.75v7c0 5.833-2.34 8.75-7 8.75-4.67 0-7-2.917-7-8.75v-8.791c0.01-1.1393 0.89-1.709 2.62-1.709 1.75 0 2.63 0.5833 2.63 1.75v8.75c0 2.333 0.58 3.5 1.75 3.5 1.16 0 1.75-1.167 1.75-3.5zm12.25-1.75h3.5c0-2.333-0.59-3.5-1.75-3.5-1.17 0-1.75 1.167-1.75 3.5zm8.75 8.75c0 1.167-0.88 1.75-2.63 1.75s-2.62-0.583-2.62-1.75v-3.5h-3.5v1.75c0 1.167-0.88 1.75-2.63 1.75-1.73 0-2.61-0.57-2.62-1.709v-7.041c0-5.8334 2.33-8.75 7-8.75 4.66 0 7 2.9166 7 8.75v8.75zm14.99-8.928c0.4 0.219 0.71 0.41 0.93 0.574 0.22 0.165 0.44 0.365 0.66 0.602 0.64 0.902 0.96 1.951 0.96 3.145 0 1.877-0.69 3.386-2.07 4.525-1.47 1.221-3.53 1.832-6.18 1.832-2.22 0-4.08-0.542-5.58-1.627-1.31-0.948-1.96-1.969-1.96-3.062 0-1.659 1-2.489 3.02-2.489 0.74 0 1.51 0.324 2.31 0.971 0.8 0.638 1.94 0.957 3.42 0.957 1.16 0 1.75-0.369 1.75-1.107 0-0.392-0.88-0.752-2.62-1.081-0.24-0.072-0.78-0.223-1.62-0.451-0.78-0.2-1.4-0.378-1.88-0.533-1.6-0.519-2.76-1.212-3.48-2.078-0.63-0.802-0.95-1.745-0.95-2.8301 0-1.75 0.69-3.1536 2.07-4.2109 1.47-1.1393 3.53-1.709 6.18-1.709 2.22 0 4.08 0.5059 5.58 1.5176 1.31 0.8841 1.97 1.832 1.97 2.8437 0 1.5495-1.01 2.3247-3.03 2.3247-0.73 0-1.5-0.301-2.31-0.9028-0.8-0.6016-1.94-0.9023-3.41-0.9023-1.17 0.0273-1.75 0.3873-1.75 1.08 0 0.3651 0.87 0.6841 2.61 0.9571 0.24 0.073 0.79 0.214 1.62 0.424 0.78 0.191 1.4 0.355 1.88 0.492 0.85 0.264 1.48 0.51 1.88 0.738zm9.51 0.178h3.5c0-2.333-0.59-3.5-1.75-3.5-1.17 0-1.75 1.167-1.75 3.5zm8.75 8.75c0 1.167-0.88 1.75-2.63 1.75s-2.62-0.583-2.62-1.75v-3.5h-3.5v1.75c0 1.167-0.88 1.75-2.63 1.75-1.73 0-2.61-0.57-2.62-1.709v-7.041c0-5.8334 2.33-8.75 7-8.75 4.66 0 7 2.9166 7 8.75v8.75z" fill="#FFD278"/>
   </g>
  </g>
 </g>
</svg>
