<?xml version="1.0" encoding="UTF-8"?>
<svg width="300px" height="130px" viewBox="0 0 300 130" version="1.1" xmlns="http://www.w3.org/2000/svg" xmlns:xlink="http://www.w3.org/1999/xlink">
    <!-- Generator: Sketch 50.2 (55047) - http://www.bohemiancoding.com/sketch -->
    <title>pop up followers</title>
    <desc>Created with Sketch.</desc>
    <defs></defs>
    <g id="WEB" stroke="none" stroke-width="1" fill="none" fill-rule="evenodd">
        <g id="web-profile-1---FOLLOWERS-Copy" transform="translate(-570.000000, -173.000000)">
            <g id="Group-35-Copy-2" transform="translate(520.000000, 163.000000)">
                <g id="Group-35-Copy-3">
                    <g id="Group-39" transform="translate(50.000000, 10.000000)">
                        <g id="Group" transform="translate(154.002848, 81.904305) rotate(-90.000000) translate(-154.002848, -81.904305) translate(75.002848, -53.595695)">
                            <path d="M33.5833041,102 C29.0531672,102 24.6541718,102.882341 20.508754,104.622499 C16.5086589,106.301484 12.9179947,108.703676 9.83631097,111.761911 C6.75462725,114.820286 4.33426712,118.383791 2.64234582,122.35363 C0.888925627,126.467832 0,130.833415 0,135.329287 L0,140.670574 C0,145.166585 0.888925627,149.532168 2.64234582,153.64637 C4.33426712,157.616209 6.75462725,161.179714 9.83631097,164.237949 C12.9179947,167.296324 16.5086589,169.698377 20.508754,171.377501 C24.6541718,173.117659 29.0531672,174 33.5833041,174 L62,174 L62,152.634994 L33.5833041,152.634994 C24.8831779,152.634994 17.6513025,146.278848 16.3535076,138 C17.6513025,129.721152 24.8831779,123.365006 33.5833041,123.365006 L62,123.365006 L62,102 L33.5833041,102" id="Fill-8" fill="#B0E5EF"></path>
                            <polyline id="Fill-9" fill="#B0E5EF" points="75.5505565 107.28949 75.5505565 112.595271 67 112.595271 67 113.819789 79.3568439 117 79.3568439 112.033976 88 112.033976 88 110.809597 75.5505565 107 75.5505565 107.28949"></polyline>
                            <polyline id="Fill-10" fill="#B0E5EF" points="75.5505565 159.289351 75.5505565 164.595132 67 164.595132 67 165.81965 79.3568439 169 79.3568439 164.033976 88 164.033976 88 162.809458 75.5505565 159 75.5505565 159.289351"></polyline>
                            <g id="Group-34" transform="translate(72.000000, 0.000000)">
                                <g id="Group-35" transform="translate(33.000000, 159.000000)">
                                    <path d="M11.5001964,4 C5.1491775,4 0,9.14887257 0,15.5 C0,21.8511274 5.1491775,27 11.5001964,27 C17.8512154,27 23,21.8511274 23,15.5 C23,9.14887257 17.8512154,4 11.5001964,4" id="Fill-12" fill="#B0E5EF" opacity="0.5"></path>
                                    <path d="M25,11.5 C25,17.8511274 19.8512154,23 13.5001964,23 C7.1491775,23 2,17.8511274 2,11.5 C2,5.1469081 7.1491775,0 13.5001964,0 C19.8512154,0 25,5.1469081 25,11.5" id="Fill-45" fill="#F55065"></path>
                                    <path d="M11.8461546,12.5 C11.1328008,12.5 10.5236931,12.207 10.0188315,11.621 C9.51396998,11.035 9.26153921,10.328 9.26153921,9.5 C9.26153921,8.672 9.51396998,7.965 10.0188315,7.379 C10.5236931,6.793 11.1328008,6.5 11.8461546,6.5 C12.5595084,6.5 13.1686161,6.793 13.6734777,7.379 C14.1783392,7.965 14.43077,8.672 14.43077,9.5 C14.43077,10.328 14.1783392,11.035 13.6734777,11.621 C13.1686161,12.207 12.5595084,12.5 11.8461546,12.5 Z M18.3076931,13.5 L20.6769238,13.5 C20.7355084,13.5 20.786052,13.5246667 20.8285546,13.574 C20.8710572,13.6233333 20.8923084,13.682 20.8923084,13.75 L20.8923084,15.25 C20.8923084,15.318 20.8710572,15.3766667 20.8285546,15.426 C20.786052,15.4753333 20.7355084,15.5 20.6769238,15.5 L18.3076931,15.5 L18.3076931,18.25 C18.3076931,18.318 18.2864418,18.3766667 18.2439392,18.426 C18.2014367,18.4753333 18.1508931,18.5 18.0923084,18.5 L16.8000008,18.5 C16.7414161,18.5 16.6908725,18.4753333 16.64837,18.426 C16.6058674,18.3766667 16.5846161,18.318 16.5846161,18.25 L16.5846161,15.5 L14.2153854,15.5 C14.1568008,15.5 14.1062572,15.4753333 14.0637546,15.426 C14.021252,15.3766667 14.0000008,15.318 14.0000008,15.25 L14.0000008,13.75 C14.0000008,13.682 14.021252,13.6233333 14.0637546,13.574 C14.1062572,13.5246667 14.1568008,13.5 14.2153854,13.5 L16.5846161,13.5 L16.5846161,10.75 C16.5846161,10.682 16.6058674,10.6233333 16.64837,10.574 C16.6908725,10.5246667 16.7414161,10.5 16.8000008,10.5 L18.0923084,10.5 C18.1508931,10.5 18.2014367,10.5246667 18.2439392,10.574 C18.2864418,10.6233333 18.3076931,10.682 18.3076931,10.75 L18.3076931,13.5 Z M13.3538469,15.25 C13.3538469,15.5206667 13.4391392,15.755 13.6097238,15.953 C13.7803084,16.151 13.9821956,16.25 14.2153854,16.25 L15.9384623,16.25 L15.9384623,18.109 C15.6334777,18.3696667 15.2498059,18.5 14.7874469,18.5 L8.90486229,18.5 C8.36209306,18.5 7.92672896,18.3203333 7.59876998,17.961 C7.27081101,17.6016667 7.1071187,17.107 7.10769306,16.477 C7.10769306,16.201 7.11544691,15.9313333 7.1309546,15.668 C7.14646229,15.4046667 7.17776486,15.1206667 7.22486229,14.816 C7.27195973,14.5113333 7.33140588,14.2286667 7.40320075,13.968 C7.47499562,13.7073333 7.57148793,13.4533333 7.69267768,13.206 C7.81386742,12.9586667 7.95286229,12.7476667 8.10966229,12.573 C8.26646229,12.3983333 8.45829819,12.259 8.68516998,12.155 C8.91204178,12.051 9.16217511,11.999 9.43556998,11.999 C9.52057511,11.999 9.60816486,12.0433333 9.69833921,12.132 C10.0527187,12.45 10.3993443,12.6883333 10.7382161,12.847 C11.0770879,13.0056667 11.4461136,13.085 11.8452931,13.085 C12.2444725,13.085 12.6134982,13.0056667 12.95237,12.847 C13.2912418,12.6883333 13.6378674,12.45 13.9922469,12.132 C14.0818469,12.0433333 14.1694367,11.999 14.2550161,11.999 C14.8471802,11.999 15.3339495,12.249 15.7153238,12.749 L14.2145238,12.749 C13.9813341,12.749 13.7794469,12.848 13.6088623,13.046 C13.4382777,13.244 13.3529854,13.4783333 13.3529854,13.749 L13.3529854,15.249 L13.3538469,15.25 Z" id="Shape" fill="#FFFFFF" fill-rule="nonzero" transform="translate(14.000000, 12.500000) rotate(-270.000000) translate(-14.000000, -12.500000) "></path>
                                </g>
                                <g id="Group-35-Copy" transform="translate(55.000000, 244.000000)">
                                    <path d="M11.5001964,4 C5.1491775,4 0,9.14887257 0,15.5 C0,21.8511274 5.1491775,27 11.5001964,27 C17.8512154,27 23,21.8511274 23,15.5 C23,9.14887257 17.8512154,4 11.5001964,4" id="Fill-12" fill="#B0E5EF" opacity="0.5"></path>
                                    <path d="M25,11.5 C25,17.8511274 19.8512154,23 13.5001964,23 C7.1491775,23 2,17.8511274 2,11.5 C2,5.1469081 7.1491775,0 13.5001964,0 C19.8512154,0 25,5.1469081 25,11.5" id="Fill-45" fill="#F55065"></path>
                                    <path d="M11.8461546,12.5 C11.1328008,12.5 10.5236931,12.207 10.0188315,11.621 C9.51396998,11.035 9.26153921,10.328 9.26153921,9.5 C9.26153921,8.672 9.51396998,7.965 10.0188315,7.379 C10.5236931,6.793 11.1328008,6.5 11.8461546,6.5 C12.5595084,6.5 13.1686161,6.793 13.6734777,7.379 C14.1783392,7.965 14.43077,8.672 14.43077,9.5 C14.43077,10.328 14.1783392,11.035 13.6734777,11.621 C13.1686161,12.207 12.5595084,12.5 11.8461546,12.5 Z M18.3076931,13.5 L20.6769238,13.5 C20.7355084,13.5 20.786052,13.5246667 20.8285546,13.574 C20.8710572,13.6233333 20.8923084,13.682 20.8923084,13.75 L20.8923084,15.25 C20.8923084,15.318 20.8710572,15.3766667 20.8285546,15.426 C20.786052,15.4753333 20.7355084,15.5 20.6769238,15.5 L18.3076931,15.5 L18.3076931,18.25 C18.3076931,18.318 18.2864418,18.3766667 18.2439392,18.426 C18.2014367,18.4753333 18.1508931,18.5 18.0923084,18.5 L16.8000008,18.5 C16.7414161,18.5 16.6908725,18.4753333 16.64837,18.426 C16.6058674,18.3766667 16.5846161,18.318 16.5846161,18.25 L16.5846161,15.5 L14.2153854,15.5 C14.1568008,15.5 14.1062572,15.4753333 14.0637546,15.426 C14.021252,15.3766667 14.0000008,15.318 14.0000008,15.25 L14.0000008,13.75 C14.0000008,13.682 14.021252,13.6233333 14.0637546,13.574 C14.1062572,13.5246667 14.1568008,13.5 14.2153854,13.5 L16.5846161,13.5 L16.5846161,10.75 C16.5846161,10.682 16.6058674,10.6233333 16.64837,10.574 C16.6908725,10.5246667 16.7414161,10.5 16.8000008,10.5 L18.0923084,10.5 C18.1508931,10.5 18.2014367,10.5246667 18.2439392,10.574 C18.2864418,10.6233333 18.3076931,10.682 18.3076931,10.75 L18.3076931,13.5 Z M13.3538469,15.25 C13.3538469,15.5206667 13.4391392,15.755 13.6097238,15.953 C13.7803084,16.151 13.9821956,16.25 14.2153854,16.25 L15.9384623,16.25 L15.9384623,18.109 C15.6334777,18.3696667 15.2498059,18.5 14.7874469,18.5 L8.90486229,18.5 C8.36209306,18.5 7.92672896,18.3203333 7.59876998,17.961 C7.27081101,17.6016667 7.1071187,17.107 7.10769306,16.477 C7.10769306,16.201 7.11544691,15.9313333 7.1309546,15.668 C7.14646229,15.4046667 7.17776486,15.1206667 7.22486229,14.816 C7.27195973,14.5113333 7.33140588,14.2286667 7.40320075,13.968 C7.47499562,13.7073333 7.57148793,13.4533333 7.69267768,13.206 C7.81386742,12.9586667 7.95286229,12.7476667 8.10966229,12.573 C8.26646229,12.3983333 8.45829819,12.259 8.68516998,12.155 C8.91204178,12.051 9.16217511,11.999 9.43556998,11.999 C9.52057511,11.999 9.60816486,12.0433333 9.69833921,12.132 C10.0527187,12.45 10.3993443,12.6883333 10.7382161,12.847 C11.0770879,13.0056667 11.4461136,13.085 11.8452931,13.085 C12.2444725,13.085 12.6134982,13.0056667 12.95237,12.847 C13.2912418,12.6883333 13.6378674,12.45 13.9922469,12.132 C14.0818469,12.0433333 14.1694367,11.999 14.2550161,11.999 C14.8471802,11.999 15.3339495,12.249 15.7153238,12.749 L14.2145238,12.749 C13.9813341,12.749 13.7794469,12.848 13.6088623,13.046 C13.4382777,13.244 13.3529854,13.4783333 13.3529854,13.749 L13.3529854,15.249 L13.3538469,15.25 Z" id="Shape" fill="#FFFFFF" fill-rule="nonzero" transform="translate(14.000000, 12.500000) rotate(-270.000000) translate(-14.000000, -12.500000) "></path>
                                </g>
                                <g id="Group-35" transform="translate(0.000000, 188.000000)">
                                    <path d="M11.5001964,4 C5.1491775,4 0,9.14887257 0,15.5 C0,21.8511274 5.1491775,27 11.5001964,27 C17.8512154,27 23,21.8511274 23,15.5 C23,9.14887257 17.8512154,4 11.5001964,4" id="Fill-12" fill="#B0E5EF" opacity="0.5"></path>
                                    <path d="M25,11.5 C25,17.8511274 19.8512154,23 13.5001964,23 C7.1491775,23 2,17.8511274 2,11.5 C2,5.1469081 7.1491775,0 13.5001964,0 C19.8512154,0 25,5.1469081 25,11.5" id="Fill-45" fill="#30C436"></path>
                                    <path d="M11.8461546,12.5 C11.1328008,12.5 10.5236931,12.207 10.0188315,11.621 C9.51396998,11.035 9.26153921,10.328 9.26153921,9.5 C9.26153921,8.672 9.51396998,7.965 10.0188315,7.379 C10.5236931,6.793 11.1328008,6.5 11.8461546,6.5 C12.5595084,6.5 13.1686161,6.793 13.6734777,7.379 C14.1783392,7.965 14.43077,8.672 14.43077,9.5 C14.43077,10.328 14.1783392,11.035 13.6734777,11.621 C13.1686161,12.207 12.5595084,12.5 11.8461546,12.5 Z M18.3076931,13.5 L20.6769238,13.5 C20.7355084,13.5 20.786052,13.5246667 20.8285546,13.574 C20.8710572,13.6233333 20.8923084,13.682 20.8923084,13.75 L20.8923084,15.25 C20.8923084,15.318 20.8710572,15.3766667 20.8285546,15.426 C20.786052,15.4753333 20.7355084,15.5 20.6769238,15.5 L18.3076931,15.5 L18.3076931,18.25 C18.3076931,18.318 18.2864418,18.3766667 18.2439392,18.426 C18.2014367,18.4753333 18.1508931,18.5 18.0923084,18.5 L16.8000008,18.5 C16.7414161,18.5 16.6908725,18.4753333 16.64837,18.426 C16.6058674,18.3766667 16.5846161,18.318 16.5846161,18.25 L16.5846161,15.5 L14.2153854,15.5 C14.1568008,15.5 14.1062572,15.4753333 14.0637546,15.426 C14.021252,15.3766667 14.0000008,15.318 14.0000008,15.25 L14.0000008,13.75 C14.0000008,13.682 14.021252,13.6233333 14.0637546,13.574 C14.1062572,13.5246667 14.1568008,13.5 14.2153854,13.5 L16.5846161,13.5 L16.5846161,10.75 C16.5846161,10.682 16.6058674,10.6233333 16.64837,10.574 C16.6908725,10.5246667 16.7414161,10.5 16.8000008,10.5 L18.0923084,10.5 C18.1508931,10.5 18.2014367,10.5246667 18.2439392,10.574 C18.2864418,10.6233333 18.3076931,10.682 18.3076931,10.75 L18.3076931,13.5 Z M13.3538469,15.25 C13.3538469,15.5206667 13.4391392,15.755 13.6097238,15.953 C13.7803084,16.151 13.9821956,16.25 14.2153854,16.25 L15.9384623,16.25 L15.9384623,18.109 C15.6334777,18.3696667 15.2498059,18.5 14.7874469,18.5 L8.90486229,18.5 C8.36209306,18.5 7.92672896,18.3203333 7.59876998,17.961 C7.27081101,17.6016667 7.1071187,17.107 7.10769306,16.477 C7.10769306,16.201 7.11544691,15.9313333 7.1309546,15.668 C7.14646229,15.4046667 7.17776486,15.1206667 7.22486229,14.816 C7.27195973,14.5113333 7.33140588,14.2286667 7.40320075,13.968 C7.47499562,13.7073333 7.57148793,13.4533333 7.69267768,13.206 C7.81386742,12.9586667 7.95286229,12.7476667 8.10966229,12.573 C8.26646229,12.3983333 8.45829819,12.259 8.68516998,12.155 C8.91204178,12.051 9.16217511,11.999 9.43556998,11.999 C9.52057511,11.999 9.60816486,12.0433333 9.69833921,12.132 C10.0527187,12.45 10.3993443,12.6883333 10.7382161,12.847 C11.0770879,13.0056667 11.4461136,13.085 11.8452931,13.085 C12.2444725,13.085 12.6134982,13.0056667 12.95237,12.847 C13.2912418,12.6883333 13.6378674,12.45 13.9922469,12.132 C14.0818469,12.0433333 14.1694367,11.999 14.2550161,11.999 C14.8471802,11.999 15.3339495,12.249 15.7153238,12.749 L14.2145238,12.749 C13.9813341,12.749 13.7794469,12.848 13.6088623,13.046 C13.4382777,13.244 13.3529854,13.4783333 13.3529854,13.749 L13.3529854,15.249 L13.3538469,15.25 Z" id="Shape" fill="#FFFFFF" fill-rule="nonzero" transform="translate(14.000000, 12.500000) rotate(-270.000000) translate(-14.000000, -12.500000) "></path>
                                </g>
                                <g id="Group-41" transform="translate(28.000000, 105.000000)">
                                    <path d="M9.5000972,5 C4.2532613,5 0,9.2532613 0,14.5000972 C0,19.7467387 4.2532613,24 9.5000972,24 C14.7467387,24 19,19.7467387 19,14.5000972 C19,9.2532613 14.7467387,5 9.5000972,5" id="Fill-18" fill="#B0E5EF" opacity="0.5"></path>
                                    <path d="M21,9.4999028 C21,14.7467387 16.7467387,19 11.5000972,19 C6.2534557,19 2,14.7467387 2,9.4999028 C2,4.2532613 6.2534557,0 11.5000972,0 C16.7467387,0 21,4.2532613 21,9.4999028" id="Fill-60" fill="#FFCA6A"></path>
                                    <path d="M10.3762026,10.5 C9.83840065,10.5 9.37919057,10.2791055 8.99857231,9.83731643 C8.61795406,9.39552738 8.42764493,8.86251569 8.42764493,8.23828133 C8.42764493,7.61404698 8.61795406,7.08103528 8.99857231,6.63924624 C9.37919057,6.19745719 9.83840065,5.97656267 10.3762026,5.97656267 C10.9140045,5.97656267 11.3732145,6.19745719 11.7538328,6.63924624 C12.134451,7.08103528 12.3247602,7.61404698 12.3247602,8.23828133 C12.3247602,8.86251569 12.134451,9.39552738 11.7538328,9.83731643 C11.3732145,10.2791055 10.9140045,10.5 10.3762026,10.5 Z M15.2475966,11.2539062 L17.0337744,11.2539062 C17.0779417,11.2539062 17.1160469,11.2725026 17.1480898,11.3096953 C17.1801327,11.346888 17.1961542,11.3911172 17.1961542,11.4423828 L17.1961542,12.5732421 C17.1961542,12.6245077 17.1801327,12.6687369 17.1480898,12.7059296 C17.1160469,12.7431223 17.0779417,12.7617187 17.0337744,12.7617187 L15.2475966,12.7617187 L15.2475966,14.8349608 C15.2475966,14.8862264 15.2315751,14.9304556 15.1995322,14.9676483 C15.1674892,15.004841 15.1293841,15.0234373 15.0852168,15.0234373 L14.110938,15.0234373 C14.0667707,15.0234373 14.0286656,15.004841 13.9966226,14.9676483 C13.9645797,14.9304556 13.9485582,14.8862264 13.9485582,14.8349608 L13.9485582,12.7617187 L12.1623804,12.7617187 C12.1182131,12.7617187 12.0801079,12.7431223 12.048065,12.7059296 C12.016022,12.6687369 12.0000006,12.6245077 12.0000006,12.5732421 L12.0000006,11.4423828 C12.0000006,11.3911172 12.016022,11.346888 12.048065,11.3096953 C12.0801079,11.2725026 12.1182131,11.2539062 12.1623804,11.2539062 L13.9485582,11.2539062 L13.9485582,9.18066411 C13.9485582,9.12939849 13.9645797,9.08516932 13.9966226,9.04797662 C14.0286656,9.01078391 14.0667707,8.99218756 14.110938,8.99218756 L15.0852168,8.99218756 C15.1293841,8.99218756 15.1674892,9.01078391 15.1995322,9.04797662 C15.2315751,9.08516932 15.2475966,9.12939849 15.2475966,9.18066411 L15.2475966,11.2539062 Z M11.5128612,12.5732421 C11.5128612,12.7772994 11.5771636,12.9539648 11.7057684,13.1032382 C11.8343732,13.2525116 11.9865772,13.3271483 12.1623804,13.3271483 L13.4614188,13.3271483 L13.4614188,14.72866 C13.231489,14.9251782 12.9422364,15.0234373 12.5936611,15.0234373 L8.15874398,15.0234373 C7.74954688,15.0234373 7.42132317,14.8879855 7.17407286,14.6170819 C6.92682255,14.3461782 6.8034139,13.973246 6.80384691,13.498285 C6.80384691,13.2902069 6.80969259,13.0869036 6.82138393,12.8883749 C6.83307528,12.6898463 6.85667447,12.4757369 6.89218152,12.2460468 C6.92768857,12.0163567 6.9725054,11.8032526 7.026632,11.6067343 C7.0807586,11.4102161 7.15350475,11.2187239 7.24487045,11.0322578 C7.33623616,10.8457917 7.44102525,10.6867174 7.55923775,10.5550352 C7.67745025,10.4233529 7.82207652,10.3183086 7.99311658,10.2399024 C8.16415664,10.1614961 8.35273371,10.122293 8.55884781,10.122293 C8.6229337,10.122293 8.68896816,10.1557162 8.75695117,10.2225625 C9.02412007,10.4623047 9.2854433,10.6419857 9.54092085,10.7616055 C9.79639841,10.8812252 10.0746091,10.9410351 10.375553,10.9410351 C10.6764969,10.9410351 10.9547077,10.8812252 11.2101852,10.7616055 C11.4656628,10.6419857 11.726986,10.4623047 11.9941549,10.2225625 C12.0617049,10.1557162 12.1277393,10.122293 12.1922583,10.122293 C12.6386945,10.122293 13.0056728,10.3107695 13.2931933,10.6877226 L12.1617309,10.6877226 C11.9859277,10.6877226 11.8337237,10.7623594 11.7051188,10.9116328 C11.576514,11.0609062 11.5122116,11.2375716 11.5122116,11.4416289 L11.5122116,12.5724882 L11.5128612,12.5732421 Z" id="Shape" fill="#FFFFFF" fill-rule="nonzero" transform="translate(12.000000, 10.500000) rotate(-270.000000) translate(-12.000000, -10.500000) "></path>
                                </g>
                                <g id="Group-41-Copy" transform="translate(53.000000, 202.000000)">
                                    <path d="M9.5000972,5 C4.2532613,5 0,9.2532613 0,14.5000972 C0,19.7467387 4.2532613,24 9.5000972,24 C14.7467387,24 19,19.7467387 19,14.5000972 C19,9.2532613 14.7467387,5 9.5000972,5" id="Fill-18" fill="#B0E5EF" opacity="0.5"></path>
                                    <path d="M21,9.4999028 C21,14.7467387 16.7467387,19 11.5000972,19 C6.2534557,19 2,14.7467387 2,9.4999028 C2,4.2532613 6.2534557,0 11.5000972,0 C16.7467387,0 21,4.2532613 21,9.4999028" id="Fill-60" fill="#FFCA6A"></path>
                                    <path d="M10.3762026,10.5 C9.83840065,10.5 9.37919057,10.2791055 8.99857231,9.83731643 C8.61795406,9.39552738 8.42764493,8.86251569 8.42764493,8.23828133 C8.42764493,7.61404698 8.61795406,7.08103528 8.99857231,6.63924624 C9.37919057,6.19745719 9.83840065,5.97656267 10.3762026,5.97656267 C10.9140045,5.97656267 11.3732145,6.19745719 11.7538328,6.63924624 C12.134451,7.08103528 12.3247602,7.61404698 12.3247602,8.23828133 C12.3247602,8.86251569 12.134451,9.39552738 11.7538328,9.83731643 C11.3732145,10.2791055 10.9140045,10.5 10.3762026,10.5 Z M15.2475966,11.2539062 L17.0337744,11.2539062 C17.0779417,11.2539062 17.1160469,11.2725026 17.1480898,11.3096953 C17.1801327,11.346888 17.1961542,11.3911172 17.1961542,11.4423828 L17.1961542,12.5732421 C17.1961542,12.6245077 17.1801327,12.6687369 17.1480898,12.7059296 C17.1160469,12.7431223 17.0779417,12.7617187 17.0337744,12.7617187 L15.2475966,12.7617187 L15.2475966,14.8349608 C15.2475966,14.8862264 15.2315751,14.9304556 15.1995322,14.9676483 C15.1674892,15.004841 15.1293841,15.0234373 15.0852168,15.0234373 L14.110938,15.0234373 C14.0667707,15.0234373 14.0286656,15.004841 13.9966226,14.9676483 C13.9645797,14.9304556 13.9485582,14.8862264 13.9485582,14.8349608 L13.9485582,12.7617187 L12.1623804,12.7617187 C12.1182131,12.7617187 12.0801079,12.7431223 12.048065,12.7059296 C12.016022,12.6687369 12.0000006,12.6245077 12.0000006,12.5732421 L12.0000006,11.4423828 C12.0000006,11.3911172 12.016022,11.346888 12.048065,11.3096953 C12.0801079,11.2725026 12.1182131,11.2539062 12.1623804,11.2539062 L13.9485582,11.2539062 L13.9485582,9.18066411 C13.9485582,9.12939849 13.9645797,9.08516932 13.9966226,9.04797662 C14.0286656,9.01078391 14.0667707,8.99218756 14.110938,8.99218756 L15.0852168,8.99218756 C15.1293841,8.99218756 15.1674892,9.01078391 15.1995322,9.04797662 C15.2315751,9.08516932 15.2475966,9.12939849 15.2475966,9.18066411 L15.2475966,11.2539062 Z M11.5128612,12.5732421 C11.5128612,12.7772994 11.5771636,12.9539648 11.7057684,13.1032382 C11.8343732,13.2525116 11.9865772,13.3271483 12.1623804,13.3271483 L13.4614188,13.3271483 L13.4614188,14.72866 C13.231489,14.9251782 12.9422364,15.0234373 12.5936611,15.0234373 L8.15874398,15.0234373 C7.74954688,15.0234373 7.42132317,14.8879855 7.17407286,14.6170819 C6.92682255,14.3461782 6.8034139,13.973246 6.80384691,13.498285 C6.80384691,13.2902069 6.80969259,13.0869036 6.82138393,12.8883749 C6.83307528,12.6898463 6.85667447,12.4757369 6.89218152,12.2460468 C6.92768857,12.0163567 6.9725054,11.8032526 7.026632,11.6067343 C7.0807586,11.4102161 7.15350475,11.2187239 7.24487045,11.0322578 C7.33623616,10.8457917 7.44102525,10.6867174 7.55923775,10.5550352 C7.67745025,10.4233529 7.82207652,10.3183086 7.99311658,10.2399024 C8.16415664,10.1614961 8.35273371,10.122293 8.55884781,10.122293 C8.6229337,10.122293 8.68896816,10.1557162 8.75695117,10.2225625 C9.02412007,10.4623047 9.2854433,10.6419857 9.54092085,10.7616055 C9.79639841,10.8812252 10.0746091,10.9410351 10.375553,10.9410351 C10.6764969,10.9410351 10.9547077,10.8812252 11.2101852,10.7616055 C11.4656628,10.6419857 11.726986,10.4623047 11.9941549,10.2225625 C12.0617049,10.1557162 12.1277393,10.122293 12.1922583,10.122293 C12.6386945,10.122293 13.0056728,10.3107695 13.2931933,10.6877226 L12.1617309,10.6877226 C11.9859277,10.6877226 11.8337237,10.7623594 11.7051188,10.9116328 C11.576514,11.0609062 11.5122116,11.2375716 11.5122116,11.4416289 L11.5122116,12.5724882 L11.5128612,12.5732421 Z" id="Shape" fill="#FFFFFF" fill-rule="nonzero" transform="translate(12.000000, 10.500000) rotate(-270.000000) translate(-12.000000, -10.500000) "></path>
                                </g>
                                <g id="Group-41-Copy-2" transform="translate(64.000000, 0.000000)">
                                    <path d="M9.5000972,5 C4.2532613,5 0,9.2532613 0,14.5000972 C0,19.7467387 4.2532613,24 9.5000972,24 C14.7467387,24 19,19.7467387 19,14.5000972 C19,9.2532613 14.7467387,5 9.5000972,5" id="Fill-18" fill="#B0E5EF" opacity="0.5"></path>
                                    <path d="M21,9.4999028 C21,14.7467387 16.7467387,19 11.5000972,19 C6.2534557,19 2,14.7467387 2,9.4999028 C2,4.2532613 6.2534557,0 11.5000972,0 C16.7467387,0 21,4.2532613 21,9.4999028" id="Fill-60" fill="#30C436"></path>
                                    <path d="M10.3762026,10.5 C9.83840065,10.5 9.37919057,10.2791055 8.99857231,9.83731643 C8.61795406,9.39552738 8.42764493,8.86251569 8.42764493,8.23828133 C8.42764493,7.61404698 8.61795406,7.08103528 8.99857231,6.63924624 C9.37919057,6.19745719 9.83840065,5.97656267 10.3762026,5.97656267 C10.9140045,5.97656267 11.3732145,6.19745719 11.7538328,6.63924624 C12.134451,7.08103528 12.3247602,7.61404698 12.3247602,8.23828133 C12.3247602,8.86251569 12.134451,9.39552738 11.7538328,9.83731643 C11.3732145,10.2791055 10.9140045,10.5 10.3762026,10.5 Z M15.2475966,11.2539062 L17.0337744,11.2539062 C17.0779417,11.2539062 17.1160469,11.2725026 17.1480898,11.3096953 C17.1801327,11.346888 17.1961542,11.3911172 17.1961542,11.4423828 L17.1961542,12.5732421 C17.1961542,12.6245077 17.1801327,12.6687369 17.1480898,12.7059296 C17.1160469,12.7431223 17.0779417,12.7617187 17.0337744,12.7617187 L15.2475966,12.7617187 L15.2475966,14.8349608 C15.2475966,14.8862264 15.2315751,14.9304556 15.1995322,14.9676483 C15.1674892,15.004841 15.1293841,15.0234373 15.0852168,15.0234373 L14.110938,15.0234373 C14.0667707,15.0234373 14.0286656,15.004841 13.9966226,14.9676483 C13.9645797,14.9304556 13.9485582,14.8862264 13.9485582,14.8349608 L13.9485582,12.7617187 L12.1623804,12.7617187 C12.1182131,12.7617187 12.0801079,12.7431223 12.048065,12.7059296 C12.016022,12.6687369 12.0000006,12.6245077 12.0000006,12.5732421 L12.0000006,11.4423828 C12.0000006,11.3911172 12.016022,11.346888 12.048065,11.3096953 C12.0801079,11.2725026 12.1182131,11.2539062 12.1623804,11.2539062 L13.9485582,11.2539062 L13.9485582,9.18066411 C13.9485582,9.12939849 13.9645797,9.08516932 13.9966226,9.04797662 C14.0286656,9.01078391 14.0667707,8.99218756 14.110938,8.99218756 L15.0852168,8.99218756 C15.1293841,8.99218756 15.1674892,9.01078391 15.1995322,9.04797662 C15.2315751,9.08516932 15.2475966,9.12939849 15.2475966,9.18066411 L15.2475966,11.2539062 Z M11.5128612,12.5732421 C11.5128612,12.7772994 11.5771636,12.9539648 11.7057684,13.1032382 C11.8343732,13.2525116 11.9865772,13.3271483 12.1623804,13.3271483 L13.4614188,13.3271483 L13.4614188,14.72866 C13.231489,14.9251782 12.9422364,15.0234373 12.5936611,15.0234373 L8.15874398,15.0234373 C7.74954688,15.0234373 7.42132317,14.8879855 7.17407286,14.6170819 C6.92682255,14.3461782 6.8034139,13.973246 6.80384691,13.498285 C6.80384691,13.2902069 6.80969259,13.0869036 6.82138393,12.8883749 C6.83307528,12.6898463 6.85667447,12.4757369 6.89218152,12.2460468 C6.92768857,12.0163567 6.9725054,11.8032526 7.026632,11.6067343 C7.0807586,11.4102161 7.15350475,11.2187239 7.24487045,11.0322578 C7.33623616,10.8457917 7.44102525,10.6867174 7.55923775,10.5550352 C7.67745025,10.4233529 7.82207652,10.3183086 7.99311658,10.2399024 C8.16415664,10.1614961 8.35273371,10.122293 8.55884781,10.122293 C8.6229337,10.122293 8.68896816,10.1557162 8.75695117,10.2225625 C9.02412007,10.4623047 9.2854433,10.6419857 9.54092085,10.7616055 C9.79639841,10.8812252 10.0746091,10.9410351 10.375553,10.9410351 C10.6764969,10.9410351 10.9547077,10.8812252 11.2101852,10.7616055 C11.4656628,10.6419857 11.726986,10.4623047 11.9941549,10.2225625 C12.0617049,10.1557162 12.1277393,10.122293 12.1922583,10.122293 C12.6386945,10.122293 13.0056728,10.3107695 13.2931933,10.6877226 L12.1617309,10.6877226 C11.9859277,10.6877226 11.8337237,10.7623594 11.7051188,10.9116328 C11.576514,11.0609062 11.5122116,11.2375716 11.5122116,11.4416289 L11.5122116,12.5724882 L11.5128612,12.5732421 Z" id="Shape" fill="#FFFFFF" fill-rule="nonzero" transform="translate(12.000000, 10.500000) rotate(-270.000000) translate(-12.000000, -10.500000) "></path>
                                </g>
                                <g id="Group-40" transform="translate(62.000000, 88.000000)">
                                    <path d="M22,14.9998989 C22,8.92474838 17.0742647,4 11,4 C4.92573529,4 0,8.92474838 0,14.9998989 C0,21.0750494 4.92573529,26 11,26 C17.0742647,26 22,21.0750494 22,14.9998989" id="Fill-23" fill="#B0E5EF" opacity="0.5"></path>
                                    <path d="M24,10.9998989 C24,17.0750494 19.0742647,22 13,22 C6.92573529,22 2,17.0750494 2,10.9998989 C2,4.92474838 6.92573529,0 13,0 C19.0742647,0 24,4.92474838 24,10.9998989" id="Fill-87" fill="#30C436"></path>
                                    <path d="M11.7504594,11.3894608 C11.0371056,11.3894608 10.4279979,11.0964608 9.92313637,10.5104608 C9.41827483,9.92446081 9.16584406,9.21746081 9.16584406,8.38946081 C9.16584406,7.56146081 9.41827483,6.85446081 9.92313637,6.26846081 C10.4279979,5.68246081 11.0371056,5.38946081 11.7504594,5.38946081 C12.4638133,5.38946081 13.072921,5.68246081 13.5777825,6.26846081 C14.0826441,6.85446081 14.3350748,7.56146081 14.3350748,8.38946081 C14.3350748,9.21746081 14.0826441,9.92446081 13.5777825,10.5104608 C13.072921,11.0964608 12.4638133,11.3894608 11.7504594,11.3894608 Z M18.2119979,12.3894608 L20.5812287,12.3894608 C20.6398133,12.3894608 20.6903569,12.4141275 20.7328594,12.4634608 C20.775362,12.5127941 20.7966133,12.5714608 20.7966133,12.6394608 L20.7966133,14.1394608 C20.7966133,14.2074608 20.775362,14.2661275 20.7328594,14.3154608 C20.6903569,14.3647941 20.6398133,14.3894608 20.5812287,14.3894608 L18.2119979,14.3894608 L18.2119979,17.1394608 C18.2119979,17.2074608 18.1907466,17.2661275 18.1482441,17.3154608 C18.1057415,17.3647941 18.0551979,17.3894608 17.9966133,17.3894608 L16.7043056,17.3894608 C16.645721,17.3894608 16.5951774,17.3647941 16.5526748,17.3154608 C16.5101723,17.2661275 16.488921,17.2074608 16.488921,17.1394608 L16.488921,14.3894608 L14.1196902,14.3894608 C14.0611056,14.3894608 14.010562,14.3647941 13.9680594,14.3154608 C13.9255569,14.2661275 13.9043056,14.2074608 13.9043056,14.1394608 L13.9043056,12.6394608 C13.9043056,12.5714608 13.9255569,12.5127941 13.9680594,12.4634608 C14.010562,12.4141275 14.0611056,12.3894608 14.1196902,12.3894608 L16.488921,12.3894608 L16.488921,9.63946081 C16.488921,9.57146081 16.5101723,9.51279414 16.5526748,9.46346081 C16.5951774,9.41412747 16.645721,9.38946081 16.7043056,9.38946081 L17.9966133,9.38946081 C18.0551979,9.38946081 18.1057415,9.41412747 18.1482441,9.46346081 C18.1907466,9.51279414 18.2119979,9.57146081 18.2119979,9.63946081 L18.2119979,12.3894608 Z M13.2581518,14.1394608 C13.2581518,14.4101275 13.3434441,14.6444608 13.5140287,14.8424608 C13.6846133,15.0404608 13.8865005,15.1394608 14.1196902,15.1394608 L15.8427671,15.1394608 L15.8427671,16.9984608 C15.5377825,17.2591275 15.1541107,17.3894608 14.6917518,17.3894608 L8.80916714,17.3894608 C8.26639791,17.3894608 7.83103381,17.2097941 7.50307483,16.8504608 C7.17511586,16.4911275 7.01142355,15.9964608 7.01199791,15.3664608 C7.01199791,15.0904608 7.01975175,14.8207941 7.03525945,14.5574608 C7.05076714,14.2941275 7.0820697,14.0101275 7.12916714,13.7054608 C7.17626457,13.4007941 7.23571073,13.1181275 7.3075056,12.8574608 C7.37930047,12.5967941 7.47579278,12.3427941 7.59698252,12.0954608 C7.71817227,11.8481275 7.85716714,11.6371275 8.01396714,11.4624608 C8.17076714,11.2877941 8.36260304,11.1484608 8.58947483,11.0444608 C8.81634663,10.9404608 9.06647996,10.8884608 9.33987483,10.8884608 C9.42487996,10.8884608 9.5124697,10.9327941 9.60264406,11.0214608 C9.95702355,11.3394608 10.3036492,11.5777941 10.642521,11.7364608 C10.9813928,11.8951275 11.3504184,11.9744608 11.7495979,11.9744608 C12.1487774,11.9744608 12.517803,11.8951275 12.8566748,11.7364608 C13.1955466,11.5777941 13.5421723,11.3394608 13.8965518,11.0214608 C13.9861518,10.9327941 14.0737415,10.8884608 14.159321,10.8884608 C14.7514851,10.8884608 15.2382543,11.1384608 15.6196287,11.6384608 L14.1188287,11.6384608 C13.8856389,11.6384608 13.6837518,11.7374608 13.5131671,11.9354608 C13.3425825,12.1334608 13.2572902,12.3677941 13.2572902,12.6384608 L13.2572902,14.1384608 L13.2581518,14.1394608 Z" id="Shape" fill="#FFFFFF" fill-rule="nonzero" transform="translate(13.904305, 11.389461) rotate(-270.000000) translate(-13.904305, -11.389461) "></path>
                                </g>
                                <g id="Group-36" transform="translate(13.000000, 66.000000)">
                                    <path d="M6.99990209,4 C3.13395717,4 0,7.13395717 0,11.0000979 C0,14.8660428 3.13395717,18 6.99990209,18 C10.8660428,18 14,14.8660428 14,11.0000979 C14,7.13395717 10.8660428,4 6.99990209,4" id="Fill-14" fill="#B0E5EF" opacity="0.5"></path>
                                    <path d="M15,7.00009791 C15,10.8660428 11.8660428,14 8.00009791,14 C4.13395717,14 1,10.8660428 1,7.00009791 C1,3.13395717 4.13395717,0 8.00009791,0 C11.8660428,0 15,3.13395717 15,7.00009791" id="Fill-49" fill="#F55065"></path>
                                    <path d="M7.27675138,8.15060791 C6.83672906,8.15060791 6.46100952,7.96987497 6.14959276,7.60840909 C5.838176,7.24694321 5.68246762,6.81084017 5.68246762,6.30009998 C5.68246762,5.78935979 5.838176,5.35325676 6.14959276,4.99179087 C6.46100952,4.63032499 6.83672906,4.44959205 7.27675138,4.44959205 C7.7167737,4.44959205 8.09249324,4.63032499 8.40391,4.99179087 C8.71532676,5.35325676 8.87103514,5.78935979 8.87103514,6.30009998 C8.87103514,6.81084017 8.71532676,7.24694321 8.40391,7.60840909 C8.09249324,7.96987497 7.7167737,8.15060791 7.27675138,8.15060791 Z M11.2624608,8.76744389 L12.7238876,8.76744389 C12.7600247,8.76744389 12.7912018,8.78265918 12.8174189,8.81308975 C12.843636,8.84352033 12.8567445,8.87970804 12.8567445,8.92165289 L12.8567445,9.84690685 C12.8567445,9.8888517 12.843636,9.92503941 12.8174189,9.95546998 C12.7912018,9.98590056 12.7600247,10.0011158 12.7238876,10.0011158 L11.2624608,10.0011158 L11.2624608,11.6974148 C11.2624608,11.7393596 11.2493522,11.7755473 11.2231351,11.8059779 C11.196918,11.8364085 11.1657409,11.8516238 11.1296038,11.8516238 L10.3324619,11.8516238 C10.2963248,11.8516238 10.2651477,11.8364085 10.2389306,11.8059779 C10.2127135,11.7755473 10.1996049,11.7393596 10.1996049,11.6974148 L10.1996049,10.0011158 L8.73817816,10.0011158 C8.70204106,10.0011158 8.67086395,9.98590056 8.64464684,9.95546998 C8.61842973,9.92503941 8.60532118,9.8888517 8.60532118,9.84690685 L8.60532118,8.92165289 C8.60532118,8.87970804 8.61842973,8.84352033 8.64464684,8.81308975 C8.67086395,8.78265918 8.70204106,8.76744389 8.73817816,8.76744389 L10.1996049,8.76744389 L10.1996049,7.07114495 C10.1996049,7.02920011 10.2127135,6.9930124 10.2389306,6.96258182 C10.2651477,6.93215125 10.2963248,6.91693596 10.3324619,6.91693596 L11.1296038,6.91693596 C11.1657409,6.91693596 11.196918,6.93215125 11.2231351,6.96258182 C11.2493522,6.9930124 11.2624608,7.02920011 11.2624608,7.07114495 L11.2624608,8.76744389 Z M8.20675024,9.84690685 C8.20675024,10.0138638 8.2593616,10.158409 8.36458433,10.2805425 C8.46980706,10.4026761 8.59433833,10.4637428 8.73817816,10.4637428 L9.801034,10.4637428 L9.801034,11.6104409 C9.61290851,11.7712295 9.37624595,11.8516238 9.0910463,11.8516238 L5.46245646,11.8516238 C5.12765687,11.8516238 4.85910863,11.7407989 4.65681174,11.5191492 C4.45451484,11.2974995 4.35354354,10.9923713 4.35389782,10.6037646 C4.35389782,10.4335179 4.35868068,10.2671778 4.36824638,10.1047443 C4.37781208,9.94231082 4.39712063,9.7671294 4.42617202,9.57920004 C4.45522341,9.39127068 4.49189194,9.21691171 4.5361776,9.05612313 C4.58046326,8.89533455 4.63998319,8.73865821 4.71473738,8.58609411 C4.78949158,8.43353002 4.87522861,8.30337762 4.97194849,8.19563694 C5.06866838,8.08789626 5.18699966,8.00195044 5.32694234,7.9377995 C5.46688503,7.87364856 5.62117627,7.84157309 5.78981606,7.84157309 C5.84225028,7.84157309 5.89627879,7.86891948 5.95190158,7.92361227 C6.17049559,8.11976612 6.38430676,8.26677869 6.59333508,8.36465 C6.80236339,8.46252131 7.02999168,8.51145696 7.27621995,8.51145696 C7.52244822,8.51145696 7.75007651,8.46252131 7.95910483,8.36465 C8.16813314,8.26677869 8.38194431,8.11976612 8.60053833,7.92361227 C8.65580683,7.86891948 8.70983534,7.84157309 8.76262384,7.84157309 C9.12789197,7.84157309 9.42814874,7.99578208 9.66339417,8.30420007 L8.73764673,8.30420007 C8.59380691,8.30420007 8.46927563,8.36526683 8.3640529,8.48740036 C8.25883017,8.60953388 8.20621881,8.75407911 8.20621881,8.92103605 L8.20621881,9.84629002 L8.20675024,9.84690685 Z" id="Shape" fill="#FFFFFF" fill-rule="nonzero" transform="translate(8.605321, 8.150608) rotate(-270.000000) translate(-8.605321, -8.150608) "></path>
                                </g>
                                <g id="Group-36-Copy-2" transform="translate(59.000000, 50.000000)">
                                    <path d="M6.99990209,4 C3.13395717,4 0,7.13395717 0,11.0000979 C0,14.8660428 3.13395717,18 6.99990209,18 C10.8660428,18 14,14.8660428 14,11.0000979 C14,7.13395717 10.8660428,4 6.99990209,4" id="Fill-14" fill="#B0E5EF" opacity="0.5"></path>
                                    <path d="M15,7.00009791 C15,10.8660428 11.8660428,14 8.00009791,14 C4.13395717,14 1,10.8660428 1,7.00009791 C1,3.13395717 4.13395717,0 8.00009791,0 C11.8660428,0 15,3.13395717 15,7.00009791" id="Fill-49" fill="#F55065"></path>
                                    <path d="M7.27675138,8.15060791 C6.83672906,8.15060791 6.46100952,7.96987497 6.14959276,7.60840909 C5.838176,7.24694321 5.68246762,6.81084017 5.68246762,6.30009998 C5.68246762,5.78935979 5.838176,5.35325676 6.14959276,4.99179087 C6.46100952,4.63032499 6.83672906,4.44959205 7.27675138,4.44959205 C7.7167737,4.44959205 8.09249324,4.63032499 8.40391,4.99179087 C8.71532676,5.35325676 8.87103514,5.78935979 8.87103514,6.30009998 C8.87103514,6.81084017 8.71532676,7.24694321 8.40391,7.60840909 C8.09249324,7.96987497 7.7167737,8.15060791 7.27675138,8.15060791 Z M11.2624608,8.76744389 L12.7238876,8.76744389 C12.7600247,8.76744389 12.7912018,8.78265918 12.8174189,8.81308975 C12.843636,8.84352033 12.8567445,8.87970804 12.8567445,8.92165289 L12.8567445,9.84690685 C12.8567445,9.8888517 12.843636,9.92503941 12.8174189,9.95546998 C12.7912018,9.98590056 12.7600247,10.0011158 12.7238876,10.0011158 L11.2624608,10.0011158 L11.2624608,11.6974148 C11.2624608,11.7393596 11.2493522,11.7755473 11.2231351,11.8059779 C11.196918,11.8364085 11.1657409,11.8516238 11.1296038,11.8516238 L10.3324619,11.8516238 C10.2963248,11.8516238 10.2651477,11.8364085 10.2389306,11.8059779 C10.2127135,11.7755473 10.1996049,11.7393596 10.1996049,11.6974148 L10.1996049,10.0011158 L8.73817816,10.0011158 C8.70204106,10.0011158 8.67086395,9.98590056 8.64464684,9.95546998 C8.61842973,9.92503941 8.60532118,9.8888517 8.60532118,9.84690685 L8.60532118,8.92165289 C8.60532118,8.87970804 8.61842973,8.84352033 8.64464684,8.81308975 C8.67086395,8.78265918 8.70204106,8.76744389 8.73817816,8.76744389 L10.1996049,8.76744389 L10.1996049,7.07114495 C10.1996049,7.02920011 10.2127135,6.9930124 10.2389306,6.96258182 C10.2651477,6.93215125 10.2963248,6.91693596 10.3324619,6.91693596 L11.1296038,6.91693596 C11.1657409,6.91693596 11.196918,6.93215125 11.2231351,6.96258182 C11.2493522,6.9930124 11.2624608,7.02920011 11.2624608,7.07114495 L11.2624608,8.76744389 Z M8.20675024,9.84690685 C8.20675024,10.0138638 8.2593616,10.158409 8.36458433,10.2805425 C8.46980706,10.4026761 8.59433833,10.4637428 8.73817816,10.4637428 L9.801034,10.4637428 L9.801034,11.6104409 C9.61290851,11.7712295 9.37624595,11.8516238 9.0910463,11.8516238 L5.46245646,11.8516238 C5.12765687,11.8516238 4.85910863,11.7407989 4.65681174,11.5191492 C4.45451484,11.2974995 4.35354354,10.9923713 4.35389782,10.6037646 C4.35389782,10.4335179 4.35868068,10.2671778 4.36824638,10.1047443 C4.37781208,9.94231082 4.39712063,9.7671294 4.42617202,9.57920004 C4.45522341,9.39127068 4.49189194,9.21691171 4.5361776,9.05612313 C4.58046326,8.89533455 4.63998319,8.73865821 4.71473738,8.58609411 C4.78949158,8.43353002 4.87522861,8.30337762 4.97194849,8.19563694 C5.06866838,8.08789626 5.18699966,8.00195044 5.32694234,7.9377995 C5.46688503,7.87364856 5.62117627,7.84157309 5.78981606,7.84157309 C5.84225028,7.84157309 5.89627879,7.86891948 5.95190158,7.92361227 C6.17049559,8.11976612 6.38430676,8.26677869 6.59333508,8.36465 C6.80236339,8.46252131 7.02999168,8.51145696 7.27621995,8.51145696 C7.52244822,8.51145696 7.75007651,8.46252131 7.95910483,8.36465 C8.16813314,8.26677869 8.38194431,8.11976612 8.60053833,7.92361227 C8.65580683,7.86891948 8.70983534,7.84157309 8.76262384,7.84157309 C9.12789197,7.84157309 9.42814874,7.99578208 9.66339417,8.30420007 L8.73764673,8.30420007 C8.59380691,8.30420007 8.46927563,8.36526683 8.3640529,8.48740036 C8.25883017,8.60953388 8.20621881,8.75407911 8.20621881,8.92103605 L8.20621881,9.84629002 L8.20675024,9.84690685 Z" id="Shape" fill="#FFFFFF" fill-rule="nonzero" transform="translate(8.605321, 8.150608) rotate(-270.000000) translate(-8.605321, -8.150608) "></path>
                                </g>
                                <g id="Group-36-Copy" transform="translate(26.000000, 226.000000)">
                                    <path d="M6.99990209,4 C3.13395717,4 0,7.13395717 0,11.0000979 C0,14.8660428 3.13395717,18 6.99990209,18 C10.8660428,18 14,14.8660428 14,11.0000979 C14,7.13395717 10.8660428,4 6.99990209,4" id="Fill-14" fill="#B0E5EF" opacity="0.5"></path>
                                    <path d="M15,7.00009791 C15,10.8660428 11.8660428,14 8.00009791,14 C4.13395717,14 1,10.8660428 1,7.00009791 C1,3.13395717 4.13395717,0 8.00009791,0 C11.8660428,0 15,3.13395717 15,7.00009791" id="Fill-49" fill="#558DFF"></path>
                                    <path d="M7.27675138,8.15060791 C6.83672906,8.15060791 6.46100952,7.96987497 6.14959276,7.60840909 C5.838176,7.24694321 5.68246762,6.81084017 5.68246762,6.30009998 C5.68246762,5.78935979 5.838176,5.35325676 6.14959276,4.99179087 C6.46100952,4.63032499 6.83672906,4.44959205 7.27675138,4.44959205 C7.7167737,4.44959205 8.09249324,4.63032499 8.40391,4.99179087 C8.71532676,5.35325676 8.87103514,5.78935979 8.87103514,6.30009998 C8.87103514,6.81084017 8.71532676,7.24694321 8.40391,7.60840909 C8.09249324,7.96987497 7.7167737,8.15060791 7.27675138,8.15060791 Z M11.2624608,8.76744389 L12.7238876,8.76744389 C12.7600247,8.76744389 12.7912018,8.78265918 12.8174189,8.81308975 C12.843636,8.84352033 12.8567445,8.87970804 12.8567445,8.92165289 L12.8567445,9.84690685 C12.8567445,9.8888517 12.843636,9.92503941 12.8174189,9.95546998 C12.7912018,9.98590056 12.7600247,10.0011158 12.7238876,10.0011158 L11.2624608,10.0011158 L11.2624608,11.6974148 C11.2624608,11.7393596 11.2493522,11.7755473 11.2231351,11.8059779 C11.196918,11.8364085 11.1657409,11.8516238 11.1296038,11.8516238 L10.3324619,11.8516238 C10.2963248,11.8516238 10.2651477,11.8364085 10.2389306,11.8059779 C10.2127135,11.7755473 10.1996049,11.7393596 10.1996049,11.6974148 L10.1996049,10.0011158 L8.73817816,10.0011158 C8.70204106,10.0011158 8.67086395,9.98590056 8.64464684,9.95546998 C8.61842973,9.92503941 8.60532118,9.8888517 8.60532118,9.84690685 L8.60532118,8.92165289 C8.60532118,8.87970804 8.61842973,8.84352033 8.64464684,8.81308975 C8.67086395,8.78265918 8.70204106,8.76744389 8.73817816,8.76744389 L10.1996049,8.76744389 L10.1996049,7.07114495 C10.1996049,7.02920011 10.2127135,6.9930124 10.2389306,6.96258182 C10.2651477,6.93215125 10.2963248,6.91693596 10.3324619,6.91693596 L11.1296038,6.91693596 C11.1657409,6.91693596 11.196918,6.93215125 11.2231351,6.96258182 C11.2493522,6.9930124 11.2624608,7.02920011 11.2624608,7.07114495 L11.2624608,8.76744389 Z M8.20675024,9.84690685 C8.20675024,10.0138638 8.2593616,10.158409 8.36458433,10.2805425 C8.46980706,10.4026761 8.59433833,10.4637428 8.73817816,10.4637428 L9.801034,10.4637428 L9.801034,11.6104409 C9.61290851,11.7712295 9.37624595,11.8516238 9.0910463,11.8516238 L5.46245646,11.8516238 C5.12765687,11.8516238 4.85910863,11.7407989 4.65681174,11.5191492 C4.45451484,11.2974995 4.35354354,10.9923713 4.35389782,10.6037646 C4.35389782,10.4335179 4.35868068,10.2671778 4.36824638,10.1047443 C4.37781208,9.94231082 4.39712063,9.7671294 4.42617202,9.57920004 C4.45522341,9.39127068 4.49189194,9.21691171 4.5361776,9.05612313 C4.58046326,8.89533455 4.63998319,8.73865821 4.71473738,8.58609411 C4.78949158,8.43353002 4.87522861,8.30337762 4.97194849,8.19563694 C5.06866838,8.08789626 5.18699966,8.00195044 5.32694234,7.9377995 C5.46688503,7.87364856 5.62117627,7.84157309 5.78981606,7.84157309 C5.84225028,7.84157309 5.89627879,7.86891948 5.95190158,7.92361227 C6.17049559,8.11976612 6.38430676,8.26677869 6.59333508,8.36465 C6.80236339,8.46252131 7.02999168,8.51145696 7.27621995,8.51145696 C7.52244822,8.51145696 7.75007651,8.46252131 7.95910483,8.36465 C8.16813314,8.26677869 8.38194431,8.11976612 8.60053833,7.92361227 C8.65580683,7.86891948 8.70983534,7.84157309 8.76262384,7.84157309 C9.12789197,7.84157309 9.42814874,7.99578208 9.66339417,8.30420007 L8.73764673,8.30420007 C8.59380691,8.30420007 8.46927563,8.36526683 8.3640529,8.48740036 C8.25883017,8.60953388 8.20621881,8.75407911 8.20621881,8.92103605 L8.20621881,9.84629002 L8.20675024,9.84690685 Z" id="Shape" fill="#FFFFFF" fill-rule="nonzero" transform="translate(8.605321, 8.150608) rotate(-270.000000) translate(-8.605321, -8.150608) "></path>
                                </g>
                                <g id="Group-36" transform="translate(56.000000, 132.000000)">
                                    <path d="M6.99990209,4 C3.13395717,4 0,7.13395717 0,11.0000979 C0,14.8660428 3.13395717,18 6.99990209,18 C10.8660428,18 14,14.8660428 14,11.0000979 C14,7.13395717 10.8660428,4 6.99990209,4" id="Fill-14" fill="#B0E5EF" opacity="0.5"></path>
                                    <path d="M15,7.00009791 C15,10.8660428 11.8660428,14 8.00009791,14 C4.13395717,14 1,10.8660428 1,7.00009791 C1,3.13395717 4.13395717,0 8.00009791,0 C11.8660428,0 15,3.13395717 15,7.00009791" id="Fill-49" fill="#4A90E2"></path>
                                    <path d="M7.27675138,8.15060791 C6.83672906,8.15060791 6.46100952,7.96987497 6.14959276,7.60840909 C5.838176,7.24694321 5.68246762,6.81084017 5.68246762,6.30009998 C5.68246762,5.78935979 5.838176,5.35325676 6.14959276,4.99179087 C6.46100952,4.63032499 6.83672906,4.44959205 7.27675138,4.44959205 C7.7167737,4.44959205 8.09249324,4.63032499 8.40391,4.99179087 C8.71532676,5.35325676 8.87103514,5.78935979 8.87103514,6.30009998 C8.87103514,6.81084017 8.71532676,7.24694321 8.40391,7.60840909 C8.09249324,7.96987497 7.7167737,8.15060791 7.27675138,8.15060791 Z M11.2624608,8.76744389 L12.7238876,8.76744389 C12.7600247,8.76744389 12.7912018,8.78265918 12.8174189,8.81308975 C12.843636,8.84352033 12.8567445,8.87970804 12.8567445,8.92165289 L12.8567445,9.84690685 C12.8567445,9.8888517 12.843636,9.92503941 12.8174189,9.95546998 C12.7912018,9.98590056 12.7600247,10.0011158 12.7238876,10.0011158 L11.2624608,10.0011158 L11.2624608,11.6974148 C11.2624608,11.7393596 11.2493522,11.7755473 11.2231351,11.8059779 C11.196918,11.8364085 11.1657409,11.8516238 11.1296038,11.8516238 L10.3324619,11.8516238 C10.2963248,11.8516238 10.2651477,11.8364085 10.2389306,11.8059779 C10.2127135,11.7755473 10.1996049,11.7393596 10.1996049,11.6974148 L10.1996049,10.0011158 L8.73817816,10.0011158 C8.70204106,10.0011158 8.67086395,9.98590056 8.64464684,9.95546998 C8.61842973,9.92503941 8.60532118,9.8888517 8.60532118,9.84690685 L8.60532118,8.92165289 C8.60532118,8.87970804 8.61842973,8.84352033 8.64464684,8.81308975 C8.67086395,8.78265918 8.70204106,8.76744389 8.73817816,8.76744389 L10.1996049,8.76744389 L10.1996049,7.07114495 C10.1996049,7.02920011 10.2127135,6.9930124 10.2389306,6.96258182 C10.2651477,6.93215125 10.2963248,6.91693596 10.3324619,6.91693596 L11.1296038,6.91693596 C11.1657409,6.91693596 11.196918,6.93215125 11.2231351,6.96258182 C11.2493522,6.9930124 11.2624608,7.02920011 11.2624608,7.07114495 L11.2624608,8.76744389 Z M8.20675024,9.84690685 C8.20675024,10.0138638 8.2593616,10.158409 8.36458433,10.2805425 C8.46980706,10.4026761 8.59433833,10.4637428 8.73817816,10.4637428 L9.801034,10.4637428 L9.801034,11.6104409 C9.61290851,11.7712295 9.37624595,11.8516238 9.0910463,11.8516238 L5.46245646,11.8516238 C5.12765687,11.8516238 4.85910863,11.7407989 4.65681174,11.5191492 C4.45451484,11.2974995 4.35354354,10.9923713 4.35389782,10.6037646 C4.35389782,10.4335179 4.35868068,10.2671778 4.36824638,10.1047443 C4.37781208,9.94231082 4.39712063,9.7671294 4.42617202,9.57920004 C4.45522341,9.39127068 4.49189194,9.21691171 4.5361776,9.05612313 C4.58046326,8.89533455 4.63998319,8.73865821 4.71473738,8.58609411 C4.78949158,8.43353002 4.87522861,8.30337762 4.97194849,8.19563694 C5.06866838,8.08789626 5.18699966,8.00195044 5.32694234,7.9377995 C5.46688503,7.87364856 5.62117627,7.84157309 5.78981606,7.84157309 C5.84225028,7.84157309 5.89627879,7.86891948 5.95190158,7.92361227 C6.17049559,8.11976612 6.38430676,8.26677869 6.59333508,8.36465 C6.80236339,8.46252131 7.02999168,8.51145696 7.27621995,8.51145696 C7.52244822,8.51145696 7.75007651,8.46252131 7.95910483,8.36465 C8.16813314,8.26677869 8.38194431,8.11976612 8.60053833,7.92361227 C8.65580683,7.86891948 8.70983534,7.84157309 8.76262384,7.84157309 C9.12789197,7.84157309 9.42814874,7.99578208 9.66339417,8.30420007 L8.73764673,8.30420007 C8.59380691,8.30420007 8.46927563,8.36526683 8.3640529,8.48740036 C8.25883017,8.60953388 8.20621881,8.75407911 8.20621881,8.92103605 L8.20621881,9.84629002 L8.20675024,9.84690685 Z" id="Shape" fill="#FFFFFF" fill-rule="nonzero" transform="translate(8.605321, 8.150608) rotate(-270.000000) translate(-8.605321, -8.150608) "></path>
                                </g>
                                <g id="Group-38" transform="translate(29.000000, 24.000000)">
                                    <path d="M11,26 C17.0759003,26 22,21.0751332 22,15.0001016 C22,8.92486681 17.0759003,4 11,4 C4.92613112,4 0,8.92486681 0,15.0001016 C0,21.0751332 4.92613112,26 11,26" id="Fill-16" fill="#B0E5EF" opacity="0.5"></path>
                                    <path d="M24,11.0001016 C24,17.0751332 19.0759003,22 13,22 C6.92613112,22 2,17.0751332 2,11.0001016 C2,4.92486681 6.92613112,0 13,0 C19.0759003,0 24,4.92486681 24,11.0001016" id="Fill-54" fill="#558DFF"></path>
                                    <path d="M11.7266576,11 C11.0727499,11 10.5144012,10.7314167 10.0516114,10.19425 C9.58882168,9.65708333 9.35742681,9.009 9.35742681,8.25 C9.35742681,7.491 9.58882168,6.84291667 10.0516114,6.30575 C10.5144012,5.76858333 11.0727499,5.5 11.7266576,5.5 C12.3805653,5.5 12.938914,5.76858333 13.4017037,6.30575 C13.8644935,6.84291667 14.0958884,7.491 14.0958884,8.25 C14.0958884,9.009 13.8644935,9.65708333 13.4017037,10.19425 C12.938914,10.7314167 12.3805653,11 11.7266576,11 Z M17.6497345,11.9166667 L19.8215294,11.9166667 C19.8752319,11.9166667 19.9215636,11.9392778 19.9605242,11.9845 C19.9994849,12.0297222 20.0189653,12.0835 20.0189653,12.1458333 L20.0189653,13.5208333 C20.0189653,13.5831667 19.9994849,13.6369444 19.9605242,13.6821667 C19.9215636,13.7273889 19.8752319,13.75 19.8215294,13.75 L17.6497345,13.75 L17.6497345,16.2708333 C17.6497345,16.3331667 17.6302542,16.3869444 17.5912935,16.4321667 C17.5523328,16.4773889 17.5060012,16.5 17.4522986,16.5 L16.2676832,16.5 C16.2139807,16.5 16.167649,16.4773889 16.1286884,16.4321667 C16.0897277,16.3869444 16.0702473,16.3331667 16.0702473,16.2708333 L16.0702473,13.75 L13.8984525,13.75 C13.8447499,13.75 13.7984183,13.7273889 13.7594576,13.6821667 C13.7204969,13.6369444 13.7010166,13.5831667 13.7010166,13.5208333 L13.7010166,12.1458333 C13.7010166,12.0835 13.7204969,12.0297222 13.7594576,11.9845 C13.7984183,11.9392778 13.8447499,11.9166667 13.8984525,11.9166667 L16.0702473,11.9166667 L16.0702473,9.39583333 C16.0702473,9.3335 16.0897277,9.27972222 16.1286884,9.2345 C16.167649,9.18927778 16.2139807,9.16666667 16.2676832,9.16666667 L17.4522986,9.16666667 C17.5060012,9.16666667 17.5523328,9.18927778 17.5912935,9.2345 C17.6302542,9.27972222 17.6497345,9.3335 17.6497345,9.39583333 L17.6497345,11.9166667 Z M13.1087089,13.5208333 C13.1087089,13.7689444 13.1868935,13.98375 13.3432627,14.16525 C13.4996319,14.34675 13.6846952,14.4375 13.8984525,14.4375 L15.4779396,14.4375 L15.4779396,16.1415833 C15.1983704,16.3805278 14.8466713,16.5 14.4228422,16.5 L9.03047297,16.5 C8.53293451,16.5 8.13385074,16.3353056 7.83322168,16.0059167 C7.53259263,15.6765278 7.38254134,15.2230833 7.38306784,14.6455833 C7.38306784,14.3925833 7.39017553,14.1453889 7.40439092,13.904 C7.4186063,13.6626111 7.44730032,13.4022778 7.49047297,13.123 C7.53364562,12.8437222 7.58813792,12.5846111 7.65394989,12.3456667 C7.71976186,12.1067222 7.80821314,11.8738889 7.91930374,11.6471667 C8.03039433,11.4204444 8.1578063,11.2270278 8.30153963,11.0669167 C8.44527297,10.9068056 8.62112254,10.7790833 8.82908835,10.68375 C9.03705416,10.5884167 9.26634305,10.54075 9.51695502,10.54075 C9.59487639,10.54075 9.67516698,10.5813889 9.75782681,10.6626667 C10.0826747,10.9541667 10.4004148,11.1726389 10.7110473,11.3180833 C11.0216798,11.4635278 11.3599533,11.53625 11.7258678,11.53625 C12.0917824,11.53625 12.4300559,11.4635278 12.7406884,11.3180833 C13.0513208,11.1726389 13.369061,10.9541667 13.6939089,10.6626667 C13.7760422,10.5813889 13.8563328,10.54075 13.9347807,10.54075 C14.4775978,10.54075 14.9238029,10.7699167 15.273396,11.22825 L13.8976627,11.22825 C13.6839054,11.22825 13.4988422,11.319 13.342473,11.5005 C13.1861037,11.682 13.1079191,11.8968056 13.1079191,12.1449167 L13.1079191,13.5199167 L13.1087089,13.5208333 Z" id="Shape-Copy-2" fill="#FFFFFF" fill-rule="nonzero" transform="translate(13.701016, 11.000000) rotate(-270.000000) translate(-13.701016, -11.000000) "></path>
                                </g>
                            </g>
                            <polygon id="Fill-27" fill="#B2B2B2" points="51 170 63 170 63 154 51 154"></polygon>
                            <polygon id="Fill-28" fill="#B2B2B2" points="51 119 63 119 63 103 51 103"></polygon>
                            <path d="M22.340135,105.675132 C18.3729279,107.388046 14.8117854,109.838438 11.7554387,112.958358 C8.69909201,116.078279 6.29863162,119.713496 4.62076021,123.763223 C2.88161705,127.960077 2,132.413654 2,137 L18.0130956,137 C18.0130956,127.265671 25.7712142,119.346178 35.3071886,119.346178 L51,119.346178 L51,103 L35.3071886,103 C30.8142977,103 26.4516092,103.899955 22.340135,105.675132" id="Fill-29" fill="#AA304D"></path>
                            <path d="M35.3071886,154.839777 C25.7712142,154.839777 18.0130956,147.010378 18.0130956,137.386788 L4.13504227,137.386788 L4.13504227,132 L2,132 L2,137.386788 C2,141.920959 2.88161705,146.323872 4.62076021,150.472982 C6.29863162,154.476639 8.69909201,158.070501 11.7554387,161.154929 C14.8117854,164.239357 18.3729279,166.661873 22.340135,168.355301 C26.4516092,170.110283 30.8142977,171 35.3071886,171 L51,171 L51,154.839777 L35.3071886,154.839777" id="Fill-30" fill="#2C384C"></path>
                            <polygon id="Fill-31" fill="#EDEDED" points="51 165 63 165 63 149 51 149"></polygon>
                            <path d="M18.0130956,132 L2,132 C2,136.586469 2.88161705,141.039886 4.62076021,145.236864 C6.29863162,149.286574 8.69909201,152.921776 11.7554387,156.041541 C14.8117854,159.161449 18.3729279,161.61183 22.340135,163.324737 C26.4516092,165.099906 30.8142977,166 35.3071886,166 L51,166 L51,149.65389 L35.3071886,149.65389 C25.7712142,149.65389 18.0130956,141.73443 18.0130956,132" id="Fill-32" fill="#4A5E83"></path>
                            <polygon id="Fill-33" fill="#EDEDED" points="51 114 63 114 63 98 51 98"></polygon>
                            <path d="M22.340135,100.675274 C18.3729279,102.388046 14.8117854,104.83858 11.7554387,107.958358 C8.69909201,111.078279 6.29863162,114.713496 4.62076021,118.763223 C2.88161705,122.960219 2,127.413654 2,132 L18.0130956,132 C18.0130956,122.265671 25.7712142,114.346178 35.3071886,114.346178 L51,114.346178 L51,98 L35.3071886,98 C30.8142977,98 26.4516092,98.9000974 22.340135,100.675274" id="Fill-34" fill="#E83D5F"></path>
                            <polyline id="Fill-35" fill="#FDC147" points="69 109.724885 77.5505565 109.724885 77.5505565 103 90 107.886002 81.3569866 107.886002 81.3569866 113 69 109.724885"></polyline>
                            <polyline id="Fill-36" fill="#FDC147" points="69 108.738425 77.5505565 108.738425 77.5505565 103 90 106.907064 81.3569866 106.907064 81.3569866 112 69 108.738425"></polyline>
                            <polyline id="Fill-37" fill="#FE7200" points="69 109.111877 69 108 81 110.887997 81 112 69 109.111877"></polyline>
                            <polygon id="Fill-38" fill="#FE7200" points="81 108 89 108 89 107 81 107"></polygon>
                            <polyline id="Fill-39" fill="#FDC147" points="69 161.724981 77.5505565 161.724981 77.5505565 155 90 159.886072 81.3569866 159.886072 81.3569866 165 69 161.724981"></polyline>
                            <polyline id="Fill-40" fill="#FDC147" points="69 159.738334 77.5505565 159.738334 77.5505565 154 90 157.907002 81.3569866 157.907002 81.3569866 163 69 159.738334"></polyline>
                            <polyline id="Fill-41" fill="#FE7200" points="69 161.112003 69 160 81 162.888123 81 164 69 161.112003"></polyline>
                            <polygon id="Fill-42" fill="#FE7200" points="81 159 89 159 89 158 81 158"></polygon>
                        </g>
                    </g>
                </g>
            </g>
        </g>
    </g>
</svg>