<?xml version="1.0" encoding="UTF-8"?>
<svg width="43px" height="168px" viewBox="0 0 43 168" version="1.1" xmlns="http://www.w3.org/2000/svg" xmlns:xlink="http://www.w3.org/1999/xlink">
    <!-- Generator: Sketch 50.2 (55047) - http://www.bohemiancoding.com/sketch -->
    <title>web panah kanan</title>
    <desc>Created with Sketch.</desc>
    <defs></defs>
    <g id="ONBOARDING" stroke="none" stroke-width="1" fill="none" fill-rule="evenodd">
        <g id="web-2" transform="translate(-717.000000, -140.000000)">
            <g id="Group-4">
                <g transform="translate(0.000000, -23.000000)" id="web-panah-kanan">
                    <g transform="translate(717.000000, 163.000000)">
                        <g id="Group-Copy-2" opacity="0.378571429" transform="translate(0.000000, 71.000000)">
                            <polygon id="Fill-1" fill="#BCE7E3" points="0 36 18 36 8.9999127 20"></polygon>
                            <polygon id="Fill-2" fill="#74C1C0" points="0 16 18 16 8.9999127 0"></polygon>
                            <polygon id="Fill-3" fill="#BCE7E3" points="0 77 18 77 8.9999127 61"></polygon>
                            <polygon id="Fill-4" fill="#BCE7E3" points="0 97 18 97 8.9999127 81"></polygon>
                            <polygon id="Fill-5" fill="#74C1C0" points="0 57 18 57 8.9999127 41"></polygon>
                        </g>
                        <g id="Group-Copy" transform="translate(33.000000, 0.000000)">
                            <polygon id="Fill-1" fill="#BCE7E3" points="0 36 18 36 8.9999127 20"></polygon>
                            <polygon id="Fill-2" fill="#74C1C0" points="0 16 18 16 8.9999127 0"></polygon>
                            <polygon id="Fill-3" fill="#BCE7E3" points="0 77 18 77 8.9999127 61"></polygon>
                            <polygon id="Fill-4" fill="#BCE7E3" points="0 97 18 97 8.9999127 81"></polygon>
                            <polygon id="Fill-5" fill="#74C1C0" points="0 57 18 57 8.9999127 41"></polygon>
                        </g>
                    </g>
                </g>
            </g>
        </g>
    </g>
</svg>