<?xml version="1.0" encoding="UTF-8"?>
<svg width="149px" height="11px" viewBox="0 0 149 11" version="1.1" xmlns="http://www.w3.org/2000/svg" xmlns:xlink="http://www.w3.org/1999/xlink">
    <!-- Generator: Sketch 50.2 (55047) - http://www.bohemiancoding.com/sketch -->
    <title>web zigzag bawah</title>
    <desc>Created with Sketch.</desc>
    <defs></defs>
    <g id="ONBOARDING" stroke="none" stroke-width="1" fill="none" fill-rule="evenodd">
        <g id="web-3" transform="translate(-380.000000, -363.000000)" fill="#BCE7E3">
            <g id="Group-59-+-Group-4-+-Group-5-Mask">
                <g id="Group-59" transform="translate(-11.000000, 0.000000)">
                    <g id="web-zigzag-bawah" transform="translate(391.000000, 363.000000)">
                        <g id="Group-7">
                            <path d="M135.117772,0.73110683 L130.974795,3.14207142 C131.030572,3.28191232 131.063418,3.43373368 131.063418,3.59340432 C131.063418,4.26782167 130.516599,4.81479171 129.841906,4.81479171 C129.456426,4.81479171 129.116807,4.63260607 128.89308,4.35354394 L121.745799,8.5126231 L108.375479,0.73110683 L95.0061923,8.51220998 L81.6364921,0.730693711 L68.2669985,8.51220998 L54.898951,0.730693711 L41.5315232,8.51220998 L28.1653348,0.730693711 L14.7968741,8.51220998 L1.91986905,1.01574607 L0.940676253,2.69714187 L14.7968741,10.7632974 L28.1653348,2.98198766 L41.5315232,10.7632974 L54.898951,2.98198766 L68.2669985,10.7632974 L81.6364921,2.98198766 L95.0061923,10.7632974 L108.375479,2.98198766 L121.745799,10.7630908 L122.862575,10.1132541 C122.709499,9.95275719 122.553737,9.79494559 122.401487,9.63320936 C122.46656,9.62267482 122.532046,9.61317307 122.600217,9.61317307 C122.868566,9.61317307 123.114603,9.70240686 123.316433,9.84927079 L135.117772,2.9817811 L135.879229,3.42485162 C135.962067,2.83099254 136.466951,2.37201693 137.083801,2.37201693 C137.758287,2.37201693 138.305106,2.91898696 138.305106,3.59340432 C138.305106,3.98752019 138.115259,4.33412733 137.825632,4.55721178 L148.000768,10.4784516 L148.979134,8.79726234 L135.117772,0.73110683 Z" id="Fill-5"></path>
                        </g>
                    </g>
                </g>
            </g>
        </g>
    </g>
</svg>