<?xml version="1.0" encoding="UTF-8"?>
<svg width="85px" height="49px" viewBox="0 0 85 49" version="1.1" xmlns="http://www.w3.org/2000/svg" xmlns:xlink="http://www.w3.org/1999/xlink">
    <!-- Generator: Sketch 50.2 (55047) - http://www.bohemiancoding.com/sketch -->
    <title>web zigzag kanan</title>
    <desc>Created with Sketch.</desc>
    <defs></defs>
    <g id="ONBOARDING" stroke="none" stroke-width="1" fill="none" fill-rule="evenodd">
        <g id="web-3" transform="translate(-675.000000, -50.000000)">
            <g id="Group-59-+-Group-4-+-Group-5-Mask">
                <g id="Group-59" transform="translate(-11.000000, 0.000000)">
                    <g id="web-zigzag-kanan" transform="translate(686.000000, 50.000000)">
                        <g id="Group">
                            <g id="Group-8">
                                <g id="Group-4" transform="translate(0.000000, 19.217687)" fill="#1E0F00">
                                    <path d="M145.300757,6.82726724 C145.077857,7.12491974 144.725843,7.32011863 144.325489,7.32011863 C143.651003,7.32011863 143.104184,6.77335516 143.104184,6.0989378 C143.104184,5.92460143 143.141988,5.75935369 143.207888,5.60939136 L135.117772,0.901689694 L121.745799,8.68320596 L108.375479,0.901689694 L95.0061923,8.68279284 L81.6364921,0.901483134 L68.2669985,8.68279284 L54.898951,0.901483134 L41.5315232,8.68279284 L28.1653348,0.901483134 L14.7968741,8.68279284 L1.91986905,1.18632893 L0.940676253,2.86772473 L14.7968741,10.9340868 L28.1653348,3.15277709 L41.5315232,10.9340868 L54.898951,3.15277709 L68.2669985,10.9340868 L81.6364921,3.15277709 L95.0061923,10.9340868 L108.375479,3.15277709 L121.745799,10.9338802 L135.117772,3.15236397 L148.000768,10.649241 L148.979134,8.9678452 L145.300757,6.82726724 Z" id="Fill-2"></path>
                                </g>
                                <g id="Group-7" fill="#BCE7E3">
                                    <path d="M135.117772,0.73110683 L130.974795,3.14207142 C131.030572,3.28191232 131.063418,3.43373368 131.063418,3.59340432 C131.063418,4.26782167 130.516599,4.81479171 129.841906,4.81479171 C129.456426,4.81479171 129.116807,4.63260607 128.89308,4.35354394 L121.745799,8.5126231 L108.375479,0.73110683 L95.0061923,8.51220998 L81.6364921,0.730693711 L68.2669985,8.51220998 L54.898951,0.730693711 L41.5315232,8.51220998 L28.1653348,0.730693711 L14.7968741,8.51220998 L1.91986905,1.01574607 L0.940676253,2.69714187 L14.7968741,10.7632974 L28.1653348,2.98198766 L41.5315232,10.7632974 L54.898951,2.98198766 L68.2669985,10.7632974 L81.6364921,2.98198766 L95.0061923,10.7632974 L108.375479,2.98198766 L121.745799,10.7630908 L122.862575,10.1132541 C122.709499,9.95275719 122.553737,9.79494559 122.401487,9.63320936 C122.46656,9.62267482 122.532046,9.61317307 122.600217,9.61317307 C122.868566,9.61317307 123.114603,9.70240686 123.316433,9.84927079 L135.117772,2.9817811 L135.879229,3.42485162 C135.962067,2.83099254 136.466951,2.37201693 137.083801,2.37201693 C137.758287,2.37201693 138.305106,2.91898696 138.305106,3.59340432 C138.305106,3.98752019 138.115259,4.33412733 137.825632,4.55721178 L148.000768,10.4784516 L148.979134,8.79726234 L135.117772,0.73110683 Z" id="Fill-5"></path>
                                </g>
                            </g>
                        </g>
                        <polygon id="Fill-1" fill="#BCE7E3" points="68.3089259 46.7562281 54.944126 39 41.5803587 46.7562281 28.2174175 39 14.8524111 46.7562281 1.97873326 39.284126 1 40.9596459 14.8524111 49 28.2174175 41.2439778 41.5803587 49 54.944126 41.2439778 68.3089259 49 81.6747584 41.2439778 95.0410041 49 108.406837 41.2439778 121.773908 48.9995882 135.142426 41.2433601 148.022093 48.715874 149 47.0401482 135.142426 39.0002059 121.773908 46.756434 108.406837 39.0002059 95.0410041 46.7562281 81.6747584 39"></polygon>
                    </g>
                </g>
            </g>
        </g>
    </g>
</svg>