<?xml version="1.0" encoding="UTF-8" standalone="no"?>
<svg xmlns="http://www.w3.org/2000/svg" height="61px" width="150px" version="1.1" xmlns:xlink="http://www.w3.org/1999/xlink" viewBox="0 0 150 61"><!-- Generator: Sketch 52.6 (67491) - http://www.bohemiancoding.com/sketch -->
 <title>duk</title>
 <desc>Created with Sketch.</desc>
 <g id="Page-1" fill-rule="evenodd" fill="none">
  <g id="edit-asset" transform="translate(-413 -831)">
   <g id="duk" transform="translate(413 831)">
    <path id="duk.." fill="#4F52A3" d="m24.062 22.5v-12.464c0-2.792 2.094-4.1879 6.282-4.1879 4.144 0 6.237 1.3631 6.281 4.0894v41.974c-0.044 2.703-2.116 4.066-6.216 4.088h-6.347c-13.958 0-20.937-5.583-20.937-16.75s6.979-16.75 20.937-16.75zm0 20.938v-8.376c-5.583 0-8.374 1.396-8.374 4.188s2.791 4.188 8.374 4.188zm37.688-8.376v-16.75c0-2.791 2.094-4.187 6.281-4.187 4.188 0 6.281 1.396 6.281 4.187v16.75c0 13.959-5.583 20.938-16.75 20.938-11.166 0-16.75-6.979-16.75-20.938v-21.035c0.044-2.726 2.138-4.0895 6.282-4.0895 4.187 0 6.281 1.3955 6.281 4.1875v20.937c0 5.584 1.396 8.376 4.187 8.376 2.792 0 4.188-2.792 4.188-8.376zm29.312 7.263v9.487c0 2.792-2.093 4.188-6.281 4.188-4.144 0-6.237-1.363-6.281-4.089v-37.884c0.044-2.726 2.137-4.0895 6.281-4.0895 4.188 0 6.281 1.3955 6.281 4.1875v13.675c2.16-4.362 4.82-8.484 7.983-12.366 3.535-4.057 7.745-5.8673 12.625-5.431 2.79 0.829 4.29 2.639 4.48 5.431 0.2 2.791-0.92 4.569-3.36 5.332-2.45 0.763-6.9 5.529-13.352 14.296 6.452 8.768 10.902 13.534 13.352 14.297 2.44 0.763 3.56 2.541 3.36 5.332-0.19 2.792-1.69 4.602-4.48 5.431-4.88 0.436-9.09-1.374-12.625-5.431-3.163-3.882-5.823-8.004-7.983-12.366zm29.318 5.3c0-2.792 1.39-4.187 4.18-4.187h4.19c2.79 0 4.19 1.395 4.19 4.187v4.187c0 2.792-1.4 4.188-4.19 4.188h-4.19c-2.79 0-4.18-1.396-4.18-4.188v-4.187zm16.74 0c0-2.792 1.4-4.187 4.19-4.187h4.19c2.79 0 4.19 1.395 4.19 4.187v4.187c0 2.792-1.4 4.188-4.19 4.188h-4.19c-2.79 0-4.19-1.396-4.19-4.188v-4.187z"/>
    <path id="duk.." fill="#FFD278" d="m21.062 17.5v-12.464c0-2.792 2.094-4.1879 6.282-4.1879 4.144 0.00004 6.237 1.3631 6.281 4.0894v41.974c-0.044 2.703-2.116 4.066-6.216 4.088h-6.347c-13.958 0-20.937-5.583-20.937-16.75s6.9791-16.75 20.937-16.75zm0 20.938v-8.376c-5.583 0-8.374 1.396-8.374 4.188s2.791 4.188 8.374 4.188zm37.688-8.376v-16.75c0-2.791 2.094-4.187 6.281-4.187 4.188 0 6.281 1.396 6.281 4.187v16.75c0 13.959-5.583 20.938-16.75 20.938-11.166 0-16.75-6.979-16.75-20.938v-21.035c0.044-2.7264 2.138-4.0895 6.282-4.0895 4.187 0 6.281 1.3958 6.281 4.1875v20.937c0 5.584 1.396 8.376 4.187 8.376 2.792 0 4.188-2.792 4.188-8.376zm29.312 7.263v9.487c0 2.792-2.093 4.188-6.281 4.188-4.144 0-6.237-1.363-6.281-4.089v-37.884c0.044-2.7264 2.137-4.0895 6.281-4.0895 4.188 0 6.281 1.3958 6.281 4.1875v13.675c2.16-4.362 4.82-8.484 7.983-12.366 3.533-4.0571 7.745-5.8673 12.625-5.4311 2.79 0.8288 4.29 2.639 4.48 5.4311 0.2 2.791-0.92 4.569-3.36 5.332-2.45 0.763-6.9 5.529-13.352 14.296 6.452 8.768 10.902 13.534 13.352 14.297 2.44 0.763 3.56 2.541 3.36 5.332-0.19 2.792-1.69 4.602-4.48 5.431-4.88 0.436-9.092-1.374-12.625-5.431-3.163-3.882-5.823-8.004-7.983-12.366zm29.318 5.3c0-2.792 1.39-4.187 4.18-4.187h4.19c2.79 0 4.19 1.395 4.19 4.187v4.187c0 2.792-1.4 4.188-4.19 4.188h-4.19c-2.79 0-4.18-1.396-4.18-4.188v-4.187zm16.74 0c0-2.792 1.4-4.187 4.19-4.187h4.19c2.79 0 4.19 1.395 4.19 4.187v4.187c0 2.792-1.4 4.188-4.19 4.188h-4.19c-2.79 0-4.19-1.396-4.19-4.188v-4.187z"/>
   </g>
  </g>
 </g>
</svg>
