<?xml version="1.0" encoding="UTF-8"?>
<svg width="300px" height="130px" viewBox="0 0 300 130" version="1.1" xmlns="http://www.w3.org/2000/svg" xmlns:xlink="http://www.w3.org/1999/xlink">
    <!-- Generator: Sketch 50.2 (55047) - http://www.bohemiancoding.com/sketch -->
    <title>pop up who posted</title>
    <desc>Created with Sketch.</desc>
    <defs></defs>
    <g id="WEB" stroke="none" stroke-width="1" fill="none" fill-rule="evenodd">
        <g id="web-profile-1---who-posted" transform="translate(-570.000000, -173.000000)">
            <g id="Group-35-Copy-2" transform="translate(520.000000, 163.000000)">
                <g id="Group-35-Copy-3">
                    <g id="Group-39" transform="translate(50.000000, 10.000000)">
                        <g id="Group-35" transform="translate(38.000000, 9.000000)">
                            <circle id="Oval-4" fill="#C0E9F0" cx="154" cy="14" r="3"></circle>
                            <circle id="Oval-4-Copy" fill="#C0E9F0" cx="3" cy="82" r="3"></circle>
                            <path d="M20.0161197,50.9373729 L18.2566075,50.9373729 L18.2566075,49.1699656 C18.2566075,48.5250069 17.7343516,48 17.0909091,48 C16.4468895,48 15.9252106,48.5250069 15.9252106,49.1699656 L15.9252106,50.9373729 L14.1656985,50.9373729 C13.522256,50.9373729 13,51.4606413 13,52.107918 C13,52.7540357 13.522256,53.2790426 14.1656985,53.2790426 L15.9252106,53.2790426 L15.9252106,55.0452909 C15.9252106,55.6914086 16.4468895,56.214677 17.0909091,56.214677 C17.7343516,56.214677 18.2566075,55.6914086 18.2566075,55.0452909 L18.2566075,53.2790426 L20.0161197,53.2790426 C20.6589851,53.2790426 21.1818182,52.7540357 21.1818182,52.107918 C21.1818182,51.4606413 20.6589851,50.9373729 20.0161197,50.9373729" id="Fill-8" fill="#C0E9F0"></path>
                            <path d="M197.01612,46.9373729 L195.256608,46.9373729 L195.256608,45.1699656 C195.256608,44.5250069 194.734352,44 194.090909,44 C193.44689,44 192.925211,44.5250069 192.925211,45.1699656 L192.925211,46.9373729 L191.165698,46.9373729 C190.522256,46.9373729 190,47.4606413 190,48.107918 C190,48.7540357 190.522256,49.2790426 191.165698,49.2790426 L192.925211,49.2790426 L192.925211,51.0452909 C192.925211,51.6914086 193.44689,52.214677 194.090909,52.214677 C194.734352,52.214677 195.256608,51.6914086 195.256608,51.0452909 L195.256608,49.2790426 L197.01612,49.2790426 C197.658985,49.2790426 198.181818,48.7540357 198.181818,48.107918 C198.181818,47.4606413 197.658985,46.9373729 197.01612,46.9373729" id="Fill-8-Copy" fill="#C0E9F0"></path>
                            <path d="M25.6677494,103.03093 L21,100.232622 L26.2361949,100.165229 L27.8798144,95 L29.5883991,100.23132 L35,100.171415 L30.4426914,103.614683 C30.4426914,103.614683 35.0487239,108.987303 34.4737819,108.72782 L28.4320186,105.148787 L23.3322506,111 L25.6677494,103.03093" id="Fill-14" fill="#C0E9F0"></path>
                            <path d="M206.667517,31.0231971 L203,28.9244669 L207.114153,28.8739215 L208.405568,25 L209.748028,28.9234902 L214,28.878561 L210.419258,31.4610125 C210.419258,31.4610125 214.038283,35.490477 213.586543,35.2958652 L208.839443,32.6115904 L204.832483,37 L206.667517,31.0231971" id="Fill-14-Copy" fill="#C0E9F0"></path>
                            <path d="M11.6675174,19.0231971 L8,16.9244669 L12.1141531,16.8739215 L13.4055684,13 L14.7480278,16.9234902 L19,16.878561 L15.4192575,19.4610125 C15.4192575,19.4610125 19.0382831,23.490477 18.5865429,23.2958652 L13.8394432,20.6115904 L9.8324826,25 L11.6675174,19.0231971" id="Fill-14-Copy-3" fill="#C0E9F0"></path>
                            <path d="M177.667749,17.5289964 L173,14.9055836 L178.236195,14.8424019 L179.879814,10 L181.588399,14.9043627 L187,14.8482012 L182.442691,18.0762657 C182.442691,18.0762657 187.048724,23.1130962 186.473782,22.8698315 L180.432019,19.514488 L175.332251,25 L177.667749,17.5289964" id="Fill-14-Copy-2" fill="#FDBA4D"></path>
                            <g id="Group-34-Copy" transform="translate(107.500000, 70.000000) scale(-1, 1) translate(-107.500000, -70.000000) translate(31.000000, 27.000000)" fill="#C0E9F0">
                                <path d="M16.9855745,66.5430762 C16.9855745,66.5430762 41.2626059,78.4168987 65.5296385,66.9686558 C89.7991708,55.5206625 99.5054839,27.1410342 54.5384825,20.9840988 C9.56898144,14.8269139 -10.9260124,38.7319685 5.77944482,60.1089901 C5.77944482,60.1089901 -2.01460211,73.4404105 6.41686688,86 C6.41686688,86 6.02941426,75.1644322 16.9855745,66.5430762" id="Fill-13"></path>
                                <path d="M135.345147,11.9883681 C135.345147,11.9883681 141.55555,15.0467769 147.763396,12.0979871 C153.971881,9.14926154 156.454891,1.8393573 144.951705,0.253479992 C133.447879,-1.33246157 128.204974,4.82490098 132.478463,10.3311035 C132.478463,10.3311035 130.484637,13.7649542 132.641524,17 C132.641524,17 132.542408,14.2090204 135.345147,11.9883681" id="Fill-13-Copy-2" transform="translate(142.000000, 8.500000) scale(-1, 1) translate(-142.000000, -8.500000) "></path>
                            </g>
                            <g id="Group-34" transform="translate(56.000000, 20.000000)">
                                <path d="M25.3182549,65.3522368 C25.3182549,65.3522368 57.217145,81.0040937 89.1028971,65.9132282 C120.991934,50.8226914 133.745578,13.4131815 74.6610294,5.29722114 C15.5731965,-2.81906806 -11.3562721,28.6921403 10.5939217,56.8709415 C10.5939217,56.8709415 0.352906525,74.4441775 11.4314646,91 C11.4314646,91 10.9223699,76.7167516 25.3182549,65.3522368" id="Fill-13-Copy" fill="#E4F5F8"></path>
                                <path d="M22.3182549,61.3522368 C22.3182549,61.3522368 54.217145,77.0040937 86.1028971,61.9132282 C117.991934,46.8226914 130.745578,9.4131815 71.6610294,1.29722114 C12.5731965,-6.81906806 -14.3562721,24.6921403 7.59392169,52.8709415 C7.59392169,52.8709415 -2.64709348,70.4441775 8.43146462,87 C8.43146462,87 7.9223699,72.7167516 22.3182549,61.3522368" id="Fill-13" fill="#FDBA4D"></path>
                            </g>
                            <path d="M37.8157692,74.8791684 C37.8157692,74.8791684 26.1575653,71.8956861 25.0566985,79.314728 C23.7246294,88.2931994 46.3060713,84.8222259 46.3060713,84.8222259 C46.3060713,84.8222259 49.3150921,68.5320647 42.8014232,68.0167749 C37.6085233,67.6058992 37.8157692,74.8791684 37.8157692,74.8791684" id="Fill-5" fill="#CF2B2A"></path>
                            <path d="M71.4361632,5.68604355 C71.3230277,10.0249305 65.2771734,12.3464171 62.1769829,9.35715471 C61.5947487,8.79602989 62.454303,7.88404685 63.0351576,8.44379197 C65.325463,10.6520051 70.0978523,8.98891224 70.1833938,5.70936052 C70.2040893,4.90527018 71.4568588,4.87809005 71.4361632,5.68604355 Z M63.3276544,5.04848325 C64.4893635,4.70479947 65.0205488,6.50779408 63.8602194,6.85078801 C62.6985103,7.19433381 62.167325,5.39147717 63.3276544,5.04848325 Z M66.6251423,3.6809226 C67.7868514,3.33737679 68.3180367,5.14023343 67.159087,5.48336533 C65.9973779,5.82691113 65.4661926,4.02405449 66.6251423,3.6809226 Z M69.2714108,0.764784393 C63.5511662,-1.82546819 59.6866208,2.8812473 59.3375562,4.26964145 C57.3990748,11.9567893 64.2410172,14.749996 68.8643987,13.6263667 C74.9033544,12.1585017 75.10893,3.40760363 69.2714108,0.764784393 Z" id="Fill-12" fill="#C0E9F0"></path>
                            <g id="Group-2" transform="translate(192.000000, 66.000000)">
                                <path d="M35,18 L26.1146248,16.4719031 C26.1146248,16.4719031 15.9806511,14.0540523 15.5798522,13.9923991 C15.4579819,13.9736414 14.8476291,13.6979471 14.0567595,13.3232297 C12.2474432,12.4659017 9.49477628,11.0906291 9.49477628,11.0906291 C9.45815797,10.5337149 9,7.50776613 9,7.06616082 C9,7.05292866 9.00042912,7.04187762 9.00128736,7.03344393 C9.00357601,7.01061481 9.06780109,7 9.18380674,7 C10.5363955,7 18.9548873,8.43140028 18.9548873,8.43140028 L33.095848,16.6314161 L35,18" id="Fill-79" fill="#A8BEE9"></path>
                                <path d="M0,16.2893713 C0,16.2893713 6.85286887,10.0384701 7.45310703,10.0001388 C8.05334519,9.9618076 33.4366825,17.872584 33.9933449,17.9941865 C34.5500074,18.1157891 0,16.2893713 0,16.2893713" id="Fill-80" fill="#CFDCF4"></path>
                                <path d="M9.0122232,7.62744604 C8.7840759,7.46786842 11.8176217,-0.0142741802 12.4404253,2.04562362e-05 C13.0633716,0.0144525411 36.2666228,18.3903452 34.9456799,17.993669 C33.624737,17.5968554 9.36878362,7.87677749 9.0122232,7.62744604" id="Fill-81" fill="#CFDCF4"></path>
                            </g>
                            <path d="M71.7237421,44.3941328 C78.0303112,43.7274661 85.4135484,43.3941328 93.8734539,43.3941328 C106.563312,43.3941328 119.682458,44.3941328 133.298131,44.3941328 C142.375245,44.3941328 149.517116,44.0607995 154.723742,43.3941328" id="Path-3" stroke="#FFFFFF" stroke-width="3" stroke-linecap="round"></path>
                            <path d="M76,59 C83.7611522,58.3333333 92.8473016,58 103.258448,58 C118.875168,58 135.020189,59 151.776258,59" id="Path-3" stroke="#FFFFFF" stroke-width="3" stroke-linecap="round"></path>
                            <path d="M98,73 C105.761152,72.3333333 114.847302,72 125.258448,72" id="Path-3-Copy" stroke="#FFFFFF" stroke-width="3" stroke-linecap="round"></path>
                            <path d="M78,102 C85.7611522,101.333333 94.8473016,101 105.258448,101" id="Path-3-Copy-2" stroke="#C0E9F0" stroke-width="3" stroke-linecap="round"></path>
                            <path d="M88,14 C95.7611522,13.3333333 104.847302,13 115.258448,13" id="Path-3-Copy-3" stroke="#C0E9F0" stroke-width="3" stroke-linecap="round"></path>
                            <path d="M118,3.5 C123.19863,3.16666667 129.28478,3 136.258448,3" id="Path-3-Copy-4" stroke="#C0E9F0" stroke-width="3" stroke-linecap="round"></path>
                        </g>
                    </g>
                </g>
            </g>
        </g>
    </g>
</svg>