<svg xmlns="http://www.w3.org/2000/svg" viewBox="0 0 285.51 85.83"><defs><style>.cls-1{fill:#7195b3;}.cls-1,.cls-2,.cls-3,.cls-4,.cls-5,.cls-6{fill-rule:evenodd;}.cls-2{fill:#d94b54;}.cls-3{fill:#f7c274;}.cls-4{fill:#fde886;}.cls-5{fill:#acd0d2;}.cls-6{fill:#f6e3b8;}</style></defs><title>Asset 77</title><g id="Layer_2" data-name="Layer 2"><g id="Layer_1-2" data-name="Layer 1"><polygon class="cls-1" points="93.91 53.18 118.91 49.8 110.66 82.99 93.91 53.18"/><polygon class="cls-2" points="118.93 49.8 143.56 44.34 138.13 78.11 118.93 49.8"/><polygon class="cls-3" points="143.56 44.34 167.61 36.75 165.16 70.86 143.56 44.34"/><polygon class="cls-4" points="167.61 36.75 190.88 26.99 191.54 61.18 167.61 36.75"/><polygon class="cls-5" points="190.89 26.99 207.11 18.6 213.47 17.08 216.7 49.43 190.89 26.99"/><polygon class="cls-1" points="236.45 11.57 240.86 35.66 215.07 16.69 236.45 11.57"/><polygon class="cls-2" points="260.07 5.91 263.87 19.89 246.41 9.18 260.07 5.91"/><polygon class="cls-2" points="8 66.32 1.78 75.67 0 68.23 8 66.32"/><polygon class="cls-3" points="284.72 0 285.51 2.15 282.35 0.57 284.72 0"/><polygon class="cls-3" points="40.88 58.44 27.11 83.71 21.68 63.04 40.88 58.44"/><polygon class="cls-4" points="58.83 54.14 68.69 54.43 55.13 85.83 44.85 57.49 58.83 54.14"/><polygon class="cls-5" points="68.7 54.44 93.89 53.17 82.89 85.55 68.7 54.44"/><path class="cls-6" d="M210.28,17.84A297.08,297.08,0,0,1,155.8,41.21,295.57,295.57,0,0,1,55.92,54.83l4-.95a294.69,294.69,0,0,0,95.56-13.7A295.66,295.66,0,0,0,206.26,18.8Z"/></g></g></svg>