<svg xmlns="http://www.w3.org/2000/svg" width="28" height="28" viewBox="0 0 28 28">
    <g fill="none" fill-rule="evenodd">
        <path fill="#0082C6" d="M28 14c0 7.732-6.268 14-14 14-7.731 0-14-6.268-14-14C0 6.269 6.269 0 14 0c7.732 0 14 6.269 14 14"/>
        <path fill="#FFF" fill-rule="nonzero" d="M20.996 11.747c0 .113-.073.237-.219.37l-3.054 2.734.724 3.86c.006.036.009.087.009.154 0 .108-.03.199-.089.273-.059.075-.144.112-.256.112a.723.723 0 0 1-.336-.093l-3.777-1.822-3.777 1.822a.761.761 0 0 1-.336.093c-.118 0-.206-.037-.265-.112a.428.428 0 0 1-.089-.273c0-.031.006-.083.018-.155l.723-3.86-3.062-2.732c-.14-.14-.21-.263-.21-.371 0-.19.157-.309.472-.355l4.223-.563 1.893-3.513C13.694 7.106 13.83 7 14 7c.169 0 .306.105.412.316l1.893 3.513 4.223.563c.315.046.472.165.472.355h-.004z"/>
    </g>
</svg>
