<?xml version="1.0" encoding="UTF-8"?>
<svg width="50px" height="11px" viewBox="0 0 50 11" version="1.1" xmlns="http://www.w3.org/2000/svg" xmlns:xlink="http://www.w3.org/1999/xlink">
    <!-- Generator: Sketch 50.2 (55047) - http://www.bohemiancoding.com/sketch -->
    <title>zigzag kiri</title>
    <desc>Created with Sketch.</desc>
    <defs></defs>
    <g id="ONBOARDING" stroke="none" stroke-width="1" fill="none" fill-rule="evenodd">
        <g id="mobile-3" transform="translate(0.000000, -69.000000)" fill="#1E0F00">
            <g id="Group-8" transform="translate(-98.000000, 69.000000)">
                <g id="Group-4" transform="translate(0.000000, 0.217687)">
                    <path d="M144.360081,5.9257841 C144.13718,6.2234366 143.785167,6.4186355 143.384813,6.4186355 C142.710327,6.4186355 142.163508,5.87187203 142.163508,5.19745467 C142.163508,5.0231183 142.201312,4.85787056 142.267211,4.70790823 L134.177096,0.00020655968 L120.805123,7.78172283 L107.434803,0.00020655968 L94.065516,7.78130971 L80.6958159,0 L67.3263222,7.78130971 L53.9582747,0 L40.5908469,7.78130971 L27.2246586,0 L13.8561979,7.78130971 L0.979192801,0.284845799 L0,1.96624159 L13.8561979,10.0326037 L27.2246586,2.25129395 L40.5908469,10.0326037 L53.9582747,2.25129395 L67.3263222,10.0326037 L80.6958159,2.25129395 L94.065516,10.0326037 L107.434803,2.25129395 L120.805123,10.0323971 L134.177096,2.25088083 L147.060092,9.74775786 L148.038458,8.06636207 L144.360081,5.9257841 Z" id="zigzag-kiri"></path>
                </g>
            </g>
        </g>
    </g>
</svg>