<?xml version="1.0" encoding="UTF-8"?>
<svg width="21px" height="22px" viewBox="0 0 21 22" version="1.1" xmlns="http://www.w3.org/2000/svg" xmlns:xlink="http://www.w3.org/1999/xlink">
    <!-- Generator: Sketch 50.2 (55047) - http://www.bohemiancoding.com/sketch -->
    <title>story white</title>
    <desc>Created with Sketch.</desc>
    <defs></defs>
    <g id="00-CHANNEL" stroke="none" stroke-width="1" fill="none" fill-rule="evenodd">
        <g id="0-menu-copy" transform="translate(-179.000000, -304.000000)" fill="#FFFFFF">
            <path d="M182.716398,316.375 L191.500746,316.375 L191.500746,315 L182.716398,315 L182.716398,316.375 Z M182.716398,319.125108 L191.500746,319.125108 L191.500746,317.75 L182.716398,317.75 L182.716398,319.125108 Z M182.716398,321.875 L191.500746,321.875 L191.500746,320.5 L182.716398,320.5 L182.716398,321.875 Z M184.553628,308.621082 C185.201445,307.959711 186.251488,307.959711 186.899305,308.621082 C186.992395,308.716117 187.042276,308.833457 187.108678,308.943039 C187.174974,308.833457 187.224961,308.716117 187.317945,308.621082 C187.965763,307.959711 189.015805,307.959711 189.663622,308.621082 C190.311334,309.282452 190.311334,310.354782 189.663622,311.01626 L187.108678,313.625108 L184.553628,311.01626 C183.905917,310.354782 183.905917,309.282452 184.553628,308.621082 Z M189.811465,304 L179,304 L179,320.5 C179,323.537585 181.420234,326 184.405785,326 L195.21725,326 L195.21725,309.5 C195.21725,306.462523 192.797122,304 189.811465,304 Z M198.194012,324.763674 L198.526764,325.616948 C198.580457,325.754545 198.772038,325.754545 198.825626,325.616948 L199.163673,324.750313 C198.751175,324.633189 198.427849,324.676936 198.194012,324.763674 Z M197.352389,311.108926 L200,311.108926 L200,308.474865 L197.352389,308.474865 L197.352389,311.108926 Z M199.079479,305.026859 L198.273017,305.026859 C197.764569,305.026859 197.352389,305.446115 197.352389,305.963424 L197.352389,307.480869 L200,307.480869 L200,305.963424 C200,305.446115 199.587926,305.026859 199.079479,305.026859 Z M197.352389,322.605869 L197.804072,323.763753 C198.265074,323.588551 198.861845,323.525625 199.554884,323.747052 L200,322.605869 L200,312.102921 L197.352389,312.102921 L197.352389,322.605869 Z" id="story-white"></path>
        </g>
    </g>
</svg>